<svg xmlns="http://www.w3.org/2000/svg" xmlns:xlink="http://www.w3.org/1999/xlink" contentStyleType="text/css" data-diagram-type="CLASS" height="809px" preserveAspectRatio="none" style="width:1094px;height:809px;background:#FFFFFF;" version="1.1" viewBox="0 0 1094 809" width="1094px" zoomAndPan="magnify"><defs/><g><!--class Banco--><g id="elem_Banco"><rect codeLine="1" fill="#F1F1F1" height="113.1875" id="Banco" rx="2.5" ry="2.5" style="stroke:#181818;stroke-width:0.5;" width="365.7734" x="322" y="451.16"/><ellipse cx="478.9771" cy="467.16" fill="#ADD1B2" rx="11" ry="11" style="stroke:#181818;stroke-width:1;"/><path d="M481.9458,472.8006 Q481.3677,473.0975 480.7271,473.2381 Q480.0864,473.3944 479.3833,473.3944 Q476.8833,473.3944 475.5552,471.7538 Q474.2427,470.0975 474.2427,466.9725 Q474.2427,463.8475 475.5552,462.1913 Q476.8833,460.535 479.3833,460.535 Q480.0864,460.535 480.7271,460.6913 Q481.3833,460.8475 481.9458,461.1444 L481.9458,463.8631 Q481.3208,463.285 480.7271,463.0194 Q480.1333,462.7381 479.5083,462.7381 Q478.1646,462.7381 477.4771,463.8163 Q476.7896,464.8788 476.7896,466.9725 Q476.7896,469.0663 477.4771,470.1444 Q478.1646,471.2069 479.5083,471.2069 Q480.1333,471.2069 480.7271,470.9413 Q481.3208,470.66 481.9458,470.0819 L481.9458,472.8006 Z " fill="#000000"/><text fill="#000000" font-family="sans-serif" font-size="14" lengthAdjust="spacing" textLength="43.3193" x="499.4771" y="472.0067">Banco</text><line style="stroke:#181818;stroke-width:0.5;" x1="323" x2="686.7734" y1="483.16" y2="483.16"/><line style="stroke:#181818;stroke-width:0.5;" x1="323" x2="686.7734" y1="491.16" y2="491.16"/><ellipse cx="333" cy="504.8084" fill="#84BE84" rx="3" ry="3" style="stroke:#038048;stroke-width:1;"/><text fill="#000000" font-family="sans-serif" font-size="14" lengthAdjust="spacing" textLength="135.2148" x="342" y="508.1551">realizarOperacion()</text><ellipse cx="333" cy="521.1053" fill="#84BE84" rx="3" ry="3" style="stroke:#038048;stroke-width:1;"/><text fill="#000000" font-family="sans-serif" font-size="14" lengthAdjust="spacing" textLength="339.7734" x="342" y="524.452">ingresarDinero(Cuenta cuenta, double cantidad)</text><ellipse cx="333" cy="537.4022" fill="#84BE84" rx="3" ry="3" style="stroke:#038048;stroke-width:1;"/><text fill="#000000" font-family="sans-serif" font-size="14" lengthAdjust="spacing" textLength="320.0313" x="342" y="540.7489">sacarDinero(Cuenta cuenta, double cantidad)</text><ellipse cx="333" cy="553.6991" fill="#84BE84" rx="3" ry="3" style="stroke:#038048;stroke-width:1;"/><text fill="#000000" font-family="sans-serif" font-size="14" lengthAdjust="spacing" textLength="217.5264" x="342" y="557.0457">consultarSaldo(Cuenta cuenta)</text></g><!--class Cajero--><g id="elem_Cajero"><rect codeLine="8" fill="#F1F1F1" height="96.8906" id="Cajero" rx="2.5" ry="2.5" style="stroke:#181818;stroke-width:0.5;" width="365.7734" x="7" y="673.24"/><ellipse cx="163.0474" cy="689.24" fill="#ADD1B2" rx="11" ry="11" style="stroke:#181818;stroke-width:1;"/><path d="M166.0161,694.8806 Q165.438,695.1775 164.7974,695.3181 Q164.1567,695.4744 163.4536,695.4744 Q160.9536,695.4744 159.6255,693.8338 Q158.313,692.1775 158.313,689.0525 Q158.313,685.9275 159.6255,684.2713 Q160.9536,682.615 163.4536,682.615 Q164.1567,682.615 164.7974,682.7713 Q165.4536,682.9275 166.0161,683.2244 L166.0161,685.9431 Q165.3911,685.365 164.7974,685.0994 Q164.2036,684.8181 163.5786,684.8181 Q162.2349,684.8181 161.5474,685.8963 Q160.8599,686.9588 160.8599,689.0525 Q160.8599,691.1463 161.5474,692.2244 Q162.2349,693.2869 163.5786,693.2869 Q164.2036,693.2869 164.7974,693.0213 Q165.3911,692.74 166.0161,692.1619 L166.0161,694.8806 Z " fill="#000000"/><text fill="#000000" font-family="sans-serif" font-size="14" lengthAdjust="spacing" textLength="45.1787" x="183.5474" y="694.0867">Cajero</text><line style="stroke:#181818;stroke-width:0.5;" x1="8" x2="371.7734" y1="705.24" y2="705.24"/><line style="stroke:#181818;stroke-width:0.5;" x1="8" x2="371.7734" y1="713.24" y2="713.24"/><ellipse cx="18" cy="726.8884" fill="#84BE84" rx="3" ry="3" style="stroke:#038048;stroke-width:1;"/><text fill="#000000" font-family="sans-serif" font-size="14" lengthAdjust="spacing" textLength="135.2148" x="27" y="730.2351">realizarOperacion()</text><ellipse cx="18" cy="743.1853" fill="#84BE84" rx="3" ry="3" style="stroke:#038048;stroke-width:1;"/><text fill="#000000" font-family="sans-serif" font-size="14" lengthAdjust="spacing" textLength="339.7734" x="27" y="746.532">ingresarDinero(Cuenta cuenta, double cantidad)</text><ellipse cx="18" cy="759.4822" fill="#84BE84" rx="3" ry="3" style="stroke:#038048;stroke-width:1;"/><text fill="#000000" font-family="sans-serif" font-size="14" lengthAdjust="spacing" textLength="320.0313" x="27" y="762.8289">sacarDinero(Cuenta cuenta, double cantidad)</text></g><!--class Aplicacion--><g id="elem_Aplicacion"><rect codeLine="14" fill="#F1F1F1" height="80.5938" id="Aplicacion" rx="2.5" ry="2.5" style="stroke:#181818;stroke-width:0.5;" width="243.5264" x="408.12" y="681.38"/><ellipse cx="489.8607" cy="697.38" fill="#ADD1B2" rx="11" ry="11" style="stroke:#181818;stroke-width:1;"/><path d="M492.8295,703.0206 Q492.2513,703.3175 491.6107,703.4581 Q490.9701,703.6144 490.267,703.6144 Q487.767,703.6144 486.4388,701.9738 Q485.1263,700.3175 485.1263,697.1925 Q485.1263,694.0675 486.4388,692.4113 Q487.767,690.755 490.267,690.755 Q490.9701,690.755 491.6107,690.9113 Q492.267,691.0675 492.8295,691.3644 L492.8295,694.0831 Q492.2045,693.505 491.6107,693.2394 Q491.017,692.9581 490.392,692.9581 Q489.0482,692.9581 488.3607,694.0363 Q487.6732,695.0988 487.6732,697.1925 Q487.6732,699.2863 488.3607,700.3644 Q489.0482,701.4269 490.392,701.4269 Q491.017,701.4269 491.6107,701.1613 Q492.2045,700.88 492.8295,700.3019 L492.8295,703.0206 Z " fill="#000000"/><text fill="#000000" font-family="sans-serif" font-size="14" lengthAdjust="spacing" textLength="71.5449" x="510.3607" y="702.2267">Aplicacion</text><line style="stroke:#181818;stroke-width:0.5;" x1="409.12" x2="650.6464" y1="713.38" y2="713.38"/><line style="stroke:#181818;stroke-width:0.5;" x1="409.12" x2="650.6464" y1="721.38" y2="721.38"/><ellipse cx="419.12" cy="735.0284" fill="#84BE84" rx="3" ry="3" style="stroke:#038048;stroke-width:1;"/><text fill="#000000" font-family="sans-serif" font-size="14" lengthAdjust="spacing" textLength="135.2148" x="428.12" y="738.3751">realizarOperacion()</text><ellipse cx="419.12" cy="751.3253" fill="#84BE84" rx="3" ry="3" style="stroke:#038048;stroke-width:1;"/><text fill="#000000" font-family="sans-serif" font-size="14" lengthAdjust="spacing" textLength="217.5264" x="428.12" y="754.672">consultarSaldo(Cuenta cuenta)</text></g><!--class Cuenta--><g id="elem_Cuenta"><rect codeLine="19" fill="#F1F1F1" height="162.0781" id="Cuenta" rx="2.5" ry="2.5" style="stroke:#181818;stroke-width:0.5;" width="377.1074" x="710.33" y="640.64"/><ellipse cx="869.5321" cy="656.64" fill="#ADD1B2" rx="11" ry="11" style="stroke:#181818;stroke-width:1;"/><path d="M872.5009,662.2806 Q871.9228,662.5775 871.2821,662.7181 Q870.6415,662.8744 869.9384,662.8744 Q867.4384,662.8744 866.1103,661.2338 Q864.7978,659.5775 864.7978,656.4525 Q864.7978,653.3275 866.1103,651.6713 Q867.4384,650.015 869.9384,650.015 Q870.6415,650.015 871.2821,650.1713 Q871.9384,650.3275 872.5009,650.6244 L872.5009,653.3431 Q871.8759,652.765 871.2821,652.4994 Q870.6884,652.2181 870.0634,652.2181 Q868.7196,652.2181 868.0321,653.2963 Q867.3446,654.3588 867.3446,656.4525 Q867.3446,658.5463 868.0321,659.6244 Q868.7196,660.6869 870.0634,660.6869 Q870.6884,660.6869 871.2821,660.4213 Q871.8759,660.14 872.5009,659.5619 L872.5009,662.2806 Z " fill="#000000"/><text fill="#000000" font-family="sans-serif" font-size="14" lengthAdjust="spacing" textLength="50.2031" x="890.0321" y="661.4867">Cuenta</text><line style="stroke:#181818;stroke-width:0.5;" x1="711.33" x2="1086.4374" y1="672.64" y2="672.64"/><rect fill="#FFFFFF" fill-opacity="0.00000" height="6" style="stroke:#C82930;stroke-width:1;" width="6" x="718.33" y="683.2884"/><text fill="#000000" font-family="sans-serif" font-size="14" lengthAdjust="spacing" textLength="150.7529" x="730.33" y="689.6351">String numeroCuenta</text><rect fill="#FFFFFF" fill-opacity="0.00000" height="6" style="stroke:#C82930;stroke-width:1;" width="6" x="718.33" y="699.5853"/><text fill="#000000" font-family="sans-serif" font-size="14" lengthAdjust="spacing" textLength="121.1328" x="730.33" y="705.932">BigDecimal saldo</text><line style="stroke:#181818;stroke-width:0.5;" x1="711.33" x2="1086.4374" y1="713.2338" y2="713.2338"/><ellipse cx="721.33" cy="726.8822" fill="#84BE84" rx="3" ry="3" style="stroke:#038048;stroke-width:1;"/><text fill="#000000" font-family="sans-serif" font-size="14" lengthAdjust="spacing" textLength="351.1074" x="730.33" y="730.2289">Cuenta(String numeroCuenta, double saldoInicial)</text><ellipse cx="721.33" cy="743.1791" fill="#84BE84" rx="3" ry="3" style="stroke:#038048;stroke-width:1;"/><text fill="#000000" font-family="sans-serif" font-size="14" lengthAdjust="spacing" textLength="190.9824" x="730.33" y="746.5257">getNumeroCuenta(): String</text><ellipse cx="721.33" cy="759.4759" fill="#84BE84" rx="3" ry="3" style="stroke:#038048;stroke-width:1;"/><text fill="#000000" font-family="sans-serif" font-size="14" lengthAdjust="spacing" textLength="161.3555" x="730.33" y="762.8226">getSaldo(): BigDecimal</text><ellipse cx="721.33" cy="775.7728" fill="#84BE84" rx="3" ry="3" style="stroke:#038048;stroke-width:1;"/><text fill="#000000" font-family="sans-serif" font-size="14" lengthAdjust="spacing" textLength="228.0947" x="730.33" y="779.1195">ingresarDinero(double cantidad)</text><ellipse cx="721.33" cy="792.0697" fill="#84BE84" rx="3" ry="3" style="stroke:#038048;stroke-width:1;"/><text fill="#000000" font-family="sans-serif" font-size="14" lengthAdjust="spacing" textLength="208.3525" x="730.33" y="795.4164">sacarDinero(double cantidad)</text></g><!--class Usuario--><g id="elem_Usuario"><rect codeLine="29" fill="#F1F1F1" height="145.7813" id="Usuario" rx="2.5" ry="2.5" style="stroke:#181818;stroke-width:0.5;" width="352.0469" x="722.86" y="434.86"/><ellipse cx="868.0314" cy="450.86" fill="#ADD1B2" rx="11" ry="11" style="stroke:#181818;stroke-width:1;"/><path d="M871.0001,456.5006 Q870.422,456.7975 869.7814,456.9381 Q869.1408,457.0944 868.4376,457.0944 Q865.9376,457.0944 864.6095,455.4538 Q863.297,453.7975 863.297,450.6725 Q863.297,447.5475 864.6095,445.8913 Q865.9376,444.235 868.4376,444.235 Q869.1408,444.235 869.7814,444.3913 Q870.4376,444.5475 871.0001,444.8444 L871.0001,447.5631 Q870.3751,446.985 869.7814,446.7194 Q869.1876,446.4381 868.5626,446.4381 Q867.2189,446.4381 866.5314,447.5163 Q865.8439,448.5788 865.8439,450.6725 Q865.8439,452.7663 866.5314,453.8444 Q867.2189,454.9069 868.5626,454.9069 Q869.1876,454.9069 869.7814,454.6413 Q870.3751,454.36 871.0001,453.7819 L871.0001,456.5006 Z " fill="#000000"/><text fill="#000000" font-family="sans-serif" font-size="14" lengthAdjust="spacing" textLength="53.2041" x="888.5314" y="455.7067">Usuario</text><line style="stroke:#181818;stroke-width:0.5;" x1="723.86" x2="1073.9069" y1="466.86" y2="466.86"/><rect fill="#FFFFFF" fill-opacity="0.00000" height="6" style="stroke:#C82930;stroke-width:1;" width="6" x="730.86" y="477.5084"/><text fill="#000000" font-family="sans-serif" font-size="14" lengthAdjust="spacing" textLength="195.959" x="742.86" y="483.8551">ArrayList&lt;Cuenta&gt; cuentas</text><line style="stroke:#181818;stroke-width:0.5;" x1="723.86" x2="1073.9069" y1="491.1569" y2="491.1569"/><ellipse cx="733.86" cy="504.8053" fill="#84BE84" rx="3" ry="3" style="stroke:#038048;stroke-width:1;"/><text fill="#000000" font-family="sans-serif" font-size="14" lengthAdjust="spacing" textLength="64.1279" x="742.86" y="508.152">Usuario()</text><ellipse cx="733.86" cy="521.1022" fill="#84BE84" rx="3" ry="3" style="stroke:#038048;stroke-width:1;"/><text fill="#000000" font-family="sans-serif" font-size="14" lengthAdjust="spacing" textLength="140.793" x="742.86" y="524.4489">getNombre(): String</text><ellipse cx="733.86" cy="537.3991" fill="#84BE84" rx="3" ry="3" style="stroke:#038048;stroke-width:1;"/><text fill="#000000" font-family="sans-serif" font-size="14" lengthAdjust="spacing" textLength="218.9619" x="742.86" y="540.7457">agregarCuenta(Cuenta cuenta)</text><ellipse cx="733.86" cy="553.6959" fill="#84BE84" rx="3" ry="3" style="stroke:#038048;stroke-width:1;"/><text fill="#000000" font-family="sans-serif" font-size="14" lengthAdjust="spacing" textLength="326.0469" x="742.86" y="557.0426">obtenerCuenta(String numeroCuenta): Cuenta</text><ellipse cx="733.86" cy="569.9928" fill="#84BE84" rx="3" ry="3" style="stroke:#038048;stroke-width:1;"/><text fill="#000000" font-family="sans-serif" font-size="14" lengthAdjust="spacing" textLength="221.0332" x="742.86" y="573.3395">eliminarCuenta(Cuenta cuenta)</text></g><!--class Interfaz--><g id="elem_Interfaz"><rect codeLine="38" fill="#F1F1F1" height="243.5625" id="Interfaz" rx="2.5" ry="2.5" style="stroke:#181818;stroke-width:0.5;" width="201.2939" x="601.24" y="131.3"/><ellipse cx="670.7786" cy="147.3" fill="#ADD1B2" rx="11" ry="11" style="stroke:#181818;stroke-width:1;"/><path d="M673.7473,152.9406 Q673.1692,153.2375 672.5286,153.3781 Q671.8879,153.5344 671.1848,153.5344 Q668.6848,153.5344 667.3567,151.8938 Q666.0442,150.2375 666.0442,147.1125 Q666.0442,143.9875 667.3567,142.3313 Q668.6848,140.675 671.1848,140.675 Q671.8879,140.675 672.5286,140.8313 Q673.1848,140.9875 673.7473,141.2844 L673.7473,144.0031 Q673.1223,143.425 672.5286,143.1594 Q671.9348,142.8781 671.3098,142.8781 Q669.9661,142.8781 669.2786,143.9563 Q668.5911,145.0188 668.5911,147.1125 Q668.5911,149.2063 669.2786,150.2844 Q669.9661,151.3469 671.3098,151.3469 Q671.9348,151.3469 672.5286,151.0813 Q673.1223,150.8 673.7473,150.2219 L673.7473,152.9406 Z " fill="#000000"/><text fill="#000000" font-family="sans-serif" font-size="14" lengthAdjust="spacing" textLength="53.7168" x="691.2786" y="152.1467">Interfaz</text><line style="stroke:#181818;stroke-width:0.5;" x1="602.24" x2="801.5339" y1="163.3" y2="163.3"/><rect fill="#FFFFFF" fill-opacity="0.00000" height="6" style="stroke:#C82930;stroke-width:1;" width="6" x="609.24" y="173.9484"/><text fill="#000000" font-family="sans-serif" font-size="14" lengthAdjust="spacing" textLength="90.3711" x="621.24" y="180.2951">Banco banco</text><rect fill="#FFFFFF" fill-opacity="0.00000" height="6" style="stroke:#C82930;stroke-width:1;" width="6" x="609.24" y="190.2453"/><text fill="#000000" font-family="sans-serif" font-size="14" lengthAdjust="spacing" textLength="109.4844" x="621.24" y="196.592">Usuario usuario</text><rect fill="#FFFFFF" fill-opacity="0.00000" height="6" style="stroke:#C82930;stroke-width:1;" width="6" x="609.24" y="206.5422"/><text fill="#000000" font-family="sans-serif" font-size="14" lengthAdjust="spacing" textLength="117.4141" x="621.24" y="212.8889">Scanner scanner</text><line style="stroke:#181818;stroke-width:0.5;" x1="602.24" x2="801.5339" y1="220.1906" y2="220.1906"/><ellipse cx="612.24" cy="233.8391" fill="#84BE84" rx="3" ry="3" style="stroke:#038048;stroke-width:1;"/><text fill="#000000" font-family="sans-serif" font-size="14" lengthAdjust="spacing" textLength="64.6406" x="621.24" y="237.1857">Interfaz()</text><ellipse cx="612.24" cy="250.1359" fill="#84BE84" rx="3" ry="3" style="stroke:#038048;stroke-width:1;"/><text fill="#000000" font-family="sans-serif" font-size="14" lengthAdjust="spacing" textLength="53.498" x="621.24" y="253.4826">iniciar()</text><rect fill="#F24D5C" height="6" style="stroke:#C82930;stroke-width:1;" width="6" x="609.24" y="263.4328"/><text fill="#000000" font-family="sans-serif" font-size="14" lengthAdjust="spacing" textLength="104.4395" x="621.24" y="269.7795">mostrarMenu()</text><rect fill="#F24D5C" height="6" style="stroke:#C82930;stroke-width:1;" width="6" x="609.24" y="279.7297"/><text fill="#000000" font-family="sans-serif" font-size="14" lengthAdjust="spacing" textLength="97.5283" x="621.24" y="286.0764">crearCuenta()</text><rect fill="#F24D5C" height="6" style="stroke:#C82930;stroke-width:1;" width="6" x="609.24" y="296.0266"/><text fill="#000000" font-family="sans-serif" font-size="14" lengthAdjust="spacing" textLength="114.748" x="621.24" y="302.3732">consultarSaldo()</text><rect fill="#F24D5C" height="6" style="stroke:#C82930;stroke-width:1;" width="6" x="609.24" y="312.3234"/><text fill="#000000" font-family="sans-serif" font-size="14" lengthAdjust="spacing" textLength="115.0488" x="621.24" y="318.6701">ingresarDinero()</text><rect fill="#F24D5C" height="6" style="stroke:#C82930;stroke-width:1;" width="6" x="609.24" y="328.6203"/><text fill="#000000" font-family="sans-serif" font-size="14" lengthAdjust="spacing" textLength="95.3066" x="621.24" y="334.967">sacarDinero()</text><rect fill="#F24D5C" height="6" style="stroke:#C82930;stroke-width:1;" width="6" x="609.24" y="344.9172"/><text fill="#000000" font-family="sans-serif" font-size="14" lengthAdjust="spacing" textLength="118.2549" x="621.24" y="351.2639">eliminarCuenta()</text><rect fill="#F24D5C" height="6" style="stroke:#C82930;stroke-width:1;" width="6" x="609.24" y="361.2141"/><text fill="#000000" font-family="sans-serif" font-size="14" lengthAdjust="spacing" textLength="175.2939" x="621.24" y="367.5607">obtenerCuenta(): Cuenta</text></g><!--class Main--><g id="elem_Main"><rect codeLine="53" fill="#F1F1F1" height="64.2969" id="Main" rx="2.5" ry="2.5" style="stroke:#181818;stroke-width:0.5;" width="159.5742" x="622.1" y="7"/><ellipse cx="680.9267" cy="23" fill="#ADD1B2" rx="11" ry="11" style="stroke:#181818;stroke-width:1;"/><path d="M683.8954,28.6406 Q683.3173,28.9375 682.6767,29.0781 Q682.036,29.2344 681.3329,29.2344 Q678.8329,29.2344 677.5048,27.5938 Q676.1923,25.9375 676.1923,22.8125 Q676.1923,19.6875 677.5048,18.0313 Q678.8329,16.375 681.3329,16.375 Q682.036,16.375 682.6767,16.5313 Q683.3329,16.6875 683.8954,16.9844 L683.8954,19.7031 Q683.2704,19.125 682.6767,18.8594 Q682.0829,18.5781 681.4579,18.5781 Q680.1142,18.5781 679.4267,19.6563 Q678.7392,20.7188 678.7392,22.8125 Q678.7392,24.9063 679.4267,25.9844 Q680.1142,27.0469 681.4579,27.0469 Q682.0829,27.0469 682.6767,26.7813 Q683.2704,26.5 683.8954,25.9219 L683.8954,28.6406 Z " fill="#000000"/><text fill="#000000" font-family="sans-serif" font-size="14" lengthAdjust="spacing" textLength="33.4209" x="701.4267" y="27.8467">Main</text><line style="stroke:#181818;stroke-width:0.5;" x1="623.1" x2="780.6742" y1="39" y2="39"/><line style="stroke:#181818;stroke-width:0.5;" x1="623.1" x2="780.6742" y1="47" y2="47"/><ellipse cx="633.1" cy="60.6484" fill="#84BE84" rx="3" ry="3" style="stroke:#038048;stroke-width:1;"/><text fill="#000000" font-family="sans-serif" font-size="14" lengthAdjust="spacing" textLength="133.5742" x="642.1" y="63.9951">main(String[] args)</text></g><!--reverse link Banco to Cajero--><g id="link_Banco_Cajero"><path codeLine="57" d="M406.7755,574.7579 C356.7455,608.4179 308.66,640.77 260.96,672.86 " fill="#FFFFFF" fill-opacity="0.00000" id="Banco-backto-Cajero" style="stroke:#181818;stroke-width:1;"/><polygon fill="#FFFFFF" fill-opacity="0.00000" points="421.71,564.71,403.4262,569.7797,410.1248,579.7361,421.71,564.71" style="stroke:#181818;stroke-width:1;"/></g><!--reverse link Banco to Aplicacion--><g id="link_Banco_Aplicacion"><path codeLine="58" d="M513.596,582.5864 C517.916,619.2564 521.36,648.41 525.23,681.2 " fill="#FFFFFF" fill-opacity="0.00000" id="Banco-backto-Aplicacion" style="stroke:#181818;stroke-width:1;"/><polygon fill="#FFFFFF" fill-opacity="0.00000" points="511.49,564.71,507.6372,583.2884,519.5548,581.8844,511.49,564.71" style="stroke:#181818;stroke-width:1;"/></g><!--reverse link Usuario to Cuenta--><g id="link_Usuario_Cuenta"><path codeLine="59" d="M898.89,599.09 C898.89,618.16 898.89,620.84 898.89,640.31 " fill="#FFFFFF" fill-opacity="0.00000" id="Usuario-backto-Cuenta" style="stroke:#181818;stroke-width:1;"/><polygon fill="#FFFFFF" fill-opacity="0.00000" points="898.89,581.09,892.89,599.09,904.89,599.09,898.89,581.09" style="stroke:#181818;stroke-width:1;"/></g><!--link Interfaz to Banco--><g id="link_Interfaz_Banco"><path codeLine="60" d="M607.43,375.23 C586.79,401.71 569.5992,423.7482 552.1192,446.1682 " fill="#FFFFFF" fill-opacity="0.00000" id="Interfaz-to-Banco" style="stroke:#181818;stroke-width:1;"/><polygon fill="#181818" points="548.43,450.9,557.1183,446.2618,551.5043,446.9568,550.8093,441.3429,548.43,450.9" style="stroke:#181818;stroke-width:1;"/></g><!--link Interfaz to Usuario--><g id="link_Interfaz_Usuario"><path codeLine="61" d="M796.35,375.23 C812.15,395.5 824.4019,411.2073 838.8419,429.7373 " fill="#FFFFFF" fill-opacity="0.00000" id="Interfaz-to-Usuario" style="stroke:#181818;stroke-width:1;"/><polygon fill="#181818" points="842.53,434.47,840.153,424.9123,839.4566,430.5261,833.8428,429.8297,842.53,434.47" style="stroke:#181818;stroke-width:1;"/></g><!--link Main to Interfaz--><g id="link_Main_Interfaz"><path codeLine="62" d="M701.89,71.42 C701.89,87.77 701.89,102.95 701.89,125.02 " fill="#FFFFFF" fill-opacity="0.00000" id="Main-to-Interfaz" style="stroke:#181818;stroke-width:1;"/><polygon fill="#181818" points="701.89,131.02,705.89,122.02,701.89,126.02,697.89,122.02,701.89,131.02" style="stroke:#181818;stroke-width:1;"/></g><!--SRC=[nLGzJyCm4DtpApocAla3gAhKZwKIXQ5YGWmNnqH6ZbsTdO42_nt7PoTfrAemaI5kttszU-SBLs0jMuFcXdrcp3zp5A3a2V3fA12uD3gVaK7g6eK5t4ejqEIRLcW7Z8VZZbMcBPLW7BIJ5LGnnWB_Mm0tshRA0Hv0LPEOMVQTPJmmti2xJ_dlb7i-gwEIF9I-oUct7H9EsOg3GzyBqstZQP6936jPRmMN3IXcktnKWppo2r5z4y5xfoMNe2ApMhZ7aMi-ksUKeJSJPOyFPIyAVLlPwr8-snPGfjaMAqJuU93MBOZLCafbAMVqpaSjcAP4CIKFdbyD63kRY1uyJEc4ftPTEfznfFnSADb8VIrbtyvEEu5lS4hzqAwLtPk0r6zBPvot5yQJOPPEgfXI3RUxcnx6lqLZh4F0lT1jWhY_XObWWiwlNqGdyuleU60HcdGTqNFj1g5w5VOW-yre_E-exyih0wnja8k4MNmLHTpkCJBiLvRq8a-gqujS54lwcfr3CIOBD3eWMNy0]--></g></svg>