<svg xmlns="http://www.w3.org/2000/svg" xmlns:xlink="http://www.w3.org/1999/xlink" contentStyleType="text/css" data-diagram-type="CLASS" height="2194px" preserveAspectRatio="none" style="width:792px;height:2194px;background:#FFFFFF;" version="1.1" viewBox="0 0 792 2194" width="792px" zoomAndPan="magnify"><title>Diagrama de Clases Algoritmos</title><defs/><g><text fill="#000000" font-family="sans-serif" font-size="14" font-weight="bold" lengthAdjust="spacing" textLength="247.3037" x="265.4458" y="22.9951">Diagrama de Clases Algoritmos</text><!--class Main--><g class="entity" data-entity="Main" data-source-line="4" data-uid="ent0002" id="entity_Main"><rect fill="#F1F1F1" height="64.2969" rx="2.5" ry="2.5" style="stroke:#181818;stroke-width:0.5;" width="203.085" x="7" y="1084.2969"/><ellipse cx="87.582" cy="1100.2969" fill="#ADD1B2" rx="11" ry="11" style="stroke:#181818;stroke-width:1;"/><path d="M90.5508,1105.9375 Q89.9727,1106.2344 89.332,1106.375 Q88.6914,1106.5313 87.9883,1106.5313 Q85.4883,1106.5313 84.1602,1104.8906 Q82.8477,1103.2344 82.8477,1100.1094 Q82.8477,1096.9844 84.1602,1095.3281 Q85.4883,1093.6719 87.9883,1093.6719 Q88.6914,1093.6719 89.332,1093.8281 Q89.9883,1093.9844 90.5508,1094.2813 L90.5508,1097 Q89.9258,1096.4219 89.332,1096.1563 Q88.7383,1095.875 88.1133,1095.875 Q86.7695,1095.875 86.082,1096.9531 Q85.3945,1098.0156 85.3945,1100.1094 Q85.3945,1102.2031 86.082,1103.2813 Q86.7695,1104.3438 88.1133,1104.3438 Q88.7383,1104.3438 89.332,1104.0781 Q89.9258,1103.7969 90.5508,1103.2188 L90.5508,1105.9375 Z " fill="#000000"/><text fill="#000000" font-family="sans-serif" font-size="14" lengthAdjust="spacing" textLength="33.4209" x="108.082" y="1105.1436">Main</text><line style="stroke:#181818;stroke-width:0.5;" x1="8" x2="209.085" y1="1116.2969" y2="1116.2969"/><line style="stroke:#181818;stroke-width:0.5;" x1="8" x2="209.085" y1="1124.2969" y2="1124.2969"/><ellipse cx="18" cy="1137.9453" fill="#84BE84" rx="3" ry="3" style="stroke:#038048;stroke-width:1;"/><text fill="#000000" font-family="sans-serif" font-size="14" lengthAdjust="spacing" textLength="177.085" x="27" y="1141.292">main(args: String[]): void</text></g><!--class InterfazV2--><g class="entity" data-entity="InterfazV2" data-source-line="8" data-uid="ent0003" id="entity_InterfazV2"><rect fill="#F1F1F1" height="145.7813" rx="2.5" ry="2.5" style="stroke:#181818;stroke-width:0.5;" width="274.958" x="270.08" y="1043.5569"/><ellipse cx="367.2084" cy="1059.5569" fill="#ADD1B2" rx="11" ry="11" style="stroke:#181818;stroke-width:1;"/><path d="M370.1772,1065.1975 Q369.599,1065.4944 368.9584,1065.635 Q368.3178,1065.7913 367.6147,1065.7913 Q365.1147,1065.7913 363.7865,1064.1506 Q362.474,1062.4944 362.474,1059.3694 Q362.474,1056.2444 363.7865,1054.5881 Q365.1147,1052.9319 367.6147,1052.9319 Q368.3178,1052.9319 368.9584,1053.0881 Q369.6147,1053.2444 370.1772,1053.5413 L370.1772,1056.26 Q369.5522,1055.6819 368.9584,1055.4163 Q368.3647,1055.135 367.7397,1055.135 Q366.3959,1055.135 365.7084,1056.2131 Q365.0209,1057.2756 365.0209,1059.3694 Q365.0209,1061.4631 365.7084,1062.5413 Q366.3959,1063.6038 367.7397,1063.6038 Q368.3647,1063.6038 368.9584,1063.3381 Q369.5522,1063.0569 370.1772,1062.4788 L370.1772,1065.1975 Z " fill="#000000"/><text fill="#000000" font-family="sans-serif" font-size="14" lengthAdjust="spacing" textLength="72.2012" x="387.7084" y="1064.4036">InterfazV2</text><line style="stroke:#181818;stroke-width:0.5;" x1="271.08" x2="544.038" y1="1075.5569" y2="1075.5569"/><rect fill="none" height="6" style="stroke:#C82930;stroke-width:1;" width="6" x="278.08" y="1086.2053"/><text fill="#000000" font-family="sans-serif" font-size="14" lengthAdjust="spacing" textLength="224.8408" x="290.08" y="1092.552">nombres: Map&lt;Integer, String&gt;</text><rect fill="none" height="6" style="stroke:#C82930;stroke-width:1;" width="6" x="278.08" y="1102.5022"/><text fill="#000000" font-family="sans-serif" font-size="14" lengthAdjust="spacing" textLength="248.958" x="290.08" y="1108.8489">acciones: Map&lt;Integer, Runnable&gt;</text><line style="stroke:#181818;stroke-width:0.5;" x1="271.08" x2="544.038" y1="1116.1506" y2="1116.1506"/><ellipse cx="281.08" cy="1129.7991" fill="#84BE84" rx="3" ry="3" style="stroke:#038048;stroke-width:1;"/><text fill="#000000" font-family="sans-serif" font-size="14" lengthAdjust="spacing" textLength="83.125" x="290.08" y="1133.1457">InterfazV2()</text><ellipse cx="281.08" cy="1146.0959" fill="#84BE84" rx="3" ry="3" style="stroke:#038048;stroke-width:1;"/><text fill="#000000" font-family="sans-serif" font-size="14" lengthAdjust="spacing" textLength="143.2334" x="290.08" y="1149.4426">mostrarMenu(): void</text><ellipse cx="281.08" cy="1162.3928" fill="#84BE84" rx="3" ry="3" style="stroke:#038048;stroke-width:1;"/><text fill="#000000" font-family="sans-serif" font-size="14" lengthAdjust="spacing" textLength="139.3643" x="290.08" y="1165.7395">mostrarTodo(): void</text><ellipse cx="281.08" cy="1178.6897" fill="#84BE84" rx="3" ry="3" style="stroke:#038048;stroke-width:1;"/><text fill="#000000" font-family="sans-serif" font-size="14" lengthAdjust="spacing" textLength="171.5205" x="290.08" y="1182.0364">mostrarSeleccion(): void</text></g><!--class ArrayRotado--><g class="entity" data-entity="ArrayRotado" data-source-line="17" data-uid="ent0004" id="entity_ArrayRotado"><rect fill="#F1F1F1" height="64.2969" rx="2.5" ry="2.5" style="stroke:#181818;stroke-width:0.5;" width="130.7949" x="629.72" y="44.2969"/><ellipse cx="649.6827" cy="60.2969" fill="#ADD1B2" rx="11" ry="11" style="stroke:#181818;stroke-width:1;"/><path d="M652.6515,65.9375 Q652.0734,66.2344 651.4327,66.375 Q650.7921,66.5313 650.089,66.5313 Q647.589,66.5313 646.2609,64.8906 Q644.9484,63.2344 644.9484,60.1094 Q644.9484,56.9844 646.2609,55.3281 Q647.589,53.6719 650.089,53.6719 Q650.7921,53.6719 651.4327,53.8281 Q652.089,53.9844 652.6515,54.2813 L652.6515,57 Q652.0265,56.4219 651.4327,56.1563 Q650.839,55.875 650.214,55.875 Q648.8702,55.875 648.1827,56.9531 Q647.4952,58.0156 647.4952,60.1094 Q647.4952,62.2031 648.1827,63.2813 Q648.8702,64.3438 650.214,64.3438 Q650.839,64.3438 651.4327,64.0781 Q652.0265,63.7969 652.6515,63.2188 L652.6515,65.9375 Z " fill="#000000"/><text fill="#000000" font-family="sans-serif" font-size="14" lengthAdjust="spacing" textLength="87.7666" x="664.7856" y="65.1436">ArrayRotado</text><line style="stroke:#181818;stroke-width:0.5;" x1="630.72" x2="759.5149" y1="76.2969" y2="76.2969"/><line style="stroke:#181818;stroke-width:0.5;" x1="630.72" x2="759.5149" y1="84.2969" y2="84.2969"/><ellipse cx="640.72" cy="97.9453" fill="#84BE84" rx="3" ry="3" style="stroke:#038048;stroke-width:1;"/><text fill="#000000" font-family="sans-serif" font-size="14" lengthAdjust="spacing" textLength="104.7949" x="649.72" y="101.292">mostrar(): void</text></g><!--class BusquedaPalabra--><g class="entity" data-entity="BusquedaPalabra" data-source-line="21" data-uid="ent0005" id="entity_BusquedaPalabra"><rect fill="#F1F1F1" height="64.2969" rx="2.5" ry="2.5" style="stroke:#181818;stroke-width:0.5;" width="154.3223" x="617.96" y="143.2969"/><ellipse cx="632.96" cy="159.2969" fill="#ADD1B2" rx="11" ry="11" style="stroke:#181818;stroke-width:1;"/><path d="M635.9288,164.9375 Q635.3506,165.2344 634.71,165.375 Q634.0694,165.5313 633.3663,165.5313 Q630.8663,165.5313 629.5381,163.8906 Q628.2256,162.2344 628.2256,159.1094 Q628.2256,155.9844 629.5381,154.3281 Q630.8663,152.6719 633.3663,152.6719 Q634.0694,152.6719 634.71,152.8281 Q635.3663,152.9844 635.9288,153.2813 L635.9288,156 Q635.3038,155.4219 634.71,155.1563 Q634.1163,154.875 633.4913,154.875 Q632.1475,154.875 631.46,155.9531 Q630.7725,157.0156 630.7725,159.1094 Q630.7725,161.2031 631.46,162.2813 Q632.1475,163.3438 633.4913,163.3438 Q634.1163,163.3438 634.71,163.0781 Q635.3038,162.7969 635.9288,162.2188 L635.9288,164.9375 Z " fill="#000000"/><text fill="#000000" font-family="sans-serif" font-size="14" lengthAdjust="spacing" textLength="122.3223" x="646.96" y="164.1436">BusquedaPalabra</text><line style="stroke:#181818;stroke-width:0.5;" x1="618.96" x2="771.2823" y1="175.2969" y2="175.2969"/><line style="stroke:#181818;stroke-width:0.5;" x1="618.96" x2="771.2823" y1="183.2969" y2="183.2969"/><ellipse cx="628.96" cy="196.9453" fill="#84BE84" rx="3" ry="3" style="stroke:#038048;stroke-width:1;"/><text fill="#000000" font-family="sans-serif" font-size="14" lengthAdjust="spacing" textLength="104.7949" x="637.96" y="200.292">mostrar(): void</text></g><!--class CasiOrdenado--><g class="entity" data-entity="CasiOrdenado" data-source-line="25" data-uid="ent0006" id="entity_CasiOrdenado"><rect fill="#F1F1F1" height="64.2969" rx="2.5" ry="2.5" style="stroke:#181818;stroke-width:0.5;" width="130.7949" x="629.72" y="242.2969"/><ellipse cx="644.7547" cy="258.2969" fill="#ADD1B2" rx="11" ry="11" style="stroke:#181818;stroke-width:1;"/><path d="M647.7235,263.9375 Q647.1453,264.2344 646.5047,264.375 Q645.8641,264.5313 645.161,264.5313 Q642.661,264.5313 641.3328,262.8906 Q640.0203,261.2344 640.0203,258.1094 Q640.0203,254.9844 641.3328,253.3281 Q642.661,251.6719 645.161,251.6719 Q645.8641,251.6719 646.5047,251.8281 Q647.161,251.9844 647.7235,252.2813 L647.7235,255 Q647.0985,254.4219 646.5047,254.1563 Q645.911,253.875 645.286,253.875 Q643.9422,253.875 643.2547,254.9531 Q642.5672,256.0156 642.5672,258.1094 Q642.5672,260.2031 643.2547,261.2813 Q643.9422,262.3438 645.286,262.3438 Q645.911,262.3438 646.5047,262.0781 Q647.0985,261.7969 647.7235,261.2188 L647.7235,263.9375 Z " fill="#000000"/><text fill="#000000" font-family="sans-serif" font-size="14" lengthAdjust="spacing" textLength="98.7178" x="658.7624" y="263.1436">CasiOrdenado</text><line style="stroke:#181818;stroke-width:0.5;" x1="630.72" x2="759.5149" y1="274.2969" y2="274.2969"/><line style="stroke:#181818;stroke-width:0.5;" x1="630.72" x2="759.5149" y1="282.2969" y2="282.2969"/><ellipse cx="640.72" cy="295.9453" fill="#84BE84" rx="3" ry="3" style="stroke:#038048;stroke-width:1;"/><text fill="#000000" font-family="sans-serif" font-size="14" lengthAdjust="spacing" textLength="104.7949" x="649.72" y="299.292">mostrar(): void</text></g><!--class CombinacionArrays--><g class="entity" data-entity="CombinacionArrays" data-source-line="29" data-uid="ent0007" id="entity_CombinacionArrays"><rect fill="#F1F1F1" height="64.2969" rx="2.5" ry="2.5" style="stroke:#181818;stroke-width:0.5;" width="168.4795" x="610.88" y="341.2969"/><ellipse cx="625.88" cy="357.2969" fill="#ADD1B2" rx="11" ry="11" style="stroke:#181818;stroke-width:1;"/><path d="M628.8488,362.9375 Q628.2706,363.2344 627.63,363.375 Q626.9894,363.5313 626.2863,363.5313 Q623.7863,363.5313 622.4581,361.8906 Q621.1456,360.2344 621.1456,357.1094 Q621.1456,353.9844 622.4581,352.3281 Q623.7863,350.6719 626.2863,350.6719 Q626.9894,350.6719 627.63,350.8281 Q628.2863,350.9844 628.8488,351.2813 L628.8488,354 Q628.2238,353.4219 627.63,353.1563 Q627.0363,352.875 626.4113,352.875 Q625.0675,352.875 624.38,353.9531 Q623.6925,355.0156 623.6925,357.1094 Q623.6925,359.2031 624.38,360.2813 Q625.0675,361.3438 626.4113,361.3438 Q627.0363,361.3438 627.63,361.0781 Q628.2238,360.7969 628.8488,360.2188 L628.8488,362.9375 Z " fill="#000000"/><text fill="#000000" font-family="sans-serif" font-size="14" lengthAdjust="spacing" textLength="136.4795" x="639.88" y="362.1436">CombinacionArrays</text><line style="stroke:#181818;stroke-width:0.5;" x1="611.88" x2="778.3595" y1="373.2969" y2="373.2969"/><line style="stroke:#181818;stroke-width:0.5;" x1="611.88" x2="778.3595" y1="381.2969" y2="381.2969"/><ellipse cx="621.88" cy="394.9453" fill="#84BE84" rx="3" ry="3" style="stroke:#038048;stroke-width:1;"/><text fill="#000000" font-family="sans-serif" font-size="14" lengthAdjust="spacing" textLength="104.7949" x="630.88" y="398.292">mostrar(): void</text></g><!--class ContadorInversiones--><g class="entity" data-entity="ContadorInversiones" data-source-line="33" data-uid="ent0008" id="entity_ContadorInversiones"><rect fill="#F1F1F1" height="64.2969" rx="2.5" ry="2.5" style="stroke:#181818;stroke-width:0.5;" width="176.6758" x="606.78" y="440.2969"/><ellipse cx="621.78" cy="456.2969" fill="#ADD1B2" rx="11" ry="11" style="stroke:#181818;stroke-width:1;"/><path d="M624.7488,461.9375 Q624.1706,462.2344 623.53,462.375 Q622.8894,462.5313 622.1863,462.5313 Q619.6863,462.5313 618.3581,460.8906 Q617.0456,459.2344 617.0456,456.1094 Q617.0456,452.9844 618.3581,451.3281 Q619.6863,449.6719 622.1863,449.6719 Q622.8894,449.6719 623.53,449.8281 Q624.1863,449.9844 624.7488,450.2813 L624.7488,453 Q624.1238,452.4219 623.53,452.1563 Q622.9363,451.875 622.3113,451.875 Q620.9675,451.875 620.28,452.9531 Q619.5925,454.0156 619.5925,456.1094 Q619.5925,458.2031 620.28,459.2813 Q620.9675,460.3438 622.3113,460.3438 Q622.9363,460.3438 623.53,460.0781 Q624.1238,459.7969 624.7488,459.2188 L624.7488,461.9375 Z " fill="#000000"/><text fill="#000000" font-family="sans-serif" font-size="14" lengthAdjust="spacing" textLength="144.6758" x="635.78" y="461.1436">ContadorInversiones</text><line style="stroke:#181818;stroke-width:0.5;" x1="607.78" x2="782.4558" y1="472.2969" y2="472.2969"/><line style="stroke:#181818;stroke-width:0.5;" x1="607.78" x2="782.4558" y1="480.2969" y2="480.2969"/><ellipse cx="617.78" cy="493.9453" fill="#84BE84" rx="3" ry="3" style="stroke:#038048;stroke-width:1;"/><text fill="#000000" font-family="sans-serif" font-size="14" lengthAdjust="spacing" textLength="104.7949" x="626.78" y="497.292">mostrar(): void</text></g><!--class ElementoMayoritario--><g class="entity" data-entity="ElementoMayoritario" data-source-line="37" data-uid="ent0009" id="entity_ElementoMayoritario"><rect fill="#F1F1F1" height="64.2969" rx="2.5" ry="2.5" style="stroke:#181818;stroke-width:0.5;" width="177.9609" x="606.14" y="539.2969"/><ellipse cx="621.14" cy="555.2969" fill="#ADD1B2" rx="11" ry="11" style="stroke:#181818;stroke-width:1;"/><path d="M624.1088,560.9375 Q623.5306,561.2344 622.89,561.375 Q622.2494,561.5313 621.5463,561.5313 Q619.0463,561.5313 617.7181,559.8906 Q616.4056,558.2344 616.4056,555.1094 Q616.4056,551.9844 617.7181,550.3281 Q619.0463,548.6719 621.5463,548.6719 Q622.2494,548.6719 622.89,548.8281 Q623.5463,548.9844 624.1088,549.2813 L624.1088,552 Q623.4838,551.4219 622.89,551.1563 Q622.2963,550.875 621.6713,550.875 Q620.3275,550.875 619.64,551.9531 Q618.9525,553.0156 618.9525,555.1094 Q618.9525,557.2031 619.64,558.2813 Q620.3275,559.3438 621.6713,559.3438 Q622.2963,559.3438 622.89,559.0781 Q623.4838,558.7969 624.1088,558.2188 L624.1088,560.9375 Z " fill="#000000"/><text fill="#000000" font-family="sans-serif" font-size="14" lengthAdjust="spacing" textLength="145.9609" x="635.14" y="560.1436">ElementoMayoritario</text><line style="stroke:#181818;stroke-width:0.5;" x1="607.14" x2="783.1009" y1="571.2969" y2="571.2969"/><line style="stroke:#181818;stroke-width:0.5;" x1="607.14" x2="783.1009" y1="579.2969" y2="579.2969"/><ellipse cx="617.14" cy="592.9453" fill="#84BE84" rx="3" ry="3" style="stroke:#038048;stroke-width:1;"/><text fill="#000000" font-family="sans-serif" font-size="14" lengthAdjust="spacing" textLength="104.7949" x="626.14" y="596.292">mostrar(): void</text></g><!--class ElementoUnico--><g class="entity" data-entity="ElementoUnico" data-source-line="41" data-uid="ent0010" id="entity_ElementoUnico"><rect fill="#F1F1F1" height="64.2969" rx="2.5" ry="2.5" style="stroke:#181818;stroke-width:0.5;" width="137.7998" x="626.22" y="638.2969"/><ellipse cx="641.22" cy="654.2969" fill="#ADD1B2" rx="11" ry="11" style="stroke:#181818;stroke-width:1;"/><path d="M644.1888,659.9375 Q643.6106,660.2344 642.97,660.375 Q642.3294,660.5313 641.6263,660.5313 Q639.1263,660.5313 637.7981,658.8906 Q636.4856,657.2344 636.4856,654.1094 Q636.4856,650.9844 637.7981,649.3281 Q639.1263,647.6719 641.6263,647.6719 Q642.3294,647.6719 642.97,647.8281 Q643.6263,647.9844 644.1888,648.2813 L644.1888,651 Q643.5638,650.4219 642.97,650.1563 Q642.3763,649.875 641.7513,649.875 Q640.4075,649.875 639.72,650.9531 Q639.0325,652.0156 639.0325,654.1094 Q639.0325,656.2031 639.72,657.2813 Q640.4075,658.3438 641.7513,658.3438 Q642.3763,658.3438 642.97,658.0781 Q643.5638,657.7969 644.1888,657.2188 L644.1888,659.9375 Z " fill="#000000"/><text fill="#000000" font-family="sans-serif" font-size="14" lengthAdjust="spacing" textLength="105.7998" x="655.22" y="659.1436">ElementoUnico</text><line style="stroke:#181818;stroke-width:0.5;" x1="627.22" x2="763.0198" y1="670.2969" y2="670.2969"/><line style="stroke:#181818;stroke-width:0.5;" x1="627.22" x2="763.0198" y1="678.2969" y2="678.2969"/><ellipse cx="637.22" cy="691.9453" fill="#84BE84" rx="3" ry="3" style="stroke:#038048;stroke-width:1;"/><text fill="#000000" font-family="sans-serif" font-size="14" lengthAdjust="spacing" textLength="104.7949" x="646.22" y="695.292">mostrar(): void</text></g><!--class KElementosCercanos--><g class="entity" data-entity="KElementosCercanos" data-source-line="45" data-uid="ent0011" id="entity_KElementosCercanos"><rect fill="#F1F1F1" height="64.2969" rx="2.5" ry="2.5" style="stroke:#181818;stroke-width:0.5;" width="180.1553" x="605.04" y="737.2969"/><ellipse cx="620.04" cy="753.2969" fill="#ADD1B2" rx="11" ry="11" style="stroke:#181818;stroke-width:1;"/><path d="M623.0088,758.9375 Q622.4306,759.2344 621.79,759.375 Q621.1494,759.5313 620.4463,759.5313 Q617.9463,759.5313 616.6181,757.8906 Q615.3056,756.2344 615.3056,753.1094 Q615.3056,749.9844 616.6181,748.3281 Q617.9463,746.6719 620.4463,746.6719 Q621.1494,746.6719 621.79,746.8281 Q622.4463,746.9844 623.0088,747.2813 L623.0088,750 Q622.3838,749.4219 621.79,749.1563 Q621.1963,748.875 620.5713,748.875 Q619.2275,748.875 618.54,749.9531 Q617.8525,751.0156 617.8525,753.1094 Q617.8525,755.2031 618.54,756.2813 Q619.2275,757.3438 620.5713,757.3438 Q621.1963,757.3438 621.79,757.0781 Q622.3838,756.7969 623.0088,756.2188 L623.0088,758.9375 Z " fill="#000000"/><text fill="#000000" font-family="sans-serif" font-size="14" lengthAdjust="spacing" textLength="148.1553" x="634.04" y="758.1436">KElementosCercanos</text><line style="stroke:#181818;stroke-width:0.5;" x1="606.04" x2="784.1953" y1="769.2969" y2="769.2969"/><line style="stroke:#181818;stroke-width:0.5;" x1="606.04" x2="784.1953" y1="777.2969" y2="777.2969"/><ellipse cx="616.04" cy="790.9453" fill="#84BE84" rx="3" ry="3" style="stroke:#038048;stroke-width:1;"/><text fill="#000000" font-family="sans-serif" font-size="14" lengthAdjust="spacing" textLength="104.7949" x="625.04" y="794.292">mostrar(): void</text></g><!--class MedianaStream--><g class="entity" data-entity="MedianaStream" data-source-line="49" data-uid="ent0012" id="entity_MedianaStream"><rect fill="#F1F1F1" height="64.2969" rx="2.5" ry="2.5" style="stroke:#181818;stroke-width:0.5;" width="142.4619" x="623.89" y="836.2969"/><ellipse cx="638.89" cy="852.2969" fill="#ADD1B2" rx="11" ry="11" style="stroke:#181818;stroke-width:1;"/><path d="M641.8588,857.9375 Q641.2806,858.2344 640.64,858.375 Q639.9994,858.5313 639.2963,858.5313 Q636.7963,858.5313 635.4681,856.8906 Q634.1556,855.2344 634.1556,852.1094 Q634.1556,848.9844 635.4681,847.3281 Q636.7963,845.6719 639.2963,845.6719 Q639.9994,845.6719 640.64,845.8281 Q641.2963,845.9844 641.8588,846.2813 L641.8588,849 Q641.2338,848.4219 640.64,848.1563 Q640.0463,847.875 639.4213,847.875 Q638.0775,847.875 637.39,848.9531 Q636.7025,850.0156 636.7025,852.1094 Q636.7025,854.2031 637.39,855.2813 Q638.0775,856.3438 639.4213,856.3438 Q640.0463,856.3438 640.64,856.0781 Q641.2338,855.7969 641.8588,855.2188 L641.8588,857.9375 Z " fill="#000000"/><text fill="#000000" font-family="sans-serif" font-size="14" lengthAdjust="spacing" textLength="110.4619" x="652.89" y="857.1436">MedianaStream</text><line style="stroke:#181818;stroke-width:0.5;" x1="624.89" x2="765.3519" y1="868.2969" y2="868.2969"/><line style="stroke:#181818;stroke-width:0.5;" x1="624.89" x2="765.3519" y1="876.2969" y2="876.2969"/><ellipse cx="634.89" cy="889.9453" fill="#84BE84" rx="3" ry="3" style="stroke:#038048;stroke-width:1;"/><text fill="#000000" font-family="sans-serif" font-size="14" lengthAdjust="spacing" textLength="104.7949" x="643.89" y="893.292">mostrar(): void</text></g><!--class Monta?a--><g class="entity" data-entity="Monta&#241;a" data-source-line="53" data-uid="ent0013" id="entity_Monta&#241;a"><rect fill="#F1F1F1" height="64.2969" rx="2.5" ry="2.5" style="stroke:#181818;stroke-width:0.5;" width="130.7949" x="629.72" y="935.2969"/><ellipse cx="661.7106" cy="951.2969" fill="#ADD1B2" rx="11" ry="11" style="stroke:#181818;stroke-width:1;"/><path d="M664.6793,956.9375 Q664.1012,957.2344 663.4606,957.375 Q662.82,957.5313 662.1168,957.5313 Q659.6168,957.5313 658.2887,955.8906 Q656.9762,954.2344 656.9762,951.1094 Q656.9762,947.9844 658.2887,946.3281 Q659.6168,944.6719 662.1168,944.6719 Q662.82,944.6719 663.4606,944.8281 Q664.1168,944.9844 664.6793,945.2813 L664.6793,948 Q664.0543,947.4219 663.4606,947.1563 Q662.8668,946.875 662.2418,946.875 Q660.8981,946.875 660.2106,947.9531 Q659.5231,949.0156 659.5231,951.1094 Q659.5231,953.2031 660.2106,954.2813 Q660.8981,955.3438 662.2418,955.3438 Q662.8668,955.3438 663.4606,955.0781 Q664.0543,954.7969 664.6793,954.2188 L664.6793,956.9375 Z " fill="#000000"/><text fill="#000000" font-family="sans-serif" font-size="14" lengthAdjust="spacing" textLength="61.0381" x="679.4863" y="956.1436">Monta&#241;a</text><line style="stroke:#181818;stroke-width:0.5;" x1="630.72" x2="759.5149" y1="967.2969" y2="967.2969"/><line style="stroke:#181818;stroke-width:0.5;" x1="630.72" x2="759.5149" y1="975.2969" y2="975.2969"/><ellipse cx="640.72" cy="988.9453" fill="#84BE84" rx="3" ry="3" style="stroke:#038048;stroke-width:1;"/><text fill="#000000" font-family="sans-serif" font-size="14" lengthAdjust="spacing" textLength="104.7949" x="649.72" y="992.292">mostrar(): void</text></g><!--class NumeroFaltante--><g class="entity" data-entity="NumeroFaltante" data-source-line="57" data-uid="ent0014" id="entity_NumeroFaltante"><rect fill="#F1F1F1" height="64.2969" rx="2.5" ry="2.5" style="stroke:#181818;stroke-width:0.5;" width="145.4834" x="622.38" y="1034.2969"/><ellipse cx="637.38" cy="1050.2969" fill="#ADD1B2" rx="11" ry="11" style="stroke:#181818;stroke-width:1;"/><path d="M640.3488,1055.9375 Q639.7706,1056.2344 639.13,1056.375 Q638.4894,1056.5313 637.7863,1056.5313 Q635.2863,1056.5313 633.9581,1054.8906 Q632.6456,1053.2344 632.6456,1050.1094 Q632.6456,1046.9844 633.9581,1045.3281 Q635.2863,1043.6719 637.7863,1043.6719 Q638.4894,1043.6719 639.13,1043.8281 Q639.7863,1043.9844 640.3488,1044.2813 L640.3488,1047 Q639.7238,1046.4219 639.13,1046.1563 Q638.5363,1045.875 637.9113,1045.875 Q636.5675,1045.875 635.88,1046.9531 Q635.1925,1048.0156 635.1925,1050.1094 Q635.1925,1052.2031 635.88,1053.2813 Q636.5675,1054.3438 637.9113,1054.3438 Q638.5363,1054.3438 639.13,1054.0781 Q639.7238,1053.7969 640.3488,1053.2188 L640.3488,1055.9375 Z " fill="#000000"/><text fill="#000000" font-family="sans-serif" font-size="14" lengthAdjust="spacing" textLength="113.4834" x="651.38" y="1055.1436">NumeroFaltante</text><line style="stroke:#181818;stroke-width:0.5;" x1="623.38" x2="766.8634" y1="1066.2969" y2="1066.2969"/><line style="stroke:#181818;stroke-width:0.5;" x1="623.38" x2="766.8634" y1="1074.2969" y2="1074.2969"/><ellipse cx="633.38" cy="1087.9453" fill="#84BE84" rx="3" ry="3" style="stroke:#038048;stroke-width:1;"/><text fill="#000000" font-family="sans-serif" font-size="14" lengthAdjust="spacing" textLength="104.7949" x="642.38" y="1091.292">mostrar(): void</text></g><!--class ParesDiferencia--><g class="entity" data-entity="ParesDiferencia" data-source-line="61" data-uid="ent0015" id="entity_ParesDiferencia"><rect fill="#F1F1F1" height="64.2969" rx="2.5" ry="2.5" style="stroke:#181818;stroke-width:0.5;" width="142.3047" x="623.97" y="1133.2969"/><ellipse cx="638.97" cy="1149.2969" fill="#ADD1B2" rx="11" ry="11" style="stroke:#181818;stroke-width:1;"/><path d="M641.9388,1154.9375 Q641.3606,1155.2344 640.72,1155.375 Q640.0794,1155.5313 639.3763,1155.5313 Q636.8763,1155.5313 635.5481,1153.8906 Q634.2356,1152.2344 634.2356,1149.1094 Q634.2356,1145.9844 635.5481,1144.3281 Q636.8763,1142.6719 639.3763,1142.6719 Q640.0794,1142.6719 640.72,1142.8281 Q641.3763,1142.9844 641.9388,1143.2813 L641.9388,1146 Q641.3138,1145.4219 640.72,1145.1563 Q640.1263,1144.875 639.5013,1144.875 Q638.1575,1144.875 637.47,1145.9531 Q636.7825,1147.0156 636.7825,1149.1094 Q636.7825,1151.2031 637.47,1152.2813 Q638.1575,1153.3438 639.5013,1153.3438 Q640.1263,1153.3438 640.72,1153.0781 Q641.3138,1152.7969 641.9388,1152.2188 L641.9388,1154.9375 Z " fill="#000000"/><text fill="#000000" font-family="sans-serif" font-size="14" lengthAdjust="spacing" textLength="110.3047" x="652.97" y="1154.1436">ParesDiferencia</text><line style="stroke:#181818;stroke-width:0.5;" x1="624.97" x2="765.2747" y1="1165.2969" y2="1165.2969"/><line style="stroke:#181818;stroke-width:0.5;" x1="624.97" x2="765.2747" y1="1173.2969" y2="1173.2969"/><ellipse cx="634.97" cy="1186.9453" fill="#84BE84" rx="3" ry="3" style="stroke:#038048;stroke-width:1;"/><text fill="#000000" font-family="sans-serif" font-size="14" lengthAdjust="spacing" textLength="104.7949" x="643.97" y="1190.292">mostrar(): void</text></g><!--class Permutaciones--><g class="entity" data-entity="Permutaciones" data-source-line="65" data-uid="ent0016" id="entity_Permutaciones"><rect fill="#F1F1F1" height="64.2969" rx="2.5" ry="2.5" style="stroke:#181818;stroke-width:0.5;" width="136.3232" x="626.96" y="1232.2969"/><ellipse cx="641.96" cy="1248.2969" fill="#ADD1B2" rx="11" ry="11" style="stroke:#181818;stroke-width:1;"/><path d="M644.9288,1253.9375 Q644.3506,1254.2344 643.71,1254.375 Q643.0694,1254.5313 642.3663,1254.5313 Q639.8663,1254.5313 638.5381,1252.8906 Q637.2256,1251.2344 637.2256,1248.1094 Q637.2256,1244.9844 638.5381,1243.3281 Q639.8663,1241.6719 642.3663,1241.6719 Q643.0694,1241.6719 643.71,1241.8281 Q644.3663,1241.9844 644.9288,1242.2813 L644.9288,1245 Q644.3038,1244.4219 643.71,1244.1563 Q643.1163,1243.875 642.4913,1243.875 Q641.1475,1243.875 640.46,1244.9531 Q639.7725,1246.0156 639.7725,1248.1094 Q639.7725,1250.2031 640.46,1251.2813 Q641.1475,1252.3438 642.4913,1252.3438 Q643.1163,1252.3438 643.71,1252.0781 Q644.3038,1251.7969 644.9288,1251.2188 L644.9288,1253.9375 Z " fill="#000000"/><text fill="#000000" font-family="sans-serif" font-size="14" lengthAdjust="spacing" textLength="104.3232" x="655.96" y="1253.1436">Permutaciones</text><line style="stroke:#181818;stroke-width:0.5;" x1="627.96" x2="762.2832" y1="1264.2969" y2="1264.2969"/><line style="stroke:#181818;stroke-width:0.5;" x1="627.96" x2="762.2832" y1="1272.2969" y2="1272.2969"/><ellipse cx="637.96" cy="1285.9453" fill="#84BE84" rx="3" ry="3" style="stroke:#038048;stroke-width:1;"/><text fill="#000000" font-family="sans-serif" font-size="14" lengthAdjust="spacing" textLength="104.7949" x="646.96" y="1289.292">mostrar(): void</text></g><!--class PicoMonta?a--><g class="entity" data-entity="PicoMonta&#241;a" data-source-line="69" data-uid="ent0017" id="entity_PicoMonta&#241;a"><rect fill="#F1F1F1" height="64.2969" rx="2.5" ry="2.5" style="stroke:#181818;stroke-width:0.5;" width="130.7949" x="629.72" y="1331.2969"/><ellipse cx="648.8429" cy="1347.2969" fill="#ADD1B2" rx="11" ry="11" style="stroke:#181818;stroke-width:1;"/><path d="M651.8117,1352.9375 Q651.2336,1353.2344 650.5929,1353.375 Q649.9523,1353.5313 649.2492,1353.5313 Q646.7492,1353.5313 645.4211,1351.8906 Q644.1086,1350.2344 644.1086,1347.1094 Q644.1086,1343.9844 645.4211,1342.3281 Q646.7492,1340.6719 649.2492,1340.6719 Q649.9523,1340.6719 650.5929,1340.8281 Q651.2492,1340.9844 651.8117,1341.2813 L651.8117,1344 Q651.1867,1343.4219 650.5929,1343.1563 Q649.9992,1342.875 649.3742,1342.875 Q648.0304,1342.875 647.3429,1343.9531 Q646.6554,1345.0156 646.6554,1347.1094 Q646.6554,1349.2031 647.3429,1350.2813 Q648.0304,1351.3438 649.3742,1351.3438 Q649.9992,1351.3438 650.5929,1351.0781 Q651.1867,1350.7969 651.8117,1350.2188 L651.8117,1352.9375 Z " fill="#000000"/><text fill="#000000" font-family="sans-serif" font-size="14" lengthAdjust="spacing" textLength="89.6328" x="663.7592" y="1352.1436">PicoMonta&#241;a</text><line style="stroke:#181818;stroke-width:0.5;" x1="630.72" x2="759.5149" y1="1363.2969" y2="1363.2969"/><line style="stroke:#181818;stroke-width:0.5;" x1="630.72" x2="759.5149" y1="1371.2969" y2="1371.2969"/><ellipse cx="640.72" cy="1384.9453" fill="#84BE84" rx="3" ry="3" style="stroke:#038048;stroke-width:1;"/><text fill="#000000" font-family="sans-serif" font-size="14" lengthAdjust="spacing" textLength="104.7949" x="649.72" y="1388.292">mostrar(): void</text></g><!--class ProductoDefectuoso--><g class="entity" data-entity="ProductoDefectuoso" data-source-line="73" data-uid="ent0018" id="entity_ProductoDefectuoso"><rect fill="#F1F1F1" height="64.2969" rx="2.5" ry="2.5" style="stroke:#181818;stroke-width:0.5;" width="173.6953" x="608.27" y="1430.2969"/><ellipse cx="623.27" cy="1446.2969" fill="#ADD1B2" rx="11" ry="11" style="stroke:#181818;stroke-width:1;"/><path d="M626.2388,1451.9375 Q625.6606,1452.2344 625.02,1452.375 Q624.3794,1452.5313 623.6763,1452.5313 Q621.1763,1452.5313 619.8481,1450.8906 Q618.5356,1449.2344 618.5356,1446.1094 Q618.5356,1442.9844 619.8481,1441.3281 Q621.1763,1439.6719 623.6763,1439.6719 Q624.3794,1439.6719 625.02,1439.8281 Q625.6763,1439.9844 626.2388,1440.2813 L626.2388,1443 Q625.6138,1442.4219 625.02,1442.1563 Q624.4263,1441.875 623.8013,1441.875 Q622.4575,1441.875 621.77,1442.9531 Q621.0825,1444.0156 621.0825,1446.1094 Q621.0825,1448.2031 621.77,1449.2813 Q622.4575,1450.3438 623.8013,1450.3438 Q624.4263,1450.3438 625.02,1450.0781 Q625.6138,1449.7969 626.2388,1449.2188 L626.2388,1451.9375 Z " fill="#000000"/><text fill="#000000" font-family="sans-serif" font-size="14" lengthAdjust="spacing" textLength="141.6953" x="637.27" y="1451.1436">ProductoDefectuoso</text><line style="stroke:#181818;stroke-width:0.5;" x1="609.27" x2="780.9653" y1="1462.2969" y2="1462.2969"/><line style="stroke:#181818;stroke-width:0.5;" x1="609.27" x2="780.9653" y1="1470.2969" y2="1470.2969"/><ellipse cx="619.27" cy="1483.9453" fill="#84BE84" rx="3" ry="3" style="stroke:#038048;stroke-width:1;"/><text fill="#000000" font-family="sans-serif" font-size="14" lengthAdjust="spacing" textLength="104.7949" x="628.27" y="1487.292">mostrar(): void</text></g><!--class PuntoEquilibrio--><g class="entity" data-entity="PuntoEquilibrio" data-source-line="77" data-uid="ent0019" id="entity_PuntoEquilibrio"><rect fill="#F1F1F1" height="64.2969" rx="2.5" ry="2.5" style="stroke:#181818;stroke-width:0.5;" width="137.6152" x="626.31" y="1529.2969"/><ellipse cx="641.31" cy="1545.2969" fill="#ADD1B2" rx="11" ry="11" style="stroke:#181818;stroke-width:1;"/><path d="M644.2788,1550.9375 Q643.7006,1551.2344 643.06,1551.375 Q642.4194,1551.5313 641.7163,1551.5313 Q639.2163,1551.5313 637.8881,1549.8906 Q636.5756,1548.2344 636.5756,1545.1094 Q636.5756,1541.9844 637.8881,1540.3281 Q639.2163,1538.6719 641.7163,1538.6719 Q642.4194,1538.6719 643.06,1538.8281 Q643.7163,1538.9844 644.2788,1539.2813 L644.2788,1542 Q643.6538,1541.4219 643.06,1541.1563 Q642.4663,1540.875 641.8413,1540.875 Q640.4975,1540.875 639.81,1541.9531 Q639.1225,1543.0156 639.1225,1545.1094 Q639.1225,1547.2031 639.81,1548.2813 Q640.4975,1549.3438 641.8413,1549.3438 Q642.4663,1549.3438 643.06,1549.0781 Q643.6538,1548.7969 644.2788,1548.2188 L644.2788,1550.9375 Z " fill="#000000"/><text fill="#000000" font-family="sans-serif" font-size="14" lengthAdjust="spacing" textLength="105.6152" x="655.31" y="1550.1436">PuntoEquilibrio</text><line style="stroke:#181818;stroke-width:0.5;" x1="627.31" x2="762.9252" y1="1561.2969" y2="1561.2969"/><line style="stroke:#181818;stroke-width:0.5;" x1="627.31" x2="762.9252" y1="1569.2969" y2="1569.2969"/><ellipse cx="637.31" cy="1582.9453" fill="#84BE84" rx="3" ry="3" style="stroke:#038048;stroke-width:1;"/><text fill="#000000" font-family="sans-serif" font-size="14" lengthAdjust="spacing" textLength="104.7949" x="646.31" y="1586.292">mostrar(): void</text></g><!--class Subconjuntos--><g class="entity" data-entity="Subconjuntos" data-source-line="81" data-uid="ent0020" id="entity_Subconjuntos"><rect fill="#F1F1F1" height="64.2969" rx="2.5" ry="2.5" style="stroke:#181818;stroke-width:0.5;" width="130.7949" x="629.72" y="1628.2969"/><ellipse cx="646.5327" cy="1644.2969" fill="#ADD1B2" rx="11" ry="11" style="stroke:#181818;stroke-width:1;"/><path d="M649.5015,1649.9375 Q648.9234,1650.2344 648.2827,1650.375 Q647.6421,1650.5313 646.939,1650.5313 Q644.439,1650.5313 643.1109,1648.8906 Q641.7984,1647.2344 641.7984,1644.1094 Q641.7984,1640.9844 643.1109,1639.3281 Q644.439,1637.6719 646.939,1637.6719 Q647.6421,1637.6719 648.2827,1637.8281 Q648.939,1637.9844 649.5015,1638.2813 L649.5015,1641 Q648.8765,1640.4219 648.2827,1640.1563 Q647.689,1639.875 647.064,1639.875 Q645.7202,1639.875 645.0327,1640.9531 Q644.3452,1642.0156 644.3452,1644.1094 Q644.3452,1646.2031 645.0327,1647.2813 Q645.7202,1648.3438 647.064,1648.3438 Q647.689,1648.3438 648.2827,1648.0781 Q648.8765,1647.7969 649.5015,1647.2188 L649.5015,1649.9375 Z " fill="#000000"/><text fill="#000000" font-family="sans-serif" font-size="14" lengthAdjust="spacing" textLength="94.7666" x="660.9356" y="1649.1436">Subconjuntos</text><line style="stroke:#181818;stroke-width:0.5;" x1="630.72" x2="759.5149" y1="1660.2969" y2="1660.2969"/><line style="stroke:#181818;stroke-width:0.5;" x1="630.72" x2="759.5149" y1="1668.2969" y2="1668.2969"/><ellipse cx="640.72" cy="1681.9453" fill="#84BE84" rx="3" ry="3" style="stroke:#038048;stroke-width:1;"/><text fill="#000000" font-family="sans-serif" font-size="14" lengthAdjust="spacing" textLength="104.7949" x="649.72" y="1685.292">mostrar(): void</text></g><!--class Subsecuencia--><g class="entity" data-entity="Subsecuencia" data-source-line="85" data-uid="ent0021" id="entity_Subsecuencia"><rect fill="#F1F1F1" height="64.2969" rx="2.5" ry="2.5" style="stroke:#181818;stroke-width:0.5;" width="130.7949" x="629.72" y="1727.2969"/><ellipse cx="645.6283" cy="1743.2969" fill="#ADD1B2" rx="11" ry="11" style="stroke:#181818;stroke-width:1;"/><path d="M648.5971,1748.9375 Q648.019,1749.2344 647.3783,1749.375 Q646.7377,1749.5313 646.0346,1749.5313 Q643.5346,1749.5313 642.2065,1747.8906 Q640.894,1746.2344 640.894,1743.1094 Q640.894,1739.9844 642.2065,1738.3281 Q643.5346,1736.6719 646.0346,1736.6719 Q646.7377,1736.6719 647.3783,1736.8281 Q648.0346,1736.9844 648.5971,1737.2813 L648.5971,1740 Q647.9721,1739.4219 647.3783,1739.1563 Q646.7846,1738.875 646.1596,1738.875 Q644.8158,1738.875 644.1283,1739.9531 Q643.4408,1741.0156 643.4408,1743.1094 Q643.4408,1745.2031 644.1283,1746.2813 Q644.8158,1747.3438 646.1596,1747.3438 Q646.7846,1747.3438 647.3783,1747.0781 Q647.9721,1746.7969 648.5971,1746.2188 L648.5971,1748.9375 Z " fill="#000000"/><text fill="#000000" font-family="sans-serif" font-size="14" lengthAdjust="spacing" textLength="96.7764" x="659.8302" y="1748.1436">Subsecuencia</text><line style="stroke:#181818;stroke-width:0.5;" x1="630.72" x2="759.5149" y1="1759.2969" y2="1759.2969"/><line style="stroke:#181818;stroke-width:0.5;" x1="630.72" x2="759.5149" y1="1767.2969" y2="1767.2969"/><ellipse cx="640.72" cy="1780.9453" fill="#84BE84" rx="3" ry="3" style="stroke:#038048;stroke-width:1;"/><text fill="#000000" font-family="sans-serif" font-size="14" lengthAdjust="spacing" textLength="104.7949" x="649.72" y="1784.292">mostrar(): void</text></g><!--class SumaMaxima--><g class="entity" data-entity="SumaMaxima" data-source-line="89" data-uid="ent0022" id="entity_SumaMaxima"><rect fill="#F1F1F1" height="64.2969" rx="2.5" ry="2.5" style="stroke:#181818;stroke-width:0.5;" width="130.7949" x="629.72" y="1826.2969"/><ellipse cx="646.4158" cy="1842.2969" fill="#ADD1B2" rx="11" ry="11" style="stroke:#181818;stroke-width:1;"/><path d="M649.3846,1847.9375 Q648.8065,1848.2344 648.1658,1848.375 Q647.5252,1848.5313 646.8221,1848.5313 Q644.3221,1848.5313 642.994,1846.8906 Q641.6815,1845.2344 641.6815,1842.1094 Q641.6815,1838.9844 642.994,1837.3281 Q644.3221,1835.6719 646.8221,1835.6719 Q647.5252,1835.6719 648.1658,1835.8281 Q648.8221,1835.9844 649.3846,1836.2813 L649.3846,1839 Q648.7596,1838.4219 648.1658,1838.1563 Q647.5721,1837.875 646.9471,1837.875 Q645.6033,1837.875 644.9158,1838.9531 Q644.2283,1840.0156 644.2283,1842.1094 Q644.2283,1844.2031 644.9158,1845.2813 Q645.6033,1846.3438 646.9471,1846.3438 Q647.5721,1846.3438 648.1658,1846.0781 Q648.7596,1845.7969 649.3846,1845.2188 L649.3846,1847.9375 Z " fill="#000000"/><text fill="#000000" font-family="sans-serif" font-size="14" lengthAdjust="spacing" textLength="95.0264" x="660.7927" y="1847.1436">SumaMaxima</text><line style="stroke:#181818;stroke-width:0.5;" x1="630.72" x2="759.5149" y1="1858.2969" y2="1858.2969"/><line style="stroke:#181818;stroke-width:0.5;" x1="630.72" x2="759.5149" y1="1866.2969" y2="1866.2969"/><ellipse cx="640.72" cy="1879.9453" fill="#84BE84" rx="3" ry="3" style="stroke:#038048;stroke-width:1;"/><text fill="#000000" font-family="sans-serif" font-size="14" lengthAdjust="spacing" textLength="104.7949" x="649.72" y="1883.292">mostrar(): void</text></g><!--class SumaObjetivo--><g class="entity" data-entity="SumaObjetivo" data-source-line="93" data-uid="ent0023" id="entity_SumaObjetivo"><rect fill="#F1F1F1" height="64.2969" rx="2.5" ry="2.5" style="stroke:#181818;stroke-width:0.5;" width="130.7949" x="629.72" y="1925.2969"/><ellipse cx="644.8009" cy="1941.2969" fill="#ADD1B2" rx="11" ry="11" style="stroke:#181818;stroke-width:1;"/><path d="M647.7696,1946.9375 Q647.1915,1947.2344 646.5509,1947.375 Q645.9102,1947.5313 645.2071,1947.5313 Q642.7071,1947.5313 641.379,1945.8906 Q640.0665,1944.2344 640.0665,1941.1094 Q640.0665,1937.9844 641.379,1936.3281 Q642.7071,1934.6719 645.2071,1934.6719 Q645.9102,1934.6719 646.5509,1934.8281 Q647.2071,1934.9844 647.7696,1935.2813 L647.7696,1938 Q647.1446,1937.4219 646.5509,1937.1563 Q645.9571,1936.875 645.3321,1936.875 Q643.9884,1936.875 643.3009,1937.9531 Q642.6134,1939.0156 642.6134,1941.1094 Q642.6134,1943.2031 643.3009,1944.2813 Q643.9884,1945.3438 645.3321,1945.3438 Q645.9571,1945.3438 646.5509,1945.0781 Q647.1446,1944.7969 647.7696,1944.2188 L647.7696,1946.9375 Z " fill="#000000"/><text fill="#000000" font-family="sans-serif" font-size="14" lengthAdjust="spacing" textLength="98.6152" x="658.8188" y="1946.1436">SumaObjetivo</text><line style="stroke:#181818;stroke-width:0.5;" x1="630.72" x2="759.5149" y1="1957.2969" y2="1957.2969"/><line style="stroke:#181818;stroke-width:0.5;" x1="630.72" x2="759.5149" y1="1965.2969" y2="1965.2969"/><ellipse cx="640.72" cy="1978.9453" fill="#84BE84" rx="3" ry="3" style="stroke:#038048;stroke-width:1;"/><text fill="#000000" font-family="sans-serif" font-size="14" lengthAdjust="spacing" textLength="104.7949" x="649.72" y="1982.292">mostrar(): void</text></g><!--class TriangulosPosibles--><g class="entity" data-entity="TriangulosPosibles" data-source-line="97" data-uid="ent0024" id="entity_TriangulosPosibles"><rect fill="#F1F1F1" height="64.2969" rx="2.5" ry="2.5" style="stroke:#181818;stroke-width:0.5;" width="162.0332" x="614.1" y="2024.2969"/><ellipse cx="629.1" cy="2040.2969" fill="#ADD1B2" rx="11" ry="11" style="stroke:#181818;stroke-width:1;"/><path d="M632.0688,2045.9375 Q631.4906,2046.2344 630.85,2046.375 Q630.2094,2046.5313 629.5063,2046.5313 Q627.0063,2046.5313 625.6781,2044.8906 Q624.3656,2043.2344 624.3656,2040.1094 Q624.3656,2036.9844 625.6781,2035.3281 Q627.0063,2033.6719 629.5063,2033.6719 Q630.2094,2033.6719 630.85,2033.8281 Q631.5063,2033.9844 632.0688,2034.2813 L632.0688,2037 Q631.4438,2036.4219 630.85,2036.1563 Q630.2563,2035.875 629.6313,2035.875 Q628.2875,2035.875 627.6,2036.9531 Q626.9125,2038.0156 626.9125,2040.1094 Q626.9125,2042.2031 627.6,2043.2813 Q628.2875,2044.3438 629.6313,2044.3438 Q630.2563,2044.3438 630.85,2044.0781 Q631.4438,2043.7969 632.0688,2043.2188 L632.0688,2045.9375 Z " fill="#000000"/><text fill="#000000" font-family="sans-serif" font-size="14" lengthAdjust="spacing" textLength="130.0332" x="643.1" y="2045.1436">TriangulosPosibles</text><line style="stroke:#181818;stroke-width:0.5;" x1="615.1" x2="775.1332" y1="2056.2969" y2="2056.2969"/><line style="stroke:#181818;stroke-width:0.5;" x1="615.1" x2="775.1332" y1="2064.2969" y2="2064.2969"/><ellipse cx="625.1" cy="2077.9453" fill="#84BE84" rx="3" ry="3" style="stroke:#038048;stroke-width:1;"/><text fill="#000000" font-family="sans-serif" font-size="14" lengthAdjust="spacing" textLength="104.7949" x="634.1" y="2081.292">mostrar(): void</text></g><!--class TripletesSumaCero--><g class="entity" data-entity="TripletesSumaCero" data-source-line="101" data-uid="ent0025" id="entity_TripletesSumaCero"><rect fill="#F1F1F1" height="64.2969" rx="2.5" ry="2.5" style="stroke:#181818;stroke-width:0.5;" width="165.6699" x="612.29" y="2123.2969"/><ellipse cx="627.29" cy="2139.2969" fill="#ADD1B2" rx="11" ry="11" style="stroke:#181818;stroke-width:1;"/><path d="M630.2588,2144.9375 Q629.6806,2145.2344 629.04,2145.375 Q628.3994,2145.5313 627.6963,2145.5313 Q625.1963,2145.5313 623.8681,2143.8906 Q622.5556,2142.2344 622.5556,2139.1094 Q622.5556,2135.9844 623.8681,2134.3281 Q625.1963,2132.6719 627.6963,2132.6719 Q628.3994,2132.6719 629.04,2132.8281 Q629.6963,2132.9844 630.2588,2133.2813 L630.2588,2136 Q629.6338,2135.4219 629.04,2135.1563 Q628.4463,2134.875 627.8213,2134.875 Q626.4775,2134.875 625.79,2135.9531 Q625.1025,2137.0156 625.1025,2139.1094 Q625.1025,2141.2031 625.79,2142.2813 Q626.4775,2143.3438 627.8213,2143.3438 Q628.4463,2143.3438 629.04,2143.0781 Q629.6338,2142.7969 630.2588,2142.2188 L630.2588,2144.9375 Z " fill="#000000"/><text fill="#000000" font-family="sans-serif" font-size="14" lengthAdjust="spacing" textLength="133.6699" x="641.29" y="2144.1436">TripletesSumaCero</text><line style="stroke:#181818;stroke-width:0.5;" x1="613.29" x2="776.9599" y1="2155.2969" y2="2155.2969"/><line style="stroke:#181818;stroke-width:0.5;" x1="613.29" x2="776.9599" y1="2163.2969" y2="2163.2969"/><ellipse cx="623.29" cy="2176.9453" fill="#84BE84" rx="3" ry="3" style="stroke:#038048;stroke-width:1;"/><text fill="#000000" font-family="sans-serif" font-size="14" lengthAdjust="spacing" textLength="104.7949" x="632.29" y="2180.292">mostrar(): void</text></g><!--link Main to InterfazV2--><g class="link" data-entity-1="Main" data-entity-2="InterfazV2" data-source-line="105" data-uid="lnk26" id="link_Main_InterfazV2"><path codeLine="105" d="M210.51,1116.4469 C229.6,1116.4469 243.86,1116.4469 263.84,1116.4469 " fill="none" id="Main-to-InterfazV2" style="stroke:#181818;stroke-width:1;"/><polygon fill="#181818" points="269.84,1116.4469,260.84,1112.4469,264.84,1116.4469,260.84,1120.4469,269.84,1116.4469" style="stroke:#181818;stroke-width:1;"/></g><!--link InterfazV2 to ArrayRotado--><g class="link" data-entity-1="InterfazV2" data-entity-2="ArrayRotado" data-source-line="107" data-uid="lnk27" id="link_InterfazV2_ArrayRotado"><path codeLine="107" d="M415.09,1043.0969 C434.41,839.5969 496.86,273.2669 605.04,125.4469 C611.51,116.6169 615.0694,112.5176 624.3294,106.3376 " fill="none" id="InterfazV2-to-ArrayRotado" style="stroke:#181818;stroke-width:1;"/><polygon fill="#181818" points="629.32,103.0069,619.6136,104.6758,625.1611,105.7824,624.0545,111.33,629.32,103.0069" style="stroke:#181818;stroke-width:1;"/></g><!--link InterfazV2 to BusquedaPalabra--><g class="link" data-entity-1="InterfazV2" data-entity-2="BusquedaPalabra" data-source-line="108" data-uid="lnk28" id="link_InterfazV2_BusquedaPalabra"><path codeLine="108" d="M416.84,1043.3169 C439.43,854.3369 507.08,355.3869 605.04,224.4469 C609.7,218.2269 610.6668,216.4198 616.8868,211.5198 " fill="none" id="InterfazV2-to-BusquedaPalabra" style="stroke:#181818;stroke-width:1;"/><polygon fill="#181818" points="621.6,207.8069,612.0549,210.2342,617.6724,210.901,617.0055,216.5184,621.6,207.8069" style="stroke:#181818;stroke-width:1;"/></g><!--link InterfazV2 to CasiOrdenado--><g class="link" data-entity-1="InterfazV2" data-entity-2="CasiOrdenado" data-source-line="109" data-uid="lnk29" id="link_InterfazV2_CasiOrdenado"><path codeLine="109" d="M407.95,1043.0869 C410.39,892.4869 435.4,544.1269 605.04,323.4469 C611.6,314.9169 615.1111,311.0001 624.2411,304.9001 " fill="none" id="InterfazV2-to-CasiOrdenado" style="stroke:#181818;stroke-width:1;"/><polygon fill="#181818" points="629.23,301.5669,619.5244,303.2408,625.0726,304.3446,623.9688,309.8927,629.23,301.5669" style="stroke:#181818;stroke-width:1;"/></g><!--link InterfazV2 to CombinacionArrays--><g class="link" data-entity-1="InterfazV2" data-entity-2="CombinacionArrays" data-source-line="110" data-uid="lnk30" id="link_InterfazV2_CombinacionArrays"><path codeLine="110" d="M411.2,1043.2969 C419.7,906.9069 455.39,610.6169 605.04,422.4469 C609.99,416.2369 611.1767,414.3222 617.6367,409.4022 " fill="none" id="InterfazV2-to-CombinacionArrays" style="stroke:#181818;stroke-width:1;"/><polygon fill="#181818" points="622.41,405.7669,612.8265,408.0377,618.4323,408.7963,617.6737,414.4021,622.41,405.7669" style="stroke:#181818;stroke-width:1;"/></g><!--link InterfazV2 to ContadorInversiones--><g class="link" data-entity-1="InterfazV2" data-entity-2="ContadorInversiones" data-source-line="111" data-uid="lnk31" id="link_InterfazV2_ContadorInversiones"><path codeLine="111" d="M415.47,1043.1969 C430.35,921.9569 475.37,677.4769 605.04,521.4469 C610.12,515.3369 611.3565,513.4622 617.8765,508.5822 " fill="none" id="InterfazV2-to-ContadorInversiones" style="stroke:#181818;stroke-width:1;"/><polygon fill="#181818" points="622.68,504.9869,613.0778,507.1774,618.6771,507.9829,617.8716,513.5822,622.68,504.9869" style="stroke:#181818;stroke-width:1;"/></g><!--link InterfazV2 to ElementoMayoritario--><g class="link" data-entity-1="InterfazV2" data-entity-2="ElementoMayoritario" data-source-line="112" data-uid="lnk32" id="link_InterfazV2_ElementoMayoritario"><path codeLine="112" d="M421.26,1043.4569 C442.74,938.8369 495.1,745.1669 605.04,620.4469 C610.41,614.3569 611.8745,612.4016 618.6245,607.5016 " fill="none" id="InterfazV2-to-ElementoMayoritario" style="stroke:#181818;stroke-width:1;"/><polygon fill="#181818" points="623.48,603.9769,613.8469,606.027,619.4337,606.9142,618.5465,612.501,623.48,603.9769" style="stroke:#181818;stroke-width:1;"/></g><!--link InterfazV2 to ElementoUnico--><g class="link" data-entity-1="InterfazV2" data-entity-2="ElementoUnico" data-source-line="113" data-uid="lnk33" id="link_InterfazV2_ElementoUnico"><path codeLine="113" d="M429.82,1043.3469 C457.99,957.1069 514.89,813.5969 605.04,719.4469 C611.15,713.0769 613.3056,710.7012 620.8156,705.5712 " fill="none" id="InterfazV2-to-ElementoUnico" style="stroke:#181818;stroke-width:1;"/><polygon fill="#181818" points="625.77,702.1869,616.0821,703.9604,621.6413,705.0071,620.5946,710.5663,625.77,702.1869" style="stroke:#181818;stroke-width:1;"/></g><!--link InterfazV2 to KElementosCercanos--><g class="link" data-entity-1="InterfazV2" data-entity-2="KElementosCercanos" data-source-line="114" data-uid="lnk34" id="link_InterfazV2_KElementosCercanos"><path codeLine="114" d="M443.72,1043.3669 C477.88,978.1769 534.8,883.2869 605.04,818.4469 C611.53,812.4669 613.8615,810.2355 621.4915,805.2355 " fill="none" id="InterfazV2-to-KElementosCercanos" style="stroke:#181818;stroke-width:1;"/><polygon fill="#181818" points="626.51,801.9469,616.7899,803.5342,622.328,804.6874,621.1747,810.2255,626.51,801.9469" style="stroke:#181818;stroke-width:1;"/></g><!--link InterfazV2 to MedianaStream--><g class="link" data-entity-1="InterfazV2" data-entity-2="MedianaStream" data-source-line="115" data-uid="lnk35" id="link_InterfazV2_MedianaStream"><path codeLine="115" d="M471.35,1043.1569 C507.89,1003.1269 556.25,954.3369 605.04,917.4469 C612.65,911.6969 615.8642,909.299 624.3242,904.189 " fill="none" id="InterfazV2-to-MedianaStream" style="stroke:#181818;stroke-width:1;"/><polygon fill="#181818" points="629.46,901.0869,619.6882,902.3162,625.1801,903.672,623.8243,909.164,629.46,901.0869" style="stroke:#181818;stroke-width:1;"/></g><!--link InterfazV2 to Monta?a--><g class="link" data-entity-1="InterfazV2" data-entity-2="Monta&#241;a" data-source-line="116" data-uid="lnk36" id="link_InterfazV2_Monta&#241;a"><path codeLine="116" d="M545.49,1045.0069 C575.69,1029.2469 600.9206,1016.0824 626.4106,1002.7824 " fill="none" id="InterfazV2-to-Monta&#241;a" style="stroke:#181818;stroke-width:1;"/><polygon fill="#181818" points="631.73,1000.0069,621.9005,1000.6239,627.2971,1002.3198,625.6012,1007.7165,631.73,1000.0069" style="stroke:#181818;stroke-width:1;"/></g><!--link InterfazV2 to NumeroFaltante--><g class="link" data-entity-1="InterfazV2" data-entity-2="NumeroFaltante" data-source-line="117" data-uid="lnk37" id="link_InterfazV2_NumeroFaltante"><path codeLine="117" d="M545.49,1092.4769 C571.97,1087.8369 592.8103,1084.1941 616.1703,1080.0941 " fill="none" id="InterfazV2-to-NumeroFaltante" style="stroke:#181818;stroke-width:1;"/><polygon fill="#181818" points="622.08,1079.0569,612.524,1076.6729,617.1553,1079.9212,613.907,1084.5525,622.08,1079.0569" style="stroke:#181818;stroke-width:1;"/></g><!--link InterfazV2 to ParesDiferencia--><g class="link" data-entity-1="InterfazV2" data-entity-2="ParesDiferencia" data-source-line="118" data-uid="lnk38" id="link_InterfazV2_ParesDiferencia"><path codeLine="118" d="M545.49,1139.9469 C572.54,1144.5869 593.9563,1148.2626 617.6863,1152.3326 " fill="none" id="InterfazV2-to-ParesDiferencia" style="stroke:#181818;stroke-width:1;"/><polygon fill="#181818" points="623.6,1153.3469,615.4057,1147.883,618.672,1152.5017,614.0533,1155.7679,623.6,1153.3469" style="stroke:#181818;stroke-width:1;"/></g><!--link InterfazV2 to Permutaciones--><g class="link" data-entity-1="InterfazV2" data-entity-2="Permutaciones" data-source-line="119" data-uid="lnk39" id="link_InterfazV2_Permutaciones"><path codeLine="119" d="M545.49,1187.4169 C575.55,1202.9969 600.6239,1215.9842 626.0339,1229.1642 " fill="none" id="InterfazV2-to-Permutaciones" style="stroke:#181818;stroke-width:1;"/><polygon fill="#181818" points="631.36,1231.9269,625.2125,1224.2322,626.9215,1229.6247,621.529,1231.3337,631.36,1231.9269" style="stroke:#181818;stroke-width:1;"/></g><!--link InterfazV2 to PicoMonta?a--><g class="link" data-entity-1="InterfazV2" data-entity-2="PicoMonta&#241;a" data-source-line="120" data-uid="lnk40" id="link_InterfazV2_PicoMonta&#241;a"><path codeLine="120" d="M471.85,1189.8269 C508.35,1229.5569 556.52,1277.8569 605.04,1314.4469 C612.79,1320.2969 616.1871,1322.7964 624.8071,1327.9764 " fill="none" id="InterfazV2-to-PicoMonta&#241;a" style="stroke:#181818;stroke-width:1;"/><polygon fill="#181818" points="629.95,1331.0669,624.296,1323.0026,625.6643,1328.4915,620.1754,1329.8597,629.95,1331.0669" style="stroke:#181818;stroke-width:1;"/></g><!--link InterfazV2 to ProductoDefectuoso--><g class="link" data-entity-1="InterfazV2" data-entity-2="ProductoDefectuoso" data-source-line="121" data-uid="lnk41" id="link_InterfazV2_ProductoDefectuoso"><path codeLine="121" d="M443.94,1189.5969 C478.15,1254.5569 535.03,1348.9269 605.04,1413.4469 C611.53,1419.4269 613.8596,1421.6613 621.4996,1426.6613 " fill="none" id="InterfazV2-to-ProductoDefectuoso" style="stroke:#181818;stroke-width:1;"/><polygon fill="#181818" points="626.52,1429.9469,621.1798,1421.6715,622.3363,1427.2089,616.7989,1428.3654,626.52,1429.9469" style="stroke:#181818;stroke-width:1;"/></g><!--link InterfazV2 to PuntoEquilibrio--><g class="link" data-entity-1="InterfazV2" data-entity-2="PuntoEquilibrio" data-source-line="122" data-uid="lnk42" id="link_InterfazV2_PuntoEquilibrio"><path codeLine="122" d="M429.99,1189.7469 C458.24,1275.8069 515.16,1418.6769 605.04,1512.4469 C611.27,1518.9469 613.5868,1521.4255 621.2568,1526.6355 " fill="none" id="InterfazV2-to-PuntoEquilibrio" style="stroke:#181818;stroke-width:1;"/><polygon fill="#181818" points="626.22,1530.0069,621.0227,1521.641,622.084,1527.1974,616.5275,1528.2586,626.22,1530.0069" style="stroke:#181818;stroke-width:1;"/></g><!--link InterfazV2 to Subconjuntos--><g class="link" data-entity-1="InterfazV2" data-entity-2="Subconjuntos" data-source-line="123" data-uid="lnk43" id="link_InterfazV2_Subconjuntos"><path codeLine="123" d="M421.39,1189.7369 C442.97,1294.2369 495.4,1487.1669 605.04,1611.4469 C611.93,1619.2569 615.367,1622.7699 624.277,1628.6299 " fill="none" id="InterfazV2-to-Subconjuntos" style="stroke:#181818;stroke-width:1;"/><polygon fill="#181818" points="629.29,1631.9269,623.9685,1623.6394,625.1125,1629.1794,619.5725,1630.3234,629.29,1631.9269" style="stroke:#181818;stroke-width:1;"/></g><!--link InterfazV2 to Subsecuencia--><g class="link" data-entity-1="InterfazV2" data-entity-2="Subsecuencia" data-source-line="124" data-uid="lnk44" id="link_InterfazV2_Subsecuencia"><path codeLine="124" d="M415.51,1189.5769 C430.44,1310.6169 475.52,1554.6869 605.04,1710.4469 C611.81,1718.5869 615.2933,1722.3004 624.3333,1728.2704 " fill="none" id="InterfazV2-to-Subsecuencia" style="stroke:#181818;stroke-width:1;"/><polygon fill="#181818" points="629.34,1731.5769,624.0342,1723.2794,625.1677,1728.8215,619.6256,1729.955,629.34,1731.5769" style="stroke:#181818;stroke-width:1;"/></g><!--link InterfazV2 to SumaMaxima--><g class="link" data-entity-1="InterfazV2" data-entity-2="SumaMaxima" data-source-line="125" data-uid="lnk45" id="link_InterfazV2_SumaMaxima"><path codeLine="125" d="M411.25,1189.7669 C419.82,1326.0769 455.65,1621.6869 605.04,1809.4469 C611.75,1817.8769 615.3085,1821.7525 624.4685,1827.8225 " fill="none" id="InterfazV2-to-SumaMaxima" style="stroke:#181818;stroke-width:1;"/><polygon fill="#181818" points="629.47,1831.1369,624.1773,1822.831,625.3021,1828.3749,619.7582,1829.4997,629.47,1831.1369" style="stroke:#181818;stroke-width:1;"/></g><!--link InterfazV2 to SumaObjetivo--><g class="link" data-entity-1="InterfazV2" data-entity-2="SumaObjetivo" data-source-line="126" data-uid="lnk46" id="link_InterfazV2_SumaObjetivo"><path codeLine="126" d="M407.98,1189.7269 C410.47,1340.1269 435.57,1688.0569 605.04,1908.4469 C611.61,1916.9869 615.1085,1920.9074 624.2385,1926.9974 " fill="none" id="InterfazV2-to-SumaObjetivo" style="stroke:#181818;stroke-width:1;"/><polygon fill="#181818" points="629.23,1930.3269,623.9625,1922.005,625.0704,1927.5523,619.5232,1928.6603,629.23,1930.3269" style="stroke:#181818;stroke-width:1;"/></g><!--link InterfazV2 to TriangulosPosibles--><g class="link" data-entity-1="InterfazV2" data-entity-2="TriangulosPosibles" data-source-line="127" data-uid="lnk47" id="link_InterfazV2_TriangulosPosibles"><path codeLine="127" d="M416.85,1189.4969 C439.47,1378.2769 507.17,1876.6669 605.04,2007.4469 C609.7,2013.6669 610.6603,2015.4923 616.8903,2020.3823 " fill="none" id="InterfazV2-to-TriangulosPosibles" style="stroke:#181818;stroke-width:1;"/><polygon fill="#181818" points="621.61,2024.0869,617.0001,2015.3835,617.6769,2020.9997,612.0607,2021.6765,621.61,2024.0869" style="stroke:#181818;stroke-width:1;"/></g><!--link InterfazV2 to TripletesSumaCero--><g class="link" data-entity-1="InterfazV2" data-entity-2="TripletesSumaCero" data-source-line="128" data-uid="lnk48" id="link_InterfazV2_TripletesSumaCero"><path codeLine="128" d="M415.1,1189.7269 C434.45,1393.0169 496.95,1958.7869 605.04,2106.4469 C609.53,2112.5769 610.3371,2114.2659 616.3671,2119.0959 " fill="none" id="InterfazV2-to-TripletesSumaCero" style="stroke:#181818;stroke-width:1;"/><polygon fill="#181818" points="621.05,2122.8469,616.5263,2114.0984,617.1476,2119.721,611.5249,2120.3423,621.05,2122.8469" style="stroke:#181818;stroke-width:1;"/></g><!--SRC=[ZLJ1ZjCm4BtdAtpi2dhXk4ALbdQHLYXij2rS48U9CmspSkpTiLsn83wAR-37S4h2fdQWxYrzxtd6u_TcHqwXs12q31s81iLQWKKhhbHhc5ndh2WKxfrmHZ2rNvneY54wCheePE1QKG9fyRqGuVT2TE5Z0TpQIx5rJBhzzFdYKXmCDSMFKN2Z7V8UldryDSYMGfkkPWoY4XvUztYB_78uOJLmGCfGDI7TUQsXLhWQEdW-VN4nDcMiO-0IjL-CtPmWEzEOUMIB2ezr5yarhfZXwSuuQCppzV-eKl8RRnyzDb21WfhXl60DbcwvGPrr_3hCZpJqZHxRiZaItRVED_g0R8-JFI-wLjYXTgQ4fzuUm6JoHHyqoGpwkv5lryWIjCdegyI6G4Cm34ANGU_l_kjdnZEyznsoUGlAGV3LUNu5mSORsYEZbfHHe4Bkl0EP-G1L665-znMRnajdDhWFcVN6Peo_yc7qru-U5DLPpxlrjJJwlfVPBBP5wJEdi_KTbF2LkapkRNsFZWuPNUyu6ARrojZAM0hxmsPf7XGwj7sfOCx_bZcknULoDLb8HJ5PVJqqMI4n52sC69wkXmIBbq5AIA8VKsQ2_Y_ACTOnc8OuPfn4DW47YyV_dyOnHgFm9V0qQWau2LQ29J5A6AUXYU5fH6Qmlu58iT7-SyXezXXBhJt3E3NoRm00]--></g></svg>