<svg xmlns="http://www.w3.org/2000/svg" xmlns:xlink="http://www.w3.org/1999/xlink" contentStyleType="text/css" height="554px" preserveAspectRatio="none" style="width:1454px;height:554px;background:#FFFFFF;" version="1.1" viewBox="0 0 1454 554" width="1454px" zoomAndPan="magnify"><defs/><g><!--class GraphicsSystem--><g id="elem_GraphicsSystem"><rect codeLine="9" fill="#F1F1F1" height="178.375" id="GraphicsSystem" rx="2.5" ry="2.5" style="stroke:#181818;stroke-width:0.5;" width="373.4502" x="477.5" y="7"/><ellipse cx="602.96" cy="23" fill="#ADD1B2" rx="11" ry="11" style="stroke:#181818;stroke-width:1;"/><path d="M605.9287,28.6406 Q605.3506,28.9375 604.71,29.0781 Q604.0693,29.2344 603.3662,29.2344 Q600.8662,29.2344 599.5381,27.5938 Q598.2256,25.9375 598.2256,22.8125 Q598.2256,19.6875 599.5381,18.0313 Q600.8662,16.375 603.3662,16.375 Q604.0693,16.375 604.71,16.5313 Q605.3662,16.6875 605.9287,16.9844 L605.9287,19.7031 Q605.3037,19.125 604.71,18.8594 Q604.1162,18.5781 603.4912,18.5781 Q602.1475,18.5781 601.46,19.6563 Q600.7725,20.7188 600.7725,22.8125 Q600.7725,24.9063 601.46,25.9844 Q602.1475,27.0469 603.4912,27.0469 Q604.1162,27.0469 604.71,26.7813 Q605.3037,26.5 605.9287,25.9219 L605.9287,28.6406 Z " fill="#000000"/><text fill="#000000" font-family="sans-serif" font-size="14" lengthAdjust="spacing" textLength="114.0303" x="623.46" y="27.8467">GraphicsSystem</text><line style="stroke:#181818;stroke-width:0.5;" x1="478.5" x2="849.9502" y1="39" y2="39"/><rect fill="none" height="6" style="stroke:#C82930;stroke-width:1;" width="6" x="485.5" y="49.6484"/><text fill="#000000" font-family="sans-serif" font-size="14" lengthAdjust="spacing" textLength="138.749" x="497.5" y="55.9951">DoubleBuffer buffer</text><rect fill="none" height="6" style="stroke:#C82930;stroke-width:1;" width="6" x="485.5" y="65.9453"/><text fill="#000000" font-family="sans-serif" font-size="14" lengthAdjust="spacing" textLength="198.208" x="497.5" y="72.292">ColorManager colorManager</text><rect fill="none" height="6" style="stroke:#C82930;stroke-width:1;" width="6" x="485.5" y="82.2422"/><text fill="#000000" font-family="sans-serif" font-size="14" lengthAdjust="spacing" textLength="230.1113" x="497.5" y="88.5889">PatternManager patternManager</text><rect fill="none" height="6" style="stroke:#C82930;stroke-width:1;" width="6" x="485.5" y="98.5391"/><text fill="#000000" font-family="sans-serif" font-size="14" lengthAdjust="spacing" textLength="82.2842" x="497.5" y="104.8857">Timer timer</text><line style="stroke:#181818;stroke-width:0.5;" x1="478.5" x2="849.9502" y1="112.1875" y2="112.1875"/><ellipse cx="488.5" cy="125.8359" fill="#84BE84" rx="3" ry="3" style="stroke:#038048;stroke-width:1;"/><text fill="#000000" font-family="sans-serif" font-size="14" lengthAdjust="spacing" textLength="347.4502" x="497.5" y="129.1826">GraphicsSystem(int width, int height, int interval)</text><ellipse cx="488.5" cy="142.1328" fill="#84BE84" rx="3" ry="3" style="stroke:#038048;stroke-width:1;"/><text fill="#000000" font-family="sans-serif" font-size="14" lengthAdjust="spacing" textLength="287.9297" x="497.5" y="145.4795">void updatePixel(int x, int y, String color)</text><ellipse cx="488.5" cy="158.4297" fill="#84BE84" rx="3" ry="3" style="stroke:#038048;stroke-width:1;"/><text fill="#000000" font-family="sans-serif" font-size="14" lengthAdjust="spacing" textLength="251.2139" x="497.5" y="161.7764">void startPatternSwitch(int interval)</text><ellipse cx="488.5" cy="174.7266" fill="#84BE84" rx="3" ry="3" style="stroke:#038048;stroke-width:1;"/><text fill="#000000" font-family="sans-serif" font-size="14" lengthAdjust="spacing" textLength="91.499" x="497.5" y="178.0732">void render()</text></g><!--class DoubleBuffer--><g id="elem_DoubleBuffer"><rect codeLine="20" fill="#F1F1F1" height="113.1875" id="DoubleBuffer" rx="2.5" ry="2.5" style="stroke:#181818;stroke-width:0.5;" width="266.7549" x="30.5" y="245"/><ellipse cx="113.4712" cy="261" fill="#ADD1B2" rx="11" ry="11" style="stroke:#181818;stroke-width:1;"/><path d="M116.4399,266.6406 Q115.8618,266.9375 115.2212,267.0781 Q114.5806,267.2344 113.8774,267.2344 Q111.3774,267.2344 110.0493,265.5938 Q108.7368,263.9375 108.7368,260.8125 Q108.7368,257.6875 110.0493,256.0313 Q111.3774,254.375 113.8774,254.375 Q114.5806,254.375 115.2212,254.5313 Q115.8774,254.6875 116.4399,254.9844 L116.4399,257.7031 Q115.8149,257.125 115.2212,256.8594 Q114.6274,256.5781 114.0024,256.5781 Q112.6587,256.5781 111.9712,257.6563 Q111.2837,258.7188 111.2837,260.8125 Q111.2837,262.9063 111.9712,263.9844 Q112.6587,265.0469 114.0024,265.0469 Q114.6274,265.0469 115.2212,264.7813 Q115.8149,264.5 116.4399,263.9219 L116.4399,266.6406 Z " fill="#000000"/><text fill="#000000" font-family="sans-serif" font-size="14" lengthAdjust="spacing" textLength="92.3125" x="133.9712" y="265.8467">DoubleBuffer</text><line style="stroke:#181818;stroke-width:0.5;" x1="31.5" x2="296.2549" y1="277" y2="277"/><rect fill="none" height="6" style="stroke:#C82930;stroke-width:1;" width="6" x="38.5" y="287.6484"/><text fill="#000000" font-family="sans-serif" font-size="14" lengthAdjust="spacing" textLength="160.5898" x="50.5" y="293.9951">Stack&lt;Frame&gt; buffers</text><line style="stroke:#181818;stroke-width:0.5;" x1="31.5" x2="296.2549" y1="301.2969" y2="301.2969"/><ellipse cx="41.5" cy="314.9453" fill="#84BE84" rx="3" ry="3" style="stroke:#038048;stroke-width:1;"/><text fill="#000000" font-family="sans-serif" font-size="14" lengthAdjust="spacing" textLength="240.7549" x="50.5" y="318.292">DoubleBuffer(int width, int height)</text><ellipse cx="41.5" cy="331.2422" fill="#84BE84" rx="3" ry="3" style="stroke:#038048;stroke-width:1;"/><text fill="#000000" font-family="sans-serif" font-size="14" lengthAdjust="spacing" textLength="131.209" x="50.5" y="334.5889">void swapBuffers()</text><ellipse cx="41.5" cy="347.5391" fill="#84BE84" rx="3" ry="3" style="stroke:#038048;stroke-width:1;"/><text fill="#000000" font-family="sans-serif" font-size="14" lengthAdjust="spacing" textLength="178.8418" x="50.5" y="350.8857">Frame getCurrentBuffer()</text></g><!--class ColorManager--><g id="elem_ColorManager"><rect codeLine="35" fill="#F1F1F1" height="80.5938" id="ColorManager" rx="2.5" ry="2.5" style="stroke:#181818;stroke-width:0.5;" width="340.9385" x="332.5" y="261"/><ellipse cx="449.7603" cy="277" fill="#ADD1B2" rx="11" ry="11" style="stroke:#181818;stroke-width:1;"/><path d="M452.729,282.6406 Q452.1509,282.9375 451.5103,283.0781 Q450.8696,283.2344 450.1665,283.2344 Q447.6665,283.2344 446.3384,281.5938 Q445.0259,279.9375 445.0259,276.8125 Q445.0259,273.6875 446.3384,272.0313 Q447.6665,270.375 450.1665,270.375 Q450.8696,270.375 451.5103,270.5313 Q452.1665,270.6875 452.729,270.9844 L452.729,273.7031 Q452.104,273.125 451.5103,272.8594 Q450.9165,272.5781 450.2915,272.5781 Q448.9478,272.5781 448.2603,273.6563 Q447.5728,274.7188 447.5728,276.8125 Q447.5728,278.9063 448.2603,279.9844 Q448.9478,281.0469 450.2915,281.0469 Q450.9165,281.0469 451.5103,280.7813 Q452.104,280.5 452.729,279.9219 L452.729,282.6406 Z " fill="#000000"/><text fill="#000000" font-family="sans-serif" font-size="14" lengthAdjust="spacing" textLength="97.918" x="470.2603" y="281.8467">ColorManager</text><line style="stroke:#181818;stroke-width:0.5;" x1="333.5" x2="672.4385" y1="293" y2="293"/><rect fill="none" height="6" style="stroke:#C82930;stroke-width:1;" width="6" x="340.5" y="303.6484"/><text fill="#000000" font-family="sans-serif" font-size="14" lengthAdjust="spacing" textLength="135.9326" x="352.5" y="309.9951">List&lt;String&gt; colors</text><line style="stroke:#181818;stroke-width:0.5;" x1="333.5" x2="672.4385" y1="317.2969" y2="317.2969"/><ellipse cx="343.5" cy="330.9453" fill="#84BE84" rx="3" ry="3" style="stroke:#038048;stroke-width:1;"/><text fill="#000000" font-family="sans-serif" font-size="14" lengthAdjust="spacing" textLength="314.9385" x="352.5" y="334.292">String mixColors(String color1, String color2)</text></g><!--class PatternManager--><g id="elem_PatternManager"><rect codeLine="40" fill="#F1F1F1" height="96.8906" id="PatternManager" rx="2.5" ry="2.5" style="stroke:#181818;stroke-width:0.5;" width="232.3701" x="709" y="253"/><ellipse cx="764.6309" cy="269" fill="#ADD1B2" rx="11" ry="11" style="stroke:#181818;stroke-width:1;"/><path d="M767.5996,274.6406 Q767.0215,274.9375 766.3809,275.0781 Q765.7402,275.2344 765.0371,275.2344 Q762.5371,275.2344 761.209,273.5938 Q759.8965,271.9375 759.8965,268.8125 Q759.8965,265.6875 761.209,264.0313 Q762.5371,262.375 765.0371,262.375 Q765.7402,262.375 766.3809,262.5313 Q767.0371,262.6875 767.5996,262.9844 L767.5996,265.7031 Q766.9746,265.125 766.3809,264.8594 Q765.7871,264.5781 765.1621,264.5781 Q763.8184,264.5781 763.1309,265.6563 Q762.4434,266.7188 762.4434,268.8125 Q762.4434,270.9063 763.1309,271.9844 Q763.8184,273.0469 765.1621,273.0469 Q765.7871,273.0469 766.3809,272.7813 Q766.9746,272.5 767.5996,271.9219 L767.5996,274.6406 Z " fill="#000000"/><text fill="#000000" font-family="sans-serif" font-size="14" lengthAdjust="spacing" textLength="112.6084" x="785.1309" y="273.8467">PatternManager</text><line style="stroke:#181818;stroke-width:0.5;" x1="710" x2="940.3701" y1="285" y2="285"/><rect fill="none" height="6" style="stroke:#C82930;stroke-width:1;" width="6" x="717" y="295.6484"/><text fill="#000000" font-family="sans-serif" font-size="14" lengthAdjust="spacing" textLength="196.5127" x="729" y="301.9951">Queue&lt;String[][]&gt; patterns</text><line style="stroke:#181818;stroke-width:0.5;" x1="710" x2="940.3701" y1="309.2969" y2="309.2969"/><ellipse cx="720" cy="322.9453" fill="#84BE84" rx="3" ry="3" style="stroke:#038048;stroke-width:1;"/><text fill="#000000" font-family="sans-serif" font-size="14" lengthAdjust="spacing" textLength="140.9365" x="729" y="326.292">void switchPattern()</text><ellipse cx="720" cy="339.2422" fill="#84BE84" rx="3" ry="3" style="stroke:#038048;stroke-width:1;"/><text fill="#000000" font-family="sans-serif" font-size="14" lengthAdjust="spacing" textLength="206.3701" x="729" y="342.5889">String[][] getCurrentPattern()</text></g><!--class Timer--><g id="elem_Timer"><rect codeLine="46" fill="#F1F1F1" height="64.2969" id="Timer" rx="2.5" ry="2.5" style="stroke:#181818;stroke-width:0.5;" width="471.9014" x="976" y="269.5"/><ellipse cx="1187.4766" cy="285.5" fill="#ADD1B2" rx="11" ry="11" style="stroke:#181818;stroke-width:1;"/><path d="M1190.4453,291.1406 Q1189.8672,291.4375 1189.2266,291.5781 Q1188.5859,291.7344 1187.8828,291.7344 Q1185.3828,291.7344 1184.0547,290.0938 Q1182.7422,288.4375 1182.7422,285.3125 Q1182.7422,282.1875 1184.0547,280.5313 Q1185.3828,278.875 1187.8828,278.875 Q1188.5859,278.875 1189.2266,279.0313 Q1189.8828,279.1875 1190.4453,279.4844 L1190.4453,282.2031 Q1189.8203,281.625 1189.2266,281.3594 Q1188.6328,281.0781 1188.0078,281.0781 Q1186.6641,281.0781 1185.9766,282.1563 Q1185.2891,283.2188 1185.2891,285.3125 Q1185.2891,287.4063 1185.9766,288.4844 Q1186.6641,289.5469 1188.0078,289.5469 Q1188.6328,289.5469 1189.2266,289.2813 Q1189.8203,289 1190.4453,288.4219 L1190.4453,291.1406 Z " fill="#000000"/><text fill="#000000" font-family="sans-serif" font-size="14" lengthAdjust="spacing" textLength="40.4482" x="1207.9766" y="290.3467">Timer</text><line style="stroke:#181818;stroke-width:0.5;" x1="977" x2="1446.9014" y1="301.5" y2="301.5"/><line style="stroke:#181818;stroke-width:0.5;" x1="977" x2="1446.9014" y1="309.5" y2="309.5"/><ellipse cx="987" cy="323.1484" fill="#84BE84" rx="3" ry="3" style="stroke:#038048;stroke-width:1;"/><text fill="#000000" font-family="sans-serif" font-size="14" lengthAdjust="spacing" textLength="445.9014" x="996" y="326.4951">void scheduleAtFixedRate(TimerTask task, int delay, int period)</text></g><!--class Frame--><g id="elem_Frame"><rect codeLine="27" fill="#F1F1F1" height="129.4844" id="Frame" rx="2.5" ry="2.5" style="stroke:#181818;stroke-width:0.5;" width="313.9297" x="7" y="418"/><ellipse cx="137.3955" cy="434" fill="#ADD1B2" rx="11" ry="11" style="stroke:#181818;stroke-width:1;"/><path d="M140.3643,439.6406 Q139.7861,439.9375 139.1455,440.0781 Q138.5049,440.2344 137.8018,440.2344 Q135.3018,440.2344 133.9736,438.5938 Q132.6611,436.9375 132.6611,433.8125 Q132.6611,430.6875 133.9736,429.0313 Q135.3018,427.375 137.8018,427.375 Q138.5049,427.375 139.1455,427.5313 Q139.8018,427.6875 140.3643,427.9844 L140.3643,430.7031 Q139.7393,430.125 139.1455,429.8594 Q138.5518,429.5781 137.9268,429.5781 Q136.583,429.5781 135.8955,430.6563 Q135.208,431.7188 135.208,433.8125 Q135.208,435.9063 135.8955,436.9844 Q136.583,438.0469 137.9268,438.0469 Q138.5518,438.0469 139.1455,437.7813 Q139.7393,437.5 140.3643,436.9219 L140.3643,439.6406 Z " fill="#000000"/><text fill="#000000" font-family="sans-serif" font-size="14" lengthAdjust="spacing" textLength="44.6387" x="157.8955" y="438.8467">Frame</text><line style="stroke:#181818;stroke-width:0.5;" x1="8" x2="319.9297" y1="450" y2="450"/><rect fill="none" height="6" style="stroke:#C82930;stroke-width:1;" width="6" x="15" y="460.6484"/><text fill="#000000" font-family="sans-serif" font-size="14" lengthAdjust="spacing" textLength="182.957" x="27" y="466.9951">List&lt;List&lt;String&gt;&gt; pixels</text><line style="stroke:#181818;stroke-width:0.5;" x1="8" x2="319.9297" y1="474.2969" y2="474.2969"/><ellipse cx="18" cy="487.9453" fill="#84BE84" rx="3" ry="3" style="stroke:#038048;stroke-width:1;"/><text fill="#000000" font-family="sans-serif" font-size="14" lengthAdjust="spacing" textLength="193.0811" x="27" y="491.292">Frame(int width, int height)</text><ellipse cx="18" cy="504.2422" fill="#84BE84" rx="3" ry="3" style="stroke:#038048;stroke-width:1;"/><text fill="#000000" font-family="sans-serif" font-size="14" lengthAdjust="spacing" textLength="287.9297" x="27" y="507.5889">void updatePixel(int x, int y, String color)</text><ellipse cx="18" cy="520.5391" fill="#84BE84" rx="3" ry="3" style="stroke:#038048;stroke-width:1;"/><text fill="#000000" font-family="sans-serif" font-size="14" lengthAdjust="spacing" textLength="142.3037" x="27" y="523.8857">void fill(String color)</text><ellipse cx="18" cy="536.8359" fill="#84BE84" rx="3" ry="3" style="stroke:#038048;stroke-width:1;"/><text fill="#000000" font-family="sans-serif" font-size="14" lengthAdjust="spacing" textLength="94.7119" x="27" y="540.1826">void display()</text></g><!--class Queue--><g id="elem_Queue"><rect fill="#F1F1F1" height="48" id="Queue" rx="2.5" ry="2.5" style="stroke:#181818;stroke-width:0.5;" width="77.9922" x="786" y="458.5"/><ellipse cx="801" cy="474.5" fill="#ADD1B2" rx="11" ry="11" style="stroke:#181818;stroke-width:1;"/><path d="M803.9688,480.1406 Q803.3906,480.4375 802.75,480.5781 Q802.1094,480.7344 801.4063,480.7344 Q798.9063,480.7344 797.5781,479.0938 Q796.2656,477.4375 796.2656,474.3125 Q796.2656,471.1875 797.5781,469.5313 Q798.9063,467.875 801.4063,467.875 Q802.1094,467.875 802.75,468.0313 Q803.4063,468.1875 803.9688,468.4844 L803.9688,471.2031 Q803.3438,470.625 802.75,470.3594 Q802.1563,470.0781 801.5313,470.0781 Q800.1875,470.0781 799.5,471.1563 Q798.8125,472.2188 798.8125,474.3125 Q798.8125,476.4063 799.5,477.4844 Q800.1875,478.5469 801.5313,478.5469 Q802.1563,478.5469 802.75,478.2813 Q803.3438,478 803.9688,477.4219 L803.9688,480.1406 Z " fill="#000000"/><text fill="#000000" font-family="sans-serif" font-size="14" lengthAdjust="spacing" textLength="45.9922" x="815" y="479.3467">Queue</text><line style="stroke:#181818;stroke-width:0.5;" x1="787" x2="862.9922" y1="490.5" y2="490.5"/><line style="stroke:#181818;stroke-width:0.5;" x1="787" x2="862.9922" y1="498.5" y2="498.5"/></g><!--link GraphicsSystem to DoubleBuffer--><g id="link_GraphicsSystem_DoubleBuffer"><path codeLine="1" d="M477.46,172.92 C417.8,197.2 358.5274,221.3283 303.3874,243.7683 " fill="none" id="GraphicsSystem-to-DoubleBuffer" style="stroke:#181818;stroke-width:1;"/><polygon fill="#181818" points="297.83,246.03,307.6739,246.3424,302.4612,244.1453,304.6583,238.9326,297.83,246.03" style="stroke:#181818;stroke-width:1;"/></g><!--link GraphicsSystem to ColorManager--><g id="link_GraphicsSystem_ColorManager"><path codeLine="2" d="M594.32,185.07 C573.41,211.5 555.2434,234.4751 538.1334,256.0951 " fill="none" id="GraphicsSystem-to-ColorManager" style="stroke:#181818;stroke-width:1;"/><polygon fill="#181818" points="534.41,260.8,543.1318,256.225,537.5129,256.8793,536.8586,251.2604,534.41,260.8" style="stroke:#181818;stroke-width:1;"/></g><!--link GraphicsSystem to PatternManager--><g id="link_GraphicsSystem_PatternManager"><path codeLine="3" d="M733.68,185.07 C752.12,208.38 767.6188,227.9633 783.6288,248.2133 " fill="none" id="GraphicsSystem-to-PatternManager" style="stroke:#181818;stroke-width:1;"/><polygon fill="#181818" points="787.35,252.92,784.906,243.3792,784.249,248.9978,778.6304,248.3408,787.35,252.92" style="stroke:#181818;stroke-width:1;"/></g><!--link GraphicsSystem to Timer--><g id="link_GraphicsSystem_Timer"><path codeLine="4" d="M850.68,166.32 C944.97,201.34 1049.0453,239.9913 1122.6153,267.3113 " fill="none" id="GraphicsSystem-to-Timer" style="stroke:#181818;stroke-width:1;"/><polygon fill="#181818" points="1128.24,269.4,1121.1954,262.5171,1123.5527,267.6594,1118.4105,270.0167,1128.24,269.4" style="stroke:#181818;stroke-width:1;"/></g><!--link DoubleBuffer to Frame--><g id="link_DoubleBuffer_Frame"><path codeLine="6" d="M164,358.16 C164,377.04 164,392.28 164,411.75 " fill="none" id="DoubleBuffer-to-Frame" style="stroke:#181818;stroke-width:1;"/><polygon fill="#181818" points="164,417.75,168,408.75,164,412.75,160,408.75,164,417.75" style="stroke:#181818;stroke-width:1;"/></g><!--link PatternManager to Queue--><g id="link_PatternManager_Queue"><path codeLine="7" d="M825,350.47 C825,385.26 825,424.82 825,452.03 " fill="none" id="PatternManager-to-Queue" style="stroke:#181818;stroke-width:1;"/><polygon fill="#181818" points="825,458.03,829,449.03,825,453.03,821,449.03,825,458.03" style="stroke:#181818;stroke-width:1;"/></g><!--SRC=[dPFBRi8m44Nt-GelWmgBTeqYjLImQINQi4CiJ3ma5iv3zeI7KF-zZks0JQ6g6YcHvPcvStmzcKdQ53nJwL4Xb6GqIiXhtQu5lBIR3SXezZC-gKKjtsb5yzlnEKK4MVsIiU2b3aH-8xC_bRI4AAmtWOyMMeYYJ52bo9NWAIBw6GNOP6tfRSG79fbFR-DN3PkGt-OOP886lDjvkCA8UOLapnaMGz8j2-1vWNQjNv0xAWQkSbTpHjg6KOGvFu0mjGURUnoI52MlSWiQb2Ya4XrikkUO5V5TUGaL0naFeg_Uji2VthGKQROT6zyJPvfoCdx-xTE5S7lQs6GLzm6ZItB0IIir43en3yfcz3HlNE7OVAm7IKAQpY3bw_s1vH_URhWGyTqeuweHzEYJ1qCL7C2nMvaUtKcN_60ALT3hCGHxyjfSpMRVoFmGhjDojLmb_TIgy4ww8N4IvrkvL7bNSqawjxOZVme4im9OA-0PfzfSzgbTZatQWgejGVsnJZFGRjbb0vBNJCj-0m00]--></g></svg>