<svg xmlns="http://www.w3.org/2000/svg" xmlns:xlink="http://www.w3.org/1999/xlink" contentStyleType="text/css" data-diagram-type="CLASS" height="260px" preserveAspectRatio="none" style="width:2800px;height:260px;background:#FFFFFF;" version="1.1" viewBox="0 0 2800 260" width="2800px" zoomAndPan="magnify"><defs/><g><!--class Demo--><g id="elem_Demo"><rect codeLine="1" fill="#F1F1F1" height="64.2969" id="Demo" rx="2.5" ry="2.5" style="stroke:#181818;stroke-width:0.5;" width="159.5742" x="7" y="132.31"/><ellipse cx="61.7388" cy="148.31" fill="#ADD1B2" rx="11" ry="11" style="stroke:#181818;stroke-width:1;"/><path d="M64.7075,153.9506 Q64.1294,154.2475 63.4888,154.3881 Q62.8481,154.5444 62.145,154.5444 Q59.645,154.5444 58.3169,152.9038 Q57.0044,151.2475 57.0044,148.1225 Q57.0044,144.9975 58.3169,143.3413 Q59.645,141.685 62.145,141.685 Q62.8481,141.685 63.4888,141.8413 Q64.145,141.9975 64.7075,142.2944 L64.7075,145.0131 Q64.0825,144.435 63.4888,144.1694 Q62.895,143.8881 62.27,143.8881 Q60.9263,143.8881 60.2388,144.9663 Q59.5513,146.0288 59.5513,148.1225 Q59.5513,150.2163 60.2388,151.2944 Q60.9263,152.3569 62.27,152.3569 Q62.895,152.3569 63.4888,152.0913 Q64.0825,151.81 64.7075,151.2319 L64.7075,153.9506 Z " fill="#000000"/><text fill="#000000" font-family="sans-serif" font-size="14" lengthAdjust="spacing" textLength="41.5967" x="82.2388" y="153.1567">Demo</text><line style="stroke:#181818;stroke-width:0.5;" x1="8" x2="165.5742" y1="164.31" y2="164.31"/><line style="stroke:#181818;stroke-width:0.5;" x1="8" x2="165.5742" y1="172.31" y2="172.31"/><ellipse cx="18" cy="185.9584" fill="#84BE84" rx="3" ry="3" style="stroke:#038048;stroke-width:1;"/><text fill="#000000" font-family="sans-serif" font-size="14" lengthAdjust="spacing" textLength="133.5742" x="27" y="189.3051">main(String[] args)</text></g><!--class GestorPantalla--><g id="elem_GestorPantalla"><rect codeLine="5" fill="#F1F1F1" height="113.1875" id="GestorPantalla" rx="2.5" ry="2.5" style="stroke:#181818;stroke-width:0.5;" width="420.8779" x="201.35" y="107.87"/><ellipse cx="356.0951" cy="123.87" fill="#ADD1B2" rx="11" ry="11" style="stroke:#181818;stroke-width:1;"/><path d="M359.0639,129.5106 Q358.4857,129.8075 357.8451,129.9481 Q357.2045,130.1044 356.5014,130.1044 Q354.0014,130.1044 352.6732,128.4638 Q351.3607,126.8075 351.3607,123.6825 Q351.3607,120.5575 352.6732,118.9013 Q354.0014,117.245 356.5014,117.245 Q357.2045,117.245 357.8451,117.4013 Q358.5014,117.5575 359.0639,117.8544 L359.0639,120.5731 Q358.4389,119.995 357.8451,119.7294 Q357.2514,119.4481 356.6264,119.4481 Q355.2826,119.4481 354.5951,120.5263 Q353.9076,121.5888 353.9076,123.6825 Q353.9076,125.7763 354.5951,126.8544 Q355.2826,127.9169 356.6264,127.9169 Q357.2514,127.9169 357.8451,127.6513 Q358.4389,127.37 359.0639,126.7919 L359.0639,129.5106 Z " fill="#000000"/><text fill="#000000" font-family="sans-serif" font-size="14" lengthAdjust="spacing" textLength="102.8877" x="376.5951" y="128.7167">GestorPantalla</text><line style="stroke:#181818;stroke-width:0.5;" x1="202.35" x2="621.2279" y1="139.87" y2="139.87"/><rect fill="#FFFFFF" fill-opacity="0.00000" height="6" style="stroke:#C82930;stroke-width:1;" width="6" x="209.35" y="150.5184"/><text fill="#000000" font-family="sans-serif" font-size="14" lengthAdjust="spacing" textLength="289.1328" x="221.35" y="156.8651">pantallaEntrelazada: PantallaEntrelazada</text><line style="stroke:#181818;stroke-width:0.5;" x1="202.35" x2="621.2279" y1="164.1669" y2="164.1669"/><ellipse cx="212.35" cy="177.8153" fill="#84BE84" rx="3" ry="3" style="stroke:#038048;stroke-width:1;"/><text fill="#000000" font-family="sans-serif" font-size="14" lengthAdjust="spacing" textLength="266.2666" x="221.35" y="181.162">GestorPantalla(Resolucion resolucion)</text><ellipse cx="212.35" cy="194.1122" fill="#84BE84" rx="3" ry="3" style="stroke:#038048;stroke-width:1;"/><text fill="#000000" font-family="sans-serif" font-size="14" lengthAdjust="spacing" textLength="394.8779" x="221.35" y="197.4589">establecerPixel(Coordenada coordenada, int color): void</text><ellipse cx="212.35" cy="210.4091" fill="#84BE84" rx="3" ry="3" style="stroke:#038048;stroke-width:1;"/><text fill="#000000" font-family="sans-serif" font-size="14" lengthAdjust="spacing" textLength="121.7891" x="221.35" y="213.7557">renderizar(): void</text></g><!--class PantallaEntrelazada--><g id="elem_PantallaEntrelazada"><rect codeLine="12" fill="#F1F1F1" height="129.4844" id="PantallaEntrelazada" rx="2.5" ry="2.5" style="stroke:#181818;stroke-width:0.5;" width="420.8779" x="657.35" y="99.72"/><ellipse cx="793.6586" cy="115.72" fill="#ADD1B2" rx="11" ry="11" style="stroke:#181818;stroke-width:1;"/><path d="M796.6273,121.3606 Q796.0492,121.6575 795.4086,121.7981 Q794.768,121.9544 794.0648,121.9544 Q791.5648,121.9544 790.2367,120.3138 Q788.9242,118.6575 788.9242,115.5325 Q788.9242,112.4075 790.2367,110.7513 Q791.5648,109.095 794.0648,109.095 Q794.768,109.095 795.4086,109.2513 Q796.0648,109.4075 796.6273,109.7044 L796.6273,112.4231 Q796.0023,111.845 795.4086,111.5794 Q794.8148,111.2981 794.1898,111.2981 Q792.8461,111.2981 792.1586,112.3763 Q791.4711,113.4388 791.4711,115.5325 Q791.4711,117.6263 792.1586,118.7044 Q792.8461,119.7669 794.1898,119.7669 Q794.8148,119.7669 795.4086,119.5013 Q796.0023,119.22 796.6273,118.6419 L796.6273,121.3606 Z " fill="#000000"/><text fill="#000000" font-family="sans-serif" font-size="14" lengthAdjust="spacing" textLength="139.7607" x="814.1586" y="120.5667">PantallaEntrelazada</text><line style="stroke:#181818;stroke-width:0.5;" x1="658.35" x2="1077.2279" y1="131.72" y2="131.72"/><rect fill="#FFFFFF" fill-opacity="0.00000" height="6" style="stroke:#C82930;stroke-width:1;" width="6" x="665.35" y="142.3684"/><text fill="#000000" font-family="sans-serif" font-size="14" lengthAdjust="spacing" textLength="157.1719" x="677.35" y="148.7151">resolucion: Resolucion</text><rect fill="#FFFFFF" fill-opacity="0.00000" height="6" style="stroke:#C82930;stroke-width:1;" width="6" x="665.35" y="158.6653"/><text fill="#000000" font-family="sans-serif" font-size="14" lengthAdjust="spacing" textLength="229.4414" x="677.35" y="165.012">listaFrames: ListaCircularFrames</text><line style="stroke:#181818;stroke-width:0.5;" x1="658.35" x2="1077.2279" y1="172.3138" y2="172.3138"/><ellipse cx="668.35" cy="185.9622" fill="#84BE84" rx="3" ry="3" style="stroke:#038048;stroke-width:1;"/><text fill="#000000" font-family="sans-serif" font-size="14" lengthAdjust="spacing" textLength="303.1396" x="677.35" y="189.3089">PantallaEntrelazada(Resolucion resolucion)</text><ellipse cx="668.35" cy="202.2591" fill="#84BE84" rx="3" ry="3" style="stroke:#038048;stroke-width:1;"/><text fill="#000000" font-family="sans-serif" font-size="14" lengthAdjust="spacing" textLength="121.7891" x="677.35" y="205.6057">renderizar(): void</text><ellipse cx="668.35" cy="218.5559" fill="#84BE84" rx="3" ry="3" style="stroke:#038048;stroke-width:1;"/><text fill="#000000" font-family="sans-serif" font-size="14" lengthAdjust="spacing" textLength="394.8779" x="677.35" y="221.9026">establecerPixel(Coordenada coordenada, int color): void</text></g><!--class ListaCircularFrames--><g id="elem_ListaCircularFrames"><rect codeLine="20" fill="#F1F1F1" height="178.375" id="ListaCircularFrames" rx="2.5" ry="2.5" style="stroke:#181818;stroke-width:0.5;" width="413.9053" x="1384.83" y="75.27"/><ellipse cx="1517.9325" cy="91.27" fill="#ADD1B2" rx="11" ry="11" style="stroke:#181818;stroke-width:1;"/><path d="M1520.9013,96.9106 Q1520.3232,97.2075 1519.6825,97.3481 Q1519.0419,97.5044 1518.3388,97.5044 Q1515.8388,97.5044 1514.5107,95.8638 Q1513.1982,94.2075 1513.1982,91.0825 Q1513.1982,87.9575 1514.5107,86.3013 Q1515.8388,84.645 1518.3388,84.645 Q1519.0419,84.645 1519.6825,84.8013 Q1520.3388,84.9575 1520.9013,85.2544 L1520.9013,87.9731 Q1520.2763,87.395 1519.6825,87.1294 Q1519.0888,86.8481 1518.4638,86.8481 Q1517.12,86.8481 1516.4325,87.9263 Q1515.745,88.9888 1515.745,91.0825 Q1515.745,93.1763 1516.4325,94.2544 Q1517.12,95.3169 1518.4638,95.3169 Q1519.0888,95.3169 1519.6825,95.0513 Q1520.2763,94.77 1520.9013,94.1919 L1520.9013,96.9106 Z " fill="#000000"/><text fill="#000000" font-family="sans-serif" font-size="14" lengthAdjust="spacing" textLength="139.2002" x="1538.4325" y="96.1167">ListaCircularFrames</text><line style="stroke:#181818;stroke-width:0.5;" x1="1385.83" x2="1797.7353" y1="107.27" y2="107.27"/><rect fill="#FFFFFF" fill-opacity="0.00000" height="6" style="stroke:#C82930;stroke-width:1;" width="6" x="1392.83" y="117.9184"/><text fill="#000000" font-family="sans-serif" font-size="14" lengthAdjust="spacing" textLength="113.5381" x="1404.83" y="124.2651">frames: Frame[]</text><rect fill="#FFFFFF" fill-opacity="0.00000" height="6" style="stroke:#C82930;stroke-width:1;" width="6" x="1392.83" y="134.2153"/><text fill="#000000" font-family="sans-serif" font-size="14" lengthAdjust="spacing" textLength="113.374" x="1404.83" y="140.562">indiceActual: int</text><rect fill="#FFFFFF" fill-opacity="0.00000" height="6" style="stroke:#C82930;stroke-width:1;" width="6" x="1392.83" y="150.5122"/><text fill="#000000" font-family="sans-serif" font-size="14" lengthAdjust="spacing" textLength="81.1426" x="1404.83" y="156.8589">tama&#241;o: int</text><line style="stroke:#181818;stroke-width:0.5;" x1="1385.83" x2="1797.7353" y1="164.1606" y2="164.1606"/><ellipse cx="1395.83" cy="177.8091" fill="#84BE84" rx="3" ry="3" style="stroke:#038048;stroke-width:1;"/><text fill="#000000" font-family="sans-serif" font-size="14" lengthAdjust="spacing" textLength="387.9053" x="1404.83" y="181.1557">ListaCircularFrames(int tama&#241;o, Resolucion resolucion)</text><ellipse cx="1395.83" cy="194.1059" fill="#84BE84" rx="3" ry="3" style="stroke:#038048;stroke-width:1;"/><text fill="#000000" font-family="sans-serif" font-size="14" lengthAdjust="spacing" textLength="114.1396" x="1404.83" y="197.4526">siguiente(): void</text><ellipse cx="1395.83" cy="210.4028" fill="#84BE84" rx="3" ry="3" style="stroke:#038048;stroke-width:1;"/><text fill="#000000" font-family="sans-serif" font-size="14" lengthAdjust="spacing" textLength="163.6318" x="1404.83" y="213.7495">obtenerActual(): Frame</text><ellipse cx="1395.83" cy="226.6997" fill="#84BE84" rx="3" ry="3" style="stroke:#038048;stroke-width:1;"/><text fill="#000000" font-family="sans-serif" font-size="14" lengthAdjust="spacing" textLength="190.7568" x="1404.83" y="230.0464">obtenerFrame(int i): Frame</text><ellipse cx="1395.83" cy="242.9966" fill="#84BE84" rx="3" ry="3" style="stroke:#038048;stroke-width:1;"/><text fill="#000000" font-family="sans-serif" font-size="14" lengthAdjust="spacing" textLength="92.0664" x="1404.83" y="246.3432">tama&#241;o(): int</text></g><!--class Resolucion--><g id="elem_Resolucion"><rect codeLine="31" fill="#F1F1F1" height="145.7813" id="Resolucion" rx="2.5" ry="2.5" style="stroke:#181818;stroke-width:0.5;" width="236.3281" x="1113.62" y="91.57"/><ellipse cx="1189.5399" cy="107.57" fill="#ADD1B2" rx="11" ry="11" style="stroke:#181818;stroke-width:1;"/><path d="M1192.5087,113.2106 Q1191.9305,113.5075 1191.2899,113.6481 Q1190.6493,113.8044 1189.9462,113.8044 Q1187.4462,113.8044 1186.118,112.1638 Q1184.8055,110.5075 1184.8055,107.3825 Q1184.8055,104.2575 1186.118,102.6013 Q1187.4462,100.945 1189.9462,100.945 Q1190.6493,100.945 1191.2899,101.1013 Q1191.9462,101.2575 1192.5087,101.5544 L1192.5087,104.2731 Q1191.8837,103.695 1191.2899,103.4294 Q1190.6962,103.1481 1190.0712,103.1481 Q1188.7274,103.1481 1188.0399,104.2263 Q1187.3524,105.2888 1187.3524,107.3825 Q1187.3524,109.4763 1188.0399,110.5544 Q1188.7274,111.6169 1190.0712,111.6169 Q1190.6962,111.6169 1191.2899,111.3513 Q1191.8837,111.07 1192.5087,110.4919 L1192.5087,113.2106 Z " fill="#000000"/><text fill="#000000" font-family="sans-serif" font-size="14" lengthAdjust="spacing" textLength="75.9883" x="1210.0399" y="112.4167">Resolucion</text><line style="stroke:#181818;stroke-width:0.5;" x1="1114.62" x2="1348.9481" y1="123.57" y2="123.57"/><rect fill="#FFFFFF" fill-opacity="0.00000" height="6" style="stroke:#C82930;stroke-width:1;" width="6" x="1121.62" y="134.2184"/><text fill="#000000" font-family="sans-serif" font-size="14" lengthAdjust="spacing" textLength="70.0068" x="1133.62" y="140.5651">ancho: int</text><rect fill="#FFFFFF" fill-opacity="0.00000" height="6" style="stroke:#C82930;stroke-width:1;" width="6" x="1121.62" y="150.5153"/><text fill="#000000" font-family="sans-serif" font-size="14" lengthAdjust="spacing" textLength="53.9424" x="1133.62" y="156.862">alto: int</text><line style="stroke:#181818;stroke-width:0.5;" x1="1114.62" x2="1348.9481" y1="164.1638" y2="164.1638"/><ellipse cx="1124.62" cy="177.8122" fill="#84BE84" rx="3" ry="3" style="stroke:#038048;stroke-width:1;"/><text fill="#000000" font-family="sans-serif" font-size="14" lengthAdjust="spacing" textLength="210.3281" x="1133.62" y="181.1589">Resolucion(int ancho, int alto)</text><ellipse cx="1124.62" cy="194.1091" fill="#84BE84" rx="3" ry="3" style="stroke:#038048;stroke-width:1;"/><text fill="#000000" font-family="sans-serif" font-size="14" lengthAdjust="spacing" textLength="104.918" x="1133.62" y="197.4557">getAncho(): int</text><ellipse cx="1124.62" cy="210.4059" fill="#84BE84" rx="3" ry="3" style="stroke:#038048;stroke-width:1;"/><text fill="#000000" font-family="sans-serif" font-size="14" lengthAdjust="spacing" textLength="88.8535" x="1133.62" y="213.7526">getAlto(): int</text><ellipse cx="1124.62" cy="226.7028" fill="#84BE84" rx="3" ry="3" style="stroke:#038048;stroke-width:1;"/><text fill="#000000" font-family="sans-serif" font-size="14" lengthAdjust="spacing" textLength="143.8418" x="1133.62" y="230.0495">getMitadAncho(): int</text></g><!--class Frame--><g id="elem_Frame"><rect codeLine="40" fill="#F1F1F1" height="113.1875" id="Frame" rx="2.5" ry="2.5" style="stroke:#181818;stroke-width:0.5;" width="420.8779" x="1833.35" y="107.87"/><ellipse cx="2017.2196" cy="123.87" fill="#ADD1B2" rx="11" ry="11" style="stroke:#181818;stroke-width:1;"/><path d="M2020.1884,129.5106 Q2019.6103,129.8075 2018.9696,129.9481 Q2018.329,130.1044 2017.6259,130.1044 Q2015.1259,130.1044 2013.7978,128.4638 Q2012.4853,126.8075 2012.4853,123.6825 Q2012.4853,120.5575 2013.7978,118.9013 Q2015.1259,117.245 2017.6259,117.245 Q2018.329,117.245 2018.9696,117.4013 Q2019.6259,117.5575 2020.1884,117.8544 L2020.1884,120.5731 Q2019.5634,119.995 2018.9696,119.7294 Q2018.3759,119.4481 2017.7509,119.4481 Q2016.4071,119.4481 2015.7196,120.5263 Q2015.0321,121.5888 2015.0321,123.6825 Q2015.0321,125.7763 2015.7196,126.8544 Q2016.4071,127.9169 2017.7509,127.9169 Q2018.3759,127.9169 2018.9696,127.6513 Q2019.5634,127.37 2020.1884,126.7919 L2020.1884,129.5106 Z " fill="#000000"/><text fill="#000000" font-family="sans-serif" font-size="14" lengthAdjust="spacing" textLength="44.6387" x="2037.7196" y="128.7167">Frame</text><line style="stroke:#181818;stroke-width:0.5;" x1="1834.35" x2="2253.2279" y1="139.87" y2="139.87"/><rect fill="#FFFFFF" fill-opacity="0.00000" height="6" style="stroke:#C82930;stroke-width:1;" width="6" x="1841.35" y="150.5184"/><text fill="#000000" font-family="sans-serif" font-size="14" lengthAdjust="spacing" textLength="113.6064" x="1853.35" y="156.8651">pixeles: Pixel[][]</text><line style="stroke:#181818;stroke-width:0.5;" x1="1834.35" x2="2253.2279" y1="164.1669" y2="164.1669"/><ellipse cx="1844.35" cy="177.8153" fill="#84BE84" rx="3" ry="3" style="stroke:#038048;stroke-width:1;"/><text fill="#000000" font-family="sans-serif" font-size="14" lengthAdjust="spacing" textLength="208.0176" x="1853.35" y="181.162">Frame(Resolucion resolucion)</text><ellipse cx="1844.35" cy="194.1122" fill="#84BE84" rx="3" ry="3" style="stroke:#038048;stroke-width:1;"/><text fill="#000000" font-family="sans-serif" font-size="14" lengthAdjust="spacing" textLength="313.6602" x="1853.35" y="197.4589">obtenerPixel(Coordenada coordenada): Pixel</text><ellipse cx="1844.35" cy="210.4091" fill="#84BE84" rx="3" ry="3" style="stroke:#038048;stroke-width:1;"/><text fill="#000000" font-family="sans-serif" font-size="14" lengthAdjust="spacing" textLength="394.8779" x="1853.35" y="213.7557">establecerPixel(Coordenada coordenada, int color): void</text></g><!--class Coordenada--><g id="elem_Coordenada"><rect codeLine="47" fill="#F1F1F1" height="129.4844" id="Coordenada" rx="2.5" ry="2.5" style="stroke:#181818;stroke-width:0.5;" width="257.7109" x="2288.93" y="99.72"/><ellipse cx="2370.9954" cy="115.72" fill="#ADD1B2" rx="11" ry="11" style="stroke:#181818;stroke-width:1;"/><path d="M2373.9642,121.3606 Q2373.3861,121.6575 2372.7454,121.7981 Q2372.1048,121.9544 2371.4017,121.9544 Q2368.9017,121.9544 2367.5736,120.3138 Q2366.2611,118.6575 2366.2611,115.5325 Q2366.2611,112.4075 2367.5736,110.7513 Q2368.9017,109.095 2371.4017,109.095 Q2372.1048,109.095 2372.7454,109.2513 Q2373.4017,109.4075 2373.9642,109.7044 L2373.9642,112.4231 Q2373.3392,111.845 2372.7454,111.5794 Q2372.1517,111.2981 2371.5267,111.2981 Q2370.1829,111.2981 2369.4954,112.3763 Q2368.8079,113.4388 2368.8079,115.5325 Q2368.8079,117.6263 2369.4954,118.7044 Q2370.1829,119.7669 2371.5267,119.7669 Q2372.1517,119.7669 2372.7454,119.5013 Q2373.3392,119.22 2373.9642,118.6419 L2373.9642,121.3606 Z " fill="#000000"/><text fill="#000000" font-family="sans-serif" font-size="14" lengthAdjust="spacing" textLength="85.0801" x="2391.4954" y="120.5667">Coordenada</text><line style="stroke:#181818;stroke-width:0.5;" x1="2289.93" x2="2545.6409" y1="131.72" y2="131.72"/><rect fill="#FFFFFF" fill-opacity="0.00000" height="6" style="stroke:#C82930;stroke-width:1;" width="6" x="2296.93" y="142.3684"/><text fill="#000000" font-family="sans-serif" font-size="14" lengthAdjust="spacing" textLength="35.7041" x="2308.93" y="148.7151">x: int</text><rect fill="#FFFFFF" fill-opacity="0.00000" height="6" style="stroke:#C82930;stroke-width:1;" width="6" x="2296.93" y="158.6653"/><text fill="#000000" font-family="sans-serif" font-size="14" lengthAdjust="spacing" textLength="35.7041" x="2308.93" y="165.012">y: int</text><line style="stroke:#181818;stroke-width:0.5;" x1="2289.93" x2="2545.6409" y1="172.3138" y2="172.3138"/><ellipse cx="2299.93" cy="185.9622" fill="#84BE84" rx="3" ry="3" style="stroke:#038048;stroke-width:1;"/><text fill="#000000" font-family="sans-serif" font-size="14" lengthAdjust="spacing" textLength="231.7109" x="2308.93" y="189.3089">Coordenada(int columna, int fila)</text><ellipse cx="2299.93" cy="202.2591" fill="#84BE84" rx="3" ry="3" style="stroke:#038048;stroke-width:1;"/><text fill="#000000" font-family="sans-serif" font-size="14" lengthAdjust="spacing" textLength="102.7305" x="2308.93" y="205.6057">obtenerX(): int</text><ellipse cx="2299.93" cy="218.5559" fill="#84BE84" rx="3" ry="3" style="stroke:#038048;stroke-width:1;"/><text fill="#000000" font-family="sans-serif" font-size="14" lengthAdjust="spacing" textLength="101.6914" x="2308.93" y="221.9026">obtenerY(): int</text></g><!--class Pixel--><g id="elem_Pixel"><rect codeLine="55" fill="#F1F1F1" height="96.8906" id="Pixel" rx="2.5" ry="2.5" style="stroke:#181818;stroke-width:0.5;" width="212.293" x="2581.64" y="116.02"/><ellipse cx="2666.9764" cy="132.02" fill="#ADD1B2" rx="11" ry="11" style="stroke:#181818;stroke-width:1;"/><path d="M2669.9452,137.6606 Q2669.3671,137.9575 2668.7264,138.0981 Q2668.0858,138.2544 2667.3827,138.2544 Q2664.8827,138.2544 2663.5546,136.6138 Q2662.2421,134.9575 2662.2421,131.8325 Q2662.2421,128.7075 2663.5546,127.0513 Q2664.8827,125.395 2667.3827,125.395 Q2668.0858,125.395 2668.7264,125.5513 Q2669.3827,125.7075 2669.9452,126.0044 L2669.9452,128.7231 Q2669.3202,128.145 2668.7264,127.8794 Q2668.1327,127.5981 2667.5077,127.5981 Q2666.1639,127.5981 2665.4764,128.6763 Q2664.7889,129.7388 2664.7889,131.8325 Q2664.7889,133.9263 2665.4764,135.0044 Q2666.1639,136.0669 2667.5077,136.0669 Q2668.1327,136.0669 2668.7264,135.8013 Q2669.3202,135.52 2669.9452,134.9419 L2669.9452,137.6606 Z " fill="#000000"/><text fill="#000000" font-family="sans-serif" font-size="14" lengthAdjust="spacing" textLength="33.1201" x="2687.4764" y="136.8667">Pixel</text><line style="stroke:#181818;stroke-width:0.5;" x1="2582.64" x2="2792.933" y1="148.02" y2="148.02"/><rect fill="#FFFFFF" fill-opacity="0.00000" height="6" style="stroke:#C82930;stroke-width:1;" width="6" x="2589.64" y="158.6684"/><text fill="#000000" font-family="sans-serif" font-size="14" lengthAdjust="spacing" textLength="61.8926" x="2601.64" y="165.0151">color: int</text><line style="stroke:#181818;stroke-width:0.5;" x1="2582.64" x2="2792.933" y1="172.3169" y2="172.3169"/><ellipse cx="2592.64" cy="185.9653" fill="#84BE84" rx="3" ry="3" style="stroke:#038048;stroke-width:1;"/><text fill="#000000" font-family="sans-serif" font-size="14" lengthAdjust="spacing" textLength="186.293" x="2601.64" y="189.312">establecerColor(int i): void</text><ellipse cx="2592.64" cy="202.2622" fill="#84BE84" rx="3" ry="3" style="stroke:#038048;stroke-width:1;"/><text fill="#000000" font-family="sans-serif" font-size="14" lengthAdjust="spacing" textLength="129.6914" x="2601.64" y="205.6089">obtenerColor(): int</text></g><!--link Demo to GestorPantalla--><g id="link_Demo_GestorPantalla"><path codeLine="61" d="M166.77,164.46 C178.25,164.46 183.74,164.46 195.22,164.46 " fill="#FFFFFF" fill-opacity="0.00000" id="Demo-to-GestorPantalla" style="stroke:#181818;stroke-width:1;"/><polygon fill="#181818" points="201.22,164.46,192.22,160.46,196.22,164.46,192.22,168.46,201.22,164.46" style="stroke:#181818;stroke-width:1;"/></g><!--link GestorPantalla to PantallaEntrelazada--><g id="link_GestorPantalla_PantallaEntrelazada"><path codeLine="62" d="M622.42,164.46 C633.92,164.46 639.42,164.46 650.92,164.46 " fill="#FFFFFF" fill-opacity="0.00000" id="GestorPantalla-to-PantallaEntrelazada" style="stroke:#181818;stroke-width:1;"/><polygon fill="#181818" points="656.92,164.46,647.92,160.46,651.92,164.46,647.92,168.46,656.92,164.46" style="stroke:#181818;stroke-width:1;"/></g><!--link PantallaEntrelazada to ListaCircularFrames--><g id="link_PantallaEntrelazada_ListaCircularFrames"><path codeLine="63" d="M975.08,99.35 C1016.7,77.64 1065.73,56.21 1113.29,45.27 C1215.94,21.67 1247.71,21.34 1350.29,45.27 C1378.97,51.97 1402.6683,60.173 1430.3883,72.373 " fill="#FFFFFF" fill-opacity="0.00000" id="PantallaEntrelazada-to-ListaCircularFrames" style="stroke:#181818;stroke-width:1;"/><polygon fill="#181818" points="1435.88,74.79,1429.2538,67.5035,1431.3036,72.7759,1426.0312,74.8257,1435.88,74.79" style="stroke:#181818;stroke-width:1;"/></g><!--link PantallaEntrelazada to Resolucion--><g id="link_PantallaEntrelazada_Resolucion"><path codeLine="64" d="M1078.58,164.46 C1090.15,164.46 1095.72,164.46 1107.29,164.46 " fill="#FFFFFF" fill-opacity="0.00000" id="PantallaEntrelazada-to-Resolucion" style="stroke:#181818;stroke-width:1;"/><polygon fill="#181818" points="1113.29,164.46,1104.29,160.46,1108.29,164.46,1104.29,168.46,1113.29,164.46" style="stroke:#181818;stroke-width:1;"/></g><!--link ListaCircularFrames to Frame--><g id="link_ListaCircularFrames_Frame"><path codeLine="65" d="M1798.81,164.46 C1810.29,164.46 1815.77,164.46 1827.26,164.46 " fill="#FFFFFF" fill-opacity="0.00000" id="ListaCircularFrames-to-Frame" style="stroke:#181818;stroke-width:1;"/><polygon fill="#181818" points="1833.26,164.46,1824.26,160.46,1828.26,164.46,1824.26,168.46,1833.26,164.46" style="stroke:#181818;stroke-width:1;"/></g><!--link Frame to Pixel--><g id="link_Frame_Pixel"><path codeLine="66" d="M2135.98,107.4 C2180.54,83.11 2235.84,57.56 2289.29,45.27 C2400.61,19.68 2438.99,6.11 2546.29,45.27 C2585.06,59.43 2616.3673,85.108 2642.1073,111.458 " fill="#FFFFFF" fill-opacity="0.00000" id="Frame-to-Pixel" style="stroke:#181818;stroke-width:1;"/><polygon fill="#181818" points="2646.3,115.75,2642.8723,106.5168,2642.8061,112.1733,2637.1496,112.1071,2646.3,115.75" style="stroke:#181818;stroke-width:1;"/></g><!--link PantallaEntrelazada to Coordenada--><g id="link_PantallaEntrelazada_Coordenada"><path codeLine="67" d="M975.08,99.35 C1016.7,77.64 1065.73,56.21 1113.29,45.27 C1236.84,16.87 2133.75,6 2254.29,45.27 C2288.52,56.43 2316.8415,74.0411 2344.1515,95.6111 " fill="#FFFFFF" fill-opacity="0.00000" id="PantallaEntrelazada-to-Coordenada" style="stroke:#181818;stroke-width:1;"/><polygon fill="#181818" points="2348.86,99.33,2344.2765,90.6127,2344.9362,96.2309,2339.318,96.8907,2348.86,99.33" style="stroke:#181818;stroke-width:1;"/></g><!--link Frame to Coordenada--><g id="link_Frame_Coordenada"><path codeLine="68" d="M2254.53,164.46 C2265.9,164.46 2271.27,164.46 2282.65,164.46 " fill="#FFFFFF" fill-opacity="0.00000" id="Frame-to-Coordenada" style="stroke:#181818;stroke-width:1;"/><polygon fill="#181818" points="2288.65,164.46,2279.65,160.46,2283.65,164.46,2279.65,168.46,2288.65,164.46" style="stroke:#181818;stroke-width:1;"/></g><!--link GestorPantalla to Coordenada--><g id="link_GestorPantalla_Coordenada"><path codeLine="69" d="M503.98,107.4 C548.54,83.11 603.84,57.56 657.29,45.27 C743.75,25.4 2169.93,17.79 2254.29,45.27 C2288.52,56.43 2316.8415,74.0411 2344.1515,95.6111 " fill="#FFFFFF" fill-opacity="0.00000" id="GestorPantalla-to-Coordenada" style="stroke:#181818;stroke-width:1;"/><polygon fill="#181818" points="2348.86,99.33,2344.2765,90.6127,2344.9362,96.2309,2339.318,96.8907,2348.86,99.33" style="stroke:#181818;stroke-width:1;"/></g><!--SRC=[hLHBJiCm4Dtd55wcAbmW2oHKFXkGAjY0gYu6PoYM71iv3k8Z3iKPk1YsCx6Jr7G3MILltioyDtQ6IsXRTeQDPXy5Sy-o0Q7AMsk4scss3CokNHIVHS43yH9RgyqQb0KfWLAEsJC1vyeQbF0EDLHilG_s7MPLoXjijUouq8gP-BeWhgF2WqIEPYrUKPOhhKsDoXLZFBuUCQ6i-vRQB2hseaLDsGPLZKQyWoc7GFIIqHSD9HqLI_8eA8NJT66WmRPYL_vZ9Gpl99WUfDwP-eUjPiJ-RGRHQaPajFf8HWAysH8gL2quddBRWQnyPS8jDF3zfHEqp1KllHIY7h63fbknwmGgYpFF-i6YGjChyB5GUHeCKEWbPWJgxVEyq3Y8aPJ1FoZ-fCSMGTg9lvGJMWL-FspF77piq9xwoD0oeOwq1ruB2_M47oK66-dFyWVkZoUS_6PB1xJiQOVl4qtfm9rPKDt_kcUZXC70wtYqR-Cn97995Rj6KVb78M5cusuwH4Blz-ONfCVsGUSuBtbS-L2yFVjNhu-dyc597f_CjbSnMucEa5jykMNZgBdjyGjrj8PolxDZz3z0Vt-yZ72olrHBmqy98sngQXBx0G00]--></g></svg>