<svg xmlns="http://www.w3.org/2000/svg" xmlns:xlink="http://www.w3.org/1999/xlink" contentStyleType="text/css" data-diagram-type="CLASS" height="1317px" preserveAspectRatio="none" style="width:261px;height:1317px;background:#FFFFFF;" version="1.1" viewBox="0 0 261 1317" width="261px" zoomAndPan="magnify"><defs/><g><!--class Pantalla--><g id="elem_Pantalla"><rect codeLine="1" fill="#F1F1F1" height="96.8906" id="Pantalla" rx="2.5" ry="2.5" style="stroke:#181818;stroke-width:0.5;" width="139.5381" x="60.91" y="7"/><ellipse cx="98.9576" cy="23" fill="#ADD1B2" rx="11" ry="11" style="stroke:#181818;stroke-width:1;"/><path d="M101.9263,28.6406 Q101.3482,28.9375 100.7076,29.0781 Q100.0669,29.2344 99.3638,29.2344 Q96.8638,29.2344 95.5357,27.5938 Q94.2232,25.9375 94.2232,22.8125 Q94.2232,19.6875 95.5357,18.0313 Q96.8638,16.375 99.3638,16.375 Q100.0669,16.375 100.7076,16.5313 Q101.3638,16.6875 101.9263,16.9844 L101.9263,19.7031 Q101.3013,19.125 100.7076,18.8594 Q100.1138,18.5781 99.4888,18.5781 Q98.1451,18.5781 97.4576,19.6563 Q96.7701,20.7188 96.7701,22.8125 Q96.7701,24.9063 97.4576,25.9844 Q98.1451,27.0469 99.4888,27.0469 Q100.1138,27.0469 100.7076,26.7813 Q101.3013,26.5 101.9263,25.9219 L101.9263,28.6406 Z " fill="#000000"/><text fill="#000000" font-family="sans-serif" font-size="14" lengthAdjust="spacing" textLength="56.3213" x="118.0792" y="27.8467">Pantalla</text><line style="stroke:#181818;stroke-width:0.5;" x1="61.91" x2="199.4481" y1="39" y2="39"/><rect fill="#FFFFFF" fill-opacity="0.00000" height="6" style="stroke:#C82930;stroke-width:1;" width="6" x="68.91" y="49.6484"/><text fill="#000000" font-family="sans-serif" font-size="14" lengthAdjust="spacing" textLength="113.5381" x="80.91" y="55.9951">frames: Frame[]</text><rect fill="#FFFFFF" fill-opacity="0.00000" height="6" style="stroke:#C82930;stroke-width:1;" width="6" x="68.91" y="65.9453"/><text fill="#000000" font-family="sans-serif" font-size="14" lengthAdjust="spacing" textLength="107.7617" x="80.91" y="72.292">grafica: Grafica</text><line style="stroke:#181818;stroke-width:0.5;" x1="61.91" x2="199.4481" y1="79.5938" y2="79.5938"/><ellipse cx="71.91" cy="93.2422" fill="#84BE84" rx="3" ry="3" style="stroke:#038048;stroke-width:1;"/><text fill="#000000" font-family="sans-serif" font-size="14" lengthAdjust="spacing" textLength="104.7949" x="80.91" y="96.5889">mostrar(): void</text></g><!--class Grafica--><g id="elem_Grafica"><rect codeLine="7" fill="#F1F1F1" height="145.7813" id="Grafica" rx="2.5" ry="2.5" style="stroke:#181818;stroke-width:0.5;" width="241.1201" x="10.12" y="180.89"/><ellipse cx="101.2909" cy="196.89" fill="#ADD1B2" rx="11" ry="11" style="stroke:#181818;stroke-width:1;"/><path d="M104.2596,202.5306 Q103.6815,202.8275 103.0409,202.9681 Q102.4003,203.1244 101.6971,203.1244 Q99.1971,203.1244 97.869,201.4838 Q96.5565,199.8275 96.5565,196.7025 Q96.5565,193.5775 97.869,191.9213 Q99.1971,190.265 101.6971,190.265 Q102.4003,190.265 103.0409,190.4213 Q103.6971,190.5775 104.2596,190.8744 L104.2596,193.5931 Q103.6346,193.015 103.0409,192.7494 Q102.4471,192.4681 101.8221,192.4681 Q100.4784,192.4681 99.7909,193.5463 Q99.1034,194.6088 99.1034,196.7025 Q99.1034,198.7963 99.7909,199.8744 Q100.4784,200.9369 101.8221,200.9369 Q102.4471,200.9369 103.0409,200.6713 Q103.6346,200.39 104.2596,199.8119 L104.2596,202.5306 Z " fill="#000000"/><text fill="#000000" font-family="sans-serif" font-size="14" lengthAdjust="spacing" textLength="50.2783" x="121.7909" y="201.7367">Grafica</text><line style="stroke:#181818;stroke-width:0.5;" x1="11.12" x2="250.2401" y1="212.89" y2="212.89"/><rect fill="#FFFFFF" fill-opacity="0.00000" height="6" style="stroke:#C82930;stroke-width:1;" width="6" x="18.12" y="223.5384"/><text fill="#000000" font-family="sans-serif" font-size="14" lengthAdjust="spacing" textLength="173.0381" x="30.12" y="229.8851">memoriaKB=16: final int</text><rect fill="#FFFFFF" fill-opacity="0.00000" height="6" style="stroke:#C82930;stroke-width:1;" width="6" x="18.12" y="239.8353"/><text fill="#000000" font-family="sans-serif" font-size="14" lengthAdjust="spacing" textLength="141.6338" x="30.12" y="246.182">tasaHZ=60: final int</text><rect fill="#FFFFFF" fill-opacity="0.00000" height="6" style="stroke:#C82930;stroke-width:1;" width="6" x="18.12" y="256.1322"/><text fill="#000000" font-family="sans-serif" font-size="14" lengthAdjust="spacing" textLength="120.6406" x="30.12" y="262.4789">colaFrames: Cola</text><line style="stroke:#181818;stroke-width:0.5;" x1="11.12" x2="250.2401" y1="269.7806" y2="269.7806"/><ellipse cx="21.12" cy="283.4291" fill="#84BE84" rx="3" ry="3" style="stroke:#038048;stroke-width:1;"/><text fill="#000000" font-family="sans-serif" font-size="14" lengthAdjust="spacing" textLength="61.2021" x="30.12" y="286.7757">Grafica()</text><rect fill="#F24D5C" height="6" style="stroke:#C82930;stroke-width:1;" width="6" x="18.12" y="296.7259"/><text fill="#000000" font-family="sans-serif" font-size="14" lengthAdjust="spacing" textLength="156.7275" x="30.12" y="303.0726">generarFrames(): void</text><ellipse cx="21.12" cy="316.0228" fill="#84BE84" rx="3" ry="3" style="stroke:#038048;stroke-width:1;"/><text fill="#000000" font-family="sans-serif" font-size="14" lengthAdjust="spacing" textLength="215.1201" x="30.12" y="319.3695">devolverDosFrames(): Frame[]</text></g><!--class Cola--><g id="elem_Cola"><rect codeLine="16" fill="#F1F1F1" height="178.375" id="Cola" rx="2.5" ry="2.5" style="stroke:#181818;stroke-width:0.5;" width="207.5488" x="26.91" y="403.67"/><ellipse cx="111.0296" cy="419.67" fill="#ADD1B2" rx="11" ry="11" style="stroke:#181818;stroke-width:1;"/><path d="M113.9984,425.3106 Q113.4203,425.6075 112.7796,425.7481 Q112.139,425.9044 111.4359,425.9044 Q108.9359,425.9044 107.6078,424.2638 Q106.2953,422.6075 106.2953,419.4825 Q106.2953,416.3575 107.6078,414.7013 Q108.9359,413.045 111.4359,413.045 Q112.139,413.045 112.7796,413.2013 Q113.4359,413.3575 113.9984,413.6544 L113.9984,416.3731 Q113.3734,415.795 112.7796,415.5294 Q112.1859,415.2481 111.5609,415.2481 Q110.2171,415.2481 109.5296,416.3263 Q108.8421,417.3888 108.8421,419.4825 Q108.8421,421.5763 109.5296,422.6544 Q110.2171,423.7169 111.5609,423.7169 Q112.1859,423.7169 112.7796,423.4513 Q113.3734,423.17 113.9984,422.5919 L113.9984,425.3106 Z " fill="#000000"/><text fill="#000000" font-family="sans-serif" font-size="14" lengthAdjust="spacing" textLength="30.8096" x="131.5296" y="424.5167">Cola</text><line style="stroke:#181818;stroke-width:0.5;" x1="27.91" x2="233.4588" y1="435.67" y2="435.67"/><rect fill="#FFFFFF" fill-opacity="0.00000" height="6" style="stroke:#C82930;stroke-width:1;" width="6" x="34.91" y="446.3184"/><text fill="#000000" font-family="sans-serif" font-size="14" lengthAdjust="spacing" textLength="145.4004" x="46.91" y="452.6651">primero: NodoFrame</text><rect fill="#FFFFFF" fill-opacity="0.00000" height="6" style="stroke:#C82930;stroke-width:1;" width="6" x="34.91" y="462.6153"/><text fill="#000000" font-family="sans-serif" font-size="14" lengthAdjust="spacing" textLength="134.6406" x="46.91" y="468.962">ultimo: NodoFrame</text><rect fill="#FFFFFF" fill-opacity="0.00000" height="6" style="stroke:#C82930;stroke-width:1;" width="6" x="34.91" y="478.9122"/><text fill="#000000" font-family="sans-serif" font-size="14" lengthAdjust="spacing" textLength="81.1426" x="46.91" y="485.2589">tama&#241;o: int</text><line style="stroke:#181818;stroke-width:0.5;" x1="27.91" x2="233.4588" y1="492.5606" y2="492.5606"/><ellipse cx="37.91" cy="506.2091" fill="#84BE84" rx="3" ry="3" style="stroke:#038048;stroke-width:1;"/><text fill="#000000" font-family="sans-serif" font-size="14" lengthAdjust="spacing" textLength="41.7334" x="46.91" y="509.5557">Cola()</text><ellipse cx="37.91" cy="522.5059" fill="#84BE84" rx="3" ry="3" style="stroke:#038048;stroke-width:1;"/><text fill="#000000" font-family="sans-serif" font-size="14" lengthAdjust="spacing" textLength="111.0635" x="46.91" y="525.8526">enqueue(): void</text><ellipse cx="37.91" cy="538.8028" fill="#84BE84" rx="3" ry="3" style="stroke:#038048;stroke-width:1;"/><text fill="#000000" font-family="sans-serif" font-size="14" lengthAdjust="spacing" textLength="137.0127" x="46.91" y="542.1495">dequeue(): Frame[]</text><ellipse cx="37.91" cy="555.0997" fill="#84BE84" rx="3" ry="3" style="stroke:#038048;stroke-width:1;"/><text fill="#000000" font-family="sans-serif" font-size="14" lengthAdjust="spacing" textLength="109.874" x="46.91" y="558.4464">peek(): Frame[]</text><rect fill="#F24D5C" height="6" style="stroke:#C82930;stroke-width:1;" width="6" x="34.91" y="568.3966"/><text fill="#000000" font-family="sans-serif" font-size="14" lengthAdjust="spacing" textLength="181.5488" x="46.91" y="574.7432">tieneDosFrames(): bolean</text></g><!--class NodoFrame--><g id="elem_NodoFrame"><rect codeLine="27" fill="#F1F1F1" height="113.1875" id="NodoFrame" rx="2.5" ry="2.5" style="stroke:#181818;stroke-width:0.5;" width="216.2236" x="22.57" y="659.04"/><ellipse cx="85.8674" cy="675.04" fill="#ADD1B2" rx="11" ry="11" style="stroke:#181818;stroke-width:1;"/><path d="M88.8361,680.6806 Q88.258,680.9775 87.6174,681.1181 Q86.9767,681.2744 86.2736,681.2744 Q83.7736,681.2744 82.4455,679.6338 Q81.133,677.9775 81.133,674.8525 Q81.133,671.7275 82.4455,670.0713 Q83.7736,668.415 86.2736,668.415 Q86.9767,668.415 87.6174,668.5713 Q88.2736,668.7275 88.8361,669.0244 L88.8361,671.7431 Q88.2111,671.165 87.6174,670.8994 Q87.0236,670.6181 86.3986,670.6181 Q85.0549,670.6181 84.3674,671.6963 Q83.6799,672.7588 83.6799,674.8525 Q83.6799,676.9463 84.3674,678.0244 Q85.0549,679.0869 86.3986,679.0869 Q87.0236,679.0869 87.6174,678.8213 Q88.2111,678.54 88.8361,677.9619 L88.8361,680.6806 Z " fill="#000000"/><text fill="#000000" font-family="sans-serif" font-size="14" lengthAdjust="spacing" textLength="81.1289" x="106.3674" y="679.8867">NodoFrame</text><line style="stroke:#181818;stroke-width:0.5;" x1="23.57" x2="237.7936" y1="691.04" y2="691.04"/><rect fill="#FFFFFF" fill-opacity="0.00000" height="6" style="stroke:#C82930;stroke-width:1;" width="6" x="30.57" y="701.6884"/><text fill="#000000" font-family="sans-serif" font-size="14" lengthAdjust="spacing" textLength="154.7178" x="42.57" y="708.0351">siguiente: NodoFrame</text><line style="stroke:#181818;stroke-width:0.5;" x1="23.57" x2="237.7936" y1="715.3369" y2="715.3369"/><ellipse cx="33.57" cy="728.9853" fill="#84BE84" rx="3" ry="3" style="stroke:#038048;stroke-width:1;"/><text fill="#000000" font-family="sans-serif" font-size="14" lengthAdjust="spacing" textLength="92.0527" x="42.57" y="732.332">NodoFrame()</text><ellipse cx="33.57" cy="745.2822" fill="#84BE84" rx="3" ry="3" style="stroke:#038048;stroke-width:1;"/><text fill="#000000" font-family="sans-serif" font-size="14" lengthAdjust="spacing" textLength="190.2236" x="42.57" y="748.6289">getSiguiente(): NodoFrame</text><ellipse cx="33.57" cy="761.5791" fill="#84BE84" rx="3" ry="3" style="stroke:#038048;stroke-width:1;"/><text fill="#000000" font-family="sans-serif" font-size="14" lengthAdjust="spacing" textLength="137.1289" x="42.57" y="764.9257">setSiguiente(): void</text></g><!--class Frame--><g id="elem_Frame"><rect codeLine="34" fill="#F1F1F1" height="113.1875" id="Frame" rx="2.5" ry="2.5" style="stroke:#181818;stroke-width:0.5;" width="210.9805" x="25.19" y="849.23"/><ellipse cx="104.1109" cy="865.23" fill="#ADD1B2" rx="11" ry="11" style="stroke:#181818;stroke-width:1;"/><path d="M107.0796,870.8706 Q106.5015,871.1675 105.8609,871.3081 Q105.2203,871.4644 104.5171,871.4644 Q102.0171,871.4644 100.689,869.8238 Q99.3765,868.1675 99.3765,865.0425 Q99.3765,861.9175 100.689,860.2613 Q102.0171,858.605 104.5171,858.605 Q105.2203,858.605 105.8609,858.7613 Q106.5171,858.9175 107.0796,859.2144 L107.0796,861.9331 Q106.4546,861.355 105.8609,861.0894 Q105.2671,860.8081 104.6421,860.8081 Q103.2984,860.8081 102.6109,861.8863 Q101.9234,862.9488 101.9234,865.0425 Q101.9234,867.1363 102.6109,868.2144 Q103.2984,869.2769 104.6421,869.2769 Q105.2671,869.2769 105.8609,869.0113 Q106.4546,868.73 107.0796,868.1519 L107.0796,870.8706 Z " fill="#000000"/><text fill="#000000" font-family="sans-serif" font-size="14" lengthAdjust="spacing" textLength="44.6387" x="124.6109" y="870.0767">Frame</text><line style="stroke:#181818;stroke-width:0.5;" x1="26.19" x2="235.1705" y1="881.23" y2="881.23"/><rect fill="#FFFFFF" fill-opacity="0.00000" height="6" style="stroke:#C82930;stroke-width:1;" width="6" x="33.19" y="891.8784"/><text fill="#000000" font-family="sans-serif" font-size="14" lengthAdjust="spacing" textLength="113.6064" x="45.19" y="898.2251">pixeles: Pixel[][]</text><line style="stroke:#181818;stroke-width:0.5;" x1="26.19" x2="235.1705" y1="905.5269" y2="905.5269"/><ellipse cx="36.19" cy="919.1753" fill="#84BE84" rx="3" ry="3" style="stroke:#038048;stroke-width:1;"/><text fill="#000000" font-family="sans-serif" font-size="14" lengthAdjust="spacing" textLength="55.5625" x="45.19" y="922.522">Frame()</text><ellipse cx="36.19" cy="935.4722" fill="#84BE84" rx="3" ry="3" style="stroke:#038048;stroke-width:1;"/><text fill="#000000" font-family="sans-serif" font-size="14" lengthAdjust="spacing" textLength="152.7148" x="45.19" y="938.8189">rellenarPixeles(): void</text><ellipse cx="36.19" cy="951.7691" fill="#84BE84" rx="3" ry="3" style="stroke:#038048;stroke-width:1;"/><text fill="#000000" font-family="sans-serif" font-size="14" lengthAdjust="spacing" textLength="184.9805" x="45.19" y="955.1157">devolverPixeles(): Pixel[][]</text></g><!--class Pixel--><g id="elem_Pixel"><rect codeLine="41" fill="#F1F1F1" height="96.8906" id="Pixel" rx="2.5" ry="2.5" style="stroke:#181818;stroke-width:0.5;" width="180.0889" x="40.64" y="1039.42"/><ellipse cx="109.8744" cy="1055.42" fill="#ADD1B2" rx="11" ry="11" style="stroke:#181818;stroke-width:1;"/><path d="M112.8431,1061.0606 Q112.265,1061.3575 111.6244,1061.4981 Q110.9838,1061.6544 110.2806,1061.6544 Q107.7806,1061.6544 106.4525,1060.0138 Q105.14,1058.3575 105.14,1055.2325 Q105.14,1052.1075 106.4525,1050.4513 Q107.7806,1048.795 110.2806,1048.795 Q110.9838,1048.795 111.6244,1048.9513 Q112.2806,1049.1075 112.8431,1049.4044 L112.8431,1052.1231 Q112.2181,1051.545 111.6244,1051.2794 Q111.0306,1050.9981 110.4056,1050.9981 Q109.0619,1050.9981 108.3744,1052.0763 Q107.6869,1053.1388 107.6869,1055.2325 Q107.6869,1057.3263 108.3744,1058.4044 Q109.0619,1059.4669 110.4056,1059.4669 Q111.0306,1059.4669 111.6244,1059.2013 Q112.2181,1058.92 112.8431,1058.3419 L112.8431,1061.0606 Z " fill="#000000"/><text fill="#000000" font-family="sans-serif" font-size="14" lengthAdjust="spacing" textLength="33.1201" x="130.3744" y="1060.2667">Pixel</text><line style="stroke:#181818;stroke-width:0.5;" x1="41.64" x2="219.7289" y1="1071.42" y2="1071.42"/><rect fill="#FFFFFF" fill-opacity="0.00000" height="6" style="stroke:#C82930;stroke-width:1;" width="6" x="48.64" y="1082.0684"/><text fill="#000000" font-family="sans-serif" font-size="14" lengthAdjust="spacing" textLength="80.1924" x="60.64" y="1088.4151">color: Color</text><line style="stroke:#181818;stroke-width:0.5;" x1="41.64" x2="219.7289" y1="1095.7169" y2="1095.7169"/><ellipse cx="51.64" cy="1109.3653" fill="#84BE84" rx="3" ry="3" style="stroke:#038048;stroke-width:1;"/><text fill="#000000" font-family="sans-serif" font-size="14" lengthAdjust="spacing" textLength="44.0439" x="60.64" y="1112.712">Pixel()</text><ellipse cx="51.64" cy="1125.6622" fill="#84BE84" rx="3" ry="3" style="stroke:#038048;stroke-width:1;"/><text fill="#000000" font-family="sans-serif" font-size="14" lengthAdjust="spacing" textLength="154.0889" x="60.64" y="1129.0089">devolverColor(): Color</text></g><!--class Color--><g id="elem_Color"><rect codeLine="47" fill="#F1F1F1" height="96.8906" id="Color" rx="2.5" ry="2.5" style="stroke:#181818;stroke-width:0.5;" width="247.3613" x="7" y="1213.31"/><ellipse cx="108.1548" cy="1229.31" fill="#ADD1B2" rx="11" ry="11" style="stroke:#181818;stroke-width:1;"/><path d="M111.1235,1234.9506 Q110.5454,1235.2475 109.9048,1235.3881 Q109.2642,1235.5444 108.561,1235.5444 Q106.061,1235.5444 104.7329,1233.9038 Q103.4204,1232.2475 103.4204,1229.1225 Q103.4204,1225.9975 104.7329,1224.3413 Q106.061,1222.685 108.561,1222.685 Q109.2642,1222.685 109.9048,1222.8413 Q110.561,1222.9975 111.1235,1223.2944 L111.1235,1226.0131 Q110.4985,1225.435 109.9048,1225.1694 Q109.311,1224.8881 108.686,1224.8881 Q107.3423,1224.8881 106.6548,1225.9663 Q105.9673,1227.0288 105.9673,1229.1225 Q105.9673,1231.2163 106.6548,1232.2944 Q107.3423,1233.3569 108.686,1233.3569 Q109.311,1233.3569 109.9048,1233.0913 Q110.4985,1232.81 111.1235,1232.2319 L111.1235,1234.9506 Z " fill="#000000"/><text fill="#000000" font-family="sans-serif" font-size="14" lengthAdjust="spacing" textLength="36.5518" x="128.6548" y="1234.1567">Color</text><line style="stroke:#181818;stroke-width:0.5;" x1="8" x2="253.3613" y1="1245.31" y2="1245.31"/><rect fill="#FFFFFF" fill-opacity="0.00000" height="6" style="stroke:#C82930;stroke-width:1;" width="6" x="15" y="1255.9584"/><text fill="#000000" font-family="sans-serif" font-size="14" lengthAdjust="spacing" textLength="145.5713" x="27" y="1262.3051">representacion: char</text><line style="stroke:#181818;stroke-width:0.5;" x1="8" x2="253.3613" y1="1269.6069" y2="1269.6069"/><ellipse cx="18" cy="1283.2553" fill="#84BE84" rx="3" ry="3" style="stroke:#038048;stroke-width:1;"/><text fill="#000000" font-family="sans-serif" font-size="14" lengthAdjust="spacing" textLength="47.4756" x="27" y="1286.602">Color()</text><ellipse cx="18" cy="1299.5522" fill="#84BE84" rx="3" ry="3" style="stroke:#038048;stroke-width:1;"/><text fill="#000000" font-family="sans-serif" font-size="14" lengthAdjust="spacing" textLength="221.3613" x="27" y="1302.8989">devolverRepresentacion(): char</text></g><!--link Pantalla to Grafica--><g id="link_Pantalla_Grafica"><path codeLine="53" d="M130.68,104.22 C130.68,127.15 130.68,149.11 130.68,174.56 " fill="#FFFFFF" fill-opacity="0.00000" id="Pantalla-to-Grafica" style="stroke:#181818;stroke-width:1;"/><polygon fill="#181818" points="130.68,180.56,134.68,171.56,130.68,175.56,126.68,171.56,130.68,180.56" style="stroke:#181818;stroke-width:1;"/><text fill="#000000" font-family="sans-serif" font-size="13" lengthAdjust="spacing" textLength="58.2144" x="131.68" y="146.9569">Contiene</text></g><!--link Grafica to Cola--><g id="link_Grafica_Cola"><path codeLine="54" d="M130.68,326.87 C130.68,350.99 130.68,372.15 130.68,397.36 " fill="#FFFFFF" fill-opacity="0.00000" id="Grafica-to-Cola" style="stroke:#181818;stroke-width:1;"/><polygon fill="#181818" points="130.68,403.36,134.68,394.36,130.68,398.36,126.68,394.36,130.68,403.36" style="stroke:#181818;stroke-width:1;"/><text fill="#000000" font-family="sans-serif" font-size="13" lengthAdjust="spacing" textLength="58.2144" x="131.68" y="369.7369">Contiene</text></g><!--link Cola to NodoFrame--><g id="link_Cola_NodoFrame"><path codeLine="55" d="M130.68,582.38 C130.68,608.18 130.68,629.63 130.68,652.8 " fill="#FFFFFF" fill-opacity="0.00000" id="Cola-to-NodoFrame" style="stroke:#181818;stroke-width:1;"/><polygon fill="#181818" points="130.68,658.8,134.68,649.8,130.68,653.8,126.68,649.8,130.68,658.8" style="stroke:#181818;stroke-width:1;"/><text fill="#000000" font-family="sans-serif" font-size="13" lengthAdjust="spacing" textLength="40.2378" x="131.68" y="625.1069">Utiliza</text></g><!--link NodoFrame to Frame--><g id="link_NodoFrame_Frame"><path codeLine="56" d="M130.68,772.59 C130.68,796.64 130.68,818.7 130.68,842.76 " fill="#FFFFFF" fill-opacity="0.00000" id="NodoFrame-to-Frame" style="stroke:#181818;stroke-width:1;"/><polygon fill="#181818" points="130.68,848.76,134.68,839.76,130.68,843.76,126.68,839.76,130.68,848.76" style="stroke:#181818;stroke-width:1;"/><text fill="#000000" font-family="sans-serif" font-size="13" lengthAdjust="spacing" textLength="67.7168" x="131.68" y="815.2969">Hereda de</text></g><!--link Frame to Pixel--><g id="link_Frame_Pixel"><path codeLine="57" d="M130.68,962.8 C130.68,987.27 130.68,1009.67 130.68,1033.11 " fill="#FFFFFF" fill-opacity="0.00000" id="Frame-to-Pixel" style="stroke:#181818;stroke-width:1;"/><polygon fill="#181818" points="130.68,1039.11,134.68,1030.11,130.68,1034.11,126.68,1030.11,130.68,1039.11" style="stroke:#181818;stroke-width:1;"/><text fill="#000000" font-family="sans-serif" font-size="13" lengthAdjust="spacing" textLength="58.2144" x="131.68" y="1005.4869">Contiene</text></g><!--link Pixel to Color--><g id="link_Pixel_Color"><path codeLine="58" d="M130.68,1136.75 C130.68,1160.49 130.68,1183.09 130.68,1206.83 " fill="#FFFFFF" fill-opacity="0.00000" id="Pixel-to-Color" style="stroke:#181818;stroke-width:1;"/><polygon fill="#181818" points="130.68,1212.83,134.68,1203.83,130.68,1207.83,126.68,1203.83,130.68,1212.83" style="stroke:#181818;stroke-width:1;"/><text fill="#000000" font-family="sans-serif" font-size="13" lengthAdjust="spacing" textLength="58.2144" x="131.68" y="1179.3769">Contiene</text></g><!--SRC=[RLFBJiCm4BpdAwoUMaMLuD93f7AWg5H2GXM82rKFIx8j5euTrcw5G7mKty2FuKViD2czrDcPdPtTjKi1MhCrI0D20FlAcFrDTmGrwe8jtVzc6u9xWXqleM2tuU2ZUQsq8Q3nf617nQliEyjAhzcoecIDjI8ETzVpord1Tbo2O5oQ01hGi7gUpoxEa589MBPk5lOSYhRQuqdh32LQ3u6Nd7XcXKSbZaWtIdTmR2jvTShHQ4EyHb85krULyimGFmZ3w_EmWHf-VsmyMiwTMEiiH_b-m0CEFQNWwO3p1l5j69mQRflhkNzH0a5svfEXs87c-uFDCZWqcwVFw6-FvZ6odVQ0hmTmVyEzeWt_GE6sj7Q7pJOsrIj7A0HAe7KW_x-g4x3JIaLzA1QrjqEHlnYAWeY7Oxcew76d5uYdQrSKjGWRGcqxXP8hMR3o5IWjrANtDHzwT2Vk4wnsUapJwLLy1GKRBPJqknnbyMKut5sM7kYleaFIAYpyPBZWdp3AkbqxIeHNI5W1gsnw1_f9zAJ3wDggRcuTzWS0]--></g></svg>