<?xml version="1.0" encoding="us-ascii" standalone="no"?><svg xmlns="http://www.w3.org/2000/svg" xmlns:xlink="http://www.w3.org/1999/xlink" contentStyleType="text/css" height="685px" preserveAspectRatio="none" style="width:236px;height:685px;background:#FFFFFF;" version="1.1" viewBox="0 0 236 685" width="236px" zoomAndPan="magnify"><defs/><g><!--class Pixel--><g id="elem_Pixel"><rect codeLine="3" fill="#F1F1F1" height="100.8281" id="Pixel" rx="2.5" ry="2.5" style="stroke:#181818;stroke-width:0.5;" width="155" x="40.5" y="7"/><ellipse cx="99.25" cy="23" fill="#ADD1B2" rx="11" ry="11" style="stroke:#181818;stroke-width:1.0;"/><path d="M102.0156,18.875 Q102.1719,18.6563 102.3594,18.5469 Q102.5469,18.4375 102.7656,18.4375 Q103.1406,18.4375 103.375,18.7031 Q103.6094,18.9531 103.6094,19.5625 L103.6094,21.0156 Q103.6094,21.625 103.375,21.8906 Q103.1406,22.1563 102.7656,22.1563 Q102.4219,22.1563 102.2188,21.9531 Q102.0156,21.7656 101.9063,21.25 Q101.8594,20.8906 101.6719,20.7031 Q101.3438,20.3281 100.7344,20.1094 Q100.125,19.8906 99.5,19.8906 Q98.7344,19.8906 98.0938,20.2188 Q97.4688,20.5469 96.9688,21.2969 Q96.4844,22.0469 96.4844,23.0781 L96.4844,24.1719 Q96.4844,25.4063 97.375,26.2344 Q98.2656,27.0469 99.8594,27.0469 Q100.7969,27.0469 101.4531,26.7969 Q101.8438,26.6406 102.2656,26.2031 Q102.5313,25.9375 102.6719,25.8594 Q102.8281,25.7813 103.0313,25.7813 Q103.3594,25.7813 103.6094,26.0469 Q103.875,26.2969 103.875,26.6406 Q103.875,26.9844 103.5313,27.3906 Q103.0313,27.9688 102.2344,28.2969 Q101.1563,28.75 99.8594,28.75 Q98.3438,28.75 97.1406,28.125 Q96.1563,27.625 95.4688,26.5625 Q94.7813,25.4844 94.7813,24.2031 L94.7813,23.0469 Q94.7813,21.7188 95.3906,20.5781 Q96.0156,19.4219 97.1094,18.8125 Q98.2031,18.1875 99.4375,18.1875 Q100.1719,18.1875 100.8125,18.3594 Q101.4688,18.5156 102.0156,18.875 Z " fill="#000000"/><text fill="#000000" font-family="sans-serif" font-size="14" lengthAdjust="spacing" textLength="29" x="119.75" y="28.7285">Pixel</text><line style="stroke:#181818;stroke-width:0.5;" x1="41.5" x2="194.5" y1="39" y2="39"/><text fill="#000000" font-family="sans-serif" font-size="14" lengthAdjust="spacing" textLength="75" x="46.5" y="57.5332">-value: char</text><line style="stroke:#181818;stroke-width:0.5;" x1="41.5" x2="194.5" y1="64.6094" y2="64.6094"/><text fill="#000000" font-family="sans-serif" font-size="14" lengthAdjust="spacing" textLength="110" x="46.5" y="83.1426">+getValue(): char</text><text fill="#000000" font-family="sans-serif" font-size="14" lengthAdjust="spacing" textLength="143" x="46.5" y="100.752">+setValue(value: char)</text></g><!--class Frame--><g id="elem_Frame"><rect codeLine="9" fill="#F1F1F1" height="136.0469" id="Frame" rx="2.5" ry="2.5" style="stroke:#181818;stroke-width:0.5;" width="172" x="32" y="168"/><ellipse cx="93.25" cy="184" fill="#ADD1B2" rx="11" ry="11" style="stroke:#181818;stroke-width:1.0;"/><path d="M96.0156,179.875 Q96.1719,179.6563 96.3594,179.5469 Q96.5469,179.4375 96.7656,179.4375 Q97.1406,179.4375 97.375,179.7031 Q97.6094,179.9531 97.6094,180.5625 L97.6094,182.0156 Q97.6094,182.625 97.375,182.8906 Q97.1406,183.1563 96.7656,183.1563 Q96.4219,183.1563 96.2188,182.9531 Q96.0156,182.7656 95.9063,182.25 Q95.8594,181.8906 95.6719,181.7031 Q95.3438,181.3281 94.7344,181.1094 Q94.125,180.8906 93.5,180.8906 Q92.7344,180.8906 92.0938,181.2188 Q91.4688,181.5469 90.9688,182.2969 Q90.4844,183.0469 90.4844,184.0781 L90.4844,185.1719 Q90.4844,186.4063 91.375,187.2344 Q92.2656,188.0469 93.8594,188.0469 Q94.7969,188.0469 95.4531,187.7969 Q95.8438,187.6406 96.2656,187.2031 Q96.5313,186.9375 96.6719,186.8594 Q96.8281,186.7813 97.0313,186.7813 Q97.3594,186.7813 97.6094,187.0469 Q97.875,187.2969 97.875,187.6406 Q97.875,187.9844 97.5313,188.3906 Q97.0313,188.9688 96.2344,189.2969 Q95.1563,189.75 93.8594,189.75 Q92.3438,189.75 91.1406,189.125 Q90.1563,188.625 89.4688,187.5625 Q88.7813,186.4844 88.7813,185.2031 L88.7813,184.0469 Q88.7813,182.7188 89.3906,181.5781 Q90.0156,180.4219 91.1094,179.8125 Q92.2031,179.1875 93.4375,179.1875 Q94.1719,179.1875 94.8125,179.3594 Q95.4688,179.5156 96.0156,179.875 Z " fill="#000000"/><text fill="#000000" font-family="sans-serif" font-size="14" lengthAdjust="spacing" textLength="41" x="113.75" y="189.7285">Frame</text><line style="stroke:#181818;stroke-width:0.5;" x1="33" x2="203" y1="200" y2="200"/><text fill="#000000" font-family="sans-serif" font-size="14" lengthAdjust="spacing" textLength="93" x="38" y="218.5332">-pixels: Pixel[][]</text><text fill="#000000" font-family="sans-serif" font-size="14" lengthAdjust="spacing" textLength="34" x="38" y="236.1426">-x: int</text><text fill="#000000" font-family="sans-serif" font-size="14" lengthAdjust="spacing" textLength="35" x="38" y="253.752">-y: int</text><line style="stroke:#181818;stroke-width:0.5;" x1="33" x2="203" y1="260.8281" y2="260.8281"/><text fill="#000000" font-family="sans-serif" font-size="14" lengthAdjust="spacing" textLength="88" x="38" y="279.3613">+getPixel(x, y)</text><text fill="#000000" font-family="sans-serif" font-size="14" lengthAdjust="spacing" textLength="160" x="38" y="296.9707">+setPixel(x, y, pixel: Pixel)</text></g><!--class DoubleBuffer--><g id="elem_DoubleBuffer"><rect codeLine="17" fill="#F1F1F1" height="153.6563" id="DoubleBuffer" rx="2.5" ry="2.5" style="stroke:#181818;stroke-width:0.5;" width="216" x="10" y="364"/><ellipse cx="72.25" cy="380" fill="#ADD1B2" rx="11" ry="11" style="stroke:#181818;stroke-width:1.0;"/><path d="M75.0156,375.875 Q75.1719,375.6563 75.3594,375.5469 Q75.5469,375.4375 75.7656,375.4375 Q76.1406,375.4375 76.375,375.7031 Q76.6094,375.9531 76.6094,376.5625 L76.6094,378.0156 Q76.6094,378.625 76.375,378.8906 Q76.1406,379.1563 75.7656,379.1563 Q75.4219,379.1563 75.2188,378.9531 Q75.0156,378.7656 74.9063,378.25 Q74.8594,377.8906 74.6719,377.7031 Q74.3438,377.3281 73.7344,377.1094 Q73.125,376.8906 72.5,376.8906 Q71.7344,376.8906 71.0938,377.2188 Q70.4688,377.5469 69.9688,378.2969 Q69.4844,379.0469 69.4844,380.0781 L69.4844,381.1719 Q69.4844,382.4063 70.375,383.2344 Q71.2656,384.0469 72.8594,384.0469 Q73.7969,384.0469 74.4531,383.7969 Q74.8438,383.6406 75.2656,383.2031 Q75.5313,382.9375 75.6719,382.8594 Q75.8281,382.7813 76.0313,382.7813 Q76.3594,382.7813 76.6094,383.0469 Q76.875,383.2969 76.875,383.6406 Q76.875,383.9844 76.5313,384.3906 Q76.0313,384.9688 75.2344,385.2969 Q74.1563,385.75 72.8594,385.75 Q71.3438,385.75 70.1406,385.125 Q69.1563,384.625 68.4688,383.5625 Q67.7813,382.4844 67.7813,381.2031 L67.7813,380.0469 Q67.7813,378.7188 68.3906,377.5781 Q69.0156,376.4219 70.1094,375.8125 Q71.2031,375.1875 72.4375,375.1875 Q73.1719,375.1875 73.8125,375.3594 Q74.4688,375.5156 75.0156,375.875 Z " fill="#000000"/><text fill="#000000" font-family="sans-serif" font-size="14" lengthAdjust="spacing" textLength="83" x="92.75" y="385.7285">DoubleBuffer</text><line style="stroke:#181818;stroke-width:0.5;" x1="11" x2="225" y1="396" y2="396"/><text fill="#000000" font-family="sans-serif" font-size="14" lengthAdjust="spacing" textLength="106" x="16" y="414.5332">-frame1: Frame[]</text><text fill="#000000" font-family="sans-serif" font-size="14" lengthAdjust="spacing" textLength="106" x="16" y="432.1426">-frame2: Frame[]</text><text fill="#000000" font-family="sans-serif" font-size="14" lengthAdjust="spacing" textLength="132" x="16" y="449.752">-activeFrame: Frame</text><line style="stroke:#181818;stroke-width:0.5;" x1="11" x2="225" y1="456.8281" y2="456.8281"/><text fill="#000000" font-family="sans-serif" font-size="14" lengthAdjust="spacing" textLength="166" x="16" y="475.3613">+getActiveFrame(): Frame</text><text fill="#000000" font-family="sans-serif" font-size="14" lengthAdjust="spacing" textLength="204" x="16" y="492.9707">+combineFrames(frame: Frame)</text><text fill="#000000" font-family="sans-serif" font-size="14" lengthAdjust="spacing" textLength="153" x="16" y="510.5801">+switchFrame(index: int)</text></g><!--class Display--><g id="elem_Display"><rect codeLine="26" fill="#F1F1F1" height="100.8281" id="Display" rx="2.5" ry="2.5" style="stroke:#181818;stroke-width:0.5;" width="222" x="7" y="578"/><ellipse cx="90.75" cy="594" fill="#ADD1B2" rx="11" ry="11" style="stroke:#181818;stroke-width:1.0;"/><path d="M93.5156,589.875 Q93.6719,589.6563 93.8594,589.5469 Q94.0469,589.4375 94.2656,589.4375 Q94.6406,589.4375 94.875,589.7031 Q95.1094,589.9531 95.1094,590.5625 L95.1094,592.0156 Q95.1094,592.625 94.875,592.8906 Q94.6406,593.1563 94.2656,593.1563 Q93.9219,593.1563 93.7188,592.9531 Q93.5156,592.7656 93.4063,592.25 Q93.3594,591.8906 93.1719,591.7031 Q92.8438,591.3281 92.2344,591.1094 Q91.625,590.8906 91,590.8906 Q90.2344,590.8906 89.5938,591.2188 Q88.9688,591.5469 88.4688,592.2969 Q87.9844,593.0469 87.9844,594.0781 L87.9844,595.1719 Q87.9844,596.4063 88.875,597.2344 Q89.7656,598.0469 91.3594,598.0469 Q92.2969,598.0469 92.9531,597.7969 Q93.3438,597.6406 93.7656,597.2031 Q94.0313,596.9375 94.1719,596.8594 Q94.3281,596.7813 94.5313,596.7813 Q94.8594,596.7813 95.1094,597.0469 Q95.375,597.2969 95.375,597.6406 Q95.375,597.9844 95.0313,598.3906 Q94.5313,598.9688 93.7344,599.2969 Q92.6563,599.75 91.3594,599.75 Q89.8438,599.75 88.6406,599.125 Q87.6563,598.625 86.9688,597.5625 Q86.2813,596.4844 86.2813,595.2031 L86.2813,594.0469 Q86.2813,592.7188 86.8906,591.5781 Q87.5156,590.4219 88.6094,589.8125 Q89.7031,589.1875 90.9375,589.1875 Q91.6719,589.1875 92.3125,589.3594 Q92.9688,589.5156 93.5156,589.875 Z " fill="#000000"/><text fill="#000000" font-family="sans-serif" font-size="14" lengthAdjust="spacing" textLength="46" x="111.25" y="599.7285">Display</text><line style="stroke:#181818;stroke-width:0.5;" x1="8" x2="228" y1="610" y2="610"/><text fill="#000000" font-family="sans-serif" font-size="14" lengthAdjust="spacing" textLength="138" x="13" y="628.5332">-displayPixels: Pixel[][]</text><line style="stroke:#181818;stroke-width:0.5;" x1="8" x2="228" y1="635.6094" y2="635.6094"/><text fill="#000000" font-family="sans-serif" font-size="14" lengthAdjust="spacing" textLength="60" x="13" y="654.1426">+render()</text><text fill="#000000" font-family="sans-serif" font-size="14" lengthAdjust="spacing" textLength="210" x="13" y="671.752">+updateDataBase(db: DataBase)</text></g><!--link Pixel to Frame--><g id="link_Pixel_Frame"><path codeLine="32" d="M118,108.13 C118,126.69 118,142.09 118,161.96 " fill="none" id="Pixel-to-Frame" style="stroke:#181818;stroke-width:1.0;"/><polygon fill="#181818" points="118,167.96,122,158.96,118,162.96,114,158.96,118,167.96" style="stroke:#181818;stroke-width:1.0;"/></g><!--link Frame to DoubleBuffer--><g id="link_Frame_DoubleBuffer"><path codeLine="33" d="M118,304.03 C118,323.2 118,338.24 118,357.91 " fill="none" id="Frame-to-DoubleBuffer" style="stroke:#181818;stroke-width:1.0;"/><polygon fill="#181818" points="118,363.91,122,354.91,118,358.91,114,354.91,118,363.91" style="stroke:#181818;stroke-width:1.0;"/></g><!--link DoubleBuffer to Display--><g id="link_DoubleBuffer_Display"><path codeLine="34" d="M118,518.25 C118,538.34 118,553.49 118,571.78 " fill="none" id="DoubleBuffer-to-Display" style="stroke:#181818;stroke-width:1.0;"/><polygon fill="#181818" points="118,577.78,122,568.78,118,572.78,114,568.78,118,577.78" style="stroke:#181818;stroke-width:1.0;"/></g><!--SRC=[RL6nQiCm5Dpr5M-KIGnDHm-5X53e5YXa2HcUvUT6nB6D9ATsI_-zjYHRIgcskzExEptfgwnRL7W3KQ7MMsEKp3j3RwAft-KNmHDZLe63xAc2RmRZIU6ELKSPY0igowpWWynn8ddoGEkPZYOIzZExlexHjBYsKuRENDRfV3fxliz0riQ38G2RQY_pVWr34Z83kNQktZIAtZTTNj6kAqjIIuDowhF9NAybtxBFVraKHjx9SbuAfRP1cnOIgwAvvR9sckPbDBxq_vH6NDomh0jopu-hIzrME2oj2uSF_wvl1Of64yLd-wujqD0U3UvG4o_o36PWCznFf-cBh-t-QCBnojZ3_gpgMh1V]--></g></svg>