<?xml version="1.0" encoding="us-ascii" standalone="no"?><svg xmlns="http://www.w3.org/2000/svg" xmlns:xlink="http://www.w3.org/1999/xlink" contentStyleType="text/css" height="721px" preserveAspectRatio="none" style="width:236px;height:721px;background:#FFFFFF;" version="1.1" viewBox="0 0 236 721" width="236px" zoomAndPan="magnify"><defs/><g><!--class Pixel--><g id="elem_Pixel"><rect codeLine="3" fill="#F1F1F1" height="100.8281" id="Pixel" rx="2.5" ry="2.5" style="stroke:#181818;stroke-width:0.5;" width="155" x="40.5" y="614"/><ellipse cx="99.25" cy="630" fill="#ADD1B2" rx="11" ry="11" style="stroke:#181818;stroke-width:1.0;"/><path d="M102.0156,625.875 Q102.1719,625.6563 102.3594,625.5469 Q102.5469,625.4375 102.7656,625.4375 Q103.1406,625.4375 103.375,625.7031 Q103.6094,625.9531 103.6094,626.5625 L103.6094,628.0156 Q103.6094,628.625 103.375,628.8906 Q103.1406,629.1563 102.7656,629.1563 Q102.4219,629.1563 102.2188,628.9531 Q102.0156,628.7656 101.9063,628.25 Q101.8594,627.8906 101.6719,627.7031 Q101.3438,627.3281 100.7344,627.1094 Q100.125,626.8906 99.5,626.8906 Q98.7344,626.8906 98.0938,627.2188 Q97.4688,627.5469 96.9688,628.2969 Q96.4844,629.0469 96.4844,630.0781 L96.4844,631.1719 Q96.4844,632.4063 97.375,633.2344 Q98.2656,634.0469 99.8594,634.0469 Q100.7969,634.0469 101.4531,633.7969 Q101.8438,633.6406 102.2656,633.2031 Q102.5313,632.9375 102.6719,632.8594 Q102.8281,632.7813 103.0313,632.7813 Q103.3594,632.7813 103.6094,633.0469 Q103.875,633.2969 103.875,633.6406 Q103.875,633.9844 103.5313,634.3906 Q103.0313,634.9688 102.2344,635.2969 Q101.1563,635.75 99.8594,635.75 Q98.3438,635.75 97.1406,635.125 Q96.1563,634.625 95.4688,633.5625 Q94.7813,632.4844 94.7813,631.2031 L94.7813,630.0469 Q94.7813,628.7188 95.3906,627.5781 Q96.0156,626.4219 97.1094,625.8125 Q98.2031,625.1875 99.4375,625.1875 Q100.1719,625.1875 100.8125,625.3594 Q101.4688,625.5156 102.0156,625.875 Z " fill="#000000"/><text fill="#000000" font-family="sans-serif" font-size="14" lengthAdjust="spacing" textLength="29" x="119.75" y="635.7285">Pixel</text><line style="stroke:#181818;stroke-width:0.5;" x1="41.5" x2="194.5" y1="646" y2="646"/><text fill="#000000" font-family="sans-serif" font-size="14" lengthAdjust="spacing" textLength="75" x="46.5" y="664.5332">-value: char</text><line style="stroke:#181818;stroke-width:0.5;" x1="41.5" x2="194.5" y1="671.6094" y2="671.6094"/><text fill="#000000" font-family="sans-serif" font-size="14" lengthAdjust="spacing" textLength="110" x="46.5" y="690.1426">+getValue(): char</text><text fill="#000000" font-family="sans-serif" font-size="14" lengthAdjust="spacing" textLength="143" x="46.5" y="707.752">+setValue(value: char)</text></g><!--class Frame--><g id="elem_Frame"><rect codeLine="9" fill="#F1F1F1" height="136.0469" id="Frame" rx="2.5" ry="2.5" style="stroke:#181818;stroke-width:0.5;" width="172" x="32" y="400"/><ellipse cx="93.25" cy="416" fill="#ADD1B2" rx="11" ry="11" style="stroke:#181818;stroke-width:1.0;"/><path d="M96.0156,411.875 Q96.1719,411.6563 96.3594,411.5469 Q96.5469,411.4375 96.7656,411.4375 Q97.1406,411.4375 97.375,411.7031 Q97.6094,411.9531 97.6094,412.5625 L97.6094,414.0156 Q97.6094,414.625 97.375,414.8906 Q97.1406,415.1563 96.7656,415.1563 Q96.4219,415.1563 96.2188,414.9531 Q96.0156,414.7656 95.9063,414.25 Q95.8594,413.8906 95.6719,413.7031 Q95.3438,413.3281 94.7344,413.1094 Q94.125,412.8906 93.5,412.8906 Q92.7344,412.8906 92.0938,413.2188 Q91.4688,413.5469 90.9688,414.2969 Q90.4844,415.0469 90.4844,416.0781 L90.4844,417.1719 Q90.4844,418.4063 91.375,419.2344 Q92.2656,420.0469 93.8594,420.0469 Q94.7969,420.0469 95.4531,419.7969 Q95.8438,419.6406 96.2656,419.2031 Q96.5313,418.9375 96.6719,418.8594 Q96.8281,418.7813 97.0313,418.7813 Q97.3594,418.7813 97.6094,419.0469 Q97.875,419.2969 97.875,419.6406 Q97.875,419.9844 97.5313,420.3906 Q97.0313,420.9688 96.2344,421.2969 Q95.1563,421.75 93.8594,421.75 Q92.3438,421.75 91.1406,421.125 Q90.1563,420.625 89.4688,419.5625 Q88.7813,418.4844 88.7813,417.2031 L88.7813,416.0469 Q88.7813,414.7188 89.3906,413.5781 Q90.0156,412.4219 91.1094,411.8125 Q92.2031,411.1875 93.4375,411.1875 Q94.1719,411.1875 94.8125,411.3594 Q95.4688,411.5156 96.0156,411.875 Z " fill="#000000"/><text fill="#000000" font-family="sans-serif" font-size="14" lengthAdjust="spacing" textLength="41" x="113.75" y="421.7285">Frame</text><line style="stroke:#181818;stroke-width:0.5;" x1="33" x2="203" y1="432" y2="432"/><text fill="#000000" font-family="sans-serif" font-size="14" lengthAdjust="spacing" textLength="93" x="38" y="450.5332">-pixels: Pixel[][]</text><text fill="#000000" font-family="sans-serif" font-size="14" lengthAdjust="spacing" textLength="34" x="38" y="468.1426">-x: int</text><text fill="#000000" font-family="sans-serif" font-size="14" lengthAdjust="spacing" textLength="35" x="38" y="485.752">-y: int</text><line style="stroke:#181818;stroke-width:0.5;" x1="33" x2="203" y1="492.8281" y2="492.8281"/><text fill="#000000" font-family="sans-serif" font-size="14" lengthAdjust="spacing" textLength="88" x="38" y="511.3613">+getPixel(x, y)</text><text fill="#000000" font-family="sans-serif" font-size="14" lengthAdjust="spacing" textLength="160" x="38" y="528.9707">+setPixel(x, y, pixel: Pixel)</text></g><!--class DataBase--><g id="elem_DataBase"><rect codeLine="17" fill="#F1F1F1" height="136.0469" id="DataBase" rx="2.5" ry="2.5" style="stroke:#181818;stroke-width:0.5;" width="180" x="28" y="186"/><ellipse cx="82.75" cy="202" fill="#ADD1B2" rx="11" ry="11" style="stroke:#181818;stroke-width:1.0;"/><path d="M85.5156,197.875 Q85.6719,197.6563 85.8594,197.5469 Q86.0469,197.4375 86.2656,197.4375 Q86.6406,197.4375 86.875,197.7031 Q87.1094,197.9531 87.1094,198.5625 L87.1094,200.0156 Q87.1094,200.625 86.875,200.8906 Q86.6406,201.1563 86.2656,201.1563 Q85.9219,201.1563 85.7188,200.9531 Q85.5156,200.7656 85.4063,200.25 Q85.3594,199.8906 85.1719,199.7031 Q84.8438,199.3281 84.2344,199.1094 Q83.625,198.8906 83,198.8906 Q82.2344,198.8906 81.5938,199.2188 Q80.9688,199.5469 80.4688,200.2969 Q79.9844,201.0469 79.9844,202.0781 L79.9844,203.1719 Q79.9844,204.4063 80.875,205.2344 Q81.7656,206.0469 83.3594,206.0469 Q84.2969,206.0469 84.9531,205.7969 Q85.3438,205.6406 85.7656,205.2031 Q86.0313,204.9375 86.1719,204.8594 Q86.3281,204.7813 86.5313,204.7813 Q86.8594,204.7813 87.1094,205.0469 Q87.375,205.2969 87.375,205.6406 Q87.375,205.9844 87.0313,206.3906 Q86.5313,206.9688 85.7344,207.2969 Q84.6563,207.75 83.3594,207.75 Q81.8438,207.75 80.6406,207.125 Q79.6563,206.625 78.9688,205.5625 Q78.2813,204.4844 78.2813,203.2031 L78.2813,202.0469 Q78.2813,200.7188 78.8906,199.5781 Q79.5156,198.4219 80.6094,197.8125 Q81.7031,197.1875 82.9375,197.1875 Q83.6719,197.1875 84.3125,197.3594 Q84.9688,197.5156 85.5156,197.875 Z " fill="#000000"/><text fill="#000000" font-family="sans-serif" font-size="14" lengthAdjust="spacing" textLength="62" x="103.25" y="207.7285">DataBase</text><line style="stroke:#181818;stroke-width:0.5;" x1="29" x2="207" y1="218" y2="218"/><text fill="#000000" font-family="sans-serif" font-size="14" lengthAdjust="spacing" textLength="105" x="34" y="236.5332">-frames: Frame[]</text><text fill="#000000" font-family="sans-serif" font-size="14" lengthAdjust="spacing" textLength="132" x="34" y="254.1426">-activeFrame: Frame</text><line style="stroke:#181818;stroke-width:0.5;" x1="29" x2="207" y1="261.2188" y2="261.2188"/><text fill="#000000" font-family="sans-serif" font-size="14" lengthAdjust="spacing" textLength="168" x="34" y="279.752">+addFrame(frame: Frame)</text><text fill="#000000" font-family="sans-serif" font-size="14" lengthAdjust="spacing" textLength="153" x="34" y="297.3613">+switchFrame(index: int)</text><text fill="#000000" font-family="sans-serif" font-size="14" lengthAdjust="spacing" textLength="166" x="34" y="314.9707">+getActiveFrame(): Frame</text></g><!--class Display--><g id="elem_Display"><rect codeLine="25" fill="#F1F1F1" height="100.8281" id="Display" rx="2.5" ry="2.5" style="stroke:#181818;stroke-width:0.5;" width="222" x="7" y="7"/><ellipse cx="90.75" cy="23" fill="#ADD1B2" rx="11" ry="11" style="stroke:#181818;stroke-width:1.0;"/><path d="M93.5156,18.875 Q93.6719,18.6563 93.8594,18.5469 Q94.0469,18.4375 94.2656,18.4375 Q94.6406,18.4375 94.875,18.7031 Q95.1094,18.9531 95.1094,19.5625 L95.1094,21.0156 Q95.1094,21.625 94.875,21.8906 Q94.6406,22.1563 94.2656,22.1563 Q93.9219,22.1563 93.7188,21.9531 Q93.5156,21.7656 93.4063,21.25 Q93.3594,20.8906 93.1719,20.7031 Q92.8438,20.3281 92.2344,20.1094 Q91.625,19.8906 91,19.8906 Q90.2344,19.8906 89.5938,20.2188 Q88.9688,20.5469 88.4688,21.2969 Q87.9844,22.0469 87.9844,23.0781 L87.9844,24.1719 Q87.9844,25.4063 88.875,26.2344 Q89.7656,27.0469 91.3594,27.0469 Q92.2969,27.0469 92.9531,26.7969 Q93.3438,26.6406 93.7656,26.2031 Q94.0313,25.9375 94.1719,25.8594 Q94.3281,25.7813 94.5313,25.7813 Q94.8594,25.7813 95.1094,26.0469 Q95.375,26.2969 95.375,26.6406 Q95.375,26.9844 95.0313,27.3906 Q94.5313,27.9688 93.7344,28.2969 Q92.6563,28.75 91.3594,28.75 Q89.8438,28.75 88.6406,28.125 Q87.6563,27.625 86.9688,26.5625 Q86.2813,25.4844 86.2813,24.2031 L86.2813,23.0469 Q86.2813,21.7188 86.8906,20.5781 Q87.5156,19.4219 88.6094,18.8125 Q89.7031,18.1875 90.9375,18.1875 Q91.6719,18.1875 92.3125,18.3594 Q92.9688,18.5156 93.5156,18.875 Z " fill="#000000"/><text fill="#000000" font-family="sans-serif" font-size="14" lengthAdjust="spacing" textLength="46" x="111.25" y="28.7285">Display</text><line style="stroke:#181818;stroke-width:0.5;" x1="8" x2="228" y1="39" y2="39"/><text fill="#000000" font-family="sans-serif" font-size="14" lengthAdjust="spacing" textLength="138" x="13" y="57.5332">-displayPixels: Pixel[][]</text><line style="stroke:#181818;stroke-width:0.5;" x1="8" x2="228" y1="64.6094" y2="64.6094"/><text fill="#000000" font-family="sans-serif" font-size="14" lengthAdjust="spacing" textLength="60" x="13" y="83.1426">+render()</text><text fill="#000000" font-family="sans-serif" font-size="14" lengthAdjust="spacing" textLength="210" x="13" y="100.752">+updateDataBase(db: DataBase)</text></g><!--link Display to DataBase--><g id="link_Display_DataBase"><path codeLine="31" d="M118,108.08 C118,131.72 118,154.35 118,179.89 " fill="none" id="Display-to-DataBase" style="stroke:#181818;stroke-width:1.0;"/><polygon fill="#181818" points="118,185.89,122,176.89,118,180.89,114,176.89,118,185.89" style="stroke:#181818;stroke-width:1.0;"/><text fill="#000000" font-family="sans-serif" font-size="13" lengthAdjust="spacing" textLength="21" x="119" y="152.4951">usa</text></g><!--link DataBase to Frame--><g id="link_DataBase_Frame"><path codeLine="32" d="M118,322.08 C118,346.95 118,369.13 118,393.99 " fill="none" id="DataBase-to-Frame" style="stroke:#181818;stroke-width:1.0;"/><polygon fill="#181818" points="118,399.99,122,390.99,118,394.99,114,390.99,118,399.99" style="stroke:#181818;stroke-width:1.0;"/><text fill="#000000" font-family="sans-serif" font-size="13" lengthAdjust="spacing" textLength="49" x="119" y="366.4951">contiene</text></g><!--link Frame to Pixel--><g id="link_Frame_Pixel"><path codeLine="33" d="M118,536.21 C118,561.68 118,584.21 118,607.79 " fill="none" id="Frame-to-Pixel" style="stroke:#181818;stroke-width:1.0;"/><polygon fill="#181818" points="118,613.79,122,604.79,118,608.79,114,604.79,118,613.79" style="stroke:#181818;stroke-width:1.0;"/><text fill="#000000" font-family="sans-serif" font-size="13" lengthAdjust="spacing" textLength="49" x="119" y="580.4951">contiene</text></g><!--SRC=[RPBDQiCm48JlUeezoYI6ddqef9H2Ru52Bo67ZRLfbhgAiUJKRkcxLt-MNAXlEsFFDolPlBFkSS0FQ3iqPcVjmAVHqdDxrI_yHN0dH71WpnDry2t0FJNSi1kfWVQ2Gr0sy4RsrOko-YERHLvzKOcV9VN9eIcdzfvXciWw70_7f4yDiBPfcCiGgE5bEMrXhWgpYDkOca9Nw4Uq-82cqC- -YwE7JfcDhUKR1IrPYO9AXL6ULrwkyCcslKIVjQAuGLLQxqgiFx4ONBgnwJkSSpKLv_s_vxE1WHnYa4lys2kqjEmdrQd9ouRzb_IwlY-dqC1eKEJHU_5ot9rTjMNI9ABWhVWthAnV]--></g></svg>