<svg xmlns="http://www.w3.org/2000/svg" xmlns:xlink="http://www.w3.org/1999/xlink" contentStyleType="text/css" data-diagram-type="CLASS" height="1078px" preserveAspectRatio="none" style="width:465px;height:1078px;background:#FFFFFF;" version="1.1" viewBox="0 0 465 1078" width="465px" zoomAndPan="magnify"><defs/><g><!--class Main--><g id="elem_Main"><rect codeLine="1" fill="#F1F1F1" height="64.2969" id="Main" rx="2.5" ry="2.5" style="stroke:#181818;stroke-width:0.5;" width="198.3682" x="133.78" y="7"/><ellipse cx="212.0036" cy="23" fill="#ADD1B2" rx="11" ry="11" style="stroke:#181818;stroke-width:1;"/><path d="M214.9724,28.6406 Q214.3943,28.9375 213.7536,29.0781 Q213.113,29.2344 212.4099,29.2344 Q209.9099,29.2344 208.5818,27.5938 Q207.2693,25.9375 207.2693,22.8125 Q207.2693,19.6875 208.5818,18.0313 Q209.9099,16.375 212.4099,16.375 Q213.113,16.375 213.7536,16.5313 Q214.4099,16.6875 214.9724,16.9844 L214.9724,19.7031 Q214.3474,19.125 213.7536,18.8594 Q213.1599,18.5781 212.5349,18.5781 Q211.1911,18.5781 210.5036,19.6563 Q209.8161,20.7188 209.8161,22.8125 Q209.8161,24.9063 210.5036,25.9844 Q211.1911,27.0469 212.5349,27.0469 Q213.1599,27.0469 213.7536,26.7813 Q214.3474,26.5 214.9724,25.9219 L214.9724,28.6406 Z " fill="#000000"/><text fill="#000000" font-family="sans-serif" font-size="14" lengthAdjust="spacing" textLength="33.4209" x="232.5036" y="27.8467">Main</text><line style="stroke:#181818;stroke-width:0.5;" x1="134.78" x2="331.1482" y1="39" y2="39"/><line style="stroke:#181818;stroke-width:0.5;" x1="134.78" x2="331.1482" y1="47" y2="47"/><ellipse cx="144.78" cy="60.6484" fill="#84BE84" rx="3" ry="3" style="stroke:#038048;stroke-width:1;"/><text fill="#000000" font-family="sans-serif" font-size="14" lengthAdjust="spacing" textLength="172.3682" x="153.78" y="63.9951">main(String[] args): void</text></g><!--class Pantalla--><g id="elem_Pantalla"><rect codeLine="5" fill="#F1F1F1" height="162.0781" id="Pantalla" rx="2.5" ry="2.5" style="stroke:#181818;stroke-width:0.5;" width="451.9199" x="7" y="148.3"/><ellipse cx="200.5493" cy="164.3" fill="#ADD1B2" rx="11" ry="11" style="stroke:#181818;stroke-width:1;"/><path d="M203.5181,169.9406 Q202.9399,170.2375 202.2993,170.3781 Q201.6587,170.5344 200.9556,170.5344 Q198.4556,170.5344 197.1274,168.8938 Q195.8149,167.2375 195.8149,164.1125 Q195.8149,160.9875 197.1274,159.3313 Q198.4556,157.675 200.9556,157.675 Q201.6587,157.675 202.2993,157.8313 Q202.9556,157.9875 203.5181,158.2844 L203.5181,161.0031 Q202.8931,160.425 202.2993,160.1594 Q201.7056,159.8781 201.0806,159.8781 Q199.7368,159.8781 199.0493,160.9563 Q198.3618,162.0188 198.3618,164.1125 Q198.3618,166.2063 199.0493,167.2844 Q199.7368,168.3469 201.0806,168.3469 Q201.7056,168.3469 202.2993,168.0813 Q202.8931,167.8 203.5181,167.2219 L203.5181,169.9406 Z " fill="#000000"/><text fill="#000000" font-family="sans-serif" font-size="14" lengthAdjust="spacing" textLength="56.3213" x="221.0493" y="169.1467">Pantalla</text><line style="stroke:#181818;stroke-width:0.5;" x1="8" x2="457.9199" y1="180.3" y2="180.3"/><rect fill="#FFFFFF" fill-opacity="0.00000" height="6" style="stroke:#C82930;stroke-width:1;" width="6" x="15" y="190.9484"/><text fill="#000000" font-family="sans-serif" font-size="14" lengthAdjust="spacing" textLength="106.7158" x="27" y="197.2951">buffer: Frame[]</text><rect fill="#FFFFFF" fill-opacity="0.00000" height="6" style="stroke:#C82930;stroke-width:1;" width="6" x="15" y="207.2453"/><text fill="#000000" font-family="sans-serif" font-size="14" lengthAdjust="spacing" textLength="107.7617" x="27" y="213.592">grafica: Grafica</text><rect fill="#FFFFFF" fill-opacity="0.00000" height="6" style="stroke:#C82930;stroke-width:1;" width="6" x="15" y="223.5422"/><text fill="#000000" font-family="sans-serif" font-size="14" lengthAdjust="spacing" textLength="239.0938" x="27" y="229.8889">tablaCombinaciones: final char[][]</text><line style="stroke:#181818;stroke-width:0.5;" x1="8" x2="457.9199" y1="237.1906" y2="237.1906"/><ellipse cx="18" cy="250.8391" fill="#84BE84" rx="3" ry="3" style="stroke:#038048;stroke-width:1;"/><text fill="#000000" font-family="sans-serif" font-size="14" lengthAdjust="spacing" textLength="67.2451" x="27" y="254.1857">Pantalla()</text><ellipse cx="18" cy="267.1359" fill="#84BE84" rx="3" ry="3" style="stroke:#038048;stroke-width:1;"/><text fill="#000000" font-family="sans-serif" font-size="14" lengthAdjust="spacing" textLength="104.7949" x="27" y="270.4826">mostrar(): void</text><rect fill="#F24D5C" height="6" style="stroke:#C82930;stroke-width:1;" width="6" x="15" y="280.4328"/><text fill="#000000" font-family="sans-serif" font-size="14" lengthAdjust="spacing" textLength="91.9639" x="27" y="286.7795">pause(): void</text><rect fill="#F24D5C" height="6" style="stroke:#C82930;stroke-width:1;" width="6" x="15" y="296.7297"/><text fill="#000000" font-family="sans-serif" font-size="14" lengthAdjust="spacing" textLength="425.9199" x="27" y="303.0764">mezclarColores(Color colorFrame1, Color colorFrame2): char</text></g><!--class Grafica--><g id="elem_Grafica"><rect codeLine="15" fill="#F1F1F1" height="113.1875" id="Grafica" rx="2.5" ry="2.5" style="stroke:#181818;stroke-width:0.5;" width="241.1201" x="112.4" y="387.38"/><ellipse cx="203.5709" cy="403.38" fill="#ADD1B2" rx="11" ry="11" style="stroke:#181818;stroke-width:1;"/><path d="M206.5396,409.0206 Q205.9615,409.3175 205.3209,409.4581 Q204.6803,409.6144 203.9771,409.6144 Q201.4771,409.6144 200.149,407.9738 Q198.8365,406.3175 198.8365,403.1925 Q198.8365,400.0675 200.149,398.4113 Q201.4771,396.755 203.9771,396.755 Q204.6803,396.755 205.3209,396.9113 Q205.9771,397.0675 206.5396,397.3644 L206.5396,400.0831 Q205.9146,399.505 205.3209,399.2394 Q204.7271,398.9581 204.1021,398.9581 Q202.7584,398.9581 202.0709,400.0363 Q201.3834,401.0988 201.3834,403.1925 Q201.3834,405.2863 202.0709,406.3644 Q202.7584,407.4269 204.1021,407.4269 Q204.7271,407.4269 205.3209,407.1613 Q205.9146,406.88 206.5396,406.3019 L206.5396,409.0206 Z " fill="#000000"/><text fill="#000000" font-family="sans-serif" font-size="14" lengthAdjust="spacing" textLength="50.2783" x="224.0709" y="408.2267">Grafica</text><line style="stroke:#181818;stroke-width:0.5;" x1="113.4" x2="352.5201" y1="419.38" y2="419.38"/><rect fill="#FFFFFF" fill-opacity="0.00000" height="6" style="stroke:#C82930;stroke-width:1;" width="6" x="120.4" y="430.0284"/><text fill="#000000" font-family="sans-serif" font-size="14" lengthAdjust="spacing" textLength="203.9229" x="132.4" y="436.3751">colaFrames: Queue&lt;Frame&gt;</text><line style="stroke:#181818;stroke-width:0.5;" x1="113.4" x2="352.5201" y1="443.6769" y2="443.6769"/><ellipse cx="123.4" cy="457.3253" fill="#84BE84" rx="3" ry="3" style="stroke:#038048;stroke-width:1;"/><text fill="#000000" font-family="sans-serif" font-size="14" lengthAdjust="spacing" textLength="61.2021" x="132.4" y="460.672">Grafica()</text><ellipse cx="123.4" cy="473.6222" fill="#84BE84" rx="3" ry="3" style="stroke:#038048;stroke-width:1;"/><text fill="#000000" font-family="sans-serif" font-size="14" lengthAdjust="spacing" textLength="156.7275" x="132.4" y="476.9689">generarFrames(): void</text><ellipse cx="123.4" cy="489.9191" fill="#84BE84" rx="3" ry="3" style="stroke:#038048;stroke-width:1;"/><text fill="#000000" font-family="sans-serif" font-size="14" lengthAdjust="spacing" textLength="215.1201" x="132.4" y="493.2657">devolverDosFrames(): Frame[]</text></g><!--class Frame--><g id="elem_Frame"><rect codeLine="22" fill="#F1F1F1" height="113.1875" id="Frame" rx="2.5" ry="2.5" style="stroke:#181818;stroke-width:0.5;" width="210.9805" x="127.47" y="577.57"/><ellipse cx="206.3909" cy="593.57" fill="#ADD1B2" rx="11" ry="11" style="stroke:#181818;stroke-width:1;"/><path d="M209.3596,599.2106 Q208.7815,599.5075 208.1409,599.6481 Q207.5003,599.8044 206.7971,599.8044 Q204.2971,599.8044 202.969,598.1638 Q201.6565,596.5075 201.6565,593.3825 Q201.6565,590.2575 202.969,588.6013 Q204.2971,586.945 206.7971,586.945 Q207.5003,586.945 208.1409,587.1013 Q208.7971,587.2575 209.3596,587.5544 L209.3596,590.2731 Q208.7346,589.695 208.1409,589.4294 Q207.5471,589.1481 206.9221,589.1481 Q205.5784,589.1481 204.8909,590.2263 Q204.2034,591.2888 204.2034,593.3825 Q204.2034,595.4763 204.8909,596.5544 Q205.5784,597.6169 206.9221,597.6169 Q207.5471,597.6169 208.1409,597.3513 Q208.7346,597.07 209.3596,596.4919 L209.3596,599.2106 Z " fill="#000000"/><text fill="#000000" font-family="sans-serif" font-size="14" lengthAdjust="spacing" textLength="44.6387" x="226.8909" y="598.4167">Frame</text><line style="stroke:#181818;stroke-width:0.5;" x1="128.47" x2="337.4505" y1="609.57" y2="609.57"/><rect fill="#FFFFFF" fill-opacity="0.00000" height="6" style="stroke:#C82930;stroke-width:1;" width="6" x="135.47" y="620.2184"/><text fill="#000000" font-family="sans-serif" font-size="14" lengthAdjust="spacing" textLength="113.6064" x="147.47" y="626.5651">pixeles: Pixel[][]</text><line style="stroke:#181818;stroke-width:0.5;" x1="128.47" x2="337.4505" y1="633.8669" y2="633.8669"/><ellipse cx="138.47" cy="647.5153" fill="#84BE84" rx="3" ry="3" style="stroke:#038048;stroke-width:1;"/><text fill="#000000" font-family="sans-serif" font-size="14" lengthAdjust="spacing" textLength="55.5625" x="147.47" y="650.862">Frame()</text><ellipse cx="138.47" cy="663.8122" fill="#84BE84" rx="3" ry="3" style="stroke:#038048;stroke-width:1;"/><text fill="#000000" font-family="sans-serif" font-size="14" lengthAdjust="spacing" textLength="152.7148" x="147.47" y="667.1589">rellenarPixeles(): void</text><ellipse cx="138.47" cy="680.1091" fill="#84BE84" rx="3" ry="3" style="stroke:#038048;stroke-width:1;"/><text fill="#000000" font-family="sans-serif" font-size="14" lengthAdjust="spacing" textLength="184.9805" x="147.47" y="683.4557">devolverPixeles(): Pixel[][]</text></g><!--class Pixel--><g id="elem_Pixel"><rect codeLine="29" fill="#F1F1F1" height="96.8906" id="Pixel" rx="2.5" ry="2.5" style="stroke:#181818;stroke-width:0.5;" width="180.0889" x="142.92" y="767.76"/><ellipse cx="212.1544" cy="783.76" fill="#ADD1B2" rx="11" ry="11" style="stroke:#181818;stroke-width:1;"/><path d="M215.1231,789.4006 Q214.545,789.6975 213.9044,789.8381 Q213.2638,789.9944 212.5606,789.9944 Q210.0606,789.9944 208.7325,788.3538 Q207.42,786.6975 207.42,783.5725 Q207.42,780.4475 208.7325,778.7913 Q210.0606,777.135 212.5606,777.135 Q213.2638,777.135 213.9044,777.2913 Q214.5606,777.4475 215.1231,777.7444 L215.1231,780.4631 Q214.4981,779.885 213.9044,779.6194 Q213.3106,779.3381 212.6856,779.3381 Q211.3419,779.3381 210.6544,780.4163 Q209.9669,781.4788 209.9669,783.5725 Q209.9669,785.6663 210.6544,786.7444 Q211.3419,787.8069 212.6856,787.8069 Q213.3106,787.8069 213.9044,787.5413 Q214.4981,787.26 215.1231,786.6819 L215.1231,789.4006 Z " fill="#000000"/><text fill="#000000" font-family="sans-serif" font-size="14" lengthAdjust="spacing" textLength="33.1201" x="232.6544" y="788.6067">Pixel</text><line style="stroke:#181818;stroke-width:0.5;" x1="143.92" x2="322.0089" y1="799.76" y2="799.76"/><rect fill="#FFFFFF" fill-opacity="0.00000" height="6" style="stroke:#C82930;stroke-width:1;" width="6" x="150.92" y="810.4084"/><text fill="#000000" font-family="sans-serif" font-size="14" lengthAdjust="spacing" textLength="80.1924" x="162.92" y="816.7551">color: Color</text><line style="stroke:#181818;stroke-width:0.5;" x1="143.92" x2="322.0089" y1="824.0569" y2="824.0569"/><ellipse cx="153.92" cy="837.7053" fill="#84BE84" rx="3" ry="3" style="stroke:#038048;stroke-width:1;"/><text fill="#000000" font-family="sans-serif" font-size="14" lengthAdjust="spacing" textLength="44.0439" x="162.92" y="841.052">Pixel()</text><ellipse cx="153.92" cy="854.0022" fill="#84BE84" rx="3" ry="3" style="stroke:#038048;stroke-width:1;"/><text fill="#000000" font-family="sans-serif" font-size="14" lengthAdjust="spacing" textLength="154.0889" x="162.92" y="857.3489">devolverColor(): Color</text></g><!--class Color--><g id="elem_Color"><rect codeLine="35" fill="#F1F1F1" height="129.4844" id="Color" rx="2.5" ry="2.5" style="stroke:#181818;stroke-width:0.5;" width="247.3613" x="109.28" y="941.65"/><ellipse cx="210.4348" cy="957.65" fill="#ADD1B2" rx="11" ry="11" style="stroke:#181818;stroke-width:1;"/><path d="M213.4035,963.2906 Q212.8254,963.5875 212.1848,963.7281 Q211.5442,963.8844 210.841,963.8844 Q208.341,963.8844 207.0129,962.2438 Q205.7004,960.5875 205.7004,957.4625 Q205.7004,954.3375 207.0129,952.6813 Q208.341,951.025 210.841,951.025 Q211.5442,951.025 212.1848,951.1813 Q212.841,951.3375 213.4035,951.6344 L213.4035,954.3531 Q212.7785,953.775 212.1848,953.5094 Q211.591,953.2281 210.966,953.2281 Q209.6223,953.2281 208.9348,954.3063 Q208.2473,955.3688 208.2473,957.4625 Q208.2473,959.5563 208.9348,960.6344 Q209.6223,961.6969 210.966,961.6969 Q211.591,961.6969 212.1848,961.4313 Q212.7785,961.15 213.4035,960.5719 L213.4035,963.2906 Z " fill="#000000"/><text fill="#000000" font-family="sans-serif" font-size="14" lengthAdjust="spacing" textLength="36.5518" x="230.9348" y="962.4967">Color</text><line style="stroke:#181818;stroke-width:0.5;" x1="110.28" x2="355.6413" y1="973.65" y2="973.65"/><rect fill="#FFFFFF" fill-opacity="0.00000" height="6" style="stroke:#C82930;stroke-width:1;" width="6" x="117.28" y="984.2984"/><text fill="#000000" font-family="sans-serif" font-size="14" lengthAdjust="spacing" textLength="145.5713" x="129.28" y="990.6451">representacion: char</text><rect fill="#FFFFFF" fill-opacity="0.00000" height="6" style="stroke:#C82930;stroke-width:1;" width="6" x="117.28" y="1000.5953"/><text fill="#000000" font-family="sans-serif" font-size="14" lengthAdjust="spacing" textLength="62.4941" x="129.28" y="1006.942">valor: int</text><line style="stroke:#181818;stroke-width:0.5;" x1="110.28" x2="355.6413" y1="1014.2438" y2="1014.2438"/><ellipse cx="120.28" cy="1027.8922" fill="#84BE84" rx="3" ry="3" style="stroke:#038048;stroke-width:1;"/><text fill="#000000" font-family="sans-serif" font-size="14" lengthAdjust="spacing" textLength="47.4756" x="129.28" y="1031.2389">Color()</text><ellipse cx="120.28" cy="1044.1891" fill="#84BE84" rx="3" ry="3" style="stroke:#038048;stroke-width:1;"/><text fill="#000000" font-family="sans-serif" font-size="14" lengthAdjust="spacing" textLength="221.3613" x="129.28" y="1047.5357">devolverRepresentacion(): char</text><ellipse cx="120.28" cy="1060.4859" fill="#84BE84" rx="3" ry="3" style="stroke:#038048;stroke-width:1;"/><text fill="#000000" font-family="sans-serif" font-size="14" lengthAdjust="spacing" textLength="135.6045" x="129.28" y="1063.8326">devolverValor(): int</text></g><!--link Main to Pantalla--><g id="link_Main_Pantalla"><path codeLine="43" d="M232.96,71.65 C232.96,92.58 232.96,115.07 232.96,142.01 " fill="#FFFFFF" fill-opacity="0.00000" id="Main-to-Pantalla" style="stroke:#181818;stroke-width:1;"/><polygon fill="#181818" points="232.96,148.01,236.96,139.01,232.96,143.01,228.96,139.01,232.96,148.01" style="stroke:#181818;stroke-width:1;"/><text fill="#000000" font-family="sans-serif" font-size="13" lengthAdjust="spacing" textLength="51.5493" x="233.96" y="114.3669">Llama a</text></g><!--link Pantalla to Grafica--><g id="link_Pantalla_Grafica"><path codeLine="44" d="M232.96,310.73 C232.96,336.13 232.96,357.64 232.96,380.95 " fill="#FFFFFF" fill-opacity="0.00000" id="Pantalla-to-Grafica" style="stroke:#181818;stroke-width:1;"/><polygon fill="#181818" points="232.96,386.95,236.96,377.95,232.96,381.95,228.96,377.95,232.96,386.95" style="stroke:#181818;stroke-width:1;"/><text fill="#000000" font-family="sans-serif" font-size="13" lengthAdjust="spacing" textLength="58.2144" x="233.96" y="353.4469">Contiene</text></g><!--link Grafica to Frame--><g id="link_Grafica_Frame"><path codeLine="45" d="M232.96,500.93 C232.96,524.98 232.96,547.03 232.96,571.1 " fill="#FFFFFF" fill-opacity="0.00000" id="Grafica-to-Frame" style="stroke:#181818;stroke-width:1;"/><polygon fill="#181818" points="232.96,577.1,236.96,568.1,232.96,572.1,228.96,568.1,232.96,577.1" style="stroke:#181818;stroke-width:1;"/><text fill="#000000" font-family="sans-serif" font-size="13" lengthAdjust="spacing" textLength="115.5591" x="233.96" y="543.6369">Tiene una cola de</text></g><!--link Frame to Pixel--><g id="link_Frame_Pixel"><path codeLine="46" d="M232.96,691.14 C232.96,715.6 232.96,738 232.96,761.45 " fill="#FFFFFF" fill-opacity="0.00000" id="Frame-to-Pixel" style="stroke:#181818;stroke-width:1;"/><polygon fill="#181818" points="232.96,767.45,236.96,758.45,232.96,762.45,228.96,758.45,232.96,767.45" style="stroke:#181818;stroke-width:1;"/><text fill="#000000" font-family="sans-serif" font-size="13" lengthAdjust="spacing" textLength="130.3872" x="233.96" y="733.8269">Tiene una matriz de</text></g><!--link Pixel to Color--><g id="link_Pixel_Color"><path codeLine="47" d="M232.96,864.69 C232.96,887.88 232.96,910.13 232.96,935.21 " fill="#FFFFFF" fill-opacity="0.00000" id="Pixel-to-Color" style="stroke:#181818;stroke-width:1;"/><polygon fill="#181818" points="232.96,941.21,236.96,932.21,232.96,936.21,228.96,932.21,232.96,941.21" style="stroke:#181818;stroke-width:1;"/><text fill="#000000" font-family="sans-serif" font-size="13" lengthAdjust="spacing" textLength="56.3989" x="233.96" y="907.7169">Tiene un</text></g><!--SRC=[RLExRiCm3Dpz5O8d1sc6TZIAB2cQfGNI1xe46HY7TWN8KY3PHf6Y_rvI3pikwY5coDFTYQGh1Sw9Pv3wEnFqB5iAYxVEIjti3m9iunQb68myPJzPLddq3dG7Ie48HrR7lgxHbkBHGelxGqWs5cfPGIcs8GZP3euADgOzIWsLD1fTAMgAbQW-mUuFyVGoIHIBwCgupe8jaXTFTeRUuJpLueKyserHng8h_5jK_ElDtTw8lwaxEi_Qq_MYuNGxWe97ajMN7dkyz__MmLW49vyDQYIV0J-pjZpXODI0zi6ugPnQDehxH98-oozKhBlZOEgE1oL9YqgX1hiBuFz5hueJrpHGJbtTrz0mVP_YCBYSv1AZhpDV08vSeR-Ho-APne0qInvsRBIl3E1LfEu2RQIRQxpEZXUBAu8Hym7H1rEH2rvbiLgjnoqjHVwae0K1UJPkBWEsQKFpZT6TfCdbMSnnsJUPYkzS4Rq6NXeG9qA58NaHRiqCr09zEnSF2srbs2RqT8Jblm00]--></g></svg>