<svg xmlns="http://www.w3.org/2000/svg" xmlns:xlink="http://www.w3.org/1999/xlink" contentStyleType="text/css" data-diagram-type="CLASS" height="865px" preserveAspectRatio="none" style="width:689px;height:865px;background:#FFFFFF;" version="1.1" viewBox="0 0 689 865" width="689px" zoomAndPan="magnify"><title>Ejercicio 1</title><defs/><g><text fill="#000000" font-family="sans-serif" font-size="14" font-weight="bold" lengthAdjust="spacing" textLength="81.1904" x="297.2537" y="22.9951">Ejercicio 1</text><!--class Pixel--><g id="elem_Pixel"><rect codeLine="3" fill="#F1F1F1" height="129.4844" id="Pixel" rx="2.5" ry="2.5" style="stroke:#181818;stroke-width:0.5;" width="96.4648" x="7" y="538.7569"/><ellipse cx="36.1051" cy="554.7569" fill="#ADD1B2" rx="11" ry="11" style="stroke:#181818;stroke-width:1;"/><path d="M39.0739,560.3975 Q38.4958,560.6944 37.8551,560.835 Q37.2145,560.9913 36.5114,560.9913 Q34.0114,560.9913 32.6833,559.3506 Q31.3708,557.6944 31.3708,554.5694 Q31.3708,551.4444 32.6833,549.7881 Q34.0114,548.1319 36.5114,548.1319 Q37.2145,548.1319 37.8551,548.2881 Q38.5114,548.4444 39.0739,548.7413 L39.0739,551.46 Q38.4489,550.8819 37.8551,550.6163 Q37.2614,550.335 36.6364,550.335 Q35.2926,550.335 34.6051,551.4131 Q33.9176,552.4756 33.9176,554.5694 Q33.9176,556.6631 34.6051,557.7413 Q35.2926,558.8038 36.6364,558.8038 Q37.2614,558.8038 37.8551,558.5381 Q38.4489,558.2569 39.0739,557.6788 L39.0739,560.3975 Z " fill="#000000"/><text fill="#000000" font-family="sans-serif" font-size="14" lengthAdjust="spacing" textLength="33.1201" x="53.2396" y="559.6036">Pixel</text><line style="stroke:#181818;stroke-width:0.5;" x1="8" x2="102.4648" y1="570.7569" y2="570.7569"/><rect fill="#FFFFFF" fill-opacity="0.00000" height="6" style="stroke:#C82930;stroke-width:1;" width="6" x="15" y="581.4053"/><text fill="#000000" font-family="sans-serif" font-size="14" lengthAdjust="spacing" textLength="40.1543" x="27" y="587.752">x : int</text><rect fill="#FFFFFF" fill-opacity="0.00000" height="6" style="stroke:#C82930;stroke-width:1;" width="6" x="15" y="597.7022"/><text fill="#000000" font-family="sans-serif" font-size="14" lengthAdjust="spacing" textLength="40.1543" x="27" y="604.0489">y : int</text><rect fill="#FFFFFF" fill-opacity="0.00000" height="6" style="stroke:#C82930;stroke-width:1;" width="6" x="15" y="613.9991"/><text fill="#000000" font-family="sans-serif" font-size="14" lengthAdjust="spacing" textLength="66.3428" x="27" y="620.3457">color : int</text><line style="stroke:#181818;stroke-width:0.5;" x1="8" x2="102.4648" y1="627.6475" y2="627.6475"/><ellipse cx="18" cy="641.2959" fill="#84BE84" rx="3" ry="3" style="stroke:#038048;stroke-width:1;"/><text fill="#000000" font-family="sans-serif" font-size="14" lengthAdjust="spacing" textLength="68.8721" x="27" y="644.6426">setColor()</text><ellipse cx="18" cy="657.5928" fill="#84BE84" rx="3" ry="3" style="stroke:#038048;stroke-width:1;"/><text fill="#000000" font-family="sans-serif" font-size="14" lengthAdjust="spacing" textLength="70.4648" x="27" y="660.9395">getColor()</text></g><!--class Frame--><g id="elem_Frame"><rect codeLine="11" fill="#F1F1F1" height="129.4844" id="Frame" rx="2.5" ry="2.5" style="stroke:#181818;stroke-width:0.5;" width="118.1758" x="42.14" y="291.5269"/><ellipse cx="75.8317" cy="307.5269" fill="#ADD1B2" rx="11" ry="11" style="stroke:#181818;stroke-width:1;"/><path d="M78.8004,313.1675 Q78.2223,313.4644 77.5817,313.605 Q76.9411,313.7613 76.2379,313.7613 Q73.7379,313.7613 72.4098,312.1206 Q71.0973,310.4644 71.0973,307.3394 Q71.0973,304.2144 72.4098,302.5581 Q73.7379,300.9019 76.2379,300.9019 Q76.9411,300.9019 77.5817,301.0581 Q78.2379,301.2144 78.8004,301.5113 L78.8004,304.23 Q78.1754,303.6519 77.5817,303.3863 Q76.9879,303.105 76.3629,303.105 Q75.0192,303.105 74.3317,304.1831 Q73.6442,305.2456 73.6442,307.3394 Q73.6442,309.4331 74.3317,310.5113 Q75.0192,311.5738 76.3629,311.5738 Q76.9879,311.5738 77.5817,311.3081 Q78.1754,311.0269 78.8004,310.4488 L78.8004,313.1675 Z " fill="#000000"/><text fill="#000000" font-family="sans-serif" font-size="14" lengthAdjust="spacing" textLength="44.6387" x="93.9854" y="312.3736">Frame</text><line style="stroke:#181818;stroke-width:0.5;" x1="43.14" x2="159.3158" y1="323.5269" y2="323.5269"/><rect fill="#FFFFFF" fill-opacity="0.00000" height="6" style="stroke:#C82930;stroke-width:1;" width="6" x="50.14" y="334.1753"/><text fill="#000000" font-family="sans-serif" font-size="14" lengthAdjust="spacing" textLength="80.3018" x="62.14" y="340.522">pixel : Pixel</text><rect fill="#FFFFFF" fill-opacity="0.00000" height="6" style="stroke:#C82930;stroke-width:1;" width="6" x="50.14" y="350.4722"/><text fill="#000000" font-family="sans-serif" font-size="14" lengthAdjust="spacing" textLength="59.418" x="62.14" y="356.8189">Pixel [][]</text><line style="stroke:#181818;stroke-width:0.5;" x1="43.14" x2="159.3158" y1="364.1206" y2="364.1206"/><ellipse cx="53.14" cy="377.7691" fill="#84BE84" rx="3" ry="3" style="stroke:#038048;stroke-width:1;"/><text fill="#000000" font-family="sans-serif" font-size="14" lengthAdjust="spacing" textLength="67.0332" x="62.14" y="381.1157">SetPixel()</text><ellipse cx="53.14" cy="394.0659" fill="#84BE84" rx="3" ry="3" style="stroke:#038048;stroke-width:1;"/><text fill="#000000" font-family="sans-serif" font-size="14" lengthAdjust="spacing" textLength="68.9951" x="62.14" y="397.4126">GetPixel()</text><ellipse cx="53.14" cy="410.3628" fill="#84BE84" rx="3" ry="3" style="stroke:#038048;stroke-width:1;"/><text fill="#000000" font-family="sans-serif" font-size="14" lengthAdjust="spacing" textLength="92.1758" x="62.14" y="413.7095">ClearFrame()</text></g><!--class Buffer--><g id="elem_Buffer"><rect codeLine="19" fill="#F1F1F1" height="194.6719" id="Buffer" rx="2.5" ry="2.5" style="stroke:#181818;stroke-width:0.5;" width="151.0977" x="138.68" y="506.1569"/><ellipse cx="188.6268" cy="522.1569" fill="#ADD1B2" rx="11" ry="11" style="stroke:#181818;stroke-width:1;"/><path d="M191.5955,527.7975 Q191.0174,528.0944 190.3768,528.235 Q189.7362,528.3913 189.033,528.3913 Q186.533,528.3913 185.2049,526.7506 Q183.8924,525.0944 183.8924,521.9694 Q183.8924,518.8444 185.2049,517.1881 Q186.533,515.5319 189.033,515.5319 Q189.7362,515.5319 190.3768,515.6881 Q191.033,515.8444 191.5955,516.1413 L191.5955,518.86 Q190.9705,518.2819 190.3768,518.0163 Q189.783,517.735 189.158,517.735 Q187.8143,517.735 187.1268,518.8131 Q186.4393,519.8756 186.4393,521.9694 Q186.4393,524.0631 187.1268,525.1413 Q187.8143,526.2038 189.158,526.2038 Q189.783,526.2038 190.3768,525.9381 Q190.9705,525.6569 191.5955,525.0788 L191.5955,527.7975 Z " fill="#000000"/><text fill="#000000" font-family="sans-serif" font-size="14" lengthAdjust="spacing" textLength="42.7041" x="209.1268" y="527.0036">Buffer</text><line style="stroke:#181818;stroke-width:0.5;" x1="139.68" x2="288.7777" y1="538.1569" y2="538.1569"/><rect fill="#FFFFFF" fill-opacity="0.00000" height="6" style="stroke:#C82930;stroke-width:1;" width="6" x="146.68" y="548.8053"/><text fill="#000000" font-family="sans-serif" font-size="14" lengthAdjust="spacing" textLength="111.8018" x="158.68" y="555.152">Frame1 : Frame</text><rect fill="#FFFFFF" fill-opacity="0.00000" height="6" style="stroke:#C82930;stroke-width:1;" width="6" x="146.68" y="565.1022"/><text fill="#000000" font-family="sans-serif" font-size="14" lengthAdjust="spacing" textLength="111.8018" x="158.68" y="571.4489">Frame2 : Frame</text><rect fill="#FFFFFF" fill-opacity="0.00000" height="6" style="stroke:#C82930;stroke-width:1;" width="6" x="146.68" y="581.3991"/><text fill="#000000" font-family="sans-serif" font-size="14" lengthAdjust="spacing" textLength="120.0596" x="158.68" y="587.7457">ActiveFrame : int</text><rect fill="#FFFFFF" fill-opacity="0.00000" height="6" style="stroke:#C82930;stroke-width:1;" width="6" x="146.68" y="597.6959"/><text fill="#000000" font-family="sans-serif" font-size="14" lengthAdjust="spacing" textLength="85.4834" x="158.68" y="604.0426">Interval : int</text><line style="stroke:#181818;stroke-width:0.5;" x1="139.68" x2="288.7777" y1="611.3444" y2="611.3444"/><ellipse cx="149.68" cy="624.9928" fill="#84BE84" rx="3" ry="3" style="stroke:#038048;stroke-width:1;"/><text fill="#000000" font-family="sans-serif" font-size="14" lengthAdjust="spacing" textLength="101.8486" x="158.68" y="628.3395">SwitchFrame()</text><ellipse cx="149.68" cy="641.2897" fill="#84BE84" rx="3" ry="3" style="stroke:#038048;stroke-width:1;"/><text fill="#000000" font-family="sans-serif" font-size="14" lengthAdjust="spacing" textLength="125.0977" x="158.68" y="644.6364">CombineFrames()</text><ellipse cx="149.68" cy="657.5866" fill="#84BE84" rx="3" ry="3" style="stroke:#038048;stroke-width:1;"/><text fill="#000000" font-family="sans-serif" font-size="14" lengthAdjust="spacing" textLength="45.124" x="158.68" y="660.9332">Start()</text><ellipse cx="149.68" cy="673.8834" fill="#84BE84" rx="3" ry="3" style="stroke:#038048;stroke-width:1;"/><text fill="#000000" font-family="sans-serif" font-size="14" lengthAdjust="spacing" textLength="42.752" x="158.68" y="677.2301">Stop()</text><ellipse cx="149.68" cy="690.1803" fill="#84BE84" rx="3" ry="3" style="stroke:#038048;stroke-width:1;"/><text fill="#000000" font-family="sans-serif" font-size="14" lengthAdjust="spacing" textLength="102.9561" x="158.68" y="693.527">ToggleFrame()</text></g><!--class InputManager--><g id="elem_InputManager"><rect codeLine="31" fill="#F1F1F1" height="80.5938" id="InputManager" rx="2.5" ry="2.5" style="stroke:#181818;stroke-width:0.5;" width="129.6172" x="207.42" y="777.8369"/><ellipse cx="222.42" cy="793.8369" fill="#ADD1B2" rx="11" ry="11" style="stroke:#181818;stroke-width:1;"/><path d="M225.3888,799.4775 Q224.8106,799.7744 224.17,799.915 Q223.5294,800.0713 222.8263,800.0713 Q220.3263,800.0713 218.9981,798.4306 Q217.6856,796.7744 217.6856,793.6494 Q217.6856,790.5244 218.9981,788.8681 Q220.3263,787.2119 222.8263,787.2119 Q223.5294,787.2119 224.17,787.3681 Q224.8263,787.5244 225.3888,787.8213 L225.3888,790.54 Q224.7638,789.9619 224.17,789.6963 Q223.5763,789.415 222.9513,789.415 Q221.6075,789.415 220.92,790.4931 Q220.2325,791.5556 220.2325,793.6494 Q220.2325,795.7431 220.92,796.8213 Q221.6075,797.8838 222.9513,797.8838 Q223.5763,797.8838 224.17,797.6181 Q224.7638,797.3369 225.3888,796.7588 L225.3888,799.4775 Z " fill="#000000"/><text fill="#000000" font-family="sans-serif" font-size="14" lengthAdjust="spacing" textLength="97.6172" x="236.42" y="798.6836">InputManager</text><line style="stroke:#181818;stroke-width:0.5;" x1="208.42" x2="336.0372" y1="809.8369" y2="809.8369"/><rect fill="#FFFFFF" fill-opacity="0.00000" height="6" style="stroke:#C82930;stroke-width:1;" width="6" x="215.42" y="820.4853"/><text fill="#000000" font-family="sans-serif" font-size="14" lengthAdjust="spacing" textLength="98.3076" x="227.42" y="826.832">buffer : Buffer</text><line style="stroke:#181818;stroke-width:0.5;" x1="208.42" x2="336.0372" y1="834.1338" y2="834.1338"/><ellipse cx="218.42" cy="847.7822" fill="#84BE84" rx="3" ry="3" style="stroke:#038048;stroke-width:1;"/><text fill="#000000" font-family="sans-serif" font-size="14" lengthAdjust="spacing" textLength="94.7461" x="227.42" y="851.1289">UpdatePixel()</text></g><!--class Nodo--><g id="elem_Nodo"><rect codeLine="36" fill="#F1F1F1" height="162.0781" id="Nodo" rx="2.5" ry="2.5" style="stroke:#181818;stroke-width:0.5;" width="234.8516" x="225.81" y="44.2969"/><ellipse cx="320.7407" cy="60.2969" fill="#ADD1B2" rx="11" ry="11" style="stroke:#181818;stroke-width:1;"/><path d="M323.7094,65.9375 Q323.1313,66.2344 322.4907,66.375 Q321.85,66.5313 321.1469,66.5313 Q318.6469,66.5313 317.3188,64.8906 Q316.0063,63.2344 316.0063,60.1094 Q316.0063,56.9844 317.3188,55.3281 Q318.6469,53.6719 321.1469,53.6719 Q321.85,53.6719 322.4907,53.8281 Q323.1469,53.9844 323.7094,54.2813 L323.7094,57 Q323.0844,56.4219 322.4907,56.1563 Q321.8969,55.875 321.2719,55.875 Q319.9282,55.875 319.2407,56.9531 Q318.5532,58.0156 318.5532,60.1094 Q318.5532,62.2031 319.2407,63.2813 Q319.9282,64.3438 321.2719,64.3438 Q321.8969,64.3438 322.4907,64.0781 Q323.0844,63.7969 323.7094,63.2188 L323.7094,65.9375 Z " fill="#000000"/><text fill="#000000" font-family="sans-serif" font-size="14" lengthAdjust="spacing" textLength="36.4902" x="341.2407" y="65.1436">Nodo</text><line style="stroke:#181818;stroke-width:0.5;" x1="226.81" x2="459.6616" y1="76.2969" y2="76.2969"/><rect fill="#FFFFFF" fill-opacity="0.00000" height="6" style="stroke:#C82930;stroke-width:1;" width="6" x="233.81" y="86.9453"/><text fill="#000000" font-family="sans-serif" font-size="14" lengthAdjust="spacing" textLength="99.0254" x="245.81" y="93.292">Buffer : Buffer</text><rect fill="#FFFFFF" fill-opacity="0.00000" height="6" style="stroke:#C82930;stroke-width:1;" width="6" x="233.81" y="103.2422"/><text fill="#000000" font-family="sans-serif" font-size="14" lengthAdjust="spacing" textLength="208.8516" x="245.81" y="109.5889">InputManager : InputManager</text><rect fill="#FFFFFF" fill-opacity="0.00000" height="6" style="stroke:#C82930;stroke-width:1;" width="6" x="233.81" y="119.5391"/><text fill="#000000" font-family="sans-serif" font-size="14" lengthAdjust="spacing" textLength="102.8945" x="245.81" y="125.8857">Frame : Frame</text><line style="stroke:#181818;stroke-width:0.5;" x1="226.81" x2="459.6616" y1="133.1875" y2="133.1875"/><ellipse cx="236.81" cy="146.8359" fill="#84BE84" rx="3" ry="3" style="stroke:#038048;stroke-width:1;"/><text fill="#000000" font-family="sans-serif" font-size="14" lengthAdjust="spacing" textLength="69.5146" x="245.81" y="150.1826">Initialize()</text><ellipse cx="236.81" cy="163.1328" fill="#84BE84" rx="3" ry="3" style="stroke:#038048;stroke-width:1;"/><text fill="#000000" font-family="sans-serif" font-size="14" lengthAdjust="spacing" textLength="34.4258" x="245.81" y="166.4795">run()</text><ellipse cx="236.81" cy="179.4297" fill="#84BE84" rx="3" ry="3" style="stroke:#038048;stroke-width:1;"/><text fill="#000000" font-family="sans-serif" font-size="14" lengthAdjust="spacing" textLength="94.7461" x="245.81" y="182.7764">UpdatePixel()</text><ellipse cx="236.81" cy="195.7266" fill="#84BE84" rx="3" ry="3" style="stroke:#038048;stroke-width:1;"/><text fill="#000000" font-family="sans-serif" font-size="14" lengthAdjust="spacing" textLength="109.1426" x="245.81" y="199.0732">SwitchFrames()</text></g><!--class Lista--><g id="elem_Lista"><rect codeLine="46" fill="#F1F1F1" height="145.7813" id="Lista" rx="2.5" ry="2.5" style="stroke:#181818;stroke-width:0.5;" width="286.9277" x="395.77" y="283.3769"/><ellipse cx="518.458" cy="299.3769" fill="#ADD1B2" rx="11" ry="11" style="stroke:#181818;stroke-width:1;"/><path d="M521.4267,305.0175 Q520.8486,305.3144 520.208,305.455 Q519.5674,305.6113 518.8642,305.6113 Q516.3642,305.6113 515.0361,303.9706 Q513.7236,302.3144 513.7236,299.1894 Q513.7236,296.0644 515.0361,294.4081 Q516.3642,292.7519 518.8642,292.7519 Q519.5674,292.7519 520.208,292.9081 Q520.8642,293.0644 521.4267,293.3613 L521.4267,296.08 Q520.8017,295.5019 520.208,295.2363 Q519.6142,294.955 518.9892,294.955 Q517.6455,294.955 516.958,296.0331 Q516.2705,297.0956 516.2705,299.1894 Q516.2705,301.2831 516.958,302.3613 Q517.6455,303.4238 518.9892,303.4238 Q519.6142,303.4238 520.208,303.1581 Q520.8017,302.8769 521.4267,302.2988 L521.4267,305.0175 Z " fill="#000000"/><text fill="#000000" font-family="sans-serif" font-size="14" lengthAdjust="spacing" textLength="33.0518" x="538.958" y="304.2236">Lista</text><line style="stroke:#181818;stroke-width:0.5;" x1="396.77" x2="681.6977" y1="315.3769" y2="315.3769"/><rect fill="#FFFFFF" fill-opacity="0.00000" height="6" style="stroke:#C82930;stroke-width:1;" width="6" x="403.77" y="326.0253"/><text fill="#000000" font-family="sans-serif" font-size="14" lengthAdjust="spacing" textLength="104.8154" x="415.77" y="332.372">Nodos : Nodo[]</text><line style="stroke:#181818;stroke-width:0.5;" x1="396.77" x2="681.6977" y1="339.6738" y2="339.6738"/><ellipse cx="406.77" cy="353.3222" fill="#84BE84" rx="3" ry="3" style="stroke:#038048;stroke-width:1;"/><text fill="#000000" font-family="sans-serif" font-size="14" lengthAdjust="spacing" textLength="202.0088" x="415.77" y="356.6689">addNodo(nodo : Nodo) : void</text><ellipse cx="406.77" cy="369.6191" fill="#84BE84" rx="3" ry="3" style="stroke:#038048;stroke-width:1;"/><text fill="#000000" font-family="sans-serif" font-size="14" lengthAdjust="spacing" textLength="229.127" x="415.77" y="372.9657">removeNodo(nodo : Nodo) : void</text><ellipse cx="406.77" cy="385.9159" fill="#84BE84" rx="3" ry="3" style="stroke:#038048;stroke-width:1;"/><text fill="#000000" font-family="sans-serif" font-size="14" lengthAdjust="spacing" textLength="138.7627" x="415.77" y="389.2626">getNodo(int) : Nodo</text><ellipse cx="406.77" cy="402.2128" fill="#84BE84" rx="3" ry="3" style="stroke:#038048;stroke-width:1;"/><text fill="#000000" font-family="sans-serif" font-size="14" lengthAdjust="spacing" textLength="260.9277" x="415.77" y="405.5595">forEachNodo(action : Function) : void</text><ellipse cx="406.77" cy="418.5097" fill="#84BE84" rx="3" ry="3" style="stroke:#038048;stroke-width:1;"/><text fill="#000000" font-family="sans-serif" font-size="14" lengthAdjust="spacing" textLength="95.0264" x="415.77" y="421.8564">runAll() : void</text></g><!--class Renderer--><g id="elem_Renderer"><rect codeLine="55" fill="#F1F1F1" height="80.5938" id="Renderer" rx="2.5" ry="2.5" style="stroke:#181818;stroke-width:0.5;" width="123.4941" x="477.49" y="563.1969"/><ellipse cx="504.4849" cy="579.1969" fill="#ADD1B2" rx="11" ry="11" style="stroke:#181818;stroke-width:1;"/><path d="M507.4536,584.8375 Q506.8755,585.1344 506.2349,585.275 Q505.5942,585.4313 504.8911,585.4313 Q502.3911,585.4313 501.063,583.7906 Q499.7505,582.1344 499.7505,579.0094 Q499.7505,575.8844 501.063,574.2281 Q502.3911,572.5719 504.8911,572.5719 Q505.5942,572.5719 506.2349,572.7281 Q506.8911,572.8844 507.4536,573.1813 L507.4536,575.9 Q506.8286,575.3219 506.2349,575.0563 Q505.6411,574.775 505.0161,574.775 Q503.6724,574.775 502.9849,575.8531 Q502.2974,576.9156 502.2974,579.0094 Q502.2974,581.1031 502.9849,582.1813 Q503.6724,583.2438 505.0161,583.2438 Q505.6411,583.2438 506.2349,582.9781 Q506.8286,582.6969 507.4536,582.1188 L507.4536,584.8375 Z " fill="#000000"/><text fill="#000000" font-family="sans-serif" font-size="14" lengthAdjust="spacing" textLength="64.8389" x="521.1504" y="584.0436">Renderer</text><line style="stroke:#181818;stroke-width:0.5;" x1="478.49" x2="599.9841" y1="595.1969" y2="595.1969"/><rect fill="#FFFFFF" fill-opacity="0.00000" height="6" style="stroke:#C82930;stroke-width:1;" width="6" x="485.49" y="605.8453"/><text fill="#000000" font-family="sans-serif" font-size="14" lengthAdjust="spacing" textLength="79.7207" x="497.49" y="612.192">Lista : Lista</text><line style="stroke:#181818;stroke-width:0.5;" x1="478.49" x2="599.9841" y1="619.4938" y2="619.4938"/><ellipse cx="488.49" cy="633.1422" fill="#84BE84" rx="3" ry="3" style="stroke:#038048;stroke-width:1;"/><text fill="#000000" font-family="sans-serif" font-size="14" lengthAdjust="spacing" textLength="97.4941" x="497.49" y="636.4889">MostrarLista()</text></g><!--link Frame to Pixel--><g id="link_Frame_Pixel"><path codeLine="60" d="M69,421.5069 C64.17,433.7369 59.91,446.6269 57.23,459.1569 C51.76,484.7169 50.3683,507.4174 50.7083,532.3874 " fill="#FFFFFF" fill-opacity="0.00000" id="Frame-to-Pixel" style="stroke:#181818;stroke-width:1;"/><polygon fill="#181818" points="50.79,538.3869,54.6671,529.3332,50.7219,533.3873,46.6678,529.4422,50.79,538.3869" style="stroke:#181818;stroke-width:1;"/><text fill="#000000" font-family="sans-serif" font-size="13" lengthAdjust="spacing" textLength="24.2544" x="58.23" y="472.2238">Usa</text></g><!--link Buffer to Frame--><g id="link_Buffer_Frame"><path codeLine="61" d="M169.75,505.9569 C156.66,477.5569 145.1923,452.6556 133.2823,426.8256 " fill="#FFFFFF" fill-opacity="0.00000" id="Buffer-to-Frame" style="stroke:#181818;stroke-width:1;"/><polygon fill="#181818" points="130.77,421.3769,130.9061,431.2248,132.8636,425.9174,138.171,427.875,130.77,421.3769" style="stroke:#181818;stroke-width:1;"/><text fill="#000000" font-family="sans-serif" font-size="13" lengthAdjust="spacing" textLength="24.2544" x="156.23" y="472.2238">Usa</text></g><!--link Frame to Buffer--><!--link InputManager to Buffer--><g id="link_InputManager_Buffer"><path codeLine="62" d="M261.38,777.3469 C255.49,755.7569 249.5085,733.8355 242.1785,706.9555 " fill="#FFFFFF" fill-opacity="0.00000" id="InputManager-to-Buffer" style="stroke:#181818;stroke-width:1;"/><polygon fill="#181818" points="240.6,701.1669,239.1087,710.9022,241.9154,705.9907,246.8269,708.7975,240.6,701.1669" style="stroke:#181818;stroke-width:1;"/><text fill="#000000" font-family="sans-serif" font-size="13" lengthAdjust="spacing" textLength="24.2544" x="252.23" y="743.9038">Usa</text></g><!--link Buffer to InputManager--><!--link Nodo to Buffer--><g id="link_Nodo_Buffer"><path codeLine="63" d="M291.99,206.4869 C278.75,230.4169 265.82,257.2469 257.23,283.3769 C233.45,355.7369 223.2525,435.4932 218.4925,499.8632 " fill="#FFFFFF" fill-opacity="0.00000" id="Nodo-to-Buffer" style="stroke:#181818;stroke-width:1;"/><polygon fill="#181818" points="218.05,505.8469,222.7028,497.1664,218.4187,500.8605,214.7246,496.5764,218.05,505.8469" style="stroke:#181818;stroke-width:1;"/><text fill="#000000" font-family="sans-serif" font-size="13" lengthAdjust="spacing" textLength="58.2144" x="258.23" y="360.8338">Contiene</text></g><!--link Nodo to InputManager--><g id="link_Nodo_InputManager"><path codeLine="64" d="M343.99,206.4869 C343.73,318.1569 338.5,526.4869 307.23,700.8369 C302.56,726.8769 295.9673,749.6481 288.5073,771.8981 " fill="#FFFFFF" fill-opacity="0.00000" id="Nodo-to-InputManager" style="stroke:#181818;stroke-width:1;"/><polygon fill="#181818" points="286.6,777.5869,293.2535,770.3253,288.1894,772.8462,285.6685,767.7822,286.6,777.5869" style="stroke:#181818;stroke-width:1;"/></g><!--link Nodo to Frame--><g id="link_Nodo_Frame"><path codeLine="65" d="M237.47,206.6169 C225.99,216.3469 214.69,226.3769 204.23,236.3769 C186.57,253.2769 172.5853,268.3404 156.7653,286.7104 " fill="#FFFFFF" fill-opacity="0.00000" id="Nodo-to-Frame" style="stroke:#181818;stroke-width:1;"/><polygon fill="#181818" points="152.85,291.2569,161.754,287.0474,156.1128,287.4682,155.692,281.827,152.85,291.2569" style="stroke:#181818;stroke-width:1;"/></g><!--link Lista to Nodo--><g id="link_Lista_Nodo"><path codeLine="66" d="M493.61,283.0769 C482.62,267.2269 470.5,250.8669 458.23,236.3769 C449.84,226.4669 444.83,220.7912 435.42,211.1012 " fill="#FFFFFF" fill-opacity="0.00000" id="Lista-to-Nodo" style="stroke:#181818;stroke-width:1;"/><polygon fill="#181818" points="431.24,206.7969,434.6404,216.0401,434.7233,210.3839,440.3796,210.4668,431.24,206.7969" style="stroke:#181818;stroke-width:1;"/><text fill="#000000" font-family="sans-serif" font-size="13" lengthAdjust="spacing" textLength="58.2144" x="471.23" y="249.4438">Contiene</text></g><!--link Nodo to Lista--><!--link Renderer to Lista--><g id="link_Renderer_Lista"><path codeLine="67" d="M539.23,562.7269 C539.23,526.7969 539.23,479.0369 539.23,435.5169 " fill="#FFFFFF" fill-opacity="0.00000" id="Renderer-to-Lista" style="stroke:#181818;stroke-width:1;"/><polygon fill="#181818" points="539.23,429.5169,535.23,438.5169,539.23,434.5169,543.23,438.5169,539.23,429.5169" style="stroke:#181818;stroke-width:1;"/><text fill="#000000" font-family="sans-serif" font-size="13" lengthAdjust="spacing" textLength="24.2544" x="540.23" y="472.2238">Usa</text></g><!--link Lista to Renderer--><!--SRC=[XL9DRm8X4BtxAqXFDSqUx74FJQgnJPDgcbfFnWFT7LSQ10Ei_Kh_Uu4116rIBZ3lmRnvCnXcE93f6wY6DKoIqM3GSAerUM8VmCdtWDXLaGzI4oPCY3wBg95SgWov8XhCn86Nmm1qH-0d2jmfkeCaiFToDSe634jOhLVha6O1ncCfx_qfCE50bS-SIutxpGPKqlByo8hvGmvUdu2tZM47m4fpom_2W3fGNhXUl3FJRADug4VkNfd033gX2qELoIAvJy6Bx3eEPmuUnButCofeb_buHLjry1SoBFSjDH3RaZBCPIlJo_4VBwjIf2x2l4b5ZwxiDMOOvUphw5hr8ftBSiuwfVCQ7vasD1NfAjPMpEtf2z2sTV6bS7QG6zhz85aRnM4d3_3F9ViX_GqxlM6u4PYDL5FQR3rBxVYbS7vxuO-dKhsuvTPMH9EHPn0jg6nKwAp6FRoUIMqKLHx2Bc1xILNTXBzVaukbfXU3C2_Fn1aWKypCqMcqoFknb_X42iD0G4OMequeJXbBT_4SsvabI3uT7JsYS31JhRQiRK6iKmdHJCxyeP-nsBHGHuP7zLy0]--></g></svg>