<svg xmlns="http://www.w3.org/2000/svg" xmlns:xlink="http://www.w3.org/1999/xlink" contentStyleType="text/css" data-diagram-type="CLASS" height="1012px" preserveAspectRatio="none" style="width:270px;height:1012px;background:#FFFFFF;" version="1.1" viewBox="0 0 270 1012" width="270px" zoomAndPan="magnify"><defs/><g><!--class Main--><g id="elem_Main"><rect codeLine="1" fill="#F1F1F1" height="64.2969" id="Main" rx="2.5" ry="2.5" style="stroke:#181818;stroke-width:0.5;" width="198.3682" x="31.5" y="7"/><ellipse cx="109.7236" cy="23" fill="#ADD1B2" rx="11" ry="11" style="stroke:#181818;stroke-width:1;"/><path d="M112.6924,28.6406 Q112.1143,28.9375 111.4736,29.0781 Q110.833,29.2344 110.1299,29.2344 Q107.6299,29.2344 106.3018,27.5938 Q104.9893,25.9375 104.9893,22.8125 Q104.9893,19.6875 106.3018,18.0313 Q107.6299,16.375 110.1299,16.375 Q110.833,16.375 111.4736,16.5313 Q112.1299,16.6875 112.6924,16.9844 L112.6924,19.7031 Q112.0674,19.125 111.4736,18.8594 Q110.8799,18.5781 110.2549,18.5781 Q108.9111,18.5781 108.2236,19.6563 Q107.5361,20.7188 107.5361,22.8125 Q107.5361,24.9063 108.2236,25.9844 Q108.9111,27.0469 110.2549,27.0469 Q110.8799,27.0469 111.4736,26.7813 Q112.0674,26.5 112.6924,25.9219 L112.6924,28.6406 Z " fill="#000000"/><text fill="#000000" font-family="sans-serif" font-size="14" lengthAdjust="spacing" textLength="33.4209" x="130.2236" y="27.8467">Main</text><line style="stroke:#181818;stroke-width:0.5;" x1="32.5" x2="228.8682" y1="39" y2="39"/><line style="stroke:#181818;stroke-width:0.5;" x1="32.5" x2="228.8682" y1="47" y2="47"/><ellipse cx="42.5" cy="60.6484" fill="#84BE84" rx="3" ry="3" style="stroke:#038048;stroke-width:1;"/><text fill="#000000" font-family="sans-serif" font-size="14" lengthAdjust="spacing" textLength="172.3682" x="51.5" y="63.9951">main(String[] args): void</text></g><!--class Pantalla--><g id="elem_Pantalla"><rect codeLine="5" fill="#F1F1F1" height="129.4844" id="Pantalla" rx="2.5" ry="2.5" style="stroke:#181818;stroke-width:0.5;" width="133.7617" x="63.8" y="148.3"/><ellipse cx="99.2482" cy="164.3" fill="#ADD1B2" rx="11" ry="11" style="stroke:#181818;stroke-width:1;"/><path d="M102.2169,169.9406 Q101.6388,170.2375 100.9982,170.3781 Q100.3576,170.5344 99.6544,170.5344 Q97.1544,170.5344 95.8263,168.8938 Q94.5138,167.2375 94.5138,164.1125 Q94.5138,160.9875 95.8263,159.3313 Q97.1544,157.675 99.6544,157.675 Q100.3576,157.675 100.9982,157.8313 Q101.6544,157.9875 102.2169,158.2844 L102.2169,161.0031 Q101.5919,160.425 100.9982,160.1594 Q100.4044,159.8781 99.7794,159.8781 Q98.4357,159.8781 97.7482,160.9563 Q97.0607,162.0188 97.0607,164.1125 Q97.0607,166.2063 97.7482,167.2844 Q98.4357,168.3469 99.7794,168.3469 Q100.4044,168.3469 100.9982,168.0813 Q101.5919,167.8 102.2169,167.2219 L102.2169,169.9406 Z " fill="#000000"/><text fill="#000000" font-family="sans-serif" font-size="14" lengthAdjust="spacing" textLength="56.3213" x="117.7922" y="169.1467">Pantalla</text><line style="stroke:#181818;stroke-width:0.5;" x1="64.8" x2="196.5617" y1="180.3" y2="180.3"/><rect fill="#FFFFFF" fill-opacity="0.00000" height="6" style="stroke:#C82930;stroke-width:1;" width="6" x="71.8" y="190.9484"/><text fill="#000000" font-family="sans-serif" font-size="14" lengthAdjust="spacing" textLength="106.7158" x="83.8" y="197.2951">buffer: Frame[]</text><rect fill="#FFFFFF" fill-opacity="0.00000" height="6" style="stroke:#C82930;stroke-width:1;" width="6" x="71.8" y="207.2453"/><text fill="#000000" font-family="sans-serif" font-size="14" lengthAdjust="spacing" textLength="107.7617" x="83.8" y="213.592">grafica: Grafica</text><line style="stroke:#181818;stroke-width:0.5;" x1="64.8" x2="196.5617" y1="220.8938" y2="220.8938"/><ellipse cx="74.8" cy="234.5422" fill="#84BE84" rx="3" ry="3" style="stroke:#038048;stroke-width:1;"/><text fill="#000000" font-family="sans-serif" font-size="14" lengthAdjust="spacing" textLength="67.2451" x="83.8" y="237.8889">Pantalla()</text><ellipse cx="74.8" cy="250.8391" fill="#84BE84" rx="3" ry="3" style="stroke:#038048;stroke-width:1;"/><text fill="#000000" font-family="sans-serif" font-size="14" lengthAdjust="spacing" textLength="104.7949" x="83.8" y="254.1857">mostrar(): void</text><rect fill="#F24D5C" height="6" style="stroke:#C82930;stroke-width:1;" width="6" x="71.8" y="264.1359"/><text fill="#000000" font-family="sans-serif" font-size="14" lengthAdjust="spacing" textLength="91.9639" x="83.8" y="270.4826">pause(): void</text></g><!--class Grafica--><g id="elem_Grafica"><rect codeLine="13" fill="#F1F1F1" height="113.1875" id="Grafica" rx="2.5" ry="2.5" style="stroke:#181818;stroke-width:0.5;" width="241.1201" x="10.12" y="354.78"/><ellipse cx="101.2909" cy="370.78" fill="#ADD1B2" rx="11" ry="11" style="stroke:#181818;stroke-width:1;"/><path d="M104.2596,376.4206 Q103.6815,376.7175 103.0409,376.8581 Q102.4003,377.0144 101.6971,377.0144 Q99.1971,377.0144 97.869,375.3738 Q96.5565,373.7175 96.5565,370.5925 Q96.5565,367.4675 97.869,365.8113 Q99.1971,364.155 101.6971,364.155 Q102.4003,364.155 103.0409,364.3113 Q103.6971,364.4675 104.2596,364.7644 L104.2596,367.4831 Q103.6346,366.905 103.0409,366.6394 Q102.4471,366.3581 101.8221,366.3581 Q100.4784,366.3581 99.7909,367.4363 Q99.1034,368.4988 99.1034,370.5925 Q99.1034,372.6863 99.7909,373.7644 Q100.4784,374.8269 101.8221,374.8269 Q102.4471,374.8269 103.0409,374.5613 Q103.6346,374.28 104.2596,373.7019 L104.2596,376.4206 Z " fill="#000000"/><text fill="#000000" font-family="sans-serif" font-size="14" lengthAdjust="spacing" textLength="50.2783" x="121.7909" y="375.6267">Grafica</text><line style="stroke:#181818;stroke-width:0.5;" x1="11.12" x2="250.2401" y1="386.78" y2="386.78"/><rect fill="#FFFFFF" fill-opacity="0.00000" height="6" style="stroke:#C82930;stroke-width:1;" width="6" x="18.12" y="397.4284"/><text fill="#000000" font-family="sans-serif" font-size="14" lengthAdjust="spacing" textLength="203.9229" x="30.12" y="403.7751">colaFrames: Queue&lt;Frame&gt;</text><line style="stroke:#181818;stroke-width:0.5;" x1="11.12" x2="250.2401" y1="411.0769" y2="411.0769"/><ellipse cx="21.12" cy="424.7253" fill="#84BE84" rx="3" ry="3" style="stroke:#038048;stroke-width:1;"/><text fill="#000000" font-family="sans-serif" font-size="14" lengthAdjust="spacing" textLength="61.2021" x="30.12" y="428.072">Grafica()</text><ellipse cx="21.12" cy="441.0222" fill="#84BE84" rx="3" ry="3" style="stroke:#038048;stroke-width:1;"/><text fill="#000000" font-family="sans-serif" font-size="14" lengthAdjust="spacing" textLength="156.7275" x="30.12" y="444.3689">generarFrames(): void</text><ellipse cx="21.12" cy="457.3191" fill="#84BE84" rx="3" ry="3" style="stroke:#038048;stroke-width:1;"/><text fill="#000000" font-family="sans-serif" font-size="14" lengthAdjust="spacing" textLength="215.1201" x="30.12" y="460.6657">devolverDosFrames(): Frame[]</text></g><!--class Frame--><g id="elem_Frame"><rect codeLine="20" fill="#F1F1F1" height="113.1875" id="Frame" rx="2.5" ry="2.5" style="stroke:#181818;stroke-width:0.5;" width="210.9805" x="25.19" y="544.97"/><ellipse cx="104.1109" cy="560.97" fill="#ADD1B2" rx="11" ry="11" style="stroke:#181818;stroke-width:1;"/><path d="M107.0796,566.6106 Q106.5015,566.9075 105.8609,567.0481 Q105.2203,567.2044 104.5171,567.2044 Q102.0171,567.2044 100.689,565.5638 Q99.3765,563.9075 99.3765,560.7825 Q99.3765,557.6575 100.689,556.0013 Q102.0171,554.345 104.5171,554.345 Q105.2203,554.345 105.8609,554.5013 Q106.5171,554.6575 107.0796,554.9544 L107.0796,557.6731 Q106.4546,557.095 105.8609,556.8294 Q105.2671,556.5481 104.6421,556.5481 Q103.2984,556.5481 102.6109,557.6263 Q101.9234,558.6888 101.9234,560.7825 Q101.9234,562.8763 102.6109,563.9544 Q103.2984,565.0169 104.6421,565.0169 Q105.2671,565.0169 105.8609,564.7513 Q106.4546,564.47 107.0796,563.8919 L107.0796,566.6106 Z " fill="#000000"/><text fill="#000000" font-family="sans-serif" font-size="14" lengthAdjust="spacing" textLength="44.6387" x="124.6109" y="565.8167">Frame</text><line style="stroke:#181818;stroke-width:0.5;" x1="26.19" x2="235.1705" y1="576.97" y2="576.97"/><rect fill="#FFFFFF" fill-opacity="0.00000" height="6" style="stroke:#C82930;stroke-width:1;" width="6" x="33.19" y="587.6184"/><text fill="#000000" font-family="sans-serif" font-size="14" lengthAdjust="spacing" textLength="113.6064" x="45.19" y="593.9651">pixeles: Pixel[][]</text><line style="stroke:#181818;stroke-width:0.5;" x1="26.19" x2="235.1705" y1="601.2669" y2="601.2669"/><ellipse cx="36.19" cy="614.9153" fill="#84BE84" rx="3" ry="3" style="stroke:#038048;stroke-width:1;"/><text fill="#000000" font-family="sans-serif" font-size="14" lengthAdjust="spacing" textLength="55.5625" x="45.19" y="618.262">Frame()</text><ellipse cx="36.19" cy="631.2122" fill="#84BE84" rx="3" ry="3" style="stroke:#038048;stroke-width:1;"/><text fill="#000000" font-family="sans-serif" font-size="14" lengthAdjust="spacing" textLength="152.7148" x="45.19" y="634.5589">rellenarPixeles(): void</text><ellipse cx="36.19" cy="647.5091" fill="#84BE84" rx="3" ry="3" style="stroke:#038048;stroke-width:1;"/><text fill="#000000" font-family="sans-serif" font-size="14" lengthAdjust="spacing" textLength="184.9805" x="45.19" y="650.8557">devolverPixeles(): Pixel[][]</text></g><!--class Pixel--><g id="elem_Pixel"><rect codeLine="27" fill="#F1F1F1" height="96.8906" id="Pixel" rx="2.5" ry="2.5" style="stroke:#181818;stroke-width:0.5;" width="180.0889" x="40.64" y="735.16"/><ellipse cx="109.8744" cy="751.16" fill="#ADD1B2" rx="11" ry="11" style="stroke:#181818;stroke-width:1;"/><path d="M112.8431,756.8006 Q112.265,757.0975 111.6244,757.2381 Q110.9838,757.3944 110.2806,757.3944 Q107.7806,757.3944 106.4525,755.7538 Q105.14,754.0975 105.14,750.9725 Q105.14,747.8475 106.4525,746.1913 Q107.7806,744.535 110.2806,744.535 Q110.9838,744.535 111.6244,744.6913 Q112.2806,744.8475 112.8431,745.1444 L112.8431,747.8631 Q112.2181,747.285 111.6244,747.0194 Q111.0306,746.7381 110.4056,746.7381 Q109.0619,746.7381 108.3744,747.8163 Q107.6869,748.8788 107.6869,750.9725 Q107.6869,753.0663 108.3744,754.1444 Q109.0619,755.2069 110.4056,755.2069 Q111.0306,755.2069 111.6244,754.9413 Q112.2181,754.66 112.8431,754.0819 L112.8431,756.8006 Z " fill="#000000"/><text fill="#000000" font-family="sans-serif" font-size="14" lengthAdjust="spacing" textLength="33.1201" x="130.3744" y="756.0067">Pixel</text><line style="stroke:#181818;stroke-width:0.5;" x1="41.64" x2="219.7289" y1="767.16" y2="767.16"/><rect fill="#FFFFFF" fill-opacity="0.00000" height="6" style="stroke:#C82930;stroke-width:1;" width="6" x="48.64" y="777.8084"/><text fill="#000000" font-family="sans-serif" font-size="14" lengthAdjust="spacing" textLength="80.1924" x="60.64" y="784.1551">color: Color</text><line style="stroke:#181818;stroke-width:0.5;" x1="41.64" x2="219.7289" y1="791.4569" y2="791.4569"/><ellipse cx="51.64" cy="805.1053" fill="#84BE84" rx="3" ry="3" style="stroke:#038048;stroke-width:1;"/><text fill="#000000" font-family="sans-serif" font-size="14" lengthAdjust="spacing" textLength="44.0439" x="60.64" y="808.452">Pixel()</text><ellipse cx="51.64" cy="821.4022" fill="#84BE84" rx="3" ry="3" style="stroke:#038048;stroke-width:1;"/><text fill="#000000" font-family="sans-serif" font-size="14" lengthAdjust="spacing" textLength="154.0889" x="60.64" y="824.7489">devolverColor(): Color</text></g><!--class Color--><g id="elem_Color"><rect codeLine="33" fill="#F1F1F1" height="96.8906" id="Color" rx="2.5" ry="2.5" style="stroke:#181818;stroke-width:0.5;" width="247.3613" x="7" y="909.05"/><ellipse cx="108.1548" cy="925.05" fill="#ADD1B2" rx="11" ry="11" style="stroke:#181818;stroke-width:1;"/><path d="M111.1235,930.6906 Q110.5454,930.9875 109.9048,931.1281 Q109.2642,931.2844 108.561,931.2844 Q106.061,931.2844 104.7329,929.6438 Q103.4204,927.9875 103.4204,924.8625 Q103.4204,921.7375 104.7329,920.0813 Q106.061,918.425 108.561,918.425 Q109.2642,918.425 109.9048,918.5813 Q110.561,918.7375 111.1235,919.0344 L111.1235,921.7531 Q110.4985,921.175 109.9048,920.9094 Q109.311,920.6281 108.686,920.6281 Q107.3423,920.6281 106.6548,921.7063 Q105.9673,922.7688 105.9673,924.8625 Q105.9673,926.9563 106.6548,928.0344 Q107.3423,929.0969 108.686,929.0969 Q109.311,929.0969 109.9048,928.8313 Q110.4985,928.55 111.1235,927.9719 L111.1235,930.6906 Z " fill="#000000"/><text fill="#000000" font-family="sans-serif" font-size="14" lengthAdjust="spacing" textLength="36.5518" x="128.6548" y="929.8967">Color</text><line style="stroke:#181818;stroke-width:0.5;" x1="8" x2="253.3613" y1="941.05" y2="941.05"/><rect fill="#FFFFFF" fill-opacity="0.00000" height="6" style="stroke:#C82930;stroke-width:1;" width="6" x="15" y="951.6984"/><text fill="#000000" font-family="sans-serif" font-size="14" lengthAdjust="spacing" textLength="145.5713" x="27" y="958.0451">representacion: char</text><line style="stroke:#181818;stroke-width:0.5;" x1="8" x2="253.3613" y1="965.3469" y2="965.3469"/><ellipse cx="18" cy="978.9953" fill="#84BE84" rx="3" ry="3" style="stroke:#038048;stroke-width:1;"/><text fill="#000000" font-family="sans-serif" font-size="14" lengthAdjust="spacing" textLength="47.4756" x="27" y="982.342">Color()</text><ellipse cx="18" cy="995.2922" fill="#84BE84" rx="3" ry="3" style="stroke:#038048;stroke-width:1;"/><text fill="#000000" font-family="sans-serif" font-size="14" lengthAdjust="spacing" textLength="221.3613" x="27" y="998.6389">devolverRepresentacion(): char</text></g><!--link Main to Pantalla--><g id="link_Main_Pantalla"><path codeLine="39" d="M130.68,71.68 C130.68,93 130.68,115.91 130.68,141.96 " fill="#FFFFFF" fill-opacity="0.00000" id="Main-to-Pantalla" style="stroke:#181818;stroke-width:1;"/><polygon fill="#181818" points="130.68,147.96,134.68,138.96,130.68,142.96,126.68,138.96,130.68,147.96" style="stroke:#181818;stroke-width:1;"/><text fill="#000000" font-family="sans-serif" font-size="13" lengthAdjust="spacing" textLength="51.5493" x="131.68" y="114.3669">Llama a</text></g><!--link Pantalla to Grafica--><g id="link_Pantalla_Grafica"><path codeLine="40" d="M130.68,278.06 C130.68,302.68 130.68,324.57 130.68,348.38 " fill="#FFFFFF" fill-opacity="0.00000" id="Pantalla-to-Grafica" style="stroke:#181818;stroke-width:1;"/><polygon fill="#181818" points="130.68,354.38,134.68,345.38,130.68,349.38,126.68,345.38,130.68,354.38" style="stroke:#181818;stroke-width:1;"/><text fill="#000000" font-family="sans-serif" font-size="13" lengthAdjust="spacing" textLength="58.2144" x="131.68" y="320.8469">Contiene</text></g><!--link Grafica to Frame--><g id="link_Grafica_Frame"><path codeLine="41" d="M130.68,468.33 C130.68,492.38 130.68,514.44 130.68,538.5 " fill="#FFFFFF" fill-opacity="0.00000" id="Grafica-to-Frame" style="stroke:#181818;stroke-width:1;"/><polygon fill="#181818" points="130.68,544.5,134.68,535.5,130.68,539.5,126.68,535.5,130.68,544.5" style="stroke:#181818;stroke-width:1;"/><text fill="#000000" font-family="sans-serif" font-size="13" lengthAdjust="spacing" textLength="115.5591" x="131.68" y="511.0369">Tiene una cola de</text></g><!--link Frame to Pixel--><g id="link_Frame_Pixel"><path codeLine="42" d="M130.68,658.54 C130.68,683.01 130.68,705.41 130.68,728.85 " fill="#FFFFFF" fill-opacity="0.00000" id="Frame-to-Pixel" style="stroke:#181818;stroke-width:1;"/><polygon fill="#181818" points="130.68,734.85,134.68,725.85,130.68,729.85,126.68,725.85,130.68,734.85" style="stroke:#181818;stroke-width:1;"/><text fill="#000000" font-family="sans-serif" font-size="13" lengthAdjust="spacing" textLength="130.3872" x="131.68" y="701.2269">Tiene una matriz de</text></g><!--link Pixel to Color--><g id="link_Pixel_Color"><path codeLine="43" d="M130.68,832.49 C130.68,856.23 130.68,878.83 130.68,902.57 " fill="#FFFFFF" fill-opacity="0.00000" id="Pixel-to-Color" style="stroke:#181818;stroke-width:1;"/><polygon fill="#181818" points="130.68,908.57,134.68,899.57,130.68,903.57,126.68,899.57,130.68,908.57" style="stroke:#181818;stroke-width:1;"/><text fill="#000000" font-family="sans-serif" font-size="13" lengthAdjust="spacing" textLength="56.3989" x="131.68" y="875.1169">Tiene un</text></g><!--SRC=[RP9DRuCm38Rl_0gB4rNLFu2cNfZMooPr7pV4mGENHGf9bG2QDks_Byu756rSIEpNxoCxRYLQ2qyer7S6xjiFxbYyZaQelcu0JMzt9SnQTDbFbhLUVKOrefG8eUJmFbqkP4fuC3XGtOHWR_0YMYpX50x1FPKMkqZJTZHeYiJmfLUSB1L_iD4eKLijqHDj2SyJJNJdRyTW7CM9qvCYnmdw3MtVqQpbJEPUspMTMbdWFf3GL_59ahbdFjHDx7dlHGbfI4fIQCv1_3_q9hbwhOFcq4s_sWsvubyS9gSJBZdwFFi5uUBbhydBqDMG9VSMhT2gXFO3esSittg-REHixWkSDoyE70x7PITAo1yb3WYOPykUiE2KzY6lj1g5UuyyYp5E-z6vv1jdO588_BxGELKOlOTmmnlHW6vJlxmi38jbLPZK8ij_0G00]--></g></svg>