<svg xmlns="http://www.w3.org/2000/svg" xmlns:xlink="http://www.w3.org/1999/xlink" contentStyleType="text/css" height="689px" preserveAspectRatio="none" style="width:559px;height:689px;background:#FFFFFF;" version="1.1" viewBox="0 0 559 689" width="559px" zoomAndPan="magnify"><defs/><g><!--class Pantalla--><g id="elem_Pantalla"><rect codeLine="1" fill="#F1F1F1" height="80.5938" id="Pantalla" rx="2.5" ry="2.5" style="stroke:#181818;stroke-width:0.5;" width="119.8574" x="219.5" y="131"/><ellipse cx="248.6913" cy="147" fill="#ADD1B2" rx="11" ry="11" style="stroke:#181818;stroke-width:1;"/><path d="M251.66,152.6406 Q251.0819,152.9375 250.4413,153.0781 Q249.8006,153.2344 249.0975,153.2344 Q246.5975,153.2344 245.2694,151.5938 Q243.9569,149.9375 243.9569,146.8125 Q243.9569,143.6875 245.2694,142.0313 Q246.5975,140.375 249.0975,140.375 Q249.8006,140.375 250.4413,140.5313 Q251.0975,140.6875 251.66,140.9844 L251.66,143.7031 Q251.035,143.125 250.4413,142.8594 Q249.8475,142.5781 249.2225,142.5781 Q247.8788,142.5781 247.1913,143.6563 Q246.5038,144.7188 246.5038,146.8125 Q246.5038,148.9063 247.1913,149.9844 Q247.8788,151.0469 249.2225,151.0469 Q249.8475,151.0469 250.4413,150.7813 Q251.035,150.5 251.66,149.9219 L251.66,152.6406 Z " fill="#000000"/><text fill="#000000" font-family="sans-serif" font-size="14" lengthAdjust="spacing" textLength="56.3213" x="265.8449" y="151.8467">Pantalla</text><line style="stroke:#181818;stroke-width:0.5;" x1="220.5" x2="338.3574" y1="163" y2="163"/><rect fill="none" height="6" style="stroke:#C82930;stroke-width:1;" width="6" x="227.5" y="173.6484"/><text fill="#000000" font-family="sans-serif" font-size="14" lengthAdjust="spacing" textLength="93.8574" x="239.5" y="179.9951">buffer: Buffer</text><line style="stroke:#181818;stroke-width:0.5;" x1="220.5" x2="338.3574" y1="187.2969" y2="187.2969"/><ellipse cx="230.5" cy="200.9453" fill="#84BE84" rx="3" ry="3" style="stroke:#038048;stroke-width:1;"/><text fill="#000000" font-family="sans-serif" font-size="14" lengthAdjust="spacing" textLength="66.001" x="239.5" y="204.292">mostrar()</text></g><!--class Buffer--><g id="elem_Buffer"><rect codeLine="6" fill="#F1F1F1" height="113.1875" id="Buffer" rx="2.5" ry="2.5" style="stroke:#181818;stroke-width:0.5;" width="139.1348" x="210" y="272"/><ellipse cx="253.9938" cy="288" fill="#ADD1B2" rx="11" ry="11" style="stroke:#181818;stroke-width:1;"/><path d="M256.9625,293.6406 Q256.3844,293.9375 255.7438,294.0781 Q255.1032,294.2344 254.4,294.2344 Q251.9,294.2344 250.5719,292.5938 Q249.2594,290.9375 249.2594,287.8125 Q249.2594,284.6875 250.5719,283.0313 Q251.9,281.375 254.4,281.375 Q255.1032,281.375 255.7438,281.5313 Q256.4,281.6875 256.9625,281.9844 L256.9625,284.7031 Q256.3375,284.125 255.7438,283.8594 Q255.15,283.5781 254.525,283.5781 Q253.1813,283.5781 252.4938,284.6563 Q251.8063,285.7188 251.8063,287.8125 Q251.8063,289.9063 252.4938,290.9844 Q253.1813,292.0469 254.525,292.0469 Q255.15,292.0469 255.7438,291.7813 Q256.3375,291.5 256.9625,290.9219 L256.9625,293.6406 Z " fill="#000000"/><text fill="#000000" font-family="sans-serif" font-size="14" lengthAdjust="spacing" textLength="42.7041" x="274.4369" y="292.8467">Buffer</text><line style="stroke:#181818;stroke-width:0.5;" x1="211" x2="348.1348" y1="304" y2="304"/><rect fill="none" height="6" style="stroke:#C82930;stroke-width:1;" width="6" x="218" y="314.6484"/><text fill="#000000" font-family="sans-serif" font-size="14" lengthAdjust="spacing" textLength="113.1348" x="230" y="320.9951">frame1: Frame1</text><rect fill="none" height="6" style="stroke:#C82930;stroke-width:1;" width="6" x="218" y="330.9453"/><text fill="#000000" font-family="sans-serif" font-size="14" lengthAdjust="spacing" textLength="113.1348" x="230" y="337.292">frame2: Frame2</text><line style="stroke:#181818;stroke-width:0.5;" x1="211" x2="348.1348" y1="344.5938" y2="344.5938"/><ellipse cx="221" cy="358.2422" fill="#84BE84" rx="3" ry="3" style="stroke:#038048;stroke-width:1;"/><text fill="#000000" font-family="sans-serif" font-size="14" lengthAdjust="spacing" textLength="66.459" x="230" y="361.5889">alternar()</text><ellipse cx="221" cy="374.5391" fill="#84BE84" rx="3" ry="3" style="stroke:#038048;stroke-width:1;"/><text fill="#000000" font-family="sans-serif" font-size="14" lengthAdjust="spacing" textLength="100.2217" x="230" y="377.8857">actualizarPix()</text></g><!--class Frame1--><g id="elem_Frame1"><rect codeLine="13" fill="#F1F1F1" height="96.8906" id="Frame1" rx="2.5" ry="2.5" style="stroke:#181818;stroke-width:0.5;" width="255.1953" x="7" y="445"/><ellipse cx="103.5747" cy="461" fill="#ADD1B2" rx="11" ry="11" style="stroke:#181818;stroke-width:1;"/><path d="M106.5435,466.6406 Q105.9653,466.9375 105.3247,467.0781 Q104.6841,467.2344 103.981,467.2344 Q101.481,467.2344 100.1528,465.5938 Q98.8403,463.9375 98.8403,460.8125 Q98.8403,457.6875 100.1528,456.0313 Q101.481,454.375 103.981,454.375 Q104.6841,454.375 105.3247,454.5313 Q105.981,454.6875 106.5435,454.9844 L106.5435,457.7031 Q105.9185,457.125 105.3247,456.8594 Q104.731,456.5781 104.106,456.5781 Q102.7622,456.5781 102.0747,457.6563 Q101.3872,458.7188 101.3872,460.8125 Q101.3872,462.9063 102.0747,463.9844 Q102.7622,465.0469 104.106,465.0469 Q104.731,465.0469 105.3247,464.7813 Q105.9185,464.5 106.5435,463.9219 L106.5435,466.6406 Z " fill="#000000"/><text fill="#000000" font-family="sans-serif" font-size="14" lengthAdjust="spacing" textLength="53.5459" x="124.0747" y="465.8467">Frame1</text><line style="stroke:#181818;stroke-width:0.5;" x1="8" x2="261.1953" y1="477" y2="477"/><rect fill="none" height="6" style="stroke:#C82930;stroke-width:1;" width="6" x="15" y="487.6484"/><text fill="#000000" font-family="sans-serif" font-size="14" lengthAdjust="spacing" textLength="113.6064" x="27" y="493.9951">pixeles: Pixel[][]</text><line style="stroke:#181818;stroke-width:0.5;" x1="8" x2="261.1953" y1="501.2969" y2="501.2969"/><ellipse cx="18" cy="514.9453" fill="#84BE84" rx="3" ry="3" style="stroke:#038048;stroke-width:1;"/><text fill="#000000" font-family="sans-serif" font-size="14" lengthAdjust="spacing" textLength="189.6289" x="27" y="518.292">getPixel(x: int, y: int): Pixel</text><ellipse cx="18" cy="531.2422" fill="#84BE84" rx="3" ry="3" style="stroke:#038048;stroke-width:1;"/><text fill="#000000" font-family="sans-serif" font-size="14" lengthAdjust="spacing" textLength="229.1953" x="27" y="534.5889">setPixel(x: int, y: int, color: char)</text></g><!--class Frame2--><g id="elem_Frame2"><rect codeLine="19" fill="#F1F1F1" height="96.8906" id="Frame2" rx="2.5" ry="2.5" style="stroke:#181818;stroke-width:0.5;" width="255.1953" x="297" y="445"/><ellipse cx="393.5747" cy="461" fill="#ADD1B2" rx="11" ry="11" style="stroke:#181818;stroke-width:1;"/><path d="M396.5435,466.6406 Q395.9653,466.9375 395.3247,467.0781 Q394.6841,467.2344 393.981,467.2344 Q391.481,467.2344 390.1528,465.5938 Q388.8403,463.9375 388.8403,460.8125 Q388.8403,457.6875 390.1528,456.0313 Q391.481,454.375 393.981,454.375 Q394.6841,454.375 395.3247,454.5313 Q395.981,454.6875 396.5435,454.9844 L396.5435,457.7031 Q395.9185,457.125 395.3247,456.8594 Q394.731,456.5781 394.106,456.5781 Q392.7622,456.5781 392.0747,457.6563 Q391.3872,458.7188 391.3872,460.8125 Q391.3872,462.9063 392.0747,463.9844 Q392.7622,465.0469 394.106,465.0469 Q394.731,465.0469 395.3247,464.7813 Q395.9185,464.5 396.5435,463.9219 L396.5435,466.6406 Z " fill="#000000"/><text fill="#000000" font-family="sans-serif" font-size="14" lengthAdjust="spacing" textLength="53.5459" x="414.0747" y="465.8467">Frame2</text><line style="stroke:#181818;stroke-width:0.5;" x1="298" x2="551.1953" y1="477" y2="477"/><rect fill="none" height="6" style="stroke:#C82930;stroke-width:1;" width="6" x="305" y="487.6484"/><text fill="#000000" font-family="sans-serif" font-size="14" lengthAdjust="spacing" textLength="113.6064" x="317" y="493.9951">pixeles: Pixel[][]</text><line style="stroke:#181818;stroke-width:0.5;" x1="298" x2="551.1953" y1="501.2969" y2="501.2969"/><ellipse cx="308" cy="514.9453" fill="#84BE84" rx="3" ry="3" style="stroke:#038048;stroke-width:1;"/><text fill="#000000" font-family="sans-serif" font-size="14" lengthAdjust="spacing" textLength="189.6289" x="317" y="518.292">getPixel(x: int, y: int): Pixel</text><ellipse cx="308" cy="531.2422" fill="#84BE84" rx="3" ry="3" style="stroke:#038048;stroke-width:1;"/><text fill="#000000" font-family="sans-serif" font-size="14" lengthAdjust="spacing" textLength="229.1953" x="317" y="534.5889">setPixel(x: int, y: int, color: char)</text></g><!--class Pixel--><g id="elem_Pixel"><rect codeLine="25" fill="#F1F1F1" height="80.5938" id="Pixel" rx="2.5" ry="2.5" style="stroke:#181818;stroke-width:0.5;" width="250.335" x="154.5" y="602"/><ellipse cx="258.8574" cy="618" fill="#ADD1B2" rx="11" ry="11" style="stroke:#181818;stroke-width:1;"/><path d="M261.8262,623.6406 Q261.248,623.9375 260.6074,624.0781 Q259.9668,624.2344 259.2637,624.2344 Q256.7637,624.2344 255.4355,622.5938 Q254.123,620.9375 254.123,617.8125 Q254.123,614.6875 255.4355,613.0313 Q256.7637,611.375 259.2637,611.375 Q259.9668,611.375 260.6074,611.5313 Q261.2637,611.6875 261.8262,611.9844 L261.8262,614.7031 Q261.2012,614.125 260.6074,613.8594 Q260.0137,613.5781 259.3887,613.5781 Q258.0449,613.5781 257.3574,614.6563 Q256.6699,615.7188 256.6699,617.8125 Q256.6699,619.9063 257.3574,620.9844 Q258.0449,622.0469 259.3887,622.0469 Q260.0137,622.0469 260.6074,621.7813 Q261.2012,621.5 261.8262,620.9219 L261.8262,623.6406 Z " fill="#000000"/><text fill="#000000" font-family="sans-serif" font-size="14" lengthAdjust="spacing" textLength="33.1201" x="279.3574" y="622.8467">Pixel</text><line style="stroke:#181818;stroke-width:0.5;" x1="155.5" x2="403.835" y1="634" y2="634"/><rect fill="none" height="6" style="stroke:#C82930;stroke-width:1;" width="6" x="162.5" y="644.6484"/><text fill="#000000" font-family="sans-serif" font-size="14" lengthAdjust="spacing" textLength="74.5459" x="174.5" y="650.9951">color: char</text><line style="stroke:#181818;stroke-width:0.5;" x1="155.5" x2="403.835" y1="658.2969" y2="658.2969"/><ellipse cx="165.5" cy="671.9453" fill="#84BE84" rx="3" ry="3" style="stroke:#038048;stroke-width:1;"/><text fill="#000000" font-family="sans-serif" font-size="14" lengthAdjust="spacing" textLength="224.335" x="174.5" y="675.292">cambiarColor(nuevoColor: char)</text></g><!--class Solucion--><g id="elem_Solucion"><rect codeLine="30" fill="#F1F1F1" height="64.2969" id="Solucion" rx="2.5" ry="2.5" style="stroke:#181818;stroke-width:0.5;" width="91.2402" x="234" y="7"/><ellipse cx="249" cy="23" fill="#ADD1B2" rx="11" ry="11" style="stroke:#181818;stroke-width:1;"/><path d="M251.9688,28.6406 Q251.3906,28.9375 250.75,29.0781 Q250.1094,29.2344 249.4063,29.2344 Q246.9063,29.2344 245.5781,27.5938 Q244.2656,25.9375 244.2656,22.8125 Q244.2656,19.6875 245.5781,18.0313 Q246.9063,16.375 249.4063,16.375 Q250.1094,16.375 250.75,16.5313 Q251.4063,16.6875 251.9688,16.9844 L251.9688,19.7031 Q251.3438,19.125 250.75,18.8594 Q250.1563,18.5781 249.5313,18.5781 Q248.1875,18.5781 247.5,19.6563 Q246.8125,20.7188 246.8125,22.8125 Q246.8125,24.9063 247.5,25.9844 Q248.1875,27.0469 249.5313,27.0469 Q250.1563,27.0469 250.75,26.7813 Q251.3438,26.5 251.9688,25.9219 L251.9688,28.6406 Z " fill="#000000"/><text fill="#000000" font-family="sans-serif" font-size="14" lengthAdjust="spacing" textLength="59.2402" x="263" y="27.8467">Solucion</text><line style="stroke:#181818;stroke-width:0.5;" x1="235" x2="324.2402" y1="39" y2="39"/><line style="stroke:#181818;stroke-width:0.5;" x1="235" x2="324.2402" y1="47" y2="47"/><ellipse cx="245" cy="60.6484" fill="#84BE84" rx="3" ry="3" style="stroke:#038048;stroke-width:1;"/><text fill="#000000" font-family="sans-serif" font-size="14" lengthAdjust="spacing" textLength="45.9033" x="254" y="63.9951">main()</text></g><!--link Pantalla to Buffer--><g id="link_Pantalla_Buffer"><path codeLine="34" d="M279.5,212.01 C279.5,230.22 279.5,246.15 279.5,265.98 " fill="none" id="Pantalla-to-Buffer" style="stroke:#181818;stroke-width:1;"/><polygon fill="#181818" points="279.5,271.98,283.5,262.98,279.5,266.98,275.5,262.98,279.5,271.98" style="stroke:#181818;stroke-width:1;"/></g><!--link Buffer to Frame1--><g id="link_Buffer_Frame1"><path codeLine="35" d="M230,385.14 C212.69,404.6 197.4165,421.7658 180.7565,440.5058 " fill="none" id="Buffer-to-Frame1" style="stroke:#181818;stroke-width:1;"/><polygon fill="#181818" points="176.77,444.99,185.7392,440.9214,180.0921,441.2532,179.7603,435.6061,176.77,444.99" style="stroke:#181818;stroke-width:1;"/></g><!--link Buffer to Frame2--><g id="link_Buffer_Frame2"><path codeLine="36" d="M329,385.14 C346.31,404.6 361.5835,421.7658 378.2435,440.5058 " fill="none" id="Buffer-to-Frame2" style="stroke:#181818;stroke-width:1;"/><polygon fill="#181818" points="382.23,444.99,379.2397,435.6061,378.9079,441.2532,373.2608,440.9214,382.23,444.99" style="stroke:#181818;stroke-width:1;"/></g><!--link Frame1 to Pixel--><g id="link_Frame1_Pixel"><path codeLine="37" d="M181.58,542.23 C200.6,561.51 218.0777,579.2272 236.1977,597.6072 " fill="none" id="Frame1-to-Pixel" style="stroke:#181818;stroke-width:1;"/><polygon fill="#181818" points="240.41,601.88,236.94,592.6627,236.8997,598.3194,231.243,598.2791,240.41,601.88" style="stroke:#181818;stroke-width:1;"/></g><!--link Frame2 to Pixel--><g id="link_Frame2_Pixel"><path codeLine="38" d="M377.42,542.23 C358.4,561.51 340.9223,579.2272 322.8023,597.6072 " fill="none" id="Frame2-to-Pixel" style="stroke:#181818;stroke-width:1;"/><polygon fill="#181818" points="318.59,601.88,327.757,598.2791,322.1003,598.3194,322.06,592.6627,318.59,601.88" style="stroke:#181818;stroke-width:1;"/></g><!--link Solucion to Pantalla--><g id="link_Solucion_Pantalla"><path codeLine="39" d="M279.5,71.26 C279.5,89.05 279.5,105.53 279.5,124.59 " fill="none" id="Solucion-to-Pantalla" style="stroke:#181818;stroke-width:1;stroke-dasharray:7.0,7.0;"/><polygon fill="#181818" points="279.5,130.59,283.5,121.59,279.5,125.59,275.5,121.59,279.5,130.59" style="stroke:#181818;stroke-width:1;"/></g><!--SRC=[nP8n3u8m48Nt_eeR8Gg9Z0mEcZYJE1g7eodQfBIcBGOr_dUXd9KOTrcEV7rzB-qhL-WSLAWzAeNmO31y6THTqmXRmYRC01VG6kSjsYHbJyPus3YjnssDnLQiIjY5EOS5mOAyK7bXTJ0Zm7s7IjxHLhAVHqnUCU8YUw64Aw4QVmx7mv4CJi87bFGbIEsNS0ip9IMft6_L4hXHPZWmFwFz3Y_-51wqCNkc8JkERItHRiU5H7VYQhO_VVP6TLmQJLP3aIZrTCMn-2nRlykcJaT2FNwJWb4f8vaEI1Vr0J4qpzVnVRq0]--></g></svg>