<svg xmlns="http://www.w3.org/2000/svg" xmlns:xlink="http://www.w3.org/1999/xlink" contentStyleType="text/css" data-diagram-type="CLASS" height="1474px" preserveAspectRatio="none" style="width:297px;height:1474px;background:#FFFFFF;" version="1.1" viewBox="0 0 297 1474" width="297px" zoomAndPan="magnify"><defs/><g><!--class Main--><g id="elem_Main"><rect codeLine="1" fill="#F1F1F1" height="64.2969" id="Main" rx="2.5" ry="2.5" style="stroke:#181818;stroke-width:0.5;" width="198.3682" x="49.62" y="7"/><ellipse cx="127.8436" cy="23" fill="#ADD1B2" rx="11" ry="11" style="stroke:#181818;stroke-width:1;"/><path d="M130.8124,28.6406 Q130.2343,28.9375 129.5936,29.0781 Q128.953,29.2344 128.2499,29.2344 Q125.7499,29.2344 124.4218,27.5938 Q123.1093,25.9375 123.1093,22.8125 Q123.1093,19.6875 124.4218,18.0313 Q125.7499,16.375 128.2499,16.375 Q128.953,16.375 129.5936,16.5313 Q130.2499,16.6875 130.8124,16.9844 L130.8124,19.7031 Q130.1874,19.125 129.5936,18.8594 Q128.9999,18.5781 128.3749,18.5781 Q127.0311,18.5781 126.3436,19.6563 Q125.6561,20.7188 125.6561,22.8125 Q125.6561,24.9063 126.3436,25.9844 Q127.0311,27.0469 128.3749,27.0469 Q128.9999,27.0469 129.5936,26.7813 Q130.1874,26.5 130.8124,25.9219 L130.8124,28.6406 Z " fill="#000000"/><text fill="#000000" font-family="sans-serif" font-size="14" lengthAdjust="spacing" textLength="33.4209" x="148.3436" y="27.8467">Main</text><line style="stroke:#181818;stroke-width:0.5;" x1="50.62" x2="246.9882" y1="39" y2="39"/><line style="stroke:#181818;stroke-width:0.5;" x1="50.62" x2="246.9882" y1="47" y2="47"/><ellipse cx="60.62" cy="60.6484" fill="#84BE84" rx="3" ry="3" style="stroke:#038048;stroke-width:1;"/><text fill="#000000" font-family="sans-serif" font-size="14" lengthAdjust="spacing" textLength="172.3682" x="69.62" y="63.9951">main(String[] args): void</text></g><!--class Pantalla--><g id="elem_Pantalla"><rect codeLine="5" fill="#F1F1F1" height="113.1875" id="Pantalla" rx="2.5" ry="2.5" style="stroke:#181818;stroke-width:0.5;" width="133.7617" x="81.92" y="148.3"/><ellipse cx="117.3682" cy="164.3" fill="#ADD1B2" rx="11" ry="11" style="stroke:#181818;stroke-width:1;"/><path d="M120.3369,169.9406 Q119.7588,170.2375 119.1182,170.3781 Q118.4776,170.5344 117.7744,170.5344 Q115.2744,170.5344 113.9463,168.8937 Q112.6338,167.2375 112.6338,164.1125 Q112.6338,160.9875 113.9463,159.3312 Q115.2744,157.675 117.7744,157.675 Q118.4776,157.675 119.1182,157.8312 Q119.7744,157.9875 120.3369,158.2844 L120.3369,161.0031 Q119.7119,160.425 119.1182,160.1594 Q118.5244,159.8781 117.8994,159.8781 Q116.5557,159.8781 115.8682,160.9562 Q115.1807,162.0187 115.1807,164.1125 Q115.1807,166.2062 115.8682,167.2844 Q116.5557,168.3469 117.8994,168.3469 Q118.5244,168.3469 119.1182,168.0812 Q119.7119,167.8 120.3369,167.2219 L120.3369,169.9406 Z " fill="#000000"/><text fill="#000000" font-family="sans-serif" font-size="14" lengthAdjust="spacing" textLength="56.3213" x="135.9122" y="169.1467">Pantalla</text><line style="stroke:#181818;stroke-width:0.5;" x1="82.92" x2="214.6817" y1="180.3" y2="180.3"/><rect fill="#FFFFFF" fill-opacity="0.00000" height="6" style="stroke:#C82930;stroke-width:1;" width="6" x="89.92" y="190.9484"/><text fill="#000000" font-family="sans-serif" font-size="14" lengthAdjust="spacing" textLength="106.7158" x="101.92" y="197.2951">buffer: Frame[]</text><rect fill="#FFFFFF" fill-opacity="0.00000" height="6" style="stroke:#C82930;stroke-width:1;" width="6" x="89.92" y="207.2453"/><text fill="#000000" font-family="sans-serif" font-size="14" lengthAdjust="spacing" textLength="107.7617" x="101.92" y="213.592">grafica: Grafica</text><line style="stroke:#181818;stroke-width:0.5;" x1="82.92" x2="214.6817" y1="220.8937" y2="220.8937"/><ellipse cx="92.92" cy="234.5422" fill="#84BE84" rx="3" ry="3" style="stroke:#038048;stroke-width:1;"/><text fill="#000000" font-family="sans-serif" font-size="14" lengthAdjust="spacing" textLength="104.7949" x="101.92" y="237.8889">mostrar(): void</text><rect fill="#F24D5C" height="6" style="stroke:#C82930;stroke-width:1;" width="6" x="89.92" y="247.8391"/><text fill="#000000" font-family="sans-serif" font-size="14" lengthAdjust="spacing" textLength="91.9639" x="101.92" y="254.1857">pause(): void</text></g><!--class Grafica--><g id="elem_Grafica"><rect codeLine="12" fill="#F1F1F1" height="145.7813" id="Grafica" rx="2.5" ry="2.5" style="stroke:#181818;stroke-width:0.5;" width="241.1201" x="28.24" y="338.49"/><ellipse cx="119.4109" cy="354.49" fill="#ADD1B2" rx="11" ry="11" style="stroke:#181818;stroke-width:1;"/><path d="M122.3796,360.1306 Q121.8015,360.4275 121.1609,360.5681 Q120.5203,360.7244 119.8171,360.7244 Q117.3171,360.7244 115.989,359.0838 Q114.6765,357.4275 114.6765,354.3025 Q114.6765,351.1775 115.989,349.5213 Q117.3171,347.865 119.8171,347.865 Q120.5203,347.865 121.1609,348.0213 Q121.8171,348.1775 122.3796,348.4744 L122.3796,351.1931 Q121.7546,350.615 121.1609,350.3494 Q120.5671,350.0681 119.9421,350.0681 Q118.5984,350.0681 117.9109,351.1463 Q117.2234,352.2088 117.2234,354.3025 Q117.2234,356.3963 117.9109,357.4744 Q118.5984,358.5369 119.9421,358.5369 Q120.5671,358.5369 121.1609,358.2713 Q121.7546,357.99 122.3796,357.4119 L122.3796,360.1306 Z " fill="#000000"/><text fill="#000000" font-family="sans-serif" font-size="14" lengthAdjust="spacing" textLength="50.2783" x="139.9109" y="359.3367">Grafica</text><line style="stroke:#181818;stroke-width:0.5;" x1="29.24" x2="268.3601" y1="370.49" y2="370.49"/><rect fill="#FFFFFF" fill-opacity="0.00000" height="6" style="stroke:#C82930;stroke-width:1;" width="6" x="36.24" y="381.1384"/><text fill="#000000" font-family="sans-serif" font-size="14" lengthAdjust="spacing" textLength="173.0381" x="48.24" y="387.4851">memoriaKB=16: final int</text><rect fill="#FFFFFF" fill-opacity="0.00000" height="6" style="stroke:#C82930;stroke-width:1;" width="6" x="36.24" y="397.4353"/><text fill="#000000" font-family="sans-serif" font-size="14" lengthAdjust="spacing" textLength="141.6338" x="48.24" y="403.782">tasaHZ=60: final int</text><rect fill="#FFFFFF" fill-opacity="0.00000" height="6" style="stroke:#C82930;stroke-width:1;" width="6" x="36.24" y="413.7322"/><text fill="#000000" font-family="sans-serif" font-size="14" lengthAdjust="spacing" textLength="120.6406" x="48.24" y="420.0789">colaFrames: Cola</text><line style="stroke:#181818;stroke-width:0.5;" x1="29.24" x2="268.3601" y1="427.3806" y2="427.3806"/><ellipse cx="39.24" cy="441.0291" fill="#84BE84" rx="3" ry="3" style="stroke:#038048;stroke-width:1;"/><text fill="#000000" font-family="sans-serif" font-size="14" lengthAdjust="spacing" textLength="61.2021" x="48.24" y="444.3757">Grafica()</text><ellipse cx="39.24" cy="457.3259" fill="#84BE84" rx="3" ry="3" style="stroke:#038048;stroke-width:1;"/><text fill="#000000" font-family="sans-serif" font-size="14" lengthAdjust="spacing" textLength="156.7275" x="48.24" y="460.6726">generarFrames(): void</text><ellipse cx="39.24" cy="473.6228" fill="#84BE84" rx="3" ry="3" style="stroke:#038048;stroke-width:1;"/><text fill="#000000" font-family="sans-serif" font-size="14" lengthAdjust="spacing" textLength="215.1201" x="48.24" y="476.9695">devolverDosFrames(): Frame[]</text></g><!--class Cola--><g id="elem_Cola"><rect codeLine="21" fill="#F1F1F1" height="178.375" id="Cola" rx="2.5" ry="2.5" style="stroke:#181818;stroke-width:0.5;" width="207.5488" x="45.02" y="561.27"/><ellipse cx="129.1396" cy="577.27" fill="#ADD1B2" rx="11" ry="11" style="stroke:#181818;stroke-width:1;"/><path d="M132.1084,582.9106 Q131.5303,583.2075 130.8896,583.3481 Q130.249,583.5044 129.5459,583.5044 Q127.0459,583.5044 125.7178,581.8638 Q124.4053,580.2075 124.4053,577.0825 Q124.4053,573.9575 125.7178,572.3013 Q127.0459,570.645 129.5459,570.645 Q130.249,570.645 130.8896,570.8013 Q131.5459,570.9575 132.1084,571.2544 L132.1084,573.9731 Q131.4834,573.395 130.8896,573.1294 Q130.2959,572.8481 129.6709,572.8481 Q128.3271,572.8481 127.6396,573.9263 Q126.9521,574.9888 126.9521,577.0825 Q126.9521,579.1763 127.6396,580.2544 Q128.3271,581.3169 129.6709,581.3169 Q130.2959,581.3169 130.8896,581.0513 Q131.4834,580.77 132.1084,580.1919 L132.1084,582.9106 Z " fill="#000000"/><text fill="#000000" font-family="sans-serif" font-size="14" lengthAdjust="spacing" textLength="30.8096" x="149.6396" y="582.1167">Cola</text><line style="stroke:#181818;stroke-width:0.5;" x1="46.02" x2="251.5688" y1="593.27" y2="593.27"/><rect fill="#FFFFFF" fill-opacity="0.00000" height="6" style="stroke:#C82930;stroke-width:1;" width="6" x="53.02" y="603.9184"/><text fill="#000000" font-family="sans-serif" font-size="14" lengthAdjust="spacing" textLength="145.4004" x="65.02" y="610.2651">primero: NodoFrame</text><rect fill="#FFFFFF" fill-opacity="0.00000" height="6" style="stroke:#C82930;stroke-width:1;" width="6" x="53.02" y="620.2153"/><text fill="#000000" font-family="sans-serif" font-size="14" lengthAdjust="spacing" textLength="134.6406" x="65.02" y="626.562">ultimo: NodoFrame</text><rect fill="#FFFFFF" fill-opacity="0.00000" height="6" style="stroke:#C82930;stroke-width:1;" width="6" x="53.02" y="636.5122"/><text fill="#000000" font-family="sans-serif" font-size="14" lengthAdjust="spacing" textLength="81.1426" x="65.02" y="642.8589">tama&#241;o: int</text><line style="stroke:#181818;stroke-width:0.5;" x1="46.02" x2="251.5688" y1="650.1606" y2="650.1606"/><ellipse cx="56.02" cy="663.8091" fill="#84BE84" rx="3" ry="3" style="stroke:#038048;stroke-width:1;"/><text fill="#000000" font-family="sans-serif" font-size="14" lengthAdjust="spacing" textLength="41.7334" x="65.02" y="667.1557">Cola()</text><ellipse cx="56.02" cy="680.1059" fill="#84BE84" rx="3" ry="3" style="stroke:#038048;stroke-width:1;"/><text fill="#000000" font-family="sans-serif" font-size="14" lengthAdjust="spacing" textLength="111.0635" x="65.02" y="683.4526">enqueue(): void</text><ellipse cx="56.02" cy="696.4028" fill="#84BE84" rx="3" ry="3" style="stroke:#038048;stroke-width:1;"/><text fill="#000000" font-family="sans-serif" font-size="14" lengthAdjust="spacing" textLength="137.0127" x="65.02" y="699.7495">dequeue(): Frame[]</text><ellipse cx="56.02" cy="712.6997" fill="#84BE84" rx="3" ry="3" style="stroke:#038048;stroke-width:1;"/><text fill="#000000" font-family="sans-serif" font-size="14" lengthAdjust="spacing" textLength="109.874" x="65.02" y="716.0464">peek(): Frame[]</text><rect fill="#F24D5C" height="6" style="stroke:#C82930;stroke-width:1;" width="6" x="53.02" y="725.9966"/><text fill="#000000" font-family="sans-serif" font-size="14" lengthAdjust="spacing" textLength="181.5488" x="65.02" y="732.3432">tieneDosFrames(): bolean</text></g><!--class NodoFrame--><g id="elem_NodoFrame"><rect codeLine="32" fill="#F1F1F1" height="113.1875" id="NodoFrame" rx="2.5" ry="2.5" style="stroke:#181818;stroke-width:0.5;" width="283.5986" x="7" y="816.64"/><ellipse cx="103.9849" cy="832.64" fill="#ADD1B2" rx="11" ry="11" style="stroke:#181818;stroke-width:1;"/><path d="M106.9536,838.2806 Q106.3755,838.5775 105.7349,838.7181 Q105.0942,838.8744 104.3911,838.8744 Q101.8911,838.8744 100.563,837.2338 Q99.2505,835.5775 99.2505,832.4525 Q99.2505,829.3275 100.563,827.6713 Q101.8911,826.015 104.3911,826.015 Q105.0942,826.015 105.7349,826.1713 Q106.3911,826.3275 106.9536,826.6244 L106.9536,829.3431 Q106.3286,828.765 105.7349,828.4994 Q105.1411,828.2181 104.5161,828.2181 Q103.1724,828.2181 102.4849,829.2963 Q101.7974,830.3588 101.7974,832.4525 Q101.7974,834.5463 102.4849,835.6244 Q103.1724,836.6869 104.5161,836.6869 Q105.1411,836.6869 105.7349,836.4213 Q106.3286,836.14 106.9536,835.5619 L106.9536,838.2806 Z " fill="#000000"/><text fill="#000000" font-family="sans-serif" font-size="14" lengthAdjust="spacing" textLength="81.1289" x="124.4849" y="837.4867">NodoFrame</text><line style="stroke:#181818;stroke-width:0.5;" x1="8" x2="289.5986" y1="848.64" y2="848.64"/><rect fill="#FFFFFF" fill-opacity="0.00000" height="6" style="stroke:#C82930;stroke-width:1;" width="6" x="15" y="859.2884"/><text fill="#000000" font-family="sans-serif" font-size="14" lengthAdjust="spacing" textLength="154.7178" x="27" y="865.6351">siguiente: NodoFrame</text><line style="stroke:#181818;stroke-width:0.5;" x1="8" x2="289.5986" y1="872.9369" y2="872.9369"/><ellipse cx="18" cy="886.5853" fill="#84BE84" rx="3" ry="3" style="stroke:#038048;stroke-width:1;"/><text fill="#000000" font-family="sans-serif" font-size="14" lengthAdjust="spacing" textLength="92.0527" x="27" y="889.932">NodoFrame()</text><ellipse cx="18" cy="902.8822" fill="#84BE84" rx="3" ry="3" style="stroke:#038048;stroke-width:1;"/><text fill="#000000" font-family="sans-serif" font-size="14" lengthAdjust="spacing" textLength="190.2236" x="27" y="906.2289">getSiguiente(): NodoFrame</text><ellipse cx="18" cy="919.1791" fill="#84BE84" rx="3" ry="3" style="stroke:#038048;stroke-width:1;"/><text fill="#000000" font-family="sans-serif" font-size="14" lengthAdjust="spacing" textLength="257.5986" x="27" y="922.5257">setSiguiente(NodoFrame nodo): void</text></g><!--class Frame--><g id="elem_Frame"><rect codeLine="39" fill="#F1F1F1" height="113.1875" id="Frame" rx="2.5" ry="2.5" style="stroke:#181818;stroke-width:0.5;" width="210.9805" x="43.31" y="1006.83"/><ellipse cx="122.2309" cy="1022.83" fill="#ADD1B2" rx="11" ry="11" style="stroke:#181818;stroke-width:1;"/><path d="M125.1996,1028.4706 Q124.6215,1028.7675 123.9809,1028.9081 Q123.3403,1029.0644 122.6371,1029.0644 Q120.1371,1029.0644 118.809,1027.4238 Q117.4965,1025.7675 117.4965,1022.6425 Q117.4965,1019.5175 118.809,1017.8612 Q120.1371,1016.205 122.6371,1016.205 Q123.3403,1016.205 123.9809,1016.3612 Q124.6371,1016.5175 125.1996,1016.8144 L125.1996,1019.5331 Q124.5746,1018.955 123.9809,1018.6894 Q123.3871,1018.4081 122.7621,1018.4081 Q121.4184,1018.4081 120.7309,1019.4862 Q120.0434,1020.5487 120.0434,1022.6425 Q120.0434,1024.7363 120.7309,1025.8144 Q121.4184,1026.8769 122.7621,1026.8769 Q123.3871,1026.8769 123.9809,1026.6113 Q124.5746,1026.33 125.1996,1025.7519 L125.1996,1028.4706 Z " fill="#000000"/><text fill="#000000" font-family="sans-serif" font-size="14" lengthAdjust="spacing" textLength="44.6387" x="142.7309" y="1027.6767">Frame</text><line style="stroke:#181818;stroke-width:0.5;" x1="44.31" x2="253.2905" y1="1038.83" y2="1038.83"/><rect fill="#FFFFFF" fill-opacity="0.00000" height="6" style="stroke:#C82930;stroke-width:1;" width="6" x="51.31" y="1049.4784"/><text fill="#000000" font-family="sans-serif" font-size="14" lengthAdjust="spacing" textLength="113.6064" x="63.31" y="1055.8251">pixeles: Pixel[][]</text><line style="stroke:#181818;stroke-width:0.5;" x1="44.31" x2="253.2905" y1="1063.1269" y2="1063.1269"/><ellipse cx="54.31" cy="1076.7753" fill="#84BE84" rx="3" ry="3" style="stroke:#038048;stroke-width:1;"/><text fill="#000000" font-family="sans-serif" font-size="14" lengthAdjust="spacing" textLength="55.5625" x="63.31" y="1080.122">Frame()</text><ellipse cx="54.31" cy="1093.0722" fill="#84BE84" rx="3" ry="3" style="stroke:#038048;stroke-width:1;"/><text fill="#000000" font-family="sans-serif" font-size="14" lengthAdjust="spacing" textLength="152.7148" x="63.31" y="1096.4189">rellenarPixeles(): void</text><ellipse cx="54.31" cy="1109.3691" fill="#84BE84" rx="3" ry="3" style="stroke:#038048;stroke-width:1;"/><text fill="#000000" font-family="sans-serif" font-size="14" lengthAdjust="spacing" textLength="184.9805" x="63.31" y="1112.7157">devolverPixeles(): Pixel[][]</text></g><!--class Pixel--><g id="elem_Pixel"><rect codeLine="46" fill="#F1F1F1" height="96.8906" id="Pixel" rx="2.5" ry="2.5" style="stroke:#181818;stroke-width:0.5;" width="180.0889" x="58.75" y="1197.02"/><ellipse cx="127.9844" cy="1213.02" fill="#ADD1B2" rx="11" ry="11" style="stroke:#181818;stroke-width:1;"/><path d="M130.9531,1218.6606 Q130.375,1218.9575 129.7344,1219.0981 Q129.0938,1219.2544 128.3906,1219.2544 Q125.8906,1219.2544 124.5625,1217.6138 Q123.25,1215.9575 123.25,1212.8325 Q123.25,1209.7075 124.5625,1208.0513 Q125.8906,1206.395 128.3906,1206.395 Q129.0938,1206.395 129.7344,1206.5513 Q130.3906,1206.7075 130.9531,1207.0044 L130.9531,1209.7231 Q130.3281,1209.145 129.7344,1208.8794 Q129.1406,1208.5981 128.5156,1208.5981 Q127.1719,1208.5981 126.4844,1209.6763 Q125.7969,1210.7388 125.7969,1212.8325 Q125.7969,1214.9263 126.4844,1216.0044 Q127.1719,1217.0669 128.5156,1217.0669 Q129.1406,1217.0669 129.7344,1216.8013 Q130.3281,1216.52 130.9531,1215.9419 L130.9531,1218.6606 Z " fill="#000000"/><text fill="#000000" font-family="sans-serif" font-size="14" lengthAdjust="spacing" textLength="33.1201" x="148.4844" y="1217.8667">Pixel</text><line style="stroke:#181818;stroke-width:0.5;" x1="59.75" x2="237.8389" y1="1229.02" y2="1229.02"/><rect fill="#FFFFFF" fill-opacity="0.00000" height="6" style="stroke:#C82930;stroke-width:1;" width="6" x="66.75" y="1239.6684"/><text fill="#000000" font-family="sans-serif" font-size="14" lengthAdjust="spacing" textLength="80.1924" x="78.75" y="1246.0151">color: Color</text><line style="stroke:#181818;stroke-width:0.5;" x1="59.75" x2="237.8389" y1="1253.3169" y2="1253.3169"/><ellipse cx="69.75" cy="1266.9653" fill="#84BE84" rx="3" ry="3" style="stroke:#038048;stroke-width:1;"/><text fill="#000000" font-family="sans-serif" font-size="14" lengthAdjust="spacing" textLength="44.0439" x="78.75" y="1270.312">Pixel()</text><ellipse cx="69.75" cy="1283.2622" fill="#84BE84" rx="3" ry="3" style="stroke:#038048;stroke-width:1;"/><text fill="#000000" font-family="sans-serif" font-size="14" lengthAdjust="spacing" textLength="154.0889" x="78.75" y="1286.6089">devolverColor(): Color</text></g><!--class Color--><g id="elem_Color"><rect codeLine="52" fill="#F1F1F1" height="96.8906" id="Color" rx="2.5" ry="2.5" style="stroke:#181818;stroke-width:0.5;" width="247.3613" x="25.12" y="1370.91"/><ellipse cx="126.2748" cy="1386.91" fill="#ADD1B2" rx="11" ry="11" style="stroke:#181818;stroke-width:1;"/><path d="M129.2435,1392.5506 Q128.6654,1392.8475 128.0248,1392.9881 Q127.3842,1393.1444 126.681,1393.1444 Q124.181,1393.1444 122.8529,1391.5037 Q121.5404,1389.8475 121.5404,1386.7225 Q121.5404,1383.5975 122.8529,1381.9412 Q124.181,1380.285 126.681,1380.285 Q127.3842,1380.285 128.0248,1380.4412 Q128.681,1380.5975 129.2435,1380.8944 L129.2435,1383.6131 Q128.6185,1383.035 128.0248,1382.7694 Q127.431,1382.4881 126.806,1382.4881 Q125.4623,1382.4881 124.7748,1383.5662 Q124.0873,1384.6287 124.0873,1386.7225 Q124.0873,1388.8162 124.7748,1389.8944 Q125.4623,1390.9569 126.806,1390.9569 Q127.431,1390.9569 128.0248,1390.6912 Q128.6185,1390.41 129.2435,1389.8319 L129.2435,1392.5506 Z " fill="#000000"/><text fill="#000000" font-family="sans-serif" font-size="14" lengthAdjust="spacing" textLength="36.5518" x="146.7748" y="1391.7567">Color</text><line style="stroke:#181818;stroke-width:0.5;" x1="26.12" x2="271.4813" y1="1402.91" y2="1402.91"/><rect fill="#FFFFFF" fill-opacity="0.00000" height="6" style="stroke:#C82930;stroke-width:1;" width="6" x="33.12" y="1413.5584"/><text fill="#000000" font-family="sans-serif" font-size="14" lengthAdjust="spacing" textLength="145.5713" x="45.12" y="1419.9051">representacion: char</text><line style="stroke:#181818;stroke-width:0.5;" x1="26.12" x2="271.4813" y1="1427.2069" y2="1427.2069"/><ellipse cx="36.12" cy="1440.8553" fill="#84BE84" rx="3" ry="3" style="stroke:#038048;stroke-width:1;"/><text fill="#000000" font-family="sans-serif" font-size="14" lengthAdjust="spacing" textLength="47.4756" x="45.12" y="1444.202">Color()</text><ellipse cx="36.12" cy="1457.1522" fill="#84BE84" rx="3" ry="3" style="stroke:#038048;stroke-width:1;"/><text fill="#000000" font-family="sans-serif" font-size="14" lengthAdjust="spacing" textLength="221.3613" x="45.12" y="1460.4989">devolverRepresentacion(): char</text></g><!--link Main to Pantalla--><g id="link_Main_Pantalla"><path codeLine="58" d="M148.8,71.72 C148.8,93.28 148.8,116.44 148.8,141.89 " fill="#FFFFFF" fill-opacity="0.00000" id="Main-to-Pantalla" style="stroke:#181818;stroke-width:1;"/><polygon fill="#181818" points="148.8,147.89,152.8,138.89,148.8,142.89,144.8,138.89,148.8,147.89" style="stroke:#181818;stroke-width:1;"/><text fill="#000000" font-family="sans-serif" font-size="13" lengthAdjust="spacing" textLength="51.5493" x="149.8" y="114.3669">Llama a</text></g><!--link Pantalla to Grafica--><g id="link_Pantalla_Grafica"><path codeLine="59" d="M148.8,261.77 C148.8,285.3 148.8,306.99 148.8,332.05 " fill="#FFFFFF" fill-opacity="0.00000" id="Pantalla-to-Grafica" style="stroke:#181818;stroke-width:1;"/><polygon fill="#181818" points="148.8,338.05,152.8,329.05,148.8,333.05,144.8,329.05,148.8,338.05" style="stroke:#181818;stroke-width:1;"/><text fill="#000000" font-family="sans-serif" font-size="13" lengthAdjust="spacing" textLength="58.2144" x="149.8" y="304.5569">Contiene</text></g><!--link Grafica to Cola--><g id="link_Grafica_Cola"><path codeLine="60" d="M148.8,484.47 C148.8,508.59 148.8,529.75 148.8,554.96 " fill="#FFFFFF" fill-opacity="0.00000" id="Grafica-to-Cola" style="stroke:#181818;stroke-width:1;"/><polygon fill="#181818" points="148.8,560.96,152.8,551.96,148.8,555.96,144.8,551.96,148.8,560.96" style="stroke:#181818;stroke-width:1;"/><text fill="#000000" font-family="sans-serif" font-size="13" lengthAdjust="spacing" textLength="76.1973" x="149.8" y="527.3369">Genera una</text></g><!--link Cola to NodoFrame--><g id="link_Cola_NodoFrame"><path codeLine="61" d="M148.8,739.98 C148.8,765.78 148.8,787.23 148.8,810.4 " fill="#FFFFFF" fill-opacity="0.00000" id="Cola-to-NodoFrame" style="stroke:#181818;stroke-width:1;"/><polygon fill="#181818" points="148.8,816.4,152.8,807.4,148.8,811.4,144.8,807.4,148.8,816.4" style="stroke:#181818;stroke-width:1;"/><text fill="#000000" font-family="sans-serif" font-size="13" lengthAdjust="spacing" textLength="64.4858" x="149.8" y="782.7069">Almacena</text></g><!--link NodoFrame to Frame--><g id="link_NodoFrame_Frame"><path codeLine="62" d="M148.8,930.19 C148.8,954.24 148.8,976.3 148.8,1000.36 " fill="#FFFFFF" fill-opacity="0.00000" id="NodoFrame-to-Frame" style="stroke:#181818;stroke-width:1;"/><polygon fill="#181818" points="148.8,1006.36,152.8,997.36,148.8,1001.36,144.8,997.36,148.8,1006.36" style="stroke:#181818;stroke-width:1;"/><text fill="#000000" font-family="sans-serif" font-size="13" lengthAdjust="spacing" textLength="67.7168" x="149.8" y="972.8969">Hereda de</text></g><!--link Frame to Pixel--><g id="link_Frame_Pixel"><path codeLine="63" d="M148.8,1120.4 C148.8,1144.87 148.8,1167.27 148.8,1190.71 " fill="#FFFFFF" fill-opacity="0.00000" id="Frame-to-Pixel" style="stroke:#181818;stroke-width:1;"/><polygon fill="#181818" points="148.8,1196.71,152.8,1187.71,148.8,1191.71,144.8,1187.71,148.8,1196.71" style="stroke:#181818;stroke-width:1;"/><text fill="#000000" font-family="sans-serif" font-size="13" lengthAdjust="spacing" textLength="130.3872" x="149.8" y="1163.0869">Tiene una matriz de</text></g><!--link Pixel to Color--><g id="link_Pixel_Color"><path codeLine="64" d="M148.8,1294.35 C148.8,1318.09 148.8,1340.69 148.8,1364.43 " fill="#FFFFFF" fill-opacity="0.00000" id="Pixel-to-Color" style="stroke:#181818;stroke-width:1;"/><polygon fill="#181818" points="148.8,1370.43,152.8,1361.43,148.8,1365.43,144.8,1361.43,148.8,1370.43" style="stroke:#181818;stroke-width:1;"/><text fill="#000000" font-family="sans-serif" font-size="13" lengthAdjust="spacing" textLength="56.3989" x="149.8" y="1336.9769">Tiene un</text></g><!--SRC=[RLHDZzCm4BtdLrWvTHLLWiiU8YqIx8gkn8SgbXDL3xF9D5Zu8uoT2e7uKVm6_XWUktQQbfucyzwyUVQCsobmJdm0QNvL8lmQ7SBLaoTfXjrU00tkfXL7A_lgTrLraRq5uq4f4Aba_JmT3aYjU4kWSRTFoO7W83jenIO59tNhF06jicQaZZ0vN5srEHNcBXgr9Gdltjozl6t5GHfGGXgVG0yE7h_StRwuGZgh81fphRWFSV9nqbxTfCy13GPRYRSmr_HujEg8z63T3EUJ5g-id8sE93MIRSL7szl8JFb9UQclqnuq_FqJyjbomsBP6Phl4qvuwQaap- -y6H6_NIRNNeR3BTm_MuLWPlF5K3w1ayCKgZnUcctAvtnp_YcpMVk2xyxXkOy9qTMy5nP6-GCLpspBmMwVZxXeJgWK6g1j8lz_S6VWh3NlCgToqx0hbkAQM4eY4SxjicB4MIyHpvV0KjOY70bTE3TqqffMT5-1odYvVAdvQK5dyLWGjFbjYlNwLNbshQZVgx0q0kggF4KcRFAJg- -jYMElg_o86EUz2k0cBhkOJAYFUyjOcKqWl5OQEcHudXXpClw8X3s8FiZFOBof07xclYmkD8H_aP-Hbcxvv86lkD3gVm00]--></g></svg>