<svg xmlns="http://www.w3.org/2000/svg" xmlns:xlink="http://www.w3.org/1999/xlink" contentStyleType="text/css" data-diagram-type="CLASS" height="1491px" preserveAspectRatio="none" style="width:297px;height:1491px;background:#FFFFFF;" version="1.1" viewBox="0 0 297 1491" width="297px" zoomAndPan="magnify"><defs/><g><!--class Main--><g id="elem_Main"><rect codeLine="1" fill="#F1F1F1" height="64.2969" id="Main" rx="2.5" ry="2.5" style="stroke:#181818;stroke-width:0.5;" width="198.3682" x="49.62" y="7"/><ellipse cx="127.8436" cy="23" fill="#ADD1B2" rx="11" ry="11" style="stroke:#181818;stroke-width:1;"/><path d="M130.8124,28.6406 Q130.2343,28.9375 129.5936,29.0781 Q128.953,29.2344 128.2499,29.2344 Q125.7499,29.2344 124.4218,27.5938 Q123.1093,25.9375 123.1093,22.8125 Q123.1093,19.6875 124.4218,18.0313 Q125.7499,16.375 128.2499,16.375 Q128.953,16.375 129.5936,16.5313 Q130.2499,16.6875 130.8124,16.9844 L130.8124,19.7031 Q130.1874,19.125 129.5936,18.8594 Q128.9999,18.5781 128.3749,18.5781 Q127.0311,18.5781 126.3436,19.6563 Q125.6561,20.7188 125.6561,22.8125 Q125.6561,24.9063 126.3436,25.9844 Q127.0311,27.0469 128.3749,27.0469 Q128.9999,27.0469 129.5936,26.7813 Q130.1874,26.5 130.8124,25.9219 L130.8124,28.6406 Z " fill="#000000"/><text fill="#000000" font-family="sans-serif" font-size="14" lengthAdjust="spacing" textLength="33.4209" x="148.3436" y="27.8467">Main</text><line style="stroke:#181818;stroke-width:0.5;" x1="50.62" x2="246.9882" y1="39" y2="39"/><line style="stroke:#181818;stroke-width:0.5;" x1="50.62" x2="246.9882" y1="47" y2="47"/><ellipse cx="60.62" cy="60.6484" fill="#84BE84" rx="3" ry="3" style="stroke:#038048;stroke-width:1;"/><text fill="#000000" font-family="sans-serif" font-size="14" lengthAdjust="spacing" textLength="172.3682" x="69.62" y="63.9951">main(String[] args): void</text></g><!--class Pantalla--><g id="elem_Pantalla"><rect codeLine="5" fill="#F1F1F1" height="129.4844" id="Pantalla" rx="2.5" ry="2.5" style="stroke:#181818;stroke-width:0.5;" width="133.7617" x="81.92" y="148.29"/><ellipse cx="117.3682" cy="164.29" fill="#ADD1B2" rx="11" ry="11" style="stroke:#181818;stroke-width:1;"/><path d="M120.3369,169.9306 Q119.7588,170.2275 119.1182,170.3681 Q118.4776,170.5244 117.7744,170.5244 Q115.2744,170.5244 113.9463,168.8837 Q112.6338,167.2275 112.6338,164.1025 Q112.6338,160.9775 113.9463,159.3212 Q115.2744,157.665 117.7744,157.665 Q118.4776,157.665 119.1182,157.8212 Q119.7744,157.9775 120.3369,158.2744 L120.3369,160.9931 Q119.7119,160.415 119.1182,160.1494 Q118.5244,159.8681 117.8994,159.8681 Q116.5557,159.8681 115.8682,160.9462 Q115.1807,162.0087 115.1807,164.1025 Q115.1807,166.1962 115.8682,167.2744 Q116.5557,168.3369 117.8994,168.3369 Q118.5244,168.3369 119.1182,168.0712 Q119.7119,167.79 120.3369,167.2119 L120.3369,169.9306 Z " fill="#000000"/><text fill="#000000" font-family="sans-serif" font-size="14" lengthAdjust="spacing" textLength="56.3213" x="135.9122" y="169.1367">Pantalla</text><line style="stroke:#181818;stroke-width:0.5;" x1="82.92" x2="214.6817" y1="180.29" y2="180.29"/><rect fill="#FFFFFF" fill-opacity="0.00000" height="6" style="stroke:#C82930;stroke-width:1;" width="6" x="89.92" y="190.9384"/><text fill="#000000" font-family="sans-serif" font-size="14" lengthAdjust="spacing" textLength="106.7158" x="101.92" y="197.2851">buffer: Frame[]</text><rect fill="#FFFFFF" fill-opacity="0.00000" height="6" style="stroke:#C82930;stroke-width:1;" width="6" x="89.92" y="207.2353"/><text fill="#000000" font-family="sans-serif" font-size="14" lengthAdjust="spacing" textLength="107.7617" x="101.92" y="213.582">grafica: Grafica</text><line style="stroke:#181818;stroke-width:0.5;" x1="82.92" x2="214.6817" y1="220.8837" y2="220.8837"/><ellipse cx="92.92" cy="234.5322" fill="#84BE84" rx="3" ry="3" style="stroke:#038048;stroke-width:1;"/><text fill="#000000" font-family="sans-serif" font-size="14" lengthAdjust="spacing" textLength="67.2451" x="101.92" y="237.8789">Pantalla()</text><ellipse cx="92.92" cy="250.8291" fill="#84BE84" rx="3" ry="3" style="stroke:#038048;stroke-width:1;"/><text fill="#000000" font-family="sans-serif" font-size="14" lengthAdjust="spacing" textLength="104.7949" x="101.92" y="254.1757">mostrar(): void</text><rect fill="#F24D5C" height="6" style="stroke:#C82930;stroke-width:1;" width="6" x="89.92" y="264.1259"/><text fill="#000000" font-family="sans-serif" font-size="14" lengthAdjust="spacing" textLength="91.9639" x="101.92" y="270.4726">pause(): void</text></g><!--class Grafica--><g id="elem_Grafica"><rect codeLine="13" fill="#F1F1F1" height="145.7813" id="Grafica" rx="2.5" ry="2.5" style="stroke:#181818;stroke-width:0.5;" width="241.1201" x="28.24" y="354.78"/><ellipse cx="119.4109" cy="370.78" fill="#ADD1B2" rx="11" ry="11" style="stroke:#181818;stroke-width:1;"/><path d="M122.3796,376.4206 Q121.8015,376.7175 121.1609,376.8581 Q120.5203,377.0144 119.8171,377.0144 Q117.3171,377.0144 115.989,375.3738 Q114.6765,373.7175 114.6765,370.5925 Q114.6765,367.4675 115.989,365.8113 Q117.3171,364.155 119.8171,364.155 Q120.5203,364.155 121.1609,364.3113 Q121.8171,364.4675 122.3796,364.7644 L122.3796,367.4831 Q121.7546,366.905 121.1609,366.6394 Q120.5671,366.3581 119.9421,366.3581 Q118.5984,366.3581 117.9109,367.4363 Q117.2234,368.4988 117.2234,370.5925 Q117.2234,372.6863 117.9109,373.7644 Q118.5984,374.8269 119.9421,374.8269 Q120.5671,374.8269 121.1609,374.5613 Q121.7546,374.28 122.3796,373.7019 L122.3796,376.4206 Z " fill="#000000"/><text fill="#000000" font-family="sans-serif" font-size="14" lengthAdjust="spacing" textLength="50.2783" x="139.9109" y="375.6267">Grafica</text><line style="stroke:#181818;stroke-width:0.5;" x1="29.24" x2="268.3601" y1="386.78" y2="386.78"/><rect fill="#FFFFFF" fill-opacity="0.00000" height="6" style="stroke:#C82930;stroke-width:1;" width="6" x="36.24" y="397.4284"/><text fill="#000000" font-family="sans-serif" font-size="14" lengthAdjust="spacing" textLength="173.0381" x="48.24" y="403.7751">memoriaKB=16: final int</text><rect fill="#FFFFFF" fill-opacity="0.00000" height="6" style="stroke:#C82930;stroke-width:1;" width="6" x="36.24" y="413.7253"/><text fill="#000000" font-family="sans-serif" font-size="14" lengthAdjust="spacing" textLength="141.6338" x="48.24" y="420.072">tasaHZ=60: final int</text><rect fill="#FFFFFF" fill-opacity="0.00000" height="6" style="stroke:#C82930;stroke-width:1;" width="6" x="36.24" y="430.0222"/><text fill="#000000" font-family="sans-serif" font-size="14" lengthAdjust="spacing" textLength="120.6406" x="48.24" y="436.3689">colaFrames: Cola</text><line style="stroke:#181818;stroke-width:0.5;" x1="29.24" x2="268.3601" y1="443.6706" y2="443.6706"/><ellipse cx="39.24" cy="457.3191" fill="#84BE84" rx="3" ry="3" style="stroke:#038048;stroke-width:1;"/><text fill="#000000" font-family="sans-serif" font-size="14" lengthAdjust="spacing" textLength="61.2021" x="48.24" y="460.6657">Grafica()</text><ellipse cx="39.24" cy="473.6159" fill="#84BE84" rx="3" ry="3" style="stroke:#038048;stroke-width:1;"/><text fill="#000000" font-family="sans-serif" font-size="14" lengthAdjust="spacing" textLength="156.7275" x="48.24" y="476.9626">generarFrames(): void</text><ellipse cx="39.24" cy="489.9128" fill="#84BE84" rx="3" ry="3" style="stroke:#038048;stroke-width:1;"/><text fill="#000000" font-family="sans-serif" font-size="14" lengthAdjust="spacing" textLength="215.1201" x="48.24" y="493.2595">devolverDosFrames(): Frame[]</text></g><!--class Cola--><g id="elem_Cola"><rect codeLine="22" fill="#F1F1F1" height="178.375" id="Cola" rx="2.5" ry="2.5" style="stroke:#181818;stroke-width:0.5;" width="207.5488" x="45.02" y="577.56"/><ellipse cx="129.1396" cy="593.56" fill="#ADD1B2" rx="11" ry="11" style="stroke:#181818;stroke-width:1;"/><path d="M132.1084,599.2006 Q131.5303,599.4975 130.8896,599.6381 Q130.249,599.7944 129.5459,599.7944 Q127.0459,599.7944 125.7178,598.1538 Q124.4053,596.4975 124.4053,593.3725 Q124.4053,590.2475 125.7178,588.5913 Q127.0459,586.935 129.5459,586.935 Q130.249,586.935 130.8896,587.0913 Q131.5459,587.2475 132.1084,587.5444 L132.1084,590.2631 Q131.4834,589.685 130.8896,589.4194 Q130.2959,589.1381 129.6709,589.1381 Q128.3271,589.1381 127.6396,590.2163 Q126.9521,591.2788 126.9521,593.3725 Q126.9521,595.4663 127.6396,596.5444 Q128.3271,597.6069 129.6709,597.6069 Q130.2959,597.6069 130.8896,597.3413 Q131.4834,597.06 132.1084,596.4819 L132.1084,599.2006 Z " fill="#000000"/><text fill="#000000" font-family="sans-serif" font-size="14" lengthAdjust="spacing" textLength="30.8096" x="149.6396" y="598.4067">Cola</text><line style="stroke:#181818;stroke-width:0.5;" x1="46.02" x2="251.5688" y1="609.56" y2="609.56"/><rect fill="#FFFFFF" fill-opacity="0.00000" height="6" style="stroke:#C82930;stroke-width:1;" width="6" x="53.02" y="620.2084"/><text fill="#000000" font-family="sans-serif" font-size="14" lengthAdjust="spacing" textLength="145.4004" x="65.02" y="626.5551">primero: NodoFrame</text><rect fill="#FFFFFF" fill-opacity="0.00000" height="6" style="stroke:#C82930;stroke-width:1;" width="6" x="53.02" y="636.5053"/><text fill="#000000" font-family="sans-serif" font-size="14" lengthAdjust="spacing" textLength="134.6406" x="65.02" y="642.852">ultimo: NodoFrame</text><rect fill="#FFFFFF" fill-opacity="0.00000" height="6" style="stroke:#C82930;stroke-width:1;" width="6" x="53.02" y="652.8022"/><text fill="#000000" font-family="sans-serif" font-size="14" lengthAdjust="spacing" textLength="81.1426" x="65.02" y="659.1489">tama&#241;o: int</text><line style="stroke:#181818;stroke-width:0.5;" x1="46.02" x2="251.5688" y1="666.4506" y2="666.4506"/><ellipse cx="56.02" cy="680.0991" fill="#84BE84" rx="3" ry="3" style="stroke:#038048;stroke-width:1;"/><text fill="#000000" font-family="sans-serif" font-size="14" lengthAdjust="spacing" textLength="41.7334" x="65.02" y="683.4457">Cola()</text><ellipse cx="56.02" cy="696.3959" fill="#84BE84" rx="3" ry="3" style="stroke:#038048;stroke-width:1;"/><text fill="#000000" font-family="sans-serif" font-size="14" lengthAdjust="spacing" textLength="111.0635" x="65.02" y="699.7426">enqueue(): void</text><ellipse cx="56.02" cy="712.6928" fill="#84BE84" rx="3" ry="3" style="stroke:#038048;stroke-width:1;"/><text fill="#000000" font-family="sans-serif" font-size="14" lengthAdjust="spacing" textLength="137.0127" x="65.02" y="716.0395">dequeue(): Frame[]</text><ellipse cx="56.02" cy="728.9897" fill="#84BE84" rx="3" ry="3" style="stroke:#038048;stroke-width:1;"/><text fill="#000000" font-family="sans-serif" font-size="14" lengthAdjust="spacing" textLength="109.874" x="65.02" y="732.3364">peek(): Frame[]</text><rect fill="#F24D5C" height="6" style="stroke:#C82930;stroke-width:1;" width="6" x="53.02" y="742.2866"/><text fill="#000000" font-family="sans-serif" font-size="14" lengthAdjust="spacing" textLength="181.5488" x="65.02" y="748.6332">tieneDosFrames(): bolean</text></g><!--class NodoFrame--><g id="elem_NodoFrame"><rect codeLine="33" fill="#F1F1F1" height="113.1875" id="NodoFrame" rx="2.5" ry="2.5" style="stroke:#181818;stroke-width:0.5;" width="283.5986" x="7" y="832.93"/><ellipse cx="103.9849" cy="848.93" fill="#ADD1B2" rx="11" ry="11" style="stroke:#181818;stroke-width:1;"/><path d="M106.9536,854.5706 Q106.3755,854.8675 105.7349,855.0081 Q105.0942,855.1644 104.3911,855.1644 Q101.8911,855.1644 100.563,853.5238 Q99.2505,851.8675 99.2505,848.7425 Q99.2505,845.6175 100.563,843.9613 Q101.8911,842.305 104.3911,842.305 Q105.0942,842.305 105.7349,842.4613 Q106.3911,842.6175 106.9536,842.9144 L106.9536,845.6331 Q106.3286,845.055 105.7349,844.7894 Q105.1411,844.5081 104.5161,844.5081 Q103.1724,844.5081 102.4849,845.5863 Q101.7974,846.6488 101.7974,848.7425 Q101.7974,850.8363 102.4849,851.9144 Q103.1724,852.9769 104.5161,852.9769 Q105.1411,852.9769 105.7349,852.7113 Q106.3286,852.43 106.9536,851.8519 L106.9536,854.5706 Z " fill="#000000"/><text fill="#000000" font-family="sans-serif" font-size="14" lengthAdjust="spacing" textLength="81.1289" x="124.4849" y="853.7767">NodoFrame</text><line style="stroke:#181818;stroke-width:0.5;" x1="8" x2="289.5986" y1="864.93" y2="864.93"/><rect fill="#FFFFFF" fill-opacity="0.00000" height="6" style="stroke:#C82930;stroke-width:1;" width="6" x="15" y="875.5784"/><text fill="#000000" font-family="sans-serif" font-size="14" lengthAdjust="spacing" textLength="154.7178" x="27" y="881.9251">siguiente: NodoFrame</text><line style="stroke:#181818;stroke-width:0.5;" x1="8" x2="289.5986" y1="889.2269" y2="889.2269"/><ellipse cx="18" cy="902.8753" fill="#84BE84" rx="3" ry="3" style="stroke:#038048;stroke-width:1;"/><text fill="#000000" font-family="sans-serif" font-size="14" lengthAdjust="spacing" textLength="92.0527" x="27" y="906.222">NodoFrame()</text><ellipse cx="18" cy="919.1722" fill="#84BE84" rx="3" ry="3" style="stroke:#038048;stroke-width:1;"/><text fill="#000000" font-family="sans-serif" font-size="14" lengthAdjust="spacing" textLength="190.2236" x="27" y="922.5189">getSiguiente(): NodoFrame</text><ellipse cx="18" cy="935.4691" fill="#84BE84" rx="3" ry="3" style="stroke:#038048;stroke-width:1;"/><text fill="#000000" font-family="sans-serif" font-size="14" lengthAdjust="spacing" textLength="257.5986" x="27" y="938.8157">setSiguiente(NodoFrame nodo): void</text></g><!--class Frame--><g id="elem_Frame"><rect codeLine="40" fill="#F1F1F1" height="113.1875" id="Frame" rx="2.5" ry="2.5" style="stroke:#181818;stroke-width:0.5;" width="210.9805" x="43.31" y="1023.12"/><ellipse cx="122.2309" cy="1039.12" fill="#ADD1B2" rx="11" ry="11" style="stroke:#181818;stroke-width:1;"/><path d="M125.1996,1044.7606 Q124.6215,1045.0575 123.9809,1045.1981 Q123.3403,1045.3544 122.6371,1045.3544 Q120.1371,1045.3544 118.809,1043.7138 Q117.4965,1042.0575 117.4965,1038.9325 Q117.4965,1035.8075 118.809,1034.1513 Q120.1371,1032.495 122.6371,1032.495 Q123.3403,1032.495 123.9809,1032.6513 Q124.6371,1032.8075 125.1996,1033.1044 L125.1996,1035.8231 Q124.5746,1035.245 123.9809,1034.9794 Q123.3871,1034.6981 122.7621,1034.6981 Q121.4184,1034.6981 120.7309,1035.7763 Q120.0434,1036.8388 120.0434,1038.9325 Q120.0434,1041.0263 120.7309,1042.1044 Q121.4184,1043.1669 122.7621,1043.1669 Q123.3871,1043.1669 123.9809,1042.9013 Q124.5746,1042.62 125.1996,1042.0419 L125.1996,1044.7606 Z " fill="#000000"/><text fill="#000000" font-family="sans-serif" font-size="14" lengthAdjust="spacing" textLength="44.6387" x="142.7309" y="1043.9667">Frame</text><line style="stroke:#181818;stroke-width:0.5;" x1="44.31" x2="253.2905" y1="1055.12" y2="1055.12"/><rect fill="#FFFFFF" fill-opacity="0.00000" height="6" style="stroke:#C82930;stroke-width:1;" width="6" x="51.31" y="1065.7684"/><text fill="#000000" font-family="sans-serif" font-size="14" lengthAdjust="spacing" textLength="113.6064" x="63.31" y="1072.1151">pixeles: Pixel[][]</text><line style="stroke:#181818;stroke-width:0.5;" x1="44.31" x2="253.2905" y1="1079.4169" y2="1079.4169"/><ellipse cx="54.31" cy="1093.0653" fill="#84BE84" rx="3" ry="3" style="stroke:#038048;stroke-width:1;"/><text fill="#000000" font-family="sans-serif" font-size="14" lengthAdjust="spacing" textLength="55.5625" x="63.31" y="1096.412">Frame()</text><ellipse cx="54.31" cy="1109.3622" fill="#84BE84" rx="3" ry="3" style="stroke:#038048;stroke-width:1;"/><text fill="#000000" font-family="sans-serif" font-size="14" lengthAdjust="spacing" textLength="152.7148" x="63.31" y="1112.7089">rellenarPixeles(): void</text><ellipse cx="54.31" cy="1125.6591" fill="#84BE84" rx="3" ry="3" style="stroke:#038048;stroke-width:1;"/><text fill="#000000" font-family="sans-serif" font-size="14" lengthAdjust="spacing" textLength="184.9805" x="63.31" y="1129.0057">devolverPixeles(): Pixel[][]</text></g><!--class Pixel--><g id="elem_Pixel"><rect codeLine="47" fill="#F1F1F1" height="96.8906" id="Pixel" rx="2.5" ry="2.5" style="stroke:#181818;stroke-width:0.5;" width="180.0889" x="58.75" y="1213.31"/><ellipse cx="127.9844" cy="1229.31" fill="#ADD1B2" rx="11" ry="11" style="stroke:#181818;stroke-width:1;"/><path d="M130.9531,1234.9506 Q130.375,1235.2475 129.7344,1235.3881 Q129.0938,1235.5444 128.3906,1235.5444 Q125.8906,1235.5444 124.5625,1233.9038 Q123.25,1232.2475 123.25,1229.1225 Q123.25,1225.9975 124.5625,1224.3413 Q125.8906,1222.685 128.3906,1222.685 Q129.0938,1222.685 129.7344,1222.8413 Q130.3906,1222.9975 130.9531,1223.2944 L130.9531,1226.0131 Q130.3281,1225.435 129.7344,1225.1694 Q129.1406,1224.8881 128.5156,1224.8881 Q127.1719,1224.8881 126.4844,1225.9663 Q125.7969,1227.0288 125.7969,1229.1225 Q125.7969,1231.2163 126.4844,1232.2944 Q127.1719,1233.3569 128.5156,1233.3569 Q129.1406,1233.3569 129.7344,1233.0913 Q130.3281,1232.81 130.9531,1232.2319 L130.9531,1234.9506 Z " fill="#000000"/><text fill="#000000" font-family="sans-serif" font-size="14" lengthAdjust="spacing" textLength="33.1201" x="148.4844" y="1234.1567">Pixel</text><line style="stroke:#181818;stroke-width:0.5;" x1="59.75" x2="237.8389" y1="1245.31" y2="1245.31"/><rect fill="#FFFFFF" fill-opacity="0.00000" height="6" style="stroke:#C82930;stroke-width:1;" width="6" x="66.75" y="1255.9584"/><text fill="#000000" font-family="sans-serif" font-size="14" lengthAdjust="spacing" textLength="80.1924" x="78.75" y="1262.3051">color: Color</text><line style="stroke:#181818;stroke-width:0.5;" x1="59.75" x2="237.8389" y1="1269.6069" y2="1269.6069"/><ellipse cx="69.75" cy="1283.2553" fill="#84BE84" rx="3" ry="3" style="stroke:#038048;stroke-width:1;"/><text fill="#000000" font-family="sans-serif" font-size="14" lengthAdjust="spacing" textLength="44.0439" x="78.75" y="1286.602">Pixel()</text><ellipse cx="69.75" cy="1299.5522" fill="#84BE84" rx="3" ry="3" style="stroke:#038048;stroke-width:1;"/><text fill="#000000" font-family="sans-serif" font-size="14" lengthAdjust="spacing" textLength="154.0889" x="78.75" y="1302.8989">devolverColor(): Color</text></g><!--class Color--><g id="elem_Color"><rect codeLine="53" fill="#F1F1F1" height="96.8906" id="Color" rx="2.5" ry="2.5" style="stroke:#181818;stroke-width:0.5;" width="247.3613" x="25.12" y="1387.2"/><ellipse cx="126.2748" cy="1403.2" fill="#ADD1B2" rx="11" ry="11" style="stroke:#181818;stroke-width:1;"/><path d="M129.2435,1408.8406 Q128.6654,1409.1375 128.0248,1409.2781 Q127.3842,1409.4344 126.681,1409.4344 Q124.181,1409.4344 122.8529,1407.7937 Q121.5404,1406.1375 121.5404,1403.0125 Q121.5404,1399.8875 122.8529,1398.2312 Q124.181,1396.575 126.681,1396.575 Q127.3842,1396.575 128.0248,1396.7312 Q128.681,1396.8875 129.2435,1397.1844 L129.2435,1399.9031 Q128.6185,1399.325 128.0248,1399.0594 Q127.431,1398.7781 126.806,1398.7781 Q125.4623,1398.7781 124.7748,1399.8562 Q124.0873,1400.9187 124.0873,1403.0125 Q124.0873,1405.1062 124.7748,1406.1844 Q125.4623,1407.2469 126.806,1407.2469 Q127.431,1407.2469 128.0248,1406.9812 Q128.6185,1406.7 129.2435,1406.1219 L129.2435,1408.8406 Z " fill="#000000"/><text fill="#000000" font-family="sans-serif" font-size="14" lengthAdjust="spacing" textLength="36.5518" x="146.7748" y="1408.0467">Color</text><line style="stroke:#181818;stroke-width:0.5;" x1="26.12" x2="271.4813" y1="1419.2" y2="1419.2"/><rect fill="#FFFFFF" fill-opacity="0.00000" height="6" style="stroke:#C82930;stroke-width:1;" width="6" x="33.12" y="1429.8484"/><text fill="#000000" font-family="sans-serif" font-size="14" lengthAdjust="spacing" textLength="145.5713" x="45.12" y="1436.1951">representacion: char</text><line style="stroke:#181818;stroke-width:0.5;" x1="26.12" x2="271.4813" y1="1443.4969" y2="1443.4969"/><ellipse cx="36.12" cy="1457.1453" fill="#84BE84" rx="3" ry="3" style="stroke:#038048;stroke-width:1;"/><text fill="#000000" font-family="sans-serif" font-size="14" lengthAdjust="spacing" textLength="47.4756" x="45.12" y="1460.492">Color()</text><ellipse cx="36.12" cy="1473.4422" fill="#84BE84" rx="3" ry="3" style="stroke:#038048;stroke-width:1;"/><text fill="#000000" font-family="sans-serif" font-size="14" lengthAdjust="spacing" textLength="221.3613" x="45.12" y="1476.7889">devolverRepresentacion(): char</text></g><!--link Main to Pantalla--><g id="link_Main_Pantalla"><path codeLine="59" d="M148.8,71.67 C148.8,92.99 148.8,115.91 148.8,141.95 " fill="#FFFFFF" fill-opacity="0.00000" id="Main-to-Pantalla" style="stroke:#181818;stroke-width:1;"/><polygon fill="#181818" points="148.8,147.95,152.8,138.95,148.8,142.95,144.8,138.95,148.8,147.95" style="stroke:#181818;stroke-width:1;"/><text fill="#000000" font-family="sans-serif" font-size="13" lengthAdjust="spacing" textLength="51.5493" x="149.8" y="114.3569">Llama a</text></g><!--link Pantalla to Grafica--><g id="link_Pantalla_Grafica"><path codeLine="60" d="M148.8,278.12 C148.8,302.21 148.8,323.75 148.8,348.53 " fill="#FFFFFF" fill-opacity="0.00000" id="Pantalla-to-Grafica" style="stroke:#181818;stroke-width:1;"/><polygon fill="#181818" points="148.8,354.53,152.8,345.53,148.8,349.53,144.8,345.53,148.8,354.53" style="stroke:#181818;stroke-width:1;"/><text fill="#000000" font-family="sans-serif" font-size="13" lengthAdjust="spacing" textLength="58.2144" x="149.8" y="320.8469">Contiene</text></g><!--link Grafica to Cola--><g id="link_Grafica_Cola"><path codeLine="61" d="M148.8,500.76 C148.8,524.88 148.8,546.04 148.8,571.25 " fill="#FFFFFF" fill-opacity="0.00000" id="Grafica-to-Cola" style="stroke:#181818;stroke-width:1;"/><polygon fill="#181818" points="148.8,577.25,152.8,568.25,148.8,572.25,144.8,568.25,148.8,577.25" style="stroke:#181818;stroke-width:1;"/><text fill="#000000" font-family="sans-serif" font-size="13" lengthAdjust="spacing" textLength="76.1973" x="149.8" y="543.6269">Genera una</text></g><!--link Cola to NodoFrame--><g id="link_Cola_NodoFrame"><path codeLine="62" d="M148.8,756.27 C148.8,782.07 148.8,803.52 148.8,826.69 " fill="#FFFFFF" fill-opacity="0.00000" id="Cola-to-NodoFrame" style="stroke:#181818;stroke-width:1;"/><polygon fill="#181818" points="148.8,832.69,152.8,823.69,148.8,827.69,144.8,823.69,148.8,832.69" style="stroke:#181818;stroke-width:1;"/><text fill="#000000" font-family="sans-serif" font-size="13" lengthAdjust="spacing" textLength="64.4858" x="149.8" y="798.9969">Almacena</text></g><!--link NodoFrame to Frame--><g id="link_NodoFrame_Frame"><path codeLine="63" d="M148.8,946.48 C148.8,970.53 148.8,992.59 148.8,1016.65 " fill="#FFFFFF" fill-opacity="0.00000" id="NodoFrame-to-Frame" style="stroke:#181818;stroke-width:1;"/><polygon fill="#181818" points="148.8,1022.65,152.8,1013.65,148.8,1017.65,144.8,1013.65,148.8,1022.65" style="stroke:#181818;stroke-width:1;"/><text fill="#000000" font-family="sans-serif" font-size="13" lengthAdjust="spacing" textLength="67.7168" x="149.8" y="989.1869">Hereda de</text></g><!--link Frame to Pixel--><g id="link_Frame_Pixel"><path codeLine="64" d="M148.8,1136.69 C148.8,1161.16 148.8,1183.56 148.8,1207 " fill="#FFFFFF" fill-opacity="0.00000" id="Frame-to-Pixel" style="stroke:#181818;stroke-width:1;"/><polygon fill="#181818" points="148.8,1213,152.8,1204,148.8,1208,144.8,1204,148.8,1213" style="stroke:#181818;stroke-width:1;"/><text fill="#000000" font-family="sans-serif" font-size="13" lengthAdjust="spacing" textLength="130.3872" x="149.8" y="1179.3769">Tiene una matriz de</text></g><!--link Pixel to Color--><g id="link_Pixel_Color"><path codeLine="65" d="M148.8,1310.64 C148.8,1334.38 148.8,1356.98 148.8,1380.72 " fill="#FFFFFF" fill-opacity="0.00000" id="Pixel-to-Color" style="stroke:#181818;stroke-width:1;"/><polygon fill="#181818" points="148.8,1386.72,152.8,1377.72,148.8,1381.72,144.8,1377.72,148.8,1386.72" style="stroke:#181818;stroke-width:1;"/><text fill="#000000" font-family="sans-serif" font-size="13" lengthAdjust="spacing" textLength="56.3989" x="149.8" y="1353.2669">Tiene un</text></g><!--SRC=[RLJ1Rjim3BtxAmIVKXW1jaiF1ZfWQx4Ks5e4wquBSc1jnXCcIoub1yM6VTI-OJysKRBaE5bE3D_ZuvD8kL5WhNW0gNyLml-gteUh9qTITxkz0EhiLIsEHhR5xw9e0diBse5I86B9-day791gyP6Wnzq-9Zk2WsoW5fiOHFLKkhgQkXdh26YLUeJI0KQBguksar3gscDlICAd3pTlhsjna1gKaDf5q865-sytrsykaCOe24PjBMvz77rCsibMXngzhSXRcAjQF1frHBepTeRJoRDNLav61v8zagd5esbDOCRyg9piBzCEUlZxn-UJvOh5aZFKBoEEUEuf9qzdK0s8FywJQoVzuHRkdur2qBFvR2YTmCfkz5KEpyrM-UzyS-ufiLdxZ6zFuRcFzj75l1SM1lcAYcUsvM2tJqTSD2TK2ZNGDfB_FxWJSDQQTvjJgQdV5KDXJGnD-yjmQfSK0yvwaNYw18QI5k50QFsveP56rwBv3fJ7o-LBpIyBEek70g_DRrMir-_oCwn5-LdvfH5G5lbfCc6Jdc1vQtGOUrcaHyGuxvK7Ds7PnQXzVTXRnl9iFE6zwg51XkU9CIVXzqZOWcYz_0o6c_BWL-xBug87_rNv6MZnbYSFVCMPLlu3]--></g></svg>