<svg xmlns="http://www.w3.org/2000/svg" xmlns:xlink="http://www.w3.org/1999/xlink" contentStyleType="text/css" data-diagram-type="CLASS" height="1556px" preserveAspectRatio="none" style="width:465px;height:1556px;background:#FFFFFF;" version="1.1" viewBox="0 0 465 1556" width="465px" zoomAndPan="magnify"><defs/><g><!--class Main--><g id="elem_Main"><rect codeLine="1" fill="#F1F1F1" height="64.2969" id="Main" rx="2.5" ry="2.5" style="stroke:#181818;stroke-width:0.5;" width="198.3682" x="133.78" y="7"/><ellipse cx="212.0036" cy="23" fill="#ADD1B2" rx="11" ry="11" style="stroke:#181818;stroke-width:1;"/><path d="M214.9724,28.6406 Q214.3943,28.9375 213.7536,29.0781 Q213.113,29.2344 212.4099,29.2344 Q209.9099,29.2344 208.5818,27.5938 Q207.2693,25.9375 207.2693,22.8125 Q207.2693,19.6875 208.5818,18.0313 Q209.9099,16.375 212.4099,16.375 Q213.113,16.375 213.7536,16.5313 Q214.4099,16.6875 214.9724,16.9844 L214.9724,19.7031 Q214.3474,19.125 213.7536,18.8594 Q213.1599,18.5781 212.5349,18.5781 Q211.1911,18.5781 210.5036,19.6563 Q209.8161,20.7188 209.8161,22.8125 Q209.8161,24.9063 210.5036,25.9844 Q211.1911,27.0469 212.5349,27.0469 Q213.1599,27.0469 213.7536,26.7813 Q214.3474,26.5 214.9724,25.9219 L214.9724,28.6406 Z " fill="#000000"/><text fill="#000000" font-family="sans-serif" font-size="14" lengthAdjust="spacing" textLength="33.4209" x="232.5036" y="27.8467">Main</text><line style="stroke:#181818;stroke-width:0.5;" x1="134.78" x2="331.1482" y1="39" y2="39"/><line style="stroke:#181818;stroke-width:0.5;" x1="134.78" x2="331.1482" y1="47" y2="47"/><ellipse cx="144.78" cy="60.6484" fill="#84BE84" rx="3" ry="3" style="stroke:#038048;stroke-width:1;"/><text fill="#000000" font-family="sans-serif" font-size="14" lengthAdjust="spacing" textLength="172.3682" x="153.78" y="63.9951">main(String[] args): void</text></g><!--class Pantalla--><g id="elem_Pantalla"><rect codeLine="5" fill="#F1F1F1" height="162.0781" id="Pantalla" rx="2.5" ry="2.5" style="stroke:#181818;stroke-width:0.5;" width="451.9199" x="7" y="148.3"/><ellipse cx="200.5493" cy="164.3" fill="#ADD1B2" rx="11" ry="11" style="stroke:#181818;stroke-width:1;"/><path d="M203.5181,169.9406 Q202.9399,170.2375 202.2993,170.3781 Q201.6587,170.5344 200.9556,170.5344 Q198.4556,170.5344 197.1274,168.8937 Q195.8149,167.2375 195.8149,164.1125 Q195.8149,160.9875 197.1274,159.3312 Q198.4556,157.675 200.9556,157.675 Q201.6587,157.675 202.2993,157.8312 Q202.9556,157.9875 203.5181,158.2844 L203.5181,161.0031 Q202.8931,160.425 202.2993,160.1594 Q201.7056,159.8781 201.0806,159.8781 Q199.7368,159.8781 199.0493,160.9562 Q198.3618,162.0187 198.3618,164.1125 Q198.3618,166.2062 199.0493,167.2844 Q199.7368,168.3469 201.0806,168.3469 Q201.7056,168.3469 202.2993,168.0812 Q202.8931,167.8 203.5181,167.2219 L203.5181,169.9406 Z " fill="#000000"/><text fill="#000000" font-family="sans-serif" font-size="14" lengthAdjust="spacing" textLength="56.3213" x="221.0493" y="169.1467">Pantalla</text><line style="stroke:#181818;stroke-width:0.5;" x1="8" x2="457.9199" y1="180.3" y2="180.3"/><rect fill="#FFFFFF" fill-opacity="0.00000" height="6" style="stroke:#C82930;stroke-width:1;" width="6" x="15" y="190.9484"/><text fill="#000000" font-family="sans-serif" font-size="14" lengthAdjust="spacing" textLength="106.7158" x="27" y="197.2951">buffer: Frame[]</text><rect fill="#FFFFFF" fill-opacity="0.00000" height="6" style="stroke:#C82930;stroke-width:1;" width="6" x="15" y="207.2453"/><text fill="#000000" font-family="sans-serif" font-size="14" lengthAdjust="spacing" textLength="107.7617" x="27" y="213.592">grafica: Grafica</text><rect fill="#FFFFFF" fill-opacity="0.00000" height="6" style="stroke:#C82930;stroke-width:1;" width="6" x="15" y="223.5422"/><text fill="#000000" font-family="sans-serif" font-size="14" lengthAdjust="spacing" textLength="239.0938" x="27" y="229.8889">tablaCombinaciones: final char[][]</text><line style="stroke:#181818;stroke-width:0.5;" x1="8" x2="457.9199" y1="237.1906" y2="237.1906"/><ellipse cx="18" cy="250.8391" fill="#84BE84" rx="3" ry="3" style="stroke:#038048;stroke-width:1;"/><text fill="#000000" font-family="sans-serif" font-size="14" lengthAdjust="spacing" textLength="67.2451" x="27" y="254.1857">Pantalla()</text><ellipse cx="18" cy="267.1359" fill="#84BE84" rx="3" ry="3" style="stroke:#038048;stroke-width:1;"/><text fill="#000000" font-family="sans-serif" font-size="14" lengthAdjust="spacing" textLength="104.7949" x="27" y="270.4826">mostrar(): void</text><rect fill="#F24D5C" height="6" style="stroke:#C82930;stroke-width:1;" width="6" x="15" y="280.4328"/><text fill="#000000" font-family="sans-serif" font-size="14" lengthAdjust="spacing" textLength="91.9639" x="27" y="286.7795">pause(): void</text><rect fill="#F24D5C" height="6" style="stroke:#C82930;stroke-width:1;" width="6" x="15" y="296.7297"/><text fill="#000000" font-family="sans-serif" font-size="14" lengthAdjust="spacing" textLength="425.9199" x="27" y="303.0764">mezclarColores(Color colorFrame1, Color colorFrame2): char</text></g><!--class Grafica--><g id="elem_Grafica"><rect codeLine="15" fill="#F1F1F1" height="145.7813" id="Grafica" rx="2.5" ry="2.5" style="stroke:#181818;stroke-width:0.5;" width="241.1201" x="112.4" y="387.37"/><ellipse cx="203.5709" cy="403.37" fill="#ADD1B2" rx="11" ry="11" style="stroke:#181818;stroke-width:1;"/><path d="M206.5396,409.0106 Q205.9615,409.3075 205.3209,409.4481 Q204.6803,409.6044 203.9771,409.6044 Q201.4771,409.6044 200.149,407.9637 Q198.8365,406.3075 198.8365,403.1825 Q198.8365,400.0575 200.149,398.4012 Q201.4771,396.745 203.9771,396.745 Q204.6803,396.745 205.3209,396.9012 Q205.9771,397.0575 206.5396,397.3544 L206.5396,400.0731 Q205.9146,399.495 205.3209,399.2294 Q204.7271,398.9481 204.1021,398.9481 Q202.7584,398.9481 202.0709,400.0262 Q201.3834,401.0887 201.3834,403.1825 Q201.3834,405.2762 202.0709,406.3544 Q202.7584,407.4169 204.1021,407.4169 Q204.7271,407.4169 205.3209,407.1512 Q205.9146,406.87 206.5396,406.2919 L206.5396,409.0106 Z " fill="#000000"/><text fill="#000000" font-family="sans-serif" font-size="14" lengthAdjust="spacing" textLength="50.2783" x="224.0709" y="408.2167">Grafica</text><line style="stroke:#181818;stroke-width:0.5;" x1="113.4" x2="352.5201" y1="419.37" y2="419.37"/><rect fill="#FFFFFF" fill-opacity="0.00000" height="6" style="stroke:#C82930;stroke-width:1;" width="6" x="120.4" y="430.0184"/><text fill="#000000" font-family="sans-serif" font-size="14" lengthAdjust="spacing" textLength="173.0381" x="132.4" y="436.3651">memoriaKB=16: final int</text><rect fill="#FFFFFF" fill-opacity="0.00000" height="6" style="stroke:#C82930;stroke-width:1;" width="6" x="120.4" y="446.3153"/><text fill="#000000" font-family="sans-serif" font-size="14" lengthAdjust="spacing" textLength="141.6338" x="132.4" y="452.662">tasaHZ=60: final int</text><rect fill="#FFFFFF" fill-opacity="0.00000" height="6" style="stroke:#C82930;stroke-width:1;" width="6" x="120.4" y="462.6122"/><text fill="#000000" font-family="sans-serif" font-size="14" lengthAdjust="spacing" textLength="120.6406" x="132.4" y="468.9589">colaFrames: Cola</text><line style="stroke:#181818;stroke-width:0.5;" x1="113.4" x2="352.5201" y1="476.2606" y2="476.2606"/><ellipse cx="123.4" cy="489.9091" fill="#84BE84" rx="3" ry="3" style="stroke:#038048;stroke-width:1;"/><text fill="#000000" font-family="sans-serif" font-size="14" lengthAdjust="spacing" textLength="61.2021" x="132.4" y="493.2557">Grafica()</text><ellipse cx="123.4" cy="506.2059" fill="#84BE84" rx="3" ry="3" style="stroke:#038048;stroke-width:1;"/><text fill="#000000" font-family="sans-serif" font-size="14" lengthAdjust="spacing" textLength="156.7275" x="132.4" y="509.5526">generarFrames(): void</text><ellipse cx="123.4" cy="522.5028" fill="#84BE84" rx="3" ry="3" style="stroke:#038048;stroke-width:1;"/><text fill="#000000" font-family="sans-serif" font-size="14" lengthAdjust="spacing" textLength="215.1201" x="132.4" y="525.8495">devolverDosFrames(): Frame[]</text></g><!--class Cola--><g id="elem_Cola"><rect codeLine="24" fill="#F1F1F1" height="178.375" id="Cola" rx="2.5" ry="2.5" style="stroke:#181818;stroke-width:0.5;" width="207.5488" x="129.19" y="610.15"/><ellipse cx="213.3096" cy="626.15" fill="#ADD1B2" rx="11" ry="11" style="stroke:#181818;stroke-width:1;"/><path d="M216.2784,631.7906 Q215.7003,632.0875 215.0596,632.2281 Q214.419,632.3844 213.7159,632.3844 Q211.2159,632.3844 209.8878,630.7438 Q208.5753,629.0875 208.5753,625.9625 Q208.5753,622.8375 209.8878,621.1813 Q211.2159,619.525 213.7159,619.525 Q214.419,619.525 215.0596,619.6813 Q215.7159,619.8375 216.2784,620.1344 L216.2784,622.8531 Q215.6534,622.275 215.0596,622.0094 Q214.4659,621.7281 213.8409,621.7281 Q212.4971,621.7281 211.8096,622.8063 Q211.1221,623.8688 211.1221,625.9625 Q211.1221,628.0563 211.8096,629.1344 Q212.4971,630.1969 213.8409,630.1969 Q214.4659,630.1969 215.0596,629.9313 Q215.6534,629.65 216.2784,629.0719 L216.2784,631.7906 Z " fill="#000000"/><text fill="#000000" font-family="sans-serif" font-size="14" lengthAdjust="spacing" textLength="30.8096" x="233.8096" y="630.9967">Cola</text><line style="stroke:#181818;stroke-width:0.5;" x1="130.19" x2="335.7388" y1="642.15" y2="642.15"/><rect fill="#FFFFFF" fill-opacity="0.00000" height="6" style="stroke:#C82930;stroke-width:1;" width="6" x="137.19" y="652.7984"/><text fill="#000000" font-family="sans-serif" font-size="14" lengthAdjust="spacing" textLength="145.4004" x="149.19" y="659.1451">primero: NodoFrame</text><rect fill="#FFFFFF" fill-opacity="0.00000" height="6" style="stroke:#C82930;stroke-width:1;" width="6" x="137.19" y="669.0953"/><text fill="#000000" font-family="sans-serif" font-size="14" lengthAdjust="spacing" textLength="134.6406" x="149.19" y="675.442">ultimo: NodoFrame</text><rect fill="#FFFFFF" fill-opacity="0.00000" height="6" style="stroke:#C82930;stroke-width:1;" width="6" x="137.19" y="685.3922"/><text fill="#000000" font-family="sans-serif" font-size="14" lengthAdjust="spacing" textLength="81.1426" x="149.19" y="691.7389">tama&#241;o: int</text><line style="stroke:#181818;stroke-width:0.5;" x1="130.19" x2="335.7388" y1="699.0406" y2="699.0406"/><ellipse cx="140.19" cy="712.6891" fill="#84BE84" rx="3" ry="3" style="stroke:#038048;stroke-width:1;"/><text fill="#000000" font-family="sans-serif" font-size="14" lengthAdjust="spacing" textLength="41.7334" x="149.19" y="716.0357">Cola()</text><ellipse cx="140.19" cy="728.9859" fill="#84BE84" rx="3" ry="3" style="stroke:#038048;stroke-width:1;"/><text fill="#000000" font-family="sans-serif" font-size="14" lengthAdjust="spacing" textLength="111.0635" x="149.19" y="732.3326">enqueue(): void</text><ellipse cx="140.19" cy="745.2828" fill="#84BE84" rx="3" ry="3" style="stroke:#038048;stroke-width:1;"/><text fill="#000000" font-family="sans-serif" font-size="14" lengthAdjust="spacing" textLength="137.0127" x="149.19" y="748.6295">dequeue(): Frame[]</text><ellipse cx="140.19" cy="761.5797" fill="#84BE84" rx="3" ry="3" style="stroke:#038048;stroke-width:1;"/><text fill="#000000" font-family="sans-serif" font-size="14" lengthAdjust="spacing" textLength="109.874" x="149.19" y="764.9264">peek(): Frame[]</text><rect fill="#F24D5C" height="6" style="stroke:#C82930;stroke-width:1;" width="6" x="137.19" y="774.8766"/><text fill="#000000" font-family="sans-serif" font-size="14" lengthAdjust="spacing" textLength="181.5488" x="149.19" y="781.2232">tieneDosFrames(): bolean</text></g><!--class NodoFrame--><g id="elem_NodoFrame"><rect codeLine="35" fill="#F1F1F1" height="113.1875" id="NodoFrame" rx="2.5" ry="2.5" style="stroke:#181818;stroke-width:0.5;" width="283.5986" x="91.16" y="865.53"/><ellipse cx="188.1449" cy="881.53" fill="#ADD1B2" rx="11" ry="11" style="stroke:#181818;stroke-width:1;"/><path d="M191.1136,887.1706 Q190.5355,887.4675 189.8949,887.6081 Q189.2542,887.7644 188.5511,887.7644 Q186.0511,887.7644 184.723,886.1238 Q183.4105,884.4675 183.4105,881.3425 Q183.4105,878.2175 184.723,876.5613 Q186.0511,874.905 188.5511,874.905 Q189.2542,874.905 189.8949,875.0613 Q190.5511,875.2175 191.1136,875.5144 L191.1136,878.2331 Q190.4886,877.655 189.8949,877.3894 Q189.3011,877.1081 188.6761,877.1081 Q187.3324,877.1081 186.6449,878.1863 Q185.9574,879.2488 185.9574,881.3425 Q185.9574,883.4363 186.6449,884.5144 Q187.3324,885.5769 188.6761,885.5769 Q189.3011,885.5769 189.8949,885.3113 Q190.4886,885.03 191.1136,884.4519 L191.1136,887.1706 Z " fill="#000000"/><text fill="#000000" font-family="sans-serif" font-size="14" lengthAdjust="spacing" textLength="81.1289" x="208.6449" y="886.3767">NodoFrame</text><line style="stroke:#181818;stroke-width:0.5;" x1="92.16" x2="373.7586" y1="897.53" y2="897.53"/><rect fill="#FFFFFF" fill-opacity="0.00000" height="6" style="stroke:#C82930;stroke-width:1;" width="6" x="99.16" y="908.1784"/><text fill="#000000" font-family="sans-serif" font-size="14" lengthAdjust="spacing" textLength="154.7178" x="111.16" y="914.5251">siguiente: NodoFrame</text><line style="stroke:#181818;stroke-width:0.5;" x1="92.16" x2="373.7586" y1="921.8269" y2="921.8269"/><ellipse cx="102.16" cy="935.4753" fill="#84BE84" rx="3" ry="3" style="stroke:#038048;stroke-width:1;"/><text fill="#000000" font-family="sans-serif" font-size="14" lengthAdjust="spacing" textLength="92.0527" x="111.16" y="938.822">NodoFrame()</text><ellipse cx="102.16" cy="951.7722" fill="#84BE84" rx="3" ry="3" style="stroke:#038048;stroke-width:1;"/><text fill="#000000" font-family="sans-serif" font-size="14" lengthAdjust="spacing" textLength="190.2236" x="111.16" y="955.1189">getSiguiente(): NodoFrame</text><ellipse cx="102.16" cy="968.0691" fill="#84BE84" rx="3" ry="3" style="stroke:#038048;stroke-width:1;"/><text fill="#000000" font-family="sans-serif" font-size="14" lengthAdjust="spacing" textLength="257.5986" x="111.16" y="971.4157">setSiguiente(NodoFrame nodo): void</text></g><!--class Frame--><g id="elem_Frame"><rect codeLine="42" fill="#F1F1F1" height="113.1875" id="Frame" rx="2.5" ry="2.5" style="stroke:#181818;stroke-width:0.5;" width="210.9805" x="127.47" y="1055.72"/><ellipse cx="206.3909" cy="1071.72" fill="#ADD1B2" rx="11" ry="11" style="stroke:#181818;stroke-width:1;"/><path d="M209.3596,1077.3606 Q208.7815,1077.6575 208.1409,1077.7981 Q207.5003,1077.9544 206.7971,1077.9544 Q204.2971,1077.9544 202.969,1076.3138 Q201.6565,1074.6575 201.6565,1071.5325 Q201.6565,1068.4075 202.969,1066.7513 Q204.2971,1065.095 206.7971,1065.095 Q207.5003,1065.095 208.1409,1065.2513 Q208.7971,1065.4075 209.3596,1065.7044 L209.3596,1068.4231 Q208.7346,1067.845 208.1409,1067.5794 Q207.5471,1067.2981 206.9221,1067.2981 Q205.5784,1067.2981 204.8909,1068.3763 Q204.2034,1069.4388 204.2034,1071.5325 Q204.2034,1073.6263 204.8909,1074.7044 Q205.5784,1075.7669 206.9221,1075.7669 Q207.5471,1075.7669 208.1409,1075.5013 Q208.7346,1075.22 209.3596,1074.6419 L209.3596,1077.3606 Z " fill="#000000"/><text fill="#000000" font-family="sans-serif" font-size="14" lengthAdjust="spacing" textLength="44.6387" x="226.8909" y="1076.5667">Frame</text><line style="stroke:#181818;stroke-width:0.5;" x1="128.47" x2="337.4505" y1="1087.72" y2="1087.72"/><rect fill="#FFFFFF" fill-opacity="0.00000" height="6" style="stroke:#C82930;stroke-width:1;" width="6" x="135.47" y="1098.3684"/><text fill="#000000" font-family="sans-serif" font-size="14" lengthAdjust="spacing" textLength="113.6064" x="147.47" y="1104.7151">pixeles: Pixel[][]</text><line style="stroke:#181818;stroke-width:0.5;" x1="128.47" x2="337.4505" y1="1112.0169" y2="1112.0169"/><ellipse cx="138.47" cy="1125.6653" fill="#84BE84" rx="3" ry="3" style="stroke:#038048;stroke-width:1;"/><text fill="#000000" font-family="sans-serif" font-size="14" lengthAdjust="spacing" textLength="55.5625" x="147.47" y="1129.012">Frame()</text><ellipse cx="138.47" cy="1141.9622" fill="#84BE84" rx="3" ry="3" style="stroke:#038048;stroke-width:1;"/><text fill="#000000" font-family="sans-serif" font-size="14" lengthAdjust="spacing" textLength="152.7148" x="147.47" y="1145.3089">rellenarPixeles(): void</text><ellipse cx="138.47" cy="1158.2591" fill="#84BE84" rx="3" ry="3" style="stroke:#038048;stroke-width:1;"/><text fill="#000000" font-family="sans-serif" font-size="14" lengthAdjust="spacing" textLength="184.9805" x="147.47" y="1161.6057">devolverPixeles(): Pixel[][]</text></g><!--class Pixel--><g id="elem_Pixel"><rect codeLine="49" fill="#F1F1F1" height="96.8906" id="Pixel" rx="2.5" ry="2.5" style="stroke:#181818;stroke-width:0.5;" width="180.0889" x="142.92" y="1245.91"/><ellipse cx="212.1544" cy="1261.91" fill="#ADD1B2" rx="11" ry="11" style="stroke:#181818;stroke-width:1;"/><path d="M215.1231,1267.5506 Q214.545,1267.8475 213.9044,1267.9881 Q213.2638,1268.1444 212.5606,1268.1444 Q210.0606,1268.1444 208.7325,1266.5038 Q207.42,1264.8475 207.42,1261.7225 Q207.42,1258.5975 208.7325,1256.9413 Q210.0606,1255.285 212.5606,1255.285 Q213.2638,1255.285 213.9044,1255.4413 Q214.5606,1255.5975 215.1231,1255.8944 L215.1231,1258.6131 Q214.4981,1258.035 213.9044,1257.7694 Q213.3106,1257.4881 212.6856,1257.4881 Q211.3419,1257.4881 210.6544,1258.5663 Q209.9669,1259.6288 209.9669,1261.7225 Q209.9669,1263.8163 210.6544,1264.8944 Q211.3419,1265.9569 212.6856,1265.9569 Q213.3106,1265.9569 213.9044,1265.6913 Q214.4981,1265.41 215.1231,1264.8319 L215.1231,1267.5506 Z " fill="#000000"/><text fill="#000000" font-family="sans-serif" font-size="14" lengthAdjust="spacing" textLength="33.1201" x="232.6544" y="1266.7567">Pixel</text><line style="stroke:#181818;stroke-width:0.5;" x1="143.92" x2="322.0089" y1="1277.91" y2="1277.91"/><rect fill="#FFFFFF" fill-opacity="0.00000" height="6" style="stroke:#C82930;stroke-width:1;" width="6" x="150.92" y="1288.5584"/><text fill="#000000" font-family="sans-serif" font-size="14" lengthAdjust="spacing" textLength="80.1924" x="162.92" y="1294.9051">color: Color</text><line style="stroke:#181818;stroke-width:0.5;" x1="143.92" x2="322.0089" y1="1302.2069" y2="1302.2069"/><ellipse cx="153.92" cy="1315.8553" fill="#84BE84" rx="3" ry="3" style="stroke:#038048;stroke-width:1;"/><text fill="#000000" font-family="sans-serif" font-size="14" lengthAdjust="spacing" textLength="44.0439" x="162.92" y="1319.202">Pixel()</text><ellipse cx="153.92" cy="1332.1522" fill="#84BE84" rx="3" ry="3" style="stroke:#038048;stroke-width:1;"/><text fill="#000000" font-family="sans-serif" font-size="14" lengthAdjust="spacing" textLength="154.0889" x="162.92" y="1335.4989">devolverColor(): Color</text></g><!--class Color--><g id="elem_Color"><rect codeLine="55" fill="#F1F1F1" height="129.4844" id="Color" rx="2.5" ry="2.5" style="stroke:#181818;stroke-width:0.5;" width="247.3613" x="109.28" y="1419.8"/><ellipse cx="210.4348" cy="1435.8" fill="#ADD1B2" rx="11" ry="11" style="stroke:#181818;stroke-width:1;"/><path d="M213.4035,1441.4406 Q212.8254,1441.7375 212.1848,1441.8781 Q211.5442,1442.0344 210.841,1442.0344 Q208.341,1442.0344 207.0129,1440.3938 Q205.7004,1438.7375 205.7004,1435.6125 Q205.7004,1432.4875 207.0129,1430.8313 Q208.341,1429.175 210.841,1429.175 Q211.5442,1429.175 212.1848,1429.3313 Q212.841,1429.4875 213.4035,1429.7844 L213.4035,1432.5031 Q212.7785,1431.925 212.1848,1431.6594 Q211.591,1431.3781 210.966,1431.3781 Q209.6223,1431.3781 208.9348,1432.4563 Q208.2473,1433.5188 208.2473,1435.6125 Q208.2473,1437.7063 208.9348,1438.7844 Q209.6223,1439.8469 210.966,1439.8469 Q211.591,1439.8469 212.1848,1439.5813 Q212.7785,1439.3 213.4035,1438.7219 L213.4035,1441.4406 Z " fill="#000000"/><text fill="#000000" font-family="sans-serif" font-size="14" lengthAdjust="spacing" textLength="36.5518" x="230.9348" y="1440.6467">Color</text><line style="stroke:#181818;stroke-width:0.5;" x1="110.28" x2="355.6413" y1="1451.8" y2="1451.8"/><rect fill="#FFFFFF" fill-opacity="0.00000" height="6" style="stroke:#C82930;stroke-width:1;" width="6" x="117.28" y="1462.4484"/><text fill="#000000" font-family="sans-serif" font-size="14" lengthAdjust="spacing" textLength="145.5713" x="129.28" y="1468.7951">representacion: char</text><rect fill="#FFFFFF" fill-opacity="0.00000" height="6" style="stroke:#C82930;stroke-width:1;" width="6" x="117.28" y="1478.7453"/><text fill="#000000" font-family="sans-serif" font-size="14" lengthAdjust="spacing" textLength="62.4941" x="129.28" y="1485.092">valor: int</text><line style="stroke:#181818;stroke-width:0.5;" x1="110.28" x2="355.6413" y1="1492.3938" y2="1492.3938"/><ellipse cx="120.28" cy="1506.0422" fill="#84BE84" rx="3" ry="3" style="stroke:#038048;stroke-width:1;"/><text fill="#000000" font-family="sans-serif" font-size="14" lengthAdjust="spacing" textLength="47.4756" x="129.28" y="1509.3889">Color()</text><ellipse cx="120.28" cy="1522.3391" fill="#84BE84" rx="3" ry="3" style="stroke:#038048;stroke-width:1;"/><text fill="#000000" font-family="sans-serif" font-size="14" lengthAdjust="spacing" textLength="221.3613" x="129.28" y="1525.6857">devolverRepresentacion(): char</text><ellipse cx="120.28" cy="1538.6359" fill="#84BE84" rx="3" ry="3" style="stroke:#038048;stroke-width:1;"/><text fill="#000000" font-family="sans-serif" font-size="14" lengthAdjust="spacing" textLength="135.6045" x="129.28" y="1541.9826">devolverValor(): int</text></g><!--link Main to Pantalla--><g id="link_Main_Pantalla"><path codeLine="63" d="M232.96,71.65 C232.96,92.57 232.96,115.06 232.96,142.01 " fill="#FFFFFF" fill-opacity="0.00000" id="Main-to-Pantalla" style="stroke:#181818;stroke-width:1;"/><polygon fill="#181818" points="232.96,148.01,236.96,139.01,232.96,143.01,228.96,139.01,232.96,148.01" style="stroke:#181818;stroke-width:1;"/><text fill="#000000" font-family="sans-serif" font-size="13" lengthAdjust="spacing" textLength="51.5493" x="233.96" y="114.3669">Llama a</text></g><!--link Pantalla to Grafica--><g id="link_Pantalla_Grafica"><path codeLine="64" d="M232.96,310.72 C232.96,335.59 232.96,356.82 232.96,381.09 " fill="#FFFFFF" fill-opacity="0.00000" id="Pantalla-to-Grafica" style="stroke:#181818;stroke-width:1;"/><polygon fill="#181818" points="232.96,387.09,236.96,378.09,232.96,382.09,228.96,378.09,232.96,387.09" style="stroke:#181818;stroke-width:1;"/><text fill="#000000" font-family="sans-serif" font-size="13" lengthAdjust="spacing" textLength="58.2144" x="233.96" y="353.4369">Contiene</text></g><!--link Grafica to Cola--><g id="link_Grafica_Cola"><path codeLine="65" d="M232.96,533.36 C232.96,557.47 232.96,578.63 232.96,603.85 " fill="#FFFFFF" fill-opacity="0.00000" id="Grafica-to-Cola" style="stroke:#181818;stroke-width:1;"/><polygon fill="#181818" points="232.96,609.85,236.96,600.85,232.96,604.85,228.96,600.85,232.96,609.85" style="stroke:#181818;stroke-width:1;"/><text fill="#000000" font-family="sans-serif" font-size="13" lengthAdjust="spacing" textLength="76.1973" x="233.96" y="576.2169">Genera una</text></g><!--link Cola to NodoFrame--><g id="link_Cola_NodoFrame"><path codeLine="66" d="M232.96,788.87 C232.96,814.66 232.96,836.12 232.96,859.28 " fill="#FFFFFF" fill-opacity="0.00000" id="Cola-to-NodoFrame" style="stroke:#181818;stroke-width:1;"/><polygon fill="#181818" points="232.96,865.28,236.96,856.28,232.96,860.28,228.96,856.28,232.96,865.28" style="stroke:#181818;stroke-width:1;"/><text fill="#000000" font-family="sans-serif" font-size="13" lengthAdjust="spacing" textLength="64.4858" x="233.96" y="831.5969">Almacena</text></g><!--link NodoFrame to Frame--><g id="link_NodoFrame_Frame"><path codeLine="67" d="M232.96,979.08 C232.96,1003.13 232.96,1025.18 232.96,1049.25 " fill="#FFFFFF" fill-opacity="0.00000" id="NodoFrame-to-Frame" style="stroke:#181818;stroke-width:1;"/><polygon fill="#181818" points="232.96,1055.25,236.96,1046.25,232.96,1050.25,228.96,1046.25,232.96,1055.25" style="stroke:#181818;stroke-width:1;"/><text fill="#000000" font-family="sans-serif" font-size="13" lengthAdjust="spacing" textLength="67.7168" x="233.96" y="1021.7869">Hereda de</text></g><!--link Frame to Pixel--><g id="link_Frame_Pixel"><path codeLine="68" d="M232.96,1169.29 C232.96,1193.75 232.96,1216.15 232.96,1239.6 " fill="#FFFFFF" fill-opacity="0.00000" id="Frame-to-Pixel" style="stroke:#181818;stroke-width:1;"/><polygon fill="#181818" points="232.96,1245.6,236.96,1236.6,232.96,1240.6,228.96,1236.6,232.96,1245.6" style="stroke:#181818;stroke-width:1;"/><text fill="#000000" font-family="sans-serif" font-size="13" lengthAdjust="spacing" textLength="130.3872" x="233.96" y="1211.9769">Tiene una matriz de</text></g><!--link Pixel to Color--><g id="link_Pixel_Color"><path codeLine="69" d="M232.96,1342.84 C232.96,1366.03 232.96,1388.28 232.96,1413.36 " fill="#FFFFFF" fill-opacity="0.00000" id="Pixel-to-Color" style="stroke:#181818;stroke-width:1;"/><polygon fill="#181818" points="232.96,1419.36,236.96,1410.36,232.96,1414.36,228.96,1410.36,232.96,1419.36" style="stroke:#181818;stroke-width:1;"/><text fill="#000000" font-family="sans-serif" font-size="13" lengthAdjust="spacing" textLength="56.3989" x="233.96" y="1385.8669">Tiene un</text></g><!--SRC=[RLJBZXCn4BpFLrWvJJH4skMmXv4M2R8YA_5Gn28EH3bqPZg3XH_1dedG8ZwAR-37wBR7yqZ88N6wsjNLxh8h1TwB3o3DhqpGfz2qp9zQ9qspsmjmZL-MucnbdVtEiYfaRy6qe1I8k6Lrw8v7TALuwq3ZRX-3ZOEZhA0KcxY8qHOE2jPM7wI1Ibg3lXH7MYjHVGEts_UxYrGYN_Qgh6yTk3nf2MGdw3pEGngVIQDRMsKT-ZpyYeg_WxZR5-8oz9BsS-snlLvmwawZjax2kpVtjtT9h3HjwiV3uzVxkvihX2f0A40TKitOVz5pfxOQD4XjnRnP9qMDPwlEw1wi7-5qmeDMPav2JqvgTBOK7srjGsQCTwgL-ZhSWeQ_VoYU91TCbfIX-T5XXvUQXk1qriK9yVjbSDLAQcwc_c0LWXd53u9I1rus7UrgyL9iCVmTJwvzIjdCVP7lf_1Onz3goiup2IVv4nNFRCkBqP2puWwLGWDk6vF_FxW9E7ADTuX3gMXmOncjsVkVuLGkCGQS-MBYr0HawPxBuOcSJts7-zLxEo1d25McusQwUOrFi-tvSa8mv7o1NWTJaGf-FSHgzMfu64gnUA_8NW8MsV1OSC8cFGgBjJN188iiNJV6sO44RiAr49sX_S7XZ0rJf8JNIaE538-pvPo4FwB36aHDz2COpfJ0proNoOK6UkUUGrgSHw-1Zsb8M_m3]--></g></svg>