<?xml version="1.0" encoding="us-ascii" standalone="no"?><svg xmlns="http://www.w3.org/2000/svg" xmlns:xlink="http://www.w3.org/1999/xlink" contentStyleType="text/css" height="700px" preserveAspectRatio="none" style="width:785px;height:700px;background:#FFFFFF;" version="1.1" viewBox="0 0 785 700" width="785px" zoomAndPan="magnify"><defs/><g><!--class Frame--><g id="elem_Frame"><rect codeLine="2" fill="#F1F1F1" height="206.4844" id="Frame" rx="2.5" ry="2.5" style="stroke:#181818;stroke-width:0.5;" width="344" x="7" y="256"/><ellipse cx="154.25" cy="272" fill="#ADD1B2" rx="11" ry="11" style="stroke:#181818;stroke-width:1.0;"/><path d="M157.0156,267.875 Q157.1719,267.6563 157.3594,267.5469 Q157.5469,267.4375 157.7656,267.4375 Q158.1406,267.4375 158.375,267.7031 Q158.6094,267.9531 158.6094,268.5625 L158.6094,270.0156 Q158.6094,270.625 158.375,270.8906 Q158.1406,271.1563 157.7656,271.1563 Q157.4219,271.1563 157.2188,270.9531 Q157.0156,270.7656 156.9063,270.25 Q156.8594,269.8906 156.6719,269.7031 Q156.3438,269.3281 155.7344,269.1094 Q155.125,268.8906 154.5,268.8906 Q153.7344,268.8906 153.0938,269.2188 Q152.4688,269.5469 151.9688,270.2969 Q151.4844,271.0469 151.4844,272.0781 L151.4844,273.1719 Q151.4844,274.4063 152.375,275.2344 Q153.2656,276.0469 154.8594,276.0469 Q155.7969,276.0469 156.4531,275.7969 Q156.8438,275.6406 157.2656,275.2031 Q157.5313,274.9375 157.6719,274.8594 Q157.8281,274.7813 158.0313,274.7813 Q158.3594,274.7813 158.6094,275.0469 Q158.875,275.2969 158.875,275.6406 Q158.875,275.9844 158.5313,276.3906 Q158.0313,276.9688 157.2344,277.2969 Q156.1563,277.75 154.8594,277.75 Q153.3438,277.75 152.1406,277.125 Q151.1563,276.625 150.4688,275.5625 Q149.7813,274.4844 149.7813,273.2031 L149.7813,272.0469 Q149.7813,270.7188 150.3906,269.5781 Q151.0156,268.4219 152.1094,267.8125 Q153.2031,267.1875 154.4375,267.1875 Q155.1719,267.1875 155.8125,267.3594 Q156.4688,267.5156 157.0156,267.875 Z " fill="#000000"/><text fill="#000000" font-family="sans-serif" font-size="14" lengthAdjust="spacing" textLength="41" x="174.75" y="277.7285">Frame</text><line style="stroke:#181818;stroke-width:0.5;" x1="8" x2="350" y1="288" y2="288"/><rect fill="none" height="6" style="stroke:#C82930;stroke-width:1.0;" width="6" x="15" y="299.3047"/><text fill="#000000" font-family="sans-serif" font-size="14" lengthAdjust="spacing" textLength="117" x="27" y="306.5332">datosPixel: Pixel[][]</text><rect fill="none" height="6" style="stroke:#C82930;stroke-width:1.0;" width="6" x="15" y="316.9141"/><text fill="#000000" font-family="sans-serif" font-size="14" lengthAdjust="spacing" textLength="59" x="27" y="324.1426">altura: int</text><rect fill="none" height="6" style="stroke:#C82930;stroke-width:1.0;" width="6" x="15" y="334.5234"/><text fill="#000000" font-family="sans-serif" font-size="14" lengthAdjust="spacing" textLength="75" x="27" y="341.752">anchura: int</text><line style="stroke:#181818;stroke-width:0.5;" x1="8" x2="350" y1="348.8281" y2="348.8281"/><ellipse cx="18" cy="363.1328" fill="#84BE84" rx="3" ry="3" style="stroke:#038048;stroke-width:1.0;"/><text fill="#000000" font-family="sans-serif" font-size="14" lengthAdjust="spacing" textLength="318" x="27" y="367.3613">Frame(datosPixel: Pixel[][], altura: int, anchura: int)</text><ellipse cx="18" cy="380.7422" fill="#84BE84" rx="3" ry="3" style="stroke:#038048;stroke-width:1.0;"/><text fill="#000000" font-family="sans-serif" font-size="14" lengthAdjust="spacing" textLength="234" x="27" y="384.9707">setPixel(x: int, y: int, color: char): void</text><ellipse cx="18" cy="398.3516" fill="#84BE84" rx="3" ry="3" style="stroke:#038048;stroke-width:1.0;"/><text fill="#000000" font-family="sans-serif" font-size="14" lengthAdjust="spacing" textLength="162" x="27" y="402.5801">getPixel(x: int, y: int): char</text><ellipse cx="18" cy="415.9609" fill="#84BE84" rx="3" ry="3" style="stroke:#038048;stroke-width:1.0;"/><text fill="#000000" font-family="sans-serif" font-size="14" lengthAdjust="spacing" textLength="108" x="27" y="420.1895">renderizar(): void</text><ellipse cx="18" cy="433.5703" fill="#84BE84" rx="3" ry="3" style="stroke:#038048;stroke-width:1.0;"/><text fill="#000000" font-family="sans-serif" font-size="14" lengthAdjust="spacing" textLength="90" x="27" y="437.7988">getAltura(): int</text><ellipse cx="18" cy="451.1797" fill="#84BE84" rx="3" ry="3" style="stroke:#038048;stroke-width:1.0;"/><text fill="#000000" font-family="sans-serif" font-size="14" lengthAdjust="spacing" textLength="106" x="27" y="455.4082">getAnchura(): int</text></g><!--class Pixel--><g id="elem_Pixel"><rect codeLine="14" fill="#F1F1F1" height="153.6563" id="Pixel" rx="2.5" ry="2.5" style="stroke:#181818;stroke-width:0.5;" width="207" x="75.5" y="540"/><ellipse cx="160.25" cy="556" fill="#ADD1B2" rx="11" ry="11" style="stroke:#181818;stroke-width:1.0;"/><path d="M163.0156,551.875 Q163.1719,551.6563 163.3594,551.5469 Q163.5469,551.4375 163.7656,551.4375 Q164.1406,551.4375 164.375,551.7031 Q164.6094,551.9531 164.6094,552.5625 L164.6094,554.0156 Q164.6094,554.625 164.375,554.8906 Q164.1406,555.1563 163.7656,555.1563 Q163.4219,555.1563 163.2188,554.9531 Q163.0156,554.7656 162.9063,554.25 Q162.8594,553.8906 162.6719,553.7031 Q162.3438,553.3281 161.7344,553.1094 Q161.125,552.8906 160.5,552.8906 Q159.7344,552.8906 159.0938,553.2188 Q158.4688,553.5469 157.9688,554.2969 Q157.4844,555.0469 157.4844,556.0781 L157.4844,557.1719 Q157.4844,558.4063 158.375,559.2344 Q159.2656,560.0469 160.8594,560.0469 Q161.7969,560.0469 162.4531,559.7969 Q162.8438,559.6406 163.2656,559.2031 Q163.5313,558.9375 163.6719,558.8594 Q163.8281,558.7813 164.0313,558.7813 Q164.3594,558.7813 164.6094,559.0469 Q164.875,559.2969 164.875,559.6406 Q164.875,559.9844 164.5313,560.3906 Q164.0313,560.9688 163.2344,561.2969 Q162.1563,561.75 160.8594,561.75 Q159.3438,561.75 158.1406,561.125 Q157.1563,560.625 156.4688,559.5625 Q155.7813,558.4844 155.7813,557.2031 L155.7813,556.0469 Q155.7813,554.7188 156.3906,553.5781 Q157.0156,552.4219 158.1094,551.8125 Q159.2031,551.1875 160.4375,551.1875 Q161.1719,551.1875 161.8125,551.3594 Q162.4688,551.5156 163.0156,551.875 Z " fill="#000000"/><text fill="#000000" font-family="sans-serif" font-size="14" lengthAdjust="spacing" textLength="29" x="180.75" y="561.7285">Pixel</text><line style="stroke:#181818;stroke-width:0.5;" x1="76.5" x2="281.5" y1="572" y2="572"/><rect fill="none" height="6" style="stroke:#C82930;stroke-width:1.0;" width="6" x="83.5" y="583.3047"/><text fill="#000000" font-family="sans-serif" font-size="14" lengthAdjust="spacing" textLength="29" x="95.5" y="590.5332">x: int</text><rect fill="none" height="6" style="stroke:#C82930;stroke-width:1.0;" width="6" x="83.5" y="600.9141"/><text fill="#000000" font-family="sans-serif" font-size="14" lengthAdjust="spacing" textLength="30" x="95.5" y="608.1426">y: int</text><rect fill="none" height="6" style="stroke:#C82930;stroke-width:1.0;" width="6" x="83.5" y="618.5234"/><text fill="#000000" font-family="sans-serif" font-size="14" lengthAdjust="spacing" textLength="67" x="95.5" y="625.752">color: char</text><line style="stroke:#181818;stroke-width:0.5;" x1="76.5" x2="281.5" y1="632.8281" y2="632.8281"/><ellipse cx="86.5" cy="647.1328" fill="#84BE84" rx="3" ry="3" style="stroke:#038048;stroke-width:1.0;"/><text fill="#000000" font-family="sans-serif" font-size="14" lengthAdjust="spacing" textLength="181" x="95.5" y="651.3613">Pixel(x: int, y: int, color: char)</text><ellipse cx="86.5" cy="664.7422" fill="#84BE84" rx="3" ry="3" style="stroke:#038048;stroke-width:1.0;"/><text fill="#000000" font-family="sans-serif" font-size="14" lengthAdjust="spacing" textLength="164" x="95.5" y="668.9707">setColor(color: char): void</text><ellipse cx="86.5" cy="682.3516" fill="#84BE84" rx="3" ry="3" style="stroke:#038048;stroke-width:1.0;"/><text fill="#000000" font-family="sans-serif" font-size="14" lengthAdjust="spacing" textLength="100" x="95.5" y="686.5801">getColor(): char</text></g><!--class Entrelazado--><g id="elem_Entrelazado"><rect codeLine="23" fill="#F1F1F1" height="118.4375" id="Entrelazado" rx="2.5" ry="2.5" style="stroke:#181818;stroke-width:0.5;" width="392" x="386" y="300"/><ellipse cx="540.25" cy="316" fill="#ADD1B2" rx="11" ry="11" style="stroke:#181818;stroke-width:1.0;"/><path d="M543.0156,311.875 Q543.1719,311.6563 543.3594,311.5469 Q543.5469,311.4375 543.7656,311.4375 Q544.1406,311.4375 544.375,311.7031 Q544.6094,311.9531 544.6094,312.5625 L544.6094,314.0156 Q544.6094,314.625 544.375,314.8906 Q544.1406,315.1563 543.7656,315.1563 Q543.4219,315.1563 543.2188,314.9531 Q543.0156,314.7656 542.9063,314.25 Q542.8594,313.8906 542.6719,313.7031 Q542.3438,313.3281 541.7344,313.1094 Q541.125,312.8906 540.5,312.8906 Q539.7344,312.8906 539.0938,313.2188 Q538.4688,313.5469 537.9688,314.2969 Q537.4844,315.0469 537.4844,316.0781 L537.4844,317.1719 Q537.4844,318.4063 538.375,319.2344 Q539.2656,320.0469 540.8594,320.0469 Q541.7969,320.0469 542.4531,319.7969 Q542.8438,319.6406 543.2656,319.2031 Q543.5313,318.9375 543.6719,318.8594 Q543.8281,318.7813 544.0313,318.7813 Q544.3594,318.7813 544.6094,319.0469 Q544.875,319.2969 544.875,319.6406 Q544.875,319.9844 544.5313,320.3906 Q544.0313,320.9688 543.2344,321.2969 Q542.1563,321.75 540.8594,321.75 Q539.3438,321.75 538.1406,321.125 Q537.1563,320.625 536.4688,319.5625 Q535.7813,318.4844 535.7813,317.2031 L535.7813,316.0469 Q535.7813,314.7188 536.3906,313.5781 Q537.0156,312.4219 538.1094,311.8125 Q539.2031,311.1875 540.4375,311.1875 Q541.1719,311.1875 541.8125,311.3594 Q542.4688,311.5156 543.0156,311.875 Z " fill="#000000"/><text fill="#000000" font-family="sans-serif" font-size="14" lengthAdjust="spacing" textLength="75" x="560.75" y="321.7285">Entrelazado</text><line style="stroke:#181818;stroke-width:0.5;" x1="387" x2="777" y1="332" y2="332"/><rect fill="none" height="6" style="stroke:#C82930;stroke-width:1.0;" width="6" x="394" y="343.3047"/><text fill="#000000" font-family="sans-serif" font-size="14" lengthAdjust="spacing" textLength="366" x="406" y="350.5332">colorTabla: Map&lt;Character, Map&lt;Character, Character&gt;&gt;</text><line style="stroke:#181818;stroke-width:0.5;" x1="387" x2="777" y1="357.6094" y2="357.6094"/><ellipse cx="397" cy="371.9141" fill="#84BE84" rx="3" ry="3" style="stroke:#038048;stroke-width:1.0;"/><text fill="#000000" font-family="sans-serif" font-size="14" lengthAdjust="spacing" textLength="85" x="406" y="376.1426">Entrelazado()</text><ellipse cx="397" cy="389.5234" fill="#84BE84" rx="3" ry="3" style="stroke:#038048;stroke-width:1.0;"/><text fill="#000000" font-family="sans-serif" font-size="14" lengthAdjust="spacing" textLength="263" x="406" y="393.752">combinarColores(c1: char, c2: char): char</text><rect fill="#F24D5C" height="6" style="stroke:#C82930;stroke-width:1.0;" width="6" x="394" y="404.1328"/><text fill="#000000" font-family="sans-serif" font-size="14" lengthAdjust="spacing" textLength="350" x="406" y="411.3613">agregarCombinacion(c1: char, c2: char, res: char): void</text></g><!--class Pantalla--><g id="elem_Pantalla"><rect codeLine="30" fill="#F1F1F1" height="171.2656" id="Pantalla" rx="2.5" ry="2.5" style="stroke:#181818;stroke-width:0.5;" width="281" x="301.5" y="7"/><ellipse cx="412.25" cy="23" fill="#ADD1B2" rx="11" ry="11" style="stroke:#181818;stroke-width:1.0;"/><path d="M415.0156,18.875 Q415.1719,18.6563 415.3594,18.5469 Q415.5469,18.4375 415.7656,18.4375 Q416.1406,18.4375 416.375,18.7031 Q416.6094,18.9531 416.6094,19.5625 L416.6094,21.0156 Q416.6094,21.625 416.375,21.8906 Q416.1406,22.1563 415.7656,22.1563 Q415.4219,22.1563 415.2188,21.9531 Q415.0156,21.7656 414.9063,21.25 Q414.8594,20.8906 414.6719,20.7031 Q414.3438,20.3281 413.7344,20.1094 Q413.125,19.8906 412.5,19.8906 Q411.7344,19.8906 411.0938,20.2188 Q410.4688,20.5469 409.9688,21.2969 Q409.4844,22.0469 409.4844,23.0781 L409.4844,24.1719 Q409.4844,25.4063 410.375,26.2344 Q411.2656,27.0469 412.8594,27.0469 Q413.7969,27.0469 414.4531,26.7969 Q414.8438,26.6406 415.2656,26.2031 Q415.5313,25.9375 415.6719,25.8594 Q415.8281,25.7813 416.0313,25.7813 Q416.3594,25.7813 416.6094,26.0469 Q416.875,26.2969 416.875,26.6406 Q416.875,26.9844 416.5313,27.3906 Q416.0313,27.9688 415.2344,28.2969 Q414.1563,28.75 412.8594,28.75 Q411.3438,28.75 410.1406,28.125 Q409.1563,27.625 408.4688,26.5625 Q407.7813,25.4844 407.7813,24.2031 L407.7813,23.0469 Q407.7813,21.7188 408.3906,20.5781 Q409.0156,19.4219 410.1094,18.8125 Q411.2031,18.1875 412.4375,18.1875 Q413.1719,18.1875 413.8125,18.3594 Q414.4688,18.5156 415.0156,18.875 Z " fill="#000000"/><text fill="#000000" font-family="sans-serif" font-size="14" lengthAdjust="spacing" textLength="51" x="432.75" y="28.7285">Pantalla</text><line style="stroke:#181818;stroke-width:0.5;" x1="302.5" x2="581.5" y1="39" y2="39"/><rect fill="none" height="6" style="stroke:#C82930;stroke-width:1.0;" width="6" x="309.5" y="50.3047"/><text fill="#000000" font-family="sans-serif" font-size="14" lengthAdjust="spacing" textLength="93" x="321.5" y="57.5332">frame1: Frame</text><rect fill="none" height="6" style="stroke:#C82930;stroke-width:1.0;" width="6" x="309.5" y="67.9141"/><text fill="#000000" font-family="sans-serif" font-size="14" lengthAdjust="spacing" textLength="93" x="321.5" y="75.1426">frame2: Frame</text><rect fill="none" height="6" style="stroke:#C82930;stroke-width:1.0;" width="6" x="309.5" y="85.5234"/><text fill="#000000" font-family="sans-serif" font-size="14" lengthAdjust="spacing" textLength="98" x="321.5" y="92.752">frameActual: int</text><line style="stroke:#181818;stroke-width:0.5;" x1="302.5" x2="581.5" y1="99.8281" y2="99.8281"/><ellipse cx="312.5" cy="114.1328" fill="#84BE84" rx="3" ry="3" style="stroke:#038048;stroke-width:1.0;"/><text fill="#000000" font-family="sans-serif" font-size="14" lengthAdjust="spacing" textLength="255" x="321.5" y="118.3613">Pantalla(frame1: Frame, frame2: Frame)</text><ellipse cx="312.5" cy="131.7422" fill="#84BE84" rx="3" ry="3" style="stroke:#038048;stroke-width:1.0;"/><text fill="#000000" font-family="sans-serif" font-size="14" lengthAdjust="spacing" textLength="135" x="321.5" y="135.9707">cambiarFrame(): void</text><ellipse cx="312.5" cy="149.3516" fill="#84BE84" rx="3" ry="3" style="stroke:#038048;stroke-width:1.0;"/><text fill="#000000" font-family="sans-serif" font-size="14" lengthAdjust="spacing" textLength="155" x="321.5" y="153.5801">actualizarPantalla(): void</text><ellipse cx="312.5" cy="166.9609" fill="#84BE84" rx="3" ry="3" style="stroke:#038048;stroke-width:1.0;"/><text fill="#000000" font-family="sans-serif" font-size="14" lengthAdjust="spacing" textLength="168" x="321.5" y="171.1895">combinarFrames(): char[][]</text></g><!--reverse link Frame to Pixel--><g id="link_Frame_Pixel"><path codeLine="40" d="M179,474.28 C179,500.19 179,515.56 179,539.91 " fill="none" id="Frame-backto-Pixel" style="stroke:#181818;stroke-width:1.0;"/><polygon fill="#181818" points="179,462.28,175,468.28,179,474.28,183,468.28,179,462.28" style="stroke:#181818;stroke-width:1.0;"/><text fill="#000000" font-family="sans-serif" font-size="13" lengthAdjust="spacing" textLength="49" x="180" y="506.4951">contiene</text></g><!--link Pantalla to Frame--><g id="link_Pantalla_Frame"><path codeLine="41" d="M357.7,178.28 C333.21,202.91 310.4302,225.8149 284.9902,251.4049 " fill="none" id="Pantalla-to-Frame" style="stroke:#181818;stroke-width:1.0;"/><polygon fill="#181818" points="280.76,255.66,289.942,252.0975,284.2851,252.1141,284.2685,246.4573,280.76,255.66" style="stroke:#181818;stroke-width:1.0;"/><text fill="#000000" font-family="sans-serif" font-size="13" lengthAdjust="spacing" textLength="113" x="328" y="222.4951">usa 2 instancias de</text></g><!--link Pantalla to Entrelazado--><g id="link_Pantalla_Entrelazado"><path codeLine="42" d="M486.87,178.28 C507.83,217.87 529.4436,258.6968 548.2936,294.3168 " fill="none" id="Pantalla-to-Entrelazado" style="stroke:#181818;stroke-width:1.0;"/><polygon fill="#181818" points="551.1,299.62,550.4258,289.7942,548.7613,295.2007,543.3549,293.5362,551.1,299.62" style="stroke:#181818;stroke-width:1.0;"/><text fill="#000000" font-family="sans-serif" font-size="13" lengthAdjust="spacing" textLength="21" x="513" y="222.4951">usa</text></g><!--SRC=[XLCzRyCW4DtzAr0ctDf3FLfLf2XgjqeTkaKPBfWcI0Ggm5MIgl-zcAz0QhLUCCUzntl77U6WDNfMSAJegqBsQz40HkfNTgAyHsxPR3VRS0RSZ0fwn8I94K4EHUZUq-5PcYPdQ0fm7T2Q6fUEJo7f75OYkLGz8WTGTOy-9Hi2OZ-Fg7rkI59K35In2oZy2xrocgRurSGKzkfY_BkgY2kNkooLwvHNuvnlCi61z7zZroAifoZ-oxJFY3QJl2TX5ELmWK4caOxc3NRSrle5FXxN5W74KDNSRjFlSXbkolXmr4VaSSS4A2U1QamUl0fhfajgat7R9Nj5zrEwWn4cnGoaiO-aIw_NceCmm3aaH-zJaraArsnvh9k9hOWPWUVF6_bmmTEK5CajMDcWV5-Npm2EUMghn5Wcn4evi8wlvKRAclEJTzUseQbwj21I64O5NLJ9SzikmupQyr43wgmJRUpqCD1ek4tD6y035jKF]--></g></svg>