<?xml version="1.0" encoding="us-ascii" standalone="no"?><svg xmlns="http://www.w3.org/2000/svg" xmlns:xlink="http://www.w3.org/1999/xlink" contentStyleType="text/css" height="488px" preserveAspectRatio="none" style="width:468px;height:488px;background:#FFFFFF;" version="1.1" viewBox="0 0 468 488" width="468px" zoomAndPan="magnify"><defs/><g><!--class Pantalla--><g id="elem_Pantalla"><rect codeLine="2" fill="#F1F1F1" height="83.2188" id="Pantalla" rx="2.5" ry="2.5" style="stroke:#181818;stroke-width:0.5;" width="199" x="7" y="24.5"/><ellipse cx="76.75" cy="40.5" fill="#ADD1B2" rx="11" ry="11" style="stroke:#181818;stroke-width:1.0;"/><path d="M79.5156,36.375 Q79.6719,36.1563 79.8594,36.0469 Q80.0469,35.9375 80.2656,35.9375 Q80.6406,35.9375 80.875,36.2031 Q81.1094,36.4531 81.1094,37.0625 L81.1094,38.5156 Q81.1094,39.125 80.875,39.3906 Q80.6406,39.6563 80.2656,39.6563 Q79.9219,39.6563 79.7188,39.4531 Q79.5156,39.2656 79.4063,38.75 Q79.3594,38.3906 79.1719,38.2031 Q78.8438,37.8281 78.2344,37.6094 Q77.625,37.3906 77,37.3906 Q76.2344,37.3906 75.5938,37.7188 Q74.9688,38.0469 74.4688,38.7969 Q73.9844,39.5469 73.9844,40.5781 L73.9844,41.6719 Q73.9844,42.9063 74.875,43.7344 Q75.7656,44.5469 77.3594,44.5469 Q78.2969,44.5469 78.9531,44.2969 Q79.3438,44.1406 79.7656,43.7031 Q80.0313,43.4375 80.1719,43.3594 Q80.3281,43.2813 80.5313,43.2813 Q80.8594,43.2813 81.1094,43.5469 Q81.375,43.7969 81.375,44.1406 Q81.375,44.4844 81.0313,44.8906 Q80.5313,45.4688 79.7344,45.7969 Q78.6563,46.25 77.3594,46.25 Q75.8438,46.25 74.6406,45.625 Q73.6563,45.125 72.9688,44.0625 Q72.2813,42.9844 72.2813,41.7031 L72.2813,40.5469 Q72.2813,39.2188 72.8906,38.0781 Q73.5156,36.9219 74.6094,36.3125 Q75.7031,35.6875 76.9375,35.6875 Q77.6719,35.6875 78.3125,35.8594 Q78.9688,36.0156 79.5156,36.375 Z " fill="#000000"/><text fill="#000000" font-family="sans-serif" font-size="14" lengthAdjust="spacing" textLength="51" x="97.25" y="46.2285">Pantalla</text><line style="stroke:#181818;stroke-width:0.5;" x1="8" x2="205" y1="56.5" y2="56.5"/><rect fill="none" height="6" style="stroke:#C82930;stroke-width:1.0;" width="6" x="15" y="67.8047"/><text fill="#000000" font-family="sans-serif" font-size="14" lengthAdjust="spacing" textLength="135" x="27" y="75.0332">frame : Lista&lt;Frame&gt;</text><line style="stroke:#181818;stroke-width:0.5;" x1="8" x2="205" y1="82.1094" y2="82.1094"/><ellipse cx="18" cy="96.4141" fill="#84BE84" rx="3" ry="3" style="stroke:#038048;stroke-width:1.0;"/><text fill="#000000" font-family="sans-serif" font-size="14" lengthAdjust="spacing" textLength="173" x="27" y="100.6426">mostrarFrame(frame) : void</text></g><!--class ControlDeEnlazado--><g id="elem_ControlDeEnlazado"><rect codeLine="8" fill="#F1F1F1" height="118.4375" id="ControlDeEnlazado" rx="2.5" ry="2.5" style="stroke:#181818;stroke-width:0.5;" width="220" x="241.5" y="7"/><ellipse cx="286.25" cy="23" fill="#ADD1B2" rx="11" ry="11" style="stroke:#181818;stroke-width:1.0;"/><path d="M289.0156,18.875 Q289.1719,18.6563 289.3594,18.5469 Q289.5469,18.4375 289.7656,18.4375 Q290.1406,18.4375 290.375,18.7031 Q290.6094,18.9531 290.6094,19.5625 L290.6094,21.0156 Q290.6094,21.625 290.375,21.8906 Q290.1406,22.1563 289.7656,22.1563 Q289.4219,22.1563 289.2188,21.9531 Q289.0156,21.7656 288.9063,21.25 Q288.8594,20.8906 288.6719,20.7031 Q288.3438,20.3281 287.7344,20.1094 Q287.125,19.8906 286.5,19.8906 Q285.7344,19.8906 285.0938,20.2188 Q284.4688,20.5469 283.9688,21.2969 Q283.4844,22.0469 283.4844,23.0781 L283.4844,24.1719 Q283.4844,25.4063 284.375,26.2344 Q285.2656,27.0469 286.8594,27.0469 Q287.7969,27.0469 288.4531,26.7969 Q288.8438,26.6406 289.2656,26.2031 Q289.5313,25.9375 289.6719,25.8594 Q289.8281,25.7813 290.0313,25.7813 Q290.3594,25.7813 290.6094,26.0469 Q290.875,26.2969 290.875,26.6406 Q290.875,26.9844 290.5313,27.3906 Q290.0313,27.9688 289.2344,28.2969 Q288.1563,28.75 286.8594,28.75 Q285.3438,28.75 284.1406,28.125 Q283.1563,27.625 282.4688,26.5625 Q281.7813,25.4844 281.7813,24.2031 L281.7813,23.0469 Q281.7813,21.7188 282.3906,20.5781 Q283.0156,19.4219 284.1094,18.8125 Q285.2031,18.1875 286.4375,18.1875 Q287.1719,18.1875 287.8125,18.3594 Q288.4688,18.5156 289.0156,18.875 Z " fill="#000000"/><text fill="#000000" font-family="sans-serif" font-size="14" lengthAdjust="spacing" textLength="122" x="306.75" y="28.7285">ControlDeEnlazado</text><line style="stroke:#181818;stroke-width:0.5;" x1="242.5" x2="460.5" y1="39" y2="39"/><rect fill="none" height="6" style="stroke:#C82930;stroke-width:1.0;" width="6" x="249.5" y="50.3047"/><text fill="#000000" font-family="sans-serif" font-size="14" lengthAdjust="spacing" textLength="97" x="261.5" y="57.5332">frame1 : Frame</text><rect fill="none" height="6" style="stroke:#C82930;stroke-width:1.0;" width="6" x="249.5" y="67.9141"/><text fill="#000000" font-family="sans-serif" font-size="14" lengthAdjust="spacing" textLength="97" x="261.5" y="75.1426">frame2 : Frame</text><rect fill="none" height="6" style="stroke:#C82930;stroke-width:1.0;" width="6" x="249.5" y="85.5234"/><text fill="#000000" font-family="sans-serif" font-size="14" lengthAdjust="spacing" textLength="146" x="261.5" y="92.752">frameRestante : Frame</text><line style="stroke:#181818;stroke-width:0.5;" x1="242.5" x2="460.5" y1="99.8281" y2="99.8281"/><ellipse cx="252.5" cy="114.1328" fill="#84BE84" rx="3" ry="3" style="stroke:#038048;stroke-width:1.0;"/><text fill="#000000" font-family="sans-serif" font-size="14" lengthAdjust="spacing" textLength="194" x="261.5" y="118.3613">establecerFrames(f1, f2) : void</text></g><!--class Frame--><g id="elem_Frame"><rect codeLine="16" fill="#F1F1F1" height="136.0469" id="Frame" rx="2.5" ry="2.5" style="stroke:#181818;stroke-width:0.5;" width="190" x="133.5" y="185"/><ellipse cx="203.75" cy="201" fill="#ADD1B2" rx="11" ry="11" style="stroke:#181818;stroke-width:1.0;"/><path d="M206.5156,196.875 Q206.6719,196.6563 206.8594,196.5469 Q207.0469,196.4375 207.2656,196.4375 Q207.6406,196.4375 207.875,196.7031 Q208.1094,196.9531 208.1094,197.5625 L208.1094,199.0156 Q208.1094,199.625 207.875,199.8906 Q207.6406,200.1563 207.2656,200.1563 Q206.9219,200.1563 206.7188,199.9531 Q206.5156,199.7656 206.4063,199.25 Q206.3594,198.8906 206.1719,198.7031 Q205.8438,198.3281 205.2344,198.1094 Q204.625,197.8906 204,197.8906 Q203.2344,197.8906 202.5938,198.2188 Q201.9688,198.5469 201.4688,199.2969 Q200.9844,200.0469 200.9844,201.0781 L200.9844,202.1719 Q200.9844,203.4063 201.875,204.2344 Q202.7656,205.0469 204.3594,205.0469 Q205.2969,205.0469 205.9531,204.7969 Q206.3438,204.6406 206.7656,204.2031 Q207.0313,203.9375 207.1719,203.8594 Q207.3281,203.7813 207.5313,203.7813 Q207.8594,203.7813 208.1094,204.0469 Q208.375,204.2969 208.375,204.6406 Q208.375,204.9844 208.0313,205.3906 Q207.5313,205.9688 206.7344,206.2969 Q205.6563,206.75 204.3594,206.75 Q202.8438,206.75 201.6406,206.125 Q200.6563,205.625 199.9688,204.5625 Q199.2813,203.4844 199.2813,202.2031 L199.2813,201.0469 Q199.2813,199.7188 199.8906,198.5781 Q200.5156,197.4219 201.6094,196.8125 Q202.7031,196.1875 203.9375,196.1875 Q204.6719,196.1875 205.3125,196.3594 Q205.9688,196.5156 206.5156,196.875 Z " fill="#000000"/><text fill="#000000" font-family="sans-serif" font-size="14" lengthAdjust="spacing" textLength="41" x="224.25" y="206.7285">Frame</text><line style="stroke:#181818;stroke-width:0.5;" x1="134.5" x2="322.5" y1="217" y2="217"/><rect fill="none" height="6" style="stroke:#C82930;stroke-width:1.0;" width="6" x="141.5" y="228.3047"/><text fill="#000000" font-family="sans-serif" font-size="14" lengthAdjust="spacing" textLength="126" x="153.5" y="235.5332">pixels : Array&lt;Pixel&gt;</text><rect fill="none" height="6" style="stroke:#C82930;stroke-width:1.0;" width="6" x="141.5" y="245.9141"/><text fill="#000000" font-family="sans-serif" font-size="14" lengthAdjust="spacing" textLength="66" x="153.5" y="253.1426">ancho : int</text><rect fill="none" height="6" style="stroke:#C82930;stroke-width:1.0;" width="6" x="141.5" y="263.5234"/><text fill="#000000" font-family="sans-serif" font-size="14" lengthAdjust="spacing" textLength="50" x="153.5" y="270.752">alto : int</text><line style="stroke:#181818;stroke-width:0.5;" x1="134.5" x2="322.5" y1="277.8281" y2="277.8281"/><ellipse cx="144.5" cy="292.1328" fill="#84BE84" rx="3" ry="3" style="stroke:#038048;stroke-width:1.0;"/><text fill="#000000" font-family="sans-serif" font-size="14" lengthAdjust="spacing" textLength="150" x="153.5" y="296.3613">obtenerPixel(x, y) : Pixel</text><ellipse cx="144.5" cy="309.7422" fill="#84BE84" rx="3" ry="3" style="stroke:#038048;stroke-width:1.0;"/><text fill="#000000" font-family="sans-serif" font-size="14" lengthAdjust="spacing" textLength="164" x="153.5" y="313.9707">establecerPixel(x, y) : void</text></g><!--class Pixel--><g id="elem_Pixel"><rect codeLine="25" fill="#F1F1F1" height="100.8281" id="Pixel" rx="2.5" ry="2.5" style="stroke:#181818;stroke-width:0.5;" width="106" x="175.5" y="381"/><ellipse cx="210.75" cy="397" fill="#ADD1B2" rx="11" ry="11" style="stroke:#181818;stroke-width:1.0;"/><path d="M213.5156,392.875 Q213.6719,392.6563 213.8594,392.5469 Q214.0469,392.4375 214.2656,392.4375 Q214.6406,392.4375 214.875,392.7031 Q215.1094,392.9531 215.1094,393.5625 L215.1094,395.0156 Q215.1094,395.625 214.875,395.8906 Q214.6406,396.1563 214.2656,396.1563 Q213.9219,396.1563 213.7188,395.9531 Q213.5156,395.7656 213.4063,395.25 Q213.3594,394.8906 213.1719,394.7031 Q212.8438,394.3281 212.2344,394.1094 Q211.625,393.8906 211,393.8906 Q210.2344,393.8906 209.5938,394.2188 Q208.9688,394.5469 208.4688,395.2969 Q207.9844,396.0469 207.9844,397.0781 L207.9844,398.1719 Q207.9844,399.4063 208.875,400.2344 Q209.7656,401.0469 211.3594,401.0469 Q212.2969,401.0469 212.9531,400.7969 Q213.3438,400.6406 213.7656,400.2031 Q214.0313,399.9375 214.1719,399.8594 Q214.3281,399.7813 214.5313,399.7813 Q214.8594,399.7813 215.1094,400.0469 Q215.375,400.2969 215.375,400.6406 Q215.375,400.9844 215.0313,401.3906 Q214.5313,401.9688 213.7344,402.2969 Q212.6563,402.75 211.3594,402.75 Q209.8438,402.75 208.6406,402.125 Q207.6563,401.625 206.9688,400.5625 Q206.2813,399.4844 206.2813,398.2031 L206.2813,397.0469 Q206.2813,395.7188 206.8906,394.5781 Q207.5156,393.4219 208.6094,392.8125 Q209.7031,392.1875 210.9375,392.1875 Q211.6719,392.1875 212.3125,392.3594 Q212.9688,392.5156 213.5156,392.875 Z " fill="#000000"/><text fill="#000000" font-family="sans-serif" font-size="14" lengthAdjust="spacing" textLength="29" x="229.25" y="402.7285">Pixel</text><line style="stroke:#181818;stroke-width:0.5;" x1="176.5" x2="280.5" y1="413" y2="413"/><rect fill="none" height="6" style="stroke:#C82930;stroke-width:1.0;" width="6" x="183.5" y="424.3047"/><text fill="#000000" font-family="sans-serif" font-size="14" lengthAdjust="spacing" textLength="33" x="195.5" y="431.5332">x : int</text><rect fill="none" height="6" style="stroke:#C82930;stroke-width:1.0;" width="6" x="183.5" y="441.9141"/><text fill="#000000" font-family="sans-serif" font-size="14" lengthAdjust="spacing" textLength="34" x="195.5" y="449.1426">y : int</text><rect fill="none" height="6" style="stroke:#C82930;stroke-width:1.0;" width="6" x="183.5" y="459.5234"/><text fill="#000000" font-family="sans-serif" font-size="14" lengthAdjust="spacing" textLength="80" x="195.5" y="466.752">color : String</text><line style="stroke:#181818;stroke-width:0.5;" x1="176.5" x2="280.5" y1="473.8281" y2="473.8281"/></g><!--reverse link Pantalla to Frame--><g id="link_Pantalla_Frame"><path codeLine="31" d="M139.8773,117.6171 C154.8173,140.2671 167.2,159.05 184.29,184.96 " fill="none" id="Pantalla-backto-Frame" style="stroke:#181818;stroke-width:1.0;"/><polygon fill="#181818" points="133.27,107.6,133.2346,114.811,139.8773,117.6171,139.9127,110.4061,133.27,107.6" style="stroke:#181818;stroke-width:1.0;"/><text fill="#000000" font-family="sans-serif" font-size="13" lengthAdjust="spacing" textLength="7" x="130.1241" y="129.3211">1</text><text fill="#000000" font-family="sans-serif" font-size="13" lengthAdjust="spacing" textLength="7" x="172.0717" y="174.1549">n</text></g><!--reverse link ControlDeEnlazado to Frame--><g id="link_ControlDeEnlazado_Frame"><path codeLine="32" d="M306.277,135.0235 C293.667,153.9935 286.2,165.22 273.18,184.81 " fill="none" id="ControlDeEnlazado-backto-Frame" style="stroke:#181818;stroke-width:1.0;"/><polygon fill="none" points="312.92,125.03,306.2673,127.8124,306.277,135.0235,312.9297,132.2411,312.92,125.03" style="stroke:#181818;stroke-width:1.0;"/><text fill="#000000" font-family="sans-serif" font-size="13" lengthAdjust="spacing" textLength="7" x="300.5285" y="147.1078">1</text><text fill="#000000" font-family="sans-serif" font-size="13" lengthAdjust="spacing" textLength="7" x="270.6841" y="173.9885">n</text></g><!--reverse link Frame to Pixel--><g id="link_Frame_Pixel"><path codeLine="33" d="M228.5,333.23 C228.5,353.01 228.5,362.28 228.5,380.75 " fill="none" id="Frame-backto-Pixel" style="stroke:#181818;stroke-width:1.0;"/><polygon fill="#181818" points="228.5,321.23,224.5,327.23,228.5,333.23,232.5,327.23,228.5,321.23" style="stroke:#181818;stroke-width:1.0;"/><text fill="#000000" font-family="sans-serif" font-size="13" lengthAdjust="spacing" textLength="7" x="221.1391" y="342.602">n</text><text fill="#000000" font-family="sans-serif" font-size="13" lengthAdjust="spacing" textLength="7" x="221.0078" y="370.0202">n</text></g><!--SRC=[RL5DRy8m3BttLrWzTIizbEE4aAPjd7P0x1UOaB989fwI2BL3- -zBNEZ88BVtuUSdHn5w3skq0OaGJWN4rq3dyA3X2TwD3xXO9RGKgOO3- -3G2LU9xo4QZsnsOYX-Ya99w0lRu9XUzPib_COTv-bjd9AGQt9-ZzpeMC86dMar97PBMkcnYw-wTWRTV6hprqJqQVkNwJNvw7fs3eV5Ei7bMKEhFZbAneOBG-6Qg86tGLljPApgPp2aXO9kUkMUVwL4d4hrsT8XGug9NMG-WZDsdnAc_ohR4XwR1afRdczpU_NauSmptYFXo-pO_nS0]--></g></svg>