<svg xmlns="http://www.w3.org/2000/svg" xmlns:xlink="http://www.w3.org/1999/xlink" contentStyleType="text/css" data-diagram-type="CLASS" height="492px" preserveAspectRatio="none" style="width:394px;height:492px;background:#FFFFFF;" version="1.1" viewBox="0 0 394 492" width="394px" zoomAndPan="magnify"><defs/><g><!--class Pixel--><g id="elem_Pixel"><rect codeLine="2" fill="#F1F1F1" height="97.4648" id="Pixel" rx="2.5" ry="2.5" style="stroke:#181818;stroke-width:0.5;" width="162.2197" x="116.13" y="7"/><ellipse cx="176.881" cy="23" fill="#ADD1B2" rx="11" ry="11" style="stroke:#181818;stroke-width:1;"/><path d="M179.3541,29.1431 Q178.7731,29.4419 178.1339,29.5913 Q177.4947,29.7407 176.7892,29.7407 Q174.2823,29.7407 172.9625,28.0889 Q171.6427,26.437 171.6427,23.3159 Q171.6427,20.1865 172.9625,18.5347 Q174.2823,16.8828 176.7892,16.8828 Q177.4947,16.8828 178.1422,17.0322 Q178.7897,17.1816 179.3541,17.4805 L179.3541,20.2031 Q178.7233,19.6221 178.1298,19.3523 Q177.5363,19.0825 176.9054,19.0825 Q175.5607,19.0825 174.8758,20.1492 Q174.191,21.2158 174.191,23.3159 Q174.191,25.4077 174.8758,26.4744 Q175.5607,27.541 176.9054,27.541 Q177.5363,27.541 178.1298,27.2712 Q178.7233,27.0015 179.3541,26.4204 Z " fill="#000000"/><text fill="#000000" font-family="sans-serif" font-size="14" lengthAdjust="spacing" textLength="32.2178" x="197.381" y="28.291">Pixel</text><line style="stroke:#181818;stroke-width:0.5;" x1="117.13" x2="277.3497" y1="39" y2="39"/><text fill="#000000" font-family="sans-serif" font-size="14" lengthAdjust="spacing" textLength="57.21" x="122.13" y="56.5352">int dato;</text><line style="stroke:#181818;stroke-width:0.5;" x1="117.13" x2="277.3497" y1="63.4883" y2="63.4883"/><text fill="#000000" font-family="sans-serif" font-size="14" lengthAdjust="spacing" textLength="120.6543" x="122.13" y="81.0234">int obtenerDato();</text><text fill="#000000" font-family="sans-serif" font-size="14" lengthAdjust="spacing" textLength="150.2197" x="122.13" y="97.5117">void setDato(int valor)</text></g><!--class Frame--><g id="elem_Frame"><rect codeLine="8" fill="#F1F1F1" height="113.9531" id="Frame" rx="2.5" ry="2.5" style="stroke:#181818;stroke-width:0.5;" width="309.7324" x="42.37" y="164.47"/><ellipse cx="172.0682" cy="180.47" fill="#ADD1B2" rx="11" ry="11" style="stroke:#181818;stroke-width:1;"/><path d="M174.5414,186.6131 Q173.9603,186.9119 173.3212,187.0613 Q172.682,187.2107 171.9764,187.2107 Q169.4696,187.2107 168.1498,185.5589 Q166.83,183.907 166.83,180.7859 Q166.83,177.6565 168.1498,176.0047 Q169.4696,174.3528 171.9764,174.3528 Q172.682,174.3528 173.3295,174.5022 Q173.9769,174.6516 174.5414,174.9505 L174.5414,177.6731 Q173.9105,177.0921 173.317,176.8223 Q172.7235,176.5525 172.0927,176.5525 Q170.7479,176.5525 170.0631,177.6192 Q169.3783,178.6858 169.3783,180.7859 Q169.3783,182.8777 170.0631,183.9444 Q170.7479,185.011 172.0927,185.011 Q172.7235,185.011 173.317,184.7412 Q173.9105,184.4715 174.5414,183.8904 Z " fill="#000000"/><text fill="#000000" font-family="sans-serif" font-size="14" lengthAdjust="spacing" textLength="41.8359" x="192.5682" y="185.761">Frame</text><line style="stroke:#181818;stroke-width:0.5;" x1="43.37" x2="351.1024" y1="196.47" y2="196.47"/><text fill="#000000" font-family="sans-serif" font-size="14" lengthAdjust="spacing" textLength="89.6602" x="48.37" y="214.0052">Pixel[] frame;</text><line style="stroke:#181818;stroke-width:0.5;" x1="43.37" x2="351.1024" y1="220.9583" y2="220.9583"/><text fill="#000000" font-family="sans-serif" font-size="14" lengthAdjust="spacing" textLength="297.7324" x="48.37" y="238.4934">void modificarPixel(int pos, int nuevoValor);</text><text fill="#000000" font-family="sans-serif" font-size="14" lengthAdjust="spacing" textLength="169.75" x="48.37" y="254.9817">void traducir(Pixel pixel);</text><text fill="#000000" font-family="sans-serif" font-size="14" lengthAdjust="spacing" textLength="105.2188" x="48.37" y="271.47">void imprimir();</text></g><!--class Pantalla--><g id="elem_Pantalla"><rect codeLine="15" fill="#F1F1F1" height="146.9297" id="Pantalla" rx="2.5" ry="2.5" style="stroke:#181818;stroke-width:0.5;" width="380.4707" x="7" y="338.42"/><ellipse cx="166.5098" cy="354.42" fill="#ADD1B2" rx="11" ry="11" style="stroke:#181818;stroke-width:1;"/><path d="M168.9829,360.5631 Q168.4019,360.8619 167.7627,361.0113 Q167.1235,361.1607 166.418,361.1607 Q163.9111,361.1607 162.5913,359.5089 Q161.2715,357.857 161.2715,354.7359 Q161.2715,351.6065 162.5913,349.9547 Q163.9111,348.3028 166.418,348.3028 Q167.1235,348.3028 167.771,348.4522 Q168.4185,348.6016 168.9829,348.9005 L168.9829,351.6231 Q168.3521,351.0421 167.7585,350.7723 Q167.165,350.5025 166.5342,350.5025 Q165.1895,350.5025 164.5046,351.5692 Q163.8198,352.6358 163.8198,354.7359 Q163.8198,356.8277 164.5046,357.8944 Q165.1895,358.961 166.5342,358.961 Q167.165,358.961 167.7585,358.6912 Q168.3521,358.4215 168.9829,357.8404 Z " fill="#000000"/><text fill="#000000" font-family="sans-serif" font-size="14" lengthAdjust="spacing" textLength="52.9512" x="187.0098" y="359.711">Pantalla</text><line style="stroke:#181818;stroke-width:0.5;" x1="8" x2="386.4707" y1="370.42" y2="370.42"/><text fill="#000000" font-family="sans-serif" font-size="14" lengthAdjust="spacing" textLength="83.9316" x="13" y="387.9552">int posicion;</text><text fill="#000000" font-family="sans-serif" font-size="14" lengthAdjust="spacing" textLength="113.8252" x="13" y="404.4434">Frame[] pantalla;</text><line style="stroke:#181818;stroke-width:0.5;" x1="8" x2="386.4707" y1="411.3966" y2="411.3966"/><text fill="#000000" font-family="sans-serif" font-size="14" lengthAdjust="spacing" textLength="153.8428" x="13" y="428.9317">Frame generarFrame();</text><text fill="#000000" font-family="sans-serif" font-size="14" lengthAdjust="spacing" textLength="305.3682" x="13" y="445.42">void addFrame(generarFrame(), int posicion);</text><text fill="#000000" font-family="sans-serif" font-size="14" lengthAdjust="spacing" textLength="221.2383" x="13" y="461.9083">void mostrarFrame(int posicion);</text><text fill="#000000" font-family="sans-serif" font-size="14" lengthAdjust="spacing" textLength="368.4707" x="13" y="478.3966">void modificarPixel(int frame, int pos, int nuevoValor);</text></g><!--link Pixel to Frame--><g id="link_Pixel_Frame"><path codeLine="24" d="M197.24,104.53 C197.24,123.21 197.24,138.78 197.24,158.21 " fill="transparent" id="Pixel-to-Frame" style="stroke:#181818;stroke-width:1;"/><polygon fill="#181818" points="197.24,164.21,201.24,155.21,197.24,159.21,193.24,155.21,197.24,164.21" style="stroke:#181818;stroke-width:1;"/></g><!--link Frame to Pantalla--><g id="link_Frame_Pantalla"><path codeLine="25" d="M197.24,278.73 C197.24,297.38 197.24,312.42 197.24,332.13 " fill="transparent" id="Frame-to-Pantalla" style="stroke:#181818;stroke-width:1;"/><polygon fill="#181818" points="197.24,338.13,201.24,329.13,197.24,333.13,193.24,329.13,197.24,338.13" style="stroke:#181818;stroke-width:1;"/></g><!--SRC=[TL3B2i8m4BpdAt9ieVq2mPDuxicBU5YJL1RoA4bQ1F7VJROsjgYNaCpCJcPMQ0Y1TtXN-i4uHnkvXEXsxxkxHcMLFoIegZCuEPGyg4X8LaoWdQ_Pap51LaSFHcKhyZnVU9-1CcgSn1u5UAB9ON2XeS_ig2Pt8h-YZnxaAD1NfET3FZyici6ZIMo2Ie8ER0IjOUcJ_56WitcAqgLGmrjJC7xBFS7JOrKLf9oXBTzidEjLlH2Bwf_aQmEqecBvOncfszo_RVTpNZQdpk-bxmi0]--></g></svg>