<svg xmlns="http://www.w3.org/2000/svg" xmlns:xlink="http://www.w3.org/1999/xlink" contentStyleType="text/css" data-diagram-type="CLASS" height="492px" preserveAspectRatio="none" style="width:394px;height:492px;background:#FFFFFF;" version="1.1" viewBox="0 0 394 492" width="394px" zoomAndPan="magnify"><defs/><g><!--class Pixel--><g id="elem_Pixel"><rect codeLine="2" fill="#F1F1F1" height="97.4648" id="Pixel" rx="2.5" ry="2.5" style="stroke:#181818;stroke-width:0.5;" width="162.2197" x="116.13" y="387.89"/><ellipse cx="176.881" cy="403.89" fill="#ADD1B2" rx="11" ry="11" style="stroke:#181818;stroke-width:1;"/><path d="M179.3541,410.0331 Q178.7731,410.3319 178.1339,410.4813 Q177.4947,410.6307 176.7892,410.6307 Q174.2823,410.6307 172.9625,408.9789 Q171.6427,407.327 171.6427,404.2059 Q171.6427,401.0765 172.9625,399.4247 Q174.2823,397.7728 176.7892,397.7728 Q177.4947,397.7728 178.1422,397.9222 Q178.7897,398.0716 179.3541,398.3705 L179.3541,401.0931 Q178.7233,400.5121 178.1298,400.2423 Q177.5363,399.9725 176.9054,399.9725 Q175.5607,399.9725 174.8758,401.0392 Q174.191,402.1058 174.191,404.2059 Q174.191,406.2977 174.8758,407.3644 Q175.5607,408.431 176.9054,408.431 Q177.5363,408.431 178.1298,408.1612 Q178.7233,407.8915 179.3541,407.3104 Z " fill="#000000"/><text fill="#000000" font-family="sans-serif" font-size="14" lengthAdjust="spacing" textLength="32.2178" x="197.381" y="409.181">Pixel</text><line style="stroke:#181818;stroke-width:0.5;" x1="117.13" x2="277.3497" y1="419.89" y2="419.89"/><text fill="#000000" font-family="sans-serif" font-size="14" lengthAdjust="spacing" textLength="57.21" x="122.13" y="437.4252">int dato;</text><line style="stroke:#181818;stroke-width:0.5;" x1="117.13" x2="277.3497" y1="444.3783" y2="444.3783"/><text fill="#000000" font-family="sans-serif" font-size="14" lengthAdjust="spacing" textLength="120.6543" x="122.13" y="461.9134">int obtenerDato();</text><text fill="#000000" font-family="sans-serif" font-size="14" lengthAdjust="spacing" textLength="150.2197" x="122.13" y="478.4017">void setDato(int valor)</text></g><!--class Frame--><g id="elem_Frame"><rect codeLine="8" fill="#F1F1F1" height="113.9531" id="Frame" rx="2.5" ry="2.5" style="stroke:#181818;stroke-width:0.5;" width="309.7324" x="42.37" y="213.93"/><ellipse cx="172.0682" cy="229.93" fill="#ADD1B2" rx="11" ry="11" style="stroke:#181818;stroke-width:1;"/><path d="M174.5414,236.0731 Q173.9603,236.3719 173.3212,236.5213 Q172.682,236.6707 171.9764,236.6707 Q169.4696,236.6707 168.1498,235.0189 Q166.83,233.367 166.83,230.2459 Q166.83,227.1165 168.1498,225.4647 Q169.4696,223.8128 171.9764,223.8128 Q172.682,223.8128 173.3295,223.9622 Q173.9769,224.1116 174.5414,224.4105 L174.5414,227.1331 Q173.9105,226.5521 173.317,226.2823 Q172.7235,226.0125 172.0927,226.0125 Q170.7479,226.0125 170.0631,227.0792 Q169.3783,228.1458 169.3783,230.2459 Q169.3783,232.3377 170.0631,233.4044 Q170.7479,234.471 172.0927,234.471 Q172.7235,234.471 173.317,234.2012 Q173.9105,233.9315 174.5414,233.3504 Z " fill="#000000"/><text fill="#000000" font-family="sans-serif" font-size="14" lengthAdjust="spacing" textLength="41.8359" x="192.5682" y="235.221">Frame</text><line style="stroke:#181818;stroke-width:0.5;" x1="43.37" x2="351.1024" y1="245.93" y2="245.93"/><text fill="#000000" font-family="sans-serif" font-size="14" lengthAdjust="spacing" textLength="89.6602" x="48.37" y="263.4652">Pixel[] frame;</text><line style="stroke:#181818;stroke-width:0.5;" x1="43.37" x2="351.1024" y1="270.4183" y2="270.4183"/><text fill="#000000" font-family="sans-serif" font-size="14" lengthAdjust="spacing" textLength="297.7324" x="48.37" y="287.9534">void modificarPixel(int pos, int nuevoValor);</text><text fill="#000000" font-family="sans-serif" font-size="14" lengthAdjust="spacing" textLength="169.75" x="48.37" y="304.4417">void traducir(Pixel pixel);</text><text fill="#000000" font-family="sans-serif" font-size="14" lengthAdjust="spacing" textLength="105.2188" x="48.37" y="320.93">void imprimir();</text></g><!--class Pantalla--><g id="elem_Pantalla"><rect codeLine="15" fill="#F1F1F1" height="146.9297" id="Pantalla" rx="2.5" ry="2.5" style="stroke:#181818;stroke-width:0.5;" width="380.4707" x="7" y="7"/><ellipse cx="166.5098" cy="23" fill="#ADD1B2" rx="11" ry="11" style="stroke:#181818;stroke-width:1;"/><path d="M168.9829,29.1431 Q168.4019,29.4419 167.7627,29.5913 Q167.1235,29.7407 166.418,29.7407 Q163.9111,29.7407 162.5913,28.0889 Q161.2715,26.437 161.2715,23.3159 Q161.2715,20.1865 162.5913,18.5347 Q163.9111,16.8828 166.418,16.8828 Q167.1235,16.8828 167.771,17.0322 Q168.4185,17.1816 168.9829,17.4805 L168.9829,20.2031 Q168.3521,19.6221 167.7585,19.3523 Q167.165,19.0825 166.5342,19.0825 Q165.1895,19.0825 164.5046,20.1492 Q163.8198,21.2158 163.8198,23.3159 Q163.8198,25.4077 164.5046,26.4744 Q165.1895,27.541 166.5342,27.541 Q167.165,27.541 167.7585,27.2712 Q168.3521,27.0015 168.9829,26.4204 Z " fill="#000000"/><text fill="#000000" font-family="sans-serif" font-size="14" lengthAdjust="spacing" textLength="52.9512" x="187.0098" y="28.291">Pantalla</text><line style="stroke:#181818;stroke-width:0.5;" x1="8" x2="386.4707" y1="39" y2="39"/><text fill="#000000" font-family="sans-serif" font-size="14" lengthAdjust="spacing" textLength="83.9316" x="13" y="56.5352">int posicion;</text><text fill="#000000" font-family="sans-serif" font-size="14" lengthAdjust="spacing" textLength="113.8252" x="13" y="73.0234">Frame[] pantalla;</text><line style="stroke:#181818;stroke-width:0.5;" x1="8" x2="386.4707" y1="79.9766" y2="79.9766"/><text fill="#000000" font-family="sans-serif" font-size="14" lengthAdjust="spacing" textLength="153.8428" x="13" y="97.5117">Frame generarFrame();</text><text fill="#000000" font-family="sans-serif" font-size="14" lengthAdjust="spacing" textLength="305.3682" x="13" y="114">void addFrame(generarFrame(), int posicion);</text><text fill="#000000" font-family="sans-serif" font-size="14" lengthAdjust="spacing" textLength="221.2383" x="13" y="130.4883">void mostrarFrame(int posicion);</text><text fill="#000000" font-family="sans-serif" font-size="14" lengthAdjust="spacing" textLength="368.4707" x="13" y="146.9766">void modificarPixel(int frame, int pos, int nuevoValor);</text></g><!--link Pantalla to Frame--><g id="link_Pantalla_Frame"><path codeLine="24" d="M197.24,154.32 C197.24,174 197.24,188.99 197.24,207.61 " fill="transparent" id="Pantalla-to-Frame" style="stroke:#181818;stroke-width:1;"/><polygon fill="#181818" points="197.24,213.61,201.24,204.61,197.24,208.61,193.24,204.61,197.24,213.61" style="stroke:#181818;stroke-width:1;"/></g><!--link Frame to Pixel--><g id="link_Frame_Pixel"><path codeLine="25" d="M197.24,328.25 C197.24,347.58 197.24,363.02 197.24,381.62 " fill="transparent" id="Frame-to-Pixel" style="stroke:#181818;stroke-width:1;"/><polygon fill="#181818" points="197.24,387.62,201.24,378.62,197.24,382.62,193.24,378.62,197.24,387.62" style="stroke:#181818;stroke-width:1;"/></g><!--SRC=[TP3D2i8m48JlUOezjc2VGF0addlo8XxM9Cf2VagI5a5yTvEjnefwAStivClCIeCnGazNRMu2W5m2XScld__-bBJJOPkbfYtYv4b1r8cLufZG-D2Akn2IKRk0LXSKCmz7E1UXNhLUqPaa1XupOV1nnO-vKKz-pxpgJm7LA2aqx8UXVDzJiaCWcwTPgWbwT0cDmLUVp2T9tfLRd2w76fwUgi6bzCJ0XqLLL6gMFkUh3tAxg1TJTVspV6s0LrIHFvQHkxrQGTTjviXY3bxEZ7e0]--></g></svg>