<svg xmlns="http://www.w3.org/2000/svg" xmlns:xlink="http://www.w3.org/1999/xlink" contentStyleType="text/css" height="1382px" preserveAspectRatio="none" style="width:439px;height:1382px;background:#FFFFFF;" version="1.1" viewBox="0 0 439 1382" width="439px" zoomAndPan="magnify"><defs/><g><!--class Pixel--><g id="elem_Pixel"><rect codeLine="1" fill="#F1F1F1" height="129.4844" id="Pixel" rx="2.5" ry="2.5" style="stroke:#181818;stroke-width:0.5;" width="152.0479" x="29.5" y="1246"/><ellipse cx="84.7139" cy="1262" fill="#ADD1B2" rx="11" ry="11" style="stroke:#181818;stroke-width:1;"/><path d="M87.6826,1267.6406 Q87.1045,1267.9375 86.4639,1268.0781 Q85.8232,1268.2344 85.1201,1268.2344 Q82.6201,1268.2344 81.292,1266.5938 Q79.9795,1264.9375 79.9795,1261.8125 Q79.9795,1258.6875 81.292,1257.0313 Q82.6201,1255.375 85.1201,1255.375 Q85.8232,1255.375 86.4639,1255.5313 Q87.1201,1255.6875 87.6826,1255.9844 L87.6826,1258.7031 Q87.0576,1258.125 86.4639,1257.8594 Q85.8701,1257.5781 85.2451,1257.5781 Q83.9014,1257.5781 83.2139,1258.6563 Q82.5264,1259.7188 82.5264,1261.8125 Q82.5264,1263.9063 83.2139,1264.9844 Q83.9014,1266.0469 85.2451,1266.0469 Q85.8701,1266.0469 86.4639,1265.7813 Q87.0576,1265.5 87.6826,1264.9219 L87.6826,1267.6406 Z " fill="#000000"/><text fill="#000000" font-family="sans-serif" font-size="14" lengthAdjust="spacing" textLength="33.1201" x="105.2139" y="1266.8467">Pixel</text><line style="stroke:#181818;stroke-width:0.5;" x1="30.5" x2="180.5479" y1="1278" y2="1278"/><rect fill="none" height="6" style="stroke:#C82930;stroke-width:1;" width="6" x="37.5" y="1288.6484"/><text fill="#000000" font-family="sans-serif" font-size="14" lengthAdjust="spacing" textLength="30.9873" x="49.5" y="1294.9951">int x</text><rect fill="none" height="6" style="stroke:#C82930;stroke-width:1;" width="6" x="37.5" y="1304.9453"/><text fill="#000000" font-family="sans-serif" font-size="14" lengthAdjust="spacing" textLength="30.9873" x="49.5" y="1311.292">int y</text><rect fill="none" height="6" style="stroke:#C82930;stroke-width:1;" width="6" x="37.5" y="1321.2422"/><text fill="#000000" font-family="sans-serif" font-size="14" lengthAdjust="spacing" textLength="57.1758" x="49.5" y="1327.5889">int color</text><line style="stroke:#181818;stroke-width:0.5;" x1="30.5" x2="180.5479" y1="1334.8906" y2="1334.8906"/><ellipse cx="40.5" cy="1348.5391" fill="#84BE84" rx="3" ry="3" style="stroke:#038048;stroke-width:1;"/><text fill="#000000" font-family="sans-serif" font-size="14" lengthAdjust="spacing" textLength="126.0479" x="49.5" y="1351.8857">setColor(int color)</text><ellipse cx="40.5" cy="1364.8359" fill="#84BE84" rx="3" ry="3" style="stroke:#038048;stroke-width:1;"/><text fill="#000000" font-family="sans-serif" font-size="14" lengthAdjust="spacing" textLength="97.8838" x="49.5" y="1368.1826">getColor(): int</text></g><!--class Frame--><g id="elem_Frame"><rect codeLine="9" fill="#F1F1F1" height="113.1875" id="Frame" rx="2.5" ry="2.5" style="stroke:#181818;stroke-width:0.5;" width="196.5703" x="7" y="1056"/><ellipse cx="78.7158" cy="1072" fill="#ADD1B2" rx="11" ry="11" style="stroke:#181818;stroke-width:1;"/><path d="M81.6846,1077.6406 Q81.1064,1077.9375 80.4658,1078.0781 Q79.8252,1078.2344 79.1221,1078.2344 Q76.6221,1078.2344 75.2939,1076.5938 Q73.9814,1074.9375 73.9814,1071.8125 Q73.9814,1068.6875 75.2939,1067.0313 Q76.6221,1065.375 79.1221,1065.375 Q79.8252,1065.375 80.4658,1065.5313 Q81.1221,1065.6875 81.6846,1065.9844 L81.6846,1068.7031 Q81.0596,1068.125 80.4658,1067.8594 Q79.8721,1067.5781 79.2471,1067.5781 Q77.9033,1067.5781 77.2158,1068.6563 Q76.5283,1069.7188 76.5283,1071.8125 Q76.5283,1073.9063 77.2158,1074.9844 Q77.9033,1076.0469 79.2471,1076.0469 Q79.8721,1076.0469 80.4658,1075.7813 Q81.0596,1075.5 81.6846,1074.9219 L81.6846,1077.6406 Z " fill="#000000"/><text fill="#000000" font-family="sans-serif" font-size="14" lengthAdjust="spacing" textLength="44.6387" x="99.2158" y="1076.8467">Frame</text><line style="stroke:#181818;stroke-width:0.5;" x1="8" x2="202.5703" y1="1088" y2="1088"/><rect fill="none" height="6" style="stroke:#C82930;stroke-width:1;" width="6" x="15" y="1098.6484"/><text fill="#000000" font-family="sans-serif" font-size="14" lengthAdjust="spacing" textLength="126.3623" x="27" y="1104.9951">List&lt;Pixel&gt; pixels</text><line style="stroke:#181818;stroke-width:0.5;" x1="8" x2="202.5703" y1="1112.2969" y2="1112.2969"/><ellipse cx="18" cy="1125.9453" fill="#84BE84" rx="3" ry="3" style="stroke:#038048;stroke-width:1;"/><text fill="#000000" font-family="sans-serif" font-size="14" lengthAdjust="spacing" textLength="141.5313" x="27" y="1129.292">addPixel(Pixel pixel)</text><ellipse cx="18" cy="1142.2422" fill="#84BE84" rx="3" ry="3" style="stroke:#038048;stroke-width:1;"/><text fill="#000000" font-family="sans-serif" font-size="14" lengthAdjust="spacing" textLength="170.5703" x="27" y="1145.5889">getPixel(int index): Pixel</text><ellipse cx="18" cy="1158.5391" fill="#84BE84" rx="3" ry="3" style="stroke:#038048;stroke-width:1;"/><text fill="#000000" font-family="sans-serif" font-size="14" lengthAdjust="spacing" textLength="90.0977" x="27" y="1161.8857">clearFrame()</text></g><!--class Buffer--><g id="elem_Buffer"><rect codeLine="16" fill="#F1F1F1" height="194.6719" id="Buffer" rx="2.5" ry="2.5" style="stroke:#181818;stroke-width:0.5;" width="211.4932" x="130" y="784"/><ellipse cx="210.1445" cy="800" fill="#ADD1B2" rx="11" ry="11" style="stroke:#181818;stroke-width:1;"/><path d="M213.1133,805.6406 Q212.5352,805.9375 211.8945,806.0781 Q211.2539,806.2344 210.5508,806.2344 Q208.0508,806.2344 206.7227,804.5938 Q205.4102,802.9375 205.4102,799.8125 Q205.4102,796.6875 206.7227,795.0313 Q208.0508,793.375 210.5508,793.375 Q211.2539,793.375 211.8945,793.5313 Q212.5508,793.6875 213.1133,793.9844 L213.1133,796.7031 Q212.4883,796.125 211.8945,795.8594 Q211.3008,795.5781 210.6758,795.5781 Q209.332,795.5781 208.6445,796.6563 Q207.957,797.7188 207.957,799.8125 Q207.957,801.9063 208.6445,802.9844 Q209.332,804.0469 210.6758,804.0469 Q211.3008,804.0469 211.8945,803.7813 Q212.4883,803.5 213.1133,802.9219 L213.1133,805.6406 Z " fill="#000000"/><text fill="#000000" font-family="sans-serif" font-size="14" lengthAdjust="spacing" textLength="42.7041" x="230.6445" y="804.8467">Buffer</text><line style="stroke:#181818;stroke-width:0.5;" x1="131" x2="340.4932" y1="816" y2="816"/><rect fill="none" height="6" style="stroke:#C82930;stroke-width:1;" width="6" x="138" y="826.6484"/><text fill="#000000" font-family="sans-serif" font-size="14" lengthAdjust="spacing" textLength="99.5107" x="150" y="832.9951">Frame frame1</text><rect fill="none" height="6" style="stroke:#C82930;stroke-width:1;" width="6" x="138" y="842.9453"/><text fill="#000000" font-family="sans-serif" font-size="14" lengthAdjust="spacing" textLength="99.5107" x="150" y="849.292">Frame frame2</text><rect fill="none" height="6" style="stroke:#C82930;stroke-width:1;" width="6" x="138" y="859.2422"/><text fill="#000000" font-family="sans-serif" font-size="14" lengthAdjust="spacing" textLength="109.8945" x="150" y="865.5889">int activeFrame</text><rect fill="none" height="6" style="stroke:#C82930;stroke-width:1;" width="6" x="138" y="875.5391"/><text fill="#000000" font-family="sans-serif" font-size="14" lengthAdjust="spacing" textLength="114.4473" x="150" y="881.8857">boolean running</text><line style="stroke:#181818;stroke-width:0.5;" x1="131" x2="340.4932" y1="889.1875" y2="889.1875"/><ellipse cx="141" cy="902.8359" fill="#84BE84" rx="3" ry="3" style="stroke:#038048;stroke-width:1;"/><text fill="#000000" font-family="sans-serif" font-size="14" lengthAdjust="spacing" textLength="100.2559" x="150" y="906.1826">switchFrame()</text><ellipse cx="141" cy="919.1328" fill="#84BE84" rx="3" ry="3" style="stroke:#038048;stroke-width:1;"/><text fill="#000000" font-family="sans-serif" font-size="14" lengthAdjust="spacing" textLength="185.4932" x="150" y="922.4795">getCurrentFrame(): Frame</text><ellipse cx="141" cy="935.4297" fill="#84BE84" rx="3" ry="3" style="stroke:#038048;stroke-width:1;"/><text fill="#000000" font-family="sans-serif" font-size="14" lengthAdjust="spacing" textLength="99.8936" x="150" y="938.7764">toggleFrame()</text><ellipse cx="141" cy="951.7266" fill="#84BE84" rx="3" ry="3" style="stroke:#038048;stroke-width:1;"/><text fill="#000000" font-family="sans-serif" font-size="14" lengthAdjust="spacing" textLength="43.5313" x="150" y="955.0732">start()</text><ellipse cx="141" cy="968.0234" fill="#84BE84" rx="3" ry="3" style="stroke:#038048;stroke-width:1;"/><text fill="#000000" font-family="sans-serif" font-size="14" lengthAdjust="spacing" textLength="41.1592" x="150" y="971.3701">stop()</text></g><!--class Manager--><g id="elem_Manager"><rect codeLine="28" fill="#F1F1F1" height="80.5938" id="Manager" rx="2.5" ry="2.5" style="stroke:#181818;stroke-width:0.5;" width="190.5068" x="242" y="626"/><ellipse cx="302.3203" cy="642" fill="#ADD1B2" rx="11" ry="11" style="stroke:#181818;stroke-width:1;"/><path d="M305.2891,647.6406 Q304.7109,647.9375 304.0703,648.0781 Q303.4297,648.2344 302.7266,648.2344 Q300.2266,648.2344 298.8984,646.5938 Q297.5859,644.9375 297.5859,641.8125 Q297.5859,638.6875 298.8984,637.0313 Q300.2266,635.375 302.7266,635.375 Q303.4297,635.375 304.0703,635.5313 Q304.7266,635.6875 305.2891,635.9844 L305.2891,638.7031 Q304.6641,638.125 304.0703,637.8594 Q303.4766,637.5781 302.8516,637.5781 Q301.5078,637.5781 300.8203,638.6563 Q300.1328,639.7188 300.1328,641.8125 Q300.1328,643.9063 300.8203,644.9844 Q301.5078,646.0469 302.8516,646.0469 Q303.4766,646.0469 304.0703,645.7813 Q304.6641,645.5 305.2891,644.9219 L305.2891,647.6406 Z " fill="#000000"/><text fill="#000000" font-family="sans-serif" font-size="14" lengthAdjust="spacing" textLength="61.3662" x="322.8203" y="646.8467">Manager</text><line style="stroke:#181818;stroke-width:0.5;" x1="243" x2="431.5068" y1="658" y2="658"/><rect fill="none" height="6" style="stroke:#C82930;stroke-width:1;" width="6" x="250" y="668.6484"/><text fill="#000000" font-family="sans-serif" font-size="14" lengthAdjust="spacing" textLength="89.1406" x="262" y="674.9951">Buffer buffer</text><line style="stroke:#181818;stroke-width:0.5;" x1="243" x2="431.5068" y1="682.2969" y2="682.2969"/><ellipse cx="253" cy="695.9453" fill="#84BE84" rx="3" ry="3" style="stroke:#038048;stroke-width:1;"/><text fill="#000000" font-family="sans-serif" font-size="14" lengthAdjust="spacing" textLength="164.5068" x="262" y="699.292">updatePixel(Pixel pixel)</text></g><!--class Node--><g id="elem_Node"><rect codeLine="33" fill="#F1F1F1" height="162.0781" id="Node" rx="2.5" ry="2.5" style="stroke:#181818;stroke-width:0.5;" width="190.5068" x="69" y="387"/><ellipse cx="141.7344" cy="403" fill="#ADD1B2" rx="11" ry="11" style="stroke:#181818;stroke-width:1;"/><path d="M144.7031,408.6406 Q144.125,408.9375 143.4844,409.0781 Q142.8438,409.2344 142.1406,409.2344 Q139.6406,409.2344 138.3125,407.5938 Q137,405.9375 137,402.8125 Q137,399.6875 138.3125,398.0313 Q139.6406,396.375 142.1406,396.375 Q142.8438,396.375 143.4844,396.5313 Q144.1406,396.6875 144.7031,396.9844 L144.7031,399.7031 Q144.0781,399.125 143.4844,398.8594 Q142.8906,398.5781 142.2656,398.5781 Q140.9219,398.5781 140.2344,399.6563 Q139.5469,400.7188 139.5469,402.8125 Q139.5469,404.9063 140.2344,405.9844 Q140.9219,407.0469 142.2656,407.0469 Q142.8906,407.0469 143.4844,406.7813 Q144.0781,406.5 144.7031,405.9219 L144.7031,408.6406 Z " fill="#000000"/><text fill="#000000" font-family="sans-serif" font-size="14" lengthAdjust="spacing" textLength="36.5381" x="162.2344" y="407.8467">Node</text><line style="stroke:#181818;stroke-width:0.5;" x1="70" x2="258.5068" y1="419" y2="419"/><rect fill="none" height="6" style="stroke:#C82930;stroke-width:1;" width="6" x="77" y="429.6484"/><text fill="#000000" font-family="sans-serif" font-size="14" lengthAdjust="spacing" textLength="89.1406" x="89" y="435.9951">Buffer buffer</text><rect fill="none" height="6" style="stroke:#C82930;stroke-width:1;" width="6" x="77" y="445.9453"/><text fill="#000000" font-family="sans-serif" font-size="14" lengthAdjust="spacing" textLength="128.7412" x="89" y="452.292">Manager manager</text><rect fill="none" height="6" style="stroke:#C82930;stroke-width:1;" width="6" x="77" y="462.2422"/><text fill="#000000" font-family="sans-serif" font-size="14" lengthAdjust="spacing" textLength="90.6035" x="89" y="468.5889">Frame frame</text><line style="stroke:#181818;stroke-width:0.5;" x1="70" x2="258.5068" y1="475.8906" y2="475.8906"/><ellipse cx="80" cy="489.5391" fill="#84BE84" rx="3" ry="3" style="stroke:#038048;stroke-width:1;"/><text fill="#000000" font-family="sans-serif" font-size="14" lengthAdjust="spacing" textLength="164.5068" x="89" y="492.8857">updatePixel(Pixel pixel)</text><ellipse cx="80" cy="505.8359" fill="#84BE84" rx="3" ry="3" style="stroke:#038048;stroke-width:1;"/><text fill="#000000" font-family="sans-serif" font-size="14" lengthAdjust="spacing" textLength="100.2559" x="89" y="509.1826">switchFrame()</text><ellipse cx="80" cy="522.1328" fill="#84BE84" rx="3" ry="3" style="stroke:#038048;stroke-width:1;"/><text fill="#000000" font-family="sans-serif" font-size="14" lengthAdjust="spacing" textLength="69.2754" x="89" y="525.4795">initialize()</text><ellipse cx="80" cy="538.4297" fill="#84BE84" rx="3" ry="3" style="stroke:#038048;stroke-width:1;"/><text fill="#000000" font-family="sans-serif" font-size="14" lengthAdjust="spacing" textLength="34.4258" x="89" y="541.7764">run()</text></g><!--class Lista--><g id="elem_Lista"><rect codeLine="43" fill="#F1F1F1" height="129.4844" id="Lista" rx="2.5" ry="2.5" style="stroke:#181818;stroke-width:0.5;" width="203.4063" x="63" y="181"/><ellipse cx="143.9272" cy="197" fill="#ADD1B2" rx="11" ry="11" style="stroke:#181818;stroke-width:1;"/><path d="M146.896,202.6406 Q146.3179,202.9375 145.6772,203.0781 Q145.0366,203.2344 144.3335,203.2344 Q141.8335,203.2344 140.5054,201.5938 Q139.1929,199.9375 139.1929,196.8125 Q139.1929,193.6875 140.5054,192.0313 Q141.8335,190.375 144.3335,190.375 Q145.0366,190.375 145.6772,190.5313 Q146.3335,190.6875 146.896,190.9844 L146.896,193.7031 Q146.271,193.125 145.6772,192.8594 Q145.0835,192.5781 144.4585,192.5781 Q143.1147,192.5781 142.4272,193.6563 Q141.7397,194.7188 141.7397,196.8125 Q141.7397,198.9063 142.4272,199.9844 Q143.1147,201.0469 144.4585,201.0469 Q145.0835,201.0469 145.6772,200.7813 Q146.271,200.5 146.896,199.9219 L146.896,202.6406 Z " fill="#000000"/><text fill="#000000" font-family="sans-serif" font-size="14" lengthAdjust="spacing" textLength="33.0518" x="164.4272" y="201.8467">Lista</text><line style="stroke:#181818;stroke-width:0.5;" x1="64" x2="265.4063" y1="213" y2="213"/><rect fill="none" height="6" style="stroke:#C82930;stroke-width:1;" width="6" x="71" y="223.6484"/><text fill="#000000" font-family="sans-serif" font-size="14" lengthAdjust="spacing" textLength="131.1543" x="83" y="229.9951">List&lt;Node&gt; nodes</text><line style="stroke:#181818;stroke-width:0.5;" x1="64" x2="265.4063" y1="237.2969" y2="237.2969"/><ellipse cx="74" cy="250.9453" fill="#84BE84" rx="3" ry="3" style="stroke:#038048;stroke-width:1;"/><text fill="#000000" font-family="sans-serif" font-size="14" lengthAdjust="spacing" textLength="149.7412" x="83" y="254.292">addNode(Node node)</text><ellipse cx="74" cy="267.2422" fill="#84BE84" rx="3" ry="3" style="stroke:#038048;stroke-width:1;"/><text fill="#000000" font-family="sans-serif" font-size="14" lengthAdjust="spacing" textLength="176.8594" x="83" y="270.5889">removeNode(Node node)</text><ellipse cx="74" cy="283.5391" fill="#84BE84" rx="3" ry="3" style="stroke:#038048;stroke-width:1;"/><text fill="#000000" font-family="sans-serif" font-size="14" lengthAdjust="spacing" textLength="177.4063" x="83" y="286.8857">getNode(int index): Node</text><ellipse cx="74" cy="299.8359" fill="#84BE84" rx="3" ry="3" style="stroke:#038048;stroke-width:1;"/><text fill="#000000" font-family="sans-serif" font-size="14" lengthAdjust="spacing" textLength="51.7822" x="83" y="303.1826">runAll()</text></g><!--class Renderer--><g id="elem_Renderer"><rect codeLine="51" fill="#F1F1F1" height="96.8906" id="Renderer" rx="2.5" ry="2.5" style="stroke:#181818;stroke-width:0.5;" width="128.0605" x="100.5" y="7"/><ellipse cx="129.5498" cy="23" fill="#ADD1B2" rx="11" ry="11" style="stroke:#181818;stroke-width:1;"/><path d="M132.5185,28.6406 Q131.9404,28.9375 131.2998,29.0781 Q130.6591,29.2344 129.956,29.2344 Q127.456,29.2344 126.1279,27.5938 Q124.8154,25.9375 124.8154,22.8125 Q124.8154,19.6875 126.1279,18.0313 Q127.456,16.375 129.956,16.375 Q130.6591,16.375 131.2998,16.5313 Q131.956,16.6875 132.5185,16.9844 L132.5185,19.7031 Q131.8935,19.125 131.2998,18.8594 Q130.706,18.5781 130.081,18.5781 Q128.7373,18.5781 128.0498,19.6563 Q127.3623,20.7188 127.3623,22.8125 Q127.3623,24.9063 128.0498,25.9844 Q128.7373,27.0469 130.081,27.0469 Q130.706,27.0469 131.2998,26.7813 Q131.8935,26.5 132.5185,25.9219 L132.5185,28.6406 Z " fill="#000000"/><text fill="#000000" font-family="sans-serif" font-size="14" lengthAdjust="spacing" textLength="64.8389" x="146.6719" y="27.8467">Renderer</text><line style="stroke:#181818;stroke-width:0.5;" x1="101.5" x2="227.5605" y1="39" y2="39"/><rect fill="none" height="6" style="stroke:#C82930;stroke-width:1;" width="6" x="108.5" y="49.6484"/><text fill="#000000" font-family="sans-serif" font-size="14" lengthAdjust="spacing" textLength="89.1406" x="120.5" y="55.9951">Buffer buffer</text><line style="stroke:#181818;stroke-width:0.5;" x1="101.5" x2="227.5605" y1="63.2969" y2="63.2969"/><ellipse cx="111.5" cy="76.9453" fill="#84BE84" rx="3" ry="3" style="stroke:#038048;stroke-width:1;"/><text fill="#000000" font-family="sans-serif" font-size="14" lengthAdjust="spacing" textLength="102.0605" x="120.5" y="80.292">renderFrame()</text><ellipse cx="111.5" cy="93.2422" fill="#84BE84" rx="3" ry="3" style="stroke:#038048;stroke-width:1;"/><text fill="#000000" font-family="sans-serif" font-size="14" lengthAdjust="spacing" textLength="92.3057" x="120.5" y="96.5889">renderIntell()</text></g><!--link Frame to Pixel--><g id="link_Frame_Pixel"><path codeLine="57" d="M105.5,1169.14 C105.5,1193.02 105.5,1215.06 105.5,1239.77 " fill="none" id="Frame-to-Pixel" style="stroke:#181818;stroke-width:1;"/><polygon fill="#181818" points="105.5,1245.77,109.5,1236.77,105.5,1240.77,101.5,1236.77,105.5,1245.77" style="stroke:#181818;stroke-width:1;"/><text fill="#000000" font-family="sans-serif" font-size="13" lengthAdjust="spacing" textLength="58.2144" x="106.5" y="1212.0669">Contiene</text></g><!--link Buffer to Frame--><g id="link_Buffer_Frame"><path codeLine="58" d="M180.56,979.28 C165.73,1005.41 153.1414,1027.5718 140.0714,1050.6018 " fill="none" id="Buffer-to-Frame" style="stroke:#181818;stroke-width:1;"/><polygon fill="#181818" points="137.11,1055.82,145.031,1049.967,139.5779,1051.4715,138.0734,1046.0184,137.11,1055.82" style="stroke:#181818;stroke-width:1;"/><text fill="#000000" font-family="sans-serif" font-size="13" lengthAdjust="spacing" textLength="58.2144" x="164.5" y="1022.0669">Contiene</text></g><!--link Manager to Buffer--><g id="link_Manager_Buffer"><path codeLine="59" d="M318.55,707.06 C308.18,728.72 297.4316,751.1686 284.4816,778.2086 " fill="none" id="Manager-to-Buffer" style="stroke:#181818;stroke-width:1;"/><polygon fill="#181818" points="281.89,783.62,289.3851,777.2306,284.0497,779.1105,282.1698,773.7751,281.89,783.62" style="stroke:#181818;stroke-width:1;"/><text fill="#000000" font-family="sans-serif" font-size="13" lengthAdjust="spacing" textLength="40.2378" x="302.5" y="750.0669">Utiliza</text></g><!--link Node to Buffer--><g id="link_Node_Buffer"><path codeLine="60" d="M166.16,549.18 C168.21,595.61 172.71,654.98 182.5,707 C187.25,732.23 192.6057,753.2361 200.0757,777.9761 " fill="none" id="Node-to-Buffer" style="stroke:#181818;stroke-width:1;"/><polygon fill="#181818" points="201.81,783.72,203.0378,773.948,200.3647,778.9334,195.3793,776.2604,201.81,783.72" style="stroke:#181818;stroke-width:1;"/><text fill="#000000" font-family="sans-serif" font-size="13" lengthAdjust="spacing" textLength="40.2378" x="183.5" y="671.0669">Utiliza</text></g><!--link Node to Manager--><g id="link_Node_Manager"><path codeLine="61" d="M235.12,549.21 C258.38,575.63 279.2658,599.3561 298.6558,621.3861 " fill="none" id="Node-to-Manager" style="stroke:#181818;stroke-width:1;"/><polygon fill="#181818" points="302.62,625.89,299.6763,616.4913,299.3165,622.1367,293.6711,621.7769,302.62,625.89" style="stroke:#181818;stroke-width:1;"/><text fill="#000000" font-family="sans-serif" font-size="13" lengthAdjust="spacing" textLength="40.2378" x="272.5" y="592.0669">Utiliza</text></g><!--link Node to Frame--><g id="link_Node_Frame"><path codeLine="62" d="M148.02,549.19 C135.78,612.61 119.96,703.56 112.5,784 C103.68,879.13 103.341,984.4505 104.201,1049.7305 " fill="none" id="Node-to-Frame" style="stroke:#181818;stroke-width:1;"/><polygon fill="#181818" points="104.28,1055.73,108.1611,1046.6781,104.2141,1050.7304,100.1618,1046.7835,104.28,1055.73" style="stroke:#181818;stroke-width:1;"/><text fill="#000000" font-family="sans-serif" font-size="13" lengthAdjust="spacing" textLength="40.2378" x="119.5" y="750.0669">Utiliza</text></g><!--link Lista to Node--><g id="link_Lista_Node"><path codeLine="63" d="M164.5,310.28 C164.5,334.19 164.5,355.67 164.5,380.88 " fill="none" id="Lista-to-Node" style="stroke:#181818;stroke-width:1;"/><polygon fill="#181818" points="164.5,386.88,168.5,377.88,164.5,381.88,160.5,377.88,164.5,386.88" style="stroke:#181818;stroke-width:1;"/><text fill="#000000" font-family="sans-serif" font-size="13" lengthAdjust="spacing" textLength="58.2144" x="165.5" y="353.0669">Contiene</text></g><!--link Renderer to Lista--><g id="link_Renderer_Lista"><path codeLine="64" d="M164.5,104.43 C164.5,127.6 164.5,149.73 164.5,174.69 " fill="none" id="Renderer-to-Lista" style="stroke:#181818;stroke-width:1;"/><polygon fill="#181818" points="164.5,180.69,168.5,171.69,164.5,175.69,160.5,171.69,164.5,180.69" style="stroke:#181818;stroke-width:1;"/><text fill="#000000" font-family="sans-serif" font-size="13" lengthAdjust="spacing" textLength="40.2378" x="165.5" y="147.0669">Utiliza</text></g><!--SRC=[XLB1QiCm3BtdAqnFAIM7xLX6OIiC1jiOWts0cwYPmRMBetJTnlvzbkmu3ktM7EBuFKbFUb6jPTU95tK4BRuBuPzAA8FYc7r_Pj-rrTRnVI4wm3LToqJC8zCEp7n9MSLFKTGiTE_a3fBGe-hmXhLNOaz75_Dbqp1SXiQOose7ZbILQU3eHHY90RK6wLYed8_AT_rs2ov9XqQszBuwXQwpYMMDwW1CHdHZhPSmmlN6ADCERdmehDy7tT67tZam6F6b60ij1DgsrJ1DwL0wp6vsdq_n98riip7YL1i-Oaw_RoJ26VzIbMVRm3ybgYIp2-UfGPUa_hP46OLAQlKrGjx7V4RQ2ZdT4Mfu9On_Pnj2OCcZ496AmSuUu3pdVmSJ-UOGCFPngtNUoYluA7V1RyT1qoa3zc0GXeB1lAfQXLrTYjdQ6bHWO5R4gaHos8GS_WMn8T3JRwYyXN9My8mNg5ZXB3Ve9IQuJnJ5J3f9RX3BSLdYBm00]--></g></svg>