<svg xmlns="http://www.w3.org/2000/svg" xmlns:xlink="http://www.w3.org/1999/xlink" contentStyleType="text/css" data-diagram-type="CLASS" height="600px" preserveAspectRatio="none" style="width:408px;height:600px;background:#FFFFFF;" version="1.1" viewBox="0 0 408 600" width="408px" zoomAndPan="magnify"><defs/><g><!--class Main--><g id="elem_Main"><rect codeLine="2" fill="#F1F1F1" height="48" id="Main" rx="2.5" ry="2.5" style="stroke:#181818;stroke-width:0.5;" width="64.5254" x="171.97" y="7"/><ellipse cx="186.97" cy="23" fill="#ADD1B2" rx="11" ry="11" style="stroke:#181818;stroke-width:1;"/><path d="M189.4431,29.1431 Q188.8621,29.4419 188.2229,29.5913 Q187.5838,29.7407 186.8782,29.7407 Q184.3714,29.7407 183.0515,28.0889 Q181.7317,26.437 181.7317,23.3159 Q181.7317,20.1865 183.0515,18.5347 Q184.3714,16.8828 186.8782,16.8828 Q187.5838,16.8828 188.2312,17.0322 Q188.8787,17.1816 189.4431,17.4805 L189.4431,20.2031 Q188.8123,19.6221 188.2188,19.3523 Q187.6253,19.0825 186.9944,19.0825 Q185.6497,19.0825 184.9649,20.1492 Q184.2801,21.2158 184.2801,23.3159 Q184.2801,25.4077 184.9649,26.4744 Q185.6497,27.541 186.9944,27.541 Q187.6253,27.541 188.2188,27.2712 Q188.8123,27.0015 189.4431,26.4204 Z " fill="#000000"/><text fill="#000000" font-family="sans-serif" font-size="14" lengthAdjust="spacing" textLength="32.5254" x="200.97" y="28.291">Main</text><line style="stroke:#181818;stroke-width:0.5;" x1="172.97" x2="235.4954" y1="39" y2="39"/><line style="stroke:#181818;stroke-width:0.5;" x1="172.97" x2="235.4954" y1="47" y2="47"/></g><!--class Pixel--><g id="elem_Pixel"><rect codeLine="5" fill="#F1F1F1" height="97.4648" id="Pixel" rx="2.5" ry="2.5" style="stroke:#181818;stroke-width:0.5;" width="176.2197" x="116.13" y="495.89"/><ellipse cx="183.881" cy="511.89" fill="#ADD1B2" rx="11" ry="11" style="stroke:#181818;stroke-width:1;"/><path d="M186.3541,518.0331 Q185.7731,518.3319 185.1339,518.4813 Q184.4947,518.6307 183.7892,518.6307 Q181.2823,518.6307 179.9625,516.9789 Q178.6427,515.327 178.6427,512.2059 Q178.6427,509.0765 179.9625,507.4247 Q181.2823,505.7728 183.7892,505.7728 Q184.4947,505.7728 185.1422,505.9222 Q185.7897,506.0716 186.3541,506.3705 L186.3541,509.0931 Q185.7233,508.5121 185.1298,508.2423 Q184.5363,507.9725 183.9054,507.9725 Q182.5607,507.9725 181.8758,509.0392 Q181.191,510.1058 181.191,512.2059 Q181.191,514.2977 181.8758,515.3644 Q182.5607,516.431 183.9054,516.431 Q184.5363,516.431 185.1298,516.1612 Q185.7233,515.8915 186.3541,515.3104 Z " fill="#000000"/><text fill="#000000" font-family="sans-serif" font-size="14" lengthAdjust="spacing" textLength="32.2178" x="204.381" y="517.181">Pixel</text><line style="stroke:#181818;stroke-width:0.5;" x1="117.13" x2="291.3497" y1="527.89" y2="527.89"/><rect fill="transparent" height="6" style="stroke:#C82930;stroke-width:1;" width="6" x="124.13" y="538.6341"/><text fill="#000000" font-family="sans-serif" font-size="14" lengthAdjust="spacing" textLength="57.21" x="136.13" y="545.4252">int dato;</text><line style="stroke:#181818;stroke-width:0.5;" x1="117.13" x2="291.3497" y1="552.3783" y2="552.3783"/><ellipse cx="127.13" cy="566.1224" fill="#84BE84" rx="3" ry="3" style="stroke:#038048;stroke-width:1;"/><text fill="#000000" font-family="sans-serif" font-size="14" lengthAdjust="spacing" textLength="120.6543" x="136.13" y="569.9134">int obtenerDato();</text><ellipse cx="127.13" cy="582.6107" fill="#84BE84" rx="3" ry="3" style="stroke:#038048;stroke-width:1;"/><text fill="#000000" font-family="sans-serif" font-size="14" lengthAdjust="spacing" textLength="150.2197" x="136.13" y="586.4017">void setDato(int valor)</text></g><!--class Frame--><g id="elem_Frame"><rect codeLine="11" fill="#F1F1F1" height="130.4414" id="Frame" rx="2.5" ry="2.5" style="stroke:#181818;stroke-width:0.5;" width="323.7324" x="42.37" y="305.44"/><ellipse cx="179.0682" cy="321.44" fill="#ADD1B2" rx="11" ry="11" style="stroke:#181818;stroke-width:1;"/><path d="M181.5414,327.5831 Q180.9603,327.8819 180.3212,328.0313 Q179.682,328.1807 178.9764,328.1807 Q176.4696,328.1807 175.1498,326.5289 Q173.83,324.877 173.83,321.7559 Q173.83,318.6265 175.1498,316.9747 Q176.4696,315.3228 178.9764,315.3228 Q179.682,315.3228 180.3295,315.4722 Q180.9769,315.6216 181.5414,315.9205 L181.5414,318.6431 Q180.9105,318.0621 180.317,317.7923 Q179.7235,317.5225 179.0927,317.5225 Q177.7479,317.5225 177.0631,318.5892 Q176.3783,319.6558 176.3783,321.7559 Q176.3783,323.8477 177.0631,324.9144 Q177.7479,325.981 179.0927,325.981 Q179.7235,325.981 180.317,325.7112 Q180.9105,325.4415 181.5414,324.8604 Z " fill="#000000"/><text fill="#000000" font-family="sans-serif" font-size="14" lengthAdjust="spacing" textLength="41.8359" x="199.5682" y="326.731">Frame</text><line style="stroke:#181818;stroke-width:0.5;" x1="43.37" x2="365.1024" y1="337.44" y2="337.44"/><rect fill="transparent" height="6" style="stroke:#C82930;stroke-width:1;" width="6" x="50.37" y="348.1841"/><text fill="#000000" font-family="sans-serif" font-size="14" lengthAdjust="spacing" textLength="89.6602" x="62.37" y="354.9752">Pixel[] frame;</text><line style="stroke:#181818;stroke-width:0.5;" x1="43.37" x2="365.1024" y1="361.9283" y2="361.9283"/><ellipse cx="53.37" cy="375.6724" fill="#84BE84" rx="3" ry="3" style="stroke:#038048;stroke-width:1;"/><text fill="#000000" font-family="sans-serif" font-size="14" lengthAdjust="spacing" textLength="104.7813" x="62.37" y="379.4634">Frame(int size);</text><ellipse cx="53.37" cy="392.1607" fill="#84BE84" rx="3" ry="3" style="stroke:#038048;stroke-width:1;"/><text fill="#000000" font-family="sans-serif" font-size="14" lengthAdjust="spacing" textLength="297.7324" x="62.37" y="395.9517">void modificarPixel(int pos, int nuevoValor);</text><ellipse cx="53.37" cy="408.649" fill="#84BE84" rx="3" ry="3" style="stroke:#038048;stroke-width:1;"/><text fill="#000000" font-family="sans-serif" font-size="14" lengthAdjust="spacing" textLength="170.3652" x="62.37" y="412.44">char traducir(Pixel pixel);</text><ellipse cx="53.37" cy="425.1373" fill="#84BE84" rx="3" ry="3" style="stroke:#038048;stroke-width:1;"/><text fill="#000000" font-family="sans-serif" font-size="14" lengthAdjust="spacing" textLength="105.2188" x="62.37" y="428.9283">void imprimir();</text></g><!--class Pantalla--><g id="elem_Pantalla"><rect codeLine="19" fill="#F1F1F1" height="130.4414" id="Pantalla" rx="2.5" ry="2.5" style="stroke:#181818;stroke-width:0.5;" width="394.4707" x="7" y="115"/><ellipse cx="173.5098" cy="131" fill="#ADD1B2" rx="11" ry="11" style="stroke:#181818;stroke-width:1;"/><path d="M175.9829,137.1431 Q175.4019,137.4419 174.7627,137.5913 Q174.1235,137.7407 173.418,137.7407 Q170.9111,137.7407 169.5913,136.0889 Q168.2715,134.437 168.2715,131.3159 Q168.2715,128.1865 169.5913,126.5347 Q170.9111,124.8828 173.418,124.8828 Q174.1235,124.8828 174.771,125.0322 Q175.4185,125.1816 175.9829,125.4805 L175.9829,128.2031 Q175.3521,127.6221 174.7585,127.3523 Q174.165,127.0825 173.5342,127.0825 Q172.1895,127.0825 171.5046,128.1492 Q170.8198,129.2158 170.8198,131.3159 Q170.8198,133.4077 171.5046,134.4744 Q172.1895,135.541 173.5342,135.541 Q174.165,135.541 174.7585,135.2712 Q175.3521,135.0015 175.9829,134.4204 Z " fill="#000000"/><text fill="#000000" font-family="sans-serif" font-size="14" lengthAdjust="spacing" textLength="52.9512" x="194.0098" y="136.291">Pantalla</text><line style="stroke:#181818;stroke-width:0.5;" x1="8" x2="400.4707" y1="147" y2="147"/><rect fill="transparent" height="6" style="stroke:#C82930;stroke-width:1;" width="6" x="15" y="157.7441"/><text fill="#000000" font-family="sans-serif" font-size="14" lengthAdjust="spacing" textLength="113.8252" x="27" y="164.5352">Frame[] pantalla;</text><line style="stroke:#181818;stroke-width:0.5;" x1="8" x2="400.4707" y1="171.4883" y2="171.4883"/><ellipse cx="18" cy="185.2324" fill="#84BE84" rx="3" ry="3" style="stroke:#038048;stroke-width:1;"/><text fill="#000000" font-family="sans-serif" font-size="14" lengthAdjust="spacing" textLength="233.3447" x="27" y="189.0234">Frame generarFrame(int posicion);</text><ellipse cx="18" cy="201.7207" fill="#84BE84" rx="3" ry="3" style="stroke:#038048;stroke-width:1;"/><text fill="#000000" font-family="sans-serif" font-size="14" lengthAdjust="spacing" textLength="160.8086" x="27" y="205.5117">void addFrame(int pos);</text><ellipse cx="18" cy="218.209" fill="#84BE84" rx="3" ry="3" style="stroke:#038048;stroke-width:1;"/><text fill="#000000" font-family="sans-serif" font-size="14" lengthAdjust="spacing" textLength="221.2383" x="27" y="222">void mostrarFrame(int posicion);</text><ellipse cx="18" cy="234.6973" fill="#84BE84" rx="3" ry="3" style="stroke:#038048;stroke-width:1;"/><text fill="#000000" font-family="sans-serif" font-size="14" lengthAdjust="spacing" textLength="368.4707" x="27" y="238.4883">void modificarPixel(int frame, int pos, int nuevoValor);</text></g><!--link Main to Pantalla--><g id="link_Main_Pantalla"><path codeLine="27" d="M204.24,55.33 C204.24,71.38 204.24,87.55 204.24,108.7 " fill="transparent" id="Main-to-Pantalla" style="stroke:#181818;stroke-width:1;"/><polygon fill="#181818" points="204.24,114.7,208.24,105.7,204.24,109.7,200.24,105.7,204.24,114.7" style="stroke:#181818;stroke-width:1;"/></g><!--link Pantalla to Frame--><g id="link_Pantalla_Frame"><path codeLine="28" d="M204.24,245.81 C204.24,264.99 204.24,279.99 204.24,299.16 " fill="transparent" id="Pantalla-to-Frame" style="stroke:#181818;stroke-width:1;"/><polygon fill="#181818" points="204.24,305.16,208.24,296.16,204.24,300.16,200.24,296.16,204.24,305.16" style="stroke:#181818;stroke-width:1;"/></g><!--link Frame to Pixel--><g id="link_Frame_Pixel"><path codeLine="29" d="M204.24,436.18 C204.24,455.81 204.24,471.04 204.24,489.4 " fill="transparent" id="Frame-to-Pixel" style="stroke:#181818;stroke-width:1;"/><polygon fill="#181818" points="204.24,495.4,208.24,486.4,204.24,490.4,200.24,486.4,204.24,495.4" style="stroke:#181818;stroke-width:1;"/></g><!--SRC=[XL7B2W8n3BptAt9KTBz0y2JU14zUn4DigmQwxPBMHHJ_tJRriOBWfRIJp6GcrGvZX1MIloa0TLTQW3LTh2j80-GJ64nXbbyJUOLzijxo8eEZSONxG0QYJOALdXvTu77MUmek6LjR1KLxkuD3WIfTgiABTBL3pJOOEf165fQqT25EnOS_spviP51bw1Co94PpriGZOK1Npg4YjHrJc-iPVDjReq_e75Q7OYSxx9xem2GSItJaZ-DiXpG5Fvo1ndmrV2UAwQ_0ZzYohXhyzmPocFAFq3JpTnxrkWWgCrND8Lr5_040]--></g></svg>