<svg xmlns="http://www.w3.org/2000/svg" xmlns:xlink="http://www.w3.org/1999/xlink" contentStyleType="text/css" data-diagram-type="CLASS" height="1437px" preserveAspectRatio="none" style="width:484px;height:1437px;background:#FFFFFF;" version="1.1" viewBox="0 0 484 1437" width="484px" zoomAndPan="magnify"><defs/><g><!--class Cola--><g id="elem_Cola"><rect codeLine="1" fill="#F1F1F1" height="178.375" id="Cola" rx="2.5" ry="2.5" style="stroke:#181818;stroke-width:0.5;" width="211.3975" x="225.9" y="559.15"/><ellipse cx="311.9439" cy="575.15" fill="#ADD1B2" rx="11" ry="11" style="stroke:#181818;stroke-width:1;"/><path d="M314.9127,580.7906 Q314.3346,581.0875 313.6939,581.2281 Q313.0533,581.3844 312.3502,581.3844 Q309.8502,581.3844 308.5221,579.7438 Q307.2096,578.0875 307.2096,574.9625 Q307.2096,571.8375 308.5221,570.1813 Q309.8502,568.525 312.3502,568.525 Q313.0533,568.525 313.6939,568.6813 Q314.3502,568.8375 314.9127,569.1344 L314.9127,571.8531 Q314.2877,571.275 313.6939,571.0094 Q313.1002,570.7281 312.4752,570.7281 Q311.1314,570.7281 310.4439,571.8063 Q309.7564,572.8688 309.7564,574.9625 Q309.7564,577.0563 310.4439,578.1344 Q311.1314,579.1969 312.4752,579.1969 Q313.1002,579.1969 313.6939,578.9313 Q314.2877,578.65 314.9127,578.0719 L314.9127,580.7906 Z " fill="#000000"/><text fill="#000000" font-family="sans-serif" font-size="14" lengthAdjust="spacing" textLength="30.8096" x="332.4439" y="579.9967">Cola</text><line style="stroke:#181818;stroke-width:0.5;" x1="226.9" x2="436.2975" y1="591.15" y2="591.15"/><rect fill="#FFFFFF" fill-opacity="0.00000" height="6" style="stroke:#C82930;stroke-width:1;" width="6" x="233.9" y="601.7984"/><text fill="#000000" font-family="sans-serif" font-size="14" lengthAdjust="spacing" textLength="140.6836" x="245.9" y="608.1451">NodoFrame primero</text><rect fill="#FFFFFF" fill-opacity="0.00000" height="6" style="stroke:#C82930;stroke-width:1;" width="6" x="233.9" y="618.0953"/><text fill="#000000" font-family="sans-serif" font-size="14" lengthAdjust="spacing" textLength="129.9238" x="245.9" y="624.442">NodoFrame ultimo</text><rect fill="#FFFFFF" fill-opacity="0.00000" height="6" style="stroke:#C82930;stroke-width:1;" width="6" x="233.9" y="634.3922"/><text fill="#000000" font-family="sans-serif" font-size="14" lengthAdjust="spacing" textLength="76.4258" x="245.9" y="640.7389">int tama&#241;o</text><line style="stroke:#181818;stroke-width:0.5;" x1="226.9" x2="436.2975" y1="648.0406" y2="648.0406"/><ellipse cx="236.9" cy="661.6891" fill="#84BE84" rx="3" ry="3" style="stroke:#038048;stroke-width:1;"/><text fill="#000000" font-family="sans-serif" font-size="14" lengthAdjust="spacing" textLength="41.7334" x="245.9" y="665.0357">Cola()</text><ellipse cx="236.9" cy="677.9859" fill="#84BE84" rx="3" ry="3" style="stroke:#038048;stroke-width:1;"/><text fill="#000000" font-family="sans-serif" font-size="14" lengthAdjust="spacing" textLength="106.3467" x="245.9" y="681.3326">void enqueue()</text><ellipse cx="236.9" cy="694.2828" fill="#84BE84" rx="3" ry="3" style="stroke:#038048;stroke-width:1;"/><text fill="#000000" font-family="sans-serif" font-size="14" lengthAdjust="spacing" textLength="132.2959" x="245.9" y="697.6295">Frame[] dequeue()</text><ellipse cx="236.9" cy="710.5797" fill="#84BE84" rx="3" ry="3" style="stroke:#038048;stroke-width:1;"/><text fill="#000000" font-family="sans-serif" font-size="14" lengthAdjust="spacing" textLength="105.1572" x="245.9" y="713.9264">Frame[] peek()</text><rect fill="#F24D5C" height="6" style="stroke:#C82930;stroke-width:1;" width="6" x="233.9" y="723.8766"/><text fill="#000000" font-family="sans-serif" font-size="14" lengthAdjust="spacing" textLength="185.3975" x="245.9" y="730.2232">boolean tieneDosFrames()</text></g><!--class NodoFrame--><g id="elem_NodoFrame"><rect codeLine="12" fill="#F1F1F1" height="113.1875" id="NodoFrame" rx="2.5" ry="2.5" style="stroke:#181818;stroke-width:0.5;" width="278.8818" x="198.16" y="797.53"/><ellipse cx="292.7865" cy="813.53" fill="#ADD1B2" rx="11" ry="11" style="stroke:#181818;stroke-width:1;"/><path d="M295.7552,819.1706 Q295.1771,819.4675 294.5365,819.6081 Q293.8958,819.7644 293.1927,819.7644 Q290.6927,819.7644 289.3646,818.1238 Q288.0521,816.4675 288.0521,813.3425 Q288.0521,810.2175 289.3646,808.5613 Q290.6927,806.905 293.1927,806.905 Q293.8958,806.905 294.5365,807.0613 Q295.1927,807.2175 295.7552,807.5144 L295.7552,810.2331 Q295.1302,809.655 294.5365,809.3894 Q293.9427,809.1081 293.3177,809.1081 Q291.974,809.1081 291.2865,810.1863 Q290.599,811.2488 290.599,813.3425 Q290.599,815.4363 291.2865,816.5144 Q291.974,817.5769 293.3177,817.5769 Q293.9427,817.5769 294.5365,817.3113 Q295.1302,817.03 295.7552,816.4519 L295.7552,819.1706 Z " fill="#000000"/><text fill="#000000" font-family="sans-serif" font-size="14" lengthAdjust="spacing" textLength="81.1289" x="313.2865" y="818.3767">NodoFrame</text><line style="stroke:#181818;stroke-width:0.5;" x1="199.16" x2="476.0418" y1="829.53" y2="829.53"/><rect fill="#FFFFFF" fill-opacity="0.00000" height="6" style="stroke:#C82930;stroke-width:1;" width="6" x="206.16" y="840.1784"/><text fill="#000000" font-family="sans-serif" font-size="14" lengthAdjust="spacing" textLength="150.001" x="218.16" y="846.5251">NodoFrame siguiente</text><line style="stroke:#181818;stroke-width:0.5;" x1="199.16" x2="476.0418" y1="853.8269" y2="853.8269"/><ellipse cx="209.16" cy="867.4753" fill="#84BE84" rx="3" ry="3" style="stroke:#038048;stroke-width:1;"/><text fill="#000000" font-family="sans-serif" font-size="14" lengthAdjust="spacing" textLength="92.0527" x="218.16" y="870.822">NodoFrame()</text><ellipse cx="209.16" cy="883.7722" fill="#84BE84" rx="3" ry="3" style="stroke:#038048;stroke-width:1;"/><text fill="#000000" font-family="sans-serif" font-size="14" lengthAdjust="spacing" textLength="185.5068" x="218.16" y="887.1189">NodoFrame getSiguiente()</text><ellipse cx="209.16" cy="900.0691" fill="#84BE84" rx="3" ry="3" style="stroke:#038048;stroke-width:1;"/><text fill="#000000" font-family="sans-serif" font-size="14" lengthAdjust="spacing" textLength="252.8818" x="218.16" y="903.4157">void setSiguiente(NodoFrame nodo)</text></g><!--class Frame--><g id="elem_Frame"><rect codeLine="19" fill="#F1F1F1" height="113.1875" id="Frame" rx="2.5" ry="2.5" style="stroke:#181818;stroke-width:0.5;" width="206.2637" x="138.47" y="970.72"/><ellipse cx="215.0325" cy="986.72" fill="#ADD1B2" rx="11" ry="11" style="stroke:#181818;stroke-width:1;"/><path d="M218.0013,992.3606 Q217.4231,992.6575 216.7825,992.7981 Q216.1419,992.9544 215.4388,992.9544 Q212.9388,992.9544 211.6106,991.3138 Q210.2981,989.6575 210.2981,986.5325 Q210.2981,983.4075 211.6106,981.7513 Q212.9388,980.095 215.4388,980.095 Q216.1419,980.095 216.7825,980.2513 Q217.4388,980.4075 218.0013,980.7044 L218.0013,983.4231 Q217.3763,982.845 216.7825,982.5794 Q216.1888,982.2981 215.5638,982.2981 Q214.22,982.2981 213.5325,983.3763 Q212.845,984.4388 212.845,986.5325 Q212.845,988.6263 213.5325,989.7044 Q214.22,990.7669 215.5638,990.7669 Q216.1888,990.7669 216.7825,990.5013 Q217.3763,990.22 218.0013,989.6419 L218.0013,992.3606 Z " fill="#000000"/><text fill="#000000" font-family="sans-serif" font-size="14" lengthAdjust="spacing" textLength="44.6387" x="235.5325" y="991.5667">Frame</text><line style="stroke:#181818;stroke-width:0.5;" x1="139.47" x2="343.7337" y1="1002.72" y2="1002.72"/><rect fill="#FFFFFF" fill-opacity="0.00000" height="6" style="stroke:#C82930;stroke-width:1;" width="6" x="146.47" y="1013.3684"/><text fill="#000000" font-family="sans-serif" font-size="14" lengthAdjust="spacing" textLength="108.8896" x="158.47" y="1019.7151">Pixel[][] pixeles</text><line style="stroke:#181818;stroke-width:0.5;" x1="139.47" x2="343.7337" y1="1027.0169" y2="1027.0169"/><ellipse cx="149.47" cy="1040.6653" fill="#84BE84" rx="3" ry="3" style="stroke:#038048;stroke-width:1;"/><text fill="#000000" font-family="sans-serif" font-size="14" lengthAdjust="spacing" textLength="55.5625" x="158.47" y="1044.012">Frame()</text><ellipse cx="149.47" cy="1056.9622" fill="#84BE84" rx="3" ry="3" style="stroke:#038048;stroke-width:1;"/><text fill="#000000" font-family="sans-serif" font-size="14" lengthAdjust="spacing" textLength="147.998" x="158.47" y="1060.3089">void rellenarPixeles()</text><ellipse cx="149.47" cy="1073.2591" fill="#84BE84" rx="3" ry="3" style="stroke:#038048;stroke-width:1;"/><text fill="#000000" font-family="sans-serif" font-size="14" lengthAdjust="spacing" textLength="180.2637" x="158.47" y="1076.6057">Pixel[][] devolverPixeles()</text></g><!--class Color--><g id="elem_Color"><rect codeLine="26" fill="#F1F1F1" height="129.4844" id="Color" rx="2.5" ry="2.5" style="stroke:#181818;stroke-width:0.5;" width="242.6445" x="120.28" y="1300.8"/><ellipse cx="219.0764" cy="1316.8" fill="#ADD1B2" rx="11" ry="11" style="stroke:#181818;stroke-width:1;"/><path d="M222.0451,1322.4406 Q221.467,1322.7375 220.8264,1322.8781 Q220.1858,1323.0344 219.4826,1323.0344 Q216.9826,1323.0344 215.6545,1321.3938 Q214.342,1319.7375 214.342,1316.6125 Q214.342,1313.4875 215.6545,1311.8313 Q216.9826,1310.175 219.4826,1310.175 Q220.1858,1310.175 220.8264,1310.3313 Q221.4826,1310.4875 222.0451,1310.7844 L222.0451,1313.5031 Q221.4201,1312.925 220.8264,1312.6594 Q220.2326,1312.3781 219.6076,1312.3781 Q218.2639,1312.3781 217.5764,1313.4563 Q216.8889,1314.5188 216.8889,1316.6125 Q216.8889,1318.7063 217.5764,1319.7844 Q218.2639,1320.8469 219.6076,1320.8469 Q220.2326,1320.8469 220.8264,1320.5813 Q221.4201,1320.3 222.0451,1319.7219 L222.0451,1322.4406 Z " fill="#000000"/><text fill="#000000" font-family="sans-serif" font-size="14" lengthAdjust="spacing" textLength="36.5518" x="239.5764" y="1321.6467">Color</text><line style="stroke:#181818;stroke-width:0.5;" x1="121.28" x2="361.9245" y1="1332.8" y2="1332.8"/><rect fill="#FFFFFF" fill-opacity="0.00000" height="6" style="stroke:#C82930;stroke-width:1;" width="6" x="128.28" y="1343.4484"/><text fill="#000000" font-family="sans-serif" font-size="14" lengthAdjust="spacing" textLength="140.8545" x="140.28" y="1349.7951">char representacion</text><rect fill="#FFFFFF" fill-opacity="0.00000" height="6" style="stroke:#C82930;stroke-width:1;" width="6" x="128.28" y="1359.7453"/><text fill="#000000" font-family="sans-serif" font-size="14" lengthAdjust="spacing" textLength="57.7773" x="140.28" y="1366.092">int valor</text><line style="stroke:#181818;stroke-width:0.5;" x1="121.28" x2="361.9245" y1="1373.3938" y2="1373.3938"/><ellipse cx="131.28" cy="1387.0422" fill="#84BE84" rx="3" ry="3" style="stroke:#038048;stroke-width:1;"/><text fill="#000000" font-family="sans-serif" font-size="14" lengthAdjust="spacing" textLength="47.4756" x="140.28" y="1390.3889">Color()</text><ellipse cx="131.28" cy="1403.3391" fill="#84BE84" rx="3" ry="3" style="stroke:#038048;stroke-width:1;"/><text fill="#000000" font-family="sans-serif" font-size="14" lengthAdjust="spacing" textLength="216.6445" x="140.28" y="1406.6857">char devolverRepresentacion()</text><ellipse cx="131.28" cy="1419.6359" fill="#84BE84" rx="3" ry="3" style="stroke:#038048;stroke-width:1;"/><text fill="#000000" font-family="sans-serif" font-size="14" lengthAdjust="spacing" textLength="130.8877" x="140.28" y="1422.9826">int devolverValor()</text></g><!--class Pixel--><g id="elem_Pixel"><rect codeLine="34" fill="#F1F1F1" height="96.8906" id="Pixel" rx="2.5" ry="2.5" style="stroke:#181818;stroke-width:0.5;" width="175.3721" x="153.92" y="1143.91"/><ellipse cx="220.796" cy="1159.91" fill="#ADD1B2" rx="11" ry="11" style="stroke:#181818;stroke-width:1;"/><path d="M223.7647,1165.5506 Q223.1866,1165.8475 222.546,1165.9881 Q221.9054,1166.1444 221.2022,1166.1444 Q218.7022,1166.1444 217.3741,1164.5038 Q216.0616,1162.8475 216.0616,1159.7225 Q216.0616,1156.5975 217.3741,1154.9413 Q218.7022,1153.285 221.2022,1153.285 Q221.9054,1153.285 222.546,1153.4413 Q223.2022,1153.5975 223.7647,1153.8944 L223.7647,1156.6131 Q223.1397,1156.035 222.546,1155.7694 Q221.9522,1155.4881 221.3272,1155.4881 Q219.9835,1155.4881 219.296,1156.5663 Q218.6085,1157.6288 218.6085,1159.7225 Q218.6085,1161.8163 219.296,1162.8944 Q219.9835,1163.9569 221.3272,1163.9569 Q221.9522,1163.9569 222.546,1163.6913 Q223.1397,1163.41 223.7647,1162.8319 L223.7647,1165.5506 Z " fill="#000000"/><text fill="#000000" font-family="sans-serif" font-size="14" lengthAdjust="spacing" textLength="33.1201" x="241.296" y="1164.7567">Pixel</text><line style="stroke:#181818;stroke-width:0.5;" x1="154.92" x2="328.2921" y1="1175.91" y2="1175.91"/><rect fill="#FFFFFF" fill-opacity="0.00000" height="6" style="stroke:#C82930;stroke-width:1;" width="6" x="161.92" y="1186.5584"/><text fill="#000000" font-family="sans-serif" font-size="14" lengthAdjust="spacing" textLength="75.4756" x="173.92" y="1192.9051">Color color</text><line style="stroke:#181818;stroke-width:0.5;" x1="154.92" x2="328.2921" y1="1200.2069" y2="1200.2069"/><ellipse cx="164.92" cy="1213.8553" fill="#84BE84" rx="3" ry="3" style="stroke:#038048;stroke-width:1;"/><text fill="#000000" font-family="sans-serif" font-size="14" lengthAdjust="spacing" textLength="44.0439" x="173.92" y="1217.202">Pixel()</text><ellipse cx="164.92" cy="1230.1522" fill="#84BE84" rx="3" ry="3" style="stroke:#038048;stroke-width:1;"/><text fill="#000000" font-family="sans-serif" font-size="14" lengthAdjust="spacing" textLength="149.3721" x="173.92" y="1233.4989">Color devolverColor()</text></g><!--class Grafica--><g id="elem_Grafica"><rect codeLine="40" fill="#F1F1F1" height="145.7813" id="Grafica" rx="2.5" ry="2.5" style="stroke:#181818;stroke-width:0.5;" width="236.4033" x="208.4" y="353.37"/><ellipse cx="297.2125" cy="369.37" fill="#ADD1B2" rx="11" ry="11" style="stroke:#181818;stroke-width:1;"/><path d="M300.1813,375.0106 Q299.6031,375.3075 298.9625,375.4481 Q298.3219,375.6044 297.6188,375.6044 Q295.1188,375.6044 293.7906,373.9637 Q292.4781,372.3075 292.4781,369.1825 Q292.4781,366.0575 293.7906,364.4012 Q295.1188,362.745 297.6188,362.745 Q298.3219,362.745 298.9625,362.9012 Q299.6188,363.0575 300.1813,363.3544 L300.1813,366.0731 Q299.5563,365.495 298.9625,365.2294 Q298.3688,364.9481 297.7438,364.9481 Q296.4,364.9481 295.7125,366.0262 Q295.025,367.0887 295.025,369.1825 Q295.025,371.2762 295.7125,372.3544 Q296.4,373.4169 297.7438,373.4169 Q298.3688,373.4169 298.9625,373.1512 Q299.5563,372.87 300.1813,372.2919 L300.1813,375.0106 Z " fill="#000000"/><text fill="#000000" font-family="sans-serif" font-size="14" lengthAdjust="spacing" textLength="50.2783" x="317.7125" y="374.2167">Grafica</text><line style="stroke:#181818;stroke-width:0.5;" x1="209.4" x2="443.8033" y1="385.37" y2="385.37"/><rect fill="#FFFFFF" fill-opacity="0.00000" height="6" style="stroke:#C82930;stroke-width:1;" width="6" x="216.4" y="396.0184"/><text fill="#000000" font-family="sans-serif" font-size="14" lengthAdjust="spacing" textLength="177.2217" x="228.4" y="402.3651">final int memoriaKB = 16</text><rect fill="#FFFFFF" fill-opacity="0.00000" height="6" style="stroke:#C82930;stroke-width:1;" width="6" x="216.4" y="412.3153"/><text fill="#000000" font-family="sans-serif" font-size="14" lengthAdjust="spacing" textLength="145.8174" x="228.4" y="418.662">final int tasaHZ = 60</text><rect fill="#FFFFFF" fill-opacity="0.00000" height="6" style="stroke:#C82930;stroke-width:1;" width="6" x="216.4" y="428.6122"/><text fill="#000000" font-family="sans-serif" font-size="14" lengthAdjust="spacing" textLength="115.9238" x="228.4" y="434.9589">Cola colaFrames</text><line style="stroke:#181818;stroke-width:0.5;" x1="209.4" x2="443.8033" y1="442.2606" y2="442.2606"/><ellipse cx="219.4" cy="455.9091" fill="#84BE84" rx="3" ry="3" style="stroke:#038048;stroke-width:1;"/><text fill="#000000" font-family="sans-serif" font-size="14" lengthAdjust="spacing" textLength="61.2021" x="228.4" y="459.2557">Grafica()</text><ellipse cx="219.4" cy="472.2059" fill="#84BE84" rx="3" ry="3" style="stroke:#038048;stroke-width:1;"/><text fill="#000000" font-family="sans-serif" font-size="14" lengthAdjust="spacing" textLength="152.0107" x="228.4" y="475.5526">void generarFrames()</text><ellipse cx="219.4" cy="488.5028" fill="#84BE84" rx="3" ry="3" style="stroke:#038048;stroke-width:1;"/><text fill="#000000" font-family="sans-serif" font-size="14" lengthAdjust="spacing" textLength="210.4033" x="228.4" y="491.8495">Frame[] devolverDosFrames()</text></g><!--class Pantalla--><g id="elem_Pantalla"><rect codeLine="49" fill="#F1F1F1" height="162.0781" id="Pantalla" rx="2.5" ry="2.5" style="stroke:#181818;stroke-width:0.5;" width="447.2031" x="7" y="131.3"/><ellipse cx="198.1909" cy="147.3" fill="#ADD1B2" rx="11" ry="11" style="stroke:#181818;stroke-width:1;"/><path d="M201.1597,152.9406 Q200.5815,153.2375 199.9409,153.3781 Q199.3003,153.5344 198.5972,153.5344 Q196.0972,153.5344 194.769,151.8937 Q193.4565,150.2375 193.4565,147.1125 Q193.4565,143.9875 194.769,142.3312 Q196.0972,140.675 198.5972,140.675 Q199.3003,140.675 199.9409,140.8312 Q200.5972,140.9875 201.1597,141.2844 L201.1597,144.0031 Q200.5347,143.425 199.9409,143.1594 Q199.3472,142.8781 198.7222,142.8781 Q197.3784,142.8781 196.6909,143.9562 Q196.0034,145.0187 196.0034,147.1125 Q196.0034,149.2062 196.6909,150.2844 Q197.3784,151.3469 198.7222,151.3469 Q199.3472,151.3469 199.9409,151.0812 Q200.5347,150.8 201.1597,150.2219 L201.1597,152.9406 Z " fill="#000000"/><text fill="#000000" font-family="sans-serif" font-size="14" lengthAdjust="spacing" textLength="56.3213" x="218.6909" y="152.1467">Pantalla</text><line style="stroke:#181818;stroke-width:0.5;" x1="8" x2="453.2031" y1="163.3" y2="163.3"/><rect fill="#FFFFFF" fill-opacity="0.00000" height="6" style="stroke:#C82930;stroke-width:1;" width="6" x="15" y="173.9484"/><text fill="#000000" font-family="sans-serif" font-size="14" lengthAdjust="spacing" textLength="101.999" x="27" y="180.2951">Frame[] buffer</text><rect fill="#FFFFFF" fill-opacity="0.00000" height="6" style="stroke:#C82930;stroke-width:1;" width="6" x="15" y="190.2453"/><text fill="#000000" font-family="sans-serif" font-size="14" lengthAdjust="spacing" textLength="103.0449" x="27" y="196.592">Grafica grafica</text><rect fill="#FFFFFF" fill-opacity="0.00000" height="6" style="stroke:#C82930;stroke-width:1;" width="6" x="15" y="206.5422"/><text fill="#000000" font-family="sans-serif" font-size="14" lengthAdjust="spacing" textLength="234.377" x="27" y="212.8889">final char[][] tablaCombinaciones</text><line style="stroke:#181818;stroke-width:0.5;" x1="8" x2="453.2031" y1="220.1906" y2="220.1906"/><ellipse cx="18" cy="233.8391" fill="#84BE84" rx="3" ry="3" style="stroke:#038048;stroke-width:1;"/><text fill="#000000" font-family="sans-serif" font-size="14" lengthAdjust="spacing" textLength="67.2451" x="27" y="237.1857">Pantalla()</text><ellipse cx="18" cy="250.1359" fill="#84BE84" rx="3" ry="3" style="stroke:#038048;stroke-width:1;"/><text fill="#000000" font-family="sans-serif" font-size="14" lengthAdjust="spacing" textLength="100.0781" x="27" y="253.4826">void mostrar()</text><rect fill="#F24D5C" height="6" style="stroke:#C82930;stroke-width:1;" width="6" x="15" y="263.4328"/><text fill="#000000" font-family="sans-serif" font-size="14" lengthAdjust="spacing" textLength="130.1357" x="27" y="269.7795">static void pause()</text><rect fill="#F24D5C" height="6" style="stroke:#C82930;stroke-width:1;" width="6" x="15" y="279.7297"/><text fill="#000000" font-family="sans-serif" font-size="14" lengthAdjust="spacing" textLength="421.2031" x="27" y="286.0764">char mezclarColores(Color colorFrame1, Color colorFrame2)</text></g><!--class Main--><g id="elem_Main"><rect codeLine="59" fill="#F1F1F1" height="64.2969" id="Main" rx="2.5" ry="2.5" style="stroke:#181818;stroke-width:0.5;" width="236.54" x="112.33" y="7"/><ellipse cx="209.6396" cy="23" fill="#ADD1B2" rx="11" ry="11" style="stroke:#181818;stroke-width:1;"/><path d="M212.6083,28.6406 Q212.0302,28.9375 211.3896,29.0781 Q210.7489,29.2344 210.0458,29.2344 Q207.5458,29.2344 206.2177,27.5938 Q204.9052,25.9375 204.9052,22.8125 Q204.9052,19.6875 206.2177,18.0313 Q207.5458,16.375 210.0458,16.375 Q210.7489,16.375 211.3896,16.5313 Q212.0458,16.6875 212.6083,16.9844 L212.6083,19.7031 Q211.9833,19.125 211.3896,18.8594 Q210.7958,18.5781 210.1708,18.5781 Q208.8271,18.5781 208.1396,19.6563 Q207.4521,20.7188 207.4521,22.8125 Q207.4521,24.9063 208.1396,25.9844 Q208.8271,27.0469 210.1708,27.0469 Q210.7958,27.0469 211.3896,26.7813 Q211.9833,26.5 212.6083,25.9219 L212.6083,28.6406 Z " fill="#000000"/><text fill="#000000" font-family="sans-serif" font-size="14" lengthAdjust="spacing" textLength="33.4209" x="230.1396" y="27.8467">Main</text><line style="stroke:#181818;stroke-width:0.5;" x1="113.33" x2="347.87" y1="39" y2="39"/><line style="stroke:#181818;stroke-width:0.5;" x1="113.33" x2="347.87" y1="47" y2="47"/><ellipse cx="123.33" cy="60.6484" fill="#84BE84" rx="3" ry="3" style="stroke:#038048;stroke-width:1;"/><text fill="#000000" font-family="sans-serif" font-size="14" lengthAdjust="spacing" textLength="210.54" x="132.33" y="63.9951">static void main(String[] args)</text></g><!--reverse link Cola to NodoFrame--><g id="link_Cola_NodoFrame"><path codeLine="63" d="M334.5603,749.8249 C335.1503,770.0249 335.42,778.94 335.96,797.31 " fill="#FFFFFF" fill-opacity="0.00000" id="Cola-backto-NodoFrame" style="stroke:#181818;stroke-width:1;"/><polygon fill="#181818" points="334.21,737.83,330.3869,743.9442,334.5603,749.8249,338.3835,743.7107,334.21,737.83" style="stroke:#181818;stroke-width:1;"/><text fill="#000000" font-family="sans-serif" font-size="13" lengthAdjust="spacing" textLength="8.271" x="326.1101" y="757.6313">1</text><text fill="#000000" font-family="sans-serif" font-size="13" lengthAdjust="spacing" textLength="6.5" x="329.4249" y="786.5467">*</text></g><!--link NodoFrame to Frame--><g id="link_NodoFrame_Frame"><path codeLine="64" d="M306.17,911.18 C295.5,930.19 292.4074,935.7219 281.7474,954.7219 " fill="#FFFFFF" fill-opacity="0.00000" id="NodoFrame-to-Frame" style="stroke:#181818;stroke-width:1;"/><polygon fill="#FFFFFF" fill-opacity="0.00000" points="272.94,970.42,286.9801,957.6578,276.5148,951.7861,272.94,970.42" style="stroke:#181818;stroke-width:1;"/></g><!--reverse link Frame to Pixel--><g id="link_Frame_Pixel"><path codeLine="65" d="M241.6,1095.96 C241.6,1115.34 241.6,1124.88 241.6,1143.56 " fill="#FFFFFF" fill-opacity="0.00000" id="Frame-backto-Pixel" style="stroke:#181818;stroke-width:1;"/><polygon fill="#181818" points="241.6,1083.96,237.6,1089.96,241.6,1095.96,245.6,1089.96,241.6,1083.96" style="stroke:#181818;stroke-width:1;"/><text fill="#000000" font-family="sans-serif" font-size="13" lengthAdjust="spacing" textLength="6.5" x="235.2646" y="1103.8528">*</text><text fill="#000000" font-family="sans-serif" font-size="13" lengthAdjust="spacing" textLength="6.5" x="235.2124" y="1132.7197">*</text></g><!--reverse link Pixel to Color--><g id="link_Pixel_Color"><path codeLine="66" d="M241.6,1253.04 C241.6,1271.44 241.6,1280.77 241.6,1300.47 " fill="#FFFFFF" fill-opacity="0.00000" id="Pixel-backto-Color" style="stroke:#181818;stroke-width:1;"/><polygon fill="#181818" points="241.6,1241.04,237.6,1247.04,241.6,1253.04,245.6,1247.04,241.6,1241.04" style="stroke:#181818;stroke-width:1;"/><text fill="#000000" font-family="sans-serif" font-size="13" lengthAdjust="spacing" textLength="8.271" x="233.0557" y="1261.0172">1</text><text fill="#000000" font-family="sans-serif" font-size="13" lengthAdjust="spacing" textLength="8.271" x="233.1771" y="1289.6066">1</text></g><!--reverse link Grafica to Cola--><g id="link_Grafica_Cola"><path codeLine="67" d="M328.5227,511.6269 C328.9527,530.5469 329.14,539.16 329.59,558.81 " fill="#FFFFFF" fill-opacity="0.00000" id="Grafica-backto-Cola" style="stroke:#181818;stroke-width:1;"/><polygon fill="#181818" points="328.25,499.63,324.3874,505.7193,328.5227,511.6269,332.3853,505.5376,328.25,499.63" style="stroke:#181818;stroke-width:1;"/><text fill="#000000" font-family="sans-serif" font-size="13" lengthAdjust="spacing" textLength="8.271" x="320.0457" y="519.1582">1</text><text fill="#000000" font-family="sans-serif" font-size="13" lengthAdjust="spacing" textLength="8.271" x="321.122" y="548.1503">1</text></g><!--reverse link Pantalla to Grafica--><g id="link_Pantalla_Grafica"><path codeLine="68" d="M271.9833,304.69 C280.7933,324.13 285.19,333.85 293.82,352.9 " fill="#FFFFFF" fill-opacity="0.00000" id="Pantalla-backto-Grafica" style="stroke:#181818;stroke-width:1;"/><polygon fill="#181818" points="267.03,293.76,265.8633,300.8761,271.9833,304.69,273.15,297.5739,267.03,293.76" style="stroke:#181818;stroke-width:1;"/><text fill="#000000" font-family="sans-serif" font-size="13" lengthAdjust="spacing" textLength="8.271" x="261.8285" y="313.4742">1</text><text fill="#000000" font-family="sans-serif" font-size="13" lengthAdjust="spacing" textLength="8.271" x="282.3272" y="342.2662">1</text></g><!--reverse link Pantalla to Frame--><g id="link_Pantalla_Frame"><path codeLine="69" d="M200.6555,305.2014 C195.2755,324.5514 193.57,333.75 190.6,353.37 C153.49,598.33 121.04,670.24 180.6,910.72 C185.67,931.2 195.11,952.06 205.07,970.31 " fill="#FFFFFF" fill-opacity="0.00000" id="Pantalla-backto-Frame" style="stroke:#181818;stroke-width:1;"/><polygon fill="#181818" points="203.87,293.64,198.4089,298.3492,200.6555,305.2014,206.1166,300.4922,203.87,293.64" style="stroke:#181818;stroke-width:1;"/><text fill="#000000" font-family="sans-serif" font-size="13" lengthAdjust="spacing" textLength="8.271" x="193.2407" y="313.3439">1</text><text fill="#000000" font-family="sans-serif" font-size="13" lengthAdjust="spacing" textLength="8.271" x="192.1467" y="959.5236">2</text></g><!--reverse link Main to Pantalla--><g id="link_Main_Pantalla"><path codeLine="70" d="M230.6,83.55 C230.6,100.34 230.6,109.87 230.6,130.96 " fill="#FFFFFF" fill-opacity="0.00000" id="Main-backto-Pantalla" style="stroke:#181818;stroke-width:1;"/><polygon fill="#181818" points="230.6,71.55,226.6,77.55,230.6,83.55,234.6,77.55,230.6,71.55" style="stroke:#181818;stroke-width:1;"/><text fill="#000000" font-family="sans-serif" font-size="13" lengthAdjust="spacing" textLength="8.271" x="221.8392" y="91.4856">1</text><text fill="#000000" font-family="sans-serif" font-size="13" lengthAdjust="spacing" textLength="8.271" x="222.2557" y="120.117">1</text></g><!--SRC=[RLFBRjim4BphAmYTqgG2wXnoQmz9aHOeMXWDq4E37DRoMY7AXqjIHj77H_KR-cDTaUAIiksBv9tPdTc7UWNUYpkhGFng1FqwySbkxRq3ZMBlf4PdJ-AZ2bBdi3H11D3mxs-ANCLg5o_cFmShjmBDzn57v60iy_WajdW-laVyDWSxiR5M8HWH91fyQtqaUOB_D4qVxHTdfpruEOoK672MO8H52tV0y93fomPyZPG4Gs-LZwM7jVo1wl5fQcTwGrytkIplK2aquDQ9o60fiSM3LGUi6AnAuxQELVjdS5Hlxz2JMUYbDTMY3a3SiYRhM2hcPPNFYtpcJ1KovGkaRBOHdR6DPAgtHIxYN2hXkLYsmiNUETZ9ljpaJXfGKL-Zjax2XrlnMgnkJk007jv_9UpcLN42an58TpFhpmBBDGnqO0uS7zZniIQpPqzm3JGiLNr5EMipxdRevc1kQqZFXVjf0N7L0JOAxgpUK7WQFtlE6alJslf0flbpyG62x1EsXz4Z8t756d-IupHnQg7QKtIyUYcEGzTLcnz1chd5guMI9k3Y8JXf1ce1tE1ZLXn-ksh5PTU9zh8j7rjJlgAk-_qcpQj9WOcO4-BPDEcuk10zeyic3_G8WORtKICp-mnutSu6OeDrJkR-1m00]--></g></svg>