<svg xmlns="http://www.w3.org/2000/svg" xmlns:xlink="http://www.w3.org/1999/xlink" contentStyleType="text/css" data-diagram-type="CLASS" height="489px" preserveAspectRatio="none" style="width:406px;height:489px;background:#FFFFFF;" version="1.1" viewBox="0 0 406 489" width="406px" zoomAndPan="magnify"><defs/><g><!--class Pixel--><g id="elem_Pixel"><rect codeLine="1" fill="#F1F1F1" height="96.8906" id="Pixel" rx="2.5" ry="2.5" style="stroke:#181818;stroke-width:0.5;" width="174.3057" x="116.05" y="385.97"/><ellipse cx="182.3928" cy="401.97" fill="#ADD1B2" rx="11" ry="11" style="stroke:#181818;stroke-width:1;"/><path d="M185.3615,407.6106 Q184.7834,407.9075 184.1428,408.0481 Q183.5021,408.2044 182.799,408.2044 Q180.299,408.2044 178.9709,406.5638 Q177.6584,404.9075 177.6584,401.7825 Q177.6584,398.6575 178.9709,397.0013 Q180.299,395.345 182.799,395.345 Q183.5021,395.345 184.1428,395.5013 Q184.799,395.6575 185.3615,395.9544 L185.3615,398.6731 Q184.7365,398.095 184.1428,397.8294 Q183.549,397.5481 182.924,397.5481 Q181.5803,397.5481 180.8928,398.6263 Q180.2053,399.6888 180.2053,401.7825 Q180.2053,403.8763 180.8928,404.9544 Q181.5803,406.0169 182.924,406.0169 Q183.549,406.0169 184.1428,405.7513 Q184.7365,405.47 185.3615,404.8919 L185.3615,407.6106 Z " fill="#000000"/><text fill="#000000" font-family="sans-serif" font-size="14" lengthAdjust="spacing" textLength="33.1201" x="202.8928" y="406.8167">Pixel</text><line style="stroke:#181818;stroke-width:0.5;" x1="117.05" x2="289.3557" y1="417.97" y2="417.97"/><text fill="#000000" font-family="sans-serif" font-size="14" lengthAdjust="spacing" textLength="58.9395" x="122.05" y="434.9651">int dato;</text><line style="stroke:#181818;stroke-width:0.5;" x1="117.05" x2="289.3557" y1="442.2669" y2="442.2669"/><text fill="#000000" font-family="sans-serif" font-size="14" lengthAdjust="spacing" textLength="135.167" x="122.05" y="459.262">int obetenerDato();</text><text fill="#000000" font-family="sans-serif" font-size="14" lengthAdjust="spacing" textLength="162.3057" x="122.05" y="475.5589">void setDato(int valor);</text></g><!--class Examen--><g id="elem_Examen"><rect codeLine="7" fill="#F1F1F1" height="113.1875" id="Examen" rx="2.5" ry="2.5" style="stroke:#181818;stroke-width:0.5;" width="318.708" x="43.85" y="212.78"/><ellipse cx="170.537" cy="228.78" fill="#ADD1B2" rx="11" ry="11" style="stroke:#181818;stroke-width:1;"/><path d="M173.5058,234.4206 Q172.9276,234.7175 172.287,234.8581 Q171.6464,235.0144 170.9433,235.0144 Q168.4433,235.0144 167.1151,233.3738 Q165.8026,231.7175 165.8026,228.5925 Q165.8026,225.4675 167.1151,223.8113 Q168.4433,222.155 170.9433,222.155 Q171.6464,222.155 172.287,222.3113 Q172.9433,222.4675 173.5058,222.7644 L173.5058,225.4831 Q172.8808,224.905 172.287,224.6394 Q171.6933,224.3581 171.0683,224.3581 Q169.7245,224.3581 169.037,225.4363 Q168.3495,226.4988 168.3495,228.5925 Q168.3495,230.6863 169.037,231.7644 Q169.7245,232.8269 171.0683,232.8269 Q171.6933,232.8269 172.287,232.5613 Q172.8808,232.28 173.5058,231.7019 L173.5058,234.4206 Z " fill="#000000"/><text fill="#000000" font-family="sans-serif" font-size="14" lengthAdjust="spacing" textLength="56.834" x="191.037" y="233.6267">Examen</text><line style="stroke:#181818;stroke-width:0.5;" x1="44.85" x2="361.558" y1="244.78" y2="244.78"/><text fill="#000000" font-family="sans-serif" font-size="14" lengthAdjust="spacing" textLength="94.7256" x="49.85" y="261.7751">Pixel[] frame;</text><line style="stroke:#181818;stroke-width:0.5;" x1="44.85" x2="361.558" y1="269.0769" y2="269.0769"/><text fill="#000000" font-family="sans-serif" font-size="14" lengthAdjust="spacing" textLength="306.708" x="49.85" y="286.072">void modificarPixel(int pos, int vuevoValor);</text><text fill="#000000" font-family="sans-serif" font-size="14" lengthAdjust="spacing" textLength="175.7793" x="49.85" y="302.3689">void traducir(Pixel pixel);</text><text fill="#000000" font-family="sans-serif" font-size="14" lengthAdjust="spacing" textLength="109.0605" x="49.85" y="318.6657">void imprimir();</text></g><!--class Pantalla--><g id="elem_Pantalla"><rect codeLine="14" fill="#F1F1F1" height="145.7813" id="Pantalla" rx="2.5" ry="2.5" style="stroke:#181818;stroke-width:0.5;" width="392.4131" x="7" y="7"/><ellipse cx="170.7959" cy="23" fill="#ADD1B2" rx="11" ry="11" style="stroke:#181818;stroke-width:1;"/><path d="M173.7646,28.6406 Q173.1865,28.9375 172.5459,29.0781 Q171.9053,29.2344 171.2021,29.2344 Q168.7021,29.2344 167.374,27.5938 Q166.0615,25.9375 166.0615,22.8125 Q166.0615,19.6875 167.374,18.0313 Q168.7021,16.375 171.2021,16.375 Q171.9053,16.375 172.5459,16.5313 Q173.2021,16.6875 173.7646,16.9844 L173.7646,19.7031 Q173.1396,19.125 172.5459,18.8594 Q171.9521,18.5781 171.3271,18.5781 Q169.9834,18.5781 169.2959,19.6563 Q168.6084,20.7188 168.6084,22.8125 Q168.6084,24.9063 169.2959,25.9844 Q169.9834,27.0469 171.3271,27.0469 Q171.9521,27.0469 172.5459,26.7813 Q173.1396,26.5 173.7646,25.9219 L173.7646,28.6406 Z " fill="#000000"/><text fill="#000000" font-family="sans-serif" font-size="14" lengthAdjust="spacing" textLength="56.3213" x="191.2959" y="27.8467">Pantalla</text><line style="stroke:#181818;stroke-width:0.5;" x1="8" x2="398.4131" y1="39" y2="39"/><text fill="#000000" font-family="sans-serif" font-size="14" lengthAdjust="spacing" textLength="82.585" x="13" y="55.9951">int revision;</text><text fill="#000000" font-family="sans-serif" font-size="14" lengthAdjust="spacing" textLength="122.8213" x="13" y="72.292">frame [] pantalla;</text><line style="stroke:#181818;stroke-width:0.5;" x1="8" x2="398.4131" y1="79.5938" y2="79.5938"/><text fill="#000000" font-family="sans-serif" font-size="14" lengthAdjust="spacing" textLength="161.3213" x="13" y="96.5889">frame generarFrame();</text><text fill="#000000" font-family="sans-serif" font-size="14" lengthAdjust="spacing" textLength="278.7969" x="13" y="112.8857">void addFrame(generarFrame(int pos));</text><text fill="#000000" font-family="sans-serif" font-size="14" lengthAdjust="spacing" textLength="229.7969" x="13" y="129.1826">void mostrarFrame(int posicion);</text><text fill="#000000" font-family="sans-serif" font-size="14" lengthAdjust="spacing" textLength="380.4131" x="13" y="145.4795">void modificarPixel(int frame, int pos, int nuevoValor);</text></g><!--link Pantalla to Examen--><g id="link_Pantalla_Examen"><path codeLine="23" d="M203.21,153.11 C203.21,172.81 203.21,187.86 203.21,206.5 " fill="#FFFFFF" fill-opacity="0.00000" id="Pantalla-to-Examen" style="stroke:#181818;stroke-width:1;"/><polygon fill="#181818" points="203.21,212.5,207.21,203.5,203.21,207.5,199.21,203.5,203.21,212.5" style="stroke:#181818;stroke-width:1;"/></g><!--link Examen to Pixel--><g id="link_Examen_Pixel"><path codeLine="24" d="M203.21,326.03 C203.21,345.4 203.21,360.95 203.21,379.62 " fill="#FFFFFF" fill-opacity="0.00000" id="Examen-to-Pixel" style="stroke:#181818;stroke-width:1;"/><polygon fill="#181818" points="203.21,385.62,207.21,376.62,203.21,380.62,199.21,376.62,203.21,385.62" style="stroke:#181818;stroke-width:1;"/></g><!--SRC=[TP312i8m38RlVOeU7UWJ33ofPqzUn4DiEmbqxKZh4CHtDysweOANqlv_-YTVZ8UKz14Vpkkdmf2rXHnRkSMhoouush6oQberHhGwkIplKZ22ZyJ6IoaZEVi7z2vma0IUBxeZ5khFFbhiq029AG53J6ijINStnbEDa-fCOEy6QJNDDfHpzh0V27lsME3cK-yZX0pUGyKWDsB265ebCsWUPgWLitGhS427ybZumDf9-7Bhi4spiAJyQwBXTir_M6awuIxSuPERrxX0R3RRkarLbreK2Ni3]--></g></svg>