<svg xmlns="http://www.w3.org/2000/svg" xmlns:xlink="http://www.w3.org/1999/xlink" contentStyleType="text/css" data-diagram-type="CLASS" height="473px" preserveAspectRatio="none" style="width:332px;height:473px;background:#FFFFFF;" version="1.1" viewBox="0 0 332 473" width="332px" zoomAndPan="magnify"><defs/><g><!--class Pantalla--><g id="elem_Pantalla"><rect codeLine="1" fill="#F1F1F1" height="145.7813" id="Pantalla" rx="2.5" ry="2.5" style="stroke:#181818;stroke-width:0.5;" width="299.6973" x="16.51" y="7"/><ellipse cx="133.948" cy="23" fill="#ADD1B2" rx="11" ry="11" style="stroke:#181818;stroke-width:1;"/><path d="M136.9167,28.6406 Q136.3386,28.9375 135.698,29.0781 Q135.0574,29.2344 134.3542,29.2344 Q131.8542,29.2344 130.5261,27.5938 Q129.2136,25.9375 129.2136,22.8125 Q129.2136,19.6875 130.5261,18.0313 Q131.8542,16.375 134.3542,16.375 Q135.0574,16.375 135.698,16.5313 Q136.3542,16.6875 136.9167,16.9844 L136.9167,19.7031 Q136.2917,19.125 135.698,18.8594 Q135.1042,18.5781 134.4792,18.5781 Q133.1355,18.5781 132.448,19.6563 Q131.7605,20.7188 131.7605,22.8125 Q131.7605,24.9063 132.448,25.9844 Q133.1355,27.0469 134.4792,27.0469 Q135.1042,27.0469 135.698,26.7813 Q136.2917,26.5 136.9167,25.9219 L136.9167,28.6406 Z " fill="#000000"/><text fill="#000000" font-family="sans-serif" font-size="14" lengthAdjust="spacing" textLength="56.3213" x="154.448" y="27.8467">Pantalla</text><line style="stroke:#181818;stroke-width:0.5;" x1="17.51" x2="315.2073" y1="39" y2="39"/><text fill="#000000" font-family="sans-serif" font-size="14" lengthAdjust="spacing" textLength="85.0801" x="22.51" y="55.9951">int posicion;</text><text fill="#000000" font-family="sans-serif" font-size="14" lengthAdjust="spacing" textLength="122.8213" x="22.51" y="72.292">frame [] pantalla;</text><line style="stroke:#181818;stroke-width:0.5;" x1="17.51" x2="315.2073" y1="79.5938" y2="79.5938"/><text fill="#000000" font-family="sans-serif" font-size="14" lengthAdjust="spacing" textLength="161.3213" x="22.51" y="96.5889">frame generarFrame();</text><text fill="#000000" font-family="sans-serif" font-size="14" lengthAdjust="spacing" textLength="287.6973" x="22.51" y="112.8857">void addFrame(generarFrame(), int pos);</text><text fill="#000000" font-family="sans-serif" font-size="14" lengthAdjust="spacing" textLength="174.9111" x="22.51" y="129.1826">void imprimir(traducir());</text><text fill="#000000" font-family="sans-serif" font-size="14" lengthAdjust="spacing" textLength="281.75" x="22.51" y="145.4795">Frame traducir(pantalla(0), pantalla(1));</text></g><!--class Frame--><g id="elem_Frame"><rect codeLine="10" fill="#F1F1F1" height="96.8906" id="Frame" rx="2.5" ry="2.5" style="stroke:#181818;stroke-width:0.5;" width="318.708" x="7" y="212.78"/><ellipse cx="139.7847" cy="228.78" fill="#ADD1B2" rx="11" ry="11" style="stroke:#181818;stroke-width:1;"/><path d="M142.7534,234.4206 Q142.1753,234.7175 141.5347,234.8581 Q140.894,235.0144 140.1909,235.0144 Q137.6909,235.0144 136.3628,233.3738 Q135.0503,231.7175 135.0503,228.5925 Q135.0503,225.4675 136.3628,223.8113 Q137.6909,222.155 140.1909,222.155 Q140.894,222.155 141.5347,222.3113 Q142.1909,222.4675 142.7534,222.7644 L142.7534,225.4831 Q142.1284,224.905 141.5347,224.6394 Q140.9409,224.3581 140.3159,224.3581 Q138.9722,224.3581 138.2847,225.4363 Q137.5972,226.4988 137.5972,228.5925 Q137.5972,230.6863 138.2847,231.7644 Q138.9722,232.8269 140.3159,232.8269 Q140.9409,232.8269 141.5347,232.5613 Q142.1284,232.28 142.7534,231.7019 L142.7534,234.4206 Z " fill="#000000"/><text fill="#000000" font-family="sans-serif" font-size="14" lengthAdjust="spacing" textLength="44.6387" x="160.2847" y="233.6267">Frame</text><line style="stroke:#181818;stroke-width:0.5;" x1="8" x2="324.708" y1="244.78" y2="244.78"/><text fill="#000000" font-family="sans-serif" font-size="14" lengthAdjust="spacing" textLength="94.7256" x="13" y="261.7751">Pixel[] frame;</text><text fill="#000000" font-family="sans-serif" font-size="14" lengthAdjust="spacing" textLength="148.1963" x="13" y="278.072">Pixel[]obtenerFrame;</text><line style="stroke:#181818;stroke-width:0.5;" x1="8" x2="324.708" y1="285.3738" y2="285.3738"/><text fill="#000000" font-family="sans-serif" font-size="14" lengthAdjust="spacing" textLength="306.708" x="13" y="302.3689">void modificarPixel(int pos, int vuevoValor);</text></g><!--class Pixel--><g id="elem_Pixel"><rect codeLine="17" fill="#F1F1F1" height="96.8906" id="Pixel" rx="2.5" ry="2.5" style="stroke:#181818;stroke-width:0.5;" width="174.3057" x="79.2" y="369.67"/><ellipse cx="145.5428" cy="385.67" fill="#ADD1B2" rx="11" ry="11" style="stroke:#181818;stroke-width:1;"/><path d="M148.5115,391.3106 Q147.9334,391.6075 147.2928,391.7481 Q146.6521,391.9044 145.949,391.9044 Q143.449,391.9044 142.1209,390.2638 Q140.8084,388.6075 140.8084,385.4825 Q140.8084,382.3575 142.1209,380.7013 Q143.449,379.045 145.949,379.045 Q146.6521,379.045 147.2928,379.2013 Q147.949,379.3575 148.5115,379.6544 L148.5115,382.3731 Q147.8865,381.795 147.2928,381.5294 Q146.699,381.2481 146.074,381.2481 Q144.7303,381.2481 144.0428,382.3263 Q143.3553,383.3888 143.3553,385.4825 Q143.3553,387.5763 144.0428,388.6544 Q144.7303,389.7169 146.074,389.7169 Q146.699,389.7169 147.2928,389.4513 Q147.8865,389.17 148.5115,388.5919 L148.5115,391.3106 Z " fill="#000000"/><text fill="#000000" font-family="sans-serif" font-size="14" lengthAdjust="spacing" textLength="33.1201" x="166.0428" y="390.5167">Pixel</text><line style="stroke:#181818;stroke-width:0.5;" x1="80.2" x2="252.5057" y1="401.67" y2="401.67"/><text fill="#000000" font-family="sans-serif" font-size="14" lengthAdjust="spacing" textLength="58.9395" x="85.2" y="418.6651">int dato;</text><line style="stroke:#181818;stroke-width:0.5;" x1="80.2" x2="252.5057" y1="425.9669" y2="425.9669"/><text fill="#000000" font-family="sans-serif" font-size="14" lengthAdjust="spacing" textLength="135.167" x="85.2" y="442.962">int obetenerDato();</text><text fill="#000000" font-family="sans-serif" font-size="14" lengthAdjust="spacing" textLength="162.3057" x="85.2" y="459.2589">void setDato(int valor);</text></g><!--link Pantalla to Frame--><g id="link_Pantalla_Frame"><path codeLine="26" d="M166.35,153.06 C166.35,173.01 166.35,188.16 166.35,206.36 " fill="#FFFFFF" fill-opacity="0.00000" id="Pantalla-to-Frame" style="stroke:#181818;stroke-width:1;"/><polygon fill="#181818" points="166.35,212.36,170.35,203.36,166.35,207.36,162.35,203.36,166.35,212.36" style="stroke:#181818;stroke-width:1;"/></g><!--link Frame to Pixel--><g id="link_Frame_Pixel"><path codeLine="27" d="M166.35,309.96 C166.35,328.8 166.35,344.41 166.35,363.27 " fill="#FFFFFF" fill-opacity="0.00000" id="Frame-to-Pixel" style="stroke:#181818;stroke-width:1;"/><polygon fill="#181818" points="166.35,369.27,170.35,360.27,166.35,364.27,162.35,360.27,166.35,369.27" style="stroke:#181818;stroke-width:1;"/></g><!--SRC=[LL312eCm3BttAtfKcB2TXPs6Pq-xZ1rYMqUW6gbL1h9_NvjMntfANbxVUucoCC-oXT63jI0tWQEN4yseaCPQz0u68nzFEMN63htCQ1ou9ZP5MOkLK4lGEW7_qvFCeZiFXydXWAxm3lIYGb664RFb0UsEnJa87CqbCZz2ACwTlcoYnRUn8ILdooO3QUnHWUDXaIEaBEjYLhg39HVKycVgV4pT98cV1u_pOJHughcYpZ3z5f1Z_zbuxjaYgmUTy8u3LzKrfSxhnfuTlW00]--></g></svg>