<svg xmlns="http://www.w3.org/2000/svg" xmlns:xlink="http://www.w3.org/1999/xlink" contentStyleType="text/css" data-diagram-type="CLASS" height="1110px" preserveAspectRatio="none" style="width:436px;height:1110px;background:#FFFFFF;" version="1.1" viewBox="0 0 436 1110" width="436px" zoomAndPan="magnify"><defs/><g><!--class Pixel--><g id="elem_Pixel"><rect codeLine="1" fill="#F1F1F1" height="129.4844" id="Pixel" rx="2.5" ry="2.5" style="stroke:#181818;stroke-width:0.5;" width="152.0479" x="29.26" y="974.24"/><ellipse cx="84.4739" cy="990.24" fill="#ADD1B2" rx="11" ry="11" style="stroke:#181818;stroke-width:1;"/><path d="M87.4426,995.8806 Q86.8645,996.1775 86.2239,996.3181 Q85.5832,996.4744 84.8801,996.4744 Q82.3801,996.4744 81.052,994.8338 Q79.7395,993.1775 79.7395,990.0525 Q79.7395,986.9275 81.052,985.2713 Q82.3801,983.615 84.8801,983.615 Q85.5832,983.615 86.2239,983.7713 Q86.8801,983.9275 87.4426,984.2244 L87.4426,986.9431 Q86.8176,986.365 86.2239,986.0994 Q85.6301,985.8181 85.0051,985.8181 Q83.6614,985.8181 82.9739,986.8963 Q82.2864,987.9588 82.2864,990.0525 Q82.2864,992.1463 82.9739,993.2244 Q83.6614,994.2869 85.0051,994.2869 Q85.6301,994.2869 86.2239,994.0213 Q86.8176,993.74 87.4426,993.1619 L87.4426,995.8806 Z " fill="#000000"/><text fill="#000000" font-family="sans-serif" font-size="14" lengthAdjust="spacing" textLength="33.1201" x="104.9739" y="995.0867">Pixel</text><line style="stroke:#181818;stroke-width:0.5;" x1="30.26" x2="180.3079" y1="1006.24" y2="1006.24"/><rect fill="#FFFFFF" fill-opacity="0.00000" height="6" style="stroke:#C82930;stroke-width:1;" width="6" x="37.26" y="1016.8884"/><text fill="#000000" font-family="sans-serif" font-size="14" lengthAdjust="spacing" textLength="30.9873" x="49.26" y="1023.2351">int x</text><rect fill="#FFFFFF" fill-opacity="0.00000" height="6" style="stroke:#C82930;stroke-width:1;" width="6" x="37.26" y="1033.1853"/><text fill="#000000" font-family="sans-serif" font-size="14" lengthAdjust="spacing" textLength="30.9873" x="49.26" y="1039.532">int y</text><rect fill="#FFFFFF" fill-opacity="0.00000" height="6" style="stroke:#C82930;stroke-width:1;" width="6" x="37.26" y="1049.4822"/><text fill="#000000" font-family="sans-serif" font-size="14" lengthAdjust="spacing" textLength="57.1758" x="49.26" y="1055.8289">int color</text><line style="stroke:#181818;stroke-width:0.5;" x1="30.26" x2="180.3079" y1="1063.1306" y2="1063.1306"/><ellipse cx="40.26" cy="1076.7791" fill="#84BE84" rx="3" ry="3" style="stroke:#038048;stroke-width:1;"/><text fill="#000000" font-family="sans-serif" font-size="14" lengthAdjust="spacing" textLength="126.0479" x="49.26" y="1080.1257">setColor(int color)</text><ellipse cx="40.26" cy="1093.0759" fill="#84BE84" rx="3" ry="3" style="stroke:#038048;stroke-width:1;"/><text fill="#000000" font-family="sans-serif" font-size="14" lengthAdjust="spacing" textLength="97.8838" x="49.26" y="1096.4226">getColor(): int</text></g><!--class Frame--><g id="elem_Frame"><rect codeLine="9" fill="#F1F1F1" height="96.8906" id="Frame" rx="2.5" ry="2.5" style="stroke:#181818;stroke-width:0.5;" width="196.5703" x="7" y="800.35"/><ellipse cx="78.7158" cy="816.35" fill="#ADD1B2" rx="11" ry="11" style="stroke:#181818;stroke-width:1;"/><path d="M81.6846,821.9906 Q81.1064,822.2875 80.4658,822.4281 Q79.8252,822.5844 79.1221,822.5844 Q76.6221,822.5844 75.2939,820.9438 Q73.9814,819.2875 73.9814,816.1625 Q73.9814,813.0375 75.2939,811.3813 Q76.6221,809.725 79.1221,809.725 Q79.8252,809.725 80.4658,809.8813 Q81.1221,810.0375 81.6846,810.3344 L81.6846,813.0531 Q81.0596,812.475 80.4658,812.2094 Q79.8721,811.9281 79.2471,811.9281 Q77.9033,811.9281 77.2158,813.0063 Q76.5283,814.0688 76.5283,816.1625 Q76.5283,818.2563 77.2158,819.3344 Q77.9033,820.3969 79.2471,820.3969 Q79.8721,820.3969 80.4658,820.1313 Q81.0596,819.85 81.6846,819.2719 L81.6846,821.9906 Z " fill="#000000"/><text fill="#000000" font-family="sans-serif" font-size="14" lengthAdjust="spacing" textLength="44.6387" x="99.2158" y="821.1967">Frame</text><line style="stroke:#181818;stroke-width:0.5;" x1="8" x2="202.5703" y1="832.35" y2="832.35"/><rect fill="#FFFFFF" fill-opacity="0.00000" height="6" style="stroke:#C82930;stroke-width:1;" width="6" x="15" y="842.9984"/><text fill="#000000" font-family="sans-serif" font-size="14" lengthAdjust="spacing" textLength="126.3623" x="27" y="849.3451">List&lt;Pixel&gt; pixels</text><line style="stroke:#181818;stroke-width:0.5;" x1="8" x2="202.5703" y1="856.6469" y2="856.6469"/><ellipse cx="18" cy="870.2953" fill="#84BE84" rx="3" ry="3" style="stroke:#038048;stroke-width:1;"/><text fill="#000000" font-family="sans-serif" font-size="14" lengthAdjust="spacing" textLength="170.5703" x="27" y="873.642">getPixel(int index): Pixel</text><ellipse cx="18" cy="886.5922" fill="#84BE84" rx="3" ry="3" style="stroke:#038048;stroke-width:1;"/><text fill="#000000" font-family="sans-serif" font-size="14" lengthAdjust="spacing" textLength="90.0977" x="27" y="889.9389">clearFrame()</text></g><!--class Buffer--><g id="elem_Buffer"><rect codeLine="15" fill="#F1F1F1" height="162.0781" id="Buffer" rx="2.5" ry="2.5" style="stroke:#181818;stroke-width:0.5;" width="136.4482" x="128.06" y="561.27"/><ellipse cx="170.8449" cy="577.27" fill="#ADD1B2" rx="11" ry="11" style="stroke:#181818;stroke-width:1;"/><path d="M173.8136,582.9106 Q173.2355,583.2075 172.5949,583.3481 Q171.9542,583.5044 171.2511,583.5044 Q168.7511,583.5044 167.423,581.8638 Q166.1105,580.2075 166.1105,577.0825 Q166.1105,573.9575 167.423,572.3013 Q168.7511,570.645 171.2511,570.645 Q171.9542,570.645 172.5949,570.8013 Q173.2511,570.9575 173.8136,571.2544 L173.8136,573.9731 Q173.1886,573.395 172.5949,573.1294 Q172.0011,572.8481 171.3761,572.8481 Q170.0324,572.8481 169.3449,573.9263 Q168.6574,574.9888 168.6574,577.0825 Q168.6574,579.1763 169.3449,580.2544 Q170.0324,581.3169 171.3761,581.3169 Q172.0011,581.3169 172.5949,581.0513 Q173.1886,580.77 173.8136,580.1919 L173.8136,582.9106 Z " fill="#000000"/><text fill="#000000" font-family="sans-serif" font-size="14" lengthAdjust="spacing" textLength="42.7041" x="191.0193" y="582.1167">Buffer</text><line style="stroke:#181818;stroke-width:0.5;" x1="129.06" x2="263.5082" y1="593.27" y2="593.27"/><rect fill="#FFFFFF" fill-opacity="0.00000" height="6" style="stroke:#C82930;stroke-width:1;" width="6" x="136.06" y="603.9184"/><text fill="#000000" font-family="sans-serif" font-size="14" lengthAdjust="spacing" textLength="99.5107" x="148.06" y="610.2651">Frame frame1</text><rect fill="#FFFFFF" fill-opacity="0.00000" height="6" style="stroke:#C82930;stroke-width:1;" width="6" x="136.06" y="620.2153"/><text fill="#000000" font-family="sans-serif" font-size="14" lengthAdjust="spacing" textLength="99.5107" x="148.06" y="626.562">Frame frame2</text><rect fill="#FFFFFF" fill-opacity="0.00000" height="6" style="stroke:#C82930;stroke-width:1;" width="6" x="136.06" y="636.5122"/><text fill="#000000" font-family="sans-serif" font-size="14" lengthAdjust="spacing" textLength="110.4482" x="148.06" y="642.8589">int actualFrame</text><line style="stroke:#181818;stroke-width:0.5;" x1="129.06" x2="263.5082" y1="650.1606" y2="650.1606"/><ellipse cx="139.06" cy="663.8091" fill="#84BE84" rx="3" ry="3" style="stroke:#038048;stroke-width:1;"/><text fill="#000000" font-family="sans-serif" font-size="14" lengthAdjust="spacing" textLength="43.5313" x="148.06" y="667.1557">start()</text><ellipse cx="139.06" cy="680.1059" fill="#84BE84" rx="3" ry="3" style="stroke:#038048;stroke-width:1;"/><text fill="#000000" font-family="sans-serif" font-size="14" lengthAdjust="spacing" textLength="41.1592" x="148.06" y="683.4526">stop()</text><ellipse cx="139.06" cy="696.4028" fill="#84BE84" rx="3" ry="3" style="stroke:#038048;stroke-width:1;"/><text fill="#000000" font-family="sans-serif" font-size="14" lengthAdjust="spacing" textLength="100.2559" x="148.06" y="699.7495">switchFrame()</text><ellipse cx="139.06" cy="712.6997" fill="#84BE84" rx="3" ry="3" style="stroke:#038048;stroke-width:1;"/><text fill="#000000" font-family="sans-serif" font-size="14" lengthAdjust="spacing" textLength="99.8936" x="148.06" y="716.0464">toggleFrame()</text></g><!--class Manager--><g id="elem_Manager"><rect codeLine="26" fill="#F1F1F1" height="80.5938" id="Manager" rx="2.5" ry="2.5" style="stroke:#181818;stroke-width:0.5;" width="190.5068" x="239.03" y="808.49"/><ellipse cx="299.3503" cy="824.49" fill="#ADD1B2" rx="11" ry="11" style="stroke:#181818;stroke-width:1;"/><path d="M302.3191,830.1306 Q301.7409,830.4275 301.1003,830.5681 Q300.4597,830.7244 299.7566,830.7244 Q297.2566,830.7244 295.9284,829.0838 Q294.6159,827.4275 294.6159,824.3025 Q294.6159,821.1775 295.9284,819.5213 Q297.2566,817.865 299.7566,817.865 Q300.4597,817.865 301.1003,818.0213 Q301.7566,818.1775 302.3191,818.4744 L302.3191,821.1931 Q301.6941,820.615 301.1003,820.3494 Q300.5066,820.0681 299.8816,820.0681 Q298.5378,820.0681 297.8503,821.1463 Q297.1628,822.2088 297.1628,824.3025 Q297.1628,826.3963 297.8503,827.4744 Q298.5378,828.5369 299.8816,828.5369 Q300.5066,828.5369 301.1003,828.2713 Q301.6941,827.99 302.3191,827.4119 L302.3191,830.1306 Z " fill="#000000"/><text fill="#000000" font-family="sans-serif" font-size="14" lengthAdjust="spacing" textLength="61.3662" x="319.8503" y="829.3367">Manager</text><line style="stroke:#181818;stroke-width:0.5;" x1="240.03" x2="428.5368" y1="840.49" y2="840.49"/><rect fill="#FFFFFF" fill-opacity="0.00000" height="6" style="stroke:#C82930;stroke-width:1;" width="6" x="247.03" y="851.1384"/><text fill="#000000" font-family="sans-serif" font-size="14" lengthAdjust="spacing" textLength="89.1406" x="259.03" y="857.4851">Buffer buffer</text><line style="stroke:#181818;stroke-width:0.5;" x1="240.03" x2="428.5368" y1="864.7869" y2="864.7869"/><ellipse cx="250.03" cy="878.4353" fill="#84BE84" rx="3" ry="3" style="stroke:#038048;stroke-width:1;"/><text fill="#000000" font-family="sans-serif" font-size="14" lengthAdjust="spacing" textLength="164.5068" x="259.03" y="881.782">updatePixel(Pixel pixel)</text></g><!--class Node--><g id="elem_Node"><rect codeLine="31" fill="#F1F1F1" height="129.4844" id="Node" rx="2.5" ry="2.5" style="stroke:#181818;stroke-width:0.5;" width="190.5068" x="170.03" y="354.78"/><ellipse cx="242.7644" cy="370.78" fill="#ADD1B2" rx="11" ry="11" style="stroke:#181818;stroke-width:1;"/><path d="M245.7331,376.4206 Q245.155,376.7175 244.5144,376.8581 Q243.8738,377.0144 243.1706,377.0144 Q240.6706,377.0144 239.3425,375.3738 Q238.03,373.7175 238.03,370.5925 Q238.03,367.4675 239.3425,365.8113 Q240.6706,364.155 243.1706,364.155 Q243.8738,364.155 244.5144,364.3113 Q245.1706,364.4675 245.7331,364.7644 L245.7331,367.4831 Q245.1081,366.905 244.5144,366.6394 Q243.9206,366.3581 243.2956,366.3581 Q241.9519,366.3581 241.2644,367.4363 Q240.5769,368.4988 240.5769,370.5925 Q240.5769,372.6863 241.2644,373.7644 Q241.9519,374.8269 243.2956,374.8269 Q243.9206,374.8269 244.5144,374.5613 Q245.1081,374.28 245.7331,373.7019 L245.7331,376.4206 Z " fill="#000000"/><text fill="#000000" font-family="sans-serif" font-size="14" lengthAdjust="spacing" textLength="36.5381" x="263.2644" y="375.6267">Node</text><line style="stroke:#181818;stroke-width:0.5;" x1="171.03" x2="359.5368" y1="386.78" y2="386.78"/><rect fill="#FFFFFF" fill-opacity="0.00000" height="6" style="stroke:#C82930;stroke-width:1;" width="6" x="178.03" y="397.4284"/><text fill="#000000" font-family="sans-serif" font-size="14" lengthAdjust="spacing" textLength="89.1406" x="190.03" y="403.7751">Buffer buffer</text><rect fill="#FFFFFF" fill-opacity="0.00000" height="6" style="stroke:#C82930;stroke-width:1;" width="6" x="178.03" y="413.7253"/><text fill="#000000" font-family="sans-serif" font-size="14" lengthAdjust="spacing" textLength="128.7412" x="190.03" y="420.072">Manager manager</text><line style="stroke:#181818;stroke-width:0.5;" x1="171.03" x2="359.5368" y1="427.3738" y2="427.3738"/><ellipse cx="181.03" cy="441.0222" fill="#84BE84" rx="3" ry="3" style="stroke:#038048;stroke-width:1;"/><text fill="#000000" font-family="sans-serif" font-size="14" lengthAdjust="spacing" textLength="100.2559" x="190.03" y="444.3689">switchFrame()</text><ellipse cx="181.03" cy="457.3191" fill="#84BE84" rx="3" ry="3" style="stroke:#038048;stroke-width:1;"/><text fill="#000000" font-family="sans-serif" font-size="14" lengthAdjust="spacing" textLength="164.5068" x="190.03" y="460.6657">updatePixel(Pixel pixel)</text><ellipse cx="181.03" cy="473.6159" fill="#84BE84" rx="3" ry="3" style="stroke:#038048;stroke-width:1;"/><text fill="#000000" font-family="sans-serif" font-size="14" lengthAdjust="spacing" textLength="69.2754" x="190.03" y="476.9626">initialize()</text></g><!--class Lista--><g id="elem_Lista"><rect codeLine="39" fill="#F1F1F1" height="113.1875" id="Lista" rx="2.5" ry="2.5" style="stroke:#181818;stroke-width:0.5;" width="203.4063" x="163.58" y="164.6"/><ellipse cx="244.5072" cy="180.6" fill="#ADD1B2" rx="11" ry="11" style="stroke:#181818;stroke-width:1;"/><path d="M247.476,186.2406 Q246.8979,186.5375 246.2572,186.6781 Q245.6166,186.8344 244.9135,186.8344 Q242.4135,186.8344 241.0854,185.1938 Q239.7729,183.5375 239.7729,180.4125 Q239.7729,177.2875 241.0854,175.6313 Q242.4135,173.975 244.9135,173.975 Q245.6166,173.975 246.2572,174.1313 Q246.9135,174.2875 247.476,174.5844 L247.476,177.3031 Q246.851,176.725 246.2572,176.4594 Q245.6635,176.1781 245.0385,176.1781 Q243.6947,176.1781 243.0072,177.2563 Q242.3197,178.3188 242.3197,180.4125 Q242.3197,182.5063 243.0072,183.5844 Q243.6947,184.6469 245.0385,184.6469 Q245.6635,184.6469 246.2572,184.3813 Q246.851,184.1 247.476,183.5219 L247.476,186.2406 Z " fill="#000000"/><text fill="#000000" font-family="sans-serif" font-size="14" lengthAdjust="spacing" textLength="33.0518" x="265.0072" y="185.4467">Lista</text><line style="stroke:#181818;stroke-width:0.5;" x1="164.58" x2="365.9863" y1="196.6" y2="196.6"/><rect fill="#FFFFFF" fill-opacity="0.00000" height="6" style="stroke:#C82930;stroke-width:1;" width="6" x="171.58" y="207.2484"/><text fill="#000000" font-family="sans-serif" font-size="14" lengthAdjust="spacing" textLength="131.1543" x="183.58" y="213.5951">List&lt;Node&gt; nodes</text><line style="stroke:#181818;stroke-width:0.5;" x1="164.58" x2="365.9863" y1="220.8969" y2="220.8969"/><ellipse cx="174.58" cy="234.5453" fill="#84BE84" rx="3" ry="3" style="stroke:#038048;stroke-width:1;"/><text fill="#000000" font-family="sans-serif" font-size="14" lengthAdjust="spacing" textLength="149.7412" x="183.58" y="237.892">addNode(Node node)</text><ellipse cx="174.58" cy="250.8422" fill="#84BE84" rx="3" ry="3" style="stroke:#038048;stroke-width:1;"/><text fill="#000000" font-family="sans-serif" font-size="14" lengthAdjust="spacing" textLength="176.8594" x="183.58" y="254.1889">removeNode(Node node)</text><ellipse cx="174.58" cy="267.1391" fill="#84BE84" rx="3" ry="3" style="stroke:#038048;stroke-width:1;"/><text fill="#000000" font-family="sans-serif" font-size="14" lengthAdjust="spacing" textLength="177.4063" x="183.58" y="270.4857">getNode(int index): Node</text></g><!--class Render--><g id="elem_Render"><rect codeLine="47" fill="#F1F1F1" height="80.5938" id="Render" rx="2.5" ry="2.5" style="stroke:#181818;stroke-width:0.5;" width="125.0527" x="202.76" y="7"/><ellipse cx="236.9224" cy="23" fill="#ADD1B2" rx="11" ry="11" style="stroke:#181818;stroke-width:1;"/><path d="M239.8911,28.6406 Q239.313,28.9375 238.6724,29.0781 Q238.0317,29.2344 237.3286,29.2344 Q234.8286,29.2344 233.5005,27.5938 Q232.188,25.9375 232.188,22.8125 Q232.188,19.6875 233.5005,18.0313 Q234.8286,16.375 237.3286,16.375 Q238.0317,16.375 238.6724,16.5313 Q239.3286,16.6875 239.8911,16.9844 L239.8911,19.7031 Q239.2661,19.125 238.6724,18.8594 Q238.0786,18.5781 237.4536,18.5781 Q236.1099,18.5781 235.4224,19.6563 Q234.7349,20.7188 234.7349,22.8125 Q234.7349,24.9063 235.4224,25.9844 Q236.1099,27.0469 237.4536,27.0469 Q238.0786,27.0469 238.6724,26.7813 Q239.2661,26.5 239.8911,25.9219 L239.8911,28.6406 Z " fill="#000000"/><text fill="#000000" font-family="sans-serif" font-size="14" lengthAdjust="spacing" textLength="50.4697" x="255.1807" y="27.8467">Render</text><line style="stroke:#181818;stroke-width:0.5;" x1="203.76" x2="326.8127" y1="39" y2="39"/><rect fill="#FFFFFF" fill-opacity="0.00000" height="6" style="stroke:#C82930;stroke-width:1;" width="6" x="210.76" y="49.6484"/><text fill="#000000" font-family="sans-serif" font-size="14" lengthAdjust="spacing" textLength="70.5537" x="222.76" y="55.9951">Lista Lista</text><line style="stroke:#181818;stroke-width:0.5;" x1="203.76" x2="326.8127" y1="63.2969" y2="63.2969"/><ellipse cx="213.76" cy="76.9453" fill="#84BE84" rx="3" ry="3" style="stroke:#038048;stroke-width:1;"/><text fill="#000000" font-family="sans-serif" font-size="14" lengthAdjust="spacing" textLength="99.0527" x="222.76" y="80.292">mostrarLista()</text></g><!--link Frame to Pixel--><g id="link_Frame_Pixel"><path codeLine="52" d="M105.29,897.28 C105.29,920.47 105.29,942.72 105.29,967.8 " fill="#FFFFFF" fill-opacity="0.00000" id="Frame-to-Pixel" style="stroke:#181818;stroke-width:1;"/><polygon fill="#181818" points="105.29,973.8,109.29,964.8,105.29,968.8,101.29,964.8,105.29,973.8" style="stroke:#181818;stroke-width:1;"/><text fill="#000000" font-family="sans-serif" font-size="13" lengthAdjust="spacing" textLength="24.2544" x="106.29" y="940.3069">Usa</text></g><!--link Buffer to Frame--><g id="link_Buffer_Frame"><path codeLine="53" d="M160.45,723.83 C148.96,749.65 139.05,771.9185 128.95,794.6085 " fill="#FFFFFF" fill-opacity="0.00000" id="Buffer-to-Frame" style="stroke:#181818;stroke-width:1;"/><polygon fill="#181818" points="126.51,800.09,133.8243,793.4944,128.5433,795.5221,126.5156,790.2411,126.51,800.09" style="stroke:#181818;stroke-width:1;"/><text fill="#000000" font-family="sans-serif" font-size="13" lengthAdjust="spacing" textLength="24.2544" x="147.29" y="766.4169">Usa</text></g><!--link Buffer to Manager--><g id="link_Buffer_Manager"><path codeLine="54" d="M250.63,723.83 C270.16,752.78 287.9831,779.187 304.1431,803.127 " fill="#FFFFFF" fill-opacity="0.00000" id="Buffer-to-Manager" style="stroke:#181818;stroke-width:1;"/><polygon fill="#181818" points="307.5,808.1,305.78,798.4025,304.7026,803.9558,299.1493,802.8784,307.5,808.1" style="stroke:#181818;stroke-width:1;"/><text fill="#000000" font-family="sans-serif" font-size="13" lengthAdjust="spacing" textLength="24.2544" x="283.29" y="766.4169">Usa</text></g><!--link Node to Buffer--><g id="link_Node_Buffer"><path codeLine="55" d="M245.23,484.68 C237.79,508.49 231.0502,530.0733 223.2102,555.1533 " fill="#FFFFFF" fill-opacity="0.00000" id="Node-to-Buffer" style="stroke:#181818;stroke-width:1;"/><polygon fill="#181818" points="221.42,560.88,227.9231,553.4834,222.9118,556.1077,220.2874,551.0965,221.42,560.88" style="stroke:#181818;stroke-width:1;"/><text fill="#000000" font-family="sans-serif" font-size="13" lengthAdjust="spacing" textLength="58.2144" x="236.29" y="527.3369">Contiene</text></g><!--link Node to Manager--><g id="link_Node_Manager"><path codeLine="56" d="M294.18,484.76 C297.72,494.5 300.92,504.54 303.29,514.27 C328.61,618.23 333.4658,739.0405 334.2458,802.1505 " fill="#FFFFFF" fill-opacity="0.00000" id="Node-to-Manager" style="stroke:#181818;stroke-width:1;"/><polygon fill="#181818" points="334.32,808.15,338.2085,799.1013,334.2582,803.1504,330.2091,799.2001,334.32,808.15" style="stroke:#181818;stroke-width:1;"/><text fill="#000000" font-family="sans-serif" font-size="13" lengthAdjust="spacing" textLength="58.2144" x="332.29" y="646.8769">Contiene</text></g><!--link Lista to Node--><g id="link_Lista_Node"><path codeLine="57" d="M265.29,278.19 C265.29,301.99 265.29,323.88 265.29,348.49 " fill="#FFFFFF" fill-opacity="0.00000" id="Lista-to-Node" style="stroke:#181818;stroke-width:1;"/><polygon fill="#181818" points="265.29,354.49,269.29,345.49,265.29,349.49,261.29,345.49,265.29,354.49" style="stroke:#181818;stroke-width:1;"/><text fill="#000000" font-family="sans-serif" font-size="13" lengthAdjust="spacing" textLength="58.2144" x="266.29" y="320.8469">Contiene</text></g><!--link Render to Lista--><g id="link_Render_Lista"><path codeLine="58" d="M265.29,87.73 C265.29,110.43 265.29,133.32 265.29,158.33 " fill="#FFFFFF" fill-opacity="0.00000" id="Render-to-Lista" style="stroke:#181818;stroke-width:1;"/><polygon fill="#181818" points="265.29,164.33,269.29,155.33,265.29,159.33,261.29,155.33,265.29,164.33" style="stroke:#181818;stroke-width:1;"/><text fill="#000000" font-family="sans-serif" font-size="13" lengthAdjust="spacing" textLength="24.2544" x="266.29" y="130.6669">Usa</text></g><!--SRC=[VLBBJiGm3BptAw8zjK8zm765Uc0bJe0G4XzWMhT4IfCgoS82uj-fdQHD1MmFUSmudh7TLe5pub6UK8clGinVBQJsufITFx9pQvInVByG3ls1hkL2L94P4bFjwLNnNHGj2zrQ674HkfFENxDs8oRQtFgUOSuiTOUdEH4ZCQ1L29QJbTMQ_UROzsYNz46if_NoDtILLGMjFu9YCjNcmVgoMcvcMY_lqhUlIJnWtWo3meIjZkv1mv1PYWvVU8jlZrC77aEzOH3SYwok1zFXcHJr8ZE6_OpHVyK2BRNq4fJytFILvWJRgP6bHkXvJJE3hYEmPBD4f9mMH_E6VtFpe9d8vqn0ri8dd76xKOUmnXoZSTw2PIYu3bEkwoRyCtknUtQmAsBd2EU8BKvmx6CYs2xX8MA63qPxYHepRdspai4aiHIseM8vn75KrFe1]--></g></svg>