<?xml version="1.0" encoding="us-ascii" standalone="no"?><svg xmlns="http://www.w3.org/2000/svg" xmlns:xlink="http://www.w3.org/1999/xlink" contentStyleType="text/css" height="685px" preserveAspectRatio="none" style="width:230px;height:685px;background:#FFFFFF;" version="1.1" viewBox="0 0 230 685" width="230px" zoomAndPan="magnify"><defs/><g><!--class Pixel--><g id="elem_Pixel"><rect codeLine="3" fill="#F1F1F1" height="100.8281" id="Pixel" rx="2.5" ry="2.5" style="stroke:#181818;stroke-width:0.5;" width="155" x="37.5" y="7"/><ellipse cx="96.25" cy="23" fill="#ADD1B2" rx="11" ry="11" style="stroke:#181818;stroke-width:1.0;"/><path d="M99.0156,18.875 Q99.1719,18.6563 99.3594,18.5469 Q99.5469,18.4375 99.7656,18.4375 Q100.1406,18.4375 100.375,18.7031 Q100.6094,18.9531 100.6094,19.5625 L100.6094,21.0156 Q100.6094,21.625 100.375,21.8906 Q100.1406,22.1563 99.7656,22.1563 Q99.4219,22.1563 99.2188,21.9531 Q99.0156,21.7656 98.9063,21.25 Q98.8594,20.8906 98.6719,20.7031 Q98.3438,20.3281 97.7344,20.1094 Q97.125,19.8906 96.5,19.8906 Q95.7344,19.8906 95.0938,20.2188 Q94.4688,20.5469 93.9688,21.2969 Q93.4844,22.0469 93.4844,23.0781 L93.4844,24.1719 Q93.4844,25.4063 94.375,26.2344 Q95.2656,27.0469 96.8594,27.0469 Q97.7969,27.0469 98.4531,26.7969 Q98.8438,26.6406 99.2656,26.2031 Q99.5313,25.9375 99.6719,25.8594 Q99.8281,25.7813 100.0313,25.7813 Q100.3594,25.7813 100.6094,26.0469 Q100.875,26.2969 100.875,26.6406 Q100.875,26.9844 100.5313,27.3906 Q100.0313,27.9688 99.2344,28.2969 Q98.1563,28.75 96.8594,28.75 Q95.3438,28.75 94.1406,28.125 Q93.1563,27.625 92.4688,26.5625 Q91.7813,25.4844 91.7813,24.2031 L91.7813,23.0469 Q91.7813,21.7188 92.3906,20.5781 Q93.0156,19.4219 94.1094,18.8125 Q95.2031,18.1875 96.4375,18.1875 Q97.1719,18.1875 97.8125,18.3594 Q98.4688,18.5156 99.0156,18.875 Z " fill="#000000"/><text fill="#000000" font-family="sans-serif" font-size="14" lengthAdjust="spacing" textLength="29" x="116.75" y="28.7285">Pixel</text><line style="stroke:#181818;stroke-width:0.5;" x1="38.5" x2="191.5" y1="39" y2="39"/><text fill="#000000" font-family="sans-serif" font-size="14" lengthAdjust="spacing" textLength="75" x="43.5" y="57.5332">-value: char</text><line style="stroke:#181818;stroke-width:0.5;" x1="38.5" x2="191.5" y1="64.6094" y2="64.6094"/><text fill="#000000" font-family="sans-serif" font-size="14" lengthAdjust="spacing" textLength="110" x="43.5" y="83.1426">+getValue(): char</text><text fill="#000000" font-family="sans-serif" font-size="14" lengthAdjust="spacing" textLength="143" x="43.5" y="100.752">+setValue(value: char)</text></g><!--class Frame--><g id="elem_Frame"><rect codeLine="9" fill="#F1F1F1" height="136.0469" id="Frame" rx="2.5" ry="2.5" style="stroke:#181818;stroke-width:0.5;" width="172" x="29" y="168"/><ellipse cx="90.25" cy="184" fill="#ADD1B2" rx="11" ry="11" style="stroke:#181818;stroke-width:1.0;"/><path d="M93.0156,179.875 Q93.1719,179.6563 93.3594,179.5469 Q93.5469,179.4375 93.7656,179.4375 Q94.1406,179.4375 94.375,179.7031 Q94.6094,179.9531 94.6094,180.5625 L94.6094,182.0156 Q94.6094,182.625 94.375,182.8906 Q94.1406,183.1563 93.7656,183.1563 Q93.4219,183.1563 93.2188,182.9531 Q93.0156,182.7656 92.9063,182.25 Q92.8594,181.8906 92.6719,181.7031 Q92.3438,181.3281 91.7344,181.1094 Q91.125,180.8906 90.5,180.8906 Q89.7344,180.8906 89.0938,181.2188 Q88.4688,181.5469 87.9688,182.2969 Q87.4844,183.0469 87.4844,184.0781 L87.4844,185.1719 Q87.4844,186.4063 88.375,187.2344 Q89.2656,188.0469 90.8594,188.0469 Q91.7969,188.0469 92.4531,187.7969 Q92.8438,187.6406 93.2656,187.2031 Q93.5313,186.9375 93.6719,186.8594 Q93.8281,186.7813 94.0313,186.7813 Q94.3594,186.7813 94.6094,187.0469 Q94.875,187.2969 94.875,187.6406 Q94.875,187.9844 94.5313,188.3906 Q94.0313,188.9688 93.2344,189.2969 Q92.1563,189.75 90.8594,189.75 Q89.3438,189.75 88.1406,189.125 Q87.1563,188.625 86.4688,187.5625 Q85.7813,186.4844 85.7813,185.2031 L85.7813,184.0469 Q85.7813,182.7188 86.3906,181.5781 Q87.0156,180.4219 88.1094,179.8125 Q89.2031,179.1875 90.4375,179.1875 Q91.1719,179.1875 91.8125,179.3594 Q92.4688,179.5156 93.0156,179.875 Z " fill="#000000"/><text fill="#000000" font-family="sans-serif" font-size="14" lengthAdjust="spacing" textLength="41" x="110.75" y="189.7285">Frame</text><line style="stroke:#181818;stroke-width:0.5;" x1="30" x2="200" y1="200" y2="200"/><text fill="#000000" font-family="sans-serif" font-size="14" lengthAdjust="spacing" textLength="93" x="35" y="218.5332">-pixels: Pixel[][]</text><text fill="#000000" font-family="sans-serif" font-size="14" lengthAdjust="spacing" textLength="34" x="35" y="236.1426">-x: int</text><text fill="#000000" font-family="sans-serif" font-size="14" lengthAdjust="spacing" textLength="35" x="35" y="253.752">-y: int</text><line style="stroke:#181818;stroke-width:0.5;" x1="30" x2="200" y1="260.8281" y2="260.8281"/><text fill="#000000" font-family="sans-serif" font-size="14" lengthAdjust="spacing" textLength="88" x="35" y="279.3613">+getPixel(x, y)</text><text fill="#000000" font-family="sans-serif" font-size="14" lengthAdjust="spacing" textLength="160" x="35" y="296.9707">+setPixel(x, y, pixel: Pixel)</text></g><!--class DoubleBuffer--><g id="elem_DoubleBuffer"><rect codeLine="17" fill="#F1F1F1" height="153.6563" id="DoubleBuffer" rx="2.5" ry="2.5" style="stroke:#181818;stroke-width:0.5;" width="216" x="7" y="364"/><ellipse cx="69.25" cy="380" fill="#ADD1B2" rx="11" ry="11" style="stroke:#181818;stroke-width:1.0;"/><path d="M72.0156,375.875 Q72.1719,375.6563 72.3594,375.5469 Q72.5469,375.4375 72.7656,375.4375 Q73.1406,375.4375 73.375,375.7031 Q73.6094,375.9531 73.6094,376.5625 L73.6094,378.0156 Q73.6094,378.625 73.375,378.8906 Q73.1406,379.1563 72.7656,379.1563 Q72.4219,379.1563 72.2188,378.9531 Q72.0156,378.7656 71.9063,378.25 Q71.8594,377.8906 71.6719,377.7031 Q71.3438,377.3281 70.7344,377.1094 Q70.125,376.8906 69.5,376.8906 Q68.7344,376.8906 68.0938,377.2188 Q67.4688,377.5469 66.9688,378.2969 Q66.4844,379.0469 66.4844,380.0781 L66.4844,381.1719 Q66.4844,382.4063 67.375,383.2344 Q68.2656,384.0469 69.8594,384.0469 Q70.7969,384.0469 71.4531,383.7969 Q71.8438,383.6406 72.2656,383.2031 Q72.5313,382.9375 72.6719,382.8594 Q72.8281,382.7813 73.0313,382.7813 Q73.3594,382.7813 73.6094,383.0469 Q73.875,383.2969 73.875,383.6406 Q73.875,383.9844 73.5313,384.3906 Q73.0313,384.9688 72.2344,385.2969 Q71.1563,385.75 69.8594,385.75 Q68.3438,385.75 67.1406,385.125 Q66.1563,384.625 65.4688,383.5625 Q64.7813,382.4844 64.7813,381.2031 L64.7813,380.0469 Q64.7813,378.7188 65.3906,377.5781 Q66.0156,376.4219 67.1094,375.8125 Q68.2031,375.1875 69.4375,375.1875 Q70.1719,375.1875 70.8125,375.3594 Q71.4688,375.5156 72.0156,375.875 Z " fill="#000000"/><text fill="#000000" font-family="sans-serif" font-size="14" lengthAdjust="spacing" textLength="83" x="89.75" y="385.7285">DoubleBuffer</text><line style="stroke:#181818;stroke-width:0.5;" x1="8" x2="222" y1="396" y2="396"/><text fill="#000000" font-family="sans-serif" font-size="14" lengthAdjust="spacing" textLength="106" x="13" y="414.5332">-frame1: Frame[]</text><text fill="#000000" font-family="sans-serif" font-size="14" lengthAdjust="spacing" textLength="106" x="13" y="432.1426">-frame2: Frame[]</text><text fill="#000000" font-family="sans-serif" font-size="14" lengthAdjust="spacing" textLength="132" x="13" y="449.752">-activeFrame: Frame</text><line style="stroke:#181818;stroke-width:0.5;" x1="8" x2="222" y1="456.8281" y2="456.8281"/><text fill="#000000" font-family="sans-serif" font-size="14" lengthAdjust="spacing" textLength="166" x="13" y="475.3613">+getActiveFrame(): Frame</text><text fill="#000000" font-family="sans-serif" font-size="14" lengthAdjust="spacing" textLength="204" x="13" y="492.9707">+combineFrames(frame: Frame)</text><text fill="#000000" font-family="sans-serif" font-size="14" lengthAdjust="spacing" textLength="153" x="13" y="510.5801">+switchFrame(index: int)</text></g><!--class Display--><g id="elem_Display"><rect codeLine="26" fill="#F1F1F1" height="100.8281" id="Display" rx="2.5" ry="2.5" style="stroke:#181818;stroke-width:0.5;" width="150" x="40" y="578"/><ellipse cx="87.75" cy="594" fill="#ADD1B2" rx="11" ry="11" style="stroke:#181818;stroke-width:1.0;"/><path d="M90.5156,589.875 Q90.6719,589.6563 90.8594,589.5469 Q91.0469,589.4375 91.2656,589.4375 Q91.6406,589.4375 91.875,589.7031 Q92.1094,589.9531 92.1094,590.5625 L92.1094,592.0156 Q92.1094,592.625 91.875,592.8906 Q91.6406,593.1563 91.2656,593.1563 Q90.9219,593.1563 90.7188,592.9531 Q90.5156,592.7656 90.4063,592.25 Q90.3594,591.8906 90.1719,591.7031 Q89.8438,591.3281 89.2344,591.1094 Q88.625,590.8906 88,590.8906 Q87.2344,590.8906 86.5938,591.2188 Q85.9688,591.5469 85.4688,592.2969 Q84.9844,593.0469 84.9844,594.0781 L84.9844,595.1719 Q84.9844,596.4063 85.875,597.2344 Q86.7656,598.0469 88.3594,598.0469 Q89.2969,598.0469 89.9531,597.7969 Q90.3438,597.6406 90.7656,597.2031 Q91.0313,596.9375 91.1719,596.8594 Q91.3281,596.7813 91.5313,596.7813 Q91.8594,596.7813 92.1094,597.0469 Q92.375,597.2969 92.375,597.6406 Q92.375,597.9844 92.0313,598.3906 Q91.5313,598.9688 90.7344,599.2969 Q89.6563,599.75 88.3594,599.75 Q86.8438,599.75 85.6406,599.125 Q84.6563,598.625 83.9688,597.5625 Q83.2813,596.4844 83.2813,595.2031 L83.2813,594.0469 Q83.2813,592.7188 83.8906,591.5781 Q84.5156,590.4219 85.6094,589.8125 Q86.7031,589.1875 87.9375,589.1875 Q88.6719,589.1875 89.3125,589.3594 Q89.9688,589.5156 90.5156,589.875 Z " fill="#000000"/><text fill="#000000" font-family="sans-serif" font-size="14" lengthAdjust="spacing" textLength="46" x="108.25" y="599.7285">Display</text><line style="stroke:#181818;stroke-width:0.5;" x1="41" x2="189" y1="610" y2="610"/><text fill="#000000" font-family="sans-serif" font-size="14" lengthAdjust="spacing" textLength="138" x="46" y="628.5332">-displayPixels: Pixel[][]</text><line style="stroke:#181818;stroke-width:0.5;" x1="41" x2="189" y1="635.6094" y2="635.6094"/><text fill="#000000" font-family="sans-serif" font-size="14" lengthAdjust="spacing" textLength="60" x="46" y="654.1426">+render()</text><text fill="#000000" font-family="sans-serif" font-size="14" lengthAdjust="spacing" textLength="129" x="46" y="671.752">+main(args: String[])</text></g><!--link Pixel to Frame--><g id="link_Pixel_Frame"><path codeLine="32" d="M115,108.13 C115,126.69 115,142.09 115,161.96 " fill="none" id="Pixel-to-Frame" style="stroke:#181818;stroke-width:1.0;"/><polygon fill="#181818" points="115,167.96,119,158.96,115,162.96,111,158.96,115,167.96" style="stroke:#181818;stroke-width:1.0;"/></g><!--link Frame to DoubleBuffer--><g id="link_Frame_DoubleBuffer"><path codeLine="33" d="M115,304.03 C115,323.2 115,338.24 115,357.91 " fill="none" id="Frame-to-DoubleBuffer" style="stroke:#181818;stroke-width:1.0;"/><polygon fill="#181818" points="115,363.91,119,354.91,115,358.91,111,354.91,115,363.91" style="stroke:#181818;stroke-width:1.0;"/></g><!--link DoubleBuffer to Display--><g id="link_DoubleBuffer_Display"><path codeLine="34" d="M115,518.25 C115,538.34 115,553.49 115,571.78 " fill="none" id="DoubleBuffer-to-Display" style="stroke:#181818;stroke-width:1.0;"/><polygon fill="#181818" points="115,577.78,119,568.78,115,572.78,111,568.78,115,577.78" style="stroke:#181818;stroke-width:1.0;"/></g><!--SRC=[RL7BReCm4BpxA_O8If3Q7ZbKIbLLwYrIf5uG1-CiP1LZa6rIQDL_BzWydAg-xSpkp7ZNN4crNFCQXEJ67ApLL7GMtqMZJlI5yC2OO-18FKhuPZ2-16vSTfY2k73ja1rKQ3ycC8hlOBF0mKJCVXRLjz4QLzLsyZ2fzyhoB9_nFWLITYw6hN2khZdgzp34c-S6xhtgB1fOlpPT8V6bAqlKQu9oolEO-bohlqEV_g9SMBgXmsPg2tNOk6aX8IkQkY3bEHELmVYQ_vEikFXXKcVqtm-Zasab7zRKPryV_rtV3ZIE8ZfQv6jEAkAw6ZjFuxbLbULEsryuIPxdkFusKnskYjtjpR7UdVq2]--></g></svg>