<?xml version="1.0" encoding="us-ascii" standalone="no"?><svg xmlns="http://www.w3.org/2000/svg" xmlns:xlink="http://www.w3.org/1999/xlink" contentStyleType="text/css" height="827px" preserveAspectRatio="none" style="width:397px;height:827px;background:#FFFFFF;" version="1.1" viewBox="0 0 397 827" width="397px" zoomAndPan="magnify"><defs/><g><!--class Pixel--><g id="elem_Pixel"><rect codeLine="3" fill="#F1F1F1" height="206.4844" id="Pixel" rx="2.5" ry="2.5" style="stroke:#181818;stroke-width:0.5;" width="383" x="7" y="614"/><ellipse cx="179.75" cy="630" fill="#ADD1B2" rx="11" ry="11" style="stroke:#181818;stroke-width:1.0;"/><path d="M182.5156,625.875 Q182.6719,625.6563 182.8594,625.5469 Q183.0469,625.4375 183.2656,625.4375 Q183.6406,625.4375 183.875,625.7031 Q184.1094,625.9531 184.1094,626.5625 L184.1094,628.0156 Q184.1094,628.625 183.875,628.8906 Q183.6406,629.1563 183.2656,629.1563 Q182.9219,629.1563 182.7188,628.9531 Q182.5156,628.7656 182.4063,628.25 Q182.3594,627.8906 182.1719,627.7031 Q181.8438,627.3281 181.2344,627.1094 Q180.625,626.8906 180,626.8906 Q179.2344,626.8906 178.5938,627.2188 Q177.9688,627.5469 177.4688,628.2969 Q176.9844,629.0469 176.9844,630.0781 L176.9844,631.1719 Q176.9844,632.4063 177.875,633.2344 Q178.7656,634.0469 180.3594,634.0469 Q181.2969,634.0469 181.9531,633.7969 Q182.3438,633.6406 182.7656,633.2031 Q183.0313,632.9375 183.1719,632.8594 Q183.3281,632.7813 183.5313,632.7813 Q183.8594,632.7813 184.1094,633.0469 Q184.375,633.2969 184.375,633.6406 Q184.375,633.9844 184.0313,634.3906 Q183.5313,634.9688 182.7344,635.2969 Q181.6563,635.75 180.3594,635.75 Q178.8438,635.75 177.6406,635.125 Q176.6563,634.625 175.9688,633.5625 Q175.2813,632.4844 175.2813,631.2031 L175.2813,630.0469 Q175.2813,628.7188 175.8906,627.5781 Q176.5156,626.4219 177.6094,625.8125 Q178.7031,625.1875 179.9375,625.1875 Q180.6719,625.1875 181.3125,625.3594 Q181.9688,625.5156 182.5156,625.875 Z " fill="#000000"/><text fill="#000000" font-family="sans-serif" font-size="14" lengthAdjust="spacing" textLength="29" x="200.25" y="635.7285">Pixel</text><line style="stroke:#181818;stroke-width:0.5;" x1="8" x2="389" y1="646" y2="646"/><text fill="#000000" font-family="sans-serif" font-size="14" lengthAdjust="spacing" textLength="75" x="13" y="664.5332">-value: char</text><text fill="#000000" font-family="sans-serif" font-size="14" lengthAdjust="spacing" textLength="72" x="13" y="682.1426">-WIDTH: int</text><text fill="#000000" font-family="sans-serif" font-size="14" lengthAdjust="spacing" textLength="78" x="13" y="699.752">-HEIGHT: int</text><line style="stroke:#181818;stroke-width:0.5;" x1="8" x2="389" y1="706.8281" y2="706.8281"/><text fill="#000000" font-family="sans-serif" font-size="14" lengthAdjust="spacing" textLength="110" x="13" y="725.3613">+getValue(): char</text><text fill="#000000" font-family="sans-serif" font-size="14" lengthAdjust="spacing" textLength="143" x="13" y="742.9707">+setValue(value: char)</text><text fill="#000000" font-family="sans-serif" font-size="14" lengthAdjust="spacing" textLength="226" x="13" y="760.5801">+generateFrame(offset: int): char[][]</text><text fill="#000000" font-family="sans-serif" font-size="14" lengthAdjust="spacing" textLength="371" x="13" y="778.1895">+combineFrames(frame1: char[][], frame2: char[][]): char[][]</text><text fill="#000000" font-family="sans-serif" font-size="14" lengthAdjust="spacing" textLength="175" x="13" y="795.7988">+printFrame(frame: char[][])</text><text fill="#000000" font-family="sans-serif" font-size="14" lengthAdjust="spacing" textLength="129" x="13" y="813.4082">+main(args: String[])</text></g><!--class Frame--><g id="elem_Frame"><rect codeLine="15" fill="#F1F1F1" height="136.0469" id="Frame" rx="2.5" ry="2.5" style="stroke:#181818;stroke-width:0.5;" width="172" x="112.5" y="400"/><ellipse cx="173.75" cy="416" fill="#ADD1B2" rx="11" ry="11" style="stroke:#181818;stroke-width:1.0;"/><path d="M176.5156,411.875 Q176.6719,411.6563 176.8594,411.5469 Q177.0469,411.4375 177.2656,411.4375 Q177.6406,411.4375 177.875,411.7031 Q178.1094,411.9531 178.1094,412.5625 L178.1094,414.0156 Q178.1094,414.625 177.875,414.8906 Q177.6406,415.1563 177.2656,415.1563 Q176.9219,415.1563 176.7188,414.9531 Q176.5156,414.7656 176.4063,414.25 Q176.3594,413.8906 176.1719,413.7031 Q175.8438,413.3281 175.2344,413.1094 Q174.625,412.8906 174,412.8906 Q173.2344,412.8906 172.5938,413.2188 Q171.9688,413.5469 171.4688,414.2969 Q170.9844,415.0469 170.9844,416.0781 L170.9844,417.1719 Q170.9844,418.4063 171.875,419.2344 Q172.7656,420.0469 174.3594,420.0469 Q175.2969,420.0469 175.9531,419.7969 Q176.3438,419.6406 176.7656,419.2031 Q177.0313,418.9375 177.1719,418.8594 Q177.3281,418.7813 177.5313,418.7813 Q177.8594,418.7813 178.1094,419.0469 Q178.375,419.2969 178.375,419.6406 Q178.375,419.9844 178.0313,420.3906 Q177.5313,420.9688 176.7344,421.2969 Q175.6563,421.75 174.3594,421.75 Q172.8438,421.75 171.6406,421.125 Q170.6563,420.625 169.9688,419.5625 Q169.2813,418.4844 169.2813,417.2031 L169.2813,416.0469 Q169.2813,414.7188 169.8906,413.5781 Q170.5156,412.4219 171.6094,411.8125 Q172.7031,411.1875 173.9375,411.1875 Q174.6719,411.1875 175.3125,411.3594 Q175.9688,411.5156 176.5156,411.875 Z " fill="#000000"/><text fill="#000000" font-family="sans-serif" font-size="14" lengthAdjust="spacing" textLength="41" x="194.25" y="421.7285">Frame</text><line style="stroke:#181818;stroke-width:0.5;" x1="113.5" x2="283.5" y1="432" y2="432"/><text fill="#000000" font-family="sans-serif" font-size="14" lengthAdjust="spacing" textLength="93" x="118.5" y="450.5332">-pixels: Pixel[][]</text><text fill="#000000" font-family="sans-serif" font-size="14" lengthAdjust="spacing" textLength="34" x="118.5" y="468.1426">-x: int</text><text fill="#000000" font-family="sans-serif" font-size="14" lengthAdjust="spacing" textLength="35" x="118.5" y="485.752">-y: int</text><line style="stroke:#181818;stroke-width:0.5;" x1="113.5" x2="283.5" y1="492.8281" y2="492.8281"/><text fill="#000000" font-family="sans-serif" font-size="14" lengthAdjust="spacing" textLength="88" x="118.5" y="511.3613">+getPixel(x, y)</text><text fill="#000000" font-family="sans-serif" font-size="14" lengthAdjust="spacing" textLength="160" x="118.5" y="528.9707">+setPixel(x, y, pixel: Pixel)</text></g><!--class DataBase--><g id="elem_DataBase"><rect codeLine="23" fill="#F1F1F1" height="136.0469" id="DataBase" rx="2.5" ry="2.5" style="stroke:#181818;stroke-width:0.5;" width="180" x="108.5" y="186"/><ellipse cx="163.25" cy="202" fill="#ADD1B2" rx="11" ry="11" style="stroke:#181818;stroke-width:1.0;"/><path d="M166.0156,197.875 Q166.1719,197.6563 166.3594,197.5469 Q166.5469,197.4375 166.7656,197.4375 Q167.1406,197.4375 167.375,197.7031 Q167.6094,197.9531 167.6094,198.5625 L167.6094,200.0156 Q167.6094,200.625 167.375,200.8906 Q167.1406,201.1563 166.7656,201.1563 Q166.4219,201.1563 166.2188,200.9531 Q166.0156,200.7656 165.9063,200.25 Q165.8594,199.8906 165.6719,199.7031 Q165.3438,199.3281 164.7344,199.1094 Q164.125,198.8906 163.5,198.8906 Q162.7344,198.8906 162.0938,199.2188 Q161.4688,199.5469 160.9688,200.2969 Q160.4844,201.0469 160.4844,202.0781 L160.4844,203.1719 Q160.4844,204.4063 161.375,205.2344 Q162.2656,206.0469 163.8594,206.0469 Q164.7969,206.0469 165.4531,205.7969 Q165.8438,205.6406 166.2656,205.2031 Q166.5313,204.9375 166.6719,204.8594 Q166.8281,204.7813 167.0313,204.7813 Q167.3594,204.7813 167.6094,205.0469 Q167.875,205.2969 167.875,205.6406 Q167.875,205.9844 167.5313,206.3906 Q167.0313,206.9688 166.2344,207.2969 Q165.1563,207.75 163.8594,207.75 Q162.3438,207.75 161.1406,207.125 Q160.1563,206.625 159.4688,205.5625 Q158.7813,204.4844 158.7813,203.2031 L158.7813,202.0469 Q158.7813,200.7188 159.3906,199.5781 Q160.0156,198.4219 161.1094,197.8125 Q162.2031,197.1875 163.4375,197.1875 Q164.1719,197.1875 164.8125,197.3594 Q165.4688,197.5156 166.0156,197.875 Z " fill="#000000"/><text fill="#000000" font-family="sans-serif" font-size="14" lengthAdjust="spacing" textLength="62" x="183.75" y="207.7285">DataBase</text><line style="stroke:#181818;stroke-width:0.5;" x1="109.5" x2="287.5" y1="218" y2="218"/><text fill="#000000" font-family="sans-serif" font-size="14" lengthAdjust="spacing" textLength="105" x="114.5" y="236.5332">-frames: Frame[]</text><text fill="#000000" font-family="sans-serif" font-size="14" lengthAdjust="spacing" textLength="132" x="114.5" y="254.1426">-activeFrame: Frame</text><line style="stroke:#181818;stroke-width:0.5;" x1="109.5" x2="287.5" y1="261.2188" y2="261.2188"/><text fill="#000000" font-family="sans-serif" font-size="14" lengthAdjust="spacing" textLength="168" x="114.5" y="279.752">+addFrame(frame: Frame)</text><text fill="#000000" font-family="sans-serif" font-size="14" lengthAdjust="spacing" textLength="153" x="114.5" y="297.3613">+switchFrame(index: int)</text><text fill="#000000" font-family="sans-serif" font-size="14" lengthAdjust="spacing" textLength="166" x="114.5" y="314.9707">+getActiveFrame(): Frame</text></g><!--class Display--><g id="elem_Display"><rect codeLine="31" fill="#F1F1F1" height="100.8281" id="Display" rx="2.5" ry="2.5" style="stroke:#181818;stroke-width:0.5;" width="222" x="87.5" y="7"/><ellipse cx="171.25" cy="23" fill="#ADD1B2" rx="11" ry="11" style="stroke:#181818;stroke-width:1.0;"/><path d="M174.0156,18.875 Q174.1719,18.6563 174.3594,18.5469 Q174.5469,18.4375 174.7656,18.4375 Q175.1406,18.4375 175.375,18.7031 Q175.6094,18.9531 175.6094,19.5625 L175.6094,21.0156 Q175.6094,21.625 175.375,21.8906 Q175.1406,22.1563 174.7656,22.1563 Q174.4219,22.1563 174.2188,21.9531 Q174.0156,21.7656 173.9063,21.25 Q173.8594,20.8906 173.6719,20.7031 Q173.3438,20.3281 172.7344,20.1094 Q172.125,19.8906 171.5,19.8906 Q170.7344,19.8906 170.0938,20.2188 Q169.4688,20.5469 168.9688,21.2969 Q168.4844,22.0469 168.4844,23.0781 L168.4844,24.1719 Q168.4844,25.4063 169.375,26.2344 Q170.2656,27.0469 171.8594,27.0469 Q172.7969,27.0469 173.4531,26.7969 Q173.8438,26.6406 174.2656,26.2031 Q174.5313,25.9375 174.6719,25.8594 Q174.8281,25.7813 175.0313,25.7813 Q175.3594,25.7813 175.6094,26.0469 Q175.875,26.2969 175.875,26.6406 Q175.875,26.9844 175.5313,27.3906 Q175.0313,27.9688 174.2344,28.2969 Q173.1563,28.75 171.8594,28.75 Q170.3438,28.75 169.1406,28.125 Q168.1563,27.625 167.4688,26.5625 Q166.7813,25.4844 166.7813,24.2031 L166.7813,23.0469 Q166.7813,21.7188 167.3906,20.5781 Q168.0156,19.4219 169.1094,18.8125 Q170.2031,18.1875 171.4375,18.1875 Q172.1719,18.1875 172.8125,18.3594 Q173.4688,18.5156 174.0156,18.875 Z " fill="#000000"/><text fill="#000000" font-family="sans-serif" font-size="14" lengthAdjust="spacing" textLength="46" x="191.75" y="28.7285">Display</text><line style="stroke:#181818;stroke-width:0.5;" x1="88.5" x2="308.5" y1="39" y2="39"/><text fill="#000000" font-family="sans-serif" font-size="14" lengthAdjust="spacing" textLength="138" x="93.5" y="57.5332">-displayPixels: Pixel[][]</text><line style="stroke:#181818;stroke-width:0.5;" x1="88.5" x2="308.5" y1="64.6094" y2="64.6094"/><text fill="#000000" font-family="sans-serif" font-size="14" lengthAdjust="spacing" textLength="60" x="93.5" y="83.1426">+render()</text><text fill="#000000" font-family="sans-serif" font-size="14" lengthAdjust="spacing" textLength="210" x="93.5" y="100.752">+updateDataBase(db: DataBase)</text></g><!--link Display to DataBase--><g id="link_Display_DataBase"><path codeLine="37" d="M198.5,108.08 C198.5,131.72 198.5,154.35 198.5,179.89 " fill="none" id="Display-to-DataBase" style="stroke:#181818;stroke-width:1.0;"/><polygon fill="#181818" points="198.5,185.89,202.5,176.89,198.5,180.89,194.5,176.89,198.5,185.89" style="stroke:#181818;stroke-width:1.0;"/><text fill="#000000" font-family="sans-serif" font-size="13" lengthAdjust="spacing" textLength="21" x="199.5" y="152.4951">usa</text></g><!--link DataBase to Frame--><g id="link_DataBase_Frame"><path codeLine="38" d="M198.5,322.08 C198.5,346.95 198.5,369.13 198.5,393.99 " fill="none" id="DataBase-to-Frame" style="stroke:#181818;stroke-width:1.0;"/><polygon fill="#181818" points="198.5,399.99,202.5,390.99,198.5,394.99,194.5,390.99,198.5,399.99" style="stroke:#181818;stroke-width:1.0;"/><text fill="#000000" font-family="sans-serif" font-size="13" lengthAdjust="spacing" textLength="49" x="199.5" y="366.4951">contiene</text></g><!--link Frame to Pixel--><g id="link_Frame_Pixel"><path codeLine="39" d="M198.5,536.17 C198.5,560.02 198.5,581.45 198.5,607.58 " fill="none" id="Frame-to-Pixel" style="stroke:#181818;stroke-width:1.0;"/><polygon fill="#181818" points="198.5,613.58,202.5,604.58,198.5,608.58,194.5,604.58,198.5,613.58" style="stroke:#181818;stroke-width:1.0;"/><text fill="#000000" font-family="sans-serif" font-size="13" lengthAdjust="spacing" textLength="49" x="199.5" y="580.4951">contiene</text></g><!--SRC=[RLBBJiCm4BpdA_Reg8q477D0AYhGtYgrWaFLmpPnKulKYMod923-7RzYXqSkaMV7Cxkpbc-CjoZm0aMDKYwK4kpOARek6hvb7nHkaiHMOCDwMiDd0lhBu8frHtCepYWyyhfUxbOvCAuyi7fSFwzs4Pb1HTMBkKVIoSqPo16UYARX2gS25NtIBLBId4wQR2MznFwmFtXgqLoEZ3kc92VpkusaELZaBY9_5LgXXPsJ9K-udd51nWcAIkQmrKdnofI-neZirH1HQmBJH1jSSCcWduOq_Ch7aaa_Xo6DwKHmxbIzwCHwYGeVK4PtEu1sjpq5RomKkxg8VCcxO5d-6DmUGWllJ1LdLsUyf6w2k2ArYB9cjquuziPaM-CGMYlTUVDlFZCGL5i8CiftRQdtFyv7ocCUXhNpZ-fPTXzJoA6Jc8IZgRdbw9KsN37zgX87c99xsfFIDm00]--></g></svg>