<?xml version="1.0" encoding="us-ascii" standalone="no"?><svg xmlns="http://www.w3.org/2000/svg" xmlns:xlink="http://www.w3.org/1999/xlink" contentStyleType="text/css" height="614px" preserveAspectRatio="none" style="width:853px;height:614px;background:#FFFFFF;" version="1.1" viewBox="0 0 853 614" width="853px" zoomAndPan="magnify"><defs/><g><!--class GestorPantalla--><g id="elem_GestorPantalla"><rect codeLine="2" fill="#F1F1F1" height="86.1358" id="GestorPantalla" rx="2.5" ry="2.5" style="stroke:#181818;stroke-width:0.5;" width="408" x="438" y="7"/><ellipse cx="588.75" cy="23" fill="#ADD1B2" rx="11" ry="11" style="stroke:#181818;stroke-width:1.0;"/><path d="M591.7188,28.6406 Q591.1406,28.9375 590.5,29.0781 Q589.8594,29.2344 589.1563,29.2344 Q586.6563,29.2344 585.3281,27.5938 Q584.0156,25.9375 584.0156,22.8125 Q584.0156,19.6875 585.3281,18.0313 Q586.6563,16.375 589.1563,16.375 Q589.8594,16.375 590.5,16.5313 Q591.1563,16.6875 591.7188,16.9844 L591.7188,19.7031 Q591.0938,19.125 590.5,18.8594 Q589.9063,18.5781 589.2813,18.5781 Q587.9375,18.5781 587.25,19.6563 Q586.5625,20.7188 586.5625,22.8125 Q586.5625,24.9063 587.25,25.9844 Q587.9375,27.0469 589.2813,27.0469 Q589.9063,27.0469 590.5,26.7813 Q591.0938,26.5 591.7188,25.9219 L591.7188,28.6406 Z " fill="#000000"/><text fill="#000000" font-family="sans-serif" font-size="14" lengthAdjust="spacing" textLength="98" x="609.25" y="28.432">GestorPantalla</text><line style="stroke:#181818;stroke-width:0.5;" x1="439" x2="845" y1="39" y2="39"/><line style="stroke:#181818;stroke-width:0.5;" x1="439" x2="845" y1="47" y2="47"/><ellipse cx="449" cy="62.034" fill="#84BE84" rx="3" ry="3" style="stroke:#038048;stroke-width:1.0;"/><text fill="#000000" font-family="sans-serif" font-size="14" lengthAdjust="spacing" textLength="382" x="458" y="65.9659">establecerPixel(coordenada: Coordenada, color: int): void</text><ellipse cx="449" cy="81.1019" fill="#84BE84" rx="3" ry="3" style="stroke:#038048;stroke-width:1.0;"/><text fill="#000000" font-family="sans-serif" font-size="14" lengthAdjust="spacing" textLength="115" x="458" y="85.0339">renderizar(): void</text></g><!--class PantallaEntrelazada--><g id="elem_PantallaEntrelazada"><rect codeLine="7" fill="#F1F1F1" height="86.1358" id="PantallaEntrelazada" rx="2.5" ry="2.5" style="stroke:#181818;stroke-width:0.5;" width="408" x="310" y="162.5"/><ellipse cx="442.75" cy="178.5" fill="#ADD1B2" rx="11" ry="11" style="stroke:#181818;stroke-width:1.0;"/><path d="M445.7188,184.1406 Q445.1406,184.4375 444.5,184.5781 Q443.8594,184.7344 443.1563,184.7344 Q440.6563,184.7344 439.3281,183.0938 Q438.0156,181.4375 438.0156,178.3125 Q438.0156,175.1875 439.3281,173.5313 Q440.6563,171.875 443.1563,171.875 Q443.8594,171.875 444.5,172.0313 Q445.1563,172.1875 445.7188,172.4844 L445.7188,175.2031 Q445.0938,174.625 444.5,174.3594 Q443.9063,174.0781 443.2813,174.0781 Q441.9375,174.0781 441.25,175.1563 Q440.5625,176.2188 440.5625,178.3125 Q440.5625,180.4063 441.25,181.4844 Q441.9375,182.5469 443.2813,182.5469 Q443.9063,182.5469 444.5,182.2813 Q445.0938,182 445.7188,181.4219 L445.7188,184.1406 Z " fill="#000000"/><text fill="#000000" font-family="sans-serif" font-size="14" lengthAdjust="spacing" textLength="134" x="463.25" y="183.932">PantallaEntrelazada</text><line style="stroke:#181818;stroke-width:0.5;" x1="311" x2="717" y1="194.5" y2="194.5"/><line style="stroke:#181818;stroke-width:0.5;" x1="311" x2="717" y1="202.5" y2="202.5"/><ellipse cx="321" cy="217.534" fill="#84BE84" rx="3" ry="3" style="stroke:#038048;stroke-width:1.0;"/><text fill="#000000" font-family="sans-serif" font-size="14" lengthAdjust="spacing" textLength="382" x="330" y="221.4659">establecerPixel(coordenada: Coordenada, color: int): void</text><ellipse cx="321" cy="236.6019" fill="#84BE84" rx="3" ry="3" style="stroke:#038048;stroke-width:1.0;"/><text fill="#000000" font-family="sans-serif" font-size="14" lengthAdjust="spacing" textLength="241" x="330" y="240.5339">obtenerSalidaEntrelazada(): Pixel[][]</text></g><!--class ListaCircularFrames--><g id="elem_ListaCircularFrames"><rect codeLine="12" fill="#F1F1F1" height="105.2038" id="ListaCircularFrames" rx="2.5" ry="2.5" style="stroke:#181818;stroke-width:0.5;" width="268" x="7" y="153"/><ellipse cx="70.25" cy="169" fill="#ADD1B2" rx="11" ry="11" style="stroke:#181818;stroke-width:1.0;"/><path d="M73.2188,174.6406 Q72.6406,174.9375 72,175.0781 Q71.3594,175.2344 70.6563,175.2344 Q68.1563,175.2344 66.8281,173.5938 Q65.5156,171.9375 65.5156,168.8125 Q65.5156,165.6875 66.8281,164.0313 Q68.1563,162.375 70.6563,162.375 Q71.3594,162.375 72,162.5313 Q72.6563,162.6875 73.2188,162.9844 L73.2188,165.7031 Q72.5938,165.125 72,164.8594 Q71.4063,164.5781 70.7813,164.5781 Q69.4375,164.5781 68.75,165.6563 Q68.0625,166.7188 68.0625,168.8125 Q68.0625,170.9063 68.75,171.9844 Q69.4375,173.0469 70.7813,173.0469 Q71.4063,173.0469 72,172.7813 Q72.5938,172.5 73.2188,171.9219 L73.2188,174.6406 Z " fill="#000000"/><text fill="#000000" font-family="sans-serif" font-size="14" lengthAdjust="spacing" textLength="133" x="90.75" y="174.432">ListaCircularFrames</text><line style="stroke:#181818;stroke-width:0.5;" x1="8" x2="274" y1="185" y2="185"/><line style="stroke:#181818;stroke-width:0.5;" x1="8" x2="274" y1="193" y2="193"/><ellipse cx="18" cy="208.034" fill="#84BE84" rx="3" ry="3" style="stroke:#038048;stroke-width:1.0;"/><text fill="#000000" font-family="sans-serif" font-size="14" lengthAdjust="spacing" textLength="230" x="27" y="211.9659">agregarFrame(frame: Frame): void</text><ellipse cx="18" cy="227.1019" fill="#84BE84" rx="3" ry="3" style="stroke:#038048;stroke-width:1.0;"/><text fill="#000000" font-family="sans-serif" font-size="14" lengthAdjust="spacing" textLength="153" x="27" y="231.0339">obtenerActual(): Frame</text><ellipse cx="18" cy="246.1698" fill="#84BE84" rx="3" ry="3" style="stroke:#038048;stroke-width:1.0;"/><text fill="#000000" font-family="sans-serif" font-size="14" lengthAdjust="spacing" textLength="242" x="27" y="250.1018">obtenerPorIndice(indice: int): Frame</text></g><!--class Frame--><g id="elem_Frame"><rect codeLine="18" fill="#F1F1F1" height="86.1358" id="Frame" rx="2.5" ry="2.5" style="stroke:#181818;stroke-width:0.5;" width="408" x="104" y="346.5"/><ellipse cx="282.75" cy="362.5" fill="#ADD1B2" rx="11" ry="11" style="stroke:#181818;stroke-width:1.0;"/><path d="M285.7188,368.1406 Q285.1406,368.4375 284.5,368.5781 Q283.8594,368.7344 283.1563,368.7344 Q280.6563,368.7344 279.3281,367.0938 Q278.0156,365.4375 278.0156,362.3125 Q278.0156,359.1875 279.3281,357.5313 Q280.6563,355.875 283.1563,355.875 Q283.8594,355.875 284.5,356.0313 Q285.1563,356.1875 285.7188,356.4844 L285.7188,359.2031 Q285.0938,358.625 284.5,358.3594 Q283.9063,358.0781 283.2813,358.0781 Q281.9375,358.0781 281.25,359.1563 Q280.5625,360.2188 280.5625,362.3125 Q280.5625,364.4063 281.25,365.4844 Q281.9375,366.5469 283.2813,366.5469 Q283.9063,366.5469 284.5,366.2813 Q285.0938,366 285.7188,365.4219 L285.7188,368.1406 Z " fill="#000000"/><text fill="#000000" font-family="sans-serif" font-size="14" lengthAdjust="spacing" textLength="42" x="303.25" y="367.932">Frame</text><line style="stroke:#181818;stroke-width:0.5;" x1="105" x2="511" y1="378.5" y2="378.5"/><line style="stroke:#181818;stroke-width:0.5;" x1="105" x2="511" y1="386.5" y2="386.5"/><ellipse cx="115" cy="401.534" fill="#84BE84" rx="3" ry="3" style="stroke:#038048;stroke-width:1.0;"/><text fill="#000000" font-family="sans-serif" font-size="14" lengthAdjust="spacing" textLength="382" x="124" y="405.4659">establecerPixel(coordenada: Coordenada, color: int): void</text><ellipse cx="115" cy="420.6019" fill="#84BE84" rx="3" ry="3" style="stroke:#038048;stroke-width:1.0;"/><text fill="#000000" font-family="sans-serif" font-size="14" lengthAdjust="spacing" textLength="301" x="124" y="424.5339">obtenerPixel(coordenada: Coordenada): Pixel</text></g><!--class Pixel--><g id="elem_Pixel"><rect codeLine="23" fill="#F1F1F1" height="86.1358" id="Pixel" rx="2.5" ry="2.5" style="stroke:#181818;stroke-width:0.5;" width="234" x="191" y="521"/><ellipse cx="288.25" cy="537" fill="#ADD1B2" rx="11" ry="11" style="stroke:#181818;stroke-width:1.0;"/><path d="M291.2188,542.6406 Q290.6406,542.9375 290,543.0781 Q289.3594,543.2344 288.6563,543.2344 Q286.1563,543.2344 284.8281,541.5938 Q283.5156,539.9375 283.5156,536.8125 Q283.5156,533.6875 284.8281,532.0313 Q286.1563,530.375 288.6563,530.375 Q289.3594,530.375 290,530.5313 Q290.6563,530.6875 291.2188,530.9844 L291.2188,533.7031 Q290.5938,533.125 290,532.8594 Q289.4063,532.5781 288.7813,532.5781 Q287.4375,532.5781 286.75,533.6563 Q286.0625,534.7188 286.0625,536.8125 Q286.0625,538.9063 286.75,539.9844 Q287.4375,541.0469 288.7813,541.0469 Q289.4063,541.0469 290,540.7813 Q290.5938,540.5 291.2188,539.9219 L291.2188,542.6406 Z " fill="#000000"/><text fill="#000000" font-family="sans-serif" font-size="14" lengthAdjust="spacing" textLength="31" x="308.75" y="542.432">Pixel</text><line style="stroke:#181818;stroke-width:0.5;" x1="192" x2="424" y1="553" y2="553"/><line style="stroke:#181818;stroke-width:0.5;" x1="192" x2="424" y1="561" y2="561"/><ellipse cx="202" cy="576.034" fill="#84BE84" rx="3" ry="3" style="stroke:#038048;stroke-width:1.0;"/><text fill="#000000" font-family="sans-serif" font-size="14" lengthAdjust="spacing" textLength="208" x="211" y="579.9659">establecerColor(color: int): void</text><ellipse cx="202" cy="595.1019" fill="#84BE84" rx="3" ry="3" style="stroke:#038048;stroke-width:1.0;"/><text fill="#000000" font-family="sans-serif" font-size="14" lengthAdjust="spacing" textLength="122" x="211" y="599.0339">obtenerColor(): int</text></g><!--class Coordenada--><g id="elem_Coordenada"><rect codeLine="28" fill="#F1F1F1" height="143.3396" id="Coordenada" rx="2.5" ry="2.5" style="stroke:#181818;stroke-width:0.5;" width="190" x="547" y="318"/><ellipse cx="596.75" cy="334" fill="#ADD1B2" rx="11" ry="11" style="stroke:#181818;stroke-width:1.0;"/><path d="M599.7188,339.6406 Q599.1406,339.9375 598.5,340.0781 Q597.8594,340.2344 597.1563,340.2344 Q594.6563,340.2344 593.3281,338.5938 Q592.0156,336.9375 592.0156,333.8125 Q592.0156,330.6875 593.3281,329.0313 Q594.6563,327.375 597.1563,327.375 Q597.8594,327.375 598.5,327.5313 Q599.1563,327.6875 599.7188,327.9844 L599.7188,330.7031 Q599.0938,330.125 598.5,329.8594 Q597.9063,329.5781 597.2813,329.5781 Q595.9375,329.5781 595.25,330.6563 Q594.5625,331.7188 594.5625,333.8125 Q594.5625,335.9063 595.25,336.9844 Q595.9375,338.0469 597.2813,338.0469 Q597.9063,338.0469 598.5,337.7813 Q599.0938,337.5 599.7188,336.9219 L599.7188,339.6406 Z " fill="#000000"/><text fill="#000000" font-family="sans-serif" font-size="14" lengthAdjust="spacing" textLength="82" x="617.25" y="339.432">Coordenada</text><line style="stroke:#181818;stroke-width:0.5;" x1="548" x2="736" y1="350" y2="350"/><line style="stroke:#181818;stroke-width:0.5;" x1="548" x2="736" y1="358" y2="358"/><ellipse cx="558" cy="373.034" fill="#84BE84" rx="3" ry="3" style="stroke:#038048;stroke-width:1.0;"/><text fill="#000000" font-family="sans-serif" font-size="14" lengthAdjust="spacing" textLength="164" x="567" y="376.9659">Coordenada(x: int, y: int)</text><ellipse cx="558" cy="392.1019" fill="#84BE84" rx="3" ry="3" style="stroke:#038048;stroke-width:1.0;"/><text fill="#000000" font-family="sans-serif" font-size="14" lengthAdjust="spacing" textLength="95" x="567" y="396.0339">obtenerX(): int</text><ellipse cx="558" cy="411.1698" fill="#84BE84" rx="3" ry="3" style="stroke:#038048;stroke-width:1.0;"/><text fill="#000000" font-family="sans-serif" font-size="14" lengthAdjust="spacing" textLength="95" x="567" y="415.1018">obtenerY(): int</text><ellipse cx="558" cy="430.2377" fill="#84BE84" rx="3" ry="3" style="stroke:#038048;stroke-width:1.0;"/><text fill="#000000" font-family="sans-serif" font-size="14" lengthAdjust="spacing" textLength="155" x="567" y="434.1697">establecerX(x: int): void</text><ellipse cx="558" cy="449.3056" fill="#84BE84" rx="3" ry="3" style="stroke:#038048;stroke-width:1.0;"/><text fill="#000000" font-family="sans-serif" font-size="14" lengthAdjust="spacing" textLength="155" x="567" y="453.2376">establecerY(y: int): void</text></g><!--link GestorPantalla to PantallaEntrelazada--><g id="link_GestorPantalla_PantallaEntrelazada"><path codeLine="36" d="M606.68,93.35 C588.78,114.83 570.932,136.2214 553.042,157.6814 " fill="none" id="GestorPantalla-to-PantallaEntrelazada" style="stroke:#181818;stroke-width:1.0;"/><polygon fill="#181818" points="549.2,162.29,558.0353,157.9384,552.4016,158.4495,551.8905,152.8158,549.2,162.29" style="stroke:#181818;stroke-width:1.0;"/></g><!--reverse link ListaCircularFrames to PantallaEntrelazada--><g id="link_ListaCircularFrames_PantallaEntrelazada"><path codeLine="37" d="M281.05,205.5 C292.56,205.5 298.07,205.5 309.58,205.5 " fill="none" id="ListaCircularFrames-backto-PantallaEntrelazada" style="stroke:#181818;stroke-width:1.0;"/><polygon fill="#181818" points="275.05,205.5,284.05,209.5,280.05,205.5,284.05,201.5,275.05,205.5" style="stroke:#181818;stroke-width:1.0;"/></g><!--link PantallaEntrelazada to Frame--><g id="link_PantallaEntrelazada_Frame"><path codeLine="38" d="M466.22,248.71 C433.06,278.01 393.5568,312.9177 360.3768,342.2277 " fill="none" id="PantallaEntrelazada-to-Frame" style="stroke:#181818;stroke-width:1.0;stroke-dasharray:7.0,7.0;"/><polygon fill="#181818" points="355.88,346.2,365.2733,343.2394,359.6273,342.8898,359.977,337.2437,355.88,346.2" style="stroke:#181818;stroke-width:1.0;"/></g><!--link ListaCircularFrames to Frame--><g id="link_ListaCircularFrames_Frame"><path codeLine="39" d="M188.41,258.17 C213.96,286.02 241.0431,315.5295 265.1431,341.7895 " fill="none" id="ListaCircularFrames-to-Frame" style="stroke:#181818;stroke-width:1.0;"/><polygon fill="#181818" points="269.2,346.21,266.0616,336.8746,265.8192,342.5262,260.1676,342.2838,269.2,346.21" style="stroke:#181818;stroke-width:1.0;"/></g><!--link Frame to Pixel--><g id="link_Frame_Pixel"><path codeLine="40" d="M308,432.7 C308,459.53 308,488.13 308,514.94 " fill="none" id="Frame-to-Pixel" style="stroke:#181818;stroke-width:1.0;"/><polygon fill="#181818" points="308,520.94,312,511.94,308,515.94,304,511.94,308,520.94" style="stroke:#181818;stroke-width:1.0;"/></g><!--link Frame to Coordenada--><g id="link_Frame_Coordenada"><path codeLine="42" d="M512.18,389.5 C523.76,389.5 529.34,389.5 540.92,389.5 " fill="none" id="Frame-to-Coordenada" style="stroke:#181818;stroke-width:1.0;"/><polygon fill="#181818" points="546.92,389.5,537.92,385.5,541.92,389.5,537.92,393.5,546.92,389.5" style="stroke:#181818;stroke-width:1.0;"/></g><!--link PantallaEntrelazada to Coordenada--><g id="link_PantallaEntrelazada_Coordenada"><path codeLine="43" d="M543.69,248.71 C558.09,269.19 572.3289,289.4318 588.7189,312.7418 " fill="none" id="PantallaEntrelazada-to-Coordenada" style="stroke:#181818;stroke-width:1.0;"/><polygon fill="#181818" points="592.17,317.65,590.2655,307.987,589.2941,313.5599,583.7213,312.5885,592.17,317.65" style="stroke:#181818;stroke-width:1.0;"/></g><!--link GestorPantalla to Coordenada--><g id="link_GestorPantalla_Coordenada"><path codeLine="44" d="M693.38,93.08 C709.94,109.79 726.26,130.43 735,153 C751.86,196.51 749.22,213.55 735,258 C728.26,279.07 720.1527,294.6951 707.4627,313.0451 " fill="none" id="GestorPantalla-to-Coordenada" style="stroke:#181818;stroke-width:1.0;"/><polygon fill="#181818" points="704.05,317.98,712.459,312.8528,706.894,313.8676,705.8792,308.3025,704.05,317.98" style="stroke:#181818;stroke-width:1.0;"/></g><!--SRC=[hL91QiCm4Bpx5JegDCu3J0aKqvP23uPU4a8E6saR1Ae4QxaaAVrxPTcEb5Jab8ljdHtDZBKhDBGjUyNMMMh0ED0Qs4_1s0Fp6Emq2gH67L1pOIr9D22XOlNvUyw4rPOgfeoRLUpRAXbE4ng9f4v0V89_Yq84kydesJX23ISlSnTFktDea3v0AvcAzmc2tcQxsSOOxygxrOf4fu5U2Bwm7MF0dd0_OlopVrOi51ct9-4wqBr5OAIjnjARaKeWL-4r1Hw8vnoXlES5t3ewNKKoZRxyPr_t1locpK2PXNQKYrQZPWJu8N3dx3X8fcAhIIZ1rYaMewr6dJHIxAxvyQBhWrsjTodBPMu7YznUbjgJCvkI9I_aOZbEDxTSmNXe3pCVaeHn5CczFNhJaNU1TcKszZNdydUBFm00]--></g></svg>