<?xml version="1.0" encoding="us-ascii" standalone="no"?><svg xmlns="http://www.w3.org/2000/svg" xmlns:xlink="http://www.w3.org/1999/xlink" contentStyleType="text/css" height="747px" preserveAspectRatio="none" style="width:858px;height:747px;background:#FFFFFF;" version="1.1" viewBox="0 0 858 747" width="858px" zoomAndPan="magnify"><defs/><g><!--class Coordenada--><g id="elem_Coordenada"><rect codeLine="2" fill="#F1F1F1" height="181.4754" id="Coordenada" rx="2.5" ry="2.5" style="stroke:#181818;stroke-width:0.5;" width="190" x="552" y="394"/><ellipse cx="601.75" cy="410" fill="#ADD1B2" rx="11" ry="11" style="stroke:#181818;stroke-width:1.0;"/><path d="M604.7188,415.6406 Q604.1406,415.9375 603.5,416.0781 Q602.8594,416.2344 602.1563,416.2344 Q599.6563,416.2344 598.3281,414.5938 Q597.0156,412.9375 597.0156,409.8125 Q597.0156,406.6875 598.3281,405.0313 Q599.6563,403.375 602.1563,403.375 Q602.8594,403.375 603.5,403.5313 Q604.1563,403.6875 604.7188,403.9844 L604.7188,406.7031 Q604.0938,406.125 603.5,405.8594 Q602.9063,405.5781 602.2813,405.5781 Q600.9375,405.5781 600.25,406.6563 Q599.5625,407.7188 599.5625,409.8125 Q599.5625,411.9063 600.25,412.9844 Q600.9375,414.0469 602.2813,414.0469 Q602.9063,414.0469 603.5,413.7813 Q604.0938,413.5 604.7188,412.9219 L604.7188,415.6406 Z " fill="#000000"/><text fill="#000000" font-family="sans-serif" font-size="14" lengthAdjust="spacing" textLength="82" x="622.25" y="415.432">Coordenada</text><line style="stroke:#181818;stroke-width:0.5;" x1="553" x2="741" y1="426" y2="426"/><rect fill="none" height="6" style="stroke:#C82930;stroke-width:1.0;" width="6" x="560" y="438.034"/><text fill="#000000" font-family="sans-serif" font-size="14" lengthAdjust="spacing" textLength="33" x="572" y="444.9659">x: int</text><rect fill="none" height="6" style="stroke:#C82930;stroke-width:1.0;" width="6" x="560" y="457.1019"/><text fill="#000000" font-family="sans-serif" font-size="14" lengthAdjust="spacing" textLength="33" x="572" y="464.0339">y: int</text><line style="stroke:#181818;stroke-width:0.5;" x1="553" x2="741" y1="472.1358" y2="472.1358"/><ellipse cx="563" cy="487.1698" fill="#84BE84" rx="3" ry="3" style="stroke:#038048;stroke-width:1.0;"/><text fill="#000000" font-family="sans-serif" font-size="14" lengthAdjust="spacing" textLength="164" x="572" y="491.1018">Coordenada(x: int, y: int)</text><ellipse cx="563" cy="506.2377" fill="#84BE84" rx="3" ry="3" style="stroke:#038048;stroke-width:1.0;"/><text fill="#000000" font-family="sans-serif" font-size="14" lengthAdjust="spacing" textLength="95" x="572" y="510.1697">obtenerX(): int</text><ellipse cx="563" cy="525.3056" fill="#84BE84" rx="3" ry="3" style="stroke:#038048;stroke-width:1.0;"/><text fill="#000000" font-family="sans-serif" font-size="14" lengthAdjust="spacing" textLength="95" x="572" y="529.2376">obtenerY(): int</text><ellipse cx="563" cy="544.3735" fill="#84BE84" rx="3" ry="3" style="stroke:#038048;stroke-width:1.0;"/><text fill="#000000" font-family="sans-serif" font-size="14" lengthAdjust="spacing" textLength="155" x="572" y="548.3055">establecerX(x: int): void</text><ellipse cx="563" cy="563.4415" fill="#84BE84" rx="3" ry="3" style="stroke:#038048;stroke-width:1.0;"/><text fill="#000000" font-family="sans-serif" font-size="14" lengthAdjust="spacing" textLength="155" x="572" y="567.3734">establecerY(y: int): void</text></g><!--class Pixel--><g id="elem_Pixel"><rect codeLine="12" fill="#F1F1F1" height="105.2038" id="Pixel" rx="2.5" ry="2.5" style="stroke:#181818;stroke-width:0.5;" width="234" x="196" y="635"/><ellipse cx="293.25" cy="651" fill="#ADD1B2" rx="11" ry="11" style="stroke:#181818;stroke-width:1.0;"/><path d="M296.2188,656.6406 Q295.6406,656.9375 295,657.0781 Q294.3594,657.2344 293.6563,657.2344 Q291.1563,657.2344 289.8281,655.5938 Q288.5156,653.9375 288.5156,650.8125 Q288.5156,647.6875 289.8281,646.0313 Q291.1563,644.375 293.6563,644.375 Q294.3594,644.375 295,644.5313 Q295.6563,644.6875 296.2188,644.9844 L296.2188,647.7031 Q295.5938,647.125 295,646.8594 Q294.4063,646.5781 293.7813,646.5781 Q292.4375,646.5781 291.75,647.6563 Q291.0625,648.7188 291.0625,650.8125 Q291.0625,652.9063 291.75,653.9844 Q292.4375,655.0469 293.7813,655.0469 Q294.4063,655.0469 295,654.7813 Q295.5938,654.5 296.2188,653.9219 L296.2188,656.6406 Z " fill="#000000"/><text fill="#000000" font-family="sans-serif" font-size="14" lengthAdjust="spacing" textLength="31" x="313.75" y="656.432">Pixel</text><line style="stroke:#181818;stroke-width:0.5;" x1="197" x2="429" y1="667" y2="667"/><rect fill="none" height="6" style="stroke:#C82930;stroke-width:1.0;" width="6" x="204" y="679.034"/><text fill="#000000" font-family="sans-serif" font-size="14" lengthAdjust="spacing" textLength="59" x="216" y="685.9659">color: int</text><line style="stroke:#181818;stroke-width:0.5;" x1="197" x2="429" y1="694.0679" y2="694.0679"/><ellipse cx="207" cy="709.1019" fill="#84BE84" rx="3" ry="3" style="stroke:#038048;stroke-width:1.0;"/><text fill="#000000" font-family="sans-serif" font-size="14" lengthAdjust="spacing" textLength="208" x="216" y="713.0339">establecerColor(color: int): void</text><ellipse cx="207" cy="728.1698" fill="#84BE84" rx="3" ry="3" style="stroke:#038048;stroke-width:1.0;"/><text fill="#000000" font-family="sans-serif" font-size="14" lengthAdjust="spacing" textLength="122" x="216" y="732.1018">obtenerColor(): int</text></g><!--class Frame--><g id="elem_Frame"><rect codeLine="18" fill="#F1F1F1" height="105.2038" id="Frame" rx="2.5" ry="2.5" style="stroke:#181818;stroke-width:0.5;" width="408" x="109" y="432"/><ellipse cx="287.75" cy="448" fill="#ADD1B2" rx="11" ry="11" style="stroke:#181818;stroke-width:1.0;"/><path d="M290.7188,453.6406 Q290.1406,453.9375 289.5,454.0781 Q288.8594,454.2344 288.1563,454.2344 Q285.6563,454.2344 284.3281,452.5938 Q283.0156,450.9375 283.0156,447.8125 Q283.0156,444.6875 284.3281,443.0313 Q285.6563,441.375 288.1563,441.375 Q288.8594,441.375 289.5,441.5313 Q290.1563,441.6875 290.7188,441.9844 L290.7188,444.7031 Q290.0938,444.125 289.5,443.8594 Q288.9063,443.5781 288.2813,443.5781 Q286.9375,443.5781 286.25,444.6563 Q285.5625,445.7188 285.5625,447.8125 Q285.5625,449.9063 286.25,450.9844 Q286.9375,452.0469 288.2813,452.0469 Q288.9063,452.0469 289.5,451.7813 Q290.0938,451.5 290.7188,450.9219 L290.7188,453.6406 Z " fill="#000000"/><text fill="#000000" font-family="sans-serif" font-size="14" lengthAdjust="spacing" textLength="42" x="308.25" y="453.432">Frame</text><line style="stroke:#181818;stroke-width:0.5;" x1="110" x2="516" y1="464" y2="464"/><rect fill="none" height="6" style="stroke:#C82930;stroke-width:1.0;" width="6" x="117" y="476.034"/><text fill="#000000" font-family="sans-serif" font-size="14" lengthAdjust="spacing" textLength="106" x="129" y="482.9659">pixeles: Pixel[][]</text><line style="stroke:#181818;stroke-width:0.5;" x1="110" x2="516" y1="491.0679" y2="491.0679"/><ellipse cx="120" cy="506.1019" fill="#84BE84" rx="3" ry="3" style="stroke:#038048;stroke-width:1.0;"/><text fill="#000000" font-family="sans-serif" font-size="14" lengthAdjust="spacing" textLength="382" x="129" y="510.0339">establecerPixel(coordenada: Coordenada, color: int): void</text><ellipse cx="120" cy="525.1698" fill="#84BE84" rx="3" ry="3" style="stroke:#038048;stroke-width:1.0;"/><text fill="#000000" font-family="sans-serif" font-size="14" lengthAdjust="spacing" textLength="301" x="129" y="529.1018">obtenerPixel(coordenada: Coordenada): Pixel</text></g><!--class ListaCircularFrames--><g id="elem_ListaCircularFrames"><rect codeLine="24" fill="#F1F1F1" height="162.4075" id="ListaCircularFrames" rx="2.5" ry="2.5" style="stroke:#181818;stroke-width:0.5;" width="256" x="7" y="172"/><ellipse cx="64.25" cy="188" fill="#ADD1B2" rx="11" ry="11" style="stroke:#181818;stroke-width:1.0;"/><path d="M67.2188,193.6406 Q66.6406,193.9375 66,194.0781 Q65.3594,194.2344 64.6563,194.2344 Q62.1563,194.2344 60.8281,192.5938 Q59.5156,190.9375 59.5156,187.8125 Q59.5156,184.6875 60.8281,183.0313 Q62.1563,181.375 64.6563,181.375 Q65.3594,181.375 66,181.5313 Q66.6563,181.6875 67.2188,181.9844 L67.2188,184.7031 Q66.5938,184.125 66,183.8594 Q65.4063,183.5781 64.7813,183.5781 Q63.4375,183.5781 62.75,184.6563 Q62.0625,185.7188 62.0625,187.8125 Q62.0625,189.9063 62.75,190.9844 Q63.4375,192.0469 64.7813,192.0469 Q65.4063,192.0469 66,191.7813 Q66.5938,191.5 67.2188,190.9219 L67.2188,193.6406 Z " fill="#000000"/><text fill="#000000" font-family="sans-serif" font-size="14" lengthAdjust="spacing" textLength="133" x="84.75" y="193.432">ListaCircularFrames</text><line style="stroke:#181818;stroke-width:0.5;" x1="8" x2="262" y1="204" y2="204"/><rect fill="none" height="6" style="stroke:#C82930;stroke-width:1.0;" width="6" x="15" y="216.034"/><text fill="#000000" font-family="sans-serif" font-size="14" lengthAdjust="spacing" textLength="107" x="27" y="222.9659">frames: Frame[]</text><rect fill="none" height="6" style="stroke:#C82930;stroke-width:1.0;" width="6" x="15" y="235.1019"/><text fill="#000000" font-family="sans-serif" font-size="14" lengthAdjust="spacing" textLength="109" x="27" y="242.0339">indiceActual: int</text><line style="stroke:#181818;stroke-width:0.5;" x1="8" x2="262" y1="250.1358" y2="250.1358"/><ellipse cx="18" cy="265.1698" fill="#84BE84" rx="3" ry="3" style="stroke:#038048;stroke-width:1.0;"/><text fill="#000000" font-family="sans-serif" font-size="14" lengthAdjust="spacing" textLength="230" x="27" y="269.1018">agregarFrame(frame: Frame): void</text><ellipse cx="18" cy="284.2377" fill="#84BE84" rx="3" ry="3" style="stroke:#038048;stroke-width:1.0;"/><text fill="#000000" font-family="sans-serif" font-size="14" lengthAdjust="spacing" textLength="153" x="27" y="288.1697">obtenerActual(): Frame</text><ellipse cx="18" cy="303.3056" fill="#84BE84" rx="3" ry="3" style="stroke:#038048;stroke-width:1.0;"/><text fill="#000000" font-family="sans-serif" font-size="14" lengthAdjust="spacing" textLength="107" x="27" y="307.2376">siguiente(): void</text><ellipse cx="18" cy="322.3735" fill="#84BE84" rx="3" ry="3" style="stroke:#038048;stroke-width:1.0;"/><text fill="#000000" font-family="sans-serif" font-size="14" lengthAdjust="spacing" textLength="85" x="27" y="326.3055">tama&#241;o(): int</text></g><!--class PantallaEntrelazada--><g id="elem_PantallaEntrelazada"><rect codeLine="33" fill="#F1F1F1" height="143.3396" id="PantallaEntrelazada" rx="2.5" ry="2.5" style="stroke:#181818;stroke-width:0.5;" width="430" x="298" y="181.5"/><ellipse cx="441.75" cy="197.5" fill="#ADD1B2" rx="11" ry="11" style="stroke:#181818;stroke-width:1.0;"/><path d="M444.7188,203.1406 Q444.1406,203.4375 443.5,203.5781 Q442.8594,203.7344 442.1563,203.7344 Q439.6563,203.7344 438.3281,202.0938 Q437.0156,200.4375 437.0156,197.3125 Q437.0156,194.1875 438.3281,192.5313 Q439.6563,190.875 442.1563,190.875 Q442.8594,190.875 443.5,191.0313 Q444.1563,191.1875 444.7188,191.4844 L444.7188,194.2031 Q444.0938,193.625 443.5,193.3594 Q442.9063,193.0781 442.2813,193.0781 Q440.9375,193.0781 440.25,194.1563 Q439.5625,195.2188 439.5625,197.3125 Q439.5625,199.4063 440.25,200.4844 Q440.9375,201.5469 442.2813,201.5469 Q442.9063,201.5469 443.5,201.2813 Q444.0938,201 444.7188,200.4219 L444.7188,203.1406 Z " fill="#000000"/><text fill="#000000" font-family="sans-serif" font-size="14" lengthAdjust="spacing" textLength="134" x="462.25" y="202.932">PantallaEntrelazada</text><line style="stroke:#181818;stroke-width:0.5;" x1="299" x2="727" y1="213.5" y2="213.5"/><rect fill="none" height="6" style="stroke:#C82930;stroke-width:1.0;" width="6" x="306" y="225.534"/><text fill="#000000" font-family="sans-serif" font-size="14" lengthAdjust="spacing" textLength="218" x="318" y="232.4659">listaFrames: ListaCircularFrames</text><line style="stroke:#181818;stroke-width:0.5;" x1="299" x2="727" y1="240.5679" y2="240.5679"/><ellipse cx="309" cy="255.6019" fill="#84BE84" rx="3" ry="3" style="stroke:#038048;stroke-width:1.0;"/><text fill="#000000" font-family="sans-serif" font-size="14" lengthAdjust="spacing" textLength="382" x="318" y="259.5339">establecerPixel(coordenada: Coordenada, color: int): void</text><ellipse cx="309" cy="274.6698" fill="#84BE84" rx="3" ry="3" style="stroke:#038048;stroke-width:1.0;"/><text fill="#000000" font-family="sans-serif" font-size="14" lengthAdjust="spacing" textLength="181" x="318" y="278.6018">cambiarFrameActivo(): void</text><ellipse cx="309" cy="293.7377" fill="#84BE84" rx="3" ry="3" style="stroke:#038048;stroke-width:1.0;"/><text fill="#000000" font-family="sans-serif" font-size="14" lengthAdjust="spacing" textLength="241" x="318" y="297.6697">obtenerSalidaEntrelazada(): Pixel[][]</text><ellipse cx="309" cy="312.8056" fill="#84BE84" rx="3" ry="3" style="stroke:#038048;stroke-width:1.0;"/><text fill="#000000" font-family="sans-serif" font-size="14" lengthAdjust="spacing" textLength="404" x="318" y="316.7376">traducirCoordenada(coordenada: Coordenada): Coordenada</text></g><!--class GestorPantalla--><g id="elem_GestorPantalla"><rect codeLine="41" fill="#F1F1F1" height="105.2038" id="GestorPantalla" rx="2.5" ry="2.5" style="stroke:#181818;stroke-width:0.5;" width="408" x="443" y="7"/><ellipse cx="593.75" cy="23" fill="#ADD1B2" rx="11" ry="11" style="stroke:#181818;stroke-width:1.0;"/><path d="M596.7188,28.6406 Q596.1406,28.9375 595.5,29.0781 Q594.8594,29.2344 594.1563,29.2344 Q591.6563,29.2344 590.3281,27.5938 Q589.0156,25.9375 589.0156,22.8125 Q589.0156,19.6875 590.3281,18.0313 Q591.6563,16.375 594.1563,16.375 Q594.8594,16.375 595.5,16.5313 Q596.1563,16.6875 596.7188,16.9844 L596.7188,19.7031 Q596.0938,19.125 595.5,18.8594 Q594.9063,18.5781 594.2813,18.5781 Q592.9375,18.5781 592.25,19.6563 Q591.5625,20.7188 591.5625,22.8125 Q591.5625,24.9063 592.25,25.9844 Q592.9375,27.0469 594.2813,27.0469 Q594.9063,27.0469 595.5,26.7813 Q596.0938,26.5 596.7188,25.9219 L596.7188,28.6406 Z " fill="#000000"/><text fill="#000000" font-family="sans-serif" font-size="14" lengthAdjust="spacing" textLength="98" x="614.25" y="28.432">GestorPantalla</text><line style="stroke:#181818;stroke-width:0.5;" x1="444" x2="850" y1="39" y2="39"/><rect fill="none" height="6" style="stroke:#C82930;stroke-width:1.0;" width="6" x="451" y="51.034"/><text fill="#000000" font-family="sans-serif" font-size="14" lengthAdjust="spacing" textLength="197" x="463" y="57.9659">pantalla: PantallaEntrelazada</text><line style="stroke:#181818;stroke-width:0.5;" x1="444" x2="850" y1="66.0679" y2="66.0679"/><ellipse cx="454" cy="81.1019" fill="#84BE84" rx="3" ry="3" style="stroke:#038048;stroke-width:1.0;"/><text fill="#000000" font-family="sans-serif" font-size="14" lengthAdjust="spacing" textLength="382" x="463" y="85.0339">establecerPixel(coordenada: Coordenada, color: int): void</text><ellipse cx="454" cy="100.1698" fill="#84BE84" rx="3" ry="3" style="stroke:#038048;stroke-width:1.0;"/><text fill="#000000" font-family="sans-serif" font-size="14" lengthAdjust="spacing" textLength="115" x="463" y="104.1018">renderizar(): void</text></g><!--link GestorPantalla to PantallaEntrelazada--><g id="link_GestorPantalla_PantallaEntrelazada"><path codeLine="47" d="M610.91,112.07 C596.03,133.34 581.9806,153.4245 565.9306,176.3545 " fill="none" id="GestorPantalla-to-PantallaEntrelazada" style="stroke:#181818;stroke-width:1.0;"/><polygon fill="#181818" points="562.49,181.27,570.9279,176.1905,565.3572,177.1738,564.374,171.603,562.49,181.27" style="stroke:#181818;stroke-width:1.0;"/></g><!--reverse link ListaCircularFrames to PantallaEntrelazada--><g id="link_ListaCircularFrames_PantallaEntrelazada"><path codeLine="48" d="M269.09,253 C280.64,253 286.2,253 297.75,253 " fill="none" id="ListaCircularFrames-backto-PantallaEntrelazada" style="stroke:#181818;stroke-width:1.0;"/><polygon fill="#181818" points="263.09,253,272.09,257,268.09,253,272.09,249,263.09,253" style="stroke:#181818;stroke-width:1.0;"/></g><!--link PantallaEntrelazada to Frame--><g id="link_PantallaEntrelazada_Frame"><path codeLine="49" d="M451.36,324.73 C421.18,359.37 389.4309,395.7857 361.8709,427.4257 " fill="none" id="PantallaEntrelazada-to-Frame" style="stroke:#181818;stroke-width:1.0;stroke-dasharray:7.0,7.0;"/><polygon fill="#181818" points="357.93,431.95,366.8575,427.7908,361.2141,428.1797,360.8251,422.5363,357.93,431.95" style="stroke:#181818;stroke-width:1.0;"/></g><!--link ListaCircularFrames to Frame--><g id="link_ListaCircularFrames_Frame"><path codeLine="50" d="M197.26,334.27 C222.42,366.71 247.053,398.4687 269.373,427.2487 " fill="none" id="ListaCircularFrames-to-Frame" style="stroke:#181818;stroke-width:1.0;"/><polygon fill="#181818" points="273.05,431.99,270.6953,422.4268,269.9858,428.039,264.3736,427.3295,273.05,431.99" style="stroke:#181818;stroke-width:1.0;"/></g><!--link Frame to Pixel--><g id="link_Frame_Pixel"><path codeLine="51" d="M313,537 C313,567.01 313,598.74 313,628.78 " fill="none" id="Frame-to-Pixel" style="stroke:#181818;stroke-width:1.0;"/><polygon fill="#181818" points="313,634.78,317,625.78,313,629.78,309,625.78,313,634.78" style="stroke:#181818;stroke-width:1.0;"/></g><!--link Frame to Coordenada--><g id="link_Frame_Coordenada"><path codeLine="53" d="M517.18,484.5 C528.76,484.5 534.34,484.5 545.92,484.5 " fill="none" id="Frame-to-Coordenada" style="stroke:#181818;stroke-width:1.0;"/><polygon fill="#181818" points="551.92,484.5,542.92,480.5,546.92,484.5,542.92,488.5,551.92,484.5" style="stroke:#181818;stroke-width:1.0;"/></g><!--link PantallaEntrelazada to Coordenada--><g id="link_PantallaEntrelazada_Coordenada"><path codeLine="54" d="M554.3,324.73 C567.06,346.59 578.2757,365.788 591.6757,388.748 " fill="none" id="PantallaEntrelazada-to-Coordenada" style="stroke:#181818;stroke-width:1.0;"/><polygon fill="#181818" points="594.7,393.93,593.6182,384.1407,592.1797,389.6117,586.7088,388.1732,594.7,393.93" style="stroke:#181818;stroke-width:1.0;"/></g><!--link GestorPantalla to Coordenada--><g id="link_GestorPantalla_Coordenada"><path codeLine="55" d="M706.68,112.02 C722.54,129.3 737.59,149.86 746,172 C771.57,239.31 766.76,265.06 746,334 C739.81,354.57 732.8723,369.7803 721.5023,388.5203 " fill="none" id="GestorPantalla-to-Coordenada" style="stroke:#181818;stroke-width:1.0;"/><polygon fill="#181818" points="718.39,393.65,726.4782,388.0303,720.9836,389.3753,719.6387,383.8806,718.39,393.65" style="stroke:#181818;stroke-width:1.0;"/></g><!--SRC=[hLHBRi8m4Dtd55awAk40KOLKeT9D5qZT524MWpr5banSEGu2gXwgP-Z5wjYJngGkAtQntvjvRpuELz0q-Lnh8x060Vb7bkTbVgnoMLl_UUe_xo8Q2uG9eOM7zTPYZUQL5KC8tQtYEsmiR1NoZXhoEF2WfHYXAtQwG3-pZ7kxItb4HKwvLjgaSiyxW0rmh46k0eMS_MPV6DWZPN_lbB2fWkHwizwCLFozK-aRKqLDckHNrQ-55gGuk7gMJdCk3MyL66-n8Ozl_b05tzvWwHI5vFZ0RGjgQ0xi3EueclamYagu2x5TSpp3GutSjH9hYomEiB27xo_zfuzBg2qe1O-rDQZWF6oNwcfPaEr4OJVeCOVzLb8-LueyQ9OeyWMK5B51Len7RGs8baiJxVw_8niEGnUUN1tQzBterugELQf9DwZUO2tGo3CO5ZsUaPLIbBEaVcfmfNBarAXIvAcOpcXjKclhXGCStbfmulSzYtv5zqwKU1UtRPcqFUPSbflz0000]--></g></svg>