<svg xmlns="http://www.w3.org/2000/svg" xmlns:xlink="http://www.w3.org/1999/xlink" contentStyleType="text/css" height="1124px" preserveAspectRatio="none" style="width:653px;height:1124px;background:#FFFFFF;" version="1.1" viewBox="0 0 653 1124" width="653px" zoomAndPan="magnify"><defs/><g><!--class Pixel--><g id="elem_Pixel"><rect codeLine="1" fill="#F1F1F1" height="96.8906" id="Pixel" rx="2.5" ry="2.5" style="stroke:#181818;stroke-width:0.5;" width="152.0479" x="199.6" y="1021"/><ellipse cx="254.8139" cy="1037" fill="#ADD1B2" rx="11" ry="11" style="stroke:#181818;stroke-width:1;"/><path d="M257.7826,1042.6406 Q257.2045,1042.9375 256.5639,1043.0781 Q255.9232,1043.2344 255.2201,1043.2344 Q252.7201,1043.2344 251.392,1041.5938 Q250.0795,1039.9375 250.0795,1036.8125 Q250.0795,1033.6875 251.392,1032.0313 Q252.7201,1030.375 255.2201,1030.375 Q255.9232,1030.375 256.5639,1030.5313 Q257.2201,1030.6875 257.7826,1030.9844 L257.7826,1033.7031 Q257.1576,1033.125 256.5639,1032.8594 Q255.9701,1032.5781 255.3451,1032.5781 Q254.0014,1032.5781 253.3139,1033.6563 Q252.6264,1034.7188 252.6264,1036.8125 Q252.6264,1038.9063 253.3139,1039.9844 Q254.0014,1041.0469 255.3451,1041.0469 Q255.9701,1041.0469 256.5639,1040.7813 Q257.1576,1040.5 257.7826,1039.9219 L257.7826,1042.6406 Z " fill="#000000"/><text fill="#000000" font-family="sans-serif" font-size="14" lengthAdjust="spacing" textLength="33.1201" x="275.3139" y="1041.8467">Pixel</text><line style="stroke:#181818;stroke-width:0.5;" x1="200.6" x2="350.6479" y1="1053" y2="1053"/><rect fill="none" height="6" style="stroke:#C82930;stroke-width:1;" width="6" x="207.6" y="1063.6484"/><text fill="#000000" font-family="sans-serif" font-size="14" lengthAdjust="spacing" textLength="57.1758" x="219.6" y="1069.9951">int color</text><line style="stroke:#181818;stroke-width:0.5;" x1="200.6" x2="350.6479" y1="1077.2969" y2="1077.2969"/><ellipse cx="210.6" cy="1090.9453" fill="#84BE84" rx="3" ry="3" style="stroke:#038048;stroke-width:1;"/><text fill="#000000" font-family="sans-serif" font-size="14" lengthAdjust="spacing" textLength="126.0479" x="219.6" y="1094.292">setColor(int color)</text><ellipse cx="210.6" cy="1107.2422" fill="#84BE84" rx="3" ry="3" style="stroke:#038048;stroke-width:1;"/><text fill="#000000" font-family="sans-serif" font-size="14" lengthAdjust="spacing" textLength="97.8838" x="219.6" y="1110.5889">getColor(): int</text></g><!--class Frame--><g id="elem_Frame"><rect codeLine="7" fill="#F1F1F1" height="162.0781" id="Frame" rx="2.5" ry="2.5" style="stroke:#181818;stroke-width:0.5;" width="280.4268" x="135.6" y="782"/><ellipse cx="249.244" cy="798" fill="#ADD1B2" rx="11" ry="11" style="stroke:#181818;stroke-width:1;"/><path d="M252.2128,803.6406 Q251.6347,803.9375 250.994,804.0781 Q250.3534,804.2344 249.6503,804.2344 Q247.1503,804.2344 245.8222,802.5938 Q244.5097,800.9375 244.5097,797.8125 Q244.5097,794.6875 245.8222,793.0313 Q247.1503,791.375 249.6503,791.375 Q250.3534,791.375 250.994,791.5313 Q251.6503,791.6875 252.2128,791.9844 L252.2128,794.7031 Q251.5878,794.125 250.994,793.8594 Q250.4003,793.5781 249.7753,793.5781 Q248.4315,793.5781 247.744,794.6563 Q247.0565,795.7188 247.0565,797.8125 Q247.0565,799.9063 247.744,800.9844 Q248.4315,802.0469 249.7753,802.0469 Q250.4003,802.0469 250.994,801.7813 Q251.5878,801.5 252.2128,800.9219 L252.2128,803.6406 Z " fill="#000000"/><text fill="#000000" font-family="sans-serif" font-size="14" lengthAdjust="spacing" textLength="44.6387" x="269.744" y="802.8467">Frame</text><line style="stroke:#181818;stroke-width:0.5;" x1="136.6" x2="415.0268" y1="814" y2="814"/><rect fill="none" height="6" style="stroke:#C82930;stroke-width:1;" width="6" x="143.6" y="824.6484"/><text fill="#000000" font-family="sans-serif" font-size="14" lengthAdjust="spacing" textLength="100.2764" x="155.6" y="830.9951">Pixel[][] pixels</text><rect fill="none" height="6" style="stroke:#C82930;stroke-width:1;" width="6" x="143.6" y="840.9453"/><text fill="#000000" font-family="sans-serif" font-size="14" lengthAdjust="spacing" textLength="61.291" x="155.6" y="847.292">int width</text><rect fill="none" height="6" style="stroke:#C82930;stroke-width:1;" width="6" x="143.6" y="857.2422"/><text fill="#000000" font-family="sans-serif" font-size="14" lengthAdjust="spacing" textLength="67.3271" x="155.6" y="863.5889">int height</text><line style="stroke:#181818;stroke-width:0.5;" x1="136.6" x2="415.0268" y1="870.8906" y2="870.8906"/><ellipse cx="146.6" cy="884.5391" fill="#84BE84" rx="3" ry="3" style="stroke:#038048;stroke-width:1;"/><text fill="#000000" font-family="sans-serif" font-size="14" lengthAdjust="spacing" textLength="193.0811" x="155.6" y="887.8857">Frame(int width, int height)</text><ellipse cx="146.6" cy="900.8359" fill="#84BE84" rx="3" ry="3" style="stroke:#038048;stroke-width:1;"/><text fill="#000000" font-family="sans-serif" font-size="14" lengthAdjust="spacing" textLength="254.4268" x="155.6" y="904.1826">establecerPixel(int x, int y, int color)</text><ellipse cx="146.6" cy="917.1328" fill="#84BE84" rx="3" ry="3" style="stroke:#038048;stroke-width:1;"/><text fill="#000000" font-family="sans-serif" font-size="14" lengthAdjust="spacing" textLength="180.1953" x="155.6" y="920.4795">getPixel(int x, int y): Pixel</text><ellipse cx="146.6" cy="933.4297" fill="#84BE84" rx="3" ry="3" style="stroke:#038048;stroke-width:1;"/><text fill="#000000" font-family="sans-serif" font-size="14" lengthAdjust="spacing" textLength="104.0908" x="155.6" y="936.7764">limpiarFrame()</text></g><!--class Buffer--><g id="elem_Buffer"><rect codeLine="17" fill="#F1F1F1" height="129.4844" id="Buffer" rx="2.5" ry="2.5" style="stroke:#181818;stroke-width:0.5;" width="217.1465" x="167.1" y="576"/><ellipse cx="250.0712" cy="592" fill="#ADD1B2" rx="11" ry="11" style="stroke:#181818;stroke-width:1;"/><path d="M253.0399,597.6406 Q252.4618,597.9375 251.8212,598.0781 Q251.1806,598.2344 250.4774,598.2344 Q247.9774,598.2344 246.6493,596.5938 Q245.3368,594.9375 245.3368,591.8125 Q245.3368,588.6875 246.6493,587.0313 Q247.9774,585.375 250.4774,585.375 Q251.1806,585.375 251.8212,585.5313 Q252.4774,585.6875 253.0399,585.9844 L253.0399,588.7031 Q252.4149,588.125 251.8212,587.8594 Q251.2274,587.5781 250.6024,587.5781 Q249.2587,587.5781 248.5712,588.6563 Q247.8837,589.7188 247.8837,591.8125 Q247.8837,593.9063 248.5712,594.9844 Q249.2587,596.0469 250.6024,596.0469 Q251.2274,596.0469 251.8212,595.7813 Q252.4149,595.5 253.0399,594.9219 L253.0399,597.6406 Z " fill="#000000"/><text fill="#000000" font-family="sans-serif" font-size="14" lengthAdjust="spacing" textLength="42.7041" x="270.5712" y="596.8467">Buffer</text><line style="stroke:#181818;stroke-width:0.5;" x1="168.1" x2="383.2465" y1="608" y2="608"/><rect fill="none" height="6" style="stroke:#C82930;stroke-width:1;" width="6" x="175.1" y="618.6484"/><text fill="#000000" font-family="sans-serif" font-size="14" lengthAdjust="spacing" textLength="145.8311" x="187.1" y="624.9951">List&lt;Frame&gt; frames</text><rect fill="none" height="6" style="stroke:#C82930;stroke-width:1;" width="6" x="175.1" y="634.9453"/><text fill="#000000" font-family="sans-serif" font-size="14" lengthAdjust="spacing" textLength="112.5469" x="187.1" y="641.292">int currentIndex</text><line style="stroke:#181818;stroke-width:0.5;" x1="168.1" x2="383.2465" y1="648.5938" y2="648.5938"/><ellipse cx="178.1" cy="662.2422" fill="#84BE84" rx="3" ry="3" style="stroke:#038048;stroke-width:1;"/><text fill="#000000" font-family="sans-serif" font-size="14" lengthAdjust="spacing" textLength="191.1465" x="187.1" y="665.5889">Buffer(int width, int height)</text><ellipse cx="178.1" cy="678.5391" fill="#84BE84" rx="3" ry="3" style="stroke:#038048;stroke-width:1;"/><text fill="#000000" font-family="sans-serif" font-size="14" lengthAdjust="spacing" textLength="185.4932" x="187.1" y="681.8857">getCurrentFrame(): Frame</text><ellipse cx="178.1" cy="694.8359" fill="#84BE84" rx="3" ry="3" style="stroke:#038048;stroke-width:1;"/><text fill="#000000" font-family="sans-serif" font-size="14" lengthAdjust="spacing" textLength="99.8936" x="187.1" y="698.1826">toggleFrame()</text></g><!--class Manager--><g id="elem_Manager"><rect codeLine="25" fill="#F1F1F1" height="96.8906" id="Manager" rx="2.5" ry="2.5" style="stroke:#181818;stroke-width:0.5;" width="280.4268" x="135.6" y="402"/><ellipse cx="240.8803" cy="418" fill="#ADD1B2" rx="11" ry="11" style="stroke:#181818;stroke-width:1;"/><path d="M243.849,423.6406 Q243.2709,423.9375 242.6303,424.0781 Q241.9896,424.2344 241.2865,424.2344 Q238.7865,424.2344 237.4584,422.5938 Q236.1459,420.9375 236.1459,417.8125 Q236.1459,414.6875 237.4584,413.0313 Q238.7865,411.375 241.2865,411.375 Q241.9896,411.375 242.6303,411.5313 Q243.2865,411.6875 243.849,411.9844 L243.849,414.7031 Q243.224,414.125 242.6303,413.8594 Q242.0365,413.5781 241.4115,413.5781 Q240.0678,413.5781 239.3803,414.6563 Q238.6928,415.7188 238.6928,417.8125 Q238.6928,419.9063 239.3803,420.9844 Q240.0678,422.0469 241.4115,422.0469 Q242.0365,422.0469 242.6303,421.7813 Q243.224,421.5 243.849,420.9219 L243.849,423.6406 Z " fill="#000000"/><text fill="#000000" font-family="sans-serif" font-size="14" lengthAdjust="spacing" textLength="61.3662" x="261.3803" y="422.8467">Manager</text><line style="stroke:#181818;stroke-width:0.5;" x1="136.6" x2="415.0268" y1="434" y2="434"/><rect fill="none" height="6" style="stroke:#C82930;stroke-width:1;" width="6" x="143.6" y="444.6484"/><text fill="#000000" font-family="sans-serif" font-size="14" lengthAdjust="spacing" textLength="89.1406" x="155.6" y="450.9951">Buffer buffer</text><line style="stroke:#181818;stroke-width:0.5;" x1="136.6" x2="415.0268" y1="458.2969" y2="458.2969"/><ellipse cx="146.6" cy="471.9453" fill="#84BE84" rx="3" ry="3" style="stroke:#038048;stroke-width:1;"/><text fill="#000000" font-family="sans-serif" font-size="14" lengthAdjust="spacing" textLength="161.4307" x="155.6" y="475.292">Manager(Buffer buffer)</text><ellipse cx="146.6" cy="488.2422" fill="#84BE84" rx="3" ry="3" style="stroke:#038048;stroke-width:1;"/><text fill="#000000" font-family="sans-serif" font-size="14" lengthAdjust="spacing" textLength="254.4268" x="155.6" y="491.5889">establecerPixel(int x, int y, int color)</text></g><!--class Node--><g id="elem_Node"><rect codeLine="31" fill="#F1F1F1" height="96.8906" id="Node" rx="2.5" ry="2.5" style="stroke:#181818;stroke-width:0.5;" width="275.6758" x="243.6" y="148"/><ellipse cx="358.9188" cy="164" fill="#ADD1B2" rx="11" ry="11" style="stroke:#181818;stroke-width:1;"/><path d="M361.8876,169.6406 Q361.3095,169.9375 360.6688,170.0781 Q360.0282,170.2344 359.3251,170.2344 Q356.8251,170.2344 355.497,168.5938 Q354.1845,166.9375 354.1845,163.8125 Q354.1845,160.6875 355.497,159.0313 Q356.8251,157.375 359.3251,157.375 Q360.0282,157.375 360.6688,157.5313 Q361.3251,157.6875 361.8876,157.9844 L361.8876,160.7031 Q361.2626,160.125 360.6688,159.8594 Q360.0751,159.5781 359.4501,159.5781 Q358.1063,159.5781 357.4188,160.6563 Q356.7313,161.7188 356.7313,163.8125 Q356.7313,165.9063 357.4188,166.9844 Q358.1063,168.0469 359.4501,168.0469 Q360.0751,168.0469 360.6688,167.7813 Q361.2626,167.5 361.8876,166.9219 L361.8876,169.6406 Z " fill="#000000"/><text fill="#000000" font-family="sans-serif" font-size="14" lengthAdjust="spacing" textLength="36.5381" x="379.4188" y="168.8467">Node</text><line style="stroke:#181818;stroke-width:0.5;" x1="244.6" x2="518.2758" y1="180" y2="180"/><rect fill="none" height="6" style="stroke:#C82930;stroke-width:1;" width="6" x="251.6" y="190.6484"/><text fill="#000000" font-family="sans-serif" font-size="14" lengthAdjust="spacing" textLength="128.7412" x="263.6" y="196.9951">Manager manager</text><line style="stroke:#181818;stroke-width:0.5;" x1="244.6" x2="518.2758" y1="204.2969" y2="204.2969"/><ellipse cx="254.6" cy="217.9453" fill="#84BE84" rx="3" ry="3" style="stroke:#038048;stroke-width:1;"/><text fill="#000000" font-family="sans-serif" font-size="14" lengthAdjust="spacing" textLength="176.2031" x="263.6" y="221.292">Node(Manager manager)</text><ellipse cx="254.6" cy="234.2422" fill="#84BE84" rx="3" ry="3" style="stroke:#038048;stroke-width:1;"/><text fill="#000000" font-family="sans-serif" font-size="14" lengthAdjust="spacing" textLength="249.6758" x="263.6" y="237.5889">actualizarPixel(int x, int y, int color)</text></g><!--class Renderer--><g id="elem_Renderer"><rect codeLine="37" fill="#F1F1F1" height="96.8906" id="Renderer" rx="2.5" ry="2.5" style="stroke:#181818;stroke-width:0.5;" width="190.9033" x="455.1" y="275"/><ellipse cx="513.8822" cy="291" fill="#ADD1B2" rx="11" ry="11" style="stroke:#181818;stroke-width:1;"/><path d="M516.851,296.6406 Q516.2729,296.9375 515.6322,297.0781 Q514.9916,297.2344 514.2885,297.2344 Q511.7885,297.2344 510.4604,295.5938 Q509.1479,293.9375 509.1479,290.8125 Q509.1479,287.6875 510.4604,286.0313 Q511.7885,284.375 514.2885,284.375 Q514.9916,284.375 515.6322,284.5313 Q516.2885,284.6875 516.851,284.9844 L516.851,287.7031 Q516.226,287.125 515.6322,286.8594 Q515.0385,286.5781 514.4135,286.5781 Q513.0697,286.5781 512.3822,287.6563 Q511.6947,288.7188 511.6947,290.8125 Q511.6947,292.9063 512.3822,293.9844 Q513.0697,295.0469 514.4135,295.0469 Q515.0385,295.0469 515.6322,294.7813 Q516.226,294.5 516.851,293.9219 L516.851,296.6406 Z " fill="#000000"/><text fill="#000000" font-family="sans-serif" font-size="14" lengthAdjust="spacing" textLength="64.8389" x="534.3822" y="295.8467">Renderer</text><line style="stroke:#181818;stroke-width:0.5;" x1="456.1" x2="645.0033" y1="307" y2="307"/><rect fill="none" height="6" style="stroke:#C82930;stroke-width:1;" width="6" x="463.1" y="317.6484"/><text fill="#000000" font-family="sans-serif" font-size="14" lengthAdjust="spacing" textLength="89.1406" x="475.1" y="323.9951">Buffer buffer</text><line style="stroke:#181818;stroke-width:0.5;" x1="456.1" x2="645.0033" y1="331.2969" y2="331.2969"/><ellipse cx="466.1" cy="344.9453" fill="#84BE84" rx="3" ry="3" style="stroke:#038048;stroke-width:1;"/><text fill="#000000" font-family="sans-serif" font-size="14" lengthAdjust="spacing" textLength="164.9033" x="475.1" y="348.292">Renderer(Buffer buffer)</text><ellipse cx="466.1" cy="361.2422" fill="#84BE84" rx="3" ry="3" style="stroke:#038048;stroke-width:1;"/><text fill="#000000" font-family="sans-serif" font-size="14" lengthAdjust="spacing" textLength="82.9951" x="475.1" y="364.5889">renderizar()</text></g><!--class Demo--><g id="elem_Demo"><rect codeLine="43" fill="#F1F1F1" height="64.2969" id="Demo" rx="2.5" ry="2.5" style="stroke:#181818;stroke-width:0.5;" width="159.5742" x="167.6" y="7"/><ellipse cx="222.3388" cy="23" fill="#ADD1B2" rx="11" ry="11" style="stroke:#181818;stroke-width:1;"/><path d="M225.3075,28.6406 Q224.7294,28.9375 224.0888,29.0781 Q223.4481,29.2344 222.745,29.2344 Q220.245,29.2344 218.9169,27.5938 Q217.6044,25.9375 217.6044,22.8125 Q217.6044,19.6875 218.9169,18.0313 Q220.245,16.375 222.745,16.375 Q223.4481,16.375 224.0888,16.5313 Q224.745,16.6875 225.3075,16.9844 L225.3075,19.7031 Q224.6825,19.125 224.0888,18.8594 Q223.495,18.5781 222.87,18.5781 Q221.5263,18.5781 220.8388,19.6563 Q220.1513,20.7188 220.1513,22.8125 Q220.1513,24.9063 220.8388,25.9844 Q221.5263,27.0469 222.87,27.0469 Q223.495,27.0469 224.0888,26.7813 Q224.6825,26.5 225.3075,25.9219 L225.3075,28.6406 Z " fill="#000000"/><text fill="#000000" font-family="sans-serif" font-size="14" lengthAdjust="spacing" textLength="41.5967" x="242.8388" y="27.8467">Demo</text><line style="stroke:#181818;stroke-width:0.5;" x1="168.6" x2="326.1742" y1="39" y2="39"/><line style="stroke:#181818;stroke-width:0.5;" x1="168.6" x2="326.1742" y1="47" y2="47"/><ellipse cx="178.6" cy="60.6484" fill="#84BE84" rx="3" ry="3" style="stroke:#038048;stroke-width:1;"/><text fill="#000000" font-family="sans-serif" font-size="14" lengthAdjust="spacing" textLength="133.5742" x="187.6" y="63.9951">main(String[] args)</text></g><!--link Frame to Pixel--><g id="link_Frame_Pixel"><path codeLine="47" d="M275.6,944.24 C275.6,970.2 275.6,992.15 275.6,1014.95 " fill="none" id="Frame-to-Pixel" style="stroke:#181818;stroke-width:1;"/><polygon fill="#181818" points="275.6,1020.95,279.6,1011.95,275.6,1015.95,271.6,1011.95,275.6,1020.95" style="stroke:#181818;stroke-width:1;"/><text fill="#000000" font-family="sans-serif" font-size="13" lengthAdjust="spacing" textLength="58.2144" x="276.6" y="987.0669">Contiene</text></g><!--link Buffer to Frame--><g id="link_Buffer_Frame"><path codeLine="48" d="M275.6,705.28 C275.6,729.19 275.6,750.67 275.6,775.88 " fill="none" id="Buffer-to-Frame" style="stroke:#181818;stroke-width:1;"/><polygon fill="#181818" points="275.6,781.88,279.6,772.88,275.6,776.88,271.6,772.88,275.6,781.88" style="stroke:#181818;stroke-width:1;"/><text fill="#000000" font-family="sans-serif" font-size="13" lengthAdjust="spacing" textLength="58.2144" x="276.6" y="748.0669">Contiene</text></g><!--link Manager to Buffer--><g id="link_Manager_Buffer"><path codeLine="49" d="M275.6,499.43 C275.6,522.6 275.6,544.73 275.6,569.69 " fill="none" id="Manager-to-Buffer" style="stroke:#181818;stroke-width:1;"/><polygon fill="#181818" points="275.6,575.69,279.6,566.69,275.6,570.69,271.6,566.69,275.6,575.69" style="stroke:#181818;stroke-width:1;"/><text fill="#000000" font-family="sans-serif" font-size="13" lengthAdjust="spacing" textLength="40.2378" x="276.6" y="542.0669">Utiliza</text></g><!--link Node to Manager--><g id="link_Node_Manager"><path codeLine="50" d="M361.54,245.2 C342.63,290.14 316.7866,351.5894 297.9066,396.4694 " fill="none" id="Node-to-Manager" style="stroke:#181818;stroke-width:1;"/><polygon fill="#181818" points="295.58,402,302.7569,395.2552,297.5188,397.3912,295.3828,392.1531,295.58,402" style="stroke:#181818;stroke-width:1;"/><text fill="#000000" font-family="sans-serif" font-size="13" lengthAdjust="spacing" textLength="40.2378" x="348.6" y="328.0669">Utiliza</text></g><!--link Renderer to Buffer--><g id="link_Renderer_Buffer"><path codeLine="51" d="M523.06,372.37 C501.06,408.8 468.24,459.28 433.6,499 C409.95,526.11 385.7806,549.1164 359.3706,572.0464 " fill="none" id="Renderer-to-Buffer" style="stroke:#181818;stroke-width:1;"/><polygon fill="#181818" points="354.84,575.98,364.2584,573.1,358.6155,572.702,359.0135,567.0591,354.84,575.98" style="stroke:#181818;stroke-width:1;"/><text fill="#000000" font-family="sans-serif" font-size="13" lengthAdjust="spacing" textLength="40.2378" x="503.6" y="455.0669">Utiliza</text></g><!--link Demo to Buffer--><g id="link_Demo_Buffer"><path codeLine="52" d="M182.22,71.04 C167.91,79.56 153.5,89.63 141.6,101 C48.65,189.78 6,248.21 40.6,372 C63.89,455.35 127.4148,523.6583 184.3448,571.9583 " fill="none" id="Demo-to-Buffer" style="stroke:#181818;stroke-width:1;"/><polygon fill="#181818" points="188.92,575.84,184.6449,566.9674,185.1073,572.6053,179.4694,573.0676,188.92,575.84" style="stroke:#181818;stroke-width:1;"/><text fill="#000000" font-family="sans-serif" font-size="13" lengthAdjust="spacing" textLength="93.1709" x="41.6" y="328.0669">Crea instancia</text></g><!--link Demo to Manager--><g id="link_Demo_Manager"><path codeLine="53" d="M197.93,71.03 C172.68,89.86 144.46,116.35 130.6,148 C113.31,187.49 117.51,203.92 130.6,245 C149.82,305.34 190.0293,358.6785 224.6193,397.3385 " fill="none" id="Demo-to-Manager" style="stroke:#181818;stroke-width:1;"/><polygon fill="#181818" points="228.62,401.81,225.5999,392.4356,225.2861,398.0838,219.6379,397.7699,228.62,401.81" style="stroke:#181818;stroke-width:1;"/><text fill="#000000" font-family="sans-serif" font-size="13" lengthAdjust="spacing" textLength="93.1709" x="131.6" y="201.0669">Crea instancia</text></g><!--link Demo to Node--><g id="link_Demo_Node"><path codeLine="54" d="M274.39,71.09 C293.33,93.07 315.1631,118.4049 336.6731,143.3649 " fill="none" id="Demo-to-Node" style="stroke:#181818;stroke-width:1;"/><polygon fill="#181818" points="340.59,147.91,337.7448,138.4811,337.3259,144.1224,331.6846,143.7036,340.59,147.91" style="stroke:#181818;stroke-width:1;"/><text fill="#000000" font-family="sans-serif" font-size="13" lengthAdjust="spacing" textLength="93.1709" x="315.6" y="114.0669">Crea instancia</text></g><!--link Demo to Renderer--><g id="link_Demo_Renderer"><path codeLine="55" d="M327.61,46.36 C395.34,56.38 488.94,82.08 537.6,148 C564.3,184.17 565.1909,230.8835 560.5909,268.8935 " fill="none" id="Demo-to-Renderer" style="stroke:#181818;stroke-width:1;"/><polygon fill="#181818" points="559.87,274.85,564.9223,266.3958,560.4707,269.8862,556.9803,265.4346,559.87,274.85" style="stroke:#181818;stroke-width:1;"/><text fill="#000000" font-family="sans-serif" font-size="13" lengthAdjust="spacing" textLength="93.1709" x="505.6" y="114.0669">Crea instancia</text></g><!--SRC=[bLBBJW8n5DtFLpIiXW0_G0mBCIOcQep65M5HogKqwNH8Mo9g_7VRszkXo4ETJQTpJi_ZJeNcph4djGFDFYiMdX5JnZFHwjRYVi0S-6dSrXtG9qHcf3-EfwglgX8eU6jv0vqWoi_cipdRn3TN-BoffLyN-pKekVOaZofrHniMZ9m0dESB3G8icY1vbuZlGtOgy34lXCUFnD6gsIXkatb_t-bwkrg1xKhTA-Ula3HXgxYKjSJMMZ3-pYnXHxBf-EKsSPxf9BcFqmm8zgsK6ew2FN33PP6CWYvmeQF4gG-mVm-nitnib_lVc_sRj99efDG_e6p8XTzohJxudmsV8OpI_b8oaqwtj8X6qt9uDz2q93e8CPMfNxnLHeRBogrqo4otUJIQf7ioPhrfQxm20xsAh2A8j0Cmruze8WRurQjOlLVX42D4j1Bh-fu-YgaFeAa57YON_gGHgcJinSzIOf1BU0vppFa6]--></g></svg>