<svg xmlns="http://www.w3.org/2000/svg" xmlns:xlink="http://www.w3.org/1999/xlink" contentStyleType="text/css" data-diagram-type="CLASS" height="714px" preserveAspectRatio="none" style="width:353px;height:714px;background:#FFFFFF;" version="1.1" viewBox="0 0 353 714" width="353px" zoomAndPan="magnify"><defs/><g><!--class Pixel--><g id="elem_Pixel"><rect codeLine="1" fill="#F1F1F1" height="113.1875" id="Pixel" rx="2.5" ry="2.5" style="stroke:#181818;stroke-width:0.5;" width="230.7021" x="7" y="593.86"/><ellipse cx="101.541" cy="609.86" fill="#ADD1B2" rx="11" ry="11" style="stroke:#181818;stroke-width:1;"/><path d="M104.5098,615.5006 Q103.9316,615.7975 103.291,615.9381 Q102.6504,616.0944 101.9473,616.0944 Q99.4473,616.0944 98.1191,614.4537 Q96.8066,612.7975 96.8066,609.6725 Q96.8066,606.5475 98.1191,604.8912 Q99.4473,603.235 101.9473,603.235 Q102.6504,603.235 103.291,603.3912 Q103.9473,603.5475 104.5098,603.8444 L104.5098,606.5631 Q103.8848,605.985 103.291,605.7194 Q102.6973,605.4381 102.0723,605.4381 Q100.7285,605.4381 100.041,606.5162 Q99.3535,607.5787 99.3535,609.6725 Q99.3535,611.7662 100.041,612.8444 Q100.7285,613.9069 102.0723,613.9069 Q102.6973,613.9069 103.291,613.6412 Q103.8848,613.36 104.5098,612.7819 L104.5098,615.5006 Z " fill="#000000"/><text fill="#000000" font-family="sans-serif" font-size="14" lengthAdjust="spacing" textLength="33.1201" x="122.041" y="614.7067">Pixel</text><line style="stroke:#181818;stroke-width:0.5;" x1="8" x2="236.7021" y1="625.86" y2="625.86"/><rect fill="#FFFFFF" fill-opacity="0.00000" height="6" style="stroke:#C82930;stroke-width:1;" width="6" x="15" y="636.5084"/><text fill="#000000" font-family="sans-serif" font-size="14" lengthAdjust="spacing" textLength="74.5459" x="27" y="642.8551">color: char</text><line style="stroke:#181818;stroke-width:0.5;" x1="8" x2="236.7021" y1="650.1569" y2="650.1569"/><ellipse cx="18" cy="663.8053" fill="#84BE84" rx="3" ry="3" style="stroke:#038048;stroke-width:1;"/><text fill="#000000" font-family="sans-serif" font-size="14" lengthAdjust="spacing" textLength="110.5371" x="27" y="667.152">getColor(): char</text><ellipse cx="18" cy="680.1022" fill="#84BE84" rx="3" ry="3" style="stroke:#038048;stroke-width:1;"/><text fill="#000000" font-family="sans-serif" font-size="14" lengthAdjust="spacing" textLength="138.5713" x="27" y="683.4489">setColor(char): void</text><ellipse cx="18" cy="696.3991" fill="#84BE84" rx="3" ry="3" style="stroke:#038048;stroke-width:1;"/><text fill="#000000" font-family="sans-serif" font-size="14" lengthAdjust="spacing" textLength="204.7021" x="27" y="699.7457">blendColors(char, char): char</text></g><!--class Frame--><g id="elem_Frame"><rect codeLine="8" fill="#F1F1F1" height="145.7813" id="Frame" rx="2.5" ry="2.5" style="stroke:#181818;stroke-width:0.5;" width="215.4443" x="14.63" y="371.08"/><ellipse cx="95.7828" cy="387.08" fill="#ADD1B2" rx="11" ry="11" style="stroke:#181818;stroke-width:1;"/><path d="M98.7516,392.7206 Q98.1735,393.0175 97.5328,393.1581 Q96.8922,393.3144 96.1891,393.3144 Q93.6891,393.3144 92.361,391.6737 Q91.0485,390.0175 91.0485,386.8925 Q91.0485,383.7675 92.361,382.1112 Q93.6891,380.455 96.1891,380.455 Q96.8922,380.455 97.5328,380.6112 Q98.1891,380.7675 98.7516,381.0644 L98.7516,383.7831 Q98.1266,383.205 97.5328,382.9394 Q96.9391,382.6581 96.3141,382.6581 Q94.9703,382.6581 94.2828,383.7362 Q93.5953,384.7987 93.5953,386.8925 Q93.5953,388.9862 94.2828,390.0644 Q94.9703,391.1269 96.3141,391.1269 Q96.9391,391.1269 97.5328,390.8612 Q98.1266,390.58 98.7516,390.0019 L98.7516,392.7206 Z " fill="#000000"/><text fill="#000000" font-family="sans-serif" font-size="14" lengthAdjust="spacing" textLength="44.6387" x="116.2828" y="391.9267">Frame</text><line style="stroke:#181818;stroke-width:0.5;" x1="15.63" x2="229.0743" y1="403.08" y2="403.08"/><rect fill="#FFFFFF" fill-opacity="0.00000" height="6" style="stroke:#C82930;stroke-width:1;" width="6" x="22.63" y="413.7284"/><text fill="#000000" font-family="sans-serif" font-size="14" lengthAdjust="spacing" textLength="66.0078" x="34.63" y="420.0751">width: int</text><rect fill="#FFFFFF" fill-opacity="0.00000" height="6" style="stroke:#C82930;stroke-width:1;" width="6" x="22.63" y="430.0253"/><text fill="#000000" font-family="sans-serif" font-size="14" lengthAdjust="spacing" textLength="72.0439" x="34.63" y="436.372">height: int</text><rect fill="#FFFFFF" fill-opacity="0.00000" height="6" style="stroke:#C82930;stroke-width:1;" width="6" x="22.63" y="446.3222"/><text fill="#000000" font-family="sans-serif" font-size="14" lengthAdjust="spacing" textLength="104.9932" x="34.63" y="452.6689">pixels: Pixel[][]</text><line style="stroke:#181818;stroke-width:0.5;" x1="15.63" x2="229.0743" y1="459.9706" y2="459.9706"/><ellipse cx="25.63" cy="473.6191" fill="#84BE84" rx="3" ry="3" style="stroke:#038048;stroke-width:1;"/><text fill="#000000" font-family="sans-serif" font-size="14" lengthAdjust="spacing" textLength="189.4443" x="34.63" y="476.9657">setPixel(int, int, char): void</text><ellipse cx="25.63" cy="489.9159" fill="#84BE84" rx="3" ry="3" style="stroke:#038048;stroke-width:1;"/><text fill="#000000" font-family="sans-serif" font-size="14" lengthAdjust="spacing" textLength="152.5098" x="34.63" y="493.2626">getPixel(int, int): char</text><ellipse cx="25.63" cy="506.2128" fill="#84BE84" rx="3" ry="3" style="stroke:#038048;stroke-width:1;"/><text fill="#000000" font-family="sans-serif" font-size="14" lengthAdjust="spacing" textLength="169.0322" x="34.63" y="509.5595">printFrame(String): void</text></g><!--class TemporalBlending--><g id="elem_TemporalBlending"><rect codeLine="17" fill="#F1F1F1" height="145.7813" id="TemporalBlending" rx="2.5" ry="2.5" style="stroke:#181818;stroke-width:0.5;" width="215.4443" x="130.63" y="148.3"/><ellipse cx="170.5817" cy="164.3" fill="#ADD1B2" rx="11" ry="11" style="stroke:#181818;stroke-width:1;"/><path d="M173.5505,169.9406 Q172.9723,170.2375 172.3317,170.3781 Q171.6911,170.5344 170.988,170.5344 Q168.488,170.5344 167.1598,168.8937 Q165.8473,167.2375 165.8473,164.1125 Q165.8473,160.9875 167.1598,159.3312 Q168.488,157.675 170.988,157.675 Q171.6911,157.675 172.3317,157.8312 Q172.988,157.9875 173.5505,158.2844 L173.5505,161.0031 Q172.9255,160.425 172.3317,160.1594 Q171.738,159.8781 171.113,159.8781 Q169.7692,159.8781 169.0817,160.9562 Q168.3942,162.0187 168.3942,164.1125 Q168.3942,166.2062 169.0817,167.2844 Q169.7692,168.3469 171.113,168.3469 Q171.738,168.3469 172.3317,168.0812 Q172.9255,167.8 173.5505,167.2219 L173.5505,169.9406 Z " fill="#000000"/><text fill="#000000" font-family="sans-serif" font-size="14" lengthAdjust="spacing" textLength="127.9961" x="190.1265" y="169.1467">TemporalBlending</text><line style="stroke:#181818;stroke-width:0.5;" x1="131.63" x2="345.0743" y1="180.3" y2="180.3"/><rect fill="#FFFFFF" fill-opacity="0.00000" height="6" style="stroke:#C82930;stroke-width:1;" width="6" x="138.63" y="190.9484"/><text fill="#000000" font-family="sans-serif" font-size="14" lengthAdjust="spacing" textLength="172.0674" x="150.63" y="197.2951">frames: Queue&lt;Frame&gt;</text><rect fill="#FFFFFF" fill-opacity="0.00000" height="6" style="stroke:#C82930;stroke-width:1;" width="6" x="138.63" y="207.2453"/><text fill="#000000" font-family="sans-serif" font-size="14" lengthAdjust="spacing" textLength="66.0078" x="150.63" y="213.592">width: int</text><rect fill="#FFFFFF" fill-opacity="0.00000" height="6" style="stroke:#C82930;stroke-width:1;" width="6" x="138.63" y="223.5422"/><text fill="#000000" font-family="sans-serif" font-size="14" lengthAdjust="spacing" textLength="72.0439" x="150.63" y="229.8889">height: int</text><line style="stroke:#181818;stroke-width:0.5;" x1="131.63" x2="345.0743" y1="237.1906" y2="237.1906"/><ellipse cx="141.63" cy="250.8391" fill="#84BE84" rx="3" ry="3" style="stroke:#038048;stroke-width:1;"/><text fill="#000000" font-family="sans-serif" font-size="14" lengthAdjust="spacing" textLength="189.4443" x="150.63" y="254.1857">setPixel(int, int, char): void</text><ellipse cx="141.63" cy="267.1359" fill="#84BE84" rx="3" ry="3" style="stroke:#038048;stroke-width:1;"/><text fill="#000000" font-family="sans-serif" font-size="14" lengthAdjust="spacing" textLength="137.833" x="150.63" y="270.4826">cycleFrames(): void</text><ellipse cx="141.63" cy="283.4328" fill="#84BE84" rx="3" ry="3" style="stroke:#038048;stroke-width:1;"/><text fill="#000000" font-family="sans-serif" font-size="14" lengthAdjust="spacing" textLength="184.6182" x="150.63" y="286.7795">printBlendedFrame(): void</text></g><!--class App--><g id="elem_App"><rect codeLine="26" fill="#F1F1F1" height="64.2969" id="App" rx="2.5" ry="2.5" style="stroke:#181818;stroke-width:0.5;" width="163.4023" x="11.65" y="7"/><ellipse cx="75.4259" cy="23" fill="#ADD1B2" rx="11" ry="11" style="stroke:#181818;stroke-width:1;"/><path d="M78.3946,28.6406 Q77.8165,28.9375 77.1759,29.0781 Q76.5353,29.2344 75.8321,29.2344 Q73.3321,29.2344 72.004,27.5938 Q70.6915,25.9375 70.6915,22.8125 Q70.6915,19.6875 72.004,18.0313 Q73.3321,16.375 75.8321,16.375 Q76.5353,16.375 77.1759,16.5313 Q77.8321,16.6875 78.3946,16.9844 L78.3946,19.7031 Q77.7696,19.125 77.1759,18.8594 Q76.5821,18.5781 75.9571,18.5781 Q74.6134,18.5781 73.9259,19.6563 Q73.2384,20.7188 73.2384,22.8125 Q73.2384,24.9063 73.9259,25.9844 Q74.6134,27.0469 75.9571,27.0469 Q76.5821,27.0469 77.1759,26.7813 Q77.7696,26.5 78.3946,25.9219 L78.3946,28.6406 Z " fill="#000000"/><text fill="#000000" font-family="sans-serif" font-size="14" lengthAdjust="spacing" textLength="27.3506" x="95.9259" y="27.8467">App</text><line style="stroke:#181818;stroke-width:0.5;" x1="12.65" x2="174.0523" y1="39" y2="39"/><line style="stroke:#181818;stroke-width:0.5;" x1="12.65" x2="174.0523" y1="47" y2="47"/><ellipse cx="22.65" cy="60.6484" fill="#84BE84" rx="3" ry="3" style="stroke:#038048;stroke-width:1;"/><text fill="#000000" font-family="sans-serif" font-size="14" lengthAdjust="spacing" textLength="137.4023" x="31.65" y="63.9951">main(String[]): void</text></g><!--reverse link Frame to Pixel--><g id="link_Frame_Pixel"><path codeLine="30" d="M122.35,523.35 C122.35,548.4 122.35,570.07 122.35,593.58 " fill="#FFFFFF" fill-opacity="0.00000" id="Frame-backto-Pixel" style="stroke:#181818;stroke-width:1;"/><polygon fill="#181818" points="122.35,517.35,118.35,526.35,122.35,522.35,126.35,526.35,122.35,517.35" style="stroke:#181818;stroke-width:1;"/><text fill="#000000" font-family="sans-serif" font-size="13" lengthAdjust="spacing" textLength="55.0278" x="123.35" y="559.9269">contains</text><text fill="#000000" font-family="sans-serif" font-size="13" lengthAdjust="spacing" textLength="36.5625" x="84.1904" y="582.8094">many</text></g><!--link TemporalBlending to Frame--><g id="link_TemporalBlending_Frame"><path codeLine="31" d="M200.37,294.48 C187.48,319.01 173.1,346.39 160.22,370.89 " fill="#FFFFFF" fill-opacity="0.00000" id="TemporalBlending-Frame" style="stroke:#181818;stroke-width:1;"/><text fill="#000000" font-family="sans-serif" font-size="13" lengthAdjust="spacing" textLength="59.8584" x="184.35" y="337.1469">manages</text><text fill="#000000" font-family="sans-serif" font-size="13" lengthAdjust="spacing" textLength="36.5625" x="126.2034" y="360.0313">many</text></g><!--link App to Frame--><g id="link_App_Frame"><path codeLine="32" d="M89.28,71.79 C86.72,93.32 83.66,122.48 82.35,148.3 C79.07,213.01 73.87,229.85 82.35,294.08 C85.7,319.42 90.4956,340.8013 97.2256,364.8913 " fill="#FFFFFF" fill-opacity="0.00000" id="App-to-Frame" style="stroke:#181818;stroke-width:1;stroke-dasharray:7.0,7.0;"/><polygon fill="#181818" points="98.84,370.67,100.2709,360.9256,97.4947,365.8544,92.5659,363.0782,98.84,370.67" style="stroke:#181818;stroke-width:1;"/><text fill="#000000" font-family="sans-serif" font-size="13" lengthAdjust="spacing" textLength="29.7832" x="83.35" y="225.7569">uses</text></g><!--link App to TemporalBlending--><g id="link_App_TemporalBlending"><path codeLine="33" d="M118.61,71.51 C135.65,92.67 155.0862,116.8073 176.5362,143.4373 " fill="#FFFFFF" fill-opacity="0.00000" id="App-to-TemporalBlending" style="stroke:#181818;stroke-width:1;stroke-dasharray:7.0,7.0;"/><polygon fill="#181818" points="180.3,148.11,177.7695,138.5918,177.1635,144.2161,171.5392,143.6101,180.3,148.11" style="stroke:#181818;stroke-width:1;"/><text fill="#000000" font-family="sans-serif" font-size="13" lengthAdjust="spacing" textLength="29.7832" x="153.35" y="114.3669">uses</text></g><!--SRC=[ZP91ReCm44NtFiKeAwg47015aTfANRTgTeY5QwPWoTW8cxHHrRlN7Zi4oYPU8El_FpDl0A6ujV0glr713mD_SX16cQ40qVA1b2qqw9w3c3qiP7kLW-Qjiv5riZuKwffCI-uEKeRAVnaJDFXbu1rEWxzaxTe2f7P9Q54shPihVI2rHIGkgxAweP2K-UWEwB66Qlw7bklqWvU8A7jt_jvSgoVS4tQz6RXw2jlvm4J-6Qeyrjk88nwen_7UfUw45nUXa3hRREaGDo5X7V5Nu8zzdrYtq76fqu9bDKl6Rt78SzXqN5yswQ_mhyXevsiiMwr_oyRYmZVNl47Bmi3z_ZZfevs9gpxH_mC0]--></g></svg>