<?xml version="1.0" encoding="us-ascii" standalone="no"?><svg xmlns="http://www.w3.org/2000/svg" xmlns:xlink="http://www.w3.org/1999/xlink" contentStyleType="text/css" height="843px" preserveAspectRatio="none" style="width:627px;height:843px;background:#FFFFFF;" version="1.1" viewBox="0 0 627 843" width="627px" zoomAndPan="magnify"><defs/><g><!--class Pixel--><g id="elem_Pixel"><rect codeLine="2" fill="#F1F1F1" height="224.0938" id="Pixel" rx="2.5" ry="2.5" style="stroke:#181818;stroke-width:0.5;" width="204" x="7" y="133"/><ellipse cx="90.25" cy="149" fill="#ADD1B2" rx="11" ry="11" style="stroke:#181818;stroke-width:1.0;"/><path d="M93.0156,144.875 Q93.1719,144.6563 93.3594,144.5469 Q93.5469,144.4375 93.7656,144.4375 Q94.1406,144.4375 94.375,144.6953 Q94.6094,144.9531 94.6094,145.5625 L94.6094,147.0156 Q94.6094,147.625 94.375,147.8906 Q94.1406,148.1563 93.7656,148.1563 Q93.4219,148.1563 93.2188,147.9531 Q93.0156,147.7656 92.9063,147.25 Q92.8594,146.8906 92.6719,146.7031 Q92.3438,146.3281 91.7344,146.1094 Q91.125,145.8906 90.5,145.8906 Q89.7344,145.8906 89.1016,146.2188 Q88.4688,146.5469 87.9766,147.2969 Q87.4844,148.0469 87.4844,149.0781 L87.4844,150.1719 Q87.4844,151.4063 88.375,152.2266 Q89.2656,153.0469 90.8594,153.0469 Q91.7969,153.0469 92.4531,152.7969 Q92.8438,152.6406 93.2656,152.2031 Q93.5313,151.9375 93.6797,151.8594 Q93.8281,151.7813 94.0313,151.7813 Q94.3594,151.7813 94.6172,152.0391 Q94.875,152.2969 94.875,152.6406 Q94.875,152.9844 94.5313,153.3906 Q94.0313,153.9688 93.2344,154.2969 Q92.1563,154.75 90.8594,154.75 Q89.3438,154.75 88.1406,154.125 Q87.1563,153.625 86.4688,152.5547 Q85.7813,151.4844 85.7813,150.2031 L85.7813,149.0469 Q85.7813,147.7188 86.3984,146.5703 Q87.0156,145.4219 88.1094,144.8047 Q89.2031,144.1875 90.4375,144.1875 Q91.1719,144.1875 91.8203,144.3516 Q92.4688,144.5156 93.0156,144.875 Z " fill="#000000"/><text fill="#000000" font-family="sans-serif" font-size="14" lengthAdjust="spacing" textLength="29" x="110.75" y="154.7285">Pixel</text><line style="stroke:#181818;stroke-width:0.5;" x1="8" x2="210" y1="165" y2="165"/><rect fill="none" height="6" style="stroke:#C82930;stroke-width:1.0;" width="6" x="15" y="176.3047"/><text fill="#000000" font-family="sans-serif" font-size="14" lengthAdjust="spacing" textLength="25" x="27" y="183.5332">int x</text><rect fill="none" height="6" style="stroke:#C82930;stroke-width:1.0;" width="6" x="15" y="193.9141"/><text fill="#000000" font-family="sans-serif" font-size="14" lengthAdjust="spacing" textLength="26" x="27" y="201.1426">int y</text><rect fill="none" height="6" style="stroke:#C82930;stroke-width:1.0;" width="6" x="15" y="211.5234"/><text fill="#000000" font-family="sans-serif" font-size="14" lengthAdjust="spacing" textLength="72" x="27" y="218.752">String color</text><line style="stroke:#181818;stroke-width:0.5;" x1="8" x2="210" y1="225.8281" y2="225.8281"/><ellipse cx="18" cy="240.1328" fill="#84BE84" rx="3" ry="3" style="stroke:#038048;stroke-width:1.0;"/><text fill="#000000" font-family="sans-serif" font-size="14" lengthAdjust="spacing" textLength="178" x="27" y="244.3613">Pixel(int x, int y, String color)</text><ellipse cx="18" cy="257.7422" fill="#84BE84" rx="3" ry="3" style="stroke:#038048;stroke-width:1.0;"/><text fill="#000000" font-family="sans-serif" font-size="14" lengthAdjust="spacing" textLength="57" x="27" y="261.9707">int getX()</text><ellipse cx="18" cy="275.3516" fill="#84BE84" rx="3" ry="3" style="stroke:#038048;stroke-width:1.0;"/><text fill="#000000" font-family="sans-serif" font-size="14" lengthAdjust="spacing" textLength="92" x="27" y="279.5801">void setX(int x)</text><ellipse cx="18" cy="292.9609" fill="#84BE84" rx="3" ry="3" style="stroke:#038048;stroke-width:1.0;"/><text fill="#000000" font-family="sans-serif" font-size="14" lengthAdjust="spacing" textLength="58" x="27" y="297.1895">int getY()</text><ellipse cx="18" cy="310.5703" fill="#84BE84" rx="3" ry="3" style="stroke:#038048;stroke-width:1.0;"/><text fill="#000000" font-family="sans-serif" font-size="14" lengthAdjust="spacing" textLength="94" x="27" y="314.7988">void setY(int y)</text><ellipse cx="18" cy="328.1797" fill="#84BE84" rx="3" ry="3" style="stroke:#038048;stroke-width:1.0;"/><text fill="#000000" font-family="sans-serif" font-size="14" lengthAdjust="spacing" textLength="105" x="27" y="332.4082">String getColor()</text><ellipse cx="18" cy="345.7891" fill="#84BE84" rx="3" ry="3" style="stroke:#038048;stroke-width:1.0;"/><text fill="#000000" font-family="sans-serif" font-size="14" lengthAdjust="spacing" textLength="165" x="27" y="350.0176">void setColor(String color)</text></g><!--class Frame--><g id="elem_Frame"><rect codeLine="15" fill="#F1F1F1" height="206.4844" id="Frame" rx="2.5" ry="2.5" style="stroke:#181818;stroke-width:0.5;" width="300" x="186" y="417"/><ellipse cx="311.25" cy="433" fill="#ADD1B2" rx="11" ry="11" style="stroke:#181818;stroke-width:1.0;"/><path d="M314.0156,428.875 Q314.1719,428.6563 314.3594,428.5469 Q314.5469,428.4375 314.7656,428.4375 Q315.1406,428.4375 315.375,428.6953 Q315.6094,428.9531 315.6094,429.5625 L315.6094,431.0156 Q315.6094,431.625 315.375,431.8906 Q315.1406,432.1563 314.7656,432.1563 Q314.4219,432.1563 314.2188,431.9531 Q314.0156,431.7656 313.9063,431.25 Q313.8594,430.8906 313.6719,430.7031 Q313.3438,430.3281 312.7344,430.1094 Q312.125,429.8906 311.5,429.8906 Q310.7344,429.8906 310.1016,430.2188 Q309.4688,430.5469 308.9766,431.2969 Q308.4844,432.0469 308.4844,433.0781 L308.4844,434.1719 Q308.4844,435.4063 309.375,436.2266 Q310.2656,437.0469 311.8594,437.0469 Q312.7969,437.0469 313.4531,436.7969 Q313.8438,436.6406 314.2656,436.2031 Q314.5313,435.9375 314.6797,435.8594 Q314.8281,435.7813 315.0313,435.7813 Q315.3594,435.7813 315.6172,436.0391 Q315.875,436.2969 315.875,436.6406 Q315.875,436.9844 315.5313,437.3906 Q315.0313,437.9688 314.2344,438.2969 Q313.1563,438.75 311.8594,438.75 Q310.3438,438.75 309.1406,438.125 Q308.1563,437.625 307.4688,436.5547 Q306.7813,435.4844 306.7813,434.2031 L306.7813,433.0469 Q306.7813,431.7188 307.3984,430.5703 Q308.0156,429.4219 309.1094,428.8047 Q310.2031,428.1875 311.4375,428.1875 Q312.1719,428.1875 312.8203,428.3516 Q313.4688,428.5156 314.0156,428.875 Z " fill="#000000"/><text fill="#000000" font-family="sans-serif" font-size="14" lengthAdjust="spacing" textLength="41" x="331.75" y="438.7285">Frame</text><line style="stroke:#181818;stroke-width:0.5;" x1="187" x2="485" y1="449" y2="449"/><rect fill="none" height="6" style="stroke:#C82930;stroke-width:1.0;" width="6" x="194" y="460.3047"/><text fill="#000000" font-family="sans-serif" font-size="14" lengthAdjust="spacing" textLength="84" x="206" y="467.5332">Pixel[][] pixels</text><rect fill="none" height="6" style="stroke:#C82930;stroke-width:1.0;" width="6" x="194" y="477.9141"/><text fill="#000000" font-family="sans-serif" font-size="14" lengthAdjust="spacing" textLength="58" x="206" y="485.1426">int ancho</text><rect fill="none" height="6" style="stroke:#C82930;stroke-width:1.0;" width="6" x="194" y="495.5234"/><text fill="#000000" font-family="sans-serif" font-size="14" lengthAdjust="spacing" textLength="42" x="206" y="502.752">int alto</text><line style="stroke:#181818;stroke-width:0.5;" x1="187" x2="485" y1="509.8281" y2="509.8281"/><ellipse cx="197" cy="524.1328" fill="#84BE84" rx="3" ry="3" style="stroke:#038048;stroke-width:1.0;"/><text fill="#000000" font-family="sans-serif" font-size="14" lengthAdjust="spacing" textLength="159" x="206" y="528.3613">Frame(int ancho, int alto)</text><rect fill="#F24D5C" height="6" style="stroke:#C82930;stroke-width:1.0;" width="6" x="194" y="538.7422"/><text fill="#000000" font-family="sans-serif" font-size="14" lengthAdjust="spacing" textLength="133" x="206" y="545.9707">void inicializarPixels()</text><ellipse cx="197" cy="559.3516" fill="#84BE84" rx="3" ry="3" style="stroke:#038048;stroke-width:1.0;"/><text fill="#000000" font-family="sans-serif" font-size="14" lengthAdjust="spacing" textLength="180" x="206" y="563.5801">Pixel obtenerPixel(int x, int y)</text><ellipse cx="197" cy="576.9609" fill="#84BE84" rx="3" ry="3" style="stroke:#038048;stroke-width:1.0;"/><text fill="#000000" font-family="sans-serif" font-size="14" lengthAdjust="spacing" textLength="274" x="206" y="581.1895">void establecerPixel(int x, int y, String color)</text><ellipse cx="197" cy="594.5703" fill="#84BE84" rx="3" ry="3" style="stroke:#038048;stroke-width:1.0;"/><text fill="#000000" font-family="sans-serif" font-size="14" lengthAdjust="spacing" textLength="89" x="206" y="598.7988">int getAncho()</text><ellipse cx="197" cy="612.1797" fill="#84BE84" rx="3" ry="3" style="stroke:#038048;stroke-width:1.0;"/><text fill="#000000" font-family="sans-serif" font-size="14" lengthAdjust="spacing" textLength="73" x="206" y="616.4082">int getAlto()</text></g><!--class ControlDeEnlazado--><g id="elem_ControlDeEnlazado"><rect codeLine="27" fill="#F1F1F1" height="153.6563" id="ControlDeEnlazado" rx="2.5" ry="2.5" style="stroke:#181818;stroke-width:0.5;" width="302" x="185" y="683"/><ellipse cx="270.75" cy="699" fill="#ADD1B2" rx="11" ry="11" style="stroke:#181818;stroke-width:1.0;"/><path d="M273.5156,694.875 Q273.6719,694.6563 273.8594,694.5469 Q274.0469,694.4375 274.2656,694.4375 Q274.6406,694.4375 274.875,694.6953 Q275.1094,694.9531 275.1094,695.5625 L275.1094,697.0156 Q275.1094,697.625 274.875,697.8906 Q274.6406,698.1563 274.2656,698.1563 Q273.9219,698.1563 273.7188,697.9531 Q273.5156,697.7656 273.4063,697.25 Q273.3594,696.8906 273.1719,696.7031 Q272.8438,696.3281 272.2344,696.1094 Q271.625,695.8906 271,695.8906 Q270.2344,695.8906 269.6016,696.2188 Q268.9688,696.5469 268.4766,697.2969 Q267.9844,698.0469 267.9844,699.0781 L267.9844,700.1719 Q267.9844,701.4063 268.875,702.2266 Q269.7656,703.0469 271.3594,703.0469 Q272.2969,703.0469 272.9531,702.7969 Q273.3438,702.6406 273.7656,702.2031 Q274.0313,701.9375 274.1797,701.8594 Q274.3281,701.7813 274.5313,701.7813 Q274.8594,701.7813 275.1172,702.0391 Q275.375,702.2969 275.375,702.6406 Q275.375,702.9844 275.0313,703.3906 Q274.5313,703.9688 273.7344,704.2969 Q272.6563,704.75 271.3594,704.75 Q269.8438,704.75 268.6406,704.125 Q267.6563,703.625 266.9688,702.5547 Q266.2813,701.4844 266.2813,700.2031 L266.2813,699.0469 Q266.2813,697.7188 266.8984,696.5703 Q267.5156,695.4219 268.6094,694.8047 Q269.7031,694.1875 270.9375,694.1875 Q271.6719,694.1875 272.3203,694.3516 Q272.9688,694.5156 273.5156,694.875 Z " fill="#000000"/><text fill="#000000" font-family="sans-serif" font-size="14" lengthAdjust="spacing" textLength="122" x="291.25" y="704.7285">ControlDeEnlazado</text><line style="stroke:#181818;stroke-width:0.5;" x1="186" x2="486" y1="715" y2="715"/><rect fill="none" height="6" style="stroke:#C82930;stroke-width:1.0;" width="6" x="193" y="726.3047"/><text fill="#000000" font-family="sans-serif" font-size="14" lengthAdjust="spacing" textLength="89" x="205" y="733.5332">Frame frame1</text><rect fill="none" height="6" style="stroke:#C82930;stroke-width:1.0;" width="6" x="193" y="743.9141"/><text fill="#000000" font-family="sans-serif" font-size="14" lengthAdjust="spacing" textLength="89" x="205" y="751.1426">Frame frame2</text><rect fill="none" height="6" style="stroke:#C82930;stroke-width:1.0;" width="6" x="193" y="761.5234"/><text fill="#000000" font-family="sans-serif" font-size="14" lengthAdjust="spacing" textLength="138" x="205" y="768.752">Frame frameRestante</text><line style="stroke:#181818;stroke-width:0.5;" x1="186" x2="486" y1="775.8281" y2="775.8281"/><ellipse cx="196" cy="790.1328" fill="#84BE84" rx="3" ry="3" style="stroke:#038048;stroke-width:1.0;"/><text fill="#000000" font-family="sans-serif" font-size="14" lengthAdjust="spacing" textLength="276" x="205" y="794.3613">void establecerFrames(Frame f1, Frame f2)</text><rect fill="#F24D5C" height="6" style="stroke:#C82930;stroke-width:1.0;" width="6" x="193" y="804.7422"/><text fill="#000000" font-family="sans-serif" font-size="14" lengthAdjust="spacing" textLength="146" x="205" y="811.9707">void combinarFrames()</text><ellipse cx="196" cy="825.3516" fill="#84BE84" rx="3" ry="3" style="stroke:#038048;stroke-width:1.0;"/><text fill="#000000" font-family="sans-serif" font-size="14" lengthAdjust="spacing" textLength="173" x="205" y="829.5801">Frame getFrameRestante()</text></g><!--class Pantalla--><g id="elem_Pantalla"><rect codeLine="36" fill="#F1F1F1" height="136.0469" id="Pantalla" rx="2.5" ry="2.5" style="stroke:#181818;stroke-width:0.5;" width="239" x="317.5" y="177"/><ellipse cx="407.25" cy="193" fill="#ADD1B2" rx="11" ry="11" style="stroke:#181818;stroke-width:1.0;"/><path d="M410.0156,188.875 Q410.1719,188.6563 410.3594,188.5469 Q410.5469,188.4375 410.7656,188.4375 Q411.1406,188.4375 411.375,188.6953 Q411.6094,188.9531 411.6094,189.5625 L411.6094,191.0156 Q411.6094,191.625 411.375,191.8906 Q411.1406,192.1563 410.7656,192.1563 Q410.4219,192.1563 410.2188,191.9531 Q410.0156,191.7656 409.9063,191.25 Q409.8594,190.8906 409.6719,190.7031 Q409.3438,190.3281 408.7344,190.1094 Q408.125,189.8906 407.5,189.8906 Q406.7344,189.8906 406.1016,190.2188 Q405.4688,190.5469 404.9766,191.2969 Q404.4844,192.0469 404.4844,193.0781 L404.4844,194.1719 Q404.4844,195.4063 405.375,196.2266 Q406.2656,197.0469 407.8594,197.0469 Q408.7969,197.0469 409.4531,196.7969 Q409.8438,196.6406 410.2656,196.2031 Q410.5313,195.9375 410.6797,195.8594 Q410.8281,195.7813 411.0313,195.7813 Q411.3594,195.7813 411.6172,196.0391 Q411.875,196.2969 411.875,196.6406 Q411.875,196.9844 411.5313,197.3906 Q411.0313,197.9688 410.2344,198.2969 Q409.1563,198.75 407.8594,198.75 Q406.3438,198.75 405.1406,198.125 Q404.1563,197.625 403.4688,196.5547 Q402.7813,195.4844 402.7813,194.2031 L402.7813,193.0469 Q402.7813,191.7188 403.3984,190.5703 Q404.0156,189.4219 405.1094,188.8047 Q406.2031,188.1875 407.4375,188.1875 Q408.1719,188.1875 408.8203,188.3516 Q409.4688,188.5156 410.0156,188.875 Z " fill="#000000"/><text fill="#000000" font-family="sans-serif" font-size="14" lengthAdjust="spacing" textLength="51" x="427.75" y="198.7285">Pantalla</text><line style="stroke:#181818;stroke-width:0.5;" x1="318.5" x2="555.5" y1="209" y2="209"/><rect fill="none" height="6" style="stroke:#C82930;stroke-width:1.0;" width="6" x="325.5" y="220.3047"/><text fill="#000000" font-family="sans-serif" font-size="14" lengthAdjust="spacing" textLength="126" x="337.5" y="227.5332">List&lt;Frame&gt; frames</text><line style="stroke:#181818;stroke-width:0.5;" x1="318.5" x2="555.5" y1="234.6094" y2="234.6094"/><ellipse cx="328.5" cy="248.9141" fill="#84BE84" rx="3" ry="3" style="stroke:#038048;stroke-width:1.0;"/><text fill="#000000" font-family="sans-serif" font-size="14" lengthAdjust="spacing" textLength="61" x="337.5" y="253.1426">Pantalla()</text><ellipse cx="328.5" cy="266.5234" fill="#84BE84" rx="3" ry="3" style="stroke:#038048;stroke-width:1.0;"/><text fill="#000000" font-family="sans-serif" font-size="14" lengthAdjust="spacing" textLength="210" x="337.5" y="270.752">void mostrarFrame(Frame frame)</text><rect fill="#F24D5C" height="6" style="stroke:#C82930;stroke-width:1.0;" width="6" x="325.5" y="281.1328"/><text fill="#000000" font-family="sans-serif" font-size="14" lengthAdjust="spacing" textLength="213" x="337.5" y="288.3613">char obtenerSimbolo(String color)</text><ellipse cx="328.5" cy="301.7422" fill="#84BE84" rx="3" ry="3" style="stroke:#038048;stroke-width:1.0;"/><text fill="#000000" font-family="sans-serif" font-size="14" lengthAdjust="spacing" textLength="212" x="337.5" y="305.9707">void agregarFrame(Frame frame)</text></g><!--class Main--><g id="elem_Main"><rect codeLine="44" fill="#F1F1F1" height="65.6094" id="Main" rx="2.5" ry="2.5" style="stroke:#181818;stroke-width:0.5;" width="210" x="332" y="7"/><ellipse cx="417.75" cy="23" fill="#ADD1B2" rx="11" ry="11" style="stroke:#181818;stroke-width:1.0;"/><path d="M420.5156,18.875 Q420.6719,18.6563 420.8594,18.5469 Q421.0469,18.4375 421.2656,18.4375 Q421.6406,18.4375 421.875,18.6953 Q422.1094,18.9531 422.1094,19.5625 L422.1094,21.0156 Q422.1094,21.625 421.875,21.8906 Q421.6406,22.1563 421.2656,22.1563 Q420.9219,22.1563 420.7188,21.9531 Q420.5156,21.7656 420.4063,21.25 Q420.3594,20.8906 420.1719,20.7031 Q419.8438,20.3281 419.2344,20.1094 Q418.625,19.8906 418,19.8906 Q417.2344,19.8906 416.6016,20.2188 Q415.9688,20.5469 415.4766,21.2969 Q414.9844,22.0469 414.9844,23.0781 L414.9844,24.1719 Q414.9844,25.4063 415.875,26.2266 Q416.7656,27.0469 418.3594,27.0469 Q419.2969,27.0469 419.9531,26.7969 Q420.3438,26.6406 420.7656,26.2031 Q421.0313,25.9375 421.1797,25.8594 Q421.3281,25.7813 421.5313,25.7813 Q421.8594,25.7813 422.1172,26.0391 Q422.375,26.2969 422.375,26.6406 Q422.375,26.9844 422.0313,27.3906 Q421.5313,27.9688 420.7344,28.2969 Q419.6563,28.75 418.3594,28.75 Q416.8438,28.75 415.6406,28.125 Q414.6563,27.625 413.9688,26.5547 Q413.2813,25.4844 413.2813,24.2031 L413.2813,23.0469 Q413.2813,21.7188 413.8984,20.5703 Q414.5156,19.4219 415.6094,18.8047 Q416.7031,18.1875 417.9375,18.1875 Q418.6719,18.1875 419.3203,18.3516 Q419.9688,18.5156 420.5156,18.875 Z " fill="#000000"/><text fill="#000000" font-family="sans-serif" font-size="14" lengthAdjust="spacing" textLength="30" x="438.25" y="28.7285">Main</text><line style="stroke:#181818;stroke-width:0.5;" x1="333" x2="541" y1="39" y2="39"/><line style="stroke:#181818;stroke-width:0.5;" x1="333" x2="541" y1="47" y2="47"/><ellipse cx="343" cy="61.3047" fill="#84BE84" rx="3" ry="3" style="stroke:#038048;stroke-width:1.0;"/><text fill="#000000" font-family="sans-serif" font-size="14" lengthAdjust="spacing" textLength="184" x="352" y="65.5332">static void main(String[] args)</text></g><!--reverse link Pixel to Frame--><g id="link_Pixel_Frame"><path codeLine="48" d="M209.003,366.2663 C225.453,386.0463 234.84,397.34 251.07,416.86 " fill="none" id="Pixel-backto-Frame" style="stroke:#181818;stroke-width:1.0;"/><polygon fill="#181818" points="201.33,357.04,202.0911,364.2108,209.003,366.2663,208.2419,359.0955,201.33,357.04" style="stroke:#181818;stroke-width:1.0;"/><text fill="#000000" font-family="sans-serif" font-size="13" lengthAdjust="spacing" textLength="7" x="200.2983" y="378.609">1</text><text fill="#000000" font-family="sans-serif" font-size="13" lengthAdjust="spacing" textLength="32" x="211.658" y="406.1884">many</text></g><!--reverse link Frame to ControlDeEnlazado--><g id="link_Frame_ControlDeEnlazado"><path codeLine="49" d="M323.1973,635.3089 C322.9273,655.2189 323.31,663.76 324.01,682.65 " fill="none" id="Frame-backto-ControlDeEnlazado" style="stroke:#181818;stroke-width:1.0;"/><polygon fill="#181818" points="323.36,623.31,319.279,629.2552,323.1973,635.3089,327.2783,629.3637,323.36,623.31" style="stroke:#181818;stroke-width:1.0;"/><text fill="#000000" font-family="sans-serif" font-size="13" lengthAdjust="spacing" textLength="7" x="315.1747" y="644.9746">1</text><text fill="#000000" font-family="sans-serif" font-size="13" lengthAdjust="spacing" textLength="7" x="315.5336" y="672.0433">1</text></g><!--reverse link ControlDeEnlazado to Frame--><g id="link_ControlDeEnlazado_Frame"><path codeLine="50" d="M349.1697,670.6592 C349.9097,651.7692 349.67,643.22 349.38,623.31 " fill="none" id="ControlDeEnlazado-backto-Frame" style="stroke:#181818;stroke-width:1.0;"/><polygon fill="#181818" points="348.7,682.65,352.9318,676.8112,349.1697,670.6592,344.9379,676.498,348.7,682.65" style="stroke:#181818;stroke-width:1.0;"/><text fill="#000000" font-family="sans-serif" font-size="13" lengthAdjust="spacing" textLength="7" x="342.5769" y="672.0433">1</text><text fill="#000000" font-family="sans-serif" font-size="13" lengthAdjust="spacing" textLength="7" x="343.1056" y="644.9746">1</text></g><!--reverse link Pantalla to Frame--><g id="link_Pantalla_Frame"><path codeLine="51" d="M407.9979,324.3851 C396.4379,355.6451 386.59,382.26 373.75,416.96 " fill="none" id="Pantalla-backto-Frame" style="stroke:#181818;stroke-width:1.0;"/><polygon fill="#181818" points="412.16,313.13,406.3272,317.3702,407.9979,324.3851,413.8306,320.1449,412.16,313.13" style="stroke:#181818;stroke-width:1.0;"/><text fill="#000000" font-family="sans-serif" font-size="13" lengthAdjust="spacing" textLength="7" x="402.2374" y="334.4917">1</text><text fill="#000000" font-family="sans-serif" font-size="13" lengthAdjust="spacing" textLength="32" x="343.3473" y="406.2957">many</text></g><!--link Main to Frame--><g id="link_Main_Frame"><path codeLine="52" d="M362.48,73.04 C338.05,87.56 313.68,107.34 300,133 C253.3,220.61 270.6408,329.6546 295.1908,411.2246 " fill="none" id="Main-to-Frame" style="stroke:#181818;stroke-width:1.0;"/><polygon fill="#181818" points="296.92,416.97,298.1565,407.1991,295.479,412.1821,290.4959,409.5047,296.92,416.97" style="stroke:#181818;stroke-width:1.0;"/></g><!--link Main to ControlDeEnlazado--><g id="link_Main_ControlDeEnlazado"><path codeLine="53" d="M511.52,73.04 C535.95,87.56 560.32,107.34 574,133 C620.83,220.85 586.77,258.27 574,357 C558.31,478.24 570.36,520.33 504,623 C489.74,645.06 475.2305,661.2733 455.1105,678.9233 " fill="none" id="Main-to-ControlDeEnlazado" style="stroke:#181818;stroke-width:1.0;"/><polygon fill="#181818" points="450.6,682.88,460.0035,679.9519,454.3587,679.5827,454.7279,673.9379,450.6,682.88" style="stroke:#181818;stroke-width:1.0;"/></g><!--link Main to Pantalla--><g id="link_Main_Pantalla"><path codeLine="54" d="M437,73.17 C437,100.89 437,135.84 437,170.69 " fill="none" id="Main-to-Pantalla" style="stroke:#181818;stroke-width:1.0;"/><polygon fill="#181818" points="437,176.69,441,167.69,437,171.69,433,167.69,437,176.69" style="stroke:#181818;stroke-width:1.0;"/></g><!--SRC=[VL8zRyCW5DpzAv0dqjX3CbUHghIPMYbgbaPH1aoeWuIX0bGbgVhVoxTmiEh1niUzT_SEC4DAWIsz40P-Ac2U5b2kmILRNyDwfoNbFS222UcWkI-4hg3nt6P4cmMUtUg9_e0H-1Rq19H5NF4TRr_mzevtZN3GCDIrbIde7Xqx-QqgxARTI3IGDAqRuN0y7C6NNQbiSCJnMUJ_J8iWv7h0H6hI_YpmdHFAAQQ8qHkIJaObepvnqMd2YInJ7Cr3b4OT8tYA-6_SJzOQl0UDIPYbiHPSIy6UoGjdw8PE8YNZS_gqxqK9BKletJhbcaoRTqG50t_HnChbA38iXevo5DcpF6zhVvCBvNDi3O0OGyd-ArNwqT5NtfwAsGVc-DOCGcaPT64sL7I7pqZ60zlHeJDvmwdiNJFKIz9FDaj-tn3bmUiSc74qnS68sGYTpQL4ibUkoj-OUb63XxO5zO3ujVQnL5uWRPblSQXLUSmvt_T94KwgECDjkxh_BRNILcnO_G40]--></g></svg>