<?xml version="1.0" encoding="us-ascii" standalone="no"?><svg xmlns="http://www.w3.org/2000/svg" xmlns:xlink="http://www.w3.org/1999/xlink" contentStyleType="text/css" height="897px" preserveAspectRatio="none" style="width:446px;height:897px;background:#FFFFFF;" version="1.1" viewBox="0 0 446 897" width="446px" zoomAndPan="magnify"><defs/><g><!--class Coordenada--><g id="elem_Coordenada"><rect codeLine="1" fill="#F1F1F1" height="136.0469" id="Coordenada" rx="2.5" ry="2.5" style="stroke:#181818;stroke-width:0.5;" width="182" x="7" y="754"/><ellipse cx="54.25" cy="770" fill="#ADD1B2" rx="11" ry="11" style="stroke:#181818;stroke-width:1.0;"/><path d="M57.0156,765.875 Q57.1719,765.6563 57.3594,765.5469 Q57.5469,765.4375 57.7656,765.4375 Q58.1406,765.4375 58.375,765.7031 Q58.6094,765.9531 58.6094,766.5625 L58.6094,768.0156 Q58.6094,768.625 58.375,768.8906 Q58.1406,769.1563 57.7656,769.1563 Q57.4219,769.1563 57.2188,768.9531 Q57.0156,768.7656 56.9063,768.25 Q56.8594,767.8906 56.6719,767.7031 Q56.3438,767.3281 55.7344,767.1094 Q55.125,766.8906 54.5,766.8906 Q53.7344,766.8906 53.0938,767.2188 Q52.4688,767.5469 51.9688,768.2969 Q51.4844,769.0469 51.4844,770.0781 L51.4844,771.1719 Q51.4844,772.4063 52.375,773.2344 Q53.2656,774.0469 54.8594,774.0469 Q55.7969,774.0469 56.4531,773.7969 Q56.8438,773.6406 57.2656,773.2031 Q57.5313,772.9375 57.6719,772.8594 Q57.8281,772.7813 58.0313,772.7813 Q58.3594,772.7813 58.6094,773.0469 Q58.875,773.2969 58.875,773.6406 Q58.875,773.9844 58.5313,774.3906 Q58.0313,774.9688 57.2344,775.2969 Q56.1563,775.75 54.8594,775.75 Q53.3438,775.75 52.1406,775.125 Q51.1563,774.625 50.4688,773.5625 Q49.7813,772.4844 49.7813,771.2031 L49.7813,770.0469 Q49.7813,768.7188 50.3906,767.5781 Q51.0156,766.4219 52.1094,765.8125 Q53.2031,765.1875 54.4375,765.1875 Q55.1719,765.1875 55.8125,765.3594 Q56.4688,765.5156 57.0156,765.875 Z " fill="#000000"/><text fill="#000000" font-family="sans-serif" font-size="14" lengthAdjust="spacing" textLength="79" x="74.75" y="775.7285">Coordenada</text><line style="stroke:#181818;stroke-width:0.5;" x1="8" x2="188" y1="786" y2="786"/><rect fill="none" height="6" style="stroke:#C82930;stroke-width:1.0;" width="6" x="15" y="797.3047"/><text fill="#000000" font-family="sans-serif" font-size="14" lengthAdjust="spacing" textLength="29" x="27" y="804.5332">x: int</text><rect fill="none" height="6" style="stroke:#C82930;stroke-width:1.0;" width="6" x="15" y="814.9141"/><text fill="#000000" font-family="sans-serif" font-size="14" lengthAdjust="spacing" textLength="30" x="27" y="822.1426">y: int</text><line style="stroke:#181818;stroke-width:0.5;" x1="8" x2="188" y1="829.2188" y2="829.2188"/><ellipse cx="18" cy="843.5234" fill="#84BE84" rx="3" ry="3" style="stroke:#038048;stroke-width:1.0;"/><text fill="#000000" font-family="sans-serif" font-size="14" lengthAdjust="spacing" textLength="156" x="27" y="847.752">Coordenada(x: int, y: int)</text><ellipse cx="18" cy="861.1328" fill="#84BE84" rx="3" ry="3" style="stroke:#038048;stroke-width:1.0;"/><text fill="#000000" font-family="sans-serif" font-size="14" lengthAdjust="spacing" textLength="61" x="27" y="865.3613">getX(): int</text><ellipse cx="18" cy="878.7422" fill="#84BE84" rx="3" ry="3" style="stroke:#038048;stroke-width:1.0;"/><text fill="#000000" font-family="sans-serif" font-size="14" lengthAdjust="spacing" textLength="62" x="27" y="882.9707">getY(): int</text></g><!--class Pixel--><g id="elem_Pixel"><rect codeLine="9" fill="#F1F1F1" height="136.0469" id="Pixel" rx="2.5" ry="2.5" style="stroke:#181818;stroke-width:0.5;" width="215" x="224.5" y="754"/><ellipse cx="313.25" cy="770" fill="#ADD1B2" rx="11" ry="11" style="stroke:#181818;stroke-width:1.0;"/><path d="M316.0156,765.875 Q316.1719,765.6563 316.3594,765.5469 Q316.5469,765.4375 316.7656,765.4375 Q317.1406,765.4375 317.375,765.7031 Q317.6094,765.9531 317.6094,766.5625 L317.6094,768.0156 Q317.6094,768.625 317.375,768.8906 Q317.1406,769.1563 316.7656,769.1563 Q316.4219,769.1563 316.2188,768.9531 Q316.0156,768.7656 315.9063,768.25 Q315.8594,767.8906 315.6719,767.7031 Q315.3438,767.3281 314.7344,767.1094 Q314.125,766.8906 313.5,766.8906 Q312.7344,766.8906 312.0938,767.2188 Q311.4688,767.5469 310.9688,768.2969 Q310.4844,769.0469 310.4844,770.0781 L310.4844,771.1719 Q310.4844,772.4063 311.375,773.2344 Q312.2656,774.0469 313.8594,774.0469 Q314.7969,774.0469 315.4531,773.7969 Q315.8438,773.6406 316.2656,773.2031 Q316.5313,772.9375 316.6719,772.8594 Q316.8281,772.7813 317.0313,772.7813 Q317.3594,772.7813 317.6094,773.0469 Q317.875,773.2969 317.875,773.6406 Q317.875,773.9844 317.5313,774.3906 Q317.0313,774.9688 316.2344,775.2969 Q315.1563,775.75 313.8594,775.75 Q312.3438,775.75 311.1406,775.125 Q310.1563,774.625 309.4688,773.5625 Q308.7813,772.4844 308.7813,771.2031 L308.7813,770.0469 Q308.7813,768.7188 309.3906,767.5781 Q310.0156,766.4219 311.1094,765.8125 Q312.2031,765.1875 313.4375,765.1875 Q314.1719,765.1875 314.8125,765.3594 Q315.4688,765.5156 316.0156,765.875 Z " fill="#000000"/><text fill="#000000" font-family="sans-serif" font-size="14" lengthAdjust="spacing" textLength="29" x="333.75" y="775.7285">Pixel</text><line style="stroke:#181818;stroke-width:0.5;" x1="225.5" x2="438.5" y1="786" y2="786"/><rect fill="none" height="6" style="stroke:#C82930;stroke-width:1.0;" width="6" x="232.5" y="797.3047"/><text fill="#000000" font-family="sans-serif" font-size="14" lengthAdjust="spacing" textLength="54" x="244.5" y="804.5332">color: int</text><rect fill="none" height="6" style="stroke:#C82930;stroke-width:1.0;" width="6" x="232.5" y="814.9141"/><text fill="#000000" font-family="sans-serif" font-size="14" lengthAdjust="spacing" textLength="88" x="244.5" y="822.1426">caracter: char</text><line style="stroke:#181818;stroke-width:0.5;" x1="225.5" x2="438.5" y1="829.2188" y2="829.2188"/><ellipse cx="235.5" cy="843.5234" fill="#84BE84" rx="3" ry="3" style="stroke:#038048;stroke-width:1.0;"/><text fill="#000000" font-family="sans-serif" font-size="14" lengthAdjust="spacing" textLength="189" x="244.5" y="847.752">Pixel(color: int, caracter: char)</text><ellipse cx="235.5" cy="861.1328" fill="#84BE84" rx="3" ry="3" style="stroke:#038048;stroke-width:1.0;"/><text fill="#000000" font-family="sans-serif" font-size="14" lengthAdjust="spacing" textLength="87" x="244.5" y="865.3613">getColor(): int</text><ellipse cx="235.5" cy="878.7422" fill="#84BE84" rx="3" ry="3" style="stroke:#038048;stroke-width:1.0;"/><text fill="#000000" font-family="sans-serif" font-size="14" lengthAdjust="spacing" textLength="121" x="244.5" y="882.9707">getCaracter(): char</text></g><!--class Frame--><g id="elem_Frame"><rect codeLine="17" fill="#F1F1F1" height="241.7031" id="Frame" rx="2.5" ry="2.5" style="stroke:#181818;stroke-width:0.5;" width="401" x="14.5" y="452"/><ellipse cx="190.25" cy="468" fill="#ADD1B2" rx="11" ry="11" style="stroke:#181818;stroke-width:1.0;"/><path d="M193.0156,463.875 Q193.1719,463.6563 193.3594,463.5469 Q193.5469,463.4375 193.7656,463.4375 Q194.1406,463.4375 194.375,463.7031 Q194.6094,463.9531 194.6094,464.5625 L194.6094,466.0156 Q194.6094,466.625 194.375,466.8906 Q194.1406,467.1563 193.7656,467.1563 Q193.4219,467.1563 193.2188,466.9531 Q193.0156,466.7656 192.9063,466.25 Q192.8594,465.8906 192.6719,465.7031 Q192.3438,465.3281 191.7344,465.1094 Q191.125,464.8906 190.5,464.8906 Q189.7344,464.8906 189.0938,465.2188 Q188.4688,465.5469 187.9688,466.2969 Q187.4844,467.0469 187.4844,468.0781 L187.4844,469.1719 Q187.4844,470.4063 188.375,471.2344 Q189.2656,472.0469 190.8594,472.0469 Q191.7969,472.0469 192.4531,471.7969 Q192.8438,471.6406 193.2656,471.2031 Q193.5313,470.9375 193.6719,470.8594 Q193.8281,470.7813 194.0313,470.7813 Q194.3594,470.7813 194.6094,471.0469 Q194.875,471.2969 194.875,471.6406 Q194.875,471.9844 194.5313,472.3906 Q194.0313,472.9688 193.2344,473.2969 Q192.1563,473.75 190.8594,473.75 Q189.3438,473.75 188.1406,473.125 Q187.1563,472.625 186.4688,471.5625 Q185.7813,470.4844 185.7813,469.2031 L185.7813,468.0469 Q185.7813,466.7188 186.3906,465.5781 Q187.0156,464.4219 188.1094,463.8125 Q189.2031,463.1875 190.4375,463.1875 Q191.1719,463.1875 191.8125,463.3594 Q192.4688,463.5156 193.0156,463.875 Z " fill="#000000"/><text fill="#000000" font-family="sans-serif" font-size="14" lengthAdjust="spacing" textLength="41" x="210.75" y="473.7285">Frame</text><line style="stroke:#181818;stroke-width:0.5;" x1="15.5" x2="414.5" y1="484" y2="484"/><rect fill="none" height="6" style="stroke:#C82930;stroke-width:1.0;" width="6" x="22.5" y="495.3047"/><text fill="#000000" font-family="sans-serif" font-size="14" lengthAdjust="spacing" textLength="75" x="34.5" y="502.5332">anchura: int</text><rect fill="none" height="6" style="stroke:#C82930;stroke-width:1.0;" width="6" x="22.5" y="512.9141"/><text fill="#000000" font-family="sans-serif" font-size="14" lengthAdjust="spacing" textLength="59" x="34.5" y="520.1426">altura: int</text><rect fill="none" height="6" style="stroke:#C82930;stroke-width:1.0;" width="6" x="22.5" y="530.5234"/><text fill="#000000" font-family="sans-serif" font-size="14" lengthAdjust="spacing" textLength="88" x="34.5" y="537.752">pixels: Pixel[][]</text><line style="stroke:#181818;stroke-width:0.5;" x1="15.5" x2="414.5" y1="544.8281" y2="544.8281"/><ellipse cx="25.5" cy="559.1328" fill="#84BE84" rx="3" ry="3" style="stroke:#038048;stroke-width:1.0;"/><text fill="#000000" font-family="sans-serif" font-size="14" lengthAdjust="spacing" textLength="193" x="34.5" y="563.3613">Frame(anchura: int, altura: int)</text><ellipse cx="25.5" cy="576.7422" fill="#84BE84" rx="3" ry="3" style="stroke:#038048;stroke-width:1.0;"/><text fill="#000000" font-family="sans-serif" font-size="14" lengthAdjust="spacing" textLength="116" x="34.5" y="580.9707">borrarTodo(): void</text><ellipse cx="25.5" cy="594.3516" fill="#84BE84" rx="3" ry="3" style="stroke:#038048;stroke-width:1.0;"/><text fill="#000000" font-family="sans-serif" font-size="14" lengthAdjust="spacing" textLength="246" x="34.5" y="598.5801">borrar(coordenada: Coordenada): void</text><ellipse cx="25.5" cy="611.9609" fill="#84BE84" rx="3" ry="3" style="stroke:#038048;stroke-width:1.0;"/><text fill="#000000" font-family="sans-serif" font-size="14" lengthAdjust="spacing" textLength="375" x="34.5" y="616.1895">establecerPixel(coordenada: Coordenada, pixel: Pixel): void</text><ellipse cx="25.5" cy="629.5703" fill="#84BE84" rx="3" ry="3" style="stroke:#038048;stroke-width:1.0;"/><text fill="#000000" font-family="sans-serif" font-size="14" lengthAdjust="spacing" textLength="353" x="34.5" y="633.7988">validarCoordenada(coordenada: Coordenada): boolean</text><ellipse cx="25.5" cy="647.1797" fill="#84BE84" rx="3" ry="3" style="stroke:#038048;stroke-width:1.0;"/><text fill="#000000" font-family="sans-serif" font-size="14" lengthAdjust="spacing" textLength="108" x="34.5" y="651.4082">renderizar(): void</text><ellipse cx="25.5" cy="664.7891" fill="#84BE84" rx="3" ry="3" style="stroke:#038048;stroke-width:1.0;"/><text fill="#000000" font-family="sans-serif" font-size="14" lengthAdjust="spacing" textLength="119" x="34.5" y="669.0176">getPixels(): Pixel[][]</text><ellipse cx="25.5" cy="682.3984" fill="#84BE84" rx="3" ry="3" style="stroke:#038048;stroke-width:1.0;"/><text fill="#000000" font-family="sans-serif" font-size="14" lengthAdjust="spacing" textLength="259" x="34.5" y="686.627">getPixel(coordenada: Coordenada): Pixel</text></g><!--class Escena--><g id="elem_Escena"><rect codeLine="33" fill="#F1F1F1" height="171.2656" id="Escena" rx="2.5" ry="2.5" style="stroke:#181818;stroke-width:0.5;" width="352" x="39" y="221"/><ellipse cx="187.25" cy="237" fill="#ADD1B2" rx="11" ry="11" style="stroke:#181818;stroke-width:1.0;"/><path d="M190.0156,232.875 Q190.1719,232.6563 190.3594,232.5469 Q190.5469,232.4375 190.7656,232.4375 Q191.1406,232.4375 191.375,232.7031 Q191.6094,232.9531 191.6094,233.5625 L191.6094,235.0156 Q191.6094,235.625 191.375,235.8906 Q191.1406,236.1563 190.7656,236.1563 Q190.4219,236.1563 190.2188,235.9531 Q190.0156,235.7656 189.9063,235.25 Q189.8594,234.8906 189.6719,234.7031 Q189.3438,234.3281 188.7344,234.1094 Q188.125,233.8906 187.5,233.8906 Q186.7344,233.8906 186.0938,234.2188 Q185.4688,234.5469 184.9688,235.2969 Q184.4844,236.0469 184.4844,237.0781 L184.4844,238.1719 Q184.4844,239.4063 185.375,240.2344 Q186.2656,241.0469 187.8594,241.0469 Q188.7969,241.0469 189.4531,240.7969 Q189.8438,240.6406 190.2656,240.2031 Q190.5313,239.9375 190.6719,239.8594 Q190.8281,239.7813 191.0313,239.7813 Q191.3594,239.7813 191.6094,240.0469 Q191.875,240.2969 191.875,240.6406 Q191.875,240.9844 191.5313,241.3906 Q191.0313,241.9688 190.2344,242.2969 Q189.1563,242.75 187.8594,242.75 Q186.3438,242.75 185.1406,242.125 Q184.1563,241.625 183.4688,240.5625 Q182.7813,239.4844 182.7813,238.2031 L182.7813,237.0469 Q182.7813,235.7188 183.3906,234.5781 Q184.0156,233.4219 185.1094,232.8125 Q186.2031,232.1875 187.4375,232.1875 Q188.1719,232.1875 188.8125,232.3594 Q189.4688,232.5156 190.0156,232.875 Z " fill="#000000"/><text fill="#000000" font-family="sans-serif" font-size="14" lengthAdjust="spacing" textLength="47" x="207.75" y="242.7285">Escena</text><line style="stroke:#181818;stroke-width:0.5;" x1="40" x2="390" y1="253" y2="253"/><rect fill="none" height="6" style="stroke:#C82930;stroke-width:1.0;" width="6" x="47" y="264.3047"/><text fill="#000000" font-family="sans-serif" font-size="14" lengthAdjust="spacing" textLength="99" x="59" y="271.5332">indiceActual: int</text><rect fill="none" height="6" style="stroke:#C82930;stroke-width:1.0;" width="6" x="47" y="281.9141"/><text fill="#000000" font-family="sans-serif" font-size="14" lengthAdjust="spacing" textLength="100" x="59" y="289.1426">frames: Frame[]</text><line style="stroke:#181818;stroke-width:0.5;" x1="40" x2="390" y1="296.2188" y2="296.2188"/><ellipse cx="50" cy="310.5234" fill="#84BE84" rx="3" ry="3" style="stroke:#038048;stroke-width:1.0;"/><text fill="#000000" font-family="sans-serif" font-size="14" lengthAdjust="spacing" textLength="326" x="59" y="314.752">Escena(anchura: int, altura: int, numeroFrames: int)</text><ellipse cx="50" cy="328.1328" fill="#84BE84" rx="3" ry="3" style="stroke:#038048;stroke-width:1.0;"/><text fill="#000000" font-family="sans-serif" font-size="14" lengthAdjust="spacing" textLength="101" x="59" y="332.3613">siguiente(): void</text><ellipse cx="50" cy="345.7422" fill="#84BE84" rx="3" ry="3" style="stroke:#038048;stroke-width:1.0;"/><text fill="#000000" font-family="sans-serif" font-size="14" lengthAdjust="spacing" textLength="120" x="59" y="349.9707">getFrame(): Frame</text><ellipse cx="50" cy="363.3516" fill="#84BE84" rx="3" ry="3" style="stroke:#038048;stroke-width:1.0;"/><text fill="#000000" font-family="sans-serif" font-size="14" lengthAdjust="spacing" textLength="180" x="59" y="367.5801">getFrame(indice: int): Frame</text><ellipse cx="50" cy="380.9609" fill="#84BE84" rx="3" ry="3" style="stroke:#038048;stroke-width:1.0;"/><text fill="#000000" font-family="sans-serif" font-size="14" lengthAdjust="spacing" textLength="129" x="59" y="385.1895">numeroFrames(): int</text></g><!--class PantallaEntrelazada--><g id="elem_PantallaEntrelazada"><rect codeLine="44" fill="#F1F1F1" height="153.6563" id="PantallaEntrelazada" rx="2.5" ry="2.5" style="stroke:#181818;stroke-width:0.5;" width="278" x="76" y="7"/><ellipse cx="147.75" cy="23" fill="#ADD1B2" rx="11" ry="11" style="stroke:#181818;stroke-width:1.0;"/><path d="M150.5156,18.875 Q150.6719,18.6563 150.8594,18.5469 Q151.0469,18.4375 151.2656,18.4375 Q151.6406,18.4375 151.875,18.7031 Q152.1094,18.9531 152.1094,19.5625 L152.1094,21.0156 Q152.1094,21.625 151.875,21.8906 Q151.6406,22.1563 151.2656,22.1563 Q150.9219,22.1563 150.7188,21.9531 Q150.5156,21.7656 150.4063,21.25 Q150.3594,20.8906 150.1719,20.7031 Q149.8438,20.3281 149.2344,20.1094 Q148.625,19.8906 148,19.8906 Q147.2344,19.8906 146.5938,20.2188 Q145.9688,20.5469 145.4688,21.2969 Q144.9844,22.0469 144.9844,23.0781 L144.9844,24.1719 Q144.9844,25.4063 145.875,26.2344 Q146.7656,27.0469 148.3594,27.0469 Q149.2969,27.0469 149.9531,26.7969 Q150.3438,26.6406 150.7656,26.2031 Q151.0313,25.9375 151.1719,25.8594 Q151.3281,25.7813 151.5313,25.7813 Q151.8594,25.7813 152.1094,26.0469 Q152.375,26.2969 152.375,26.6406 Q152.375,26.9844 152.0313,27.3906 Q151.5313,27.9688 150.7344,28.2969 Q149.6563,28.75 148.3594,28.75 Q146.8438,28.75 145.6406,28.125 Q144.6563,27.625 143.9688,26.5625 Q143.2813,25.4844 143.2813,24.2031 L143.2813,23.0469 Q143.2813,21.7188 143.8906,20.5781 Q144.5156,19.4219 145.6094,18.8125 Q146.7031,18.1875 147.9375,18.1875 Q148.6719,18.1875 149.3125,18.3594 Q149.9688,18.5156 150.5156,18.875 Z " fill="#000000"/><text fill="#000000" font-family="sans-serif" font-size="14" lengthAdjust="spacing" textLength="126" x="168.25" y="28.7285">PantallaEntrelazada</text><line style="stroke:#181818;stroke-width:0.5;" x1="77" x2="353" y1="39" y2="39"/><rect fill="none" height="6" style="stroke:#C82930;stroke-width:1.0;" width="6" x="84" y="50.3047"/><text fill="#000000" font-family="sans-serif" font-size="14" lengthAdjust="spacing" textLength="62" x="96" y="57.5332">ancho: int</text><rect fill="none" height="6" style="stroke:#C82930;stroke-width:1.0;" width="6" x="84" y="67.9141"/><text fill="#000000" font-family="sans-serif" font-size="14" lengthAdjust="spacing" textLength="46" x="96" y="75.1426">alto: int</text><rect fill="none" height="6" style="stroke:#C82930;stroke-width:1.0;" width="6" x="84" y="85.5234"/><text fill="#000000" font-family="sans-serif" font-size="14" lengthAdjust="spacing" textLength="101" x="96" y="92.752">escena: Escena</text><line style="stroke:#181818;stroke-width:0.5;" x1="77" x2="353" y1="99.8281" y2="99.8281"/><ellipse cx="87" cy="114.1328" fill="#84BE84" rx="3" ry="3" style="stroke:#038048;stroke-width:1.0;"/><text fill="#000000" font-family="sans-serif" font-size="14" lengthAdjust="spacing" textLength="252" x="96" y="118.3613">PantallaEntrelazada(ancho: int, alto: int)</text><ellipse cx="87" cy="131.7422" fill="#84BE84" rx="3" ry="3" style="stroke:#038048;stroke-width:1.0;"/><text fill="#000000" font-family="sans-serif" font-size="14" lengthAdjust="spacing" textLength="108" x="96" y="135.9707">renderizar(): void</text><ellipse cx="87" cy="149.3516" fill="#84BE84" rx="3" ry="3" style="stroke:#038048;stroke-width:1.0;"/><text fill="#000000" font-family="sans-serif" font-size="14" lengthAdjust="spacing" textLength="132" x="96" y="153.5801">getEscena(): Escena</text></g><!--link Frame to Pixel--><g id="link_Frame_Pixel"><path codeLine="30" d="M271.96,694.24 C281.66,714.73 288.8512,729.9177 297.6012,748.3877 " fill="none" id="Frame-to-Pixel" style="stroke:#181818;stroke-width:1.0;stroke-dasharray:7.0,7.0;"/><polygon fill="#181818" points="300.17,753.81,299.9317,743.964,298.0294,749.2914,292.702,747.3891,300.17,753.81" style="stroke:#181818;stroke-width:1.0;"/></g><!--link Frame to Coordenada--><g id="link_Frame_Coordenada"><path codeLine="31" d="M158.04,694.24 C148.34,714.73 141.1488,729.9177 132.3988,748.3877 " fill="none" id="Frame-to-Coordenada" style="stroke:#181818;stroke-width:1.0;stroke-dasharray:7.0,7.0;"/><polygon fill="#181818" points="129.83,753.81,137.298,747.3891,131.9706,749.2914,130.0683,743.964,129.83,753.81" style="stroke:#181818;stroke-width:1.0;"/></g><!--link Escena to Frame--><g id="link_Escena_Frame"><path codeLine="43" d="M215,392.28 C215,411.17 215,425.55 215,445.56 " fill="none" id="Escena-to-Frame" style="stroke:#181818;stroke-width:1.0;stroke-dasharray:7.0,7.0;"/><polygon fill="#181818" points="215,451.56,219,442.56,215,446.56,211,442.56,215,451.56" style="stroke:#181818;stroke-width:1.0;"/></g><!--link PantallaEntrelazada to Escena--><g id="link_PantallaEntrelazada_Escena"><path codeLine="53" d="M215,161.19 C215,180.36 215,195.06 215,214.62 " fill="none" id="PantallaEntrelazada-to-Escena" style="stroke:#181818;stroke-width:1.0;"/><polygon fill="#181818" points="215,220.62,219,211.62,215,215.62,211,211.62,215,220.62" style="stroke:#181818;stroke-width:1.0;"/></g><!--SRC=[XLDDRy8m3BtpAt9ijS8Fw05fGd3UOOTDY8D9F8WKaibD4MFQVr- -sgGCj5jjFpy_-pLSGTUnbJ4aK8C0zZrZRCukBPFQXi-luVEfW5KHqAHg7Se7j6zLdU4kVX_YdzcCXr4lye8gJU566SgJE11mYox3Zq218g2hZ6jkGEFWbOVS35ybg4y7nb74Xk24IGHeVkm9iWnGTX9_UWrT6xLiTzjTu0yKLTdSb9rHsDuG0RqQORo6iv6YIBkrXdEsnMbB87OMzWevqd28UnrDb9WKblrdK5805RuzdBatHY7eq4Qe1PAy0arakvE62PtFJgynb1xpXx9p89v-iLYcJ8upVB1ftN4N9v-a5fBZCxSzg6pEXsztvWIQ92QsFVQcORe_8PbDwXtjwkIXbwWjtguTpQxJc6asweei9Q2SKRo2j5FOE8BJkm1jGIbOQqkeu9hVej_3J7xF8i90rwQTuvlvorHbZYOJrF-OdUvOZ-nE_ZsPy_boGFm2]--></g></svg>