<svg xmlns="http://www.w3.org/2000/svg" xmlns:xlink="http://www.w3.org/1999/xlink" contentStyleType="text/css" data-diagram-type="CLASS" height="489px" preserveAspectRatio="none" style="width:406px;height:489px;background:#FFFFFF;" version="1.1" viewBox="0 0 406 489" width="406px" zoomAndPan="magnify"><defs/><g><!--class Pixel--><g id="elem_Pixel"><rect codeLine="1" fill="#F1F1F1" height="96.8906" id="Pixel" rx="2.5" ry="2.5" style="stroke:#181818;stroke-width:0.5;" width="138.5537" x="133.93" y="385.97"/><ellipse cx="182.3968" cy="401.97" fill="#ADD1B2" rx="11" ry="11" style="stroke:#181818;stroke-width:1;"/><path d="M185.3655,407.6106 Q184.7874,407.9075 184.1468,408.0481 Q183.5062,408.2044 182.803,408.2044 Q180.303,408.2044 178.9749,406.5638 Q177.6624,404.9075 177.6624,401.7825 Q177.6624,398.6575 178.9749,397.0013 Q180.303,395.345 182.803,395.345 Q183.5062,395.345 184.1468,395.5013 Q184.803,395.6575 185.3655,395.9544 L185.3655,398.6731 Q184.7405,398.095 184.1468,397.8294 Q183.553,397.5481 182.928,397.5481 Q181.5843,397.5481 180.8968,398.6263 Q180.2093,399.6888 180.2093,401.7825 Q180.2093,403.8763 180.8968,404.9544 Q181.5843,406.0169 182.928,406.0169 Q183.553,406.0169 184.1468,405.7513 Q184.7405,405.47 185.3655,404.8919 L185.3655,407.6106 Z " fill="#000000"/><text fill="#000000" font-family="sans-serif" font-size="14" lengthAdjust="spacing" textLength="33.1201" x="202.8968" y="406.8167">Pixel</text><line style="stroke:#181818;stroke-width:0.5;" x1="134.93" x2="271.4837" y1="417.97" y2="417.97"/><text fill="#000000" font-family="sans-serif" font-size="14" lengthAdjust="spacing" textLength="58.9395" x="139.93" y="434.9651">int dato;</text><line style="stroke:#181818;stroke-width:0.5;" x1="134.93" x2="271.4837" y1="442.2669" y2="442.2669"/><text fill="#000000" font-family="sans-serif" font-size="14" lengthAdjust="spacing" textLength="126.5537" x="139.93" y="459.262">int obtenerDato();</text><text fill="#000000" font-family="sans-serif" font-size="14" lengthAdjust="spacing" textLength="99.8115" x="139.93" y="475.5589">void setDato()</text></g><!--class Frame--><g id="elem_Frame"><rect codeLine="7" fill="#F1F1F1" height="113.1875" id="Frame" rx="2.5" ry="2.5" style="stroke:#181818;stroke-width:0.5;" width="319.2959" x="43.56" y="212.78"/><ellipse cx="176.6386" cy="228.78" fill="#ADD1B2" rx="11" ry="11" style="stroke:#181818;stroke-width:1;"/><path d="M179.6074,234.4206 Q179.0292,234.7175 178.3886,234.8581 Q177.748,235.0144 177.0449,235.0144 Q174.5449,235.0144 173.2167,233.3738 Q171.9042,231.7175 171.9042,228.5925 Q171.9042,225.4675 173.2167,223.8113 Q174.5449,222.155 177.0449,222.155 Q177.748,222.155 178.3886,222.3113 Q179.0449,222.4675 179.6074,222.7644 L179.6074,225.4831 Q178.9824,224.905 178.3886,224.6394 Q177.7949,224.3581 177.1699,224.3581 Q175.8261,224.3581 175.1386,225.4363 Q174.4511,226.4988 174.4511,228.5925 Q174.4511,230.6863 175.1386,231.7644 Q175.8261,232.8269 177.1699,232.8269 Q177.7949,232.8269 178.3886,232.5613 Q178.9824,232.28 179.6074,231.7019 L179.6074,234.4206 Z " fill="#000000"/><text fill="#000000" font-family="sans-serif" font-size="14" lengthAdjust="spacing" textLength="44.6387" x="197.1386" y="233.6267">Frame</text><line style="stroke:#181818;stroke-width:0.5;" x1="44.56" x2="361.8559" y1="244.78" y2="244.78"/><text fill="#000000" font-family="sans-serif" font-size="14" lengthAdjust="spacing" textLength="94.7256" x="49.56" y="261.7751">Pixel[] frame;</text><line style="stroke:#181818;stroke-width:0.5;" x1="44.56" x2="361.8559" y1="269.0769" y2="269.0769"/><text fill="#000000" font-family="sans-serif" font-size="14" lengthAdjust="spacing" textLength="307.2959" x="49.56" y="286.072">void modificarPixel(int pos, int nuevoValor);</text><text fill="#000000" font-family="sans-serif" font-size="14" lengthAdjust="spacing" textLength="175.7793" x="49.56" y="302.3689">void traducir(Pixel pixel);</text><text fill="#000000" font-family="sans-serif" font-size="14" lengthAdjust="spacing" textLength="109.0605" x="49.56" y="318.6657">void imprimir();</text></g><!--class Pantalla--><g id="elem_Pantalla"><rect codeLine="14" fill="#F1F1F1" height="145.7813" id="Pantalla" rx="2.5" ry="2.5" style="stroke:#181818;stroke-width:0.5;" width="392.4131" x="7" y="7"/><ellipse cx="170.7959" cy="23" fill="#ADD1B2" rx="11" ry="11" style="stroke:#181818;stroke-width:1;"/><path d="M173.7646,28.6406 Q173.1865,28.9375 172.5459,29.0781 Q171.9053,29.2344 171.2021,29.2344 Q168.7021,29.2344 167.374,27.5938 Q166.0615,25.9375 166.0615,22.8125 Q166.0615,19.6875 167.374,18.0313 Q168.7021,16.375 171.2021,16.375 Q171.9053,16.375 172.5459,16.5313 Q173.2021,16.6875 173.7646,16.9844 L173.7646,19.7031 Q173.1396,19.125 172.5459,18.8594 Q171.9521,18.5781 171.3271,18.5781 Q169.9834,18.5781 169.2959,19.6563 Q168.6084,20.7188 168.6084,22.8125 Q168.6084,24.9063 169.2959,25.9844 Q169.9834,27.0469 171.3271,27.0469 Q171.9521,27.0469 172.5459,26.7813 Q173.1396,26.5 173.7646,25.9219 L173.7646,28.6406 Z " fill="#000000"/><text fill="#000000" font-family="sans-serif" font-size="14" lengthAdjust="spacing" textLength="56.3213" x="191.2959" y="27.8467">Pantalla</text><line style="stroke:#181818;stroke-width:0.5;" x1="8" x2="398.4131" y1="39" y2="39"/><text fill="#000000" font-family="sans-serif" font-size="14" lengthAdjust="spacing" textLength="85.0801" x="13" y="55.9951">int posicion;</text><text fill="#000000" font-family="sans-serif" font-size="14" lengthAdjust="spacing" textLength="121.4951" x="13" y="72.292">Frame[] pantalla;</text><line style="stroke:#181818;stroke-width:0.5;" x1="8" x2="398.4131" y1="79.5938" y2="79.5938"/><text fill="#000000" font-family="sans-serif" font-size="14" lengthAdjust="spacing" textLength="164.4453" x="13" y="96.5889">Frame generarFrame();</text><text fill="#000000" font-family="sans-serif" font-size="14" lengthAdjust="spacing" textLength="231.3486" x="13" y="112.8857">void addFrame(generarFrame());</text><text fill="#000000" font-family="sans-serif" font-size="14" lengthAdjust="spacing" textLength="229.7969" x="13" y="129.1826">void mostrarFrame(int posicion);</text><text fill="#000000" font-family="sans-serif" font-size="14" lengthAdjust="spacing" textLength="380.4131" x="13" y="145.4795">void modificarPixel(int frame, int pos, int nuevoValor);</text></g><!--link Frame to Pixel--><g id="link_Frame_Pixel"><path codeLine="23" d="M203.21,326.03 C203.21,345.4 203.21,360.95 203.21,379.62 " fill="#FFFFFF" fill-opacity="0.00000" id="Frame-to-Pixel" style="stroke:#181818;stroke-width:1;"/><polygon fill="#181818" points="203.21,385.62,207.21,376.62,203.21,380.62,199.21,376.62,203.21,385.62" style="stroke:#181818;stroke-width:1;"/></g><!--link Pantalla to Frame--><g id="link_Pantalla_Frame"><path codeLine="24" d="M203.21,153.11 C203.21,172.81 203.21,187.86 203.21,206.5 " fill="#FFFFFF" fill-opacity="0.00000" id="Pantalla-to-Frame" style="stroke:#181818;stroke-width:1;"/><polygon fill="#181818" points="203.21,212.5,207.21,203.5,203.21,207.5,199.21,203.5,203.21,212.5" style="stroke:#181818;stroke-width:1;"/></g><!--SRC=[VP0z3i8m38NtdC9ZAxKdG692p9rO48D9KcGfJQeahP0GToTnVnbWYPBlsSz-aGP3W8QUshm40Da82gCxp7TtZzfgVqgeA3CS7Ia8Eav4l8MGx73ssEdim5RN6xGPh1sTKzIIHCzoaQrx5ogUOGSzkWiQvxS9qQCQ9Fc2ww7FvwPIrtlgafhGka63Dg8nkCH8_YJ9sTp5swMb-hbcPV38yT3pOvSGbPhGjrxk0eMuylsuybzc_fGAViTFQQQzwleuVQLOSZ5YyGC0]--></g></svg>