<svg xmlns="http://www.w3.org/2000/svg" xmlns:xlink="http://www.w3.org/1999/xlink" contentStyleType="text/css" data-diagram-type="CLASS" height="587px" preserveAspectRatio="none" style="width:366px;height:587px;background:#FFFFFF;" version="1.1" viewBox="0 0 366 587" width="366px" zoomAndPan="magnify"><defs/><g><!--class Pantalla--><g id="elem_Pantalla"><rect codeLine="1" fill="#F1F1F1" height="210.9688" id="Pantalla" rx="2.5" ry="2.5" style="stroke:#181818;stroke-width:0.5;" width="352.0059" x="7" y="7"/><ellipse cx="150.5923" cy="23" fill="#ADD1B2" rx="11" ry="11" style="stroke:#181818;stroke-width:1;"/><path d="M153.561,28.6406 Q152.9829,28.9375 152.3423,29.0781 Q151.7017,29.2344 150.9985,29.2344 Q148.4985,29.2344 147.1704,27.5938 Q145.8579,25.9375 145.8579,22.8125 Q145.8579,19.6875 147.1704,18.0313 Q148.4985,16.375 150.9985,16.375 Q151.7017,16.375 152.3423,16.5313 Q152.9985,16.6875 153.561,16.9844 L153.561,19.7031 Q152.936,19.125 152.3423,18.8594 Q151.7485,18.5781 151.1235,18.5781 Q149.7798,18.5781 149.0923,19.6563 Q148.4048,20.7188 148.4048,22.8125 Q148.4048,24.9063 149.0923,25.9844 Q149.7798,27.0469 151.1235,27.0469 Q151.7485,27.0469 152.3423,26.7813 Q152.936,26.5 153.561,25.9219 L153.561,28.6406 Z " fill="#000000"/><text fill="#000000" font-family="sans-serif" font-size="14" lengthAdjust="spacing" textLength="56.3213" x="171.0923" y="27.8467">Pantalla</text><line style="stroke:#181818;stroke-width:0.5;" x1="8" x2="358.0059" y1="39" y2="39"/><rect fill="#FFFFFF" fill-opacity="0.00000" height="6" style="stroke:#C82930;stroke-width:1;" width="6" x="15" y="49.6484"/><text fill="#000000" font-family="sans-serif" font-size="14" lengthAdjust="spacing" textLength="116.7783" x="27" y="55.9951">Frame[] pantalla</text><rect fill="#FFFFFF" fill-opacity="0.00000" height="6" style="stroke:#C82930;stroke-width:1;" width="6" x="15" y="65.9453"/><text fill="#000000" font-family="sans-serif" font-size="14" lengthAdjust="spacing" textLength="108.3223" x="27" y="72.292">int frameActual</text><rect fill="#FFFFFF" fill-opacity="0.00000" height="6" style="stroke:#C82930;stroke-width:1;" width="6" x="15" y="82.2422"/><text fill="#000000" font-family="sans-serif" font-size="14" lengthAdjust="spacing" textLength="134.6816" x="27" y="88.5889">final int WIDTH = 7</text><rect fill="#FFFFFF" fill-opacity="0.00000" height="6" style="stroke:#C82930;stroke-width:1;" width="6" x="15" y="98.5391"/><text fill="#000000" font-family="sans-serif" font-size="14" lengthAdjust="spacing" textLength="140.2803" x="27" y="104.8857">final int HEIGHT = 3</text><line style="stroke:#181818;stroke-width:1;" x1="8" x2="358.0059" y1="112.1875" y2="112.1875"/><ellipse cx="18" cy="125.8359" fill="#84BE84" rx="3" ry="3" style="stroke:#038048;stroke-width:1;"/><text fill="#000000" font-family="sans-serif" font-size="14" lengthAdjust="spacing" textLength="67.2451" x="27" y="129.1826">Pantalla()</text><ellipse cx="18" cy="142.1328" fill="#84BE84" rx="3" ry="3" style="stroke:#038048;stroke-width:1;"/><text fill="#000000" font-family="sans-serif" font-size="14" lengthAdjust="spacing" textLength="225.0801" x="27" y="145.4795">void mostrarFrame(int posicion)</text><ellipse cx="18" cy="158.4297" fill="#84BE84" rx="3" ry="3" style="stroke:#038048;stroke-width:1;"/><text fill="#000000" font-family="sans-serif" font-size="14" lengthAdjust="spacing" textLength="326.0059" x="27" y="161.7764">void modificarPixel(int x, int y, int nuevoValor)</text><ellipse cx="18" cy="174.7266" fill="#84BE84" rx="3" ry="3" style="stroke:#038048;stroke-width:1;"/><text fill="#000000" font-family="sans-serif" font-size="14" lengthAdjust="spacing" textLength="152.4688" x="27" y="178.0732">void alternarFrames()</text><ellipse cx="18" cy="191.0234" fill="#84BE84" rx="3" ry="3" style="stroke:#038048;stroke-width:1;"/><text fill="#000000" font-family="sans-serif" font-size="14" lengthAdjust="spacing" textLength="162.8184" x="27" y="194.3701">void combinarFrames()</text><rect fill="#F24D5C" height="6" style="stroke:#C82930;stroke-width:1;" width="6" x="15" y="204.3203"/><text fill="#000000" font-family="sans-serif" font-size="14" lengthAdjust="spacing" textLength="169.6611" x="27" y="210.667">String simbolo(int valor)</text></g><!--class Frame--><g id="elem_Frame"><rect codeLine="15" fill="#F1F1F1" height="129.4844" id="Frame" rx="2.5" ry="2.5" style="stroke:#181818;stroke-width:0.5;" width="328.5791" x="18.71" y="277.97"/><ellipse cx="156.4302" cy="293.97" fill="#ADD1B2" rx="11" ry="11" style="stroke:#181818;stroke-width:1;"/><path d="M159.399,299.6106 Q158.8208,299.9075 158.1802,300.0481 Q157.5396,300.2044 156.8365,300.2044 Q154.3365,300.2044 153.0083,298.5637 Q151.6958,296.9075 151.6958,293.7825 Q151.6958,290.6575 153.0083,289.0012 Q154.3365,287.345 156.8365,287.345 Q157.5396,287.345 158.1802,287.5012 Q158.8365,287.6575 159.399,287.9544 L159.399,290.6731 Q158.774,290.095 158.1802,289.8294 Q157.5865,289.5481 156.9615,289.5481 Q155.6177,289.5481 154.9302,290.6262 Q154.2427,291.6887 154.2427,293.7825 Q154.2427,295.8762 154.9302,296.9544 Q155.6177,298.0169 156.9615,298.0169 Q157.5865,298.0169 158.1802,297.7512 Q158.774,297.47 159.399,296.8919 L159.399,299.6106 Z " fill="#000000"/><text fill="#000000" font-family="sans-serif" font-size="14" lengthAdjust="spacing" textLength="44.6387" x="176.9302" y="298.8167">Frame</text><line style="stroke:#181818;stroke-width:0.5;" x1="19.71" x2="346.2891" y1="309.97" y2="309.97"/><rect fill="#FFFFFF" fill-opacity="0.00000" height="6" style="stroke:#C82930;stroke-width:1;" width="6" x="26.71" y="320.6184"/><text fill="#000000" font-family="sans-serif" font-size="14" lengthAdjust="spacing" textLength="90.0088" x="38.71" y="326.9651">Pixel[] frame</text><line style="stroke:#181818;stroke-width:1;" x1="19.71" x2="346.2891" y1="334.2669" y2="334.2669"/><ellipse cx="29.71" cy="347.9153" fill="#84BE84" rx="3" ry="3" style="stroke:#038048;stroke-width:1;"/><text fill="#000000" font-family="sans-serif" font-size="14" lengthAdjust="spacing" textLength="193.0811" x="38.71" y="351.262">Frame(int width, int height)</text><ellipse cx="29.71" cy="364.2122" fill="#84BE84" rx="3" ry="3" style="stroke:#038048;stroke-width:1;"/><text fill="#000000" font-family="sans-serif" font-size="14" lengthAdjust="spacing" textLength="302.5791" x="38.71" y="367.5589">void modificarPixel(int pos, int nuevoValor)</text><ellipse cx="29.71" cy="380.5091" fill="#84BE84" rx="3" ry="3" style="stroke:#038048;stroke-width:1;"/><text fill="#000000" font-family="sans-serif" font-size="14" lengthAdjust="spacing" textLength="183.8594" x="38.71" y="383.8557">Pixel obtenerPixel(int pos)</text><ellipse cx="29.71" cy="396.8059" fill="#84BE84" rx="3" ry="3" style="stroke:#038048;stroke-width:1;"/><text fill="#000000" font-family="sans-serif" font-size="14" lengthAdjust="spacing" textLength="104.3438" x="38.71" y="400.1526">void imprimir()</text></g><!--class Pixel--><g id="elem_Pixel"><rect codeLine="24" fill="#F1F1F1" height="113.1875" id="Pixel" rx="2.5" ry="2.5" style="stroke:#181818;stroke-width:0.5;" width="180.0342" x="92.99" y="467.45"/><ellipse cx="162.197" cy="483.45" fill="#ADD1B2" rx="11" ry="11" style="stroke:#181818;stroke-width:1;"/><path d="M165.1658,489.0906 Q164.5877,489.3875 163.947,489.5281 Q163.3064,489.6844 162.6033,489.6844 Q160.1033,489.6844 158.7752,488.0438 Q157.4627,486.3875 157.4627,483.2625 Q157.4627,480.1375 158.7752,478.4813 Q160.1033,476.825 162.6033,476.825 Q163.3064,476.825 163.947,476.9813 Q164.6033,477.1375 165.1658,477.4344 L165.1658,480.1531 Q164.5408,479.575 163.947,479.3094 Q163.3533,479.0281 162.7283,479.0281 Q161.3845,479.0281 160.697,480.1063 Q160.0095,481.1688 160.0095,483.2625 Q160.0095,485.3563 160.697,486.4344 Q161.3845,487.4969 162.7283,487.4969 Q163.3533,487.4969 163.947,487.2313 Q164.5408,486.95 165.1658,486.3719 L165.1658,489.0906 Z " fill="#000000"/><text fill="#000000" font-family="sans-serif" font-size="14" lengthAdjust="spacing" textLength="33.1201" x="182.697" y="488.2967">Pixel</text><line style="stroke:#181818;stroke-width:0.5;" x1="93.99" x2="272.0242" y1="499.45" y2="499.45"/><rect fill="#FFFFFF" fill-opacity="0.00000" height="6" style="stroke:#C82930;stroke-width:1;" width="6" x="100.99" y="510.0984"/><text fill="#000000" font-family="sans-serif" font-size="14" lengthAdjust="spacing" textLength="54.2227" x="112.99" y="516.4451">int dato</text><line style="stroke:#181818;stroke-width:1;" x1="93.99" x2="272.0242" y1="523.7469" y2="523.7469"/><ellipse cx="103.99" cy="537.3953" fill="#84BE84" rx="3" ry="3" style="stroke:#038048;stroke-width:1;"/><text fill="#000000" font-family="sans-serif" font-size="14" lengthAdjust="spacing" textLength="98.2666" x="112.99" y="540.742">Pixel(int dato)</text><ellipse cx="103.99" cy="553.6922" fill="#84BE84" rx="3" ry="3" style="stroke:#038048;stroke-width:1;"/><text fill="#000000" font-family="sans-serif" font-size="14" lengthAdjust="spacing" textLength="121.8369" x="112.99" y="557.0389">int obtenerDato()</text><ellipse cx="103.99" cy="569.9891" fill="#84BE84" rx="3" ry="3" style="stroke:#038048;stroke-width:1;"/><text fill="#000000" font-family="sans-serif" font-size="14" lengthAdjust="spacing" textLength="154.0342" x="112.99" y="573.3357">void setDato(int dato)</text></g><!--link Pantalla to Frame--><g id="link_Pantalla_Frame"><path codeLine="32" d="M183,218.25 C183,238.52 183,253.19 183,271.67 " fill="#FFFFFF" fill-opacity="0.00000" id="Pantalla-to-Frame" style="stroke:#181818;stroke-width:1;"/><polygon fill="#181818" points="183,277.67,187,268.67,183,272.67,179,268.67,183,277.67" style="stroke:#181818;stroke-width:1;"/></g><!--link Frame to Pixel--><g id="link_Frame_Pixel"><path codeLine="33" d="M183,407.95 C183,427.25 183,442.26 183,460.98 " fill="#FFFFFF" fill-opacity="0.00000" id="Frame-to-Pixel" style="stroke:#181818;stroke-width:1;"/><polygon fill="#181818" points="183,466.98,187,457.98,183,461.98,179,457.98,183,466.98" style="stroke:#181818;stroke-width:1;"/></g><!--SRC=[XL8zJyCm4DtpAsuCWamCJ20X5KYtIbGm80R7SPgJ_17PRYYg-EyuPvFMGOWibk_TU-_kELmovs33j6TICZWM4BuA7YrJukqTXWIaCceFtGJTSxzdCbKxr4mIzhfURMkuXPjVIFsmVggt0RgEK4N7vUnSNgJ2QB05PPotpD8KvKGVZ4EEHY-wMkoGCxl1Wv3KTxWYjyzuwBqOpGkJncOy9hsmEicxt9aRrU0Ig-3PMzGxSAWQ8mrPZL7tgoWuPKYCEK0QAGH8QUKhdxRwmDRtSTHUuAxt_wqNOlXhCse2qtYXHSx8H54D5XNQycpoI3sUlN7Bl5cyqwmuOJ-IqprPha8vZz89JyKJAJZEVrfLtSKaYXZST2UJRm00]--></g></svg>