<svg xmlns="http://www.w3.org/2000/svg" xmlns:xlink="http://www.w3.org/1999/xlink" contentStyleType="text/css" data-diagram-type="CLASS" height="954px" preserveAspectRatio="none" style="width:425px;height:954px;background:#FFFFFF;" version="1.1" viewBox="0 0 425 954" width="425px" zoomAndPan="magnify"><defs/><g><!--cluster Ejercicio01--><g id="cluster_Ejercicio01"><path d="M8.5,6 L95.5576,6 A3.75,3.75 0 0 1 98.0576,8.5 L105.0576,28.2969 L415.5,28.2969 A2.5,2.5 0 0 1 418,30.7969 L418,944.73 A2.5,2.5 0 0 1 415.5,947.23 L8.5,947.23 A2.5,2.5 0 0 1 6,944.73 L6,8.5 A2.5,2.5 0 0 1 8.5,6 " fill="#FFFFFF" fill-opacity="0.00000" style="stroke:#000000;stroke-width:1.5;"/><line style="stroke:#000000;stroke-width:1.5;" x1="6" x2="105.0576" y1="28.2969" y2="28.2969"/><text fill="#000000" font-family="sans-serif" font-size="14" font-weight="bold" lengthAdjust="spacing" textLength="86.0576" x="10" y="20.9951">Ejercicio01</text></g><!--class Color--><g id="elem_Color"><rect codeLine="2" fill="#F1F1F1" height="113.1875" id="Color" rx="2.5" ry="2.5" style="stroke:#181818;stroke-width:0.5;" width="308.625" x="57.69" y="41"/><ellipse cx="189.4766" cy="57" fill="#ADD1B2" rx="11" ry="11" style="stroke:#181818;stroke-width:1;"/><path d="M192.4454,62.6406 Q191.8672,62.9375 191.2266,63.0781 Q190.586,63.2344 189.8829,63.2344 Q187.3829,63.2344 186.0547,61.5938 Q184.7422,59.9375 184.7422,56.8125 Q184.7422,53.6875 186.0547,52.0313 Q187.3829,50.375 189.8829,50.375 Q190.586,50.375 191.2266,50.5313 Q191.8829,50.6875 192.4454,50.9844 L192.4454,53.7031 Q191.8204,53.125 191.2266,52.8594 Q190.6329,52.5781 190.0079,52.5781 Q188.6641,52.5781 187.9766,53.6563 Q187.2891,54.7188 187.2891,56.8125 Q187.2891,58.9063 187.9766,59.9844 Q188.6641,61.0469 190.0079,61.0469 Q190.6329,61.0469 191.2266,60.7813 Q191.8204,60.5 192.4454,59.9219 L192.4454,62.6406 Z " fill="#000000"/><text fill="#000000" font-family="sans-serif" font-size="14" lengthAdjust="spacing" textLength="36.5518" x="209.9766" y="61.8467">Color</text><line style="stroke:#181818;stroke-width:0.5;" x1="58.69" x2="365.315" y1="73" y2="73"/><rect fill="#FFFFFF" fill-opacity="0.00000" height="6" style="stroke:#C82930;stroke-width:1;" width="6" x="65.69" y="83.6484"/><text fill="#000000" font-family="sans-serif" font-size="14" lengthAdjust="spacing" textLength="282.625" x="77.69" y="89.9951">char[] representacion = {'.', '#', '+', '*'}</text><rect fill="#FFFFFF" fill-opacity="0.00000" height="6" style="stroke:#C82930;stroke-width:1;" width="6" x="65.69" y="99.9453"/><text fill="#000000" font-family="sans-serif" font-size="14" lengthAdjust="spacing" textLength="162.5859" x="77.69" y="106.292">char colorSeleccionado</text><line style="stroke:#181818;stroke-width:0.5;" x1="58.69" x2="365.315" y1="113.5938" y2="113.5938"/><ellipse cx="68.69" cy="127.2422" fill="#84BE84" rx="3" ry="3" style="stroke:#038048;stroke-width:1;"/><text fill="#000000" font-family="sans-serif" font-size="14" lengthAdjust="spacing" textLength="47.4756" x="77.69" y="130.5889">Color()</text><ellipse cx="68.69" cy="143.5391" fill="#84BE84" rx="3" ry="3" style="stroke:#038048;stroke-width:1;"/><text fill="#000000" font-family="sans-serif" font-size="14" lengthAdjust="spacing" textLength="216.6445" x="77.69" y="146.8857">char devolverRepresentacion()</text></g><!--class Pixel--><g id="elem_Pixel"><rect codeLine="9" fill="#F1F1F1" height="96.8906" id="Pixel" rx="2.5" ry="2.5" style="stroke:#181818;stroke-width:0.5;" width="175.3721" x="124.31" y="231.18"/><ellipse cx="191.186" cy="247.18" fill="#ADD1B2" rx="11" ry="11" style="stroke:#181818;stroke-width:1;"/><path d="M194.1547,252.8206 Q193.5766,253.1175 192.936,253.2581 Q192.2954,253.4144 191.5922,253.4144 Q189.0922,253.4144 187.7641,251.7738 Q186.4516,250.1175 186.4516,246.9925 Q186.4516,243.8675 187.7641,242.2113 Q189.0922,240.555 191.5922,240.555 Q192.2954,240.555 192.936,240.7113 Q193.5922,240.8675 194.1547,241.1644 L194.1547,243.8831 Q193.5297,243.305 192.936,243.0394 Q192.3422,242.7581 191.7172,242.7581 Q190.3735,242.7581 189.686,243.8363 Q188.9985,244.8988 188.9985,246.9925 Q188.9985,249.0863 189.686,250.1644 Q190.3735,251.2269 191.7172,251.2269 Q192.3422,251.2269 192.936,250.9613 Q193.5297,250.68 194.1547,250.1019 L194.1547,252.8206 Z " fill="#000000"/><text fill="#000000" font-family="sans-serif" font-size="14" lengthAdjust="spacing" textLength="33.1201" x="211.686" y="252.0267">Pixel</text><line style="stroke:#181818;stroke-width:0.5;" x1="125.31" x2="298.6821" y1="263.18" y2="263.18"/><rect fill="#FFFFFF" fill-opacity="0.00000" height="6" style="stroke:#C82930;stroke-width:1;" width="6" x="132.31" y="273.8284"/><text fill="#000000" font-family="sans-serif" font-size="14" lengthAdjust="spacing" textLength="75.4756" x="144.31" y="280.1751">Color color</text><line style="stroke:#181818;stroke-width:0.5;" x1="125.31" x2="298.6821" y1="287.4769" y2="287.4769"/><ellipse cx="135.31" cy="301.1253" fill="#84BE84" rx="3" ry="3" style="stroke:#038048;stroke-width:1;"/><text fill="#000000" font-family="sans-serif" font-size="14" lengthAdjust="spacing" textLength="44.0439" x="144.31" y="304.472">Pixel()</text><ellipse cx="135.31" cy="317.4222" fill="#84BE84" rx="3" ry="3" style="stroke:#038048;stroke-width:1;"/><text fill="#000000" font-family="sans-serif" font-size="14" lengthAdjust="spacing" textLength="149.3721" x="144.31" y="320.7689">Color devolverColor()</text></g><!--class Frame--><g id="elem_Frame"><rect codeLine="15" fill="#F1F1F1" height="113.1875" id="Frame" rx="2.5" ry="2.5" style="stroke:#181818;stroke-width:0.5;" width="206.2637" x="108.87" y="405.07"/><ellipse cx="185.4325" cy="421.07" fill="#ADD1B2" rx="11" ry="11" style="stroke:#181818;stroke-width:1;"/><path d="M188.4013,426.7106 Q187.8231,427.0075 187.1825,427.1481 Q186.5419,427.3044 185.8388,427.3044 Q183.3388,427.3044 182.0106,425.6638 Q180.6981,424.0075 180.6981,420.8825 Q180.6981,417.7575 182.0106,416.1013 Q183.3388,414.445 185.8388,414.445 Q186.5419,414.445 187.1825,414.6013 Q187.8388,414.7575 188.4013,415.0544 L188.4013,417.7731 Q187.7763,417.195 187.1825,416.9294 Q186.5888,416.6481 185.9638,416.6481 Q184.62,416.6481 183.9325,417.7263 Q183.245,418.7888 183.245,420.8825 Q183.245,422.9763 183.9325,424.0544 Q184.62,425.1169 185.9638,425.1169 Q186.5888,425.1169 187.1825,424.8513 Q187.7763,424.57 188.4013,423.9919 L188.4013,426.7106 Z " fill="#000000"/><text fill="#000000" font-family="sans-serif" font-size="14" lengthAdjust="spacing" textLength="44.6387" x="205.9325" y="425.9167">Frame</text><line style="stroke:#181818;stroke-width:0.5;" x1="109.87" x2="314.1337" y1="437.07" y2="437.07"/><rect fill="#FFFFFF" fill-opacity="0.00000" height="6" style="stroke:#C82930;stroke-width:1;" width="6" x="116.87" y="447.7184"/><text fill="#000000" font-family="sans-serif" font-size="14" lengthAdjust="spacing" textLength="108.8896" x="128.87" y="454.0651">Pixel[][] pixeles</text><line style="stroke:#181818;stroke-width:0.5;" x1="109.87" x2="314.1337" y1="461.3669" y2="461.3669"/><ellipse cx="119.87" cy="475.0153" fill="#84BE84" rx="3" ry="3" style="stroke:#038048;stroke-width:1;"/><text fill="#000000" font-family="sans-serif" font-size="14" lengthAdjust="spacing" textLength="55.5625" x="128.87" y="478.362">Frame()</text><ellipse cx="119.87" cy="491.3122" fill="#84BE84" rx="3" ry="3" style="stroke:#038048;stroke-width:1;"/><text fill="#000000" font-family="sans-serif" font-size="14" lengthAdjust="spacing" textLength="147.998" x="128.87" y="494.6589">void rellenarPixeles()</text><ellipse cx="119.87" cy="507.6091" fill="#84BE84" rx="3" ry="3" style="stroke:#038048;stroke-width:1;"/><text fill="#000000" font-family="sans-serif" font-size="14" lengthAdjust="spacing" textLength="180.2637" x="128.87" y="510.9557">Pixel[][] devolverPixeles()</text></g><!--class Grafica--><g id="elem_Grafica"><rect codeLine="22" fill="#F1F1F1" height="113.1875" id="Grafica" rx="2.5" ry="2.5" style="stroke:#181818;stroke-width:0.5;" width="236.4033" x="21.8" y="595.26"/><ellipse cx="110.6125" cy="611.26" fill="#ADD1B2" rx="11" ry="11" style="stroke:#181818;stroke-width:1;"/><path d="M113.5813,616.9006 Q113.0031,617.1975 112.3625,617.3381 Q111.7219,617.4944 111.0188,617.4944 Q108.5188,617.4944 107.1906,615.8538 Q105.8781,614.1975 105.8781,611.0725 Q105.8781,607.9475 107.1906,606.2913 Q108.5188,604.635 111.0188,604.635 Q111.7219,604.635 112.3625,604.7913 Q113.0188,604.9475 113.5813,605.2444 L113.5813,607.9631 Q112.9563,607.385 112.3625,607.1194 Q111.7688,606.8381 111.1438,606.8381 Q109.8,606.8381 109.1125,607.9163 Q108.425,608.9788 108.425,611.0725 Q108.425,613.1663 109.1125,614.2444 Q109.8,615.3069 111.1438,615.3069 Q111.7688,615.3069 112.3625,615.0413 Q112.9563,614.76 113.5813,614.1819 L113.5813,616.9006 Z " fill="#000000"/><text fill="#000000" font-family="sans-serif" font-size="14" lengthAdjust="spacing" textLength="50.2783" x="131.1125" y="616.1067">Grafica</text><line style="stroke:#181818;stroke-width:0.5;" x1="22.8" x2="257.2033" y1="627.26" y2="627.26"/><rect fill="#FFFFFF" fill-opacity="0.00000" height="6" style="stroke:#C82930;stroke-width:1;" width="6" x="29.8" y="637.9084"/><text fill="#000000" font-family="sans-serif" font-size="14" lengthAdjust="spacing" textLength="199.2061" x="41.8" y="644.2551">Queue&lt;Frame&gt; colaFrames</text><line style="stroke:#181818;stroke-width:0.5;" x1="22.8" x2="257.2033" y1="651.5569" y2="651.5569"/><ellipse cx="32.8" cy="665.2053" fill="#84BE84" rx="3" ry="3" style="stroke:#038048;stroke-width:1;"/><text fill="#000000" font-family="sans-serif" font-size="14" lengthAdjust="spacing" textLength="61.2021" x="41.8" y="668.552">Grafica()</text><ellipse cx="32.8" cy="681.5022" fill="#84BE84" rx="3" ry="3" style="stroke:#038048;stroke-width:1;"/><text fill="#000000" font-family="sans-serif" font-size="14" lengthAdjust="spacing" textLength="152.0107" x="41.8" y="684.8489">void generarFrames()</text><ellipse cx="32.8" cy="697.7991" fill="#84BE84" rx="3" ry="3" style="stroke:#038048;stroke-width:1;"/><text fill="#000000" font-family="sans-serif" font-size="14" lengthAdjust="spacing" textLength="210.4033" x="41.8" y="701.1457">Frame[] devolverDosFrames()</text></g><!--class Pantalla--><g id="elem_Pantalla"><rect codeLine="29" fill="#F1F1F1" height="145.7813" id="Pantalla" rx="2.5" ry="2.5" style="stroke:#181818;stroke-width:0.5;" width="236.54" x="93.73" y="785.45"/><ellipse cx="179.5894" cy="801.45" fill="#ADD1B2" rx="11" ry="11" style="stroke:#181818;stroke-width:1;"/><path d="M182.5581,807.0906 Q181.98,807.3875 181.3394,807.5281 Q180.6988,807.6844 179.9956,807.6844 Q177.4956,807.6844 176.1675,806.0438 Q174.855,804.3875 174.855,801.2625 Q174.855,798.1375 176.1675,796.4813 Q177.4956,794.825 179.9956,794.825 Q180.6988,794.825 181.3394,794.9813 Q181.9956,795.1375 182.5581,795.4344 L182.5581,798.1531 Q181.9331,797.575 181.3394,797.3094 Q180.7456,797.0281 180.1206,797.0281 Q178.7769,797.0281 178.0894,798.1063 Q177.4019,799.1688 177.4019,801.2625 Q177.4019,803.3563 178.0894,804.4344 Q178.7769,805.4969 180.1206,805.4969 Q180.7456,805.4969 181.3394,805.2313 Q181.9331,804.95 182.5581,804.3719 L182.5581,807.0906 Z " fill="#000000"/><text fill="#000000" font-family="sans-serif" font-size="14" lengthAdjust="spacing" textLength="56.3213" x="200.0894" y="806.2967">Pantalla</text><line style="stroke:#181818;stroke-width:0.5;" x1="94.73" x2="329.27" y1="817.45" y2="817.45"/><rect fill="#FFFFFF" fill-opacity="0.00000" height="6" style="stroke:#C82930;stroke-width:1;" width="6" x="101.73" y="828.0984"/><text fill="#000000" font-family="sans-serif" font-size="14" lengthAdjust="spacing" textLength="101.999" x="113.73" y="834.4451">Frame[] buffer</text><rect fill="#FFFFFF" fill-opacity="0.00000" height="6" style="stroke:#C82930;stroke-width:1;" width="6" x="101.73" y="844.3953"/><text fill="#000000" font-family="sans-serif" font-size="14" lengthAdjust="spacing" textLength="137.6553" x="113.73" y="850.742">final Grafica grafica</text><line style="stroke:#181818;stroke-width:0.5;" x1="94.73" x2="329.27" y1="858.0438" y2="858.0438"/><ellipse cx="104.73" cy="871.6922" fill="#84BE84" rx="3" ry="3" style="stroke:#038048;stroke-width:1;"/><text fill="#000000" font-family="sans-serif" font-size="14" lengthAdjust="spacing" textLength="67.2451" x="113.73" y="875.0389">Pantalla()</text><ellipse cx="104.73" cy="887.9891" fill="#84BE84" rx="3" ry="3" style="stroke:#038048;stroke-width:1;"/><text fill="#000000" font-family="sans-serif" font-size="14" lengthAdjust="spacing" textLength="100.0781" x="113.73" y="891.3357">void mostrar()</text><rect fill="#F24D5C" height="6" style="stroke:#C82930;stroke-width:1;" width="6" x="101.73" y="901.2859"/><text fill="#000000" font-family="sans-serif" font-size="14" lengthAdjust="spacing" textLength="130.1357" x="113.73" y="907.6326">static void pause()</text><ellipse cx="104.73" cy="920.5828" fill="#84BE84" rx="3" ry="3" style="stroke:#038048;stroke-width:1;"/><text fill="#000000" font-family="sans-serif" font-size="14" lengthAdjust="spacing" textLength="210.54" x="113.73" y="923.9295">static void main(String[] args)</text></g><!--reverse link Color to Pixel--><g id="link_Color_Pixel"><path codeLine="38" d="M212,160.57 C212,185.03 212,207.43 212,230.88 " fill="#FFFFFF" fill-opacity="0.00000" id="Color-backto-Pixel" style="stroke:#181818;stroke-width:1;"/><polygon fill="#181818" points="212,154.57,208,163.57,212,159.57,216,163.57,212,154.57" style="stroke:#181818;stroke-width:1;"/><polygon fill="#000000" points="217,197.7464,219.9389,188.7013,214.0611,188.7013,217,197.7464" style="stroke:#000000;stroke-width:1;"/><text fill="#000000" font-family="sans-serif" font-size="13" lengthAdjust="spacing" textLength="32.9443" x="226" y="197.2469">tiene</text><text fill="#000000" font-family="sans-serif" font-size="13" lengthAdjust="spacing" textLength="8.271" x="203.5529" y="174.0996">1</text><text fill="#000000" font-family="sans-serif" font-size="13" lengthAdjust="spacing" textLength="8.271" x="203.4571" y="220.0467">1</text></g><!--reverse link Pixel to Frame--><g id="link_Pixel_Frame"><path codeLine="39" d="M212,334.4 C212,357.84 212,380.22 212,404.68 " fill="#FFFFFF" fill-opacity="0.00000" id="Pixel-backto-Frame" style="stroke:#181818;stroke-width:1;"/><polygon fill="#181818" points="212,328.4,208,337.4,212,333.4,216,337.4,212,328.4" style="stroke:#181818;stroke-width:1;"/><polygon fill="#000000" points="217,371.6364,219.9389,362.5913,214.0611,362.5913,217,371.6364" style="stroke:#000000;stroke-width:1;"/><text fill="#000000" font-family="sans-serif" font-size="13" lengthAdjust="spacing" textLength="56.2847" x="226" y="371.1369">contiene</text><text fill="#000000" font-family="sans-serif" font-size="13" lengthAdjust="spacing" textLength="12.6636" x="199.2389" y="348.0377">m</text><text fill="#000000" font-family="sans-serif" font-size="13" lengthAdjust="spacing" textLength="8.271" x="203.5288" y="393.896">1</text></g><!--reverse link Frame to Grafica--><g id="link_Frame_Grafica"><path codeLine="40" d="M188.4463,524.224 C179.2463,548.274 170.66,570.73 161.45,594.79 " fill="#FFFFFF" fill-opacity="0.00000" id="Frame-backto-Grafica" style="stroke:#181818;stroke-width:1;"/><polygon fill="#181818" points="190.59,518.62,183.6384,525.5968,188.8036,523.29,191.1104,528.4551,190.59,518.62" style="stroke:#181818;stroke-width:1;"/><polygon fill="#000000" points="181.2134,561.4963,187.1903,554.0985,181.7004,551.9982,181.2134,561.4963" style="stroke:#000000;stroke-width:1;"/><text fill="#000000" font-family="sans-serif" font-size="13" lengthAdjust="spacing" textLength="55.8911" x="192" y="561.3269">gestiona</text><text fill="#000000" font-family="sans-serif" font-size="13" lengthAdjust="spacing" textLength="12.6636" x="175.4589" y="538.1473">m</text><text fill="#000000" font-family="sans-serif" font-size="13" lengthAdjust="spacing" textLength="8.271" x="155.593" y="583.9963">1</text></g><!--reverse link Grafica to Pantalla--><g id="link_Grafica_Pantalla"><path codeLine="41" d="M161.6638,714.3891 C169.9538,737.9191 177.71,759.95 186.53,785.01 " fill="#FFFFFF" fill-opacity="0.00000" id="Grafica-backto-Pantalla" style="stroke:#181818;stroke-width:1;"/><polygon fill="#181818" points="159.67,708.73,158.888,718.5478,161.3315,713.4459,166.4334,715.8894,159.67,708.73" style="stroke:#181818;stroke-width:1;"/><polygon fill="#000000" points="182.6606,751.7326,182.4286,742.2249,176.8844,744.177,182.6606,751.7326" style="stroke:#000000;stroke-width:1;"/><text fill="#000000" font-family="sans-serif" font-size="13" lengthAdjust="spacing" textLength="22.9785" x="190" y="751.5169">usa</text><text fill="#000000" font-family="sans-serif" font-size="13" lengthAdjust="spacing" textLength="8.271" x="153.5961" y="728.6508">1</text><text fill="#000000" font-family="sans-serif" font-size="13" lengthAdjust="spacing" textLength="8.271" x="175.7341" y="774.3791">1</text></g><!--reverse link Pantalla to Frame--><g id="link_Pantalla_Frame"><path codeLine="42" d="M254.9248,774.0892 C265.5048,750.3492 270.67,734.35 276,708.45 C286.14,659.18 286.05,644.55 276,595.26 C270.59,568.71 258.68,541.42 246.59,518.54 " fill="#FFFFFF" fill-opacity="0.00000" id="Pantalla-backto-Frame" style="stroke:#181818;stroke-width:1;"/><polygon fill="#181818" points="250.04,785.05,256.136,781.1979,254.9248,774.0892,248.8288,777.9413,250.04,785.05" style="stroke:#181818;stroke-width:1;"/><polygon fill="#000000" points="287.837,646.9191,285.1945,656.0551,291.0692,655.8635,287.837,646.9191" style="stroke:#000000;stroke-width:1;"/><text fill="#000000" font-family="sans-serif" font-size="13" lengthAdjust="spacing" textLength="59.3696" x="297" y="656.4169">buffer de</text><text fill="#000000" font-family="sans-serif" font-size="13" lengthAdjust="spacing" textLength="8.271" x="245.2974" y="774.4229">1</text><text fill="#000000" font-family="sans-serif" font-size="13" lengthAdjust="spacing" textLength="8.271" x="242.3344" y="538.4608">2</text></g><!--SRC=[PLFBRi8m4Bpp5HOzX49JbHuZogMlAor7n64nczIjOqTsWYeX_hr-9E0jFZZMxkpExDXfWFz0XUpr6mqNNEY7EJkEc5jSWhNiMKjj-eXVEUDVO3PRPh0nQ56ru8eKUsB7x3wxOzcDtsP-csQdVsMC-svhbCXz4Upr6J2BJ9FR919AzdZGye3ca_3rkDCeaReIloY9r2W-a2Pj0uuGHTp0b0eX16y6QYG4eTLcw-ne_0bjqZIW2Sr1YxtpJKfKO5QnW00kxGOj54NKl1ie1GUYvwF33XU1UUddXd1CLVLLrxegL6Z0n0AI3g54quks14Kl0TmDIKbb3HrsNLcYIHAbK23FarJncnhITxkMMslREhb98cUsXLRmc6-WizJzD5k3K9DrQuIgd2mmbIMZnFSmde_P8i_3DxwjWhN2sSIM0HLZu_g2YW-aSCwh51Z3AN2Ok72sszR_2ZrqI13kmTA2TNO0deCUCVN8nmj_zDbTc0EV_W00]--></g></svg>