<svg xmlns="http://www.w3.org/2000/svg" xmlns:xlink="http://www.w3.org/1999/xlink" contentStyleType="text/css" data-diagram-type="CLASS" height="1019px" preserveAspectRatio="none" style="width:493px;height:1019px;background:#FFFFFF;" version="1.1" viewBox="0 0 493 1019" width="493px" zoomAndPan="magnify"><defs/><g><!--cluster Ejercicio02--><g id="cluster_Ejercicio02"><path d="M8.5,6 L95.5576,6 A3.75,3.75 0 0 1 98.0576,8.5 L105.0576,28.2969 L483.5,28.2969 A2.5,2.5 0 0 1 486,30.7969 L486,1009.92 A2.5,2.5 0 0 1 483.5,1012.42 L8.5,1012.42 A2.5,2.5 0 0 1 6,1009.92 L6,8.5 A2.5,2.5 0 0 1 8.5,6 " fill="#FFFFFF" fill-opacity="0.00000" style="stroke:#000000;stroke-width:1.5;"/><line style="stroke:#000000;stroke-width:1.5;" x1="6" x2="105.0576" y1="28.2969" y2="28.2969"/><text fill="#000000" font-family="sans-serif" font-size="14" font-weight="bold" lengthAdjust="spacing" textLength="86.0576" x="10" y="20.9951">Ejercicio02</text></g><!--class Color--><g id="elem_Color"><rect codeLine="2" fill="#F1F1F1" height="162.0781" id="Color" rx="2.5" ry="2.5" style="stroke:#181818;stroke-width:0.5;" width="428.1445" x="31.93" y="41"/><ellipse cx="223.4764" cy="57" fill="#ADD1B2" rx="11" ry="11" style="stroke:#181818;stroke-width:1;"/><path d="M226.4451,62.6406 Q225.867,62.9375 225.2264,63.0781 Q224.5858,63.2344 223.8826,63.2344 Q221.3826,63.2344 220.0545,61.5938 Q218.742,59.9375 218.742,56.8125 Q218.742,53.6875 220.0545,52.0313 Q221.3826,50.375 223.8826,50.375 Q224.5858,50.375 225.2264,50.5313 Q225.8826,50.6875 226.4451,50.9844 L226.4451,53.7031 Q225.8201,53.125 225.2264,52.8594 Q224.6326,52.5781 224.0076,52.5781 Q222.6639,52.5781 221.9764,53.6563 Q221.2889,54.7188 221.2889,56.8125 Q221.2889,58.9063 221.9764,59.9844 Q222.6639,61.0469 224.0076,61.0469 Q224.6326,61.0469 225.2264,60.7813 Q225.8201,60.5 226.4451,59.9219 L226.4451,62.6406 Z " fill="#000000"/><text fill="#000000" font-family="sans-serif" font-size="14" lengthAdjust="spacing" textLength="36.5518" x="243.9764" y="61.8467">Color</text><line style="stroke:#181818;stroke-width:0.5;" x1="32.93" x2="459.0745" y1="73" y2="73"/><rect fill="#FFFFFF" fill-opacity="0.00000" height="6" style="stroke:#C82930;stroke-width:1;" width="6" x="39.93" y="83.6484"/><text fill="#000000" font-family="sans-serif" font-size="14" lengthAdjust="spacing" textLength="402.1445" x="51.93" y="89.9951">char[] representacion = {'.', ',', ':', ';', '+', '=', '*', '&amp;', '#'}</text><rect fill="#FFFFFF" fill-opacity="0.00000" height="6" style="stroke:#C82930;stroke-width:1;" width="6" x="39.93" y="99.9453"/><text fill="#000000" font-family="sans-serif" font-size="14" lengthAdjust="spacing" textLength="57.7773" x="51.93" y="106.292">int valor</text><rect fill="#FFFFFF" fill-opacity="0.00000" height="6" style="stroke:#C82930;stroke-width:1;" width="6" x="39.93" y="116.2422"/><text fill="#000000" font-family="sans-serif" font-size="14" lengthAdjust="spacing" textLength="162.5859" x="51.93" y="122.5889">char colorSeleccionado</text><line style="stroke:#181818;stroke-width:0.5;" x1="32.93" x2="459.0745" y1="129.8906" y2="129.8906"/><ellipse cx="42.93" cy="143.5391" fill="#84BE84" rx="3" ry="3" style="stroke:#038048;stroke-width:1;"/><text fill="#000000" font-family="sans-serif" font-size="14" lengthAdjust="spacing" textLength="47.4756" x="51.93" y="146.8857">Color()</text><ellipse cx="42.93" cy="159.8359" fill="#84BE84" rx="3" ry="3" style="stroke:#038048;stroke-width:1;"/><text fill="#000000" font-family="sans-serif" font-size="14" lengthAdjust="spacing" textLength="105.2529" x="51.93" y="163.1826">Color(int valor)</text><ellipse cx="42.93" cy="176.1328" fill="#84BE84" rx="3" ry="3" style="stroke:#038048;stroke-width:1;"/><text fill="#000000" font-family="sans-serif" font-size="14" lengthAdjust="spacing" textLength="130.8877" x="51.93" y="179.4795">int devolverValor()</text><ellipse cx="42.93" cy="192.4297" fill="#84BE84" rx="3" ry="3" style="stroke:#038048;stroke-width:1;"/><text fill="#000000" font-family="sans-serif" font-size="14" lengthAdjust="spacing" textLength="216.6445" x="51.93" y="195.7764">char devolverRepresentacion()</text></g><!--class Pixel--><g id="elem_Pixel"><rect codeLine="12" fill="#F1F1F1" height="96.8906" id="Pixel" rx="2.5" ry="2.5" style="stroke:#181818;stroke-width:0.5;" width="175.3721" x="158.31" y="280.08"/><ellipse cx="225.186" cy="296.08" fill="#ADD1B2" rx="11" ry="11" style="stroke:#181818;stroke-width:1;"/><path d="M228.1547,301.7206 Q227.5766,302.0175 226.936,302.1581 Q226.2954,302.3144 225.5922,302.3144 Q223.0922,302.3144 221.7641,300.6737 Q220.4516,299.0175 220.4516,295.8925 Q220.4516,292.7675 221.7641,291.1112 Q223.0922,289.455 225.5922,289.455 Q226.2954,289.455 226.936,289.6112 Q227.5922,289.7675 228.1547,290.0644 L228.1547,292.7831 Q227.5297,292.205 226.936,291.9394 Q226.3422,291.6581 225.7172,291.6581 Q224.3735,291.6581 223.686,292.7362 Q222.9985,293.7987 222.9985,295.8925 Q222.9985,297.9862 223.686,299.0644 Q224.3735,300.1269 225.7172,300.1269 Q226.3422,300.1269 226.936,299.8612 Q227.5297,299.58 228.1547,299.0019 L228.1547,301.7206 Z " fill="#000000"/><text fill="#000000" font-family="sans-serif" font-size="14" lengthAdjust="spacing" textLength="33.1201" x="245.686" y="300.9267">Pixel</text><line style="stroke:#181818;stroke-width:0.5;" x1="159.31" x2="332.6821" y1="312.08" y2="312.08"/><rect fill="#FFFFFF" fill-opacity="0.00000" height="6" style="stroke:#C82930;stroke-width:1;" width="6" x="166.31" y="322.7284"/><text fill="#000000" font-family="sans-serif" font-size="14" lengthAdjust="spacing" textLength="75.4756" x="178.31" y="329.0751">Color color</text><line style="stroke:#181818;stroke-width:0.5;" x1="159.31" x2="332.6821" y1="336.3769" y2="336.3769"/><ellipse cx="169.31" cy="350.0253" fill="#84BE84" rx="3" ry="3" style="stroke:#038048;stroke-width:1;"/><text fill="#000000" font-family="sans-serif" font-size="14" lengthAdjust="spacing" textLength="44.0439" x="178.31" y="353.372">Pixel()</text><ellipse cx="169.31" cy="366.3222" fill="#84BE84" rx="3" ry="3" style="stroke:#038048;stroke-width:1;"/><text fill="#000000" font-family="sans-serif" font-size="14" lengthAdjust="spacing" textLength="149.3721" x="178.31" y="369.6689">Color devolverColor()</text></g><!--class Frame--><g id="elem_Frame"><rect codeLine="18" fill="#F1F1F1" height="113.1875" id="Frame" rx="2.5" ry="2.5" style="stroke:#181818;stroke-width:0.5;" width="206.2637" x="142.87" y="453.97"/><ellipse cx="219.4325" cy="469.97" fill="#ADD1B2" rx="11" ry="11" style="stroke:#181818;stroke-width:1;"/><path d="M222.4013,475.6106 Q221.8231,475.9075 221.1825,476.0481 Q220.5419,476.2044 219.8388,476.2044 Q217.3388,476.2044 216.0106,474.5637 Q214.6981,472.9075 214.6981,469.7825 Q214.6981,466.6575 216.0106,465.0012 Q217.3388,463.345 219.8388,463.345 Q220.5419,463.345 221.1825,463.5012 Q221.8388,463.6575 222.4013,463.9544 L222.4013,466.6731 Q221.7763,466.095 221.1825,465.8294 Q220.5888,465.5481 219.9638,465.5481 Q218.62,465.5481 217.9325,466.6262 Q217.245,467.6887 217.245,469.7825 Q217.245,471.8762 217.9325,472.9544 Q218.62,474.0169 219.9638,474.0169 Q220.5888,474.0169 221.1825,473.7512 Q221.7763,473.47 222.4013,472.8919 L222.4013,475.6106 Z " fill="#000000"/><text fill="#000000" font-family="sans-serif" font-size="14" lengthAdjust="spacing" textLength="44.6387" x="239.9325" y="474.8167">Frame</text><line style="stroke:#181818;stroke-width:0.5;" x1="143.87" x2="348.1337" y1="485.97" y2="485.97"/><rect fill="#FFFFFF" fill-opacity="0.00000" height="6" style="stroke:#C82930;stroke-width:1;" width="6" x="150.87" y="496.6184"/><text fill="#000000" font-family="sans-serif" font-size="14" lengthAdjust="spacing" textLength="108.8896" x="162.87" y="502.9651">Pixel[][] pixeles</text><line style="stroke:#181818;stroke-width:0.5;" x1="143.87" x2="348.1337" y1="510.2669" y2="510.2669"/><ellipse cx="153.87" cy="523.9153" fill="#84BE84" rx="3" ry="3" style="stroke:#038048;stroke-width:1;"/><text fill="#000000" font-family="sans-serif" font-size="14" lengthAdjust="spacing" textLength="55.5625" x="162.87" y="527.262">Frame()</text><ellipse cx="153.87" cy="540.2122" fill="#84BE84" rx="3" ry="3" style="stroke:#038048;stroke-width:1;"/><text fill="#000000" font-family="sans-serif" font-size="14" lengthAdjust="spacing" textLength="147.998" x="162.87" y="543.5589">void rellenarPixeles()</text><ellipse cx="153.87" cy="556.5091" fill="#84BE84" rx="3" ry="3" style="stroke:#038048;stroke-width:1;"/><text fill="#000000" font-family="sans-serif" font-size="14" lengthAdjust="spacing" textLength="180.2637" x="162.87" y="559.8557">Pixel[][] devolverPixeles()</text></g><!--class Grafica--><g id="elem_Grafica"><rect codeLine="25" fill="#F1F1F1" height="113.1875" id="Grafica" rx="2.5" ry="2.5" style="stroke:#181818;stroke-width:0.5;" width="236.4033" x="55.8" y="644.15"/><ellipse cx="144.6125" cy="660.15" fill="#ADD1B2" rx="11" ry="11" style="stroke:#181818;stroke-width:1;"/><path d="M147.5813,665.7906 Q147.0031,666.0875 146.3625,666.2281 Q145.7219,666.3844 145.0188,666.3844 Q142.5188,666.3844 141.1906,664.7438 Q139.8781,663.0875 139.8781,659.9625 Q139.8781,656.8375 141.1906,655.1813 Q142.5188,653.525 145.0188,653.525 Q145.7219,653.525 146.3625,653.6813 Q147.0188,653.8375 147.5813,654.1344 L147.5813,656.8531 Q146.9563,656.275 146.3625,656.0094 Q145.7688,655.7281 145.1438,655.7281 Q143.8,655.7281 143.1125,656.8063 Q142.425,657.8688 142.425,659.9625 Q142.425,662.0563 143.1125,663.1344 Q143.8,664.1969 145.1438,664.1969 Q145.7688,664.1969 146.3625,663.9313 Q146.9563,663.65 147.5813,663.0719 L147.5813,665.7906 Z " fill="#000000"/><text fill="#000000" font-family="sans-serif" font-size="14" lengthAdjust="spacing" textLength="50.2783" x="165.1125" y="664.9967">Grafica</text><line style="stroke:#181818;stroke-width:0.5;" x1="56.8" x2="291.2033" y1="676.15" y2="676.15"/><rect fill="#FFFFFF" fill-opacity="0.00000" height="6" style="stroke:#C82930;stroke-width:1;" width="6" x="63.8" y="686.7984"/><text fill="#000000" font-family="sans-serif" font-size="14" lengthAdjust="spacing" textLength="199.2061" x="75.8" y="693.1451">Queue&lt;Frame&gt; colaFrames</text><line style="stroke:#181818;stroke-width:0.5;" x1="56.8" x2="291.2033" y1="700.4469" y2="700.4469"/><ellipse cx="66.8" cy="714.0953" fill="#84BE84" rx="3" ry="3" style="stroke:#038048;stroke-width:1;"/><text fill="#000000" font-family="sans-serif" font-size="14" lengthAdjust="spacing" textLength="61.2021" x="75.8" y="717.442">Grafica()</text><ellipse cx="66.8" cy="730.3922" fill="#84BE84" rx="3" ry="3" style="stroke:#038048;stroke-width:1;"/><text fill="#000000" font-family="sans-serif" font-size="14" lengthAdjust="spacing" textLength="152.0107" x="75.8" y="733.7389">void generarFrames()</text><ellipse cx="66.8" cy="746.6891" fill="#84BE84" rx="3" ry="3" style="stroke:#038048;stroke-width:1;"/><text fill="#000000" font-family="sans-serif" font-size="14" lengthAdjust="spacing" textLength="210.4033" x="75.8" y="750.0357">Frame[] devolverDosFrames()</text></g><!--class Pantalla--><g id="elem_Pantalla"><rect codeLine="32" fill="#F1F1F1" height="162.0781" id="Pantalla" rx="2.5" ry="2.5" style="stroke:#181818;stroke-width:0.5;" width="447.2031" x="22.4" y="834.34"/><ellipse cx="213.5909" cy="850.34" fill="#ADD1B2" rx="11" ry="11" style="stroke:#181818;stroke-width:1;"/><path d="M216.5597,855.9806 Q215.9815,856.2775 215.3409,856.4181 Q214.7003,856.5744 213.9972,856.5744 Q211.4972,856.5744 210.169,854.9337 Q208.8565,853.2775 208.8565,850.1525 Q208.8565,847.0275 210.169,845.3712 Q211.4972,843.715 213.9972,843.715 Q214.7003,843.715 215.3409,843.8712 Q215.9972,844.0275 216.5597,844.3244 L216.5597,847.0431 Q215.9347,846.465 215.3409,846.1994 Q214.7472,845.9181 214.1222,845.9181 Q212.7784,845.9181 212.0909,846.9962 Q211.4034,848.0587 211.4034,850.1525 Q211.4034,852.2462 212.0909,853.3244 Q212.7784,854.3869 214.1222,854.3869 Q214.7472,854.3869 215.3409,854.1212 Q215.9347,853.84 216.5597,853.2619 L216.5597,855.9806 Z " fill="#000000"/><text fill="#000000" font-family="sans-serif" font-size="14" lengthAdjust="spacing" textLength="56.3213" x="234.0909" y="855.1867">Pantalla</text><line style="stroke:#181818;stroke-width:0.5;" x1="23.4" x2="468.6031" y1="866.34" y2="866.34"/><rect fill="#FFFFFF" fill-opacity="0.00000" height="6" style="stroke:#C82930;stroke-width:1;" width="6" x="30.4" y="876.9884"/><text fill="#000000" font-family="sans-serif" font-size="14" lengthAdjust="spacing" textLength="101.999" x="42.4" y="883.3351">Frame[] buffer</text><rect fill="#FFFFFF" fill-opacity="0.00000" height="6" style="stroke:#C82930;stroke-width:1;" width="6" x="30.4" y="893.2853"/><text fill="#000000" font-family="sans-serif" font-size="14" lengthAdjust="spacing" textLength="103.0449" x="42.4" y="899.632">Grafica grafica</text><line style="stroke:#181818;stroke-width:0.5;" x1="23.4" x2="468.6031" y1="906.9337" y2="906.9337"/><ellipse cx="33.4" cy="920.5822" fill="#84BE84" rx="3" ry="3" style="stroke:#038048;stroke-width:1;"/><text fill="#000000" font-family="sans-serif" font-size="14" lengthAdjust="spacing" textLength="67.2451" x="42.4" y="923.9289">Pantalla()</text><ellipse cx="33.4" cy="936.8791" fill="#84BE84" rx="3" ry="3" style="stroke:#038048;stroke-width:1;"/><text fill="#000000" font-family="sans-serif" font-size="14" lengthAdjust="spacing" textLength="100.0781" x="42.4" y="940.2257">void mostrar()</text><rect fill="#F24D5C" height="6" style="stroke:#C82930;stroke-width:1;" width="6" x="30.4" y="950.1759"/><text fill="#000000" font-family="sans-serif" font-size="14" lengthAdjust="spacing" textLength="130.1357" x="42.4" y="956.5226">static void pause()</text><rect fill="#F24D5C" height="6" style="stroke:#C82930;stroke-width:1;" width="6" x="30.4" y="966.4728"/><text fill="#000000" font-family="sans-serif" font-size="14" lengthAdjust="spacing" textLength="421.2031" x="42.4" y="972.8195">char mezclarColores(Color colorFrame1, Color colorFrame2)</text><ellipse cx="33.4" cy="985.7697" fill="#84BE84" rx="3" ry="3" style="stroke:#038048;stroke-width:1;"/><text fill="#000000" font-family="sans-serif" font-size="14" lengthAdjust="spacing" textLength="210.54" x="42.4" y="989.1164">static void main(String[] args)</text></g><!--reverse link Color to Pixel--><g id="link_Color_Pixel"><path codeLine="42" d="M246,209.56 C246,235.38 246,257.13 246,279.82 " fill="#FFFFFF" fill-opacity="0.00000" id="Color-backto-Pixel" style="stroke:#181818;stroke-width:1;"/><polygon fill="#181818" points="246,203.56,242,212.56,246,208.56,250,212.56,246,203.56" style="stroke:#181818;stroke-width:1;"/><polygon fill="#000000" points="251,246.6464,253.9389,237.6013,248.0611,237.6013,251,246.6464" style="stroke:#000000;stroke-width:1;"/><text fill="#000000" font-family="sans-serif" font-size="13" lengthAdjust="spacing" textLength="32.9443" x="260" y="246.1469">tiene</text><text fill="#000000" font-family="sans-serif" font-size="13" lengthAdjust="spacing" textLength="8.271" x="237.6677" y="223.2828">1</text><text fill="#000000" font-family="sans-serif" font-size="13" lengthAdjust="spacing" textLength="8.271" x="237.4571" y="268.9924">1</text></g><!--reverse link Pixel to Frame--><g id="link_Pixel_Frame"><path codeLine="43" d="M246,383.3 C246,406.74 246,429.12 246,453.57 " fill="#FFFFFF" fill-opacity="0.00000" id="Pixel-backto-Frame" style="stroke:#181818;stroke-width:1;"/><polygon fill="#181818" points="246,377.3,242,386.3,246,382.3,250,386.3,246,377.3" style="stroke:#181818;stroke-width:1;"/><polygon fill="#000000" points="251,420.5364,253.9389,411.4913,248.0611,411.4913,251,420.5364" style="stroke:#000000;stroke-width:1;"/><text fill="#000000" font-family="sans-serif" font-size="13" lengthAdjust="spacing" textLength="56.2847" x="260" y="420.0369">contiene</text><text fill="#000000" font-family="sans-serif" font-size="13" lengthAdjust="spacing" textLength="12.6636" x="233.2389" y="396.9377">m</text><text fill="#000000" font-family="sans-serif" font-size="13" lengthAdjust="spacing" textLength="8.271" x="237.5288" y="442.7848">1</text></g><!--reverse link Frame to Grafica--><g id="link_Frame_Grafica"><path codeLine="44" d="M222.4471,573.1143 C213.2471,597.1743 204.66,619.62 195.45,643.69 " fill="#FFFFFF" fill-opacity="0.00000" id="Frame-backto-Grafica" style="stroke:#181818;stroke-width:1;"/><polygon fill="#181818" points="224.59,567.51,217.6394,574.4878,222.8042,572.1802,225.1118,577.345,224.59,567.51" style="stroke:#181818;stroke-width:1;"/><polygon fill="#000000" points="215.2136,610.3864,221.1902,602.9883,215.7003,600.8883,215.2136,610.3864" style="stroke:#000000;stroke-width:1;"/><text fill="#000000" font-family="sans-serif" font-size="13" lengthAdjust="spacing" textLength="55.8911" x="226" y="610.2169">gestiona</text><text fill="#000000" font-family="sans-serif" font-size="13" lengthAdjust="spacing" textLength="12.6636" x="209.4589" y="587.0362">m</text><text fill="#000000" font-family="sans-serif" font-size="13" lengthAdjust="spacing" textLength="8.271" x="189.593" y="632.8975">1</text></g><!--reverse link Grafica to Pantalla--><g id="link_Grafica_Pantalla"><path codeLine="45" d="M194.8429,763.2935 C202.7529,786.6735 210.18,808.61 218.82,834.1 " fill="#FFFFFF" fill-opacity="0.00000" id="Grafica-backto-Pantalla" style="stroke:#181818;stroke-width:1;"/><polygon fill="#181818" points="192.92,757.61,192.0153,767.4172,194.5224,762.3463,199.5933,764.8534,192.92,757.61" style="stroke:#181818;stroke-width:1;"/><polygon fill="#000000" points="213.6037,800.6422,213.4862,791.1324,207.9189,793.0177,213.6037,800.6422" style="stroke:#000000;stroke-width:1;"/><text fill="#000000" font-family="sans-serif" font-size="13" lengthAdjust="spacing" textLength="22.9785" x="221" y="800.4069">usa</text><text fill="#000000" font-family="sans-serif" font-size="13" lengthAdjust="spacing" textLength="8.271" x="186.7547" y="777.5296">1</text><text fill="#000000" font-family="sans-serif" font-size="13" lengthAdjust="spacing" textLength="8.271" x="208.055" y="823.2659">1</text></g><!--reverse link Pantalla to Frame--><g id="link_Pantalla_Frame"><path codeLine="46" d="M290.3292,822.8222 C300.2792,798.7822 304.96,783.06 310,757.34 C319.67,707.98 320.05,693.45 310,644.15 C304.59,617.61 292.68,590.31 280.59,567.44 " fill="#FFFFFF" fill-opacity="0.00000" id="Pantalla-backto-Frame" style="stroke:#181818;stroke-width:1;"/><polygon fill="#181818" points="285.74,833.91,291.7305,829.8958,290.3292,822.8222,284.3386,826.8364,285.74,833.91" style="stroke:#181818;stroke-width:1;"/><polygon fill="#000000" points="321.8095,695.82,319.2174,704.9705,325.0909,704.7466,321.8095,695.82" style="stroke:#000000;stroke-width:1;"/><text fill="#000000" font-family="sans-serif" font-size="13" lengthAdjust="spacing" textLength="59.3696" x="331" y="705.3169">buffer de</text><text fill="#000000" font-family="sans-serif" font-size="13" lengthAdjust="spacing" textLength="8.271" x="280.8229" y="823.3368">1</text><text fill="#000000" font-family="sans-serif" font-size="13" lengthAdjust="spacing" textLength="8.271" x="276.3344" y="587.3608">2</text></g><!--SRC=[PLF9Ri903Btp5HQLcXP8LJYcmANRbHQf5yJ17KmwxMJHJ8Ag8lwzioHXXkJWHFQpt_EI4jaFfWJFtoGPPxoudy5n0FfX0fM2nq8Kil6O9mRsXNAp1Kcb94LvXJefXmKSexje0j74cCIO1sF6nYoC6HbpRSnLTFBgyRo20sgM2mvWXdfDWfXXm5tH0SPErirjpzCLyqF6kQD38GuaF_0oqNAruVUWgmPt6dW3MV5V4i50t8YiMg-inVKLTan-1m71YyIC0W9RQhFLGo_D5oclg4K7D8U2x_HsXA0SvSeb181pkLPBY0hKl4hSSuQ1dhUQQffRvgNf6-sdhwh9wkjAAIU9qYK4OUloD3qLAa25Iq2z8I52MMs5ptg_9_-QsXvIz_P7qTJf2yqALMcXNY06LM75cOkNM2iAelQEClhJ2jrojNJlDAowwGGkNJEVscV8aEStwqhoFDLDeKnLC0XNPpWTmZoExTjTPW8LrqE6fKKvtp0xeznv9Lf1xWETsmUsKqlqqbHb_i06sWO2xdOX2TIg1NPEWnWPvEpCxxQarwt1fty0]--></g></svg>