<svg xmlns="http://www.w3.org/2000/svg" xmlns:xlink="http://www.w3.org/1999/xlink" contentStyleType="text/css" data-diagram-type="CLASS" height="1284px" preserveAspectRatio="none" style="width:311px;height:1284px;background:#FFFFFF;" version="1.1" viewBox="0 0 311 1284" width="311px" zoomAndPan="magnify"><defs/><g><!--class Pantalla--><g id="elem_Pantalla"><rect codeLine="2" fill="#F1F1F1" height="113.1875" id="Pantalla" rx="2.5" ry="2.5" style="stroke:#181818;stroke-width:0.5;" width="202.8184" x="54.2" y="7"/><ellipse cx="123.1985" cy="23" fill="#ADD1B2" rx="11" ry="11" style="stroke:#181818;stroke-width:1;"/><path d="M126.1673,28.6406 Q125.5892,28.9375 124.9485,29.0781 Q124.3079,29.2344 123.6048,29.2344 Q121.1048,29.2344 119.7767,27.5938 Q118.4642,25.9375 118.4642,22.8125 Q118.4642,19.6875 119.7767,18.0313 Q121.1048,16.375 123.6048,16.375 Q124.3079,16.375 124.9485,16.5313 Q125.6048,16.6875 126.1673,16.9844 L126.1673,19.7031 Q125.5423,19.125 124.9485,18.8594 Q124.3548,18.5781 123.7298,18.5781 Q122.386,18.5781 121.6985,19.6563 Q121.011,20.7188 121.011,22.8125 Q121.011,24.9063 121.6985,25.9844 Q122.386,27.0469 123.7298,27.0469 Q124.3548,27.0469 124.9485,26.7813 Q125.5423,26.5 126.1673,25.9219 L126.1673,28.6406 Z " fill="#000000"/><text fill="#000000" font-family="sans-serif" font-size="14" lengthAdjust="spacing" textLength="56.3213" x="143.6985" y="27.8467">Pantalla</text><line style="stroke:#181818;stroke-width:0.5;" x1="55.2" x2="256.0184" y1="39" y2="39"/><rect fill="#FFFFFF" fill-opacity="0.00000" height="6" style="stroke:#C82930;stroke-width:1;" width="6" x="62.2" y="49.6484"/><text fill="#000000" font-family="sans-serif" font-size="14" lengthAdjust="spacing" textLength="108.8213" x="74.2" y="55.9951">Frame[] frames</text><rect fill="#FFFFFF" fill-opacity="0.00000" height="6" style="stroke:#C82930;stroke-width:1;" width="6" x="62.2" y="65.9453"/><text fill="#000000" font-family="sans-serif" font-size="14" lengthAdjust="spacing" textLength="103.0449" x="74.2" y="72.292">Grafica grafica</text><line style="stroke:#181818;stroke-width:0.5;" x1="55.2" x2="256.0184" y1="79.5938" y2="79.5938"/><ellipse cx="65.2" cy="93.2422" fill="#84BE84" rx="3" ry="3" style="stroke:#038048;stroke-width:1;"/><text fill="#000000" font-family="sans-serif" font-size="14" lengthAdjust="spacing" textLength="109.2451" x="74.2" y="96.5889">mostrar() : void</text><ellipse cx="65.2" cy="109.5391" fill="#84BE84" rx="3" ry="3" style="stroke:#038048;stroke-width:1;"/><text fill="#000000" font-family="sans-serif" font-size="14" lengthAdjust="spacing" textLength="176.8184" x="74.2" y="112.8857">main(String[] args) : void</text></g><!--class Grafica--><g id="elem_Grafica"><rect codeLine="10" fill="#F1F1F1" height="145.7813" id="Grafica" rx="2.5" ry="2.5" style="stroke:#181818;stroke-width:0.5;" width="245.5703" x="32.82" y="197.19"/><ellipse cx="126.216" cy="213.19" fill="#ADD1B2" rx="11" ry="11" style="stroke:#181818;stroke-width:1;"/><path d="M129.1847,218.8306 Q128.6066,219.1275 127.966,219.2681 Q127.3254,219.4244 126.6222,219.4244 Q124.1222,219.4244 122.7941,217.7838 Q121.4816,216.1275 121.4816,213.0025 Q121.4816,209.8775 122.7941,208.2213 Q124.1222,206.565 126.6222,206.565 Q127.3254,206.565 127.966,206.7213 Q128.6222,206.8775 129.1847,207.1744 L129.1847,209.8931 Q128.5597,209.315 127.966,209.0494 Q127.3722,208.7681 126.7472,208.7681 Q125.4035,208.7681 124.716,209.8463 Q124.0285,210.9088 124.0285,213.0025 Q124.0285,215.0963 124.716,216.1744 Q125.4035,217.2369 126.7472,217.2369 Q127.3722,217.2369 127.966,216.9713 Q128.5597,216.69 129.1847,216.1119 L129.1847,218.8306 Z " fill="#000000"/><text fill="#000000" font-family="sans-serif" font-size="14" lengthAdjust="spacing" textLength="50.2783" x="146.716" y="218.0367">Grafica</text><line style="stroke:#181818;stroke-width:0.5;" x1="33.82" x2="277.3903" y1="229.19" y2="229.19"/><rect fill="#FFFFFF" fill-opacity="0.00000" height="6" style="stroke:#C82930;stroke-width:1;" width="6" x="40.82" y="239.8384"/><text fill="#000000" font-family="sans-serif" font-size="14" lengthAdjust="spacing" textLength="104.166" x="52.82" y="246.1851">int memoriaKB</text><rect fill="#FFFFFF" fill-opacity="0.00000" height="6" style="stroke:#C82930;stroke-width:1;" width="6" x="40.82" y="256.1353"/><text fill="#000000" font-family="sans-serif" font-size="14" lengthAdjust="spacing" textLength="72.7617" x="52.82" y="262.482">int tasaHZ</text><rect fill="#FFFFFF" fill-opacity="0.00000" height="6" style="stroke:#C82930;stroke-width:1;" width="6" x="40.82" y="272.4322"/><text fill="#000000" font-family="sans-serif" font-size="14" lengthAdjust="spacing" textLength="115.9238" x="52.82" y="278.7789">Cola colaFrames</text><line style="stroke:#181818;stroke-width:0.5;" x1="33.82" x2="277.3903" y1="286.0806" y2="286.0806"/><ellipse cx="43.82" cy="299.7291" fill="#84BE84" rx="3" ry="3" style="stroke:#038048;stroke-width:1;"/><text fill="#000000" font-family="sans-serif" font-size="14" lengthAdjust="spacing" textLength="61.2021" x="52.82" y="303.0757">Grafica()</text><rect fill="#F24D5C" height="6" style="stroke:#C82930;stroke-width:1;" width="6" x="40.82" y="313.0259"/><text fill="#000000" font-family="sans-serif" font-size="14" lengthAdjust="spacing" textLength="161.1777" x="52.82" y="319.3726">generarFrames() : void</text><ellipse cx="43.82" cy="332.3228" fill="#84BE84" rx="3" ry="3" style="stroke:#038048;stroke-width:1;"/><text fill="#000000" font-family="sans-serif" font-size="14" lengthAdjust="spacing" textLength="219.5703" x="52.82" y="335.6695">devolverDosFrames() : Frame[]</text></g><!--class Cola--><g id="elem_Cola"><rect codeLine="20" fill="#F1F1F1" height="145.7813" id="Cola" rx="2.5" ry="2.5" style="stroke:#181818;stroke-width:0.5;" width="192.2432" x="59.49" y="419.97"/><ellipse cx="135.9568" cy="435.97" fill="#ADD1B2" rx="11" ry="11" style="stroke:#181818;stroke-width:1;"/><path d="M138.9255,441.6106 Q138.3474,441.9075 137.7068,442.0481 Q137.0662,442.2044 136.363,442.2044 Q133.863,442.2044 132.5349,440.5638 Q131.2224,438.9075 131.2224,435.7825 Q131.2224,432.6575 132.5349,431.0013 Q133.863,429.345 136.363,429.345 Q137.0662,429.345 137.7068,429.5013 Q138.363,429.6575 138.9255,429.9544 L138.9255,432.6731 Q138.3005,432.095 137.7068,431.8294 Q137.113,431.5481 136.488,431.5481 Q135.1443,431.5481 134.4568,432.6263 Q133.7693,433.6888 133.7693,435.7825 Q133.7693,437.8763 134.4568,438.9544 Q135.1443,440.0169 136.488,440.0169 Q137.113,440.0169 137.7068,439.7513 Q138.3005,439.47 138.9255,438.8919 L138.9255,441.6106 Z " fill="#000000"/><text fill="#000000" font-family="sans-serif" font-size="14" lengthAdjust="spacing" textLength="30.8096" x="156.4568" y="440.8167">Cola</text><line style="stroke:#181818;stroke-width:0.5;" x1="60.49" x2="250.7332" y1="451.97" y2="451.97"/><rect fill="#FFFFFF" fill-opacity="0.00000" height="6" style="stroke:#C82930;stroke-width:1;" width="6" x="67.49" y="462.6184"/><text fill="#000000" font-family="sans-serif" font-size="14" lengthAdjust="spacing" textLength="140.6836" x="79.49" y="468.9651">NodoFrame primero</text><rect fill="#FFFFFF" fill-opacity="0.00000" height="6" style="stroke:#C82930;stroke-width:1;" width="6" x="67.49" y="478.9153"/><text fill="#000000" font-family="sans-serif" font-size="14" lengthAdjust="spacing" textLength="129.9238" x="79.49" y="485.262">NodoFrame ultimo</text><rect fill="#FFFFFF" fill-opacity="0.00000" height="6" style="stroke:#C82930;stroke-width:1;" width="6" x="67.49" y="495.2122"/><text fill="#000000" font-family="sans-serif" font-size="14" lengthAdjust="spacing" textLength="76.4258" x="79.49" y="501.5589">int tama&#241;o</text><line style="stroke:#181818;stroke-width:0.5;" x1="60.49" x2="250.7332" y1="508.8606" y2="508.8606"/><ellipse cx="70.49" cy="522.5091" fill="#84BE84" rx="3" ry="3" style="stroke:#038048;stroke-width:1;"/><text fill="#000000" font-family="sans-serif" font-size="14" lengthAdjust="spacing" textLength="41.7334" x="79.49" y="525.8557">Cola()</text><ellipse cx="70.49" cy="538.8059" fill="#84BE84" rx="3" ry="3" style="stroke:#038048;stroke-width:1;"/><text fill="#000000" font-family="sans-serif" font-size="14" lengthAdjust="spacing" textLength="115.5137" x="79.49" y="542.1526">enqueue() : void</text><ellipse cx="70.49" cy="555.1028" fill="#84BE84" rx="3" ry="3" style="stroke:#038048;stroke-width:1;"/><text fill="#000000" font-family="sans-serif" font-size="14" lengthAdjust="spacing" textLength="166.2432" x="79.49" y="558.4495">desenqueue() : Frame[]</text></g><!--class NodoFrame--><g id="elem_NodoFrame"><rect codeLine="30" fill="#F1F1F1" height="113.1875" id="NodoFrame" rx="2.5" ry="2.5" style="stroke:#181818;stroke-width:0.5;" width="297.2158" x="7" y="642.75"/><ellipse cx="110.7935" cy="658.75" fill="#ADD1B2" rx="11" ry="11" style="stroke:#181818;stroke-width:1;"/><path d="M113.7622,664.3906 Q113.1841,664.6875 112.5435,664.8281 Q111.9028,664.9844 111.1997,664.9844 Q108.6997,664.9844 107.3716,663.3438 Q106.0591,661.6875 106.0591,658.5625 Q106.0591,655.4375 107.3716,653.7813 Q108.6997,652.125 111.1997,652.125 Q111.9028,652.125 112.5435,652.2813 Q113.1997,652.4375 113.7622,652.7344 L113.7622,655.4531 Q113.1372,654.875 112.5435,654.6094 Q111.9497,654.3281 111.3247,654.3281 Q109.981,654.3281 109.2935,655.4063 Q108.606,656.4688 108.606,658.5625 Q108.606,660.6563 109.2935,661.7344 Q109.981,662.7969 111.3247,662.7969 Q111.9497,662.7969 112.5435,662.5313 Q113.1372,662.25 113.7622,661.6719 L113.7622,664.3906 Z " fill="#000000"/><text fill="#000000" font-family="sans-serif" font-size="14" lengthAdjust="spacing" textLength="81.1289" x="131.2935" y="663.5967">NodoFrame</text><line style="stroke:#181818;stroke-width:0.5;" x1="8" x2="303.2158" y1="674.75" y2="674.75"/><rect fill="#FFFFFF" fill-opacity="0.00000" height="6" style="stroke:#C82930;stroke-width:1;" width="6" x="15" y="685.3984"/><text fill="#000000" font-family="sans-serif" font-size="14" lengthAdjust="spacing" textLength="150.001" x="27" y="691.7451">NodoFrame siguiente</text><line style="stroke:#181818;stroke-width:0.5;" x1="8" x2="303.2158" y1="699.0469" y2="699.0469"/><ellipse cx="18" cy="712.6953" fill="#84BE84" rx="3" ry="3" style="stroke:#038048;stroke-width:1;"/><text fill="#000000" font-family="sans-serif" font-size="14" lengthAdjust="spacing" textLength="92.0527" x="27" y="716.042">NodoFrame()</text><ellipse cx="18" cy="728.9922" fill="#84BE84" rx="3" ry="3" style="stroke:#038048;stroke-width:1;"/><text fill="#000000" font-family="sans-serif" font-size="14" lengthAdjust="spacing" textLength="194.6738" x="27" y="732.3389">getSiguiente() : NodoFrame</text><ellipse cx="18" cy="745.2891" fill="#84BE84" rx="3" ry="3" style="stroke:#038048;stroke-width:1;"/><text fill="#000000" font-family="sans-serif" font-size="14" lengthAdjust="spacing" textLength="271.2158" x="27" y="748.6357">setSiguiente(nodo : NodoFrame) : void</text></g><!--class Frame--><g id="elem_Frame"><rect codeLine="38" fill="#F1F1F1" height="113.1875" id="Frame" rx="2.5" ry="2.5" style="stroke:#181818;stroke-width:0.5;" width="215.4307" x="47.89" y="816.94"/><ellipse cx="129.036" cy="832.94" fill="#ADD1B2" rx="11" ry="11" style="stroke:#181818;stroke-width:1;"/><path d="M132.0047,838.5806 Q131.4266,838.8775 130.786,839.0181 Q130.1454,839.1744 129.4422,839.1744 Q126.9422,839.1744 125.6141,837.5338 Q124.3016,835.8775 124.3016,832.7525 Q124.3016,829.6275 125.6141,827.9713 Q126.9422,826.315 129.4422,826.315 Q130.1454,826.315 130.786,826.4713 Q131.4422,826.6275 132.0047,826.9244 L132.0047,829.6431 Q131.3797,829.065 130.786,828.7994 Q130.1922,828.5181 129.5672,828.5181 Q128.2235,828.5181 127.536,829.5963 Q126.8485,830.6588 126.8485,832.7525 Q126.8485,834.8463 127.536,835.9244 Q128.2235,836.9869 129.5672,836.9869 Q130.1922,836.9869 130.786,836.7213 Q131.3797,836.44 132.0047,835.8619 L132.0047,838.5806 Z " fill="#000000"/><text fill="#000000" font-family="sans-serif" font-size="14" lengthAdjust="spacing" textLength="44.6387" x="149.536" y="837.7867">Frame</text><line style="stroke:#181818;stroke-width:0.5;" x1="48.89" x2="262.3207" y1="848.94" y2="848.94"/><rect fill="#FFFFFF" fill-opacity="0.00000" height="6" style="stroke:#C82930;stroke-width:1;" width="6" x="55.89" y="859.5884"/><text fill="#000000" font-family="sans-serif" font-size="14" lengthAdjust="spacing" textLength="108.8896" x="67.89" y="865.9351">Pixel[][] pixeles</text><line style="stroke:#181818;stroke-width:0.5;" x1="48.89" x2="262.3207" y1="873.2369" y2="873.2369"/><ellipse cx="58.89" cy="886.8853" fill="#84BE84" rx="3" ry="3" style="stroke:#038048;stroke-width:1;"/><text fill="#000000" font-family="sans-serif" font-size="14" lengthAdjust="spacing" textLength="55.5625" x="67.89" y="890.232">Frame()</text><ellipse cx="58.89" cy="903.1822" fill="#84BE84" rx="3" ry="3" style="stroke:#038048;stroke-width:1;"/><text fill="#000000" font-family="sans-serif" font-size="14" lengthAdjust="spacing" textLength="157.165" x="67.89" y="906.5289">rellenarPixeles() : void</text><ellipse cx="58.89" cy="919.4791" fill="#84BE84" rx="3" ry="3" style="stroke:#038048;stroke-width:1;"/><text fill="#000000" font-family="sans-serif" font-size="14" lengthAdjust="spacing" textLength="189.4307" x="67.89" y="922.8257">devolverPixeles() : Pixel[][]</text></g><!--class Pixel--><g id="elem_Pixel"><rect codeLine="46" fill="#F1F1F1" height="96.8906" id="Pixel" rx="2.5" ry="2.5" style="stroke:#181818;stroke-width:0.5;" width="184.5391" x="63.34" y="1007.13"/><ellipse cx="134.7995" cy="1023.13" fill="#ADD1B2" rx="11" ry="11" style="stroke:#181818;stroke-width:1;"/><path d="M137.7682,1028.7706 Q137.1901,1029.0675 136.5495,1029.2081 Q135.9088,1029.3644 135.2057,1029.3644 Q132.7057,1029.3644 131.3776,1027.7238 Q130.0651,1026.0675 130.0651,1022.9425 Q130.0651,1019.8175 131.3776,1018.1613 Q132.7057,1016.505 135.2057,1016.505 Q135.9088,1016.505 136.5495,1016.6613 Q137.2057,1016.8175 137.7682,1017.1144 L137.7682,1019.8331 Q137.1432,1019.255 136.5495,1018.9894 Q135.9557,1018.7081 135.3307,1018.7081 Q133.987,1018.7081 133.2995,1019.7863 Q132.612,1020.8488 132.612,1022.9425 Q132.612,1025.0363 133.2995,1026.1144 Q133.987,1027.1769 135.3307,1027.1769 Q135.9557,1027.1769 136.5495,1026.9113 Q137.1432,1026.63 137.7682,1026.0519 L137.7682,1028.7706 Z " fill="#000000"/><text fill="#000000" font-family="sans-serif" font-size="14" lengthAdjust="spacing" textLength="33.1201" x="155.2995" y="1027.9767">Pixel</text><line style="stroke:#181818;stroke-width:0.5;" x1="64.34" x2="246.8791" y1="1039.13" y2="1039.13"/><rect fill="#FFFFFF" fill-opacity="0.00000" height="6" style="stroke:#C82930;stroke-width:1;" width="6" x="71.34" y="1049.7784"/><text fill="#000000" font-family="sans-serif" font-size="14" lengthAdjust="spacing" textLength="75.4756" x="83.34" y="1056.1251">Color color</text><line style="stroke:#181818;stroke-width:0.5;" x1="64.34" x2="246.8791" y1="1063.4269" y2="1063.4269"/><ellipse cx="74.34" cy="1077.0753" fill="#84BE84" rx="3" ry="3" style="stroke:#038048;stroke-width:1;"/><text fill="#000000" font-family="sans-serif" font-size="14" lengthAdjust="spacing" textLength="44.0439" x="83.34" y="1080.422">Pixel()</text><ellipse cx="74.34" cy="1093.3722" fill="#84BE84" rx="3" ry="3" style="stroke:#038048;stroke-width:1;"/><text fill="#000000" font-family="sans-serif" font-size="14" lengthAdjust="spacing" textLength="158.5391" x="83.34" y="1096.7189">devolverColor() : Color</text></g><!--class Color--><g id="elem_Color"><rect codeLine="53" fill="#F1F1F1" height="96.8906" id="Color" rx="2.5" ry="2.5" style="stroke:#181818;stroke-width:0.5;" width="251.8115" x="29.7" y="1181.02"/><ellipse cx="133.0799" cy="1197.02" fill="#ADD1B2" rx="11" ry="11" style="stroke:#181818;stroke-width:1;"/><path d="M136.0486,1202.6606 Q135.4705,1202.9575 134.8299,1203.0981 Q134.1893,1203.2544 133.4861,1203.2544 Q130.9861,1203.2544 129.658,1201.6138 Q128.3455,1199.9575 128.3455,1196.8325 Q128.3455,1193.7075 129.658,1192.0513 Q130.9861,1190.395 133.4861,1190.395 Q134.1893,1190.395 134.8299,1190.5513 Q135.4861,1190.7075 136.0486,1191.0044 L136.0486,1193.7231 Q135.4236,1193.145 134.8299,1192.8794 Q134.2361,1192.5981 133.6111,1192.5981 Q132.2674,1192.5981 131.5799,1193.6763 Q130.8924,1194.7388 130.8924,1196.8325 Q130.8924,1198.9263 131.5799,1200.0044 Q132.2674,1201.0669 133.6111,1201.0669 Q134.2361,1201.0669 134.8299,1200.8013 Q135.4236,1200.52 136.0486,1199.9419 L136.0486,1202.6606 Z " fill="#000000"/><text fill="#000000" font-family="sans-serif" font-size="14" lengthAdjust="spacing" textLength="36.5518" x="153.5799" y="1201.8667">Color</text><line style="stroke:#181818;stroke-width:0.5;" x1="30.7" x2="280.5115" y1="1213.02" y2="1213.02"/><rect fill="#FFFFFF" fill-opacity="0.00000" height="6" style="stroke:#C82930;stroke-width:1;" width="6" x="37.7" y="1223.6684"/><text fill="#000000" font-family="sans-serif" font-size="14" lengthAdjust="spacing" textLength="140.8545" x="49.7" y="1230.0151">char representacion</text><line style="stroke:#181818;stroke-width:0.5;" x1="30.7" x2="280.5115" y1="1237.3169" y2="1237.3169"/><ellipse cx="40.7" cy="1250.9653" fill="#84BE84" rx="3" ry="3" style="stroke:#038048;stroke-width:1;"/><text fill="#000000" font-family="sans-serif" font-size="14" lengthAdjust="spacing" textLength="47.4756" x="49.7" y="1254.312">Color()</text><ellipse cx="40.7" cy="1267.2622" fill="#84BE84" rx="3" ry="3" style="stroke:#038048;stroke-width:1;"/><text fill="#000000" font-family="sans-serif" font-size="14" lengthAdjust="spacing" textLength="225.8115" x="49.7" y="1270.6089">devolverRepresentacion() : char</text></g><!--link Pantalla to Grafica--><g id="link_Pantalla_Grafica"><path codeLine="60" d="M155.61,120.47 C155.61,144.01 155.61,165.69 155.61,190.75 " fill="#FFFFFF" fill-opacity="0.00000" id="Pantalla-to-Grafica" style="stroke:#181818;stroke-width:1;"/><polygon fill="#181818" points="155.61,196.75,159.61,187.75,155.61,191.75,151.61,187.75,155.61,196.75" style="stroke:#181818;stroke-width:1;"/><text fill="#000000" font-family="sans-serif" font-size="13" lengthAdjust="spacing" textLength="22.9785" x="156.61" y="163.2569">usa</text></g><!--link Grafica to Cola--><g id="link_Grafica_Cola"><path codeLine="61" d="M155.61,343.37 C155.61,367.9 155.61,389.28 155.61,413.79 " fill="#FFFFFF" fill-opacity="0.00000" id="Grafica-to-Cola" style="stroke:#181818;stroke-width:1;"/><polygon fill="#181818" points="155.61,419.79,159.61,410.79,155.61,414.79,151.61,410.79,155.61,419.79" style="stroke:#181818;stroke-width:1;"/><text fill="#000000" font-family="sans-serif" font-size="13" lengthAdjust="spacing" textLength="32.9443" x="156.61" y="386.0369">tiene</text></g><!--link Cola to NodoFrame--><g id="link_Cola_NodoFrame"><path codeLine="62" d="M155.61,566.24 C155.61,591.29 155.61,612.96 155.61,636.47 " fill="#FFFFFF" fill-opacity="0.00000" id="Cola-to-NodoFrame" style="stroke:#181818;stroke-width:1;"/><polygon fill="#181818" points="155.61,642.47,159.61,633.47,155.61,637.47,151.61,633.47,155.61,642.47" style="stroke:#181818;stroke-width:1;"/><text fill="#000000" font-family="sans-serif" font-size="13" lengthAdjust="spacing" textLength="56.2847" x="156.61" y="608.8169">contiene</text></g><!--link NodoFrame to Frame--><g id="link_NodoFrame_Frame"><path codeLine="63" d="M155.61,756.25 C155.61,775.6 155.61,779.27 155.61,798.62 " fill="#FFFFFF" fill-opacity="0.00000" id="NodoFrame-to-Frame" style="stroke:#181818;stroke-width:1;"/><polygon fill="#FFFFFF" fill-opacity="0.00000" points="155.61,816.62,161.61,798.62,149.61,798.62,155.61,816.62" style="stroke:#181818;stroke-width:1;"/></g><!--link Frame to Pixel--><g id="link_Frame_Pixel"><path codeLine="64" d="M155.61,930.51 C155.61,954.98 155.61,977.38 155.61,1000.82 " fill="#FFFFFF" fill-opacity="0.00000" id="Frame-to-Pixel" style="stroke:#181818;stroke-width:1;"/><polygon fill="#181818" points="155.61,1006.82,159.61,997.82,155.61,1001.82,151.61,997.82,155.61,1006.82" style="stroke:#181818;stroke-width:1;"/><text fill="#000000" font-family="sans-serif" font-size="13" lengthAdjust="spacing" textLength="66.917" x="156.61" y="973.1969">contiene *</text></g><!--link Pixel to Color--><g id="link_Pixel_Color"><path codeLine="65" d="M155.61,1104.46 C155.61,1128.2 155.61,1150.8 155.61,1174.54 " fill="#FFFFFF" fill-opacity="0.00000" id="Pixel-to-Color" style="stroke:#181818;stroke-width:1;"/><polygon fill="#181818" points="155.61,1180.54,159.61,1171.54,155.61,1175.54,151.61,1171.54,155.61,1180.54" style="stroke:#181818;stroke-width:1;"/><text fill="#000000" font-family="sans-serif" font-size="13" lengthAdjust="spacing" textLength="56.2847" x="156.61" y="1147.0869">contiene</text></g><!--SRC=[RLFBJiCm4BpdA_RMGfKVwA47YWeI4ghW1kAmIhV1acCNswcGW8_Y6_WnxFKZRjLBuftPp4oocnci9Lg2BIg7KcBJ-TAM4huQW1Os1WTwVODzk5k6xWpkHOVGnxl75Z1ewmoQ-HKiuQZ5Be8erFpP6Q5whu2cjuN-QPfPyazooJwBHtUX70mqQ2FmuQOW3YtUlt2vrZvfvo-Rd6-H9UPNtD6J8fyiygVvTdJKyaZcLjkAJczSHmmkAHyRnd2FUgUv6Gv636Jq6JfA9mPTfHxmxrUpSr3XV0iWzJ7IIEV9R8rVY3JPqASJf7OKkrBCYJxFQaK_-dv7R5JmbAOdzvmRsBeqC6rhMdcgxhWqt3fJdMShFac-llcrE8HJcboTn92KfD1i8tzvSZLP96j_1lDcXtFozmFG9YoEDYp8N7BEujp3qdmwMmWFb8tmKb6sUqVZanzCc9_3JcYLvnsaJkIVJjhO9pmURPv8Ckm_JFaXstPLVeybZ1QRN0M65tC9OHUeuIAWqzozkbQHdS2s_Lwb6MLWbRxJr0_NJOIIZN_RYVm7]--></g></svg>