<svg xmlns="http://www.w3.org/2000/svg" xmlns:xlink="http://www.w3.org/1999/xlink" contentStyleType="text/css" height="657px" preserveAspectRatio="none" style="width:523px;height:657px;background:#FFFFFF;" version="1.1" viewBox="0 0 523 657" width="523px" zoomAndPan="magnify"><defs/><g><!--class Pantalla--><g id="elem_Pantalla"><rect codeLine="1" fill="#F1F1F1" height="80.5938" id="Pantalla" rx="2.5" ry="2.5" style="stroke:#181818;stroke-width:0.5;" width="135.0537" x="194" y="7"/><ellipse cx="230.0296" cy="23" fill="#ADD1B2" rx="11" ry="11" style="stroke:#181818;stroke-width:1;"/><path d="M232.9983,28.6406 Q232.4202,28.9375 231.7796,29.0781 Q231.139,29.2344 230.4358,29.2344 Q227.9358,29.2344 226.6077,27.5938 Q225.2952,25.9375 225.2952,22.8125 Q225.2952,19.6875 226.6077,18.0313 Q227.9358,16.375 230.4358,16.375 Q231.139,16.375 231.7796,16.5313 Q232.4358,16.6875 232.9983,16.9844 L232.9983,19.7031 Q232.3733,19.125 231.7796,18.8594 Q231.1858,18.5781 230.5608,18.5781 Q229.2171,18.5781 228.5296,19.6563 Q227.8421,20.7188 227.8421,22.8125 Q227.8421,24.9063 228.5296,25.9844 Q229.2171,27.0469 230.5608,27.0469 Q231.1858,27.0469 231.7796,26.7813 Q232.3733,26.5 232.9983,25.9219 L232.9983,28.6406 Z " fill="#000000"/><text fill="#000000" font-family="sans-serif" font-size="14" lengthAdjust="spacing" textLength="56.3213" x="248.7028" y="27.8467">Pantalla</text><line style="stroke:#181818;stroke-width:0.5;" x1="195" x2="328.0537" y1="39" y2="39"/><ellipse cx="205" cy="52.6484" fill="none" rx="3" ry="3" style="stroke:#038048;stroke-width:1;"/><text fill="#000000" font-family="sans-serif" font-size="14" lengthAdjust="spacing" textLength="109.0537" x="214" y="55.9951">String atributos</text><line style="stroke:#181818;stroke-width:0.5;" x1="195" x2="328.0537" y1="63.2969" y2="63.2969"/><ellipse cx="205" cy="76.9453" fill="#84BE84" rx="3" ry="3" style="stroke:#038048;stroke-width:1;"/><text fill="#000000" font-family="sans-serif" font-size="14" lengthAdjust="spacing" textLength="85.8457" x="214" y="80.292">getFrames()</text></g><!--class Pixeles--><g id="elem_Pixeles"><rect codeLine="6" fill="#F1F1F1" height="80.5938" id="Pixeles" rx="2.5" ry="2.5" style="stroke:#181818;stroke-width:0.5;" width="157.4482" x="82" y="570"/><ellipse cx="131.9604" cy="586" fill="#ADD1B2" rx="11" ry="11" style="stroke:#181818;stroke-width:1;"/><path d="M134.9292,591.6406 Q134.3511,591.9375 133.7104,592.0781 Q133.0698,592.2344 132.3667,592.2344 Q129.8667,592.2344 128.5386,590.5938 Q127.2261,588.9375 127.2261,585.8125 Q127.2261,582.6875 128.5386,581.0313 Q129.8667,579.375 132.3667,579.375 Q133.0698,579.375 133.7104,579.5313 Q134.3667,579.6875 134.9292,579.9844 L134.9292,582.7031 Q134.3042,582.125 133.7104,581.8594 Q133.1167,581.5781 132.4917,581.5781 Q131.1479,581.5781 130.4604,582.6563 Q129.7729,583.7188 129.7729,585.8125 Q129.7729,587.9063 130.4604,588.9844 Q131.1479,590.0469 132.4917,590.0469 Q133.1167,590.0469 133.7104,589.7813 Q134.3042,589.5 134.9292,588.9219 L134.9292,591.6406 Z " fill="#000000"/><text fill="#000000" font-family="sans-serif" font-size="14" lengthAdjust="spacing" textLength="49.0273" x="152.4604" y="590.8467">Pixeles</text><line style="stroke:#181818;stroke-width:0.5;" x1="83" x2="238.4482" y1="602" y2="602"/><ellipse cx="93" cy="615.6484" fill="none" rx="3" ry="3" style="stroke:#038048;stroke-width:1;"/><text fill="#000000" font-family="sans-serif" font-size="14" lengthAdjust="spacing" textLength="120.0254" x="102" y="618.9951">char[][] atributos</text><ellipse cx="93" cy="631.9453" fill="none" rx="3" ry="3" style="stroke:#038048;stroke-width:1;"/><text fill="#000000" font-family="sans-serif" font-size="14" lengthAdjust="spacing" textLength="131.4482" x="102" y="635.292">listaDelineamiento</text><line style="stroke:#181818;stroke-width:0.5;" x1="83" x2="238.4482" y1="642.5938" y2="642.5938"/></g><!--class Colores_compuestos--><g id="elem_Colores_compuestos"><rect codeLine="11" fill="#F1F1F1" height="80.5938" id="Colores_compuestos" rx="2.5" ry="2.5" style="stroke:#181818;stroke-width:0.5;" width="176.375" x="291.5" y="570"/><ellipse cx="306.5" cy="586" fill="#ADD1B2" rx="11" ry="11" style="stroke:#181818;stroke-width:1;"/><path d="M309.4688,591.6406 Q308.8906,591.9375 308.25,592.0781 Q307.6094,592.2344 306.9063,592.2344 Q304.4063,592.2344 303.0781,590.5938 Q301.7656,588.9375 301.7656,585.8125 Q301.7656,582.6875 303.0781,581.0313 Q304.4063,579.375 306.9063,579.375 Q307.6094,579.375 308.25,579.5313 Q308.9063,579.6875 309.4688,579.9844 L309.4688,582.7031 Q308.8438,582.125 308.25,581.8594 Q307.6563,581.5781 307.0313,581.5781 Q305.6875,581.5781 305,582.6563 Q304.3125,583.7188 304.3125,585.8125 Q304.3125,587.9063 305,588.9844 Q305.6875,590.0469 307.0313,590.0469 Q307.6563,590.0469 308.25,589.7813 Q308.8438,589.5 309.4688,588.9219 L309.4688,591.6406 Z " fill="#000000"/><text fill="#000000" font-family="sans-serif" font-size="14" lengthAdjust="spacing" textLength="144.375" x="320.5" y="590.8467">Colores_compuestos</text><line style="stroke:#181818;stroke-width:0.5;" x1="292.5" x2="466.875" y1="602" y2="602"/><ellipse cx="302.5" cy="615.6484" fill="none" rx="3" ry="3" style="stroke:#038048;stroke-width:1;"/><text fill="#000000" font-family="sans-serif" font-size="14" lengthAdjust="spacing" textLength="120.0254" x="311.5" y="618.9951">char[][] atributos</text><line style="stroke:#181818;stroke-width:0.5;" x1="292.5" x2="466.875" y1="626.2969" y2="626.2969"/><ellipse cx="302.5" cy="639.9453" fill="#84BE84" rx="3" ry="3" style="stroke:#038048;stroke-width:1;"/><text fill="#000000" font-family="sans-serif" font-size="14" lengthAdjust="spacing" textLength="92.5244" x="311.5" y="643.292">listaColores()</text></g><!--class Frame1--><g id="elem_Frame1"><rect codeLine="16" fill="#F1F1F1" height="96.8906" id="Frame1" rx="2.5" ry="2.5" style="stroke:#181818;stroke-width:0.5;" width="237.1484" x="7" y="413"/><ellipse cx="94.5513" cy="429" fill="#ADD1B2" rx="11" ry="11" style="stroke:#181818;stroke-width:1;"/><path d="M97.52,434.6406 Q96.9419,434.9375 96.3013,435.0781 Q95.6606,435.2344 94.9575,435.2344 Q92.4575,435.2344 91.1294,433.5938 Q89.8169,431.9375 89.8169,428.8125 Q89.8169,425.6875 91.1294,424.0313 Q92.4575,422.375 94.9575,422.375 Q95.6606,422.375 96.3013,422.5313 Q96.9575,422.6875 97.52,422.9844 L97.52,425.7031 Q96.895,425.125 96.3013,424.8594 Q95.7075,424.5781 95.0825,424.5781 Q93.7388,424.5781 93.0513,425.6563 Q92.3638,426.7188 92.3638,428.8125 Q92.3638,430.9063 93.0513,431.9844 Q93.7388,433.0469 95.0825,433.0469 Q95.7075,433.0469 96.3013,432.7813 Q96.895,432.5 97.52,431.9219 L97.52,434.6406 Z " fill="#000000"/><text fill="#000000" font-family="sans-serif" font-size="14" lengthAdjust="spacing" textLength="53.5459" x="115.0513" y="433.8467">Frame1</text><line style="stroke:#181818;stroke-width:0.5;" x1="8" x2="243.1484" y1="445" y2="445"/><ellipse cx="18" cy="458.6484" fill="none" rx="3" ry="3" style="stroke:#038048;stroke-width:1;"/><text fill="#000000" font-family="sans-serif" font-size="14" lengthAdjust="spacing" textLength="120.0254" x="27" y="461.9951">char[][] atributos</text><ellipse cx="18" cy="474.9453" fill="none" rx="3" ry="3" style="stroke:#038048;stroke-width:1;"/><text fill="#000000" font-family="sans-serif" font-size="14" lengthAdjust="spacing" textLength="109.1494" x="27" y="478.292">PosicionFrames</text><line style="stroke:#181818;stroke-width:0.5;" x1="8" x2="243.1484" y1="485.5938" y2="485.5938"/><ellipse cx="18" cy="499.2422" fill="#84BE84" rx="3" ry="3" style="stroke:#038048;stroke-width:1;"/><text fill="#000000" font-family="sans-serif" font-size="14" lengthAdjust="spacing" textLength="211.1484" x="27" y="502.5889">(Pixeles, colores_compuestos)</text></g><!--class Frame2--><g id="elem_Frame2"><rect codeLine="22" fill="#F1F1F1" height="96.8906" id="Frame2" rx="2.5" ry="2.5" style="stroke:#181818;stroke-width:0.5;" width="237.1484" x="279" y="413"/><ellipse cx="366.5513" cy="429" fill="#ADD1B2" rx="11" ry="11" style="stroke:#181818;stroke-width:1;"/><path d="M369.52,434.6406 Q368.9419,434.9375 368.3013,435.0781 Q367.6606,435.2344 366.9575,435.2344 Q364.4575,435.2344 363.1294,433.5938 Q361.8169,431.9375 361.8169,428.8125 Q361.8169,425.6875 363.1294,424.0313 Q364.4575,422.375 366.9575,422.375 Q367.6606,422.375 368.3013,422.5313 Q368.9575,422.6875 369.52,422.9844 L369.52,425.7031 Q368.895,425.125 368.3013,424.8594 Q367.7075,424.5781 367.0825,424.5781 Q365.7388,424.5781 365.0513,425.6563 Q364.3638,426.7188 364.3638,428.8125 Q364.3638,430.9063 365.0513,431.9844 Q365.7388,433.0469 367.0825,433.0469 Q367.7075,433.0469 368.3013,432.7813 Q368.895,432.5 369.52,431.9219 L369.52,434.6406 Z " fill="#000000"/><text fill="#000000" font-family="sans-serif" font-size="14" lengthAdjust="spacing" textLength="53.5459" x="387.0513" y="433.8467">Frame2</text><line style="stroke:#181818;stroke-width:0.5;" x1="280" x2="515.1484" y1="445" y2="445"/><ellipse cx="290" cy="458.6484" fill="none" rx="3" ry="3" style="stroke:#038048;stroke-width:1;"/><text fill="#000000" font-family="sans-serif" font-size="14" lengthAdjust="spacing" textLength="120.0254" x="299" y="461.9951">char[][] atributos</text><ellipse cx="290" cy="474.9453" fill="none" rx="3" ry="3" style="stroke:#038048;stroke-width:1;"/><text fill="#000000" font-family="sans-serif" font-size="14" lengthAdjust="spacing" textLength="109.1494" x="299" y="478.292">PosicionFrames</text><line style="stroke:#181818;stroke-width:0.5;" x1="280" x2="515.1484" y1="485.5938" y2="485.5938"/><ellipse cx="290" cy="499.2422" fill="#84BE84" rx="3" ry="3" style="stroke:#038048;stroke-width:1;"/><text fill="#000000" font-family="sans-serif" font-size="14" lengthAdjust="spacing" textLength="211.1484" x="299" y="502.5889">(Pixeles, colores_compuestos)</text></g><!--class Buffer--><g id="elem_Buffer"><rect codeLine="28" fill="#F1F1F1" height="64.2969" id="Buffer" rx="2.5" ry="2.5" style="stroke:#181818;stroke-width:0.5;" width="425.1299" x="49" y="148"/><ellipse cx="235.9629" cy="164" fill="#ADD1B2" rx="11" ry="11" style="stroke:#181818;stroke-width:1;"/><path d="M238.9316,169.6406 Q238.3535,169.9375 237.7129,170.0781 Q237.0723,170.2344 236.3691,170.2344 Q233.8691,170.2344 232.541,168.5938 Q231.2285,166.9375 231.2285,163.8125 Q231.2285,160.6875 232.541,159.0313 Q233.8691,157.375 236.3691,157.375 Q237.0723,157.375 237.7129,157.5313 Q238.3691,157.6875 238.9316,157.9844 L238.9316,160.7031 Q238.3066,160.125 237.7129,159.8594 Q237.1191,159.5781 236.4941,159.5781 Q235.1504,159.5781 234.4629,160.6563 Q233.7754,161.7188 233.7754,163.8125 Q233.7754,165.9063 234.4629,166.9844 Q235.1504,168.0469 236.4941,168.0469 Q237.1191,168.0469 237.7129,167.7813 Q238.3066,167.5 238.9316,166.9219 L238.9316,169.6406 Z " fill="#000000"/><text fill="#000000" font-family="sans-serif" font-size="14" lengthAdjust="spacing" textLength="42.7041" x="256.4629" y="168.8467">Buffer</text><line style="stroke:#181818;stroke-width:0.5;" x1="50" x2="473.1299" y1="180" y2="180"/><line style="stroke:#181818;stroke-width:0.5;" x1="50" x2="473.1299" y1="188" y2="188"/><ellipse cx="60" cy="201.6484" fill="#84BE84" rx="3" ry="3" style="stroke:#038048;stroke-width:1;"/><text fill="#000000" font-family="sans-serif" font-size="14" lengthAdjust="spacing" textLength="399.1299" x="69" y="204.9951">mostrarFrameElegido(Frame1, Frame2, ResultadoVisual)</text></g><!--class ResultadoVisual--><g id="elem_ResultadoVisual"><rect codeLine="32" fill="#F1F1F1" height="80.5938" id="ResultadoVisual" rx="2.5" ry="2.5" style="stroke:#181818;stroke-width:0.5;" width="218.8008" x="152" y="272"/><ellipse cx="201.1401" cy="288" fill="#ADD1B2" rx="11" ry="11" style="stroke:#181818;stroke-width:1;"/><path d="M204.1089,293.6406 Q203.5308,293.9375 202.8901,294.0781 Q202.2495,294.2344 201.5464,294.2344 Q199.0464,294.2344 197.7183,292.5938 Q196.4058,290.9375 196.4058,287.8125 Q196.4058,284.6875 197.7183,283.0313 Q199.0464,281.375 201.5464,281.375 Q202.2495,281.375 202.8901,281.5313 Q203.5464,281.6875 204.1089,281.9844 L204.1089,284.7031 Q203.4839,284.125 202.8901,283.8594 Q202.2964,283.5781 201.6714,283.5781 Q200.3276,283.5781 199.6401,284.6563 Q198.9526,285.7188 198.9526,287.8125 Q198.9526,289.9063 199.6401,290.9844 Q200.3276,292.0469 201.6714,292.0469 Q202.2964,292.0469 202.8901,291.7813 Q203.4839,291.5 204.1089,290.9219 L204.1089,293.6406 Z " fill="#000000"/><text fill="#000000" font-family="sans-serif" font-size="14" lengthAdjust="spacing" textLength="112.0205" x="221.6401" y="292.8467">ResultadoVisual</text><line style="stroke:#181818;stroke-width:0.5;" x1="153" x2="369.8008" y1="304" y2="304"/><ellipse cx="163" cy="317.6484" fill="none" rx="3" ry="3" style="stroke:#038048;stroke-width:1;"/><text fill="#000000" font-family="sans-serif" font-size="14" lengthAdjust="spacing" textLength="120.0254" x="172" y="320.9951">char[][] atributos</text><line style="stroke:#181818;stroke-width:0.5;" x1="153" x2="369.8008" y1="328.2969" y2="328.2969"/><ellipse cx="163" cy="341.9453" fill="#84BE84" rx="3" ry="3" style="stroke:#038048;stroke-width:1;"/><text fill="#000000" font-family="sans-serif" font-size="14" lengthAdjust="spacing" textLength="192.8008" x="172" y="345.292">combinar(Frame1, Frame2)</text></g><!--link Pantalla to Buffer--><g id="link_Pantalla_Buffer"><path codeLine="37" d="M261.5,88.01 C261.5,107.21 261.5,123.96 261.5,141.91 " fill="none" id="Pantalla-to-Buffer" style="stroke:#181818;stroke-width:1;"/><polygon fill="#181818" points="261.5,147.91,265.5,138.91,261.5,142.91,257.5,138.91,261.5,147.91" style="stroke:#181818;stroke-width:1;"/></g><!--link Buffer to Frame1--><g id="link_Buffer_Frame1"><path codeLine="38" d="M195.95,212.1 C172.38,226.8 148.24,246.75 134.5,272 C110.93,315.31 111.2374,366.8937 116.0974,406.9537 " fill="none" id="Buffer-to-Frame1" style="stroke:#181818;stroke-width:1;"/><polygon fill="#181818" points="116.82,412.91,119.707,403.4938,116.2178,407.9464,111.7652,404.4572,116.82,412.91" style="stroke:#181818;stroke-width:1;"/></g><!--link Buffer to Frame2--><g id="link_Buffer_Frame2"><path codeLine="39" d="M327.05,212.1 C350.62,226.8 374.76,246.75 388.5,272 C412.07,315.31 411.7626,366.8937 406.9026,406.9537 " fill="none" id="Buffer-to-Frame2" style="stroke:#181818;stroke-width:1;"/><polygon fill="#181818" points="406.18,412.91,411.2348,404.4572,406.7822,407.9464,403.293,403.4938,406.18,412.91" style="stroke:#181818;stroke-width:1;"/></g><!--link Frame1 to Pixeles--><g id="link_Frame1_Pixeles"><path codeLine="40" d="M136.86,510.23 C141.45,529.51 145.2991,545.6634 149.6791,564.0434 " fill="none" id="Frame1-to-Pixeles" style="stroke:#181818;stroke-width:1;"/><polygon fill="#181818" points="151.07,569.88,152.8747,560.1979,149.9109,565.0162,145.0927,562.0524,151.07,569.88" style="stroke:#181818;stroke-width:1;"/></g><!--link Frame1 to Colores_compuestos--><g id="link_Frame1_Colores_compuestos"><path codeLine="41" d="M207.62,510.02 C240.95,529.32 273.8269,548.3447 305.6569,566.7647 " fill="none" id="Frame1-to-Colores_compuestos" style="stroke:#181818;stroke-width:1;"/><polygon fill="#181818" points="310.85,569.77,305.0638,561.8,306.5224,567.2656,301.0568,568.7242,310.85,569.77" style="stroke:#181818;stroke-width:1;"/></g><!--link Frame2 to Pixeles--><g id="link_Frame2_Pixeles"><path codeLine="42" d="M320.88,510.02 C289.77,529.32 259.3485,548.1868 229.6585,566.6068 " fill="none" id="Frame2-to-Pixeles" style="stroke:#181818;stroke-width:1;"/><polygon fill="#181818" points="224.56,569.77,234.3165,568.4243,228.8087,567.134,230.0989,561.6263,224.56,569.77" style="stroke:#181818;stroke-width:1;"/></g><!--link Frame2 to Colores_compuestos--><g id="link_Frame2_Colores_compuestos"><path codeLine="43" d="M391.66,510.23 C389.29,529.51 387.3291,545.5445 385.0791,563.9245 " fill="none" id="Frame2-to-Colores_compuestos" style="stroke:#181818;stroke-width:1;"/><polygon fill="#181818" points="384.35,569.88,389.4139,561.4327,384.9575,564.917,381.4732,560.4607,384.35,569.88" style="stroke:#181818;stroke-width:1;"/></g><!--link Buffer to ResultadoVisual--><g id="link_Buffer_ResultadoVisual"><path codeLine="44" d="M261.5,212.26 C261.5,230.05 261.5,246.53 261.5,265.59 " fill="none" id="Buffer-to-ResultadoVisual" style="stroke:#181818;stroke-width:1;"/><polygon fill="#181818" points="261.5,271.59,265.5,262.59,261.5,266.59,257.5,262.59,261.5,271.59" style="stroke:#181818;stroke-width:1;"/></g><!--link ResultadoVisual to Frame1--><g id="link_ResultadoVisual_Frame1"><path codeLine="45" d="M224.7,353.28 C207.7,371.65 191.4646,389.1957 173.6646,408.4357 " fill="none" id="ResultadoVisual-to-Frame1" style="stroke:#181818;stroke-width:1;"/><polygon fill="#181818" points="169.59,412.84,178.6381,408.95,172.9855,409.1698,172.7658,403.5172,169.59,412.84" style="stroke:#181818;stroke-width:1;"/></g><!--link ResultadoVisual to Frame2--><g id="link_ResultadoVisual_Frame2"><path codeLine="46" d="M298.3,353.28 C315.3,371.65 331.5354,389.1957 349.3354,408.4357 " fill="none" id="ResultadoVisual-to-Frame2" style="stroke:#181818;stroke-width:1;"/><polygon fill="#181818" points="353.41,412.84,350.2342,403.5172,350.0145,409.1698,344.3619,408.95,353.41,412.84" style="stroke:#181818;stroke-width:1;"/></g><!--SRC=[jPBDQiCm48JlUWeT7UeSwWVeeN_dq48k8PIDid45Qwbe9IYKldiTUt65H4WlzSKmufkPNSaGCEiDk0X4eB-K7hyR_Hg3TRs6yNT8qRF8FSRd00DoirBVIfaPjfz8o0jhtY7izhjzHPFb28z8rY4C5btqloOFddn0VZD- -4Z88_H7Fm7pGbF5s-lynhCrrhjv914R6QVLfgfKPdJ_ct6VJYSCIyRWEGO8azCJOM-Flfb7RQLEgr-G4qKu-gtb19IP5IVNcu-L3jP1A38co-MzhDTtKbD9sxCo4vNIARcPio8hoANw3IXPSmLqbu0iivXObHl8cbuywdu0]--></g></svg>