<svg xmlns="http://www.w3.org/2000/svg" xmlns:xlink="http://www.w3.org/1999/xlink" contentStyleType="text/css" height="500px" preserveAspectRatio="none" style="width:616px;height:500px;background:#FFFFFF;" version="1.1" viewBox="0 0 616 500" width="616px" zoomAndPan="magnify"><defs/><g><!--class Pantalla--><g id="elem_Pantalla"><rect codeLine="1" fill="#F1F1F1" height="80.5938" id="Pantalla" rx="2.5" ry="2.5" style="stroke:#181818;stroke-width:0.5;" width="135.0537" x="7" y="148"/><ellipse cx="43.0296" cy="164" fill="#ADD1B2" rx="11" ry="11" style="stroke:#181818;stroke-width:1;"/><path d="M45.9983,169.6406 Q45.4202,169.9375 44.7796,170.0781 Q44.139,170.2344 43.4358,170.2344 Q40.9358,170.2344 39.6077,168.5938 Q38.2952,166.9375 38.2952,163.8125 Q38.2952,160.6875 39.6077,159.0313 Q40.9358,157.375 43.4358,157.375 Q44.139,157.375 44.7796,157.5313 Q45.4358,157.6875 45.9983,157.9844 L45.9983,160.7031 Q45.3733,160.125 44.7796,159.8594 Q44.1858,159.5781 43.5608,159.5781 Q42.2171,159.5781 41.5296,160.6563 Q40.8421,161.7188 40.8421,163.8125 Q40.8421,165.9063 41.5296,166.9844 Q42.2171,168.0469 43.5608,168.0469 Q44.1858,168.0469 44.7796,167.7813 Q45.3733,167.5 45.9983,166.9219 L45.9983,169.6406 Z " fill="#000000"/><text fill="#000000" font-family="sans-serif" font-size="14" lengthAdjust="spacing" textLength="56.3213" x="61.7028" y="168.8467">Pantalla</text><line style="stroke:#181818;stroke-width:0.5;" x1="8" x2="141.0537" y1="180" y2="180"/><rect fill="none" height="6" style="stroke:#C82930;stroke-width:1;" width="6" x="15" y="190.6484"/><text fill="#000000" font-family="sans-serif" font-size="14" lengthAdjust="spacing" textLength="109.0537" x="27" y="196.9951">String atributos</text><line style="stroke:#181818;stroke-width:0.5;" x1="8" x2="141.0537" y1="204.2969" y2="204.2969"/><ellipse cx="18" cy="217.9453" fill="#84BE84" rx="3" ry="3" style="stroke:#038048;stroke-width:1;"/><text fill="#000000" font-family="sans-serif" font-size="14" lengthAdjust="spacing" textLength="85.8457" x="27" y="221.292">getFrames()</text></g><!--class Pixel--><g id="elem_Pixel"><rect codeLine="6" fill="#F1F1F1" height="80.5938" id="Pixel" rx="2.5" ry="2.5" style="stroke:#181818;stroke-width:0.5;" width="146.0254" x="320.5" y="7"/><ellipse cx="372.7026" cy="23" fill="#ADD1B2" rx="11" ry="11" style="stroke:#181818;stroke-width:1;"/><path d="M375.6714,28.6406 Q375.0933,28.9375 374.4526,29.0781 Q373.812,29.2344 373.1089,29.2344 Q370.6089,29.2344 369.2808,27.5938 Q367.9683,25.9375 367.9683,22.8125 Q367.9683,19.6875 369.2808,18.0313 Q370.6089,16.375 373.1089,16.375 Q373.812,16.375 374.4526,16.5313 Q375.1089,16.6875 375.6714,16.9844 L375.6714,19.7031 Q375.0464,19.125 374.4526,18.8594 Q373.8589,18.5781 373.2339,18.5781 Q371.8901,18.5781 371.2026,19.6563 Q370.5151,20.7188 370.5151,22.8125 Q370.5151,24.9063 371.2026,25.9844 Q371.8901,27.0469 373.2339,27.0469 Q373.8589,27.0469 374.4526,26.7813 Q375.0464,26.5 375.6714,25.9219 L375.6714,28.6406 Z " fill="#000000"/><text fill="#000000" font-family="sans-serif" font-size="14" lengthAdjust="spacing" textLength="33.1201" x="393.2026" y="27.8467">Pixel</text><line style="stroke:#181818;stroke-width:0.5;" x1="321.5" x2="465.5254" y1="39" y2="39"/><rect fill="none" height="6" style="stroke:#C82930;stroke-width:1;" width="6" x="328.5" y="49.6484"/><text fill="#000000" font-family="sans-serif" font-size="14" lengthAdjust="spacing" textLength="120.0254" x="340.5" y="55.9951">char[][] atributos</text><line style="stroke:#181818;stroke-width:0.5;" x1="321.5" x2="465.5254" y1="63.2969" y2="63.2969"/><ellipse cx="331.5" cy="76.9453" fill="#84BE84" rx="3" ry="3" style="stroke:#038048;stroke-width:1;"/><text fill="#000000" font-family="sans-serif" font-size="14" lengthAdjust="spacing" textLength="117.7969" x="340.5" y="80.292">ListaElementos()</text></g><!--class Frame1--><g id="elem_Frame1"><rect codeLine="11" fill="#F1F1F1" height="80.5938" id="Frame1" rx="2.5" ry="2.5" style="stroke:#181818;stroke-width:0.5;" width="198.5869" x="177" y="148"/><ellipse cx="245.2705" cy="164" fill="#ADD1B2" rx="11" ry="11" style="stroke:#181818;stroke-width:1;"/><path d="M248.2393,169.6406 Q247.6611,169.9375 247.0205,170.0781 Q246.3799,170.2344 245.6768,170.2344 Q243.1768,170.2344 241.8486,168.5938 Q240.5361,166.9375 240.5361,163.8125 Q240.5361,160.6875 241.8486,159.0313 Q243.1768,157.375 245.6768,157.375 Q246.3799,157.375 247.0205,157.5313 Q247.6768,157.6875 248.2393,157.9844 L248.2393,160.7031 Q247.6143,160.125 247.0205,159.8594 Q246.4268,159.5781 245.8018,159.5781 Q244.458,159.5781 243.7705,160.6563 Q243.083,161.7188 243.083,163.8125 Q243.083,165.9063 243.7705,166.9844 Q244.458,168.0469 245.8018,168.0469 Q246.4268,168.0469 247.0205,167.7813 Q247.6143,167.5 248.2393,166.9219 L248.2393,169.6406 Z " fill="#000000"/><text fill="#000000" font-family="sans-serif" font-size="14" lengthAdjust="spacing" textLength="53.5459" x="265.7705" y="168.8467">Frame1</text><line style="stroke:#181818;stroke-width:0.5;" x1="178" x2="374.5869" y1="180" y2="180"/><rect fill="none" height="6" style="stroke:#C82930;stroke-width:1;" width="6" x="185" y="190.6484"/><text fill="#000000" font-family="sans-serif" font-size="14" lengthAdjust="spacing" textLength="120.0254" x="197" y="196.9951">char[][] atributos</text><line style="stroke:#181818;stroke-width:0.5;" x1="178" x2="374.5869" y1="204.2969" y2="204.2969"/><ellipse cx="188" cy="217.9453" fill="#84BE84" rx="3" ry="3" style="stroke:#038048;stroke-width:1;"/><text fill="#000000" font-family="sans-serif" font-size="14" lengthAdjust="spacing" textLength="172.5869" x="197" y="221.292">PosicionDeFrames(Pixel)</text></g><!--class Frame2--><g id="elem_Frame2"><rect codeLine="16" fill="#F1F1F1" height="80.5938" id="Frame2" rx="2.5" ry="2.5" style="stroke:#181818;stroke-width:0.5;" width="198.5869" x="411" y="148"/><ellipse cx="479.2705" cy="164" fill="#ADD1B2" rx="11" ry="11" style="stroke:#181818;stroke-width:1;"/><path d="M482.2393,169.6406 Q481.6611,169.9375 481.0205,170.0781 Q480.3799,170.2344 479.6768,170.2344 Q477.1768,170.2344 475.8486,168.5938 Q474.5361,166.9375 474.5361,163.8125 Q474.5361,160.6875 475.8486,159.0313 Q477.1768,157.375 479.6768,157.375 Q480.3799,157.375 481.0205,157.5313 Q481.6768,157.6875 482.2393,157.9844 L482.2393,160.7031 Q481.6143,160.125 481.0205,159.8594 Q480.4268,159.5781 479.8018,159.5781 Q478.458,159.5781 477.7705,160.6563 Q477.083,161.7188 477.083,163.8125 Q477.083,165.9063 477.7705,166.9844 Q478.458,168.0469 479.8018,168.0469 Q480.4268,168.0469 481.0205,167.7813 Q481.6143,167.5 482.2393,166.9219 L482.2393,169.6406 Z " fill="#000000"/><text fill="#000000" font-family="sans-serif" font-size="14" lengthAdjust="spacing" textLength="53.5459" x="499.7705" y="168.8467">Frame2</text><line style="stroke:#181818;stroke-width:0.5;" x1="412" x2="608.5869" y1="180" y2="180"/><rect fill="none" height="6" style="stroke:#C82930;stroke-width:1;" width="6" x="419" y="190.6484"/><text fill="#000000" font-family="sans-serif" font-size="14" lengthAdjust="spacing" textLength="120.0254" x="431" y="196.9951">char[][] atributos</text><line style="stroke:#181818;stroke-width:0.5;" x1="412" x2="608.5869" y1="204.2969" y2="204.2969"/><ellipse cx="422" cy="217.9453" fill="#84BE84" rx="3" ry="3" style="stroke:#038048;stroke-width:1;"/><text fill="#000000" font-family="sans-serif" font-size="14" lengthAdjust="spacing" textLength="172.5869" x="431" y="221.292">PosicionDeFrames(Pixel)</text></g><!--class Buffer--><g id="elem_Buffer"><rect codeLine="21" fill="#F1F1F1" height="64.2969" id="Buffer" rx="2.5" ry="2.5" style="stroke:#181818;stroke-width:0.5;" width="381.4688" x="86" y="289"/><ellipse cx="251.1323" cy="305" fill="#ADD1B2" rx="11" ry="11" style="stroke:#181818;stroke-width:1;"/><path d="M254.1011,310.6406 Q253.5229,310.9375 252.8823,311.0781 Q252.2417,311.2344 251.5386,311.2344 Q249.0386,311.2344 247.7104,309.5938 Q246.3979,307.9375 246.3979,304.8125 Q246.3979,301.6875 247.7104,300.0313 Q249.0386,298.375 251.5386,298.375 Q252.2417,298.375 252.8823,298.5313 Q253.5386,298.6875 254.1011,298.9844 L254.1011,301.7031 Q253.4761,301.125 252.8823,300.8594 Q252.2886,300.5781 251.6636,300.5781 Q250.3198,300.5781 249.6323,301.6563 Q248.9448,302.7188 248.9448,304.8125 Q248.9448,306.9063 249.6323,307.9844 Q250.3198,309.0469 251.6636,309.0469 Q252.2886,309.0469 252.8823,308.7813 Q253.4761,308.5 254.1011,307.9219 L254.1011,310.6406 Z " fill="#000000"/><text fill="#000000" font-family="sans-serif" font-size="14" lengthAdjust="spacing" textLength="42.7041" x="271.6323" y="309.8467">Buffer</text><line style="stroke:#181818;stroke-width:0.5;" x1="87" x2="466.4688" y1="321" y2="321"/><line style="stroke:#181818;stroke-width:0.5;" x1="87" x2="466.4688" y1="329" y2="329"/><ellipse cx="97" cy="342.6484" fill="#84BE84" rx="3" ry="3" style="stroke:#038048;stroke-width:1;"/><text fill="#000000" font-family="sans-serif" font-size="14" lengthAdjust="spacing" textLength="355.4688" x="106" y="345.9951">MostrarFrameElegido(Frame1, Frame2, Resultado)</text></g><!--class Resultado--><g id="elem_Resultado"><rect codeLine="25" fill="#F1F1F1" height="80.5938" id="Resultado" rx="2.5" ry="2.5" style="stroke:#181818;stroke-width:0.5;" width="218.8008" x="167" y="413"/><ellipse cx="237.1914" cy="429" fill="#ADD1B2" rx="11" ry="11" style="stroke:#181818;stroke-width:1;"/><path d="M240.1602,434.6406 Q239.582,434.9375 238.9414,435.0781 Q238.3008,435.2344 237.5977,435.2344 Q235.0977,435.2344 233.7695,433.5938 Q232.457,431.9375 232.457,428.8125 Q232.457,425.6875 233.7695,424.0313 Q235.0977,422.375 237.5977,422.375 Q238.3008,422.375 238.9414,422.5313 Q239.5977,422.6875 240.1602,422.9844 L240.1602,425.7031 Q239.5352,425.125 238.9414,424.8594 Q238.3477,424.5781 237.7227,424.5781 Q236.3789,424.5781 235.6914,425.6563 Q235.0039,426.7188 235.0039,428.8125 Q235.0039,430.9063 235.6914,431.9844 Q236.3789,433.0469 237.7227,433.0469 Q238.3477,433.0469 238.9414,432.7813 Q239.5352,432.5 240.1602,431.9219 L240.1602,434.6406 Z " fill="#000000"/><text fill="#000000" font-family="sans-serif" font-size="14" lengthAdjust="spacing" textLength="69.918" x="257.6914" y="433.8467">Resultado</text><line style="stroke:#181818;stroke-width:0.5;" x1="168" x2="384.8008" y1="445" y2="445"/><rect fill="none" height="6" style="stroke:#C82930;stroke-width:1;" width="6" x="175" y="455.6484"/><text fill="#000000" font-family="sans-serif" font-size="14" lengthAdjust="spacing" textLength="120.0254" x="187" y="461.9951">char[][] atributos</text><line style="stroke:#181818;stroke-width:0.5;" x1="168" x2="384.8008" y1="469.2969" y2="469.2969"/><ellipse cx="178" cy="482.9453" fill="#84BE84" rx="3" ry="3" style="stroke:#038048;stroke-width:1;"/><text fill="#000000" font-family="sans-serif" font-size="14" lengthAdjust="spacing" textLength="192.8008" x="187" y="486.292">combinar(Frame1, Frame2)</text></g><!--link Pantalla to Buffer--><g id="link_Pantalla_Buffer"><path codeLine="30" d="M135.65,229.01 C165.38,248.21 195.5505,267.7037 223.3305,285.6537 " fill="none" id="Pantalla-to-Buffer" style="stroke:#181818;stroke-width:1;"/><polygon fill="#181818" points="228.37,288.91,222.9816,280.6659,224.1704,286.1964,218.6399,287.3853,228.37,288.91" style="stroke:#181818;stroke-width:1;"/></g><!--link Pixel to Frame1--><g id="link_Pixel_Frame1"><path codeLine="31" d="M359.97,88.33 C344.31,106.94 329.5646,124.4603 313.8946,143.0703 " fill="none" id="Pixel-to-Frame1" style="stroke:#181818;stroke-width:1;"/><polygon fill="#181818" points="310.03,147.66,318.8867,143.3519,313.2505,143.8353,312.7671,138.1991,310.03,147.66" style="stroke:#181818;stroke-width:1;"/></g><!--link Pixel to Frame2--><g id="link_Pixel_Frame2"><path codeLine="32" d="M427.03,88.33 C442.69,106.94 457.4354,124.4603 473.1054,143.0703 " fill="none" id="Pixel-to-Frame2" style="stroke:#181818;stroke-width:1;"/><polygon fill="#181818" points="476.97,147.66,474.2329,138.1991,473.7495,143.8353,468.1133,143.3519,476.97,147.66" style="stroke:#181818;stroke-width:1;"/></g><!--link Frame1 to Buffer--><g id="link_Frame1_Buffer"><path codeLine="33" d="M276.5,229.01 C276.5,248.21 276.5,264.96 276.5,282.91 " fill="none" id="Frame1-to-Buffer" style="stroke:#181818;stroke-width:1;"/><polygon fill="#181818" points="276.5,288.91,280.5,279.91,276.5,283.91,272.5,279.91,276.5,288.91" style="stroke:#181818;stroke-width:1;"/></g><!--link Frame2 to Buffer--><g id="link_Frame2_Buffer"><path codeLine="34" d="M439.66,229.01 C405.22,248.21 369.6699,268.0372 337.4899,285.9872 " fill="none" id="Frame2-to-Buffer" style="stroke:#181818;stroke-width:1;"/><polygon fill="#181818" points="332.25,288.91,342.0585,288.019,336.6166,286.4743,338.1614,281.0324,332.25,288.91" style="stroke:#181818;stroke-width:1;"/></g><!--link Buffer to Resultado--><g id="link_Buffer_Resultado"><path codeLine="35" d="M265.43,353.26 C263.49,371.05 262.7842,387.5466 264.2042,406.6066 " fill="none" id="Buffer-to-Resultado" style="stroke:#181818;stroke-width:1;"/><polygon fill="#181818" points="264.65,412.59,267.9703,403.3177,264.2785,407.6038,259.9924,403.9121,264.65,412.59" style="stroke:#181818;stroke-width:1;"/></g><!--link Resultado to Buffer--><g id="link_Resultado_Buffer"><path codeLine="36" d="M289.05,412.59 C290.55,393.53 290.9569,377.0106 288.9069,359.2206 " fill="none" id="Resultado-to-Buffer" style="stroke:#181818;stroke-width:1;"/><polygon fill="#181818" points="288.22,353.26,285.2766,362.6587,288.7924,358.2271,293.224,361.7429,288.22,353.26" style="stroke:#181818;stroke-width:1;"/></g><!--SRC=[hP6n2eCm48RtF4L6YphK1-XGsaujI3kAmncZ3SG4aWY5qdUl9Y46ExWqI-3d_k_-koCSjCOb20ES0tuZFBqSFunYeiSmVSrefBPoYdjgBWe6gfCT-Y14d9czA0zEyWHLrLNzuxqoRU3CwK359CO0Yznl4qgf6M5IdAWFOJklGSKVGCUnwwZoe1JVf3OAb2sU9kXPAnCNElCzCtodUkG6MXbXWhOTYSYXOGBKYcjXuJfvVl3Ha5lwB3Z3MYYGtshayUk953_dh8IiQ4czL7u1]--></g></svg>