<svg xmlns="http://www.w3.org/2000/svg" xmlns:xlink="http://www.w3.org/1999/xlink" contentStyleType="text/css" data-diagram-type="CLASS" height="1362px" preserveAspectRatio="none" style="width:429px;height:1362px;background:#FFFFFF;" version="1.1" viewBox="0 0 429 1362" width="429px" zoomAndPan="magnify"><defs/><g><!--class Cola--><g id="elem_Cola"><rect codeLine="1" fill="#F1F1F1" height="178.375" id="Cola" rx="2.5" ry="2.5" style="stroke:#181818;stroke-width:0.5;" width="222.9502" x="49.73" y="480.67"/><ellipse cx="141.5503" cy="496.67" fill="#ADD1B2" rx="11" ry="11" style="stroke:#181818;stroke-width:1;"/><path d="M144.5191,502.3106 Q143.9409,502.6075 143.3003,502.7481 Q142.6597,502.9044 141.9566,502.9044 Q139.4566,502.9044 138.1284,501.2637 Q136.8159,499.6075 136.8159,496.4825 Q136.8159,493.3575 138.1284,491.7012 Q139.4566,490.045 141.9566,490.045 Q142.6597,490.045 143.3003,490.2012 Q143.9566,490.3575 144.5191,490.6544 L144.5191,493.3731 Q143.8941,492.795 143.3003,492.5294 Q142.7066,492.2481 142.0816,492.2481 Q140.7378,492.2481 140.0503,493.3262 Q139.3628,494.3887 139.3628,496.4825 Q139.3628,498.5762 140.0503,499.6544 Q140.7378,500.7169 142.0816,500.7169 Q142.7066,500.7169 143.3003,500.4512 Q143.8941,500.17 144.5191,499.5919 L144.5191,502.3106 Z " fill="#000000"/><text fill="#000000" font-family="sans-serif" font-size="14" lengthAdjust="spacing" textLength="30.8096" x="162.0503" y="501.5167">Cola</text><line style="stroke:#181818;stroke-width:0.5;" x1="50.73" x2="271.6802" y1="512.67" y2="512.67"/><rect fill="#FFFFFF" fill-opacity="0.00000" height="6" style="stroke:#C82930;stroke-width:1;" width="6" x="57.73" y="523.3184"/><text fill="#000000" font-family="sans-serif" font-size="14" lengthAdjust="spacing" textLength="140.6836" x="69.73" y="529.6651">NodoFrame primero</text><rect fill="#FFFFFF" fill-opacity="0.00000" height="6" style="stroke:#C82930;stroke-width:1;" width="6" x="57.73" y="539.6153"/><text fill="#000000" font-family="sans-serif" font-size="14" lengthAdjust="spacing" textLength="129.9238" x="69.73" y="545.962">NodoFrame ultimo</text><rect fill="#FFFFFF" fill-opacity="0.00000" height="6" style="stroke:#C82930;stroke-width:1;" width="6" x="57.73" y="555.9122"/><text fill="#000000" font-family="sans-serif" font-size="14" lengthAdjust="spacing" textLength="76.4258" x="69.73" y="562.2589">int tama&#241;o</text><line style="stroke:#181818;stroke-width:0.5;" x1="50.73" x2="271.6802" y1="569.5606" y2="569.5606"/><ellipse cx="60.73" cy="583.2091" fill="#84BE84" rx="3" ry="3" style="stroke:#038048;stroke-width:1;"/><text fill="#000000" font-family="sans-serif" font-size="14" lengthAdjust="spacing" textLength="41.7334" x="69.73" y="586.5557">Cola()</text><ellipse cx="60.73" cy="599.5059" fill="#84BE84" rx="3" ry="3" style="stroke:#038048;stroke-width:1;"/><text fill="#000000" font-family="sans-serif" font-size="14" lengthAdjust="spacing" textLength="196.9502" x="69.73" y="602.8526">void enqueue(Frame frame)</text><ellipse cx="60.73" cy="615.8028" fill="#84BE84" rx="3" ry="3" style="stroke:#038048;stroke-width:1;"/><text fill="#000000" font-family="sans-serif" font-size="14" lengthAdjust="spacing" textLength="157.0762" x="69.73" y="619.1495">Frame[] desenqueue()</text><ellipse cx="60.73" cy="632.0997" fill="#84BE84" rx="3" ry="3" style="stroke:#038048;stroke-width:1;"/><text fill="#000000" font-family="sans-serif" font-size="14" lengthAdjust="spacing" textLength="105.1572" x="69.73" y="635.4464">Frame[] peek()</text><rect fill="#F24D5C" height="6" style="stroke:#C82930;stroke-width:1;" width="6" x="57.73" y="645.3966"/><text fill="#000000" font-family="sans-serif" font-size="14" lengthAdjust="spacing" textLength="185.3975" x="69.73" y="651.7432">boolean tieneDosFrames()</text></g><!--class NodoFrame--><g id="elem_NodoFrame"><rect codeLine="12" fill="#F1F1F1" height="145.7813" id="NodoFrame" rx="2.5" ry="2.5" style="stroke:#181818;stroke-width:0.5;" width="308.4131" x="7" y="720.05"/><ellipse cx="116.3921" cy="736.05" fill="#ADD1B2" rx="11" ry="11" style="stroke:#181818;stroke-width:1;"/><path d="M119.3608,741.6906 Q118.7827,741.9875 118.1421,742.1281 Q117.5015,742.2844 116.7983,742.2844 Q114.2983,742.2844 112.9702,740.6438 Q111.6577,738.9875 111.6577,735.8625 Q111.6577,732.7375 112.9702,731.0813 Q114.2983,729.425 116.7983,729.425 Q117.5015,729.425 118.1421,729.5813 Q118.7983,729.7375 119.3608,730.0344 L119.3608,732.7531 Q118.7358,732.175 118.1421,731.9094 Q117.5483,731.6281 116.9233,731.6281 Q115.5796,731.6281 114.8921,732.7063 Q114.2046,733.7688 114.2046,735.8625 Q114.2046,737.9563 114.8921,739.0344 Q115.5796,740.0969 116.9233,740.0969 Q117.5483,740.0969 118.1421,739.8313 Q118.7358,739.55 119.3608,738.9719 L119.3608,741.6906 Z " fill="#000000"/><text fill="#000000" font-family="sans-serif" font-size="14" lengthAdjust="spacing" textLength="81.1289" x="136.8921" y="740.8967">NodoFrame</text><line style="stroke:#181818;stroke-width:0.5;" x1="8" x2="314.4131" y1="752.05" y2="752.05"/><rect fill="#FFFFFF" fill-opacity="0.00000" height="6" style="stroke:#C82930;stroke-width:1;" width="6" x="15" y="762.6984"/><text fill="#000000" font-family="sans-serif" font-size="14" lengthAdjust="spacing" textLength="90.6035" x="27" y="769.0451">Frame frame</text><rect fill="#FFFFFF" fill-opacity="0.00000" height="6" style="stroke:#C82930;stroke-width:1;" width="6" x="15" y="778.9953"/><text fill="#000000" font-family="sans-serif" font-size="14" lengthAdjust="spacing" textLength="150.001" x="27" y="785.342">NodoFrame siguiente</text><line style="stroke:#181818;stroke-width:0.5;" x1="8" x2="314.4131" y1="792.6438" y2="792.6438"/><ellipse cx="18" cy="806.2922" fill="#84BE84" rx="3" ry="3" style="stroke:#038048;stroke-width:1;"/><text fill="#000000" font-family="sans-serif" font-size="14" lengthAdjust="spacing" textLength="182.6563" x="27" y="809.6389">NodoFrame(Frame frame)</text><ellipse cx="18" cy="822.5891" fill="#84BE84" rx="3" ry="3" style="stroke:#038048;stroke-width:1;"/><text fill="#000000" font-family="sans-serif" font-size="14" lengthAdjust="spacing" textLength="127.6406" x="27" y="825.9357">Frame getFrame()</text><ellipse cx="18" cy="838.8859" fill="#84BE84" rx="3" ry="3" style="stroke:#038048;stroke-width:1;"/><text fill="#000000" font-family="sans-serif" font-size="14" lengthAdjust="spacing" textLength="185.5068" x="27" y="842.2326">NodoFrame getSiguiente()</text><ellipse cx="18" cy="855.1828" fill="#84BE84" rx="3" ry="3" style="stroke:#038048;stroke-width:1;"/><text fill="#000000" font-family="sans-serif" font-size="14" lengthAdjust="spacing" textLength="282.4131" x="27" y="858.5295">void setSiguiente(NodoFrame siguiente)</text></g><!--class Frame--><g id="elem_Frame"><rect codeLine="21" fill="#F1F1F1" height="113.1875" id="Frame" rx="2.5" ry="2.5" style="stroke:#181818;stroke-width:0.5;" width="206.2637" x="58.07" y="926.83"/><ellipse cx="134.6325" cy="942.83" fill="#ADD1B2" rx="11" ry="11" style="stroke:#181818;stroke-width:1;"/><path d="M137.6013,948.4706 Q137.0231,948.7675 136.3825,948.9081 Q135.7419,949.0644 135.0388,949.0644 Q132.5388,949.0644 131.2106,947.4237 Q129.8981,945.7675 129.8981,942.6425 Q129.8981,939.5175 131.2106,937.8612 Q132.5388,936.205 135.0388,936.205 Q135.7419,936.205 136.3825,936.3612 Q137.0388,936.5175 137.6013,936.8144 L137.6013,939.5331 Q136.9763,938.955 136.3825,938.6894 Q135.7888,938.4081 135.1638,938.4081 Q133.82,938.4081 133.1325,939.4862 Q132.445,940.5487 132.445,942.6425 Q132.445,944.7362 133.1325,945.8144 Q133.82,946.8769 135.1638,946.8769 Q135.7888,946.8769 136.3825,946.6112 Q136.9763,946.33 137.6013,945.7519 L137.6013,948.4706 Z " fill="#000000"/><text fill="#000000" font-family="sans-serif" font-size="14" lengthAdjust="spacing" textLength="44.6387" x="155.1325" y="947.6767">Frame</text><line style="stroke:#181818;stroke-width:0.5;" x1="59.07" x2="263.3337" y1="958.83" y2="958.83"/><rect fill="#FFFFFF" fill-opacity="0.00000" height="6" style="stroke:#C82930;stroke-width:1;" width="6" x="66.07" y="969.4784"/><text fill="#000000" font-family="sans-serif" font-size="14" lengthAdjust="spacing" textLength="108.8896" x="78.07" y="975.8251">Pixel[][] pixeles</text><line style="stroke:#181818;stroke-width:0.5;" x1="59.07" x2="263.3337" y1="983.1269" y2="983.1269"/><ellipse cx="69.07" cy="996.7753" fill="#84BE84" rx="3" ry="3" style="stroke:#038048;stroke-width:1;"/><text fill="#000000" font-family="sans-serif" font-size="14" lengthAdjust="spacing" textLength="55.5625" x="78.07" y="1000.122">Frame()</text><ellipse cx="69.07" cy="1013.0722" fill="#84BE84" rx="3" ry="3" style="stroke:#038048;stroke-width:1;"/><text fill="#000000" font-family="sans-serif" font-size="14" lengthAdjust="spacing" textLength="147.998" x="78.07" y="1016.4189">void rellenarPixeles()</text><ellipse cx="69.07" cy="1029.3691" fill="#84BE84" rx="3" ry="3" style="stroke:#038048;stroke-width:1;"/><text fill="#000000" font-family="sans-serif" font-size="14" lengthAdjust="spacing" textLength="180.2637" x="78.07" y="1032.7157">Pixel[][] devolverPixeles()</text></g><!--class Pixel--><g id="elem_Pixel"><rect codeLine="28" fill="#F1F1F1" height="96.8906" id="Pixel" rx="2.5" ry="2.5" style="stroke:#181818;stroke-width:0.5;" width="175.3721" x="73.52" y="1101.02"/><ellipse cx="140.396" cy="1117.02" fill="#ADD1B2" rx="11" ry="11" style="stroke:#181818;stroke-width:1;"/><path d="M143.3647,1122.6606 Q142.7866,1122.9575 142.146,1123.0981 Q141.5054,1123.2544 140.8022,1123.2544 Q138.3022,1123.2544 136.9741,1121.6138 Q135.6616,1119.9575 135.6616,1116.8325 Q135.6616,1113.7075 136.9741,1112.0513 Q138.3022,1110.395 140.8022,1110.395 Q141.5054,1110.395 142.146,1110.5513 Q142.8022,1110.7075 143.3647,1111.0044 L143.3647,1113.7231 Q142.7397,1113.145 142.146,1112.8794 Q141.5522,1112.5981 140.9272,1112.5981 Q139.5835,1112.5981 138.896,1113.6763 Q138.2085,1114.7388 138.2085,1116.8325 Q138.2085,1118.9263 138.896,1120.0044 Q139.5835,1121.0669 140.9272,1121.0669 Q141.5522,1121.0669 142.146,1120.8013 Q142.7397,1120.52 143.3647,1119.9419 L143.3647,1122.6606 Z " fill="#000000"/><text fill="#000000" font-family="sans-serif" font-size="14" lengthAdjust="spacing" textLength="33.1201" x="160.896" y="1121.8667">Pixel</text><line style="stroke:#181818;stroke-width:0.5;" x1="74.52" x2="247.8921" y1="1133.02" y2="1133.02"/><rect fill="#FFFFFF" fill-opacity="0.00000" height="6" style="stroke:#C82930;stroke-width:1;" width="6" x="81.52" y="1143.6684"/><text fill="#000000" font-family="sans-serif" font-size="14" lengthAdjust="spacing" textLength="75.4756" x="93.52" y="1150.0151">Color color</text><line style="stroke:#181818;stroke-width:0.5;" x1="74.52" x2="247.8921" y1="1157.3169" y2="1157.3169"/><ellipse cx="84.52" cy="1170.9653" fill="#84BE84" rx="3" ry="3" style="stroke:#038048;stroke-width:1;"/><text fill="#000000" font-family="sans-serif" font-size="14" lengthAdjust="spacing" textLength="44.0439" x="93.52" y="1174.312">Pixel()</text><ellipse cx="84.52" cy="1187.2622" fill="#84BE84" rx="3" ry="3" style="stroke:#038048;stroke-width:1;"/><text fill="#000000" font-family="sans-serif" font-size="14" lengthAdjust="spacing" textLength="149.3721" x="93.52" y="1190.6089">Color devolverColor()</text></g><!--class Color--><g id="elem_Color"><rect codeLine="34" fill="#F1F1F1" height="96.8906" id="Color" rx="2.5" ry="2.5" style="stroke:#181818;stroke-width:0.5;" width="242.6445" x="39.88" y="1258.91"/><ellipse cx="138.6764" cy="1274.91" fill="#ADD1B2" rx="11" ry="11" style="stroke:#181818;stroke-width:1;"/><path d="M141.6451,1280.5506 Q141.067,1280.8475 140.4264,1280.9881 Q139.7858,1281.1444 139.0826,1281.1444 Q136.5826,1281.1444 135.2545,1279.5037 Q133.942,1277.8475 133.942,1274.7225 Q133.942,1271.5975 135.2545,1269.9412 Q136.5826,1268.285 139.0826,1268.285 Q139.7858,1268.285 140.4264,1268.4412 Q141.0826,1268.5975 141.6451,1268.8944 L141.6451,1271.6131 Q141.0201,1271.035 140.4264,1270.7694 Q139.8326,1270.4881 139.2076,1270.4881 Q137.8639,1270.4881 137.1764,1271.5662 Q136.4889,1272.6287 136.4889,1274.7225 Q136.4889,1276.8162 137.1764,1277.8944 Q137.8639,1278.9569 139.2076,1278.9569 Q139.8326,1278.9569 140.4264,1278.6912 Q141.0201,1278.41 141.6451,1277.8319 L141.6451,1280.5506 Z " fill="#000000"/><text fill="#000000" font-family="sans-serif" font-size="14" lengthAdjust="spacing" textLength="36.5518" x="159.1764" y="1279.7567">Color</text><line style="stroke:#181818;stroke-width:0.5;" x1="40.88" x2="281.5245" y1="1290.91" y2="1290.91"/><rect fill="#FFFFFF" fill-opacity="0.00000" height="6" style="stroke:#C82930;stroke-width:1;" width="6" x="47.88" y="1301.5584"/><text fill="#000000" font-family="sans-serif" font-size="14" lengthAdjust="spacing" textLength="140.8545" x="59.88" y="1307.9051">char representacion</text><line style="stroke:#181818;stroke-width:0.5;" x1="40.88" x2="281.5245" y1="1315.2069" y2="1315.2069"/><ellipse cx="50.88" cy="1328.8553" fill="#84BE84" rx="3" ry="3" style="stroke:#038048;stroke-width:1;"/><text fill="#000000" font-family="sans-serif" font-size="14" lengthAdjust="spacing" textLength="47.4756" x="59.88" y="1332.202">Color()</text><ellipse cx="50.88" cy="1345.1522" fill="#84BE84" rx="3" ry="3" style="stroke:#038048;stroke-width:1;"/><text fill="#000000" font-family="sans-serif" font-size="14" lengthAdjust="spacing" textLength="216.6445" x="59.88" y="1348.4989">char devolverRepresentacion()</text></g><!--class Grafica--><g id="elem_Grafica"><rect codeLine="40" fill="#F1F1F1" height="129.4844" id="Grafica" rx="2.5" ry="2.5" style="stroke:#181818;stroke-width:0.5;" width="236.4033" x="43" y="290.19"/><ellipse cx="131.8125" cy="306.19" fill="#ADD1B2" rx="11" ry="11" style="stroke:#181818;stroke-width:1;"/><path d="M134.7813,311.8306 Q134.2031,312.1275 133.5625,312.2681 Q132.9219,312.4244 132.2188,312.4244 Q129.7188,312.4244 128.3906,310.7838 Q127.0781,309.1275 127.0781,306.0025 Q127.0781,302.8775 128.3906,301.2213 Q129.7188,299.565 132.2188,299.565 Q132.9219,299.565 133.5625,299.7213 Q134.2188,299.8775 134.7813,300.1744 L134.7813,302.8931 Q134.1563,302.315 133.5625,302.0494 Q132.9688,301.7681 132.3438,301.7681 Q131,301.7681 130.3125,302.8463 Q129.625,303.9088 129.625,306.0025 Q129.625,308.0963 130.3125,309.1744 Q131,310.2369 132.3438,310.2369 Q132.9688,310.2369 133.5625,309.9713 Q134.1563,309.69 134.7813,309.1119 L134.7813,311.8306 Z " fill="#000000"/><text fill="#000000" font-family="sans-serif" font-size="14" lengthAdjust="spacing" textLength="50.2783" x="152.3125" y="311.0367">Grafica</text><line style="stroke:#181818;stroke-width:0.5;" x1="44" x2="278.4033" y1="322.19" y2="322.19"/><rect fill="#FFFFFF" fill-opacity="0.00000" height="6" style="stroke:#C82930;stroke-width:1;" width="6" x="51" y="332.8384"/><text fill="#000000" font-family="sans-serif" font-size="14" lengthAdjust="spacing" textLength="107.3721" x="63" y="339.1851">final int tasaHZ</text><rect fill="#FFFFFF" fill-opacity="0.00000" height="6" style="stroke:#C82930;stroke-width:1;" width="6" x="51" y="349.1353"/><text fill="#000000" font-family="sans-serif" font-size="14" lengthAdjust="spacing" textLength="115.9238" x="63" y="355.482">Cola colaFrames</text><line style="stroke:#181818;stroke-width:0.5;" x1="44" x2="278.4033" y1="362.7838" y2="362.7838"/><ellipse cx="54" cy="376.4322" fill="#84BE84" rx="3" ry="3" style="stroke:#038048;stroke-width:1;"/><text fill="#000000" font-family="sans-serif" font-size="14" lengthAdjust="spacing" textLength="61.2021" x="63" y="379.7789">Grafica()</text><rect fill="#F24D5C" height="6" style="stroke:#C82930;stroke-width:1;" width="6" x="51" y="389.7291"/><text fill="#000000" font-family="sans-serif" font-size="14" lengthAdjust="spacing" textLength="152.0107" x="63" y="396.0757">void generarFrames()</text><ellipse cx="54" cy="409.0259" fill="#84BE84" rx="3" ry="3" style="stroke:#038048;stroke-width:1;"/><text fill="#000000" font-family="sans-serif" font-size="14" lengthAdjust="spacing" textLength="210.4033" x="63" y="412.3726">Frame[] devolverDosFrames()</text></g><!--class Pantalla--><g id="elem_Pantalla"><rect codeLine="48" fill="#F1F1F1" height="96.8906" id="Pantalla" rx="2.5" ry="2.5" style="stroke:#181818;stroke-width:0.5;" width="134.8213" x="93.8" y="132.3"/><ellipse cx="129.725" cy="148.3" fill="#ADD1B2" rx="11" ry="11" style="stroke:#181818;stroke-width:1;"/><path d="M132.6938,153.9406 Q132.1156,154.2375 131.475,154.3781 Q130.8344,154.5344 130.1313,154.5344 Q127.6313,154.5344 126.3031,152.8937 Q124.9906,151.2375 124.9906,148.1125 Q124.9906,144.9875 126.3031,143.3312 Q127.6313,141.675 130.1313,141.675 Q130.8344,141.675 131.475,141.8312 Q132.1313,141.9875 132.6938,142.2844 L132.6938,145.0031 Q132.0688,144.425 131.475,144.1594 Q130.8813,143.8781 130.2563,143.8781 Q128.9125,143.8781 128.225,144.9562 Q127.5375,146.0187 127.5375,148.1125 Q127.5375,150.2062 128.225,151.2844 Q128.9125,152.3469 130.2563,152.3469 Q130.8813,152.3469 131.475,152.0812 Q132.0688,151.8 132.6938,151.2219 L132.6938,153.9406 Z " fill="#000000"/><text fill="#000000" font-family="sans-serif" font-size="14" lengthAdjust="spacing" textLength="56.3213" x="148.375" y="153.1467">Pantalla</text><line style="stroke:#181818;stroke-width:0.5;" x1="94.8" x2="227.6213" y1="164.3" y2="164.3"/><rect fill="#FFFFFF" fill-opacity="0.00000" height="6" style="stroke:#C82930;stroke-width:1;" width="6" x="101.8" y="174.9484"/><text fill="#000000" font-family="sans-serif" font-size="14" lengthAdjust="spacing" textLength="108.8213" x="113.8" y="181.2951">Frame[] frames</text><rect fill="#FFFFFF" fill-opacity="0.00000" height="6" style="stroke:#C82930;stroke-width:1;" width="6" x="101.8" y="191.2453"/><text fill="#000000" font-family="sans-serif" font-size="14" lengthAdjust="spacing" textLength="103.0449" x="113.8" y="197.592">Grafica grafica</text><line style="stroke:#181818;stroke-width:0.5;" x1="94.8" x2="227.6213" y1="204.8937" y2="204.8937"/><ellipse cx="104.8" cy="218.5422" fill="#84BE84" rx="3" ry="3" style="stroke:#038048;stroke-width:1;"/><text fill="#000000" font-family="sans-serif" font-size="14" lengthAdjust="spacing" textLength="100.0781" x="113.8" y="221.8889">void mostrar()</text></g><!--class Main--><g id="elem_Main"><rect codeLine="54" fill="#F1F1F1" height="64.2969" id="Main" rx="2.5" ry="2.5" style="stroke:#181818;stroke-width:0.5;" width="159.5742" x="81.42" y="7"/><ellipse cx="140.2467" cy="23" fill="#ADD1B2" rx="11" ry="11" style="stroke:#181818;stroke-width:1;"/><path d="M143.2154,28.6406 Q142.6373,28.9375 141.9967,29.0781 Q141.356,29.2344 140.6529,29.2344 Q138.1529,29.2344 136.8248,27.5938 Q135.5123,25.9375 135.5123,22.8125 Q135.5123,19.6875 136.8248,18.0313 Q138.1529,16.375 140.6529,16.375 Q141.356,16.375 141.9967,16.5313 Q142.6529,16.6875 143.2154,16.9844 L143.2154,19.7031 Q142.5904,19.125 141.9967,18.8594 Q141.4029,18.5781 140.7779,18.5781 Q139.4342,18.5781 138.7467,19.6563 Q138.0592,20.7188 138.0592,22.8125 Q138.0592,24.9063 138.7467,25.9844 Q139.4342,27.0469 140.7779,27.0469 Q141.4029,27.0469 141.9967,26.7813 Q142.5904,26.5 143.2154,25.9219 L143.2154,28.6406 Z " fill="#000000"/><text fill="#000000" font-family="sans-serif" font-size="14" lengthAdjust="spacing" textLength="33.4209" x="160.7467" y="27.8467">Main</text><line style="stroke:#181818;stroke-width:0.5;" x1="82.42" x2="239.9942" y1="39" y2="39"/><line style="stroke:#181818;stroke-width:0.5;" x1="82.42" x2="239.9942" y1="47" y2="47"/><ellipse cx="92.42" cy="60.6484" fill="#84BE84" rx="3" ry="3" style="stroke:#038048;stroke-width:1;"/><text fill="#000000" font-family="sans-serif" font-size="14" lengthAdjust="spacing" textLength="133.5742" x="101.42" y="63.9951">main(String[] args)</text></g><!--link Cola to NodoFrame--><g id="link_Cola_NodoFrame"><path codeLine="58" d="M161.21,659.51 C161.21,679.45 161.21,694.38 161.21,713.57 " fill="#FFFFFF" fill-opacity="0.00000" id="Cola-to-NodoFrame" style="stroke:#181818;stroke-width:1;"/><polygon fill="#181818" points="161.21,719.57,165.21,710.57,161.21,714.57,157.21,710.57,161.21,719.57" style="stroke:#181818;stroke-width:1;"/><text fill="#000000" font-family="sans-serif" font-size="13" lengthAdjust="spacing" textLength="8.271" x="152.9145" y="679.0202">1</text><text fill="#000000" font-family="sans-serif" font-size="13" lengthAdjust="spacing" textLength="6.5" x="154.9482" y="708.9352">*</text></g><!--link NodoFrame to Frame--><g id="link_NodoFrame_Frame"><path codeLine="59" d="M161.21,866.27 C161.21,886.21 161.21,901.52 161.21,920.38 " fill="#FFFFFF" fill-opacity="0.00000" id="NodoFrame-to-Frame" style="stroke:#181818;stroke-width:1;"/><polygon fill="#181818" points="161.21,926.38,165.21,917.38,161.21,921.38,157.21,917.38,161.21,926.38" style="stroke:#181818;stroke-width:1;"/><text fill="#000000" font-family="sans-serif" font-size="13" lengthAdjust="spacing" textLength="8.271" x="152.8541" y="885.7945">1</text><text fill="#000000" font-family="sans-serif" font-size="13" lengthAdjust="spacing" textLength="8.271" x="152.74" y="915.5887">1</text></g><!--link NodoFrame to NodoFrame--><g id="link_NodoFrame_NodoFrame"><path codeLine="60" d="M315.62,775.74 C336.51,778.63 350.41,784.36 350.41,792.94 C350.41,801.52 342.4538,806.4406 321.5638,809.3206 " fill="#FFFFFF" fill-opacity="0.00000" id="NodoFrame-to-NodoFrame" style="stroke:#181818;stroke-width:1;"/><polygon fill="#181818" points="315.62,810.14,325.082,812.8734,320.5731,809.4571,323.9894,804.9483,315.62,810.14" style="stroke:#181818;stroke-width:1;"/><text fill="#000000" font-family="sans-serif" font-size="13" lengthAdjust="spacing" textLength="59.8203" x="356.41" y="797.5069">siguiente</text><text fill="#000000" font-family="sans-serif" font-size="13" lengthAdjust="spacing" textLength="8.271" x="323.2997" y="771.6137">1</text><text fill="#000000" font-family="sans-serif" font-size="13" lengthAdjust="spacing" textLength="8.271" x="323.2997" y="807.6799">1</text></g><!--link Frame to Pixel--><g id="link_Frame_Pixel"><path codeLine="61" d="M161.21,1040.42 C161.21,1060 161.21,1075.8 161.21,1094.65 " fill="#FFFFFF" fill-opacity="0.00000" id="Frame-to-Pixel" style="stroke:#181818;stroke-width:1;"/><polygon fill="#181818" points="161.21,1100.65,165.21,1091.65,161.21,1095.65,157.21,1091.65,161.21,1100.65" style="stroke:#181818;stroke-width:1;"/><text fill="#000000" font-family="sans-serif" font-size="13" lengthAdjust="spacing" textLength="8.271" x="152.7641" y="1059.952">1</text><text fill="#000000" font-family="sans-serif" font-size="13" lengthAdjust="spacing" textLength="6.5" x="154.8238" y="1089.8069">*</text></g><!--link Pixel to Color--><g id="link_Pixel_Color"><path codeLine="62" d="M161.21,1198.08 C161.21,1217.25 161.21,1233.3 161.21,1252.49 " fill="#FFFFFF" fill-opacity="0.00000" id="Pixel-to-Color" style="stroke:#181818;stroke-width:1;"/><polygon fill="#181818" points="161.21,1258.49,165.21,1249.49,161.21,1253.49,157.21,1249.49,161.21,1258.49" style="stroke:#181818;stroke-width:1;"/><text fill="#000000" font-family="sans-serif" font-size="13" lengthAdjust="spacing" textLength="8.271" x="152.6671" y="1218.0474">1</text><text fill="#000000" font-family="sans-serif" font-size="13" lengthAdjust="spacing" textLength="8.271" x="152.6917" y="1247.9917">1</text></g><!--link Grafica to Cola--><g id="link_Grafica_Cola"><path codeLine="63" d="M161.21,420.11 C161.21,439.09 161.21,454.21 161.21,474.44 " fill="#FFFFFF" fill-opacity="0.00000" id="Grafica-to-Cola" style="stroke:#181818;stroke-width:1;"/><polygon fill="#181818" points="161.21,480.44,165.21,471.44,161.21,475.44,157.21,471.44,161.21,480.44" style="stroke:#181818;stroke-width:1;"/><text fill="#000000" font-family="sans-serif" font-size="13" lengthAdjust="spacing" textLength="8.271" x="152.8123" y="439.6786">1</text><text fill="#000000" font-family="sans-serif" font-size="13" lengthAdjust="spacing" textLength="8.271" x="152.8904" y="469.4864">1</text></g><!--link Pantalla to Grafica--><g id="link_Pantalla_Grafica"><path codeLine="64" d="M161.21,229.25 C161.21,247.97 161.21,263.75 161.21,283.82 " fill="#FFFFFF" fill-opacity="0.00000" id="Pantalla-to-Grafica" style="stroke:#181818;stroke-width:1;"/><polygon fill="#181818" points="161.21,289.82,165.21,280.82,161.21,284.82,157.21,280.82,161.21,289.82" style="stroke:#181818;stroke-width:1;"/><text fill="#000000" font-family="sans-serif" font-size="13" lengthAdjust="spacing" textLength="8.271" x="152.6665" y="249.2019">1</text><text fill="#000000" font-family="sans-serif" font-size="13" lengthAdjust="spacing" textLength="8.271" x="152.7882" y="278.9522">1</text></g><!--link Main to Pantalla--><g id="link_Main_Pantalla"><path codeLine="65" d="M161.21,71.48 C161.21,89.32 161.21,106.05 161.21,126.07 " fill="#FFFFFF" fill-opacity="0.00000" id="Main-to-Pantalla" style="stroke:#181818;stroke-width:1;"/><polygon fill="#181818" points="161.21,132.07,165.21,123.07,161.21,127.07,157.21,123.07,161.21,132.07" style="stroke:#181818;stroke-width:1;"/><text fill="#000000" font-family="sans-serif" font-size="13" lengthAdjust="spacing" textLength="8.271" x="152.4497" y="91.4018">1</text><text fill="#000000" font-family="sans-serif" font-size="13" lengthAdjust="spacing" textLength="8.271" x="152.6665" y="121.2466">1</text></g><!--SRC=[VLFBJiCm4BpxAwoSMb0EN3bm0G4NK4LlL3qioJPOE7QndGe9yL5y0p-6utVIGWz9lJEUsRKd3GUjwRNaG3y9jR-QFifMtYheaUuLwr79e_h03UjZcGb33VJmy-qhvqvjiGoBWsGjHV4-u80BltqtFYFkIfijRL57rXpQ8xw5OarVfEG8WXg60c-aTYHjuIz26ZTCxZDELDWUpQ9PDrWfWy4q8NysIpiqdh6SxncXTHIS7e4kaHFsnG3JvbVi0_bcEvx3-0zrsSlKGo7dA42jF361MQB5W-G7B1Z9rPMIgxr3gMWpFakH9EdnAETMfPY7erZp2iesjrVZ7Hjec1IbJ19rlAZvDE6NudSATgp9WTqn0JpaKCFzSnu1nWd0HoHuXCqfJ-xWEfib1IfbQHvDtz79jAt0TiYBpoVkscNNEhNS-NTvQRtKndgNcW_0HD0xfxrTBDP6CT5PLL2TTamtNNLHqRg-ejLPbKD8SheIRj__ORbwMNmGCvxrS1aWFYdbVdUD90uvGu2aCogHm2Pks1A8x5y0]--></g></svg>
