<svg xmlns="http://www.w3.org/2000/svg" xmlns:xlink="http://www.w3.org/1999/xlink" contentStyleType="text/css" data-diagram-type="CLASS" height="1215px" preserveAspectRatio="none" style="width:256px;height:1215px;background:#FFFFFF;" version="1.1" viewBox="0 0 256 1215" width="256px" zoomAndPan="magnify"><defs/><g><!--class Pantalla--><g id="elem_Pantalla"><rect codeLine="1" fill="#F1F1F1" height="96.8906" id="Pantalla" rx="2.5" ry="2.5" style="stroke:#181818;stroke-width:0.5;" width="134.8213" x="60.91" y="7"/><ellipse cx="96.835" cy="23" fill="#ADD1B2" rx="11" ry="11" style="stroke:#181818;stroke-width:1;"/><path d="M99.8038,28.6406 Q99.2256,28.9375 98.585,29.0781 Q97.9444,29.2344 97.2413,29.2344 Q94.7413,29.2344 93.4131,27.5938 Q92.1006,25.9375 92.1006,22.8125 Q92.1006,19.6875 93.4131,18.0313 Q94.7413,16.375 97.2413,16.375 Q97.9444,16.375 98.585,16.5313 Q99.2413,16.6875 99.8038,16.9844 L99.8038,19.7031 Q99.1788,19.125 98.585,18.8594 Q97.9913,18.5781 97.3663,18.5781 Q96.0225,18.5781 95.335,19.6563 Q94.6475,20.7188 94.6475,22.8125 Q94.6475,24.9063 95.335,25.9844 Q96.0225,27.0469 97.3663,27.0469 Q97.9913,27.0469 98.585,26.7813 Q99.1788,26.5 99.8038,25.9219 L99.8038,28.6406 Z " fill="#000000"/><text fill="#000000" font-family="sans-serif" font-size="14" lengthAdjust="spacing" textLength="56.3213" x="115.485" y="27.8467">Pantalla</text><line style="stroke:#181818;stroke-width:0.5;" x1="61.91" x2="194.7313" y1="39" y2="39"/><rect fill="#FFFFFF" fill-opacity="0.00000" height="6" style="stroke:#C82930;stroke-width:1;" width="6" x="68.91" y="49.6484"/><text fill="#000000" font-family="sans-serif" font-size="14" lengthAdjust="spacing" textLength="108.8213" x="80.91" y="55.9951">Frame[] frames</text><rect fill="#FFFFFF" fill-opacity="0.00000" height="6" style="stroke:#C82930;stroke-width:1;" width="6" x="68.91" y="65.9453"/><text fill="#000000" font-family="sans-serif" font-size="14" lengthAdjust="spacing" textLength="103.0449" x="80.91" y="72.292">Grafica grafica</text><line style="stroke:#181818;stroke-width:0.5;" x1="61.91" x2="194.7313" y1="79.5938" y2="79.5938"/><ellipse cx="71.91" cy="93.2422" fill="#84BE84" rx="3" ry="3" style="stroke:#038048;stroke-width:1;"/><text fill="#000000" font-family="sans-serif" font-size="14" lengthAdjust="spacing" textLength="98.5195" x="80.91" y="96.5889">void Mostrar()</text></g><!--class Grafica--><g id="elem_Grafica"><rect codeLine="7" fill="#F1F1F1" height="145.7813" id="Grafica" rx="2.5" ry="2.5" style="stroke:#181818;stroke-width:0.5;" width="209.7637" x="23.44" y="163.89"/><ellipse cx="98.9327" cy="179.89" fill="#ADD1B2" rx="11" ry="11" style="stroke:#181818;stroke-width:1;"/><path d="M101.9014,185.5306 Q101.3233,185.8275 100.6827,185.9681 Q100.0421,186.1244 99.3389,186.1244 Q96.8389,186.1244 95.5108,184.4838 Q94.1983,182.8275 94.1983,179.7025 Q94.1983,176.5775 95.5108,174.9213 Q96.8389,173.265 99.3389,173.265 Q100.0421,173.265 100.6827,173.4213 Q101.3389,173.5775 101.9014,173.8744 L101.9014,176.5931 Q101.2764,176.015 100.6827,175.7494 Q100.0889,175.4681 99.4639,175.4681 Q98.1202,175.4681 97.4327,176.5463 Q96.7452,177.6088 96.7452,179.7025 Q96.7452,181.7963 97.4327,182.8744 Q98.1202,183.9369 99.4639,183.9369 Q100.0889,183.9369 100.6827,183.6713 Q101.2764,183.39 101.9014,182.8119 L101.9014,185.5306 Z " fill="#000000"/><text fill="#000000" font-family="sans-serif" font-size="14" lengthAdjust="spacing" textLength="50.2783" x="119.4327" y="184.7367">Grafica</text><line style="stroke:#181818;stroke-width:0.5;" x1="24.44" x2="232.2037" y1="195.89" y2="195.89"/><rect fill="#FFFFFF" fill-opacity="0.00000" height="6" style="stroke:#C82930;stroke-width:1;" width="6" x="31.44" y="206.5384"/><text fill="#000000" font-family="sans-serif" font-size="14" lengthAdjust="spacing" textLength="177.2217" x="43.44" y="212.8851">final int memoriaKB = 16</text><rect fill="#FFFFFF" fill-opacity="0.00000" height="6" style="stroke:#C82930;stroke-width:1;" width="6" x="31.44" y="222.8353"/><text fill="#000000" font-family="sans-serif" font-size="14" lengthAdjust="spacing" textLength="131.8379" x="43.44" y="229.182">final int hertz = 60</text><rect fill="#FFFFFF" fill-opacity="0.00000" height="6" style="stroke:#C82930;stroke-width:1;" width="6" x="31.44" y="239.1322"/><text fill="#000000" font-family="sans-serif" font-size="14" lengthAdjust="spacing" textLength="84.0684" x="43.44" y="245.4789">Cola frames</text><line style="stroke:#181818;stroke-width:0.5;" x1="24.44" x2="232.2037" y1="252.7806" y2="252.7806"/><ellipse cx="34.44" cy="266.4291" fill="#84BE84" rx="3" ry="3" style="stroke:#038048;stroke-width:1;"/><text fill="#000000" font-family="sans-serif" font-size="14" lengthAdjust="spacing" textLength="61.2021" x="43.44" y="269.7757">Grafica()</text><ellipse cx="34.44" cy="282.7259" fill="#84BE84" rx="3" ry="3" style="stroke:#038048;stroke-width:1;"/><text fill="#000000" font-family="sans-serif" font-size="14" lengthAdjust="spacing" textLength="144.7168" x="43.44" y="286.0726">void generarFrame()</text><ellipse cx="34.44" cy="299.0228" fill="#84BE84" rx="3" ry="3" style="stroke:#038048;stroke-width:1;"/><text fill="#000000" font-family="sans-serif" font-size="14" lengthAdjust="spacing" textLength="183.7637" x="43.44" y="302.3695">Frame[] devolverFrames()</text></g><!--class Cola--><g id="elem_Cola"><rect codeLine="16" fill="#F1F1F1" height="178.375" id="Cola" rx="2.5" ry="2.5" style="stroke:#181818;stroke-width:0.5;" width="166.6836" x="44.98" y="369.67"/><ellipse cx="108.667" cy="385.67" fill="#ADD1B2" rx="11" ry="11" style="stroke:#181818;stroke-width:1;"/><path d="M111.6358,391.3106 Q111.0576,391.6075 110.417,391.7481 Q109.7764,391.9044 109.0733,391.9044 Q106.5733,391.9044 105.2451,390.2638 Q103.9326,388.6075 103.9326,385.4825 Q103.9326,382.3575 105.2451,380.7013 Q106.5733,379.045 109.0733,379.045 Q109.7764,379.045 110.417,379.2013 Q111.0733,379.3575 111.6358,379.6544 L111.6358,382.3731 Q111.0108,381.795 110.417,381.5294 Q109.8233,381.2481 109.1983,381.2481 Q107.8545,381.2481 107.167,382.3263 Q106.4795,383.3888 106.4795,385.4825 Q106.4795,387.5763 107.167,388.6544 Q107.8545,389.7169 109.1983,389.7169 Q109.8233,389.7169 110.417,389.4513 Q111.0108,389.17 111.6358,388.5919 L111.6358,391.3106 Z " fill="#000000"/><text fill="#000000" font-family="sans-serif" font-size="14" lengthAdjust="spacing" textLength="30.8096" x="129.167" y="390.5167">Cola</text><line style="stroke:#181818;stroke-width:0.5;" x1="45.98" x2="210.6636" y1="401.67" y2="401.67"/><rect fill="#FFFFFF" fill-opacity="0.00000" height="6" style="stroke:#C82930;stroke-width:1;" width="6" x="52.98" y="412.3184"/><text fill="#000000" font-family="sans-serif" font-size="14" lengthAdjust="spacing" textLength="140.6836" x="64.98" y="418.6651">NodoFrame primero</text><rect fill="#FFFFFF" fill-opacity="0.00000" height="6" style="stroke:#C82930;stroke-width:1;" width="6" x="52.98" y="428.6153"/><text fill="#000000" font-family="sans-serif" font-size="14" lengthAdjust="spacing" textLength="129.9238" x="64.98" y="434.962">NodoFrame ultimo</text><rect fill="#FFFFFF" fill-opacity="0.00000" height="6" style="stroke:#C82930;stroke-width:1;" width="6" x="52.98" y="444.9122"/><text fill="#000000" font-family="sans-serif" font-size="14" lengthAdjust="spacing" textLength="76.4258" x="64.98" y="451.2589">int tamano</text><line style="stroke:#181818;stroke-width:0.5;" x1="45.98" x2="210.6636" y1="458.5606" y2="458.5606"/><ellipse cx="55.98" cy="472.2091" fill="#84BE84" rx="3" ry="3" style="stroke:#038048;stroke-width:1;"/><text fill="#000000" font-family="sans-serif" font-size="14" lengthAdjust="spacing" textLength="41.7334" x="64.98" y="475.5557">Cola()</text><ellipse cx="55.98" cy="488.5059" fill="#84BE84" rx="3" ry="3" style="stroke:#038048;stroke-width:1;"/><text fill="#000000" font-family="sans-serif" font-size="14" lengthAdjust="spacing" textLength="106.3467" x="64.98" y="491.8526">void enqueue()</text><ellipse cx="55.98" cy="504.8028" fill="#84BE84" rx="3" ry="3" style="stroke:#038048;stroke-width:1;"/><text fill="#000000" font-family="sans-serif" font-size="14" lengthAdjust="spacing" textLength="132.2959" x="64.98" y="508.1495">Frame[] dequeue()</text><ellipse cx="55.98" cy="521.0997" fill="#84BE84" rx="3" ry="3" style="stroke:#038048;stroke-width:1;"/><text fill="#000000" font-family="sans-serif" font-size="14" lengthAdjust="spacing" textLength="105.1572" x="64.98" y="524.4464">Frame[] peek()</text><ellipse cx="55.98" cy="537.3966" fill="#84BE84" rx="3" ry="3" style="stroke:#038048;stroke-width:1;"/><text fill="#000000" font-family="sans-serif" font-size="14" lengthAdjust="spacing" textLength="128.7412" x="64.98" y="540.7432">boolean verificar()</text></g><!--class NodoFrame--><g id="elem_NodoFrame"><rect codeLine="27" fill="#F1F1F1" height="113.1875" id="NodoFrame" rx="2.5" ry="2.5" style="stroke:#181818;stroke-width:0.5;" width="211.5068" x="22.57" y="608.04"/><ellipse cx="83.509" cy="624.04" fill="#ADD1B2" rx="11" ry="11" style="stroke:#181818;stroke-width:1;"/><path d="M86.4777,629.6806 Q85.8996,629.9775 85.259,630.1181 Q84.6183,630.2744 83.9152,630.2744 Q81.4152,630.2744 80.0871,628.6338 Q78.7746,626.9775 78.7746,623.8525 Q78.7746,620.7275 80.0871,619.0713 Q81.4152,617.415 83.9152,617.415 Q84.6183,617.415 85.259,617.5713 Q85.9152,617.7275 86.4777,618.0244 L86.4777,620.7431 Q85.8527,620.165 85.259,619.8994 Q84.6652,619.6181 84.0402,619.6181 Q82.6965,619.6181 82.009,620.6963 Q81.3215,621.7588 81.3215,623.8525 Q81.3215,625.9463 82.009,627.0244 Q82.6965,628.0869 84.0402,628.0869 Q84.6652,628.0869 85.259,627.8213 Q85.8527,627.54 86.4777,626.9619 L86.4777,629.6806 Z " fill="#000000"/><text fill="#000000" font-family="sans-serif" font-size="14" lengthAdjust="spacing" textLength="81.1289" x="104.009" y="628.8867">NodoFrame</text><line style="stroke:#181818;stroke-width:0.5;" x1="23.57" x2="233.0768" y1="640.04" y2="640.04"/><rect fill="#FFFFFF" fill-opacity="0.00000" height="6" style="stroke:#C82930;stroke-width:1;" width="6" x="30.57" y="650.6884"/><text fill="#000000" font-family="sans-serif" font-size="14" lengthAdjust="spacing" textLength="150.001" x="42.57" y="657.0351">NodoFrame siguiente</text><line style="stroke:#181818;stroke-width:0.5;" x1="23.57" x2="233.0768" y1="664.3369" y2="664.3369"/><ellipse cx="33.57" cy="677.9853" fill="#84BE84" rx="3" ry="3" style="stroke:#038048;stroke-width:1;"/><text fill="#000000" font-family="sans-serif" font-size="14" lengthAdjust="spacing" textLength="92.0527" x="42.57" y="681.332">NodoFrame()</text><ellipse cx="33.57" cy="694.2822" fill="#84BE84" rx="3" ry="3" style="stroke:#038048;stroke-width:1;"/><text fill="#000000" font-family="sans-serif" font-size="14" lengthAdjust="spacing" textLength="185.5068" x="42.57" y="697.6289">NodoFrame getSiguiente()</text><ellipse cx="33.57" cy="710.5791" fill="#84BE84" rx="3" ry="3" style="stroke:#038048;stroke-width:1;"/><text fill="#000000" font-family="sans-serif" font-size="14" lengthAdjust="spacing" textLength="132.4121" x="42.57" y="713.9257">void setSiguiente()</text></g><!--class Frame--><g id="elem_Frame"><rect codeLine="34" fill="#F1F1F1" height="113.1875" id="Frame" rx="2.5" ry="2.5" style="stroke:#181818;stroke-width:0.5;" width="206.2637" x="25.19" y="781.23"/><ellipse cx="101.7525" cy="797.23" fill="#ADD1B2" rx="11" ry="11" style="stroke:#181818;stroke-width:1;"/><path d="M104.7213,802.8706 Q104.1431,803.1675 103.5025,803.3081 Q102.8619,803.4644 102.1588,803.4644 Q99.6588,803.4644 98.3306,801.8238 Q97.0181,800.1675 97.0181,797.0425 Q97.0181,793.9175 98.3306,792.2613 Q99.6588,790.605 102.1588,790.605 Q102.8619,790.605 103.5025,790.7613 Q104.1588,790.9175 104.7213,791.2144 L104.7213,793.9331 Q104.0963,793.355 103.5025,793.0894 Q102.9088,792.8081 102.2838,792.8081 Q100.94,792.8081 100.2525,793.8863 Q99.565,794.9488 99.565,797.0425 Q99.565,799.1363 100.2525,800.2144 Q100.94,801.2769 102.2838,801.2769 Q102.9088,801.2769 103.5025,801.0113 Q104.0963,800.73 104.7213,800.1519 L104.7213,802.8706 Z " fill="#000000"/><text fill="#000000" font-family="sans-serif" font-size="14" lengthAdjust="spacing" textLength="44.6387" x="122.2525" y="802.0767">Frame</text><line style="stroke:#181818;stroke-width:0.5;" x1="26.19" x2="230.4537" y1="813.23" y2="813.23"/><rect fill="#FFFFFF" fill-opacity="0.00000" height="6" style="stroke:#C82930;stroke-width:1;" width="6" x="33.19" y="823.8784"/><text fill="#000000" font-family="sans-serif" font-size="14" lengthAdjust="spacing" textLength="108.8896" x="45.19" y="830.2251">Pixel[][] pixeles</text><line style="stroke:#181818;stroke-width:0.5;" x1="26.19" x2="230.4537" y1="837.5269" y2="837.5269"/><ellipse cx="36.19" cy="851.1753" fill="#84BE84" rx="3" ry="3" style="stroke:#038048;stroke-width:1;"/><text fill="#000000" font-family="sans-serif" font-size="14" lengthAdjust="spacing" textLength="55.5625" x="45.19" y="854.522">Frame()</text><ellipse cx="36.19" cy="867.4722" fill="#84BE84" rx="3" ry="3" style="stroke:#038048;stroke-width:1;"/><text fill="#000000" font-family="sans-serif" font-size="14" lengthAdjust="spacing" textLength="147.998" x="45.19" y="870.8189">void rellenarPixeles()</text><ellipse cx="36.19" cy="883.7691" fill="#84BE84" rx="3" ry="3" style="stroke:#038048;stroke-width:1;"/><text fill="#000000" font-family="sans-serif" font-size="14" lengthAdjust="spacing" textLength="180.2637" x="45.19" y="887.1157">Pixel[][] devolverPixeles()</text></g><!--class Pixel--><g id="elem_Pixel"><rect codeLine="41" fill="#F1F1F1" height="96.8906" id="Pixel" rx="2.5" ry="2.5" style="stroke:#181818;stroke-width:0.5;" width="175.3721" x="40.64" y="954.42"/><ellipse cx="107.516" cy="970.42" fill="#ADD1B2" rx="11" ry="11" style="stroke:#181818;stroke-width:1;"/><path d="M110.4847,976.0606 Q109.9066,976.3575 109.266,976.4981 Q108.6254,976.6544 107.9222,976.6544 Q105.4222,976.6544 104.0941,975.0138 Q102.7816,973.3575 102.7816,970.2325 Q102.7816,967.1075 104.0941,965.4513 Q105.4222,963.795 107.9222,963.795 Q108.6254,963.795 109.266,963.9513 Q109.9222,964.1075 110.4847,964.4044 L110.4847,967.1231 Q109.8597,966.545 109.266,966.2794 Q108.6722,965.9981 108.0472,965.9981 Q106.7035,965.9981 106.016,967.0763 Q105.3285,968.1388 105.3285,970.2325 Q105.3285,972.3263 106.016,973.4044 Q106.7035,974.4669 108.0472,974.4669 Q108.6722,974.4669 109.266,974.2013 Q109.8597,973.92 110.4847,973.3419 L110.4847,976.0606 Z " fill="#000000"/><text fill="#000000" font-family="sans-serif" font-size="14" lengthAdjust="spacing" textLength="33.1201" x="128.016" y="975.2667">Pixel</text><line style="stroke:#181818;stroke-width:0.5;" x1="41.64" x2="215.0121" y1="986.42" y2="986.42"/><rect fill="#FFFFFF" fill-opacity="0.00000" height="6" style="stroke:#C82930;stroke-width:1;" width="6" x="48.64" y="997.0684"/><text fill="#000000" font-family="sans-serif" font-size="14" lengthAdjust="spacing" textLength="75.4756" x="60.64" y="1003.4151">Color color</text><line style="stroke:#181818;stroke-width:0.5;" x1="41.64" x2="215.0121" y1="1010.7169" y2="1010.7169"/><ellipse cx="51.64" cy="1024.3653" fill="#84BE84" rx="3" ry="3" style="stroke:#038048;stroke-width:1;"/><text fill="#000000" font-family="sans-serif" font-size="14" lengthAdjust="spacing" textLength="44.0439" x="60.64" y="1027.712">Pixel()</text><ellipse cx="51.64" cy="1040.6622" fill="#84BE84" rx="3" ry="3" style="stroke:#038048;stroke-width:1;"/><text fill="#000000" font-family="sans-serif" font-size="14" lengthAdjust="spacing" textLength="149.3721" x="60.64" y="1044.0089">Color devolverColor()</text></g><!--class Color--><g id="elem_Color"><rect codeLine="47" fill="#F1F1F1" height="96.8906" id="Color" rx="2.5" ry="2.5" style="stroke:#181818;stroke-width:0.5;" width="242.6445" x="7" y="1111.31"/><ellipse cx="105.7964" cy="1127.31" fill="#ADD1B2" rx="11" ry="11" style="stroke:#181818;stroke-width:1;"/><path d="M108.7651,1132.9506 Q108.187,1133.2475 107.5464,1133.3881 Q106.9058,1133.5444 106.2026,1133.5444 Q103.7026,1133.5444 102.3745,1131.9038 Q101.062,1130.2475 101.062,1127.1225 Q101.062,1123.9975 102.3745,1122.3413 Q103.7026,1120.685 106.2026,1120.685 Q106.9058,1120.685 107.5464,1120.8413 Q108.2026,1120.9975 108.7651,1121.2944 L108.7651,1124.0131 Q108.1401,1123.435 107.5464,1123.1694 Q106.9526,1122.8881 106.3276,1122.8881 Q104.9839,1122.8881 104.2964,1123.9663 Q103.6089,1125.0288 103.6089,1127.1225 Q103.6089,1129.2163 104.2964,1130.2944 Q104.9839,1131.3569 106.3276,1131.3569 Q106.9526,1131.3569 107.5464,1131.0913 Q108.1401,1130.81 108.7651,1130.2319 L108.7651,1132.9506 Z " fill="#000000"/><text fill="#000000" font-family="sans-serif" font-size="14" lengthAdjust="spacing" textLength="36.5518" x="126.2964" y="1132.1567">Color</text><line style="stroke:#181818;stroke-width:0.5;" x1="8" x2="248.6445" y1="1143.31" y2="1143.31"/><rect fill="#FFFFFF" fill-opacity="0.00000" height="6" style="stroke:#C82930;stroke-width:1;" width="6" x="15" y="1153.9584"/><text fill="#000000" font-family="sans-serif" font-size="14" lengthAdjust="spacing" textLength="151.7783" x="27" y="1160.3051">char[] representacion</text><line style="stroke:#181818;stroke-width:0.5;" x1="8" x2="248.6445" y1="1167.6069" y2="1167.6069"/><ellipse cx="18" cy="1181.2553" fill="#84BE84" rx="3" ry="3" style="stroke:#038048;stroke-width:1;"/><text fill="#000000" font-family="sans-serif" font-size="14" lengthAdjust="spacing" textLength="47.4756" x="27" y="1184.602">Color()</text><ellipse cx="18" cy="1197.5522" fill="#84BE84" rx="3" ry="3" style="stroke:#038048;stroke-width:1;"/><text fill="#000000" font-family="sans-serif" font-size="14" lengthAdjust="spacing" textLength="216.6445" x="27" y="1200.8989">char devolverRepresentacion()</text></g><!--link Pantalla to Grafica--><g id="link_Pantalla_Grafica"><path codeLine="53" d="M128.32,104.03 C128.32,122.29 128.32,137.57 128.32,157.63 " fill="#FFFFFF" fill-opacity="0.00000" id="Pantalla-to-Grafica" style="stroke:#181818;stroke-width:1;"/><polygon fill="#181818" points="128.32,163.63,132.32,154.63,128.32,158.63,124.32,154.63,128.32,163.63" style="stroke:#181818;stroke-width:1;"/></g><!--link Grafica to Cola--><g id="link_Grafica_Cola"><path codeLine="54" d="M128.32,310.14 C128.32,329.06 128.32,343.67 128.32,363.32 " fill="#FFFFFF" fill-opacity="0.00000" id="Grafica-to-Cola" style="stroke:#181818;stroke-width:1;"/><polygon fill="#181818" points="128.32,369.32,132.32,360.32,128.32,364.32,124.32,360.32,128.32,369.32" style="stroke:#181818;stroke-width:1;"/></g><!--link Cola to NodoFrame--><g id="link_Cola_NodoFrame"><path codeLine="55" d="M128.32,548.35 C128.32,568.54 128.32,583.45 128.32,601.82 " fill="#FFFFFF" fill-opacity="0.00000" id="Cola-to-NodoFrame" style="stroke:#181818;stroke-width:1;"/><polygon fill="#181818" points="128.32,607.82,132.32,598.82,128.32,602.82,124.32,598.82,128.32,607.82" style="stroke:#181818;stroke-width:1;"/></g><!--link NodoFrame to Frame--><g id="link_NodoFrame_Frame"><path codeLine="56" d="M128.32,721.69 C128.32,740.71 128.32,755.94 128.32,774.94 " fill="#FFFFFF" fill-opacity="0.00000" id="NodoFrame-to-Frame" style="stroke:#181818;stroke-width:1;"/><polygon fill="#181818" points="128.32,780.94,132.32,771.94,128.32,775.94,124.32,771.94,128.32,780.94" style="stroke:#181818;stroke-width:1;"/></g><!--link Frame to Pixel--><g id="link_Frame_Pixel"><path codeLine="57" d="M128.32,894.48 C128.32,913.85 128.32,929.4 128.32,948.07 " fill="#FFFFFF" fill-opacity="0.00000" id="Frame-to-Pixel" style="stroke:#181818;stroke-width:1;"/><polygon fill="#181818" points="128.32,954.07,132.32,945.07,128.32,949.07,124.32,945.07,128.32,954.07" style="stroke:#181818;stroke-width:1;"/></g><!--link Pixel to Color--><g id="link_Pixel_Color"><path codeLine="58" d="M128.32,1051.6 C128.32,1070.44 128.32,1086.05 128.32,1104.91 " fill="#FFFFFF" fill-opacity="0.00000" id="Pixel-to-Color" style="stroke:#181818;stroke-width:1;"/><polygon fill="#181818" points="128.32,1110.91,132.32,1101.91,128.32,1105.91,124.32,1101.91,128.32,1110.91" style="stroke:#181818;stroke-width:1;"/></g><!--SRC=[RPC_JyCm4CLtVueRGLKbMBh1018C25J1M7KuqcjguTZXx5G8n7V7Vs8dfktGnE-TVlViSng5ri8QjKEb47u4-DyI7XWxscnX7vvs51yPzx91QDCpgWiu6hc3PsCT8rzSYbyXciZCrHcvbneLIEsWeywmnASxk87hrObz87RVtbfTZTQzySbcIHQPxTlDChIaoMU8qOkJDxAZer57IgwTvupq7FB5x4miWPvbHsnEz44vsMKvn7NOeJPZkm2hKv7-76Wu5-YytXDz5F7T64MemGUNOSFL0K-PJjDRsGwIjACHL9o2dcfRSc-vlCvkQwTqhhkkvHUfpJPa3szbI7M_26HIYZJoEXKMSqBaEKqLfMkKIbT_qeQX2VzpI44cF-FYwj_KlPrXpG7PDsVgcQpVBJRIw3ceO4DbeRvMzGbVFgNbyZRVKv6_XQ25AoBYfGkhCWOn3IJeIPlMSNCY7S58CVm7]--></g></svg>
