<svg xmlns="http://www.w3.org/2000/svg" xmlns:xlink="http://www.w3.org/1999/xlink" contentStyleType="text/css" height="729px" preserveAspectRatio="none" style="width:787px;height:729px;background:#FFFFFF;" version="1.1" viewBox="0 0 787 729" width="787px" zoomAndPan="magnify"><defs/><g><!--cluster Ejercicio1--><g id="cluster_Ejercicio1"><path d="M8.5,6 L85.8164,6 A3.75,3.75 0 0 1 88.3164,8.5 L95.3164,28.2969 L777.5,28.2969 A2.5,2.5 0 0 1 780,30.7969 L780,719.5 A2.5,2.5 0 0 1 777.5,722 L8.5,722 A2.5,2.5 0 0 1 6,719.5 L6,8.5 A2.5,2.5 0 0 1 8.5,6 " fill="none" style="stroke:#000000;stroke-width:1.5;"/><line style="stroke:#000000;stroke-width:1.5;" x1="6" x2="95.3164" y1="28.2969" y2="28.2969"/><text fill="#000000" font-family="sans-serif" font-size="14" font-weight="bold" lengthAdjust="spacing" textLength="76.3164" x="10" y="20.9951">Ejercicio1</text></g><!--class Buffer--><g id="elem_Buffer"><rect codeLine="2" fill="#F1F1F1" height="145.7813" id="Buffer" rx="2.5" ry="2.5" style="stroke:#181818;stroke-width:0.5;" width="362.6084" x="401.5" y="214"/><ellipse cx="557.2021" cy="230" fill="#ADD1B2" rx="11" ry="11" style="stroke:#181818;stroke-width:1;"/><path d="M560.1709,235.6406 Q559.5928,235.9375 558.9521,236.0781 Q558.3115,236.2344 557.6084,236.2344 Q555.1084,236.2344 553.7803,234.5938 Q552.4678,232.9375 552.4678,229.8125 Q552.4678,226.6875 553.7803,225.0313 Q555.1084,223.375 557.6084,223.375 Q558.3115,223.375 558.9521,223.5313 Q559.6084,223.6875 560.1709,223.9844 L560.1709,226.7031 Q559.5459,226.125 558.9521,225.8594 Q558.3584,225.5781 557.7334,225.5781 Q556.3896,225.5781 555.7021,226.6563 Q555.0146,227.7188 555.0146,229.8125 Q555.0146,231.9063 555.7021,232.9844 Q556.3896,234.0469 557.7334,234.0469 Q558.3584,234.0469 558.9521,233.7813 Q559.5459,233.5 560.1709,232.9219 L560.1709,235.6406 Z " fill="#000000"/><text fill="#000000" font-family="sans-serif" font-size="14" lengthAdjust="spacing" textLength="42.7041" x="577.7021" y="234.8467">Buffer</text><line style="stroke:#181818;stroke-width:0.5;" x1="402.5" x2="763.1084" y1="246" y2="246"/><rect fill="none" height="6" style="stroke:#C82930;stroke-width:1;" width="6" x="409.5" y="256.6484"/><text fill="#000000" font-family="sans-serif" font-size="14" lengthAdjust="spacing" textLength="144.7852" x="421.5" y="262.9951">Frame currentFrame</text><rect fill="none" height="6" style="stroke:#C82930;stroke-width:1;" width="6" x="409.5" y="272.9453"/><text fill="#000000" font-family="sans-serif" font-size="14" lengthAdjust="spacing" textLength="126.998" x="421.5" y="279.292">Frame backFrame</text><line style="stroke:#181818;stroke-width:0.5;" x1="402.5" x2="763.1084" y1="286.5938" y2="286.5938"/><ellipse cx="412.5" cy="300.2422" fill="#84BE84" rx="3" ry="3" style="stroke:#038048;stroke-width:1;"/><text fill="#000000" font-family="sans-serif" font-size="14" lengthAdjust="spacing" textLength="261.5498" x="421.5" y="303.5889">Buffer(Frame frame1, Frame frame2)</text><ellipse cx="412.5" cy="316.5391" fill="#84BE84" rx="3" ry="3" style="stroke:#038048;stroke-width:1;"/><text fill="#000000" font-family="sans-serif" font-size="14" lengthAdjust="spacing" textLength="81.2109" x="421.5" y="319.8857">void swap()</text><ellipse cx="412.5" cy="332.8359" fill="#84BE84" rx="3" ry="3" style="stroke:#038048;stroke-width:1;"/><text fill="#000000" font-family="sans-serif" font-size="14" lengthAdjust="spacing" textLength="180.7764" x="421.5" y="336.1826">Frame getCurrentFrame()</text><ellipse cx="412.5" cy="349.1328" fill="#84BE84" rx="3" ry="3" style="stroke:#038048;stroke-width:1;"/><text fill="#000000" font-family="sans-serif" font-size="14" lengthAdjust="spacing" textLength="336.6084" x="421.5" y="352.4795">void mostrarFrameElegido(Resultado resultado)</text></g><!--class Frame--><g id="elem_Frame"><rect codeLine="11" fill="#F1F1F1" height="113.1875" id="Frame" rx="2.5" ry="2.5" style="stroke:#181818;stroke-width:0.5;" width="278.8887" x="248.5" y="420"/><ellipse cx="361.375" cy="436" fill="#ADD1B2" rx="11" ry="11" style="stroke:#181818;stroke-width:1;"/><path d="M364.3438,441.6406 Q363.7656,441.9375 363.125,442.0781 Q362.4844,442.2344 361.7813,442.2344 Q359.2813,442.2344 357.9531,440.5938 Q356.6406,438.9375 356.6406,435.8125 Q356.6406,432.6875 357.9531,431.0313 Q359.2813,429.375 361.7813,429.375 Q362.4844,429.375 363.125,429.5313 Q363.7813,429.6875 364.3438,429.9844 L364.3438,432.7031 Q363.7188,432.125 363.125,431.8594 Q362.5313,431.5781 361.9063,431.5781 Q360.5625,431.5781 359.875,432.6563 Q359.1875,433.7188 359.1875,435.8125 Q359.1875,437.9063 359.875,438.9844 Q360.5625,440.0469 361.9063,440.0469 Q362.5313,440.0469 363.125,439.7813 Q363.7188,439.5 364.3438,438.9219 L364.3438,441.6406 Z " fill="#000000"/><text fill="#000000" font-family="sans-serif" font-size="14" lengthAdjust="spacing" textLength="44.6387" x="381.875" y="440.8467">Frame</text><line style="stroke:#181818;stroke-width:0.5;" x1="249.5" x2="526.3887" y1="452" y2="452"/><rect fill="none" height="6" style="stroke:#C82930;stroke-width:1;" width="6" x="256.5" y="462.6484"/><text fill="#000000" font-family="sans-serif" font-size="14" lengthAdjust="spacing" textLength="120.0254" x="268.5" y="468.9951">char[][] atributos</text><line style="stroke:#181818;stroke-width:0.5;" x1="249.5" x2="526.3887" y1="476.2969" y2="476.2969"/><ellipse cx="259.5" cy="489.9453" fill="#84BE84" rx="3" ry="3" style="stroke:#038048;stroke-width:1;"/><text fill="#000000" font-family="sans-serif" font-size="14" lengthAdjust="spacing" textLength="193.0811" x="268.5" y="493.292">Frame(int width, int height)</text><ellipse cx="259.5" cy="506.2422" fill="#84BE84" rx="3" ry="3" style="stroke:#038048;stroke-width:1;"/><text fill="#000000" font-family="sans-serif" font-size="14" lengthAdjust="spacing" textLength="252.8887" x="268.5" y="509.5889">void setPixel(int x, int y, char value)</text><ellipse cx="259.5" cy="522.5391" fill="#84BE84" rx="3" ry="3" style="stroke:#038048;stroke-width:1;"/><text fill="#000000" font-family="sans-serif" font-size="14" lengthAdjust="spacing" textLength="173.2637" x="268.5" y="525.8857">char getPixel(int x, int y)</text></g><!--class Pantalla--><g id="elem_Pantalla"><rect codeLine="18" fill="#F1F1F1" height="113.1875" id="Pantalla" rx="2.5" ry="2.5" style="stroke:#181818;stroke-width:0.5;" width="301.167" x="432.5" y="41"/><ellipse cx="550.6729" cy="57" fill="#ADD1B2" rx="11" ry="11" style="stroke:#181818;stroke-width:1;"/><path d="M553.6416,62.6406 Q553.0635,62.9375 552.4229,63.0781 Q551.7822,63.2344 551.0791,63.2344 Q548.5791,63.2344 547.251,61.5938 Q545.9385,59.9375 545.9385,56.8125 Q545.9385,53.6875 547.251,52.0313 Q548.5791,50.375 551.0791,50.375 Q551.7822,50.375 552.4229,50.5313 Q553.0791,50.6875 553.6416,50.9844 L553.6416,53.7031 Q553.0166,53.125 552.4229,52.8594 Q551.8291,52.5781 551.2041,52.5781 Q549.8604,52.5781 549.1729,53.6563 Q548.4854,54.7188 548.4854,56.8125 Q548.4854,58.9063 549.1729,59.9844 Q549.8604,61.0469 551.2041,61.0469 Q551.8291,61.0469 552.4229,60.7813 Q553.0166,60.5 553.6416,59.9219 L553.6416,62.6406 Z " fill="#000000"/><text fill="#000000" font-family="sans-serif" font-size="14" lengthAdjust="spacing" textLength="56.3213" x="571.1729" y="61.8467">Pantalla</text><line style="stroke:#181818;stroke-width:0.5;" x1="433.5" x2="732.667" y1="73" y2="73"/><rect fill="none" height="6" style="stroke:#C82930;stroke-width:1;" width="6" x="440.5" y="83.6484"/><text fill="#000000" font-family="sans-serif" font-size="14" lengthAdjust="spacing" textLength="89.1406" x="452.5" y="89.9951">Buffer buffer</text><line style="stroke:#181818;stroke-width:0.5;" x1="433.5" x2="732.667" y1="97.2969" y2="97.2969"/><ellipse cx="443.5" cy="110.9453" fill="#84BE84" rx="3" ry="3" style="stroke:#038048;stroke-width:1;"/><text fill="#000000" font-family="sans-serif" font-size="14" lengthAdjust="spacing" textLength="275.167" x="452.5" y="114.292">Pantalla(Frame frame1, Frame frame2)</text><ellipse cx="443.5" cy="127.2422" fill="#84BE84" rx="3" ry="3" style="stroke:#038048;stroke-width:1;"/><text fill="#000000" font-family="sans-serif" font-size="14" lengthAdjust="spacing" textLength="152.0107" x="452.5" y="130.5889">void mostrarFrames()</text><ellipse cx="443.5" cy="143.5391" fill="#84BE84" rx="3" ry="3" style="stroke:#038048;stroke-width:1;"/><text fill="#000000" font-family="sans-serif" font-size="14" lengthAdjust="spacing" textLength="210.54" x="452.5" y="146.8857">static void main(String[] args)</text></g><!--class Pixel--><g id="elem_Pixel"><rect codeLine="25" fill="#F1F1F1" height="113.1875" id="Pixel" rx="2.5" ry="2.5" style="stroke:#181818;stroke-width:0.5;" width="278.8887" x="248.5" y="593"/><ellipse cx="367.1343" cy="609" fill="#ADD1B2" rx="11" ry="11" style="stroke:#181818;stroke-width:1;"/><path d="M370.103,614.6406 Q369.5249,614.9375 368.8843,615.0781 Q368.2437,615.2344 367.5405,615.2344 Q365.0405,615.2344 363.7124,613.5938 Q362.3999,611.9375 362.3999,608.8125 Q362.3999,605.6875 363.7124,604.0313 Q365.0405,602.375 367.5405,602.375 Q368.2437,602.375 368.8843,602.5313 Q369.5405,602.6875 370.103,602.9844 L370.103,605.7031 Q369.478,605.125 368.8843,604.8594 Q368.2905,604.5781 367.6655,604.5781 Q366.3218,604.5781 365.6343,605.6563 Q364.9468,606.7188 364.9468,608.8125 Q364.9468,610.9063 365.6343,611.9844 Q366.3218,613.0469 367.6655,613.0469 Q368.2905,613.0469 368.8843,612.7813 Q369.478,612.5 370.103,611.9219 L370.103,614.6406 Z " fill="#000000"/><text fill="#000000" font-family="sans-serif" font-size="14" lengthAdjust="spacing" textLength="33.1201" x="387.6343" y="613.8467">Pixel</text><line style="stroke:#181818;stroke-width:0.5;" x1="249.5" x2="526.3887" y1="625" y2="625"/><rect fill="none" height="6" style="stroke:#C82930;stroke-width:1;" width="6" x="256.5" y="635.6484"/><text fill="#000000" font-family="sans-serif" font-size="14" lengthAdjust="spacing" textLength="120.0254" x="268.5" y="641.9951">char[][] atributos</text><line style="stroke:#181818;stroke-width:0.5;" x1="249.5" x2="526.3887" y1="649.2969" y2="649.2969"/><ellipse cx="259.5" cy="662.9453" fill="#84BE84" rx="3" ry="3" style="stroke:#038048;stroke-width:1;"/><text fill="#000000" font-family="sans-serif" font-size="14" lengthAdjust="spacing" textLength="181.5625" x="268.5" y="666.292">Pixel(int width, int height)</text><ellipse cx="259.5" cy="679.2422" fill="#84BE84" rx="3" ry="3" style="stroke:#038048;stroke-width:1;"/><text fill="#000000" font-family="sans-serif" font-size="14" lengthAdjust="spacing" textLength="252.8887" x="268.5" y="682.5889">void setPixel(int x, int y, char value)</text><ellipse cx="259.5" cy="695.5391" fill="#84BE84" rx="3" ry="3" style="stroke:#038048;stroke-width:1;"/><text fill="#000000" font-family="sans-serif" font-size="14" lengthAdjust="spacing" textLength="173.2637" x="268.5" y="698.8857">char getPixel(int x, int y)</text></g><!--class Resultado--><g id="elem_Resultado"><rect codeLine="32" fill="#F1F1F1" height="113.1875" id="Resultado" rx="2.5" ry="2.5" style="stroke:#181818;stroke-width:0.5;" width="344.8076" x="21.5" y="230.5"/><ellipse cx="154.6948" cy="246.5" fill="#ADD1B2" rx="11" ry="11" style="stroke:#181818;stroke-width:1;"/><path d="M157.6636,252.1406 Q157.0854,252.4375 156.4448,252.5781 Q155.8042,252.7344 155.1011,252.7344 Q152.6011,252.7344 151.2729,251.0938 Q149.9604,249.4375 149.9604,246.3125 Q149.9604,243.1875 151.2729,241.5313 Q152.6011,239.875 155.1011,239.875 Q155.8042,239.875 156.4448,240.0313 Q157.1011,240.1875 157.6636,240.4844 L157.6636,243.2031 Q157.0386,242.625 156.4448,242.3594 Q155.8511,242.0781 155.2261,242.0781 Q153.8823,242.0781 153.1948,243.1563 Q152.5073,244.2188 152.5073,246.3125 Q152.5073,248.4063 153.1948,249.4844 Q153.8823,250.5469 155.2261,250.5469 Q155.8511,250.5469 156.4448,250.2813 Q157.0386,250 157.6636,249.4219 L157.6636,252.1406 Z " fill="#000000"/><text fill="#000000" font-family="sans-serif" font-size="14" lengthAdjust="spacing" textLength="69.918" x="175.1948" y="251.3467">Resultado</text><line style="stroke:#181818;stroke-width:0.5;" x1="22.5" x2="365.3076" y1="262.5" y2="262.5"/><rect fill="none" height="6" style="stroke:#C82930;stroke-width:1;" width="6" x="29.5" y="273.1484"/><text fill="#000000" font-family="sans-serif" font-size="14" lengthAdjust="spacing" textLength="120.0254" x="41.5" y="279.4951">char[][] atributos</text><line style="stroke:#181818;stroke-width:0.5;" x1="22.5" x2="365.3076" y1="286.7969" y2="286.7969"/><ellipse cx="32.5" cy="300.4453" fill="#84BE84" rx="3" ry="3" style="stroke:#038048;stroke-width:1;"/><text fill="#000000" font-family="sans-serif" font-size="14" lengthAdjust="spacing" textLength="80.8418" x="41.5" y="303.792">Resultado()</text><ellipse cx="32.5" cy="316.7422" fill="#84BE84" rx="3" ry="3" style="stroke:#038048;stroke-width:1;"/><text fill="#000000" font-family="sans-serif" font-size="14" lengthAdjust="spacing" textLength="318.8076" x="41.5" y="320.0889">void combinar(Frame frame1, Frame frame2)</text><ellipse cx="32.5" cy="333.0391" fill="#84BE84" rx="3" ry="3" style="stroke:#038048;stroke-width:1;"/><text fill="#000000" font-family="sans-serif" font-size="14" lengthAdjust="spacing" textLength="169.9961" x="41.5" y="336.3857">void mostrarResultado()</text></g><!--reverse link Buffer to Frame--><g id="link_Buffer_Frame"><path codeLine="39" d="M499.2405,368.5378 C478.6405,388.3478 465.28,401.19 445.81,419.91 " fill="none" id="Buffer-backto-Frame" style="stroke:#181818;stroke-width:1;"/><polygon fill="#181818" points="507.89,360.22,500.7926,361.4957,499.2405,368.5378,506.3378,367.2621,507.89,360.22" style="stroke:#181818;stroke-width:1;"/><text fill="#000000" font-family="sans-serif" font-size="13" lengthAdjust="spacing" textLength="8.271" x="492.6276" y="379.7445">1</text><text fill="#000000" font-family="sans-serif" font-size="13" lengthAdjust="spacing" textLength="8.271" x="444.7289" y="408.7619">2</text></g><!--reverse link Pantalla to Buffer--><g id="link_Pantalla_Buffer"><path codeLine="40" d="M583,166.25 C583,184.92 583,194.02 583,213.77 " fill="none" id="Pantalla-backto-Buffer" style="stroke:#181818;stroke-width:1;"/><polygon fill="#181818" points="583,154.25,579,160.25,583,166.25,587,160.25,583,154.25" style="stroke:#181818;stroke-width:1;"/><text fill="#000000" font-family="sans-serif" font-size="13" lengthAdjust="spacing" textLength="8.271" x="574.5188" y="174.144">1</text><text fill="#000000" font-family="sans-serif" font-size="13" lengthAdjust="spacing" textLength="8.271" x="574.6389" y="202.9073">1</text></g><!--reverse link Resultado to Frame--><g id="link_Resultado_Frame"><path codeLine="41" d="M260.3095,352.0885 C285.2195,376.1585 305.66,395.92 330.54,419.97 " fill="none" id="Resultado-backto-Frame" style="stroke:#181818;stroke-width:1;"/><polygon fill="#181818" points="251.68,343.75,253.2153,350.7958,260.3095,352.0885,258.7743,345.0428,251.68,343.75" style="stroke:#181818;stroke-width:1;"/><text fill="#000000" font-family="sans-serif" font-size="13" lengthAdjust="spacing" textLength="8.271" x="250.2505" y="363.644">1</text><text fill="#000000" font-family="sans-serif" font-size="13" lengthAdjust="spacing" textLength="8.271" x="314.6899" y="408.8295">2</text></g><!--reverse link Frame to Pixel--><g id="link_Frame_Pixel"><path codeLine="42" d="M388,551.02 C388,570.23 388,573.75 388,592.97 " fill="none" id="Frame-backto-Pixel" style="stroke:#181818;stroke-width:1;"/><polygon fill="none" points="388,533.02,382,551.02,394,551.02,388,533.02" style="stroke:#181818;stroke-width:1;"/></g><!--SRC=[nLEnSi8m3Dtv2bscj0q3p9teqPbhHuv1SOpZOcpELe1UoxytSKBYa0oqIpt4jlGaFpqf1sGx51oM7zmooQIPmTS4oiKKEWUBOhlbjZ5LQmgl5lSSM64jr-Gl0sTQ9krxdffCSGtOLjzP0i5j_X20ZqPcu4vuY4DhZHQSNeB7uq7StZYoQBrtgRYGcOdVk2iKOMR0Nazrt6KIL5i_41RBShJhpNe3I5Qc1HbtooUMck0aCyeJg8uvboAdOJ6SLlBCbOUVQ-XdulF34LN1mmXl5MCH8wHNg0cLmXxlfc-ftuBCL_1l-X3gwNfoEqAIh46XrF5xgP8MbLnMk36kLK7t2zpL_vy2TxDpD_4sP3YTpEnJgT7-eGEtMHkMJQ-ZMGIFqob4ymYwdw-TZjPTxejkBBhYnkDhNi_VfSEBDRdy0000]--></g></svg>