<svg xmlns="http://www.w3.org/2000/svg" xmlns:xlink="http://www.w3.org/1999/xlink" contentStyleType="text/css" data-diagram-type="CLASS" height="638px" preserveAspectRatio="none" style="width:444px;height:638px;background:#FFFFFF;" version="1.1" viewBox="0 0 444 638" width="444px" zoomAndPan="magnify"><defs/><g><!--class Pixel--><g id="elem_Pixel"><rect codeLine="1" fill="#F1F1F1" height="162.0781" id="Pixel" rx="2.5" ry="2.5" style="stroke:#181818;stroke-width:0.5;" width="267.5" x="88.31" y="469.15"/><ellipse cx="201.2499" cy="485.15" fill="#ADD1B2" rx="11" ry="11" style="stroke:#181818;stroke-width:1;"/><path d="M204.2187,490.7906 Q203.6406,491.0875 202.9999,491.2281 Q202.3593,491.3844 201.6562,491.3844 Q199.1562,491.3844 197.8281,489.7438 Q196.5156,488.0875 196.5156,484.9625 Q196.5156,481.8375 197.8281,480.1813 Q199.1562,478.525 201.6562,478.525 Q202.3593,478.525 202.9999,478.6813 Q203.6562,478.8375 204.2187,479.1344 L204.2187,481.8531 Q203.5937,481.275 202.9999,481.0094 Q202.4062,480.7281 201.7812,480.7281 Q200.4374,480.7281 199.7499,481.8063 Q199.0624,482.8688 199.0624,484.9625 Q199.0624,487.0563 199.7499,488.1344 Q200.4374,489.1969 201.7812,489.1969 Q202.4062,489.1969 202.9999,488.9313 Q203.5937,488.65 204.2187,488.0719 L204.2187,490.7906 Z " fill="#000000"/><text fill="#000000" font-family="sans-serif" font-size="14" lengthAdjust="spacing" textLength="33.1201" x="221.7499" y="489.9967">Pixel</text><line style="stroke:#181818;stroke-width:0.5;" x1="89.31" x2="354.81" y1="501.15" y2="501.15"/><rect fill="#FFFFFF" fill-opacity="0.00000" height="6" style="stroke:#C82930;stroke-width:1;" width="6" x="96.31" y="511.7984"/><text fill="#000000" font-family="sans-serif" font-size="14" lengthAdjust="spacing" textLength="107.8506" x="108.31" y="518.1451">boolean estado</text><rect fill="#FFFFFF" fill-opacity="0.00000" height="6" style="stroke:#C82930;stroke-width:1;" width="6" x="96.31" y="528.0953"/><text fill="#000000" font-family="sans-serif" font-size="14" lengthAdjust="spacing" textLength="80.7051" x="108.31" y="534.442">String color</text><line style="stroke:#181818;stroke-width:0.5;" x1="89.31" x2="354.81" y1="541.7438" y2="541.7438"/><ellipse cx="99.31" cy="555.3922" fill="#84BE84" rx="3" ry="3" style="stroke:#038048;stroke-width:1;"/><text fill="#000000" font-family="sans-serif" font-size="14" lengthAdjust="spacing" textLength="241.5" x="108.31" y="558.7389">Pixel(boolean estado, String color)</text><ellipse cx="99.31" cy="571.6891" fill="#84BE84" rx="3" ry="3" style="stroke:#038048;stroke-width:1;"/><text fill="#000000" font-family="sans-serif" font-size="14" lengthAdjust="spacing" textLength="141.9961" x="108.31" y="575.0357">boolean getEstado()</text><ellipse cx="99.31" cy="587.9859" fill="#84BE84" rx="3" ry="3" style="stroke:#038048;stroke-width:1;"/><text fill="#000000" font-family="sans-serif" font-size="14" lengthAdjust="spacing" textLength="221.9082" x="108.31" y="591.3326">void setEstado(boolean estado)</text><ellipse cx="99.31" cy="604.2828" fill="#84BE84" rx="3" ry="3" style="stroke:#038048;stroke-width:1;"/><text fill="#000000" font-family="sans-serif" font-size="14" lengthAdjust="spacing" textLength="116.6963" x="108.31" y="607.6295">String getColor()</text><ellipse cx="99.31" cy="620.5797" fill="#84BE84" rx="3" ry="3" style="stroke:#038048;stroke-width:1;"/><text fill="#000000" font-family="sans-serif" font-size="14" lengthAdjust="spacing" textLength="183.6543" x="108.31" y="623.9264">void setColor(String color)</text></g><!--class Frame--><g id="elem_Frame"><rect codeLine="11" fill="#F1F1F1" height="162.0781" id="Frame" rx="2.5" ry="2.5" style="stroke:#181818;stroke-width:0.5;" width="402.749" x="20.68" y="246.07"/><ellipse cx="195.4852" cy="262.07" fill="#ADD1B2" rx="11" ry="11" style="stroke:#181818;stroke-width:1;"/><path d="M198.4539,267.7106 Q197.8758,268.0075 197.2352,268.1481 Q196.5946,268.3044 195.8914,268.3044 Q193.3914,268.3044 192.0633,266.6638 Q190.7508,265.0075 190.7508,261.8825 Q190.7508,258.7575 192.0633,257.1013 Q193.3914,255.445 195.8914,255.445 Q196.5946,255.445 197.2352,255.6013 Q197.8914,255.7575 198.4539,256.0544 L198.4539,258.7731 Q197.8289,258.195 197.2352,257.9294 Q196.6414,257.6481 196.0164,257.6481 Q194.6727,257.6481 193.9852,258.7263 Q193.2977,259.7888 193.2977,261.8825 Q193.2977,263.9763 193.9852,265.0544 Q194.6727,266.1169 196.0164,266.1169 Q196.6414,266.1169 197.2352,265.8513 Q197.8289,265.57 198.4539,264.9919 L198.4539,267.7106 Z " fill="#000000"/><text fill="#000000" font-family="sans-serif" font-size="14" lengthAdjust="spacing" textLength="44.6387" x="215.9852" y="266.9167">Frame</text><line style="stroke:#181818;stroke-width:0.5;" x1="21.68" x2="422.429" y1="278.07" y2="278.07"/><rect fill="#FFFFFF" fill-opacity="0.00000" height="6" style="stroke:#C82930;stroke-width:1;" width="6" x="28.68" y="288.7184"/><text fill="#000000" font-family="sans-serif" font-size="14" lengthAdjust="spacing" textLength="30.9873" x="40.68" y="295.0651">int x</text><rect fill="#FFFFFF" fill-opacity="0.00000" height="6" style="stroke:#C82930;stroke-width:1;" width="6" x="28.68" y="305.0153"/><text fill="#000000" font-family="sans-serif" font-size="14" lengthAdjust="spacing" textLength="30.9873" x="40.68" y="311.362">int y</text><rect fill="#FFFFFF" fill-opacity="0.00000" height="6" style="stroke:#C82930;stroke-width:1;" width="6" x="28.68" y="321.3122"/><text fill="#000000" font-family="sans-serif" font-size="14" lengthAdjust="spacing" textLength="100.2764" x="40.68" y="327.6589">Pixel[][] pixels</text><line style="stroke:#181818;stroke-width:0.5;" x1="21.68" x2="422.429" y1="334.9606" y2="334.9606"/><ellipse cx="31.68" cy="348.6091" fill="#84BE84" rx="3" ry="3" style="stroke:#038048;stroke-width:1;"/><text fill="#000000" font-family="sans-serif" font-size="14" lengthAdjust="spacing" textLength="126.4375" x="40.68" y="351.9557">Frame(int x, int y)</text><ellipse cx="31.68" cy="364.9059" fill="#84BE84" rx="3" ry="3" style="stroke:#038048;stroke-width:1;"/><text fill="#000000" font-family="sans-serif" font-size="14" lengthAdjust="spacing" textLength="376.749" x="40.68" y="368.2526">void setPixel(int x, int y, boolean estado, String color)</text><ellipse cx="31.68" cy="381.2028" fill="#84BE84" rx="3" ry="3" style="stroke:#038048;stroke-width:1;"/><text fill="#000000" font-family="sans-serif" font-size="14" lengthAdjust="spacing" textLength="175.4785" x="40.68" y="384.5495">Pixel getPixel(int x, int y)</text><ellipse cx="31.68" cy="397.4997" fill="#84BE84" rx="3" ry="3" style="stroke:#038048;stroke-width:1;"/><text fill="#000000" font-family="sans-serif" font-size="14" lengthAdjust="spacing" textLength="321.6309" x="40.68" y="400.8464">void clearFrame(boolean estado, String color)</text></g><!--class DisplayManager--><g id="elem_DisplayManager"><rect codeLine="21" fill="#F1F1F1" height="162.0781" id="DisplayManager" rx="2.5" ry="2.5" style="stroke:#181818;stroke-width:0.5;" width="430.1133" x="7" y="7"/><ellipse cx="161.3213" cy="23" fill="#ADD1B2" rx="11" ry="11" style="stroke:#181818;stroke-width:1;"/><path d="M164.29,28.6406 Q163.7119,28.9375 163.0713,29.0781 Q162.4307,29.2344 161.7275,29.2344 Q159.2275,29.2344 157.8994,27.5938 Q156.5869,25.9375 156.5869,22.8125 Q156.5869,19.6875 157.8994,18.0313 Q159.2275,16.375 161.7275,16.375 Q162.4307,16.375 163.0713,16.5313 Q163.7275,16.6875 164.29,16.9844 L164.29,19.7031 Q163.665,19.125 163.0713,18.8594 Q162.4775,18.5781 161.8525,18.5781 Q160.5088,18.5781 159.8213,19.6563 Q159.1338,20.7188 159.1338,22.8125 Q159.1338,24.9063 159.8213,25.9844 Q160.5088,27.0469 161.8525,27.0469 Q162.4775,27.0469 163.0713,26.7813 Q163.665,26.5 164.29,25.9219 L164.29,28.6406 Z " fill="#000000"/><text fill="#000000" font-family="sans-serif" font-size="14" lengthAdjust="spacing" textLength="112.9707" x="181.8213" y="27.8467">DisplayManager</text><line style="stroke:#181818;stroke-width:0.5;" x1="8" x2="436.1133" y1="39" y2="39"/><rect fill="#FFFFFF" fill-opacity="0.00000" height="6" style="stroke:#C82930;stroke-width:1;" width="6" x="15" y="49.6484"/><text fill="#000000" font-family="sans-serif" font-size="14" lengthAdjust="spacing" textLength="99.9824" x="27" y="55.9951">Frame buffer1</text><rect fill="#FFFFFF" fill-opacity="0.00000" height="6" style="stroke:#C82930;stroke-width:1;" width="6" x="15" y="65.9453"/><text fill="#000000" font-family="sans-serif" font-size="14" lengthAdjust="spacing" textLength="99.9824" x="27" y="72.292">Frame buffer2</text><rect fill="#FFFFFF" fill-opacity="0.00000" height="6" style="stroke:#C82930;stroke-width:1;" width="6" x="15" y="82.2422"/><text fill="#000000" font-family="sans-serif" font-size="14" lengthAdjust="spacing" textLength="108.3223" x="27" y="88.5889">int frameActual</text><line style="stroke:#181818;stroke-width:0.5;" x1="8" x2="436.1133" y1="95.8906" y2="95.8906"/><ellipse cx="18" cy="109.5391" fill="#84BE84" rx="3" ry="3" style="stroke:#038048;stroke-width:1;"/><text fill="#000000" font-family="sans-serif" font-size="14" lengthAdjust="spacing" textLength="194.7695" x="27" y="112.8857">DisplayManager(int x, int y)</text><ellipse cx="18" cy="125.8359" fill="#84BE84" rx="3" ry="3" style="stroke:#038048;stroke-width:1;"/><text fill="#000000" font-family="sans-serif" font-size="14" lengthAdjust="spacing" textLength="146.665" x="27" y="129.1826">void cambiarFrame()</text><ellipse cx="18" cy="142.1328" fill="#84BE84" rx="3" ry="3" style="stroke:#038048;stroke-width:1;"/><text fill="#000000" font-family="sans-serif" font-size="14" lengthAdjust="spacing" textLength="404.1133" x="27" y="145.4795">void dibujarPixel(int x, int y, boolean estado, String color)</text><ellipse cx="18" cy="158.4297" fill="#84BE84" rx="3" ry="3" style="stroke:#038048;stroke-width:1;"/><text fill="#000000" font-family="sans-serif" font-size="14" lengthAdjust="spacing" textLength="151.1494" x="27" y="161.7764">Frame renderFrame()</text></g><!--link DisplayManager to Frame--><g id="link_DisplayManager_Frame"><path codeLine="31" d="M183.35,169.57 C179.96,179.33 177.06,189.3 175.06,199.07 C171.9,214.51 173.61,230.57 177.86,245.87 " fill="#FFFFFF" fill-opacity="0.00000" id="DisplayManager-Frame" style="stroke:#181818;stroke-width:1;"/><text fill="#000000" font-family="sans-serif" font-size="13" lengthAdjust="spacing" textLength="47.2583" x="176.06" y="212.1369">buffer1</text><text fill="#000000" font-family="sans-serif" font-size="13" lengthAdjust="spacing" textLength="8.271" x="171.8246" y="189.0153">1</text><text fill="#000000" font-family="sans-serif" font-size="13" lengthAdjust="spacing" textLength="8.271" x="165.5797" y="235.0395">1</text></g><!--link DisplayManager to Frame--><g id="link_DisplayManager_Frame"><path codeLine="32" d="M227.66,169.32 C228.23,184.83 228.47,200.95 228.06,216.07 C227.8,225.64 227.41,235.66 226.95,245.6 " fill="#FFFFFF" fill-opacity="0.00000" id="DisplayManager-Frame-1" style="stroke:#181818;stroke-width:1;"/><text fill="#000000" font-family="sans-serif" font-size="13" lengthAdjust="spacing" textLength="47.2583" x="229.06" y="212.1369">buffer2</text><text fill="#000000" font-family="sans-serif" font-size="13" lengthAdjust="spacing" textLength="8.271" x="219.8094" y="189.0222">1</text><text fill="#000000" font-family="sans-serif" font-size="13" lengthAdjust="spacing" textLength="8.271" x="219.0386" y="235.0234">1</text></g><!--link Frame to Pixel--><g id="link_Frame_Pixel"><path codeLine="33" d="M222.06,408.55 C222.06,428.18 222.06,449.18 222.06,468.81 " fill="#FFFFFF" fill-opacity="0.00000" id="Frame-Pixel" style="stroke:#181818;stroke-width:1;"/><text fill="#000000" font-family="sans-serif" font-size="13" lengthAdjust="spacing" textLength="6.5" x="215.8241" y="428.266">*</text><text fill="#000000" font-family="sans-serif" font-size="13" lengthAdjust="spacing" textLength="6.5" x="215.8151" y="457.967">*</text></g><!--SRC=[dL2nJiCm5Dpp5K-P0YH3Ex8XA1iI4cFLuSLn8YFNhcm7jKByEuwVOyMbgYgos7c-ktTtJAAry2wENC9t0VvheDLQSbJ0hSDEn-67Cq8DmBJK9emUY5Nbw3e3taNaZ1cusmHODRzyQT61JUDSR0P5ISz-dbJ_a6cQB_uf2XQolHhSyvHDA0V7nVqKxo7BThVTmM6wsRWXaAj0gWb_lfjAM29gkAKIgdou992jO5x9a8thiYdmYx07YQStL3Xmav9J3-tOzzoiBipMYrRwQVx4t8WoUib5hzZ5VIjcmzbB9zhn4yr_-oAhXgkE9tKV-InikIgXQS91XCUK-5Rakg3_yfu0_WYUVm40]--></g></svg>