<svg xmlns="http://www.w3.org/2000/svg" xmlns:xlink="http://www.w3.org/1999/xlink" contentStyleType="text/css" height="637px" preserveAspectRatio="none" style="width:700px;height:637px;background:#FFFFFF;" version="1.1" viewBox="0 0 700 637" width="700px" zoomAndPan="magnify"><defs/><g><!--class Display--><g id="elem_Display"><rect codeLine="1" fill="#F1F1F1" height="162.0781" id="Display" rx="2.5" ry="2.5" style="stroke:#181818;stroke-width:0.5;" width="305.8838" x="182" y="7"/><ellipse cx="304.8896" cy="23" fill="#ADD1B2" rx="11" ry="11" style="stroke:#181818;stroke-width:1;"/><path d="M307.8584,28.6406 Q307.2803,28.9375 306.6396,29.0781 Q305.999,29.2344 305.2959,29.2344 Q302.7959,29.2344 301.4678,27.5938 Q300.1553,25.9375 300.1553,22.8125 Q300.1553,19.6875 301.4678,18.0313 Q302.7959,16.375 305.2959,16.375 Q305.999,16.375 306.6396,16.5313 Q307.2959,16.6875 307.8584,16.9844 L307.8584,19.7031 Q307.2334,19.125 306.6396,18.8594 Q306.0459,18.5781 305.4209,18.5781 Q304.0771,18.5781 303.3896,19.6563 Q302.7021,20.7188 302.7021,22.8125 Q302.7021,24.9063 303.3896,25.9844 Q304.0771,27.0469 305.4209,27.0469 Q306.0459,27.0469 306.6396,26.7813 Q307.2334,26.5 307.8584,25.9219 L307.8584,28.6406 Z " fill="#000000"/><text fill="#000000" font-family="sans-serif" font-size="14" lengthAdjust="spacing" textLength="51.6045" x="325.3896" y="27.8467">Display</text><line style="stroke:#181818;stroke-width:0.5;" x1="183" x2="486.8838" y1="39" y2="39"/><rect fill="none" height="6" style="stroke:#C82930;stroke-width:1;" width="6" x="190" y="49.6484"/><text fill="#000000" font-family="sans-serif" font-size="14" lengthAdjust="spacing" textLength="104.2275" x="202" y="55.9951">frame1: Frame</text><rect fill="none" height="6" style="stroke:#C82930;stroke-width:1;" width="6" x="190" y="65.9453"/><text fill="#000000" font-family="sans-serif" font-size="14" lengthAdjust="spacing" textLength="104.2275" x="202" y="72.292">frame2: Frame</text><rect fill="none" height="6" style="stroke:#C82930;stroke-width:1;" width="6" x="190" y="82.2422"/><text fill="#000000" font-family="sans-serif" font-size="14" lengthAdjust="spacing" textLength="123.1152" x="202" y="88.5889">currentFrame: int</text><line style="stroke:#181818;stroke-width:0.5;" x1="183" x2="486.8838" y1="95.8906" y2="95.8906"/><ellipse cx="193" cy="109.5391" fill="#84BE84" rx="3" ry="3" style="stroke:#038048;stroke-width:1;"/><text fill="#000000" font-family="sans-serif" font-size="14" lengthAdjust="spacing" textLength="279.8838" x="202" y="112.8857">Display(frame1: Frame, frame2: Frame)</text><ellipse cx="193" cy="125.8359" fill="#84BE84" rx="3" ry="3" style="stroke:#038048;stroke-width:1;"/><text fill="#000000" font-family="sans-serif" font-size="14" lengthAdjust="spacing" textLength="139.0498" x="202" y="129.1826">switchFrame(): void</text><ellipse cx="193" cy="142.1328" fill="#84BE84" rx="3" ry="3" style="stroke:#038048;stroke-width:1;"/><text fill="#000000" font-family="sans-serif" font-size="14" lengthAdjust="spacing" textLength="150.6504" x="202" y="145.4795">updateDisplay(): void</text><ellipse cx="193" cy="158.4297" fill="#84BE84" rx="3" ry="3" style="stroke:#038048;stroke-width:1;"/><text fill="#000000" font-family="sans-serif" font-size="14" lengthAdjust="spacing" textLength="184.9395" x="202" y="161.7764">combineFrames(): char[][]</text></g><!--class Frame--><g id="elem_Frame"><rect codeLine="11" fill="#F1F1F1" height="162.0781" id="Frame" rx="2.5" ry="2.5" style="stroke:#181818;stroke-width:0.5;" width="293.9893" x="7" y="246"/><ellipse cx="127.4253" cy="262" fill="#ADD1B2" rx="11" ry="11" style="stroke:#181818;stroke-width:1;"/><path d="M130.394,267.6406 Q129.8159,267.9375 129.1753,268.0781 Q128.5347,268.2344 127.8315,268.2344 Q125.3315,268.2344 124.0034,266.5938 Q122.6909,264.9375 122.6909,261.8125 Q122.6909,258.6875 124.0034,257.0313 Q125.3315,255.375 127.8315,255.375 Q128.5347,255.375 129.1753,255.5313 Q129.8315,255.6875 130.394,255.9844 L130.394,258.7031 Q129.769,258.125 129.1753,257.8594 Q128.5815,257.5781 127.9565,257.5781 Q126.6128,257.5781 125.9253,258.6563 Q125.2378,259.7188 125.2378,261.8125 Q125.2378,263.9063 125.9253,264.9844 Q126.6128,266.0469 127.9565,266.0469 Q128.5815,266.0469 129.1753,265.7813 Q129.769,265.5 130.394,264.9219 L130.394,267.6406 Z " fill="#000000"/><text fill="#000000" font-family="sans-serif" font-size="14" lengthAdjust="spacing" textLength="44.6387" x="147.9253" y="266.8467">Frame</text><line style="stroke:#181818;stroke-width:0.5;" x1="8" x2="299.9893" y1="278" y2="278"/><rect fill="none" height="6" style="stroke:#C82930;stroke-width:1;" width="6" x="15" y="288.6484"/><text fill="#000000" font-family="sans-serif" font-size="14" lengthAdjust="spacing" textLength="131.127" x="27" y="294.9951">pixelData: Pixel[][]</text><rect fill="none" height="6" style="stroke:#C82930;stroke-width:1;" width="6" x="15" y="304.9453"/><text fill="#000000" font-family="sans-serif" font-size="14" lengthAdjust="spacing" textLength="66.0078" x="27" y="311.292">width: int</text><rect fill="none" height="6" style="stroke:#C82930;stroke-width:1;" width="6" x="15" y="321.2422"/><text fill="#000000" font-family="sans-serif" font-size="14" lengthAdjust="spacing" textLength="72.0439" x="27" y="327.5889">height: int</text><line style="stroke:#181818;stroke-width:0.5;" x1="8" x2="299.9893" y1="334.8906" y2="334.8906"/><ellipse cx="18" cy="348.5391" fill="#84BE84" rx="3" ry="3" style="stroke:#038048;stroke-width:1;"/><text fill="#000000" font-family="sans-serif" font-size="14" lengthAdjust="spacing" textLength="202.5146" x="27" y="351.8857">Frame(width: int, height: int)</text><ellipse cx="18" cy="364.8359" fill="#84BE84" rx="3" ry="3" style="stroke:#038048;stroke-width:1;"/><text fill="#000000" font-family="sans-serif" font-size="14" lengthAdjust="spacing" textLength="267.9893" x="27" y="368.1826">setPixel(x: int, y: int, color: char): void</text><ellipse cx="18" cy="381.1328" fill="#84BE84" rx="3" ry="3" style="stroke:#038048;stroke-width:1;"/><text fill="#000000" font-family="sans-serif" font-size="14" lengthAdjust="spacing" textLength="187.4141" x="27" y="384.4795">getPixel(x: int, y: int): char</text><ellipse cx="18" cy="397.4297" fill="#84BE84" rx="3" ry="3" style="stroke:#038048;stroke-width:1;"/><text fill="#000000" font-family="sans-serif" font-size="14" lengthAdjust="spacing" textLength="96.2158" x="27" y="400.7764">render(): void</text></g><!--class Pixel--><g id="elem_Pixel"><rect codeLine="21" fill="#F1F1F1" height="145.7813" id="Pixel" rx="2.5" ry="2.5" style="stroke:#181818;stroke-width:0.5;" width="233.7988" x="37" y="485"/><ellipse cx="133.0894" cy="501" fill="#ADD1B2" rx="11" ry="11" style="stroke:#181818;stroke-width:1;"/><path d="M136.0581,506.6406 Q135.48,506.9375 134.8394,507.0781 Q134.1987,507.2344 133.4956,507.2344 Q130.9956,507.2344 129.6675,505.5938 Q128.355,503.9375 128.355,500.8125 Q128.355,497.6875 129.6675,496.0313 Q130.9956,494.375 133.4956,494.375 Q134.1987,494.375 134.8394,494.5313 Q135.4956,494.6875 136.0581,494.9844 L136.0581,497.7031 Q135.4331,497.125 134.8394,496.8594 Q134.2456,496.5781 133.6206,496.5781 Q132.2769,496.5781 131.5894,497.6563 Q130.9019,498.7188 130.9019,500.8125 Q130.9019,502.9063 131.5894,503.9844 Q132.2769,505.0469 133.6206,505.0469 Q134.2456,505.0469 134.8394,504.7813 Q135.4331,504.5 136.0581,503.9219 L136.0581,506.6406 Z " fill="#000000"/><text fill="#000000" font-family="sans-serif" font-size="14" lengthAdjust="spacing" textLength="33.1201" x="153.5894" y="505.8467">Pixel</text><line style="stroke:#181818;stroke-width:0.5;" x1="38" x2="269.7988" y1="517" y2="517"/><rect fill="none" height="6" style="stroke:#C82930;stroke-width:1;" width="6" x="45" y="527.6484"/><text fill="#000000" font-family="sans-serif" font-size="14" lengthAdjust="spacing" textLength="35.7041" x="57" y="533.9951">x: int</text><rect fill="none" height="6" style="stroke:#C82930;stroke-width:1;" width="6" x="45" y="543.9453"/><text fill="#000000" font-family="sans-serif" font-size="14" lengthAdjust="spacing" textLength="35.7041" x="57" y="550.292">y: int</text><rect fill="none" height="6" style="stroke:#C82930;stroke-width:1;" width="6" x="45" y="560.2422"/><text fill="#000000" font-family="sans-serif" font-size="14" lengthAdjust="spacing" textLength="74.5459" x="57" y="566.5889">color: char</text><line style="stroke:#181818;stroke-width:0.5;" x1="38" x2="269.7988" y1="573.8906" y2="573.8906"/><ellipse cx="48" cy="587.5391" fill="#84BE84" rx="3" ry="3" style="stroke:#038048;stroke-width:1;"/><text fill="#000000" font-family="sans-serif" font-size="14" lengthAdjust="spacing" textLength="207.7988" x="57" y="590.8857">Pixel(x: int, y: int, color: char)</text><ellipse cx="48" cy="603.8359" fill="#84BE84" rx="3" ry="3" style="stroke:#038048;stroke-width:1;"/><text fill="#000000" font-family="sans-serif" font-size="14" lengthAdjust="spacing" textLength="182.2119" x="57" y="607.1826">setColor(color: char): void</text><ellipse cx="48" cy="620.1328" fill="#84BE84" rx="3" ry="3" style="stroke:#038048;stroke-width:1;"/><text fill="#000000" font-family="sans-serif" font-size="14" lengthAdjust="spacing" textLength="110.5371" x="57" y="623.4795">getColor(): char</text></g><!--class TemporalOverlay--><g id="elem_TemporalOverlay"><rect codeLine="30" fill="#F1F1F1" height="96.8906" id="TemporalOverlay" rx="2.5" ry="2.5" style="stroke:#181818;stroke-width:0.5;" width="356.8115" x="336.5" y="278.5"/><ellipse cx="450.2021" cy="294.5" fill="#ADD1B2" rx="11" ry="11" style="stroke:#181818;stroke-width:1;"/><path d="M453.1709,300.1406 Q452.5928,300.4375 451.9521,300.5781 Q451.3115,300.7344 450.6084,300.7344 Q448.1084,300.7344 446.7803,299.0938 Q445.4678,297.4375 445.4678,294.3125 Q445.4678,291.1875 446.7803,289.5313 Q448.1084,287.875 450.6084,287.875 Q451.3115,287.875 451.9521,288.0313 Q452.6084,288.1875 453.1709,288.4844 L453.1709,291.2031 Q452.5459,290.625 451.9521,290.3594 Q451.3584,290.0781 450.7334,290.0781 Q449.3896,290.0781 448.7021,291.1563 Q448.0146,292.2188 448.0146,294.3125 Q448.0146,296.4063 448.7021,297.4844 Q449.3896,298.5469 450.7334,298.5469 Q451.3584,298.5469 451.9521,298.2813 Q452.5459,298 453.1709,297.4219 L453.1709,300.1406 Z " fill="#000000"/><text fill="#000000" font-family="sans-serif" font-size="14" lengthAdjust="spacing" textLength="120.9072" x="470.7021" y="299.3467">TemporalOverlay</text><line style="stroke:#181818;stroke-width:0.5;" x1="337.5" x2="692.3115" y1="310.5" y2="310.5"/><rect fill="none" height="6" style="stroke:#C82930;stroke-width:1;" width="6" x="344.5" y="321.1484"/><text fill="#000000" font-family="sans-serif" font-size="14" lengthAdjust="spacing" textLength="298.6895" x="356.5" y="327.4951">colorTable: Map&lt;char, Map&lt;char, char&gt;&gt;</text><line style="stroke:#181818;stroke-width:0.5;" x1="337.5" x2="692.3115" y1="334.7969" y2="334.7969"/><ellipse cx="347.5" cy="348.4453" fill="#84BE84" rx="3" ry="3" style="stroke:#038048;stroke-width:1;"/><text fill="#000000" font-family="sans-serif" font-size="14" lengthAdjust="spacing" textLength="131.8311" x="356.5" y="351.792">TemporalOverlay()</text><ellipse cx="347.5" cy="364.7422" fill="#84BE84" rx="3" ry="3" style="stroke:#038048;stroke-width:1;"/><text fill="#000000" font-family="sans-serif" font-size="14" lengthAdjust="spacing" textLength="330.8115" x="356.5" y="368.0889">combineColors(color1: char, color2: char): char</text></g><!--link Display to Frame--><g id="link_Display_Frame"><path codeLine="36" d="M273.72,169.24 C254.85,193.95 237.7203,216.3705 218.8603,241.0805 " fill="none" id="Display-to-Frame" style="stroke:#181818;stroke-width:1;"/><polygon fill="#181818" points="215.22,245.85,223.8602,241.1227,218.2536,241.8754,217.5008,236.2689,215.22,245.85" style="stroke:#181818;stroke-width:1;"/><text fill="#000000" font-family="sans-serif" font-size="13" lengthAdjust="spacing" textLength="38.9619" x="251" y="212.0669">utiliza</text></g><!--link Display to TemporalOverlay--><g id="link_Display_TemporalOverlay"><path codeLine="37" d="M395.94,169.24 C423.48,205.5 451.4509,242.3319 475.1709,273.5619 " fill="none" id="Display-to-TemporalOverlay" style="stroke:#181818;stroke-width:1;"/><polygon fill="#181818" points="478.8,278.34,476.5418,268.7535,475.7758,274.3583,470.171,273.5923,478.8,278.34" style="stroke:#181818;stroke-width:1;"/><text fill="#000000" font-family="sans-serif" font-size="13" lengthAdjust="spacing" textLength="38.9619" x="432" y="212.0669">utiliza</text></g><!--link Frame to Pixel--><g id="link_Frame_Pixel"><path codeLine="38" d="M154,408.09 C154,433.11 154,454.55 154,478.98 " fill="none" id="Frame-to-Pixel" style="stroke:#181818;stroke-width:1;"/><polygon fill="#181818" points="154,484.98,158,475.98,154,479.98,150,475.98,154,484.98" style="stroke:#181818;stroke-width:1;"/><text fill="#000000" font-family="sans-serif" font-size="13" lengthAdjust="spacing" textLength="56.2847" x="155" y="451.0669">contiene</text></g><!--SRC=[XL8zRuCm5Dpv5Hv1XI4PKSNIg5lK3jcY38vv3POCHhP9857_U_47newgbW6RT_VET-OHXgL4EofxXYVqID3y5EXBu1Os9NhNQrZRnZKo206TCgKIqKwP-ikYbqOwUIoHEQwyKKKQKqgp4bqvhHqoz3LMi6Z56E7jcNPWsgJ6I8F5yNGy9Tz9GameW_b8FHs1xR329VhKMyErq8tMgbdj5wW1UcbK6CZQMubvoF59G1dfT7ISoQs4CowinJZ5vVSE5yUHvXkkGVZyFf_fzFd6CC0KVWIdEyN_NQw9tdGr_Ik1PIoUlRq3j3qNc7rSGOIpPQGE-CpcYTdZ_bLtvS5ElwlAoJ-9f5dy-ytHqhhRM0CknzQRNLmjCruKbHkD4WsACdh74VRiUsNPBisnLpzhyqvHwE07]--></g></svg>