<svg xmlns="http://www.w3.org/2000/svg" xmlns:xlink="http://www.w3.org/1999/xlink" contentStyleType="text/css" data-diagram-type="CLASS" height="636px" preserveAspectRatio="none" style="width:439px;height:636px;background:#FFFFFF;" version="1.1" viewBox="0 0 439 636" width="439px" zoomAndPan="magnify"><defs/><g><!--class Pantalla--><g id="elem_Pantalla"><rect codeLine="1" fill="#F1F1F1" height="227.2656" id="Pantalla" rx="2.5" ry="2.5" style="stroke:#181818;stroke-width:0.5;" width="425.123" x="7" y="7"/><ellipse cx="187.1509" cy="23" fill="#ADD1B2" rx="11" ry="11" style="stroke:#181818;stroke-width:1;"/><path d="M190.1196,28.6406 Q189.5415,28.9375 188.9009,29.0781 Q188.2603,29.2344 187.5571,29.2344 Q185.0571,29.2344 183.729,27.5938 Q182.4165,25.9375 182.4165,22.8125 Q182.4165,19.6875 183.729,18.0313 Q185.0571,16.375 187.5571,16.375 Q188.2603,16.375 188.9009,16.5313 Q189.5571,16.6875 190.1196,16.9844 L190.1196,19.7031 Q189.4946,19.125 188.9009,18.8594 Q188.3071,18.5781 187.6821,18.5781 Q186.3384,18.5781 185.6509,19.6563 Q184.9634,20.7188 184.9634,22.8125 Q184.9634,24.9063 185.6509,25.9844 Q186.3384,27.0469 187.6821,27.0469 Q188.3071,27.0469 188.9009,26.7813 Q189.4946,26.5 190.1196,25.9219 L190.1196,28.6406 Z " fill="#000000"/><text fill="#000000" font-family="sans-serif" font-size="14" lengthAdjust="spacing" textLength="56.3213" x="207.6509" y="27.8467">Pantalla</text><line style="stroke:#181818;stroke-width:0.5;" x1="8" x2="431.123" y1="39" y2="39"/><rect fill="#FFFFFF" fill-opacity="0.00000" height="6" style="stroke:#C82930;stroke-width:1;" width="6" x="15" y="49.6484"/><text fill="#000000" font-family="sans-serif" font-size="14" lengthAdjust="spacing" textLength="116.7783" x="27" y="55.9951">Frame[] pantalla</text><rect fill="#FFFFFF" fill-opacity="0.00000" height="6" style="stroke:#C82930;stroke-width:1;" width="6" x="15" y="65.9453"/><text fill="#000000" font-family="sans-serif" font-size="14" lengthAdjust="spacing" textLength="108.3223" x="27" y="72.292">int frameActual</text><rect fill="#FFFFFF" fill-opacity="0.00000" height="6" style="stroke:#C82930;stroke-width:1;" width="6" x="15" y="82.2422"/><text fill="#000000" font-family="sans-serif" font-size="14" lengthAdjust="spacing" textLength="134.6816" x="27" y="88.5889">final int WIDTH = 7</text><rect fill="#FFFFFF" fill-opacity="0.00000" height="6" style="stroke:#C82930;stroke-width:1;" width="6" x="15" y="98.5391"/><text fill="#000000" font-family="sans-serif" font-size="14" lengthAdjust="spacing" textLength="140.2803" x="27" y="104.8857">final int HEIGHT = 3</text><line style="stroke:#181818;stroke-width:1;" x1="8" x2="431.123" y1="112.1875" y2="112.1875"/><ellipse cx="18" cy="125.8359" fill="#84BE84" rx="3" ry="3" style="stroke:#038048;stroke-width:1;"/><text fill="#000000" font-family="sans-serif" font-size="14" lengthAdjust="spacing" textLength="67.2451" x="27" y="129.1826">Pantalla()</text><ellipse cx="18" cy="142.1328" fill="#84BE84" rx="3" ry="3" style="stroke:#038048;stroke-width:1;"/><text fill="#000000" font-family="sans-serif" font-size="14" lengthAdjust="spacing" textLength="225.0801" x="27" y="145.4795">void mostrarFrame(int posicion)</text><ellipse cx="18" cy="158.4297" fill="#84BE84" rx="3" ry="3" style="stroke:#038048;stroke-width:1;"/><text fill="#000000" font-family="sans-serif" font-size="14" lengthAdjust="spacing" textLength="399.123" x="27" y="161.7764">void modificarPixel(int frame, int x, int y, int nuevoValor)</text><ellipse cx="18" cy="174.7266" fill="#84BE84" rx="3" ry="3" style="stroke:#038048;stroke-width:1;"/><text fill="#000000" font-family="sans-serif" font-size="14" lengthAdjust="spacing" textLength="152.9951" x="27" y="178.0732">void alternarColores()</text><ellipse cx="18" cy="191.0234" fill="#84BE84" rx="3" ry="3" style="stroke:#038048;stroke-width:1;"/><text fill="#000000" font-family="sans-serif" font-size="14" lengthAdjust="spacing" textLength="162.8184" x="27" y="194.3701">void combinarFrames()</text><rect fill="#F24D5C" height="6" style="stroke:#C82930;stroke-width:1;" width="6" x="15" y="204.3203"/><text fill="#000000" font-family="sans-serif" font-size="14" lengthAdjust="spacing" textLength="169.6611" x="27" y="210.667">String simbolo(int valor)</text><rect fill="#F24D5C" height="6" style="stroke:#C82930;stroke-width:1;" width="6" x="15" y="220.6172"/><text fill="#000000" font-family="sans-serif" font-size="14" lengthAdjust="spacing" textLength="328.9248" x="27" y="226.9639">String combinarSimbolos(int valor1, int valor2)</text></g><!--class Frame--><g id="elem_Frame"><rect codeLine="16" fill="#F1F1F1" height="162.0781" id="Frame" rx="2.5" ry="2.5" style="stroke:#181818;stroke-width:0.5;" width="352.0059" x="43.56" y="294.26"/><ellipse cx="192.9936" cy="310.26" fill="#ADD1B2" rx="11" ry="11" style="stroke:#181818;stroke-width:1;"/><path d="M195.9623,315.9006 Q195.3842,316.1975 194.7436,316.3381 Q194.103,316.4944 193.3998,316.4944 Q190.8998,316.4944 189.5717,314.8538 Q188.2592,313.1975 188.2592,310.0725 Q188.2592,306.9475 189.5717,305.2913 Q190.8998,303.635 193.3998,303.635 Q194.103,303.635 194.7436,303.7913 Q195.3998,303.9475 195.9623,304.2444 L195.9623,306.9631 Q195.3373,306.385 194.7436,306.1194 Q194.1498,305.8381 193.5248,305.8381 Q192.1811,305.8381 191.4936,306.9163 Q190.8061,307.9788 190.8061,310.0725 Q190.8061,312.1663 191.4936,313.2444 Q192.1811,314.3069 193.5248,314.3069 Q194.1498,314.3069 194.7436,314.0413 Q195.3373,313.76 195.9623,313.1819 L195.9623,315.9006 Z " fill="#000000"/><text fill="#000000" font-family="sans-serif" font-size="14" lengthAdjust="spacing" textLength="44.6387" x="213.4936" y="315.1067">Frame</text><line style="stroke:#181818;stroke-width:0.5;" x1="44.56" x2="394.5659" y1="326.26" y2="326.26"/><rect fill="#FFFFFF" fill-opacity="0.00000" height="6" style="stroke:#C82930;stroke-width:1;" width="6" x="51.56" y="336.9084"/><text fill="#000000" font-family="sans-serif" font-size="14" lengthAdjust="spacing" textLength="100.9326" x="63.56" y="343.2551">Pixel[][] frame</text><rect fill="#FFFFFF" fill-opacity="0.00000" height="6" style="stroke:#C82930;stroke-width:1;" width="6" x="51.56" y="353.2053"/><text fill="#000000" font-family="sans-serif" font-size="14" lengthAdjust="spacing" textLength="61.291" x="63.56" y="359.552">int width</text><rect fill="#FFFFFF" fill-opacity="0.00000" height="6" style="stroke:#C82930;stroke-width:1;" width="6" x="51.56" y="369.5022"/><text fill="#000000" font-family="sans-serif" font-size="14" lengthAdjust="spacing" textLength="67.3271" x="63.56" y="375.8489">int height</text><line style="stroke:#181818;stroke-width:1;" x1="44.56" x2="394.5659" y1="383.1506" y2="383.1506"/><ellipse cx="54.56" cy="396.7991" fill="#84BE84" rx="3" ry="3" style="stroke:#038048;stroke-width:1;"/><text fill="#000000" font-family="sans-serif" font-size="14" lengthAdjust="spacing" textLength="193.0811" x="63.56" y="400.1457">Frame(int width, int height)</text><ellipse cx="54.56" cy="413.0959" fill="#84BE84" rx="3" ry="3" style="stroke:#038048;stroke-width:1;"/><text fill="#000000" font-family="sans-serif" font-size="14" lengthAdjust="spacing" textLength="326.0059" x="63.56" y="416.4426">void modificarPixel(int x, int y, int nuevoValor)</text><ellipse cx="54.56" cy="429.3928" fill="#84BE84" rx="3" ry="3" style="stroke:#038048;stroke-width:1;"/><text fill="#000000" font-family="sans-serif" font-size="14" lengthAdjust="spacing" textLength="169.7773" x="63.56" y="432.7395">Pixel[][] obtenerFrame()</text><ellipse cx="54.56" cy="445.6897" fill="#84BE84" rx="3" ry="3" style="stroke:#038048;stroke-width:1;"/><text fill="#000000" font-family="sans-serif" font-size="14" lengthAdjust="spacing" textLength="104.3438" x="63.56" y="449.0364">void imprimir()</text></g><!--class Pixel--><g id="elem_Pixel"><rect codeLine="27" fill="#F1F1F1" height="113.1875" id="Pixel" rx="2.5" ry="2.5" style="stroke:#181818;stroke-width:0.5;" width="180.0342" x="129.54" y="516.34"/><ellipse cx="198.747" cy="532.34" fill="#ADD1B2" rx="11" ry="11" style="stroke:#181818;stroke-width:1;"/><path d="M201.7158,537.9806 Q201.1377,538.2775 200.497,538.4181 Q199.8564,538.5744 199.1533,538.5744 Q196.6533,538.5744 195.3252,536.9337 Q194.0127,535.2775 194.0127,532.1525 Q194.0127,529.0275 195.3252,527.3712 Q196.6533,525.715 199.1533,525.715 Q199.8564,525.715 200.497,525.8712 Q201.1533,526.0275 201.7158,526.3244 L201.7158,529.0431 Q201.0908,528.465 200.497,528.1994 Q199.9033,527.9181 199.2783,527.9181 Q197.9345,527.9181 197.247,528.9962 Q196.5595,530.0587 196.5595,532.1525 Q196.5595,534.2462 197.247,535.3244 Q197.9345,536.3869 199.2783,536.3869 Q199.9033,536.3869 200.497,536.1212 Q201.0908,535.84 201.7158,535.2619 L201.7158,537.9806 Z " fill="#000000"/><text fill="#000000" font-family="sans-serif" font-size="14" lengthAdjust="spacing" textLength="33.1201" x="219.247" y="537.1867">Pixel</text><line style="stroke:#181818;stroke-width:0.5;" x1="130.54" x2="308.5742" y1="548.34" y2="548.34"/><rect fill="#FFFFFF" fill-opacity="0.00000" height="6" style="stroke:#C82930;stroke-width:1;" width="6" x="137.54" y="558.9884"/><text fill="#000000" font-family="sans-serif" font-size="14" lengthAdjust="spacing" textLength="54.2227" x="149.54" y="565.3351">int dato</text><line style="stroke:#181818;stroke-width:1;" x1="130.54" x2="308.5742" y1="572.6369" y2="572.6369"/><ellipse cx="140.54" cy="586.2853" fill="#84BE84" rx="3" ry="3" style="stroke:#038048;stroke-width:1;"/><text fill="#000000" font-family="sans-serif" font-size="14" lengthAdjust="spacing" textLength="44.0439" x="149.54" y="589.632">Pixel()</text><ellipse cx="140.54" cy="602.5822" fill="#84BE84" rx="3" ry="3" style="stroke:#038048;stroke-width:1;"/><text fill="#000000" font-family="sans-serif" font-size="14" lengthAdjust="spacing" textLength="121.8369" x="149.54" y="605.9289">int obtenerDato()</text><ellipse cx="140.54" cy="618.8791" fill="#84BE84" rx="3" ry="3" style="stroke:#038048;stroke-width:1;"/><text fill="#000000" font-family="sans-serif" font-size="14" lengthAdjust="spacing" textLength="154.0342" x="149.54" y="622.2257">void setDato(int dato)</text></g><!--link Pantalla to Frame--><g id="link_Pantalla_Frame"><path codeLine="35" d="M219.56,234.66 C219.56,254.64 219.56,269.06 219.56,287.9 " fill="#FFFFFF" fill-opacity="0.00000" id="Pantalla-to-Frame" style="stroke:#181818;stroke-width:1;"/><polygon fill="#181818" points="219.56,293.9,223.56,284.9,219.56,288.9,215.56,284.9,219.56,293.9" style="stroke:#181818;stroke-width:1;"/></g><!--link Frame to Pixel--><g id="link_Frame_Pixel"><path codeLine="36" d="M219.56,456.72 C219.56,476.64 219.56,491.55 219.56,510.01 " fill="#FFFFFF" fill-opacity="0.00000" id="Frame-to-Pixel" style="stroke:#181818;stroke-width:1;"/><polygon fill="#181818" points="219.56,516.01,223.56,507.01,219.56,511.01,215.56,507.01,219.56,516.01" style="stroke:#181818;stroke-width:1;"/></g><!--SRC=[XL8zJyCm4DtpApoceXc0WGaaH85qgzGAXgh39N6QanmxijrGXFZlE6VdgmpDulZUk_Vkmxa0OzW6f0KXWFr4p7q9UzDGy_s1DG48OPIMbHtqdDiJY10jKO8Wx7EzsgNiaJtyGzBNzNkwSz2zXn8wRWRdU142hSA2rSfO3PggYBlqHXdCKSaBLe4bvg0tUEOY7efRakFP7z_-a2VUgWyGIiyaG5Yk9UWNvH1kvbNagivS0xwC7alOrcgKHsQmpbmMsRQZy83tsLlFCoFnrfT4_tUBw3UASje2-GmheARs1xS4QcgoWIyiR3MvLnoFbPtFTHmTiPSJuhKPNXlSM9ZAB9Syh6acYtMZiKOTJzgZlA6zJhi0gowU0rNHItMSuB5orBc5uPQ2lH0v3GyvIPxy328_rUvEudy0]--></g></svg>