<svg xmlns="http://www.w3.org/2000/svg" xmlns:xlink="http://www.w3.org/1999/xlink" contentStyleType="text/css" data-diagram-type="CLASS" height="473px" preserveAspectRatio="none" style="width:333px;height:473px;background:#FFFFFF;" version="1.1" viewBox="0 0 333 473" width="333px" zoomAndPan="magnify"><defs/><g><!--class Pixel--><g id="elem_Pixel"><rect codeLine="1" fill="#F1F1F1" height="96.8906" id="Pixel" rx="2.5" ry="2.5" style="stroke:#181818;stroke-width:0.5;" width="138.5537" x="97.37" y="369.67"/><ellipse cx="145.8368" cy="385.67" fill="#ADD1B2" rx="11" ry="11" style="stroke:#181818;stroke-width:1;"/><path d="M148.8055,391.3106 Q148.2274,391.6075 147.5868,391.7481 Q146.9462,391.9044 146.243,391.9044 Q143.743,391.9044 142.4149,390.2638 Q141.1024,388.6075 141.1024,385.4825 Q141.1024,382.3575 142.4149,380.7013 Q143.743,379.045 146.243,379.045 Q146.9462,379.045 147.5868,379.2013 Q148.243,379.3575 148.8055,379.6544 L148.8055,382.3731 Q148.1805,381.795 147.5868,381.5294 Q146.993,381.2481 146.368,381.2481 Q145.0243,381.2481 144.3368,382.3263 Q143.6493,383.3888 143.6493,385.4825 Q143.6493,387.5763 144.3368,388.6544 Q145.0243,389.7169 146.368,389.7169 Q146.993,389.7169 147.5868,389.4513 Q148.1805,389.17 148.8055,388.5919 L148.8055,391.3106 Z " fill="#000000"/><text fill="#000000" font-family="sans-serif" font-size="14" lengthAdjust="spacing" textLength="33.1201" x="166.3368" y="390.5167">Pixel</text><line style="stroke:#181818;stroke-width:0.5;" x1="98.37" x2="234.9237" y1="401.67" y2="401.67"/><text fill="#000000" font-family="sans-serif" font-size="14" lengthAdjust="spacing" textLength="58.9395" x="103.37" y="418.6651">int dato;</text><line style="stroke:#181818;stroke-width:0.5;" x1="98.37" x2="234.9237" y1="425.9669" y2="425.9669"/><text fill="#000000" font-family="sans-serif" font-size="14" lengthAdjust="spacing" textLength="126.5537" x="103.37" y="442.962">int obtenerDato();</text><text fill="#000000" font-family="sans-serif" font-size="14" lengthAdjust="spacing" textLength="99.8115" x="103.37" y="459.2589">void setDato()</text></g><!--class Frame--><g id="elem_Frame"><rect codeLine="7" fill="#F1F1F1" height="96.8906" id="Frame" rx="2.5" ry="2.5" style="stroke:#181818;stroke-width:0.5;" width="319.2959" x="7" y="212.78"/><ellipse cx="140.0786" cy="228.78" fill="#ADD1B2" rx="11" ry="11" style="stroke:#181818;stroke-width:1;"/><path d="M143.0474,234.4206 Q142.4692,234.7175 141.8286,234.8581 Q141.188,235.0144 140.4849,235.0144 Q137.9849,235.0144 136.6567,233.3738 Q135.3442,231.7175 135.3442,228.5925 Q135.3442,225.4675 136.6567,223.8113 Q137.9849,222.155 140.4849,222.155 Q141.188,222.155 141.8286,222.3113 Q142.4849,222.4675 143.0474,222.7644 L143.0474,225.4831 Q142.4224,224.905 141.8286,224.6394 Q141.2349,224.3581 140.6099,224.3581 Q139.2661,224.3581 138.5786,225.4363 Q137.8911,226.4988 137.8911,228.5925 Q137.8911,230.6863 138.5786,231.7644 Q139.2661,232.8269 140.6099,232.8269 Q141.2349,232.8269 141.8286,232.5613 Q142.4224,232.28 143.0474,231.7019 L143.0474,234.4206 Z " fill="#000000"/><text fill="#000000" font-family="sans-serif" font-size="14" lengthAdjust="spacing" textLength="44.6387" x="160.5786" y="233.6267">Frame</text><line style="stroke:#181818;stroke-width:0.5;" x1="8" x2="325.2959" y1="244.78" y2="244.78"/><text fill="#000000" font-family="sans-serif" font-size="14" lengthAdjust="spacing" textLength="94.7256" x="13" y="261.7751">Pixel[] frame;</text><line style="stroke:#181818;stroke-width:0.5;" x1="8" x2="325.2959" y1="269.0769" y2="269.0769"/><text fill="#000000" font-family="sans-serif" font-size="14" lengthAdjust="spacing" textLength="307.2959" x="13" y="286.072">void modificarPixel(int pos, int nuevoValor);</text><text fill="#000000" font-family="sans-serif" font-size="14" lengthAdjust="spacing" textLength="163.5703" x="13" y="302.3689">Pixel[] obtenerFrame();</text></g><!--class Pantalla--><g id="elem_Pantalla"><rect codeLine="13" fill="#F1F1F1" height="145.7813" id="Pantalla" rx="2.5" ry="2.5" style="stroke:#181818;stroke-width:0.5;" width="289.2998" x="22" y="7"/><ellipse cx="134.2393" cy="23" fill="#ADD1B2" rx="11" ry="11" style="stroke:#181818;stroke-width:1;"/><path d="M137.208,28.6406 Q136.6299,28.9375 135.9893,29.0781 Q135.3486,29.2344 134.6455,29.2344 Q132.1455,29.2344 130.8174,27.5938 Q129.5049,25.9375 129.5049,22.8125 Q129.5049,19.6875 130.8174,18.0313 Q132.1455,16.375 134.6455,16.375 Q135.3486,16.375 135.9893,16.5313 Q136.6455,16.6875 137.208,16.9844 L137.208,19.7031 Q136.583,19.125 135.9893,18.8594 Q135.3955,18.5781 134.7705,18.5781 Q133.4268,18.5781 132.7393,19.6563 Q132.0518,20.7188 132.0518,22.8125 Q132.0518,24.9063 132.7393,25.9844 Q133.4268,27.0469 134.7705,27.0469 Q135.3955,27.0469 135.9893,26.7813 Q136.583,26.5 137.208,25.9219 L137.208,28.6406 Z " fill="#000000"/><text fill="#000000" font-family="sans-serif" font-size="14" lengthAdjust="spacing" textLength="56.3213" x="154.7393" y="27.8467">Pantalla</text><line style="stroke:#181818;stroke-width:0.5;" x1="23" x2="310.2998" y1="39" y2="39"/><text fill="#000000" font-family="sans-serif" font-size="14" lengthAdjust="spacing" textLength="85.0801" x="28" y="55.9951">int posicion;</text><text fill="#000000" font-family="sans-serif" font-size="14" lengthAdjust="spacing" textLength="121.4951" x="28" y="72.292">Frame[] pantalla;</text><line style="stroke:#181818;stroke-width:0.5;" x1="23" x2="310.2998" y1="79.5938" y2="79.5938"/><text fill="#000000" font-family="sans-serif" font-size="14" lengthAdjust="spacing" textLength="164.4453" x="28" y="96.5889">Frame generarFrame();</text><text fill="#000000" font-family="sans-serif" font-size="14" lengthAdjust="spacing" textLength="231.3486" x="28" y="112.8857">void addFrame(generarFrame());</text><text fill="#000000" font-family="sans-serif" font-size="14" lengthAdjust="spacing" textLength="174.9111" x="28" y="129.1826">void imprimir(traducir());</text><text fill="#000000" font-family="sans-serif" font-size="14" lengthAdjust="spacing" textLength="277.2998" x="28" y="145.4795">Frame traducir(pantalla(0),pantalla(1));</text></g><!--link Frame to Pixel--><g id="link_Frame_Pixel"><path codeLine="22" d="M166.65,309.96 C166.65,328.8 166.65,344.41 166.65,363.27 " fill="#FFFFFF" fill-opacity="0.00000" id="Frame-to-Pixel" style="stroke:#181818;stroke-width:1;"/><polygon fill="#181818" points="166.65,369.27,170.65,360.27,166.65,364.27,162.65,360.27,166.65,369.27" style="stroke:#181818;stroke-width:1;"/></g><!--link Pantalla to Frame--><g id="link_Pantalla_Frame"><path codeLine="23" d="M166.65,153.06 C166.65,173.01 166.65,188.16 166.65,206.36 " fill="#FFFFFF" fill-opacity="0.00000" id="Pantalla-to-Frame" style="stroke:#181818;stroke-width:1;"/><polygon fill="#181818" points="166.65,212.36,170.65,203.36,166.65,207.36,162.65,203.36,166.65,212.36" style="stroke:#181818;stroke-width:1;"/></g><!--SRC=[LOyn2y8m48Nt_8gCBRIWi-0apfrSnE5CKZb8avAaHH3_kycbIN4xtdltlJkXmNi-u5lf3-CSJU0IWZrjitq6PPIxHAbfaxXQbDoha1NsPKmGuUfWKeb0gFk3Zqce6vELEA80HtQJqBFr7NMOHQts1jewQYY0hPh0gRjM3M02Q0tbtWX2WTQaPKh7vNdBL8s_4Wnst7OOI9cbVtyFu3GxdD0rmO5SH1oocQbLB8NDeUtgV6pptJdRz-Vy72iVa4Jc3m00]--></g></svg>