<svg xmlns="http://www.w3.org/2000/svg" xmlns:xlink="http://www.w3.org/1999/xlink" contentStyleType="text/css" height="711px" preserveAspectRatio="none" style="width:948px;height:711px;background:#FFFFFF;" version="1.1" viewBox="0 0 948 711" width="948px" zoomAndPan="magnify"><defs/><g><!--class Frame--><g id="elem_Frame"><rect codeLine="1" fill="#F1F1F1" height="129.4844" id="Frame" rx="2.5" ry="2.5" style="stroke:#181818;stroke-width:0.5;" width="313.9297" x="7" y="7"/><ellipse cx="137.3955" cy="23" fill="#ADD1B2" rx="11" ry="11" style="stroke:#181818;stroke-width:1;"/><path d="M140.3643,28.6406 Q139.7861,28.9375 139.1455,29.0781 Q138.5049,29.2344 137.8018,29.2344 Q135.3018,29.2344 133.9736,27.5938 Q132.6611,25.9375 132.6611,22.8125 Q132.6611,19.6875 133.9736,18.0313 Q135.3018,16.375 137.8018,16.375 Q138.5049,16.375 139.1455,16.5313 Q139.8018,16.6875 140.3643,16.9844 L140.3643,19.7031 Q139.7393,19.125 139.1455,18.8594 Q138.5518,18.5781 137.9268,18.5781 Q136.583,18.5781 135.8955,19.6563 Q135.208,20.7188 135.208,22.8125 Q135.208,24.9063 135.8955,25.9844 Q136.583,27.0469 137.9268,27.0469 Q138.5518,27.0469 139.1455,26.7813 Q139.7393,26.5 140.3643,25.9219 L140.3643,28.6406 Z " fill="#000000"/><text fill="#000000" font-family="sans-serif" font-size="14" lengthAdjust="spacing" textLength="44.6387" x="157.8955" y="27.8467">Frame</text><line style="stroke:#181818;stroke-width:0.5;" x1="8" x2="319.9297" y1="39" y2="39"/><rect fill="none" height="6" style="stroke:#C82930;stroke-width:1;" width="6" x="15" y="49.6484"/><text fill="#000000" font-family="sans-serif" font-size="14" lengthAdjust="spacing" textLength="108.9375" x="27" y="55.9951">String[][] pixels</text><line style="stroke:#181818;stroke-width:0.5;" x1="8" x2="319.9297" y1="63.2969" y2="63.2969"/><ellipse cx="18" cy="76.9453" fill="#84BE84" rx="3" ry="3" style="stroke:#038048;stroke-width:1;"/><text fill="#000000" font-family="sans-serif" font-size="14" lengthAdjust="spacing" textLength="193.0811" x="27" y="80.292">Frame(int width, int height)</text><ellipse cx="18" cy="93.2422" fill="#84BE84" rx="3" ry="3" style="stroke:#038048;stroke-width:1;"/><text fill="#000000" font-family="sans-serif" font-size="14" lengthAdjust="spacing" textLength="287.9297" x="27" y="96.5889">void updatePixel(int x, int y, String color)</text><ellipse cx="18" cy="109.5391" fill="#84BE84" rx="3" ry="3" style="stroke:#038048;stroke-width:1;"/><text fill="#000000" font-family="sans-serif" font-size="14" lengthAdjust="spacing" textLength="142.3037" x="27" y="112.8857">void fill(String color)</text><ellipse cx="18" cy="125.8359" fill="#84BE84" rx="3" ry="3" style="stroke:#038048;stroke-width:1;"/><text fill="#000000" font-family="sans-serif" font-size="14" lengthAdjust="spacing" textLength="94.7119" x="27" y="129.1826">void display()</text></g><!--class DoubleBuffer--><g id="elem_DoubleBuffer"><rect codeLine="9" fill="#F1F1F1" height="145.7813" id="DoubleBuffer" rx="2.5" ry="2.5" style="stroke:#181818;stroke-width:0.5;" width="266.7549" x="30.5" y="196"/><ellipse cx="113.4712" cy="212" fill="#ADD1B2" rx="11" ry="11" style="stroke:#181818;stroke-width:1;"/><path d="M116.4399,217.6406 Q115.8618,217.9375 115.2212,218.0781 Q114.5806,218.2344 113.8774,218.2344 Q111.3774,218.2344 110.0493,216.5938 Q108.7368,214.9375 108.7368,211.8125 Q108.7368,208.6875 110.0493,207.0313 Q111.3774,205.375 113.8774,205.375 Q114.5806,205.375 115.2212,205.5313 Q115.8774,205.6875 116.4399,205.9844 L116.4399,208.7031 Q115.8149,208.125 115.2212,207.8594 Q114.6274,207.5781 114.0024,207.5781 Q112.6587,207.5781 111.9712,208.6563 Q111.2837,209.7188 111.2837,211.8125 Q111.2837,213.9063 111.9712,214.9844 Q112.6587,216.0469 114.0024,216.0469 Q114.6274,216.0469 115.2212,215.7813 Q115.8149,215.5 116.4399,214.9219 L116.4399,217.6406 Z " fill="#000000"/><text fill="#000000" font-family="sans-serif" font-size="14" lengthAdjust="spacing" textLength="92.3125" x="133.9712" y="216.8467">DoubleBuffer</text><line style="stroke:#181818;stroke-width:0.5;" x1="31.5" x2="296.2549" y1="228" y2="228"/><rect fill="none" height="6" style="stroke:#C82930;stroke-width:1;" width="6" x="38.5" y="238.6484"/><text fill="#000000" font-family="sans-serif" font-size="14" lengthAdjust="spacing" textLength="99.9824" x="50.5" y="244.9951">Frame buffer1</text><rect fill="none" height="6" style="stroke:#C82930;stroke-width:1;" width="6" x="38.5" y="254.9453"/><text fill="#000000" font-family="sans-serif" font-size="14" lengthAdjust="spacing" textLength="99.9824" x="50.5" y="261.292">Frame buffer2</text><rect fill="none" height="6" style="stroke:#C82930;stroke-width:1;" width="6" x="38.5" y="271.2422"/><text fill="#000000" font-family="sans-serif" font-size="14" lengthAdjust="spacing" textLength="136.8145" x="50.5" y="277.5889">boolean useBuffer1</text><line style="stroke:#181818;stroke-width:0.5;" x1="31.5" x2="296.2549" y1="284.8906" y2="284.8906"/><ellipse cx="41.5" cy="298.5391" fill="#84BE84" rx="3" ry="3" style="stroke:#038048;stroke-width:1;"/><text fill="#000000" font-family="sans-serif" font-size="14" lengthAdjust="spacing" textLength="240.7549" x="50.5" y="301.8857">DoubleBuffer(int width, int height)</text><ellipse cx="41.5" cy="314.8359" fill="#84BE84" rx="3" ry="3" style="stroke:#038048;stroke-width:1;"/><text fill="#000000" font-family="sans-serif" font-size="14" lengthAdjust="spacing" textLength="131.209" x="50.5" y="318.1826">void swapBuffers()</text><ellipse cx="41.5" cy="331.1328" fill="#84BE84" rx="3" ry="3" style="stroke:#038048;stroke-width:1;"/><text fill="#000000" font-family="sans-serif" font-size="14" lengthAdjust="spacing" textLength="178.8418" x="50.5" y="334.4795">Frame getCurrentBuffer()</text></g><!--class ColorManager--><g id="elem_ColorManager"><rect codeLine="18" fill="#F1F1F1" height="80.5938" id="ColorManager" rx="2.5" ry="2.5" style="stroke:#181818;stroke-width:0.5;" width="340.9385" x="332.5" y="228.5"/><ellipse cx="449.7603" cy="244.5" fill="#ADD1B2" rx="11" ry="11" style="stroke:#181818;stroke-width:1;"/><path d="M452.729,250.1406 Q452.1509,250.4375 451.5103,250.5781 Q450.8696,250.7344 450.1665,250.7344 Q447.6665,250.7344 446.3384,249.0938 Q445.0259,247.4375 445.0259,244.3125 Q445.0259,241.1875 446.3384,239.5313 Q447.6665,237.875 450.1665,237.875 Q450.8696,237.875 451.5103,238.0313 Q452.1665,238.1875 452.729,238.4844 L452.729,241.2031 Q452.104,240.625 451.5103,240.3594 Q450.9165,240.0781 450.2915,240.0781 Q448.9478,240.0781 448.2603,241.1563 Q447.5728,242.2188 447.5728,244.3125 Q447.5728,246.4063 448.2603,247.4844 Q448.9478,248.5469 450.2915,248.5469 Q450.9165,248.5469 451.5103,248.2813 Q452.104,248 452.729,247.4219 L452.729,250.1406 Z " fill="#000000"/><text fill="#000000" font-family="sans-serif" font-size="14" lengthAdjust="spacing" textLength="97.918" x="470.2603" y="249.3467">ColorManager</text><line style="stroke:#181818;stroke-width:0.5;" x1="333.5" x2="672.4385" y1="260.5" y2="260.5"/><rect fill="none" height="6" style="stroke:#C82930;stroke-width:1;" width="6" x="340.5" y="271.1484"/><text fill="#000000" font-family="sans-serif" font-size="14" lengthAdjust="spacing" textLength="98.9229" x="352.5" y="277.4951">String[] colors</text><line style="stroke:#181818;stroke-width:0.5;" x1="333.5" x2="672.4385" y1="284.7969" y2="284.7969"/><ellipse cx="343.5" cy="298.4453" fill="#84BE84" rx="3" ry="3" style="stroke:#038048;stroke-width:1;"/><text fill="#000000" font-family="sans-serif" font-size="14" lengthAdjust="spacing" textLength="314.9385" x="352.5" y="301.792">String mixColors(String color1, String color2)</text></g><!--class PatternManager--><g id="elem_PatternManager"><rect codeLine="23" fill="#F1F1F1" height="113.1875" id="PatternManager" rx="2.5" ry="2.5" style="stroke:#181818;stroke-width:0.5;" width="232.3701" x="709" y="212.5"/><ellipse cx="764.6309" cy="228.5" fill="#ADD1B2" rx="11" ry="11" style="stroke:#181818;stroke-width:1;"/><path d="M767.5996,234.1406 Q767.0215,234.4375 766.3809,234.5781 Q765.7402,234.7344 765.0371,234.7344 Q762.5371,234.7344 761.209,233.0938 Q759.8965,231.4375 759.8965,228.3125 Q759.8965,225.1875 761.209,223.5313 Q762.5371,221.875 765.0371,221.875 Q765.7402,221.875 766.3809,222.0313 Q767.0371,222.1875 767.5996,222.4844 L767.5996,225.2031 Q766.9746,224.625 766.3809,224.3594 Q765.7871,224.0781 765.1621,224.0781 Q763.8184,224.0781 763.1309,225.1563 Q762.4434,226.2188 762.4434,228.3125 Q762.4434,230.4063 763.1309,231.4844 Q763.8184,232.5469 765.1621,232.5469 Q765.7871,232.5469 766.3809,232.2813 Q766.9746,232 767.5996,231.4219 L767.5996,234.1406 Z " fill="#000000"/><text fill="#000000" font-family="sans-serif" font-size="14" lengthAdjust="spacing" textLength="112.6084" x="785.1309" y="233.3467">PatternManager</text><line style="stroke:#181818;stroke-width:0.5;" x1="710" x2="940.3701" y1="244.5" y2="244.5"/><rect fill="none" height="6" style="stroke:#C82930;stroke-width:1;" width="6" x="717" y="255.1484"/><text fill="#000000" font-family="sans-serif" font-size="14" lengthAdjust="spacing" textLength="127.0596" x="729" y="261.4951">String[][] patterns</text><rect fill="none" height="6" style="stroke:#C82930;stroke-width:1;" width="6" x="717" y="271.4453"/><text fill="#000000" font-family="sans-serif" font-size="14" lengthAdjust="spacing" textLength="125.002" x="729" y="277.792">int currentPattern</text><line style="stroke:#181818;stroke-width:0.5;" x1="710" x2="940.3701" y1="285.0938" y2="285.0938"/><ellipse cx="720" cy="298.7422" fill="#84BE84" rx="3" ry="3" style="stroke:#038048;stroke-width:1;"/><text fill="#000000" font-family="sans-serif" font-size="14" lengthAdjust="spacing" textLength="140.9365" x="729" y="302.0889">void switchPattern()</text><ellipse cx="720" cy="315.0391" fill="#84BE84" rx="3" ry="3" style="stroke:#038048;stroke-width:1;"/><text fill="#000000" font-family="sans-serif" font-size="14" lengthAdjust="spacing" textLength="206.3701" x="729" y="318.3857">String[][] getCurrentPattern()</text></g><!--class GraphicsSystem--><g id="elem_GraphicsSystem"><rect codeLine="30" fill="#F1F1F1" height="178.375" id="GraphicsSystem" rx="2.5" ry="2.5" style="stroke:#181818;stroke-width:0.5;" width="373.4502" x="316.5" y="402"/><ellipse cx="441.96" cy="418" fill="#ADD1B2" rx="11" ry="11" style="stroke:#181818;stroke-width:1;"/><path d="M444.9287,423.6406 Q444.3506,423.9375 443.71,424.0781 Q443.0693,424.2344 442.3662,424.2344 Q439.8662,424.2344 438.5381,422.5938 Q437.2256,420.9375 437.2256,417.8125 Q437.2256,414.6875 438.5381,413.0313 Q439.8662,411.375 442.3662,411.375 Q443.0693,411.375 443.71,411.5313 Q444.3662,411.6875 444.9287,411.9844 L444.9287,414.7031 Q444.3037,414.125 443.71,413.8594 Q443.1162,413.5781 442.4912,413.5781 Q441.1475,413.5781 440.46,414.6563 Q439.7725,415.7188 439.7725,417.8125 Q439.7725,419.9063 440.46,420.9844 Q441.1475,422.0469 442.4912,422.0469 Q443.1162,422.0469 443.71,421.7813 Q444.3037,421.5 444.9287,420.9219 L444.9287,423.6406 Z " fill="#000000"/><text fill="#000000" font-family="sans-serif" font-size="14" lengthAdjust="spacing" textLength="114.0303" x="462.46" y="422.8467">GraphicsSystem</text><line style="stroke:#181818;stroke-width:0.5;" x1="317.5" x2="688.9502" y1="434" y2="434"/><rect fill="none" height="6" style="stroke:#C82930;stroke-width:1;" width="6" x="324.5" y="444.6484"/><text fill="#000000" font-family="sans-serif" font-size="14" lengthAdjust="spacing" textLength="138.749" x="336.5" y="450.9951">DoubleBuffer buffer</text><rect fill="none" height="6" style="stroke:#C82930;stroke-width:1;" width="6" x="324.5" y="460.9453"/><text fill="#000000" font-family="sans-serif" font-size="14" lengthAdjust="spacing" textLength="198.208" x="336.5" y="467.292">ColorManager colorManager</text><rect fill="none" height="6" style="stroke:#C82930;stroke-width:1;" width="6" x="324.5" y="477.2422"/><text fill="#000000" font-family="sans-serif" font-size="14" lengthAdjust="spacing" textLength="230.1113" x="336.5" y="483.5889">PatternManager patternManager</text><rect fill="none" height="6" style="stroke:#C82930;stroke-width:1;" width="6" x="324.5" y="493.5391"/><text fill="#000000" font-family="sans-serif" font-size="14" lengthAdjust="spacing" textLength="82.2842" x="336.5" y="499.8857">Timer timer</text><line style="stroke:#181818;stroke-width:0.5;" x1="317.5" x2="688.9502" y1="507.1875" y2="507.1875"/><ellipse cx="327.5" cy="520.8359" fill="#84BE84" rx="3" ry="3" style="stroke:#038048;stroke-width:1;"/><text fill="#000000" font-family="sans-serif" font-size="14" lengthAdjust="spacing" textLength="347.4502" x="336.5" y="524.1826">GraphicsSystem(int width, int height, int interval)</text><ellipse cx="327.5" cy="537.1328" fill="#84BE84" rx="3" ry="3" style="stroke:#038048;stroke-width:1;"/><text fill="#000000" font-family="sans-serif" font-size="14" lengthAdjust="spacing" textLength="287.9297" x="336.5" y="540.4795">void updatePixel(int x, int y, String color)</text><ellipse cx="327.5" cy="553.4297" fill="#84BE84" rx="3" ry="3" style="stroke:#038048;stroke-width:1;"/><text fill="#000000" font-family="sans-serif" font-size="14" lengthAdjust="spacing" textLength="251.2139" x="336.5" y="556.7764">void startPatternSwitch(int interval)</text><ellipse cx="327.5" cy="569.7266" fill="#84BE84" rx="3" ry="3" style="stroke:#038048;stroke-width:1;"/><text fill="#000000" font-family="sans-serif" font-size="14" lengthAdjust="spacing" textLength="91.499" x="336.5" y="573.0732">void render()</text></g><!--class Timer--><g id="elem_Timer"><rect codeLine="41" fill="#F1F1F1" height="64.2969" id="Timer" rx="2.5" ry="2.5" style="stroke:#181818;stroke-width:0.5;" width="471.9014" x="267" y="640"/><ellipse cx="478.4766" cy="656" fill="#ADD1B2" rx="11" ry="11" style="stroke:#181818;stroke-width:1;"/><path d="M481.4453,661.6406 Q480.8672,661.9375 480.2266,662.0781 Q479.5859,662.2344 478.8828,662.2344 Q476.3828,662.2344 475.0547,660.5938 Q473.7422,658.9375 473.7422,655.8125 Q473.7422,652.6875 475.0547,651.0313 Q476.3828,649.375 478.8828,649.375 Q479.5859,649.375 480.2266,649.5313 Q480.8828,649.6875 481.4453,649.9844 L481.4453,652.7031 Q480.8203,652.125 480.2266,651.8594 Q479.6328,651.5781 479.0078,651.5781 Q477.6641,651.5781 476.9766,652.6563 Q476.2891,653.7188 476.2891,655.8125 Q476.2891,657.9063 476.9766,658.9844 Q477.6641,660.0469 479.0078,660.0469 Q479.6328,660.0469 480.2266,659.7813 Q480.8203,659.5 481.4453,658.9219 L481.4453,661.6406 Z " fill="#000000"/><text fill="#000000" font-family="sans-serif" font-size="14" lengthAdjust="spacing" textLength="40.4482" x="498.9766" y="660.8467">Timer</text><line style="stroke:#181818;stroke-width:0.5;" x1="268" x2="737.9014" y1="672" y2="672"/><line style="stroke:#181818;stroke-width:0.5;" x1="268" x2="737.9014" y1="680" y2="680"/><ellipse cx="278" cy="693.6484" fill="#84BE84" rx="3" ry="3" style="stroke:#038048;stroke-width:1;"/><text fill="#000000" font-family="sans-serif" font-size="14" lengthAdjust="spacing" textLength="445.9014" x="287" y="696.9951">void scheduleAtFixedRate(TimerTask task, int delay, int period)</text></g><!--link Frame to DoubleBuffer--><g id="link_Frame_DoubleBuffer"><path codeLine="45" d="M164,136.24 C164,155.3 164,176.32 164,195.87 " fill="none" id="Frame-DoubleBuffer" style="stroke:#181818;stroke-width:1;"/><text fill="#000000" font-family="sans-serif" font-size="13" lengthAdjust="spacing" textLength="8.271" x="155.5572" y="156.6393">1</text><text fill="#000000" font-family="sans-serif" font-size="13" lengthAdjust="spacing" textLength="8.271" x="155.6317" y="185.0172">1</text></g><!--link DoubleBuffer to GraphicsSystem--><g id="link_DoubleBuffer_GraphicsSystem"><path codeLine="46" d="M275,342.04 C304.45,361.15 336.58,382 367.19,401.86 " fill="none" id="DoubleBuffer-GraphicsSystem" style="stroke:#181818;stroke-width:1;"/><text fill="#000000" font-family="sans-serif" font-size="13" lengthAdjust="spacing" textLength="8.271" x="277.223" y="361.8001">1</text><text fill="#000000" font-family="sans-serif" font-size="13" lengthAdjust="spacing" textLength="8.271" x="347.6046" y="390.9139">1</text></g><!--link ColorManager to GraphicsSystem--><g id="link_ColorManager_GraphicsSystem"><path codeLine="47" d="M503,309.59 C503,335.32 503,369.92 503,401.93 " fill="none" id="ColorManager-GraphicsSystem" style="stroke:#181818;stroke-width:1;"/><text fill="#000000" font-family="sans-serif" font-size="13" lengthAdjust="spacing" textLength="8.271" x="494.413" y="329.0619">1</text><text fill="#000000" font-family="sans-serif" font-size="13" lengthAdjust="spacing" textLength="8.271" x="494.6613" y="390.9897">1</text></g><!--link PatternManager to GraphicsSystem--><g id="link_PatternManager_GraphicsSystem"><path codeLine="48" d="M743.75,325.52 C709.84,348.68 669.62,376.16 631.85,401.96 " fill="none" id="PatternManager-GraphicsSystem" style="stroke:#181818;stroke-width:1;"/><text fill="#000000" font-family="sans-serif" font-size="13" lengthAdjust="spacing" textLength="8.271" x="724.821" y="345.786">1</text><text fill="#000000" font-family="sans-serif" font-size="13" lengthAdjust="spacing" textLength="8.271" x="634.1817" y="391.0221">1</text></g><!--link GraphicsSystem to Timer--><g id="link_GraphicsSystem_Timer"><path codeLine="49" d="M503,580.19 C503,601.54 503,623 503,639.69 " fill="none" id="GraphicsSystem-Timer" style="stroke:#181818;stroke-width:1;"/><text fill="#000000" font-family="sans-serif" font-size="13" lengthAdjust="spacing" textLength="8.271" x="494.6486" y="600.5558">1</text><text fill="#000000" font-family="sans-serif" font-size="13" lengthAdjust="spacing" textLength="8.271" x="494.2489" y="628.9032">1</text></g><!--SRC=[fLFBRiCW4BpxAr1EZXeVd3zeKwMdIb6JMvG3WOsDYX-2THwA-k_5G1o8OgbIBHa3EompisicgTPagMW5v9eGysHaZKhKnNQttP5Md45gk__YKAceaPm4nt96-ca9eYXnwY77Hd3IjPmYhFgZ5drsoClCPoQiaOsAZXo4bEbeb0lTIdf9fybFaZ3B-BtfzXBUkiC1r43SoTZRpVp9tjplxPj60gr9fts6tDyMPls3K7sYhGFhT1gQH0h0HQSKrEYJ1TGNlRvFMjCYe7xptAc_EUuTgSJP7jAHHNdivpouOaKHGTLZb_I5TGZj8xr0vWZxix5EWQpqWK5faEqkzmuQo7mesfQ2wVL58rG3cQY2hZu-4Xd4WeMFFwXhewN7R4HbGjYFdcvCutbrtToye8vK_hUfDL9rCsHjBKn7qnllUDmcJi4rIiXAu9s4LrmQ7lpB44ejR4FrDq4pE58SpD_YfYqeqN2RrdNc99-GBBEVi099L8u05DkMHBKPXpsKQ1puq1m1q0hx1G00]--></g></svg>